  0
SECTION
  2
HEADER
  9
$ACADVER
  1
AC1014
  9
$HANDSEED
  5
FFFF
  9
$MEASUREMENT
 70
     1
  0
ENDSEC
  0
SECTION
  2
TABLES
  0
TABLE
  2
VPORT
  5
8
330
0
100
AcDbSymbolTable
 70
     4
  0
VPORT
  5
2E
330
8
100
AcDbSymbolTableRecord
100
AcDbViewportTableRecord
  2
*ACTIVE
 70
     0
 10
0.0
 20
0.0
 11
1.0
 21
1.0
 12
210.0
 22
148.5
 13
0.0
 23
0.0
 14
10.0
 24
10.0
 15
10.0
 25
10.0
 16
0.0
 26
0.0
 36
1.0
 17
0.0
 27
0.0
 37
0.0
 40
341.0
 41
1.24
 42
50.0
 43
0.0
 44
0.0
 50
0.0
 51
0.0
 71
     0
 72
   100
 73
     1
 74
     3
 75
     0
 76
     0
 77
     0
 78
     0
  0
ENDTAB
  0
TABLE
  2
LTYPE
  5
5
330
0
100
AcDbSymbolTable
 70
     1
  0
LTYPE
  5
14
330
5
100
AcDbSymbolTableRecord
100
AcDbLinetypeTableRecord
  2
BYBLOCK
 70
     0
  3

 72
    65
 73
     0
 40
0.0
  0
LTYPE
  5
15
330
5
100
AcDbSymbolTableRecord
100
AcDbLinetypeTableRecord
  2
BYLAYER
 70
     0
  3

 72
    65
 73
     0
 40
0.0
  0
LTYPE
  5
16
330
5
100
AcDbSymbolTableRecord
100
AcDbLinetypeTableRecord
  2
CONTINUOUS
 70
     0
  3
Solid line
 72
    65
 73
     0
 40
0.0
  0
ENDTAB
  0
TABLE
  2
LAYER
  5
2
100
AcDbSymbolTable
 70
1
  0
LAYER
  5
50
100
AcDbSymbolTableRecord
100
AcDbLayerTableRecord
  2
0
 70
0
  6
CONTINUOUS
  0
ENDTAB
  0
TABLE
  2
STYLE
  5
3
330
0
100
AcDbSymbolTable
 70
     1
  0
STYLE
  5
11
330
3
100
AcDbSymbolTableRecord
100
AcDbTextStyleTableRecord
  2
STANDARD
 70
     0
 40
0.0
 41
1.0
 50
0.0
 71
     0
 42
2.5
  3
txt
  4

  0
ENDTAB
  0
TABLE
  2
VIEW
  5
6
330
0
100
AcDbSymbolTable
 70
     0
  0
ENDTAB
  0
TABLE
  2
UCS
  5
7
330
0
100
AcDbSymbolTable
 70
     0
  0
ENDTAB
  0
TABLE
  2
APPID
  5
9
330
0
100
AcDbSymbolTable
 70
     2
  0
APPID
  5
12
330
9
100
AcDbSymbolTableRecord
100
AcDbRegAppTableRecord
  2
ACAD
 70
     0
  0
ENDTAB
  0
TABLE
  2
DIMSTYLE
  5
A
330
0
100
AcDbSymbolTable
 70
     1
  0
DIMSTYLE
105
27
330
A
100
AcDbSymbolTableRecord
100
AcDbDimStyleTableRecord
  2
ISO-25
 70
     0
  3

  4

  5

  6

  7

 40
1.0
 41
2.5
 42
0.625
 43
3.75
 44
1.25
 45
0.0
 46
0.0
 47
0.0
 48
0.0
140
2.5
141
2.5
142
0.0
143
0.03937007874016
144
1.0
145
0.0
146
1.0
147
0.625
 71
     0
 72
     0
 73
     0
 74
     0
 75
     0
 76
     0
 77
     1
 78
     8
170
     0
171
     3
172
     1
173
     0
174
     0
175
     0
176
     0
177
     0
178
     0
270
     2
271
     2
272
     2
273
     2
274
     3
340
11
275
     0
280
     0
281
     0
282
     0
283
     0
284
     8
285
     0
286
     0
287
     3
288
     0
  0
ENDTAB
  0
TABLE
  2
BLOCK_RECORD
  5
1
330
0
100
AcDbSymbolTable
 70
     1
  0
BLOCK_RECORD
  5
1F
330
1
100
AcDbSymbolTableRecord
100
AcDbBlockTableRecord
  2
*MODEL_SPACE
  0
BLOCK_RECORD
  5
1B
330
1
100
AcDbSymbolTableRecord
100
AcDbBlockTableRecord
  2
*PAPER_SPACE
  0
ENDTAB
  0
ENDSEC
  0
SECTION
  2
BLOCKS
  0
BLOCK
  5
20
330
1F
100
AcDbEntity
  8
0
100
AcDbBlockBegin
  2
*MODEL_SPACE
 70
     0
 10
0.0
 20
0.0
 30
0.0
  3
*MODEL_SPACE
  1

  0
ENDBLK
  5
21
330
1F
100
AcDbEntity
  8
0
100
AcDbBlockEnd
  0
BLOCK
  5
1C
330
1B
100
AcDbEntity
 67
     1
  8
0
100
AcDbBlockBegin
  2
*PAPER_SPACE
  1

  0
ENDBLK
  5
1D
330
1B
100
AcDbEntity
 67
     1
  8
0
100
AcDbBlockEnd
  0
ENDSEC
  0
SECTION
  2
ENTITIES
  0
LWPOLYLINE
  5
100
100
AcDbEntity
  8
0
 62
7
100
AcDbPolyline
 90
4
 70
1
 10
177.002186
 20
-163.991219
 30
0.0
 10
285.002224
 20
-163.991219
 30
0.0
 10
285.002224
 20
-195.991155
 30
0.0
 10
177.002186
 20
-195.991155
 30
0.0
  0
LWPOLYLINE
  5
101
100
AcDbEntity
  8
0
 62
7
100
AcDbPolyline
 90
4
 70
1
 10
10.000005
 20
-7.983936
 30
0.0
 10
287.002245
 20
-7.983936
 30
0.0
 10
287.002245
 20
-197.991176
 30
0.0
 10
10.000005
 20
-197.991176
 30
0.0
  0
LWPOLYLINE
  5
102
100
AcDbEntity
  8
0
 62
7
100
AcDbPolyline
 90
4
 70
1
 10
12.000001
 20
-9.983932
 30
0.0
 10
285.001741
 20
-9.983932
 30
0.0
 10
285.001741
 20
-195.991180
 30
0.0
 10
12.000001
 20
-195.991180
 30
0.0
  0
LWPOLYLINE
  5
103
100
AcDbEntity
  8
0
 62
7
100
AcDbPolyline
 90
2
 70
0
 10
59.999880
 20
-9.982891
 30
0.0
 10
59.999880
 20
-7.983911
 30
0.0
  0
LWPOLYLINE
  5
104
100
AcDbEntity
  8
0
 62
7
100
AcDbPolyline
 90
2
 70
0
 10
109.999780
 20
-9.982891
 30
0.0
 10
109.999780
 20
-7.983911
 30
0.0
  0
LWPOLYLINE
  5
105
100
AcDbEntity
  8
0
 62
7
100
AcDbPolyline
 90
2
 70
0
 10
159.999680
 20
-9.982891
 30
0.0
 10
159.999680
 20
-7.983911
 30
0.0
  0
LWPOLYLINE
  5
106
100
AcDbEntity
  8
0
 62
7
100
AcDbPolyline
 90
2
 70
0
 10
209.999580
 20
-9.982891
 30
0.0
 10
209.999580
 20
-7.983911
 30
0.0
  0
LWPOLYLINE
  5
107
100
AcDbEntity
  8
0
 62
7
100
AcDbPolyline
 90
2
 70
0
 10
259.999480
 20
-9.982891
 30
0.0
 10
259.999480
 20
-7.983911
 30
0.0
  0
LWPOLYLINE
  5
108
100
AcDbEntity
  8
0
 62
7
100
AcDbPolyline
 90
2
 70
0
 10
36.065460
 20
-9.571411
 30
0.0
 10
35.321240
 20
-9.571411
 30
0.0
  0
LWPOLYLINE
  5
109
100
AcDbEntity
  8
0
 62
7
100
AcDbPolyline
 90
5
 70
0
 10
35.692080
 20
-9.571411
 30
0.0
 10
35.692080
 20
-8.270931
 30
0.0
 10
35.570160
 20
-8.456351
 30
0.0
 10
35.445700
 20
-8.580811
 30
0.0
 10
35.321240
 20
-8.641771
 30
0.0
  0
LWPOLYLINE
  5
10a
100
AcDbEntity
  8
0
 62
7
100
AcDbPolyline
 90
11
 70
0
 10
85.321140
 20
-8.395391
 30
0.0
 10
85.382100
 20
-8.331891
 30
0.0
 10
85.506560
 20
-8.270931
 30
0.0
 10
85.816440
 20
-8.270931
 30
0.0
 10
85.940900
 20
-8.331891
 30
0.0
 10
86.001860
 20
-8.395391
 30
0.0
 10
86.065360
 20
-8.517311
 30
0.0
 10
86.065360
 20
-8.641771
 30
0.0
 10
86.001860
 20
-8.827191
 30
0.0
 10
85.260180
 20
-9.571411
 30
0.0
 10
86.065360
 20
-9.571411
 30
0.0
  0
LWPOLYLINE
  5
10b
100
AcDbEntity
  8
0
 62
7
100
AcDbPolyline
 90
14
 70
0
 10
135.260080
 20
-8.270931
 30
0.0
 10
136.065260
 20
-8.270931
 30
0.0
 10
135.630920
 20
-8.766231
 30
0.0
 10
135.816340
 20
-8.766231
 30
0.0
 10
135.940800
 20
-8.827191
 30
0.0
 10
136.001760
 20
-8.890691
 30
0.0
 10
136.065260
 20
-9.012611
 30
0.0
 10
136.065260
 20
-9.322491
 30
0.0
 10
136.001760
 20
-9.446951
 30
0.0
 10
135.940800
 20
-9.507911
 30
0.0
 10
135.816340
 20
-9.571411
 30
0.0
 10
135.445500
 20
-9.571411
 30
0.0
 10
135.321040
 20
-9.507911
 30
0.0
 10
135.260080
 20
-9.446951
 30
0.0
  0
LWPOLYLINE
  5
10c
100
AcDbEntity
  8
0
 62
7
100
AcDbPolyline
 90
2
 70
0
 10
185.940700
 20
-8.705271
 30
0.0
 10
185.940700
 20
-9.571411
 30
0.0
  0
LWPOLYLINE
  5
10d
100
AcDbEntity
  8
0
 62
7
100
AcDbPolyline
 90
3
 70
0
 10
185.630820
 20
-8.209971
 30
0.0
 10
185.320940
 20
-9.137071
 30
0.0
 10
186.126120
 20
-9.137071
 30
0.0
  0
LWPOLYLINE
  5
10e
100
AcDbEntity
  8
0
 62
7
100
AcDbPolyline
 90
16
 70
0
 10
236.001560
 20
-8.270931
 30
0.0
 10
235.384340
 20
-8.270931
 30
0.0
 10
235.320840
 20
-8.890691
 30
0.0
 10
235.384340
 20
-8.827191
 30
0.0
 10
235.506260
 20
-8.766231
 30
0.0
 10
235.816140
 20
-8.766231
 30
0.0
 10
235.940600
 20
-8.827191
 30
0.0
 10
236.001560
 20
-8.890691
 30
0.0
 10
236.065060
 20
-9.012611
 30
0.0
 10
236.065060
 20
-9.322491
 30
0.0
 10
236.001560
 20
-9.446951
 30
0.0
 10
235.940600
 20
-9.507911
 30
0.0
 10
235.816140
 20
-9.571411
 30
0.0
 10
235.506260
 20
-9.571411
 30
0.0
 10
235.384340
 20
-9.507911
 30
0.0
 10
235.320840
 20
-9.446951
 30
0.0
  0
LWPOLYLINE
  5
10f
100
AcDbEntity
  8
0
 62
7
100
AcDbPolyline
 90
22
 70
0
 10
285.940500
 20
-8.270931
 30
0.0
 10
285.691580
 20
-8.270931
 30
0.0
 10
285.569660
 20
-8.331891
 30
0.0
 10
285.506160
 20
-8.395391
 30
0.0
 10
285.384240
 20
-8.580811
 30
0.0
 10
285.320740
 20
-8.827191
 30
0.0
 10
285.320740
 20
-9.322491
 30
0.0
 10
285.384240
 20
-9.446951
 30
0.0
 10
285.445200
 20
-9.507911
 30
0.0
 10
285.569660
 20
-9.571411
 30
0.0
 10
285.816040
 20
-9.571411
 30
0.0
 10
285.940500
 20
-9.507911
 30
0.0
 10
286.001460
 20
-9.446951
 30
0.0
 10
286.064960
 20
-9.322491
 30
0.0
 10
286.064960
 20
-9.012611
 30
0.0
 10
286.001460
 20
-8.890691
 30
0.0
 10
285.940500
 20
-8.827191
 30
0.0
 10
285.816040
 20
-8.766231
 30
0.0
 10
285.569660
 20
-8.766231
 30
0.0
 10
285.445200
 20
-8.827191
 30
0.0
 10
285.384240
 20
-8.890691
 30
0.0
 10
285.320740
 20
-9.012611
 30
0.0
  0
LWPOLYLINE
  5
110
100
AcDbEntity
  8
0
 62
7
100
AcDbPolyline
 90
2
 70
0
 10
59.999880
 20
-195.989631
 30
0.0
 10
59.999880
 20
-197.988611
 30
0.0
  0
LWPOLYLINE
  5
111
100
AcDbEntity
  8
0
 62
7
100
AcDbPolyline
 90
2
 70
0
 10
109.999780
 20
-195.989631
 30
0.0
 10
109.999780
 20
-197.988611
 30
0.0
  0
LWPOLYLINE
  5
112
100
AcDbEntity
  8
0
 62
7
100
AcDbPolyline
 90
2
 70
0
 10
159.999680
 20
-195.989631
 30
0.0
 10
159.999680
 20
-197.988611
 30
0.0
  0
LWPOLYLINE
  5
113
100
AcDbEntity
  8
0
 62
7
100
AcDbPolyline
 90
2
 70
0
 10
209.999580
 20
-195.989631
 30
0.0
 10
209.999580
 20
-197.988611
 30
0.0
  0
LWPOLYLINE
  5
114
100
AcDbEntity
  8
0
 62
7
100
AcDbPolyline
 90
2
 70
0
 10
259.999480
 20
-195.989631
 30
0.0
 10
259.999480
 20
-197.988611
 30
0.0
  0
LWPOLYLINE
  5
115
100
AcDbEntity
  8
0
 62
7
100
AcDbPolyline
 90
2
 70
0
 10
36.065460
 20
-197.577131
 30
0.0
 10
35.321240
 20
-197.577131
 30
0.0
  0
LWPOLYLINE
  5
116
100
AcDbEntity
  8
0
 62
7
100
AcDbPolyline
 90
5
 70
0
 10
35.692080
 20
-197.577131
 30
0.0
 10
35.692080
 20
-196.279191
 30
0.0
 10
35.570160
 20
-196.464611
 30
0.0
 10
35.445700
 20
-196.586531
 30
0.0
 10
35.321240
 20
-196.650031
 30
0.0
  0
LWPOLYLINE
  5
117
100
AcDbEntity
  8
0
 62
7
100
AcDbPolyline
 90
11
 70
0
 10
85.321140
 20
-196.401111
 30
0.0
 10
85.382100
 20
-196.340151
 30
0.0
 10
85.506560
 20
-196.279191
 30
0.0
 10
85.816440
 20
-196.279191
 30
0.0
 10
85.940900
 20
-196.340151
 30
0.0
 10
86.001860
 20
-196.401111
 30
0.0
 10
86.065360
 20
-196.525571
 30
0.0
 10
86.065360
 20
-196.650031
 30
0.0
 10
86.001860
 20
-196.835451
 30
0.0
 10
85.260180
 20
-197.577131
 30
0.0
 10
86.065360
 20
-197.577131
 30
0.0
  0
LWPOLYLINE
  5
118
100
AcDbEntity
  8
0
 62
7
100
AcDbPolyline
 90
14
 70
0
 10
135.260080
 20
-196.279191
 30
0.0
 10
136.065260
 20
-196.279191
 30
0.0
 10
135.630920
 20
-196.771951
 30
0.0
 10
135.816340
 20
-196.771951
 30
0.0
 10
135.940800
 20
-196.835451
 30
0.0
 10
136.001760
 20
-196.896411
 30
0.0
 10
136.065260
 20
-197.020871
 30
0.0
 10
136.065260
 20
-197.330751
 30
0.0
 10
136.001760
 20
-197.455211
 30
0.0
 10
135.940800
 20
-197.516171
 30
0.0
 10
135.816340
 20
-197.577131
 30
0.0
 10
135.445500
 20
-197.577131
 30
0.0
 10
135.321040
 20
-197.516171
 30
0.0
 10
135.260080
 20
-197.455211
 30
0.0
  0
LWPOLYLINE
  5
119
100
AcDbEntity
  8
0
 62
7
100
AcDbPolyline
 90
2
 70
0
 10
185.940700
 20
-196.710991
 30
0.0
 10
185.940700
 20
-197.577131
 30
0.0
  0
LWPOLYLINE
  5
11a
100
AcDbEntity
  8
0
 62
7
100
AcDbPolyline
 90
3
 70
0
 10
185.630820
 20
-196.215691
 30
0.0
 10
185.320940
 20
-197.145331
 30
0.0
 10
186.126120
 20
-197.145331
 30
0.0
  0
LWPOLYLINE
  5
11b
100
AcDbEntity
  8
0
 62
7
100
AcDbPolyline
 90
16
 70
0
 10
236.001560
 20
-196.279191
 30
0.0
 10
235.384340
 20
-196.279191
 30
0.0
 10
235.320840
 20
-196.896411
 30
0.0
 10
235.384340
 20
-196.835451
 30
0.0
 10
235.506260
 20
-196.771951
 30
0.0
 10
235.816140
 20
-196.771951
 30
0.0
 10
235.940600
 20
-196.835451
 30
0.0
 10
236.001560
 20
-196.896411
 30
0.0
 10
236.065060
 20
-197.020871
 30
0.0
 10
236.065060
 20
-197.330751
 30
0.0
 10
236.001560
 20
-197.455211
 30
0.0
 10
235.940600
 20
-197.516171
 30
0.0
 10
235.816140
 20
-197.577131
 30
0.0
 10
235.506260
 20
-197.577131
 30
0.0
 10
235.384340
 20
-197.516171
 30
0.0
 10
235.320840
 20
-197.455211
 30
0.0
  0
LWPOLYLINE
  5
11c
100
AcDbEntity
  8
0
 62
7
100
AcDbPolyline
 90
22
 70
0
 10
285.940500
 20
-196.279191
 30
0.0
 10
285.691580
 20
-196.279191
 30
0.0
 10
285.569660
 20
-196.340151
 30
0.0
 10
285.506160
 20
-196.401111
 30
0.0
 10
285.384240
 20
-196.586531
 30
0.0
 10
285.320740
 20
-196.835451
 30
0.0
 10
285.320740
 20
-197.330751
 30
0.0
 10
285.384240
 20
-197.455211
 30
0.0
 10
285.445200
 20
-197.516171
 30
0.0
 10
285.569660
 20
-197.577131
 30
0.0
 10
285.816040
 20
-197.577131
 30
0.0
 10
285.940500
 20
-197.516171
 30
0.0
 10
286.001460
 20
-197.455211
 30
0.0
 10
286.064960
 20
-197.330751
 30
0.0
 10
286.064960
 20
-197.020871
 30
0.0
 10
286.001460
 20
-196.896411
 30
0.0
 10
285.940500
 20
-196.835451
 30
0.0
 10
285.816040
 20
-196.771951
 30
0.0
 10
285.569660
 20
-196.771951
 30
0.0
 10
285.445200
 20
-196.835451
 30
0.0
 10
285.384240
 20
-196.896411
 30
0.0
 10
285.320740
 20
-197.020871
 30
0.0
  0
LWPOLYLINE
  5
11d
100
AcDbEntity
  8
0
 62
7
100
AcDbPolyline
 90
2
 70
0
 10
9.999980
 20
-57.983811
 30
0.0
 10
11.998960
 20
-57.983811
 30
0.0
  0
LWPOLYLINE
  5
11e
100
AcDbEntity
  8
0
 62
7
100
AcDbPolyline
 90
2
 70
0
 10
9.999980
 20
-107.983711
 30
0.0
 10
11.998960
 20
-107.983711
 30
0.0
  0
LWPOLYLINE
  5
11f
100
AcDbEntity
  8
0
 62
7
100
AcDbPolyline
 90
2
 70
0
 10
9.999980
 20
-157.983611
 30
0.0
 10
11.998960
 20
-157.983611
 30
0.0
  0
LWPOLYLINE
  5
120
100
AcDbEntity
  8
0
 62
7
100
AcDbPolyline
 90
2
 70
0
 10
10.688320
 20
-33.198491
 30
0.0
 10
11.308080
 20
-33.198491
 30
0.0
  0
LWPOLYLINE
  5
121
100
AcDbEntity
  8
0
 62
7
100
AcDbPolyline
 90
3
 70
0
 10
10.566400
 20
-33.571871
 30
0.0
 10
10.998200
 20
-32.271391
 30
0.0
 10
11.432540
 20
-33.571871
 30
0.0
  0
LWPOLYLINE
  5
122
100
AcDbEntity
  8
0
 62
7
100
AcDbPolyline
 90
19
 70
0
 10
11.092180
 20
-82.891051
 30
0.0
 10
11.277600
 20
-82.952011
 30
0.0
 10
11.338560
 20
-83.012971
 30
0.0
 10
11.402060
 20
-83.137431
 30
0.0
 10
11.402060
 20
-83.322851
 30
0.0
 10
11.338560
 20
-83.447311
 30
0.0
 10
11.277600
 20
-83.508271
 30
0.0
 10
11.153140
 20
-83.571771
 30
0.0
 10
10.657840
 20
-83.571771
 30
0.0
 10
10.657840
 20
-82.271291
 30
0.0
 10
11.092180
 20
-82.271291
 30
0.0
 10
11.216640
 20
-82.332251
 30
0.0
 10
11.277600
 20
-82.395751
 30
0.0
 10
11.338560
 20
-82.517671
 30
0.0
 10
11.338560
 20
-82.642131
 30
0.0
 10
11.277600
 20
-82.766591
 30
0.0
 10
11.216640
 20
-82.827551
 30
0.0
 10
11.092180
 20
-82.891051
 30
0.0
 10
10.657840
 20
-82.891051
 30
0.0
  0
LWPOLYLINE
  5
123
100
AcDbEntity
  8
0
 62
7
100
AcDbPolyline
 90
16
 70
0
 10
11.402060
 20
-133.447211
 30
0.0
 10
11.338560
 20
-133.508171
 30
0.0
 10
11.153140
 20
-133.571671
 30
0.0
 10
11.028680
 20
-133.571671
 30
0.0
 10
10.843260
 20
-133.508171
 30
0.0
 10
10.721340
 20
-133.386251
 30
0.0
 10
10.657840
 20
-133.261791
 30
0.0
 10
10.596880
 20
-133.012871
 30
0.0
 10
10.596880
 20
-132.827451
 30
0.0
 10
10.657840
 20
-132.581071
 30
0.0
 10
10.721340
 20
-132.456611
 30
0.0
 10
10.843260
 20
-132.332151
 30
0.0
 10
11.028680
 20
-132.271191
 30
0.0
 10
11.153140
 20
-132.271191
 30
0.0
 10
11.338560
 20
-132.332151
 30
0.0
 10
11.402060
 20
-132.395651
 30
0.0
  0
LWPOLYLINE
  5
124
100
AcDbEntity
  8
0
 62
7
100
AcDbPolyline
 90
12
 70
1
 10
10.657840
 20
-183.571571
 30
0.0
 10
10.657840
 20
-182.271091
 30
0.0
 10
10.967720
 20
-182.271091
 30
0.0
 10
11.153140
 20
-182.332051
 30
0.0
 10
11.277600
 20
-182.456511
 30
0.0
 10
11.338560
 20
-182.580971
 30
0.0
 10
11.402060
 20
-182.827351
 30
0.0
 10
11.402060
 20
-183.012771
 30
0.0
 10
11.338560
 20
-183.261691
 30
0.0
 10
11.277600
 20
-183.386151
 30
0.0
 10
11.153140
 20
-183.508071
 30
0.0
 10
10.967720
 20
-183.571571
 30
0.0
  0
LWPOLYLINE
  5
125
100
AcDbEntity
  8
0
 62
7
100
AcDbPolyline
 90
2
 70
0
 10
286.999680
 20
-57.983811
 30
0.0
 10
285.000700
 20
-57.983811
 30
0.0
  0
LWPOLYLINE
  5
126
100
AcDbEntity
  8
0
 62
7
100
AcDbPolyline
 90
2
 70
0
 10
286.999680
 20
-107.983711
 30
0.0
 10
285.000700
 20
-107.983711
 30
0.0
  0
LWPOLYLINE
  5
127
100
AcDbEntity
  8
0
 62
7
100
AcDbPolyline
 90
2
 70
0
 10
286.999680
 20
-157.983611
 30
0.0
 10
285.000700
 20
-157.983611
 30
0.0
  0
LWPOLYLINE
  5
128
100
AcDbEntity
  8
0
 62
7
100
AcDbPolyline
 90
2
 70
0
 10
285.691580
 20
-33.198491
 30
0.0
 10
286.311340
 20
-33.198491
 30
0.0
  0
LWPOLYLINE
  5
129
100
AcDbEntity
  8
0
 62
7
100
AcDbPolyline
 90
3
 70
0
 10
285.567120
 20
-33.571871
 30
0.0
 10
286.001460
 20
-32.271391
 30
0.0
 10
286.433260
 20
-33.571871
 30
0.0
  0
LWPOLYLINE
  5
12a
100
AcDbEntity
  8
0
 62
7
100
AcDbPolyline
 90
19
 70
0
 10
286.092900
 20
-82.891051
 30
0.0
 10
286.278320
 20
-82.952011
 30
0.0
 10
286.341820
 20
-83.012971
 30
0.0
 10
286.402780
 20
-83.137431
 30
0.0
 10
286.402780
 20
-83.322851
 30
0.0
 10
286.341820
 20
-83.447311
 30
0.0
 10
286.278320
 20
-83.508271
 30
0.0
 10
286.156400
 20
-83.571771
 30
0.0
 10
285.661100
 20
-83.571771
 30
0.0
 10
285.661100
 20
-82.271291
 30
0.0
 10
286.092900
 20
-82.271291
 30
0.0
 10
286.217360
 20
-82.332251
 30
0.0
 10
286.278320
 20
-82.395751
 30
0.0
 10
286.341820
 20
-82.517671
 30
0.0
 10
286.341820
 20
-82.642131
 30
0.0
 10
286.278320
 20
-82.766591
 30
0.0
 10
286.217360
 20
-82.827551
 30
0.0
 10
286.092900
 20
-82.891051
 30
0.0
 10
285.661100
 20
-82.891051
 30
0.0
  0
LWPOLYLINE
  5
12b
100
AcDbEntity
  8
0
 62
7
100
AcDbPolyline
 90
16
 70
0
 10
286.402780
 20
-133.447211
 30
0.0
 10
286.341820
 20
-133.508171
 30
0.0
 10
286.156400
 20
-133.571671
 30
0.0
 10
286.031940
 20
-133.571671
 30
0.0
 10
285.846520
 20
-133.508171
 30
0.0
 10
285.722060
 20
-133.386251
 30
0.0
 10
285.661100
 20
-133.261791
 30
0.0
 10
285.597600
 20
-133.012871
 30
0.0
 10
285.597600
 20
-132.827451
 30
0.0
 10
285.661100
 20
-132.581071
 30
0.0
 10
285.722060
 20
-132.456611
 30
0.0
 10
285.846520
 20
-132.332151
 30
0.0
 10
286.031940
 20
-132.271191
 30
0.0
 10
286.156400
 20
-132.271191
 30
0.0
 10
286.341820
 20
-132.332151
 30
0.0
 10
286.402780
 20
-132.395651
 30
0.0
  0
LWPOLYLINE
  5
12c
100
AcDbEntity
  8
0
 62
7
100
AcDbPolyline
 90
12
 70
1
 10
285.661100
 20
-183.571571
 30
0.0
 10
285.661100
 20
-182.271091
 30
0.0
 10
285.970980
 20
-182.271091
 30
0.0
 10
286.156400
 20
-182.332051
 30
0.0
 10
286.278320
 20
-182.456511
 30
0.0
 10
286.341820
 20
-182.580971
 30
0.0
 10
286.402780
 20
-182.827351
 30
0.0
 10
286.402780
 20
-183.012771
 30
0.0
 10
286.341820
 20
-183.261691
 30
0.0
 10
286.278320
 20
-183.386151
 30
0.0
 10
286.156400
 20
-183.508071
 30
0.0
 10
285.970980
 20
-183.571571
 30
0.0
  0
LWPOLYLINE
  5
12d
100
AcDbEntity
  8
0
 62
7
100
AcDbPolyline
 90
12
 70
1
 10
200.433940
 20
-191.768151
 30
0.0
 10
200.433940
 20
-190.269551
 30
0.0
 10
200.789540
 20
-190.269551
 30
0.0
 10
201.005440
 20
-190.340671
 30
0.0
 10
201.147680
 20
-190.482911
 30
0.0
 10
201.218800
 20
-190.625151
 30
0.0
 10
201.289920
 20
-190.912171
 30
0.0
 10
201.289920
 20
-191.125531
 30
0.0
 10
201.218800
 20
-191.412551
 30
0.0
 10
201.147680
 20
-191.554791
 30
0.0
 10
201.005440
 20
-191.697031
 30
0.0
 10
200.789540
 20
-191.768151
 30
0.0
  0
LWPOLYLINE
  5
12e
100
AcDbEntity
  8
0
 62
7
100
AcDbPolyline
 90
6
 70
0
 10
202.575160
 20
-191.768151
 30
0.0
 10
202.575160
 20
-190.983291
 30
0.0
 10
202.504040
 20
-190.841051
 30
0.0
 10
202.361800
 20
-190.767391
 30
0.0
 10
202.074780
 20
-190.767391
 30
0.0
 10
201.932540
 20
-190.841051
 30
0.0
  0
LWPOLYLINE
  5
12f
100
AcDbEntity
  8
0
 62
7
100
AcDbPolyline
 90
10
 70
0
 10
202.575160
 20
-191.697031
 30
0.0
 10
202.432920
 20
-191.768151
 30
0.0
 10
202.074780
 20
-191.768151
 30
0.0
 10
201.932540
 20
-191.697031
 30
0.0
 10
201.861420
 20
-191.554791
 30
0.0
 10
201.861420
 20
-191.412551
 30
0.0
 10
201.932540
 20
-191.267771
 30
0.0
 10
202.074780
 20
-191.196651
 30
0.0
 10
202.432920
 20
-191.196651
 30
0.0
 10
202.575160
 20
-191.125531
 30
0.0
  0
LWPOLYLINE
  5
130
100
AcDbEntity
  8
0
 62
7
100
AcDbPolyline
 90
2
 70
0
 10
203.075540
 20
-190.767391
 30
0.0
 10
203.647040
 20
-190.767391
 30
0.0
  0
LWPOLYLINE
  5
131
100
AcDbEntity
  8
0
 62
7
100
AcDbPolyline
 90
5
 70
0
 10
203.291440
 20
-190.269551
 30
0.0
 10
203.291440
 20
-191.554791
 30
0.0
 10
203.362560
 20
-191.697031
 30
0.0
 10
203.504800
 20
-191.768151
 30
0.0
 10
203.647040
 20
-191.768151
 30
0.0
  0
LWPOLYLINE
  5
132
100
AcDbEntity
  8
0
 62
7
100
AcDbPolyline
 90
13
 70
0
 10
204.718920
 20
-191.697031
 30
0.0
 10
204.576680
 20
-191.768151
 30
0.0
 10
204.289660
 20
-191.768151
 30
0.0
 10
204.147420
 20
-191.697031
 30
0.0
 10
204.076300
 20
-191.554791
 30
0.0
 10
204.076300
 20
-190.983291
 30
0.0
 10
204.147420
 20
-190.841051
 30
0.0
 10
204.289660
 20
-190.767391
 30
0.0
 10
204.576680
 20
-190.767391
 30
0.0
 10
204.718920
 20
-190.841051
 30
0.0
 10
204.790040
 20
-190.983291
 30
0.0
 10
204.790040
 20
-191.125531
 30
0.0
 10
204.076300
 20
-191.267771
 30
0.0
  0
LWPOLYLINE
  5
133
100
AcDbEntity
  8
0
 62
7
100
AcDbPolyline
 90
6
 70
0
 10
205.432660
 20
-191.625911
 30
0.0
 10
205.503780
 20
-191.697031
 30
0.0
 10
205.432660
 20
-191.768151
 30
0.0
 10
205.361540
 20
-191.697031
 30
0.0
 10
205.432660
 20
-191.625911
 30
0.0
 10
205.432660
 20
-191.768151
 30
0.0
  0
LWPOLYLINE
  5
134
100
AcDbEntity
  8
0
 62
7
100
AcDbPolyline
 90
6
 70
0
 10
205.432660
 20
-190.841051
 30
0.0
 10
205.503780
 20
-190.912171
 30
0.0
 10
205.432660
 20
-190.983291
 30
0.0
 10
205.361540
 20
-190.912171
 30
0.0
 10
205.432660
 20
-190.841051
 30
0.0
 10
205.432660
 20
-190.983291
 30
0.0
  0
LWPOLYLINE
  5
135
100
AcDbEntity
  8
0
 62
7
100
AcDbPolyline
 90
2
 70
0
 10
176.999900
 20
-192.489511
 30
0.0
 10
285.000700
 20
-192.489511
 30
0.0
  0
LWPOLYLINE
  5
136
100
AcDbEntity
  8
0
 62
7
100
AcDbPolyline
 90
2
 70
0
 10
178.432460
 20
-194.567231
 30
0.0
 10
178.432460
 20
-193.068631
 30
0.0
  0
LWPOLYLINE
  5
137
100
AcDbEntity
  8
0
 62
7
100
AcDbPolyline
 90
2
 70
0
 10
179.290980
 20
-194.567231
 30
0.0
 10
178.648360
 20
-193.711251
 30
0.0
  0
LWPOLYLINE
  5
138
100
AcDbEntity
  8
0
 62
7
100
AcDbPolyline
 90
2
 70
0
 10
179.290980
 20
-193.068631
 30
0.0
 10
178.432460
 20
-193.924611
 30
0.0
  0
LWPOLYLINE
  5
139
100
AcDbEntity
  8
0
 62
7
100
AcDbPolyline
 90
2
 70
0
 10
179.933600
 20
-194.567231
 30
0.0
 10
179.933600
 20
-193.569011
 30
0.0
  0
LWPOLYLINE
  5
13a
100
AcDbEntity
  8
0
 62
7
100
AcDbPolyline
 90
6
 70
0
 10
179.933600
 20
-193.068631
 30
0.0
 10
179.862480
 20
-193.139751
 30
0.0
 10
179.933600
 20
-193.210871
 30
0.0
 10
180.004720
 20
-193.139751
 30
0.0
 10
179.933600
 20
-193.068631
 30
0.0
 10
179.933600
 20
-193.210871
 30
0.0
  0
LWPOLYLINE
  5
13b
100
AcDbEntity
  8
0
 62
7
100
AcDbPolyline
 90
16
 70
0
 10
181.503320
 20
-194.424991
 30
0.0
 10
181.432200
 20
-194.496111
 30
0.0
 10
181.218840
 20
-194.567231
 30
0.0
 10
181.076600
 20
-194.567231
 30
0.0
 10
180.860700
 20
-194.496111
 30
0.0
 10
180.718460
 20
-194.353871
 30
0.0
 10
180.647340
 20
-194.211631
 30
0.0
 10
180.576220
 20
-193.924611
 30
0.0
 10
180.576220
 20
-193.711251
 30
0.0
 10
180.647340
 20
-193.426771
 30
0.0
 10
180.718460
 20
-193.281991
 30
0.0
 10
180.860700
 20
-193.139751
 30
0.0
 10
181.076600
 20
-193.068631
 30
0.0
 10
181.218840
 20
-193.068631
 30
0.0
 10
181.432200
 20
-193.139751
 30
0.0
 10
181.503320
 20
-193.210871
 30
0.0
  0
LWPOLYLINE
  5
13c
100
AcDbEntity
  8
0
 62
7
100
AcDbPolyline
 90
6
 70
0
 10
182.791100
 20
-194.567231
 30
0.0
 10
182.791100
 20
-193.782371
 30
0.0
 10
182.719980
 20
-193.640131
 30
0.0
 10
182.575200
 20
-193.569011
 30
0.0
 10
182.290720
 20
-193.569011
 30
0.0
 10
182.148480
 20
-193.640131
 30
0.0
  0
LWPOLYLINE
  5
13d
100
AcDbEntity
  8
0
 62
7
100
AcDbPolyline
 90
10
 70
0
 10
182.791100
 20
-194.496111
 30
0.0
 10
182.646320
 20
-194.567231
 30
0.0
 10
182.290720
 20
-194.567231
 30
0.0
 10
182.148480
 20
-194.496111
 30
0.0
 10
182.074820
 20
-194.353871
 30
0.0
 10
182.074820
 20
-194.211631
 30
0.0
 10
182.148480
 20
-194.069391
 30
0.0
 10
182.290720
 20
-193.998271
 30
0.0
 10
182.646320
 20
-193.998271
 30
0.0
 10
182.791100
 20
-193.924611
 30
0.0
  0
LWPOLYLINE
  5
13e
100
AcDbEntity
  8
0
 62
7
100
AcDbPolyline
 90
2
 70
0
 10
184.147460
 20
-194.567231
 30
0.0
 10
184.147460
 20
-193.068631
 30
0.0
  0
LWPOLYLINE
  5
13f
100
AcDbEntity
  8
0
 62
7
100
AcDbPolyline
 90
12
 70
0
 10
184.147460
 20
-194.496111
 30
0.0
 10
184.005220
 20
-194.567231
 30
0.0
 10
183.718200
 20
-194.567231
 30
0.0
 10
183.575960
 20
-194.496111
 30
0.0
 10
183.504840
 20
-194.424991
 30
0.0
 10
183.433720
 20
-194.282751
 30
0.0
 10
183.433720
 20
-193.853491
 30
0.0
 10
183.504840
 20
-193.711251
 30
0.0
 10
183.575960
 20
-193.640131
 30
0.0
 10
183.718200
 20
-193.569011
 30
0.0
 10
184.005220
 20
-193.569011
 30
0.0
 10
184.147460
 20
-193.640131
 30
0.0
  0
LWPOLYLINE
  5
140
100
AcDbEntity
  8
0
 62
7
100
AcDbPolyline
 90
2
 70
0
 10
186.004200
 20
-193.782371
 30
0.0
 10
186.504580
 20
-193.782371
 30
0.0
  0
LWPOLYLINE
  5
141
100
AcDbEntity
  8
0
 62
7
100
AcDbPolyline
 90
4
 70
0
 10
186.717940
 20
-194.567231
 30
0.0
 10
186.004200
 20
-194.567231
 30
0.0
 10
186.004200
 20
-193.068631
 30
0.0
 10
186.717940
 20
-193.068631
 30
0.0
  0
LWPOLYLINE
  5
142
100
AcDbEntity
  8
0
 62
7
100
AcDbPolyline
 90
6
 70
0
 10
187.360560
 20
-194.424991
 30
0.0
 10
187.434220
 20
-194.496111
 30
0.0
 10
187.360560
 20
-194.567231
 30
0.0
 10
187.289440
 20
-194.496111
 30
0.0
 10
187.360560
 20
-194.424991
 30
0.0
 10
187.360560
 20
-194.567231
 30
0.0
  0
LWPOLYLINE
  5
143
100
AcDbEntity
  8
0
 62
7
100
AcDbPolyline
 90
12
 70
1
 10
188.076840
 20
-194.567231
 30
0.0
 10
188.076840
 20
-193.068631
 30
0.0
 10
188.432440
 20
-193.068631
 30
0.0
 10
188.648340
 20
-193.139751
 30
0.0
 10
188.790580
 20
-193.281991
 30
0.0
 10
188.861700
 20
-193.426771
 30
0.0
 10
188.932820
 20
-193.711251
 30
0.0
 10
188.932820
 20
-193.924611
 30
0.0
 10
188.861700
 20
-194.211631
 30
0.0
 10
188.790580
 20
-194.353871
 30
0.0
 10
188.648340
 20
-194.496111
 30
0.0
 10
188.432440
 20
-194.567231
 30
0.0
  0
LWPOLYLINE
  5
144
100
AcDbEntity
  8
0
 62
7
100
AcDbPolyline
 90
6
 70
0
 10
189.575440
 20
-194.424991
 30
0.0
 10
189.646560
 20
-194.496111
 30
0.0
 10
189.575440
 20
-194.567231
 30
0.0
 10
189.504320
 20
-194.496111
 30
0.0
 10
189.575440
 20
-194.424991
 30
0.0
 10
189.575440
 20
-194.567231
 30
0.0
  0
LWPOLYLINE
  5
145
100
AcDbEntity
  8
0
 62
7
100
AcDbPolyline
 90
2
 70
0
 10
190.218060
 20
-194.140511
 30
0.0
 10
190.934340
 20
-194.140511
 30
0.0
  0
LWPOLYLINE
  5
146
100
AcDbEntity
  8
0
 62
7
100
AcDbPolyline
 90
3
 70
0
 10
190.075820
 20
-194.567231
 30
0.0
 10
190.576200
 20
-193.068631
 30
0.0
 10
191.076580
 20
-194.567231
 30
0.0
  0
LWPOLYLINE
  5
147
100
AcDbEntity
  8
0
 62
7
100
AcDbPolyline
 90
6
 70
0
 10
191.576960
 20
-194.424991
 30
0.0
 10
191.648080
 20
-194.496111
 30
0.0
 10
191.576960
 20
-194.567231
 30
0.0
 10
191.503300
 20
-194.496111
 30
0.0
 10
191.576960
 20
-194.424991
 30
0.0
 10
191.576960
 20
-194.567231
 30
0.0
  0
LWPOLYLINE
  5
148
100
AcDbEntity
  8
0
 62
7
100
AcDbPolyline
 90
2
 70
0
 10
194.576700
 20
-194.567231
 30
0.0
 10
194.576700
 20
-193.068631
 30
0.0
  0
LWPOLYLINE
  5
149
100
AcDbEntity
  8
0
 62
7
100
AcDbPolyline
 90
2
 70
0
 10
194.718940
 20
-193.998271
 30
0.0
 10
195.148200
 20
-194.567231
 30
0.0
  0
LWPOLYLINE
  5
14a
100
AcDbEntity
  8
0
 62
7
100
AcDbPolyline
 90
2
 70
0
 10
195.148200
 20
-193.569011
 30
0.0
 10
194.576700
 20
-194.140511
 30
0.0
  0
LWPOLYLINE
  5
14b
100
AcDbEntity
  8
0
 62
7
100
AcDbPolyline
 90
2
 70
0
 10
195.790820
 20
-194.567231
 30
0.0
 10
195.790820
 20
-193.569011
 30
0.0
  0
LWPOLYLINE
  5
14c
100
AcDbEntity
  8
0
 62
7
100
AcDbPolyline
 90
6
 70
0
 10
195.790820
 20
-193.068631
 30
0.0
 10
195.719700
 20
-193.139751
 30
0.0
 10
195.790820
 20
-193.210871
 30
0.0
 10
195.861940
 20
-193.139751
 30
0.0
 10
195.790820
 20
-193.068631
 30
0.0
 10
195.790820
 20
-193.210871
 30
0.0
  0
LWPOLYLINE
  5
14d
100
AcDbEntity
  8
0
 62
7
100
AcDbPolyline
 90
12
 70
0
 10
197.147180
 20
-194.496111
 30
0.0
 10
197.004940
 20
-194.567231
 30
0.0
 10
196.717920
 20
-194.567231
 30
0.0
 10
196.575680
 20
-194.496111
 30
0.0
 10
196.504560
 20
-194.424991
 30
0.0
 10
196.433440
 20
-194.282751
 30
0.0
 10
196.433440
 20
-193.853491
 30
0.0
 10
196.504560
 20
-193.711251
 30
0.0
 10
196.575680
 20
-193.640131
 30
0.0
 10
196.717920
 20
-193.569011
 30
0.0
 10
197.004940
 20
-193.569011
 30
0.0
 10
197.147180
 20
-193.640131
 30
0.0
  0
LWPOLYLINE
  5
14e
100
AcDbEntity
  8
0
 62
7
100
AcDbPolyline
 90
6
 70
0
 10
198.432420
 20
-194.567231
 30
0.0
 10
198.432420
 20
-193.782371
 30
0.0
 10
198.361300
 20
-193.640131
 30
0.0
 10
198.219060
 20
-193.569011
 30
0.0
 10
197.932040
 20
-193.569011
 30
0.0
 10
197.789800
 20
-193.640131
 30
0.0
  0
LWPOLYLINE
  5
14f
100
AcDbEntity
  8
0
 62
7
100
AcDbPolyline
 90
10
 70
0
 10
198.432420
 20
-194.496111
 30
0.0
 10
198.290180
 20
-194.567231
 30
0.0
 10
197.932040
 20
-194.567231
 30
0.0
 10
197.789800
 20
-194.496111
 30
0.0
 10
197.718680
 20
-194.353871
 30
0.0
 10
197.718680
 20
-194.211631
 30
0.0
 10
197.789800
 20
-194.069391
 30
0.0
 10
197.932040
 20
-193.998271
 30
0.0
 10
198.290180
 20
-193.998271
 30
0.0
 10
198.432420
 20
-193.924611
 30
0.0
  0
LWPOLYLINE
  5
150
100
AcDbEntity
  8
0
 62
7
100
AcDbPolyline
 90
2
 70
0
 10
199.791320
 20
-194.567231
 30
0.0
 10
199.791320
 20
-193.068631
 30
0.0
  0
LWPOLYLINE
  5
151
100
AcDbEntity
  8
0
 62
7
100
AcDbPolyline
 90
12
 70
0
 10
199.791320
 20
-194.496111
 30
0.0
 10
199.646540
 20
-194.567231
 30
0.0
 10
199.362060
 20
-194.567231
 30
0.0
 10
199.219820
 20
-194.496111
 30
0.0
 10
199.146160
 20
-194.424991
 30
0.0
 10
199.075040
 20
-194.282751
 30
0.0
 10
199.075040
 20
-193.853491
 30
0.0
 10
199.146160
 20
-193.711251
 30
0.0
 10
199.219820
 20
-193.640131
 30
0.0
 10
199.362060
 20
-193.569011
 30
0.0
 10
199.646540
 20
-193.569011
 30
0.0
 10
199.791320
 20
-193.640131
 30
0.0
  0
LWPOLYLINE
  5
152
100
AcDbEntity
  8
0
 62
7
100
AcDbPolyline
 90
16
 70
0
 10
202.361800
 20
-193.068631
 30
0.0
 10
201.648060
 20
-193.068631
 30
0.0
 10
201.576940
 20
-193.782371
 30
0.0
 10
201.648060
 20
-193.711251
 30
0.0
 10
201.790300
 20
-193.640131
 30
0.0
 10
202.148440
 20
-193.640131
 30
0.0
 10
202.290680
 20
-193.711251
 30
0.0
 10
202.361800
 20
-193.782371
 30
0.0
 10
202.432920
 20
-193.924611
 30
0.0
 10
202.432920
 20
-194.282751
 30
0.0
 10
202.361800
 20
-194.424991
 30
0.0
 10
202.290680
 20
-194.496111
 30
0.0
 10
202.148440
 20
-194.567231
 30
0.0
 10
201.790300
 20
-194.567231
 30
0.0
 10
201.648060
 20
-194.496111
 30
0.0
 10
201.576940
 20
-194.424991
 30
0.0
  0
LWPOLYLINE
  5
153
100
AcDbEntity
  8
0
 62
7
100
AcDbPolyline
 90
6
 70
0
 10
203.075540
 20
-194.424991
 30
0.0
 10
203.146660
 20
-194.496111
 30
0.0
 10
203.075540
 20
-194.567231
 30
0.0
 10
203.004420
 20
-194.496111
 30
0.0
 10
203.075540
 20
-194.424991
 30
0.0
 10
203.075540
 20
-194.567231
 30
0.0
  0
LWPOLYLINE
  5
154
100
AcDbEntity
  8
0
 62
7
100
AcDbPolyline
 90
2
 70
0
 10
204.576680
 20
-194.567231
 30
0.0
 10
203.718160
 20
-194.567231
 30
0.0
  0
LWPOLYLINE
  5
155
100
AcDbEntity
  8
0
 62
7
100
AcDbPolyline
 90
5
 70
0
 10
204.147420
 20
-194.567231
 30
0.0
 10
204.147420
 20
-193.068631
 30
0.0
 10
204.005180
 20
-193.281991
 30
0.0
 10
203.860400
 20
-193.426771
 30
0.0
 10
203.718160
 20
-193.497891
 30
0.0
  0
LWPOLYLINE
  5
156
100
AcDbEntity
  8
0
 62
7
100
AcDbPolyline
 90
6
 70
0
 10
205.219300
 20
-194.424991
 30
0.0
 10
205.290420
 20
-194.496111
 30
0.0
 10
205.219300
 20
-194.567231
 30
0.0
 10
205.148180
 20
-194.496111
 30
0.0
 10
205.219300
 20
-194.424991
 30
0.0
 10
205.219300
 20
-194.567231
 30
0.0
  0
LWPOLYLINE
  5
157
100
AcDbEntity
  8
0
 62
7
100
AcDbPolyline
 90
22
 70
0
 10
206.004160
 20
-194.567231
 30
0.0
 10
206.291180
 20
-194.567231
 30
0.0
 10
206.433420
 20
-194.496111
 30
0.0
 10
206.504540
 20
-194.424991
 30
0.0
 10
206.646780
 20
-194.211631
 30
0.0
 10
206.717900
 20
-193.924611
 30
0.0
 10
206.717900
 20
-193.353111
 30
0.0
 10
206.646780
 20
-193.210871
 30
0.0
 10
206.575660
 20
-193.139751
 30
0.0
 10
206.433420
 20
-193.068631
 30
0.0
 10
206.146400
 20
-193.068631
 30
0.0
 10
206.004160
 20
-193.139751
 30
0.0
 10
205.933040
 20
-193.210871
 30
0.0
 10
205.861920
 20
-193.353111
 30
0.0
 10
205.861920
 20
-193.711251
 30
0.0
 10
205.933040
 20
-193.853491
 30
0.0
 10
206.004160
 20
-193.924611
 30
0.0
 10
206.146400
 20
-193.998271
 30
0.0
 10
206.433420
 20
-193.998271
 30
0.0
 10
206.575660
 20
-193.924611
 30
0.0
 10
206.646780
 20
-193.853491
 30
0.0
 10
206.717900
 20
-193.711251
 30
0.0
  0
LWPOLYLINE
  5
158
100
AcDbEntity
  8
0
 62
7
100
AcDbPolyline
 90
2
 70
0
 10
176.999900
 20
-189.489771
 30
0.0
 10
285.000700
 20
-189.489771
 30
0.0
  0
LWPOLYLINE
  5
159
100
AcDbEntity
  8
0
 62
7
100
AcDbPolyline
 90
2
 70
0
 10
264.411460
 20
-191.768151
 30
0.0
 10
263.911080
 20
-191.054411
 30
0.0
  0
LWPOLYLINE
  5
15a
100
AcDbEntity
  8
0
 62
7
100
AcDbPolyline
 90
11
 70
0
 10
263.552940
 20
-191.768151
 30
0.0
 10
263.552940
 20
-190.269551
 30
0.0
 10
264.124440
 20
-190.269551
 30
0.0
 10
264.266680
 20
-190.340671
 30
0.0
 10
264.337800
 20
-190.411791
 30
0.0
 10
264.411460
 20
-190.554031
 30
0.0
 10
264.411460
 20
-190.767391
 30
0.0
 10
264.337800
 20
-190.912171
 30
0.0
 10
264.266680
 20
-190.983291
 30
0.0
 10
264.124440
 20
-191.054411
 30
0.0
 10
263.552940
 20
-191.054411
 30
0.0
  0
LWPOLYLINE
  5
15b
100
AcDbEntity
  8
0
 62
7
100
AcDbPolyline
 90
13
 70
0
 10
265.625580
 20
-191.697031
 30
0.0
 10
265.480800
 20
-191.768151
 30
0.0
 10
265.196320
 20
-191.768151
 30
0.0
 10
265.054080
 20
-191.697031
 30
0.0
 10
264.980420
 20
-191.554791
 30
0.0
 10
264.980420
 20
-190.983291
 30
0.0
 10
265.054080
 20
-190.841051
 30
0.0
 10
265.196320
 20
-190.767391
 30
0.0
 10
265.480800
 20
-190.767391
 30
0.0
 10
265.625580
 20
-190.841051
 30
0.0
 10
265.696700
 20
-190.983291
 30
0.0
 10
265.696700
 20
-191.125531
 30
0.0
 10
264.980420
 20
-191.267771
 30
0.0
  0
LWPOLYLINE
  5
15c
100
AcDbEntity
  8
0
 62
7
100
AcDbPolyline
 90
3
 70
0
 10
266.197080
 20
-190.767391
 30
0.0
 10
266.552680
 20
-191.768151
 30
0.0
 10
266.910820
 20
-190.767391
 30
0.0
  0
LWPOLYLINE
  5
15d
100
AcDbEntity
  8
0
 62
7
100
AcDbPolyline
 90
6
 70
0
 10
267.482320
 20
-191.625911
 30
0.0
 10
267.553440
 20
-191.697031
 30
0.0
 10
267.482320
 20
-191.768151
 30
0.0
 10
267.411200
 20
-191.697031
 30
0.0
 10
267.482320
 20
-191.625911
 30
0.0
 10
267.482320
 20
-191.768151
 30
0.0
  0
LWPOLYLINE
  5
15e
100
AcDbEntity
  8
0
 62
7
100
AcDbPolyline
 90
6
 70
0
 10
267.482320
 20
-190.841051
 30
0.0
 10
267.553440
 20
-190.912171
 30
0.0
 10
267.482320
 20
-190.983291
 30
0.0
 10
267.411200
 20
-190.912171
 30
0.0
 10
267.482320
 20
-190.841051
 30
0.0
 10
267.482320
 20
-190.983291
 30
0.0
  0
LWPOLYLINE
  5
15f
100
AcDbEntity
  8
0
 62
7
100
AcDbPolyline
 90
20
 70
0
 10
178.361340
 20
-191.697031
 30
0.0
 10
178.574700
 20
-191.768151
 30
0.0
 10
178.932840
 20
-191.768151
 30
0.0
 10
179.075080
 20
-191.697031
 30
0.0
 10
179.146200
 20
-191.625911
 30
0.0
 10
179.219860
 20
-191.483671
 30
0.0
 10
179.219860
 20
-191.338891
 30
0.0
 10
179.146200
 20
-191.196651
 30
0.0
 10
179.075080
 20
-191.125531
 30
0.0
 10
178.932840
 20
-191.054411
 30
0.0
 10
178.648360
 20
-190.983291
 30
0.0
 10
178.503580
 20
-190.912171
 30
0.0
 10
178.432460
 20
-190.841051
 30
0.0
 10
178.361340
 20
-190.696271
 30
0.0
 10
178.361340
 20
-190.554031
 30
0.0
 10
178.432460
 20
-190.411791
 30
0.0
 10
178.503580
 20
-190.340671
 30
0.0
 10
178.648360
 20
-190.269551
 30
0.0
 10
179.003960
 20
-190.269551
 30
0.0
 10
179.219860
 20
-190.340671
 30
0.0
  0
LWPOLYLINE
  5
160
100
AcDbEntity
  8
0
 62
7
100
AcDbPolyline
 90
2
 70
0
 10
179.862480
 20
-191.768151
 30
0.0
 10
179.862480
 20
-190.767391
 30
0.0
  0
LWPOLYLINE
  5
161
100
AcDbEntity
  8
0
 62
7
100
AcDbPolyline
 90
6
 70
0
 10
179.862480
 20
-190.269551
 30
0.0
 10
179.791360
 20
-190.340671
 30
0.0
 10
179.862480
 20
-190.411791
 30
0.0
 10
179.933600
 20
-190.340671
 30
0.0
 10
179.862480
 20
-190.269551
 30
0.0
 10
179.862480
 20
-190.411791
 30
0.0
  0
LWPOLYLINE
  5
162
100
AcDbEntity
  8
0
 62
7
100
AcDbPolyline
 90
4
 70
0
 10
180.433980
 20
-190.767391
 30
0.0
 10
181.218840
 20
-190.767391
 30
0.0
 10
180.433980
 20
-191.768151
 30
0.0
 10
181.218840
 20
-191.768151
 30
0.0
  0
LWPOLYLINE
  5
163
100
AcDbEntity
  8
0
 62
7
100
AcDbPolyline
 90
13
 70
0
 10
182.361840
 20
-191.697031
 30
0.0
 10
182.219600
 20
-191.768151
 30
0.0
 10
181.932580
 20
-191.768151
 30
0.0
 10
181.790340
 20
-191.697031
 30
0.0
 10
181.719220
 20
-191.554791
 30
0.0
 10
181.719220
 20
-190.983291
 30
0.0
 10
181.790340
 20
-190.841051
 30
0.0
 10
181.932580
 20
-190.767391
 30
0.0
 10
182.219600
 20
-190.767391
 30
0.0
 10
182.361840
 20
-190.841051
 30
0.0
 10
182.432960
 20
-190.983291
 30
0.0
 10
182.432960
 20
-191.125531
 30
0.0
 10
181.719220
 20
-191.267771
 30
0.0
  0
LWPOLYLINE
  5
164
100
AcDbEntity
  8
0
 62
7
100
AcDbPolyline
 90
6
 70
0
 10
183.075580
 20
-191.625911
 30
0.0
 10
183.146700
 20
-191.697031
 30
0.0
 10
183.075580
 20
-191.768151
 30
0.0
 10
183.004460
 20
-191.697031
 30
0.0
 10
183.075580
 20
-191.625911
 30
0.0
 10
183.075580
 20
-191.768151
 30
0.0
  0
LWPOLYLINE
  5
165
100
AcDbEntity
  8
0
 62
7
100
AcDbPolyline
 90
6
 70
0
 10
183.075580
 20
-190.841051
 30
0.0
 10
183.146700
 20
-190.912171
 30
0.0
 10
183.075580
 20
-190.983291
 30
0.0
 10
183.004460
 20
-190.912171
 30
0.0
 10
183.075580
 20
-190.841051
 30
0.0
 10
183.075580
 20
-190.983291
 30
0.0
  0
LWPOLYLINE
  5
166
100
AcDbEntity
  8
0
 62
7
100
AcDbPolyline
 90
2
 70
0
 10
184.861200
 20
-191.338891
 30
0.0
 10
185.574940
 20
-191.338891
 30
0.0
  0
LWPOLYLINE
  5
167
100
AcDbEntity
  8
0
 62
7
100
AcDbPolyline
 90
3
 70
0
 10
184.718960
 20
-191.768151
 30
0.0
 10
185.219340
 20
-190.269551
 30
0.0
 10
185.719720
 20
-191.768151
 30
0.0
  0
LWPOLYLINE
  5
168
100
AcDbEntity
  8
0
 62
7
100
AcDbPolyline
 90
2
 70
0
 10
186.862720
 20
-190.767391
 30
0.0
 10
186.862720
 20
-191.768151
 30
0.0
  0
LWPOLYLINE
  5
169
100
AcDbEntity
  8
0
 62
7
100
AcDbPolyline
 90
3
 70
0
 10
186.504580
 20
-190.195891
 30
0.0
 10
186.146440
 20
-191.267771
 30
0.0
 10
187.076080
 20
-191.267771
 30
0.0
  0
LWPOLYLINE
  5
16a
100
AcDbEntity
  8
0
 62
7
100
AcDbPolyline
 90
2
 70
0
 10
263.433560
 20
-194.567231
 30
0.0
 10
263.433560
 20
-193.068631
 30
0.0
  0
LWPOLYLINE
  5
16b
100
AcDbEntity
  8
0
 62
7
100
AcDbPolyline
 90
2
 70
0
 10
264.789920
 20
-194.567231
 30
0.0
 10
264.789920
 20
-193.068631
 30
0.0
  0
LWPOLYLINE
  5
16c
100
AcDbEntity
  8
0
 62
7
100
AcDbPolyline
 90
12
 70
0
 10
264.789920
 20
-194.496111
 30
0.0
 10
264.647680
 20
-194.567231
 30
0.0
 10
264.360660
 20
-194.567231
 30
0.0
 10
264.218420
 20
-194.496111
 30
0.0
 10
264.147300
 20
-194.424991
 30
0.0
 10
264.076180
 20
-194.282751
 30
0.0
 10
264.076180
 20
-193.853491
 30
0.0
 10
264.147300
 20
-193.711251
 30
0.0
 10
264.218420
 20
-193.640131
 30
0.0
 10
264.360660
 20
-193.569011
 30
0.0
 10
264.647680
 20
-193.569011
 30
0.0
 10
264.789920
 20
-193.640131
 30
0.0
  0
LWPOLYLINE
  5
16d
100
AcDbEntity
  8
0
 62
7
100
AcDbPolyline
 90
6
 70
0
 10
265.503660
 20
-194.424991
 30
0.0
 10
265.574780
 20
-194.496111
 30
0.0
 10
265.503660
 20
-194.567231
 30
0.0
 10
265.432540
 20
-194.496111
 30
0.0
 10
265.503660
 20
-194.424991
 30
0.0
 10
265.503660
 20
-194.567231
 30
0.0
  0
LWPOLYLINE
  5
16e
100
AcDbEntity
  8
0
 62
7
100
AcDbPolyline
 90
6
 70
0
 10
265.503660
 20
-193.640131
 30
0.0
 10
265.574780
 20
-193.711251
 30
0.0
 10
265.503660
 20
-193.782371
 30
0.0
 10
265.432540
 20
-193.711251
 30
0.0
 10
265.503660
 20
-193.640131
 30
0.0
 10
265.503660
 20
-193.782371
 30
0.0
  0
LWPOLYLINE
  5
16f
100
AcDbEntity
  8
0
 62
7
100
AcDbPolyline
 90
2
 70
0
 10
268.147800
 20
-194.567231
 30
0.0
 10
267.289280
 20
-194.567231
 30
0.0
  0
LWPOLYLINE
  5
170
100
AcDbEntity
  8
0
 62
7
100
AcDbPolyline
 90
5
 70
0
 10
267.718540
 20
-194.567231
 30
0.0
 10
267.718540
 20
-193.068631
 30
0.0
 10
267.576300
 20
-193.281991
 30
0.0
 10
267.434060
 20
-193.426771
 30
0.0
 10
267.289280
 20
-193.497891
 30
0.0
  0
LWPOLYLINE
  5
171
100
AcDbEntity
  8
0
 62
7
100
AcDbPolyline
 90
2
 70
0
 10
269.862300
 20
-192.997511
 30
0.0
 10
268.577060
 20
-194.925371
 30
0.0
  0
LWPOLYLINE
  5
172
100
AcDbEntity
  8
0
 62
7
100
AcDbPolyline
 90
2
 70
0
 10
271.147540
 20
-194.567231
 30
0.0
 10
270.289020
 20
-194.567231
 30
0.0
  0
LWPOLYLINE
  5
173
100
AcDbEntity
  8
0
 62
7
100
AcDbPolyline
 90
5
 70
0
 10
270.718280
 20
-194.567231
 30
0.0
 10
270.718280
 20
-193.068631
 30
0.0
 10
270.576040
 20
-193.281991
 30
0.0
 10
270.433800
 20
-193.426771
 30
0.0
 10
270.289020
 20
-193.497891
 30
0.0
  0
LWPOLYLINE
  5
174
100
AcDbEntity
  8
0
 62
7
100
AcDbPolyline
 90
2
 70
0
 10
176.999900
 20
-185.489271
 30
0.0
 10
285.000700
 20
-185.489271
 30
0.0
  0
LWPOLYLINE
  5
175
100
AcDbEntity
  8
0
 62
7
100
AcDbPolyline
 90
2
 70
0
 10
178.714400
 20
-186.195391
 30
0.0
 10
179.857400
 20
-186.195391
 30
0.0
  0
LWPOLYLINE
  5
176
100
AcDbEntity
  8
0
 62
7
100
AcDbPolyline
 90
2
 70
0
 10
179.034440
 20
-188.194371
 30
0.0
 10
179.285900
 20
-186.195391
 30
0.0
  0
LWPOLYLINE
  5
177
100
AcDbEntity
  8
0
 62
7
100
AcDbPolyline
 90
2
 70
0
 10
180.273960
 20
-188.194371
 30
0.0
 10
180.439060
 20
-186.860871
 30
0.0
  0
LWPOLYLINE
  5
178
100
AcDbEntity
  8
0
 62
7
100
AcDbPolyline
 90
6
 70
0
 10
180.522880
 20
-186.195391
 30
0.0
 10
180.416200
 20
-186.289371
 30
0.0
 10
180.500020
 20
-186.385891
 30
0.0
 10
180.606700
 20
-186.289371
 30
0.0
 10
180.522880
 20
-186.195391
 30
0.0
 10
180.500020
 20
-186.385891
 30
0.0
  0
LWPOLYLINE
  5
179
100
AcDbEntity
  8
0
 62
7
100
AcDbPolyline
 90
2
 70
0
 10
181.107080
 20
-186.860871
 30
0.0
 10
181.869080
 20
-186.860871
 30
0.0
  0
LWPOLYLINE
  5
17a
100
AcDbEntity
  8
0
 62
7
100
AcDbPolyline
 90
5
 70
0
 10
181.475380
 20
-186.195391
 30
0.0
 10
181.262020
 20
-187.909891
 30
0.0
 10
181.333140
 20
-188.100391
 30
0.0
 10
181.510940
 20
-188.194371
 30
0.0
 10
181.701440
 20
-188.194371
 30
0.0
  0
LWPOLYLINE
  5
17b
100
AcDbEntity
  8
0
 62
7
100
AcDbPolyline
 90
4
 70
0
 10
182.653940
 20
-188.194371
 30
0.0
 10
182.476140
 20
-188.100391
 30
0.0
 10
182.405020
 20
-187.909891
 30
0.0
 10
182.618380
 20
-186.195391
 30
0.0
  0
LWPOLYLINE
  5
17c
100
AcDbEntity
  8
0
 62
7
100
AcDbPolyline
 90
13
 70
0
 10
184.190640
 20
-188.100391
 30
0.0
 10
183.987440
 20
-188.194371
 30
0.0
 10
183.606440
 20
-188.194371
 30
0.0
 10
183.428640
 20
-188.100391
 30
0.0
 10
183.354980
 20
-187.909891
 30
0.0
 10
183.451500
 20
-187.147891
 30
0.0
 10
183.570880
 20
-186.957391
 30
0.0
 10
183.774080
 20
-186.860871
 30
0.0
 10
184.152540
 20
-186.860871
 30
0.0
 10
184.332880
 20
-186.957391
 30
0.0
 10
184.404000
 20
-187.147891
 30
0.0
 10
184.381140
 20
-187.338391
 30
0.0
 10
183.403240
 20
-187.528891
 30
0.0
  0
LWPOLYLINE
  5
17d
100
AcDbEntity
  8
0
 62
7
100
AcDbPolyline
 90
6
 70
0
 10
185.153300
 20
-188.003871
 30
0.0
 10
185.237120
 20
-188.100391
 30
0.0
 10
185.130440
 20
-188.194371
 30
0.0
 10
185.046620
 20
-188.100391
 30
0.0
 10
185.153300
 20
-188.003871
 30
0.0
 10
185.130440
 20
-188.194371
 30
0.0
  0
LWPOLYLINE
  5
17e
100
AcDbEntity
  8
0
 62
7
100
AcDbPolyline
 90
6
 70
0
 10
185.285380
 20
-186.957391
 30
0.0
 10
185.369200
 20
-187.051371
 30
0.0
 10
185.259980
 20
-187.147891
 30
0.0
 10
185.178700
 20
-187.051371
 30
0.0
 10
185.285380
 20
-186.957391
 30
0.0
 10
185.259980
 20
-187.147891
 30
0.0
  0
LWPOLYLINE
  5
17f
100
AcDbEntity
  8
0
 62
7
100
AcDbPolyline
 90
2
 70
0
 10
178.932840
 20
-183.581731
 30
0.0
 10
178.432460
 20
-183.581731
 30
0.0
  0
LWPOLYLINE
  5
180
100
AcDbEntity
  8
0
 62
7
100
AcDbPolyline
 90
3
 70
0
 10
178.432460
 20
-184.369131
 30
0.0
 10
178.432460
 20
-182.867991
 30
0.0
 10
179.146200
 20
-182.867991
 30
0.0
  0
LWPOLYLINE
  5
181
100
AcDbEntity
  8
0
 62
7
100
AcDbPolyline
 90
2
 70
0
 10
179.717700
 20
-184.369131
 30
0.0
 10
179.717700
 20
-183.368371
 30
0.0
  0
LWPOLYLINE
  5
182
100
AcDbEntity
  8
0
 62
7
100
AcDbPolyline
 90
6
 70
0
 10
179.717700
 20
-182.867991
 30
0.0
 10
179.646580
 20
-182.939111
 30
0.0
 10
179.717700
 20
-183.010231
 30
0.0
 10
179.791360
 20
-182.939111
 30
0.0
 10
179.717700
 20
-182.867991
 30
0.0
 10
179.717700
 20
-183.010231
 30
0.0
  0
LWPOLYLINE
  5
183
100
AcDbEntity
  8
0
 62
7
100
AcDbPolyline
 90
4
 70
0
 10
180.647340
 20
-184.369131
 30
0.0
 10
180.505100
 20
-184.298011
 30
0.0
 10
180.433980
 20
-184.153231
 30
0.0
 10
180.433980
 20
-182.867991
 30
0.0
  0
LWPOLYLINE
  5
184
100
AcDbEntity
  8
0
 62
7
100
AcDbPolyline
 90
13
 70
0
 10
181.790340
 20
-184.298011
 30
0.0
 10
181.648100
 20
-184.369131
 30
0.0
 10
181.361080
 20
-184.369131
 30
0.0
 10
181.218840
 20
-184.298011
 30
0.0
 10
181.147720
 20
-184.153231
 30
0.0
 10
181.147720
 20
-183.581731
 30
0.0
 10
181.218840
 20
-183.439491
 30
0.0
 10
181.361080
 20
-183.368371
 30
0.0
 10
181.648100
 20
-183.368371
 30
0.0
 10
181.790340
 20
-183.439491
 30
0.0
 10
181.861460
 20
-183.581731
 30
0.0
 10
181.861460
 20
-183.726511
 30
0.0
 10
181.147720
 20
-183.868751
 30
0.0
  0
LWPOLYLINE
  5
185
100
AcDbEntity
  8
0
 62
7
100
AcDbPolyline
 90
6
 70
0
 10
182.504080
 20
-184.224351
 30
0.0
 10
182.575200
 20
-184.298011
 30
0.0
 10
182.504080
 20
-184.369131
 30
0.0
 10
182.432960
 20
-184.298011
 30
0.0
 10
182.504080
 20
-184.224351
 30
0.0
 10
182.504080
 20
-184.369131
 30
0.0
  0
LWPOLYLINE
  5
186
100
AcDbEntity
  8
0
 62
7
100
AcDbPolyline
 90
6
 70
0
 10
182.504080
 20
-183.439491
 30
0.0
 10
182.575200
 20
-183.510611
 30
0.0
 10
182.504080
 20
-183.581731
 30
0.0
 10
182.432960
 20
-183.510611
 30
0.0
 10
182.504080
 20
-183.439491
 30
0.0
 10
182.504080
 20
-183.581731
 30
0.0
  0
LWPOLYLINE
  5
187
100
AcDbEntity
  8
0
 62
7
100
AcDbPolyline
 90
16
 70
0
 10
185.219340
 20
-184.224351
 30
0.0
 10
185.148220
 20
-184.298011
 30
0.0
 10
184.932320
 20
-184.369131
 30
0.0
 10
184.790080
 20
-184.369131
 30
0.0
 10
184.576720
 20
-184.298011
 30
0.0
 10
184.431940
 20
-184.153231
 30
0.0
 10
184.360820
 20
-184.010991
 30
0.0
 10
184.289700
 20
-183.726511
 30
0.0
 10
184.289700
 20
-183.510611
 30
0.0
 10
184.360820
 20
-183.226131
 30
0.0
 10
184.431940
 20
-183.083891
 30
0.0
 10
184.576720
 20
-182.939111
 30
0.0
 10
184.790080
 20
-182.867991
 30
0.0
 10
184.932320
 20
-182.867991
 30
0.0
 10
185.148220
 20
-182.939111
 30
0.0
 10
185.219340
 20
-183.010231
 30
0.0
  0
LWPOLYLINE
  5
188
100
AcDbEntity
  8
0
 62
7
100
AcDbPolyline
 90
2
 70
0
 10
185.861960
 20
-184.369131
 30
0.0
 10
185.861960
 20
-183.368371
 30
0.0
  0
LWPOLYLINE
  5
189
100
AcDbEntity
  8
0
 62
7
100
AcDbPolyline
 90
5
 70
0
 10
185.861960
 20
-183.655391
 30
0.0
 10
185.933080
 20
-183.510611
 30
0.0
 10
186.004200
 20
-183.439491
 30
0.0
 10
186.146440
 20
-183.368371
 30
0.0
 10
186.291220
 20
-183.368371
 30
0.0
  0
LWPOLYLINE
  5
18a
100
AcDbEntity
  8
0
 62
7
100
AcDbPolyline
 90
2
 70
0
 10
186.646820
 20
-183.368371
 30
0.0
 10
187.004960
 20
-184.369131
 30
0.0
  0
LWPOLYLINE
  5
18b
100
AcDbEntity
  8
0
 62
7
100
AcDbPolyline
 90
5
 70
0
 10
187.360560
 20
-183.368371
 30
0.0
 10
187.004960
 20
-184.369131
 30
0.0
 10
186.862720
 20
-184.724731
 30
0.0
 10
186.789060
 20
-184.795851
 30
0.0
 10
186.646820
 20
-184.869511
 30
0.0
  0
LWPOLYLINE
  5
18c
100
AcDbEntity
  8
0
 62
7
100
AcDbPolyline
 90
16
 70
0
 10
187.860940
 20
-184.298011
 30
0.0
 10
188.005720
 20
-184.369131
 30
0.0
 10
188.290200
 20
-184.369131
 30
0.0
 10
188.432440
 20
-184.298011
 30
0.0
 10
188.503560
 20
-184.153231
 30
0.0
 10
188.503560
 20
-184.082111
 30
0.0
 10
188.432440
 20
-183.939871
 30
0.0
 10
188.290200
 20
-183.868751
 30
0.0
 10
188.076840
 20
-183.868751
 30
0.0
 10
187.932060
 20
-183.797631
 30
0.0
 10
187.860940
 20
-183.655391
 30
0.0
 10
187.860940
 20
-183.581731
 30
0.0
 10
187.932060
 20
-183.439491
 30
0.0
 10
188.076840
 20
-183.368371
 30
0.0
 10
188.290200
 20
-183.368371
 30
0.0
 10
188.432440
 20
-183.439491
 30
0.0
  0
LWPOLYLINE
  5
18d
100
AcDbEntity
  8
0
 62
7
100
AcDbPolyline
 90
2
 70
0
 10
188.932820
 20
-183.368371
 30
0.0
 10
189.504320
 20
-183.368371
 30
0.0
  0
LWPOLYLINE
  5
18e
100
AcDbEntity
  8
0
 62
7
100
AcDbPolyline
 90
5
 70
0
 10
189.146180
 20
-182.867991
 30
0.0
 10
189.146180
 20
-184.153231
 30
0.0
 10
189.219840
 20
-184.298011
 30
0.0
 10
189.362080
 20
-184.369131
 30
0.0
 10
189.504320
 20
-184.369131
 30
0.0
  0
LWPOLYLINE
  5
18f
100
AcDbEntity
  8
0
 62
7
100
AcDbPolyline
 90
6
 70
0
 10
190.647320
 20
-184.369131
 30
0.0
 10
190.647320
 20
-183.581731
 30
0.0
 10
190.576200
 20
-183.439491
 30
0.0
 10
190.433960
 20
-183.368371
 30
0.0
 10
190.146940
 20
-183.368371
 30
0.0
 10
190.004700
 20
-183.439491
 30
0.0
  0
LWPOLYLINE
  5
190
100
AcDbEntity
  8
0
 62
7
100
AcDbPolyline
 90
10
 70
0
 10
190.647320
 20
-184.298011
 30
0.0
 10
190.505080
 20
-184.369131
 30
0.0
 10
190.146940
 20
-184.369131
 30
0.0
 10
190.004700
 20
-184.298011
 30
0.0
 10
189.933580
 20
-184.153231
 30
0.0
 10
189.933580
 20
-184.010991
 30
0.0
 10
190.004700
 20
-183.868751
 30
0.0
 10
190.146940
 20
-183.797631
 30
0.0
 10
190.505080
 20
-183.797631
 30
0.0
 10
190.647320
 20
-183.726511
 30
0.0
  0
LWPOLYLINE
  5
191
100
AcDbEntity
  8
0
 62
7
100
AcDbPolyline
 90
4
 70
0
 10
191.576960
 20
-184.369131
 30
0.0
 10
191.432180
 20
-184.298011
 30
0.0
 10
191.361060
 20
-184.153231
 30
0.0
 10
191.361060
 20
-182.867991
 30
0.0
  0
LWPOLYLINE
  5
192
100
AcDbEntity
  8
0
 62
7
100
AcDbPolyline
 90
2
 70
0
 10
192.148460
 20
-183.797631
 30
0.0
 10
193.291460
 20
-183.797631
 30
0.0
  0
LWPOLYLINE
  5
193
100
AcDbEntity
  8
0
 62
7
100
AcDbPolyline
 90
4
 70
0
 10
193.860420
 20
-182.867991
 30
0.0
 10
194.861180
 20
-182.867991
 30
0.0
 10
193.860420
 20
-184.369131
 30
0.0
 10
194.861180
 20
-184.369131
 30
0.0
  0
LWPOLYLINE
  5
194
100
AcDbEntity
  8
0
 62
7
100
AcDbPolyline
 90
13
 70
0
 10
196.004180
 20
-184.298011
 30
0.0
 10
195.861940
 20
-184.369131
 30
0.0
 10
195.574920
 20
-184.369131
 30
0.0
 10
195.432680
 20
-184.298011
 30
0.0
 10
195.361560
 20
-184.153231
 30
0.0
 10
195.361560
 20
-183.581731
 30
0.0
 10
195.432680
 20
-183.439491
 30
0.0
 10
195.574920
 20
-183.368371
 30
0.0
 10
195.861940
 20
-183.368371
 30
0.0
 10
196.004180
 20
-183.439491
 30
0.0
 10
196.075300
 20
-183.581731
 30
0.0
 10
196.075300
 20
-183.726511
 30
0.0
 10
195.361560
 20
-183.868751
 30
0.0
  0
LWPOLYLINE
  5
195
100
AcDbEntity
  8
0
 62
7
100
AcDbPolyline
 90
4
 70
0
 10
196.933820
 20
-184.369131
 30
0.0
 10
196.789040
 20
-184.298011
 30
0.0
 10
196.717920
 20
-184.153231
 30
0.0
 10
196.717920
 20
-182.867991
 30
0.0
  0
LWPOLYLINE
  5
196
100
AcDbEntity
  8
0
 62
7
100
AcDbPolyline
 90
2
 70
0
 10
197.505320
 20
-184.369131
 30
0.0
 10
197.505320
 20
-183.368371
 30
0.0
  0
LWPOLYLINE
  5
197
100
AcDbEntity
  8
0
 62
7
100
AcDbPolyline
 90
6
 70
0
 10
197.505320
 20
-182.867991
 30
0.0
 10
197.434200
 20
-182.939111
 30
0.0
 10
197.505320
 20
-183.010231
 30
0.0
 10
197.576440
 20
-182.939111
 30
0.0
 10
197.505320
 20
-182.867991
 30
0.0
 10
197.505320
 20
-183.010231
 30
0.0
  0
LWPOLYLINE
  5
198
100
AcDbEntity
  8
0
 62
7
100
AcDbPolyline
 90
16
 70
0
 10
198.147940
 20
-184.298011
 30
0.0
 10
198.290180
 20
-184.369131
 30
0.0
 10
198.577200
 20
-184.369131
 30
0.0
 10
198.719440
 20
-184.298011
 30
0.0
 10
198.790560
 20
-184.153231
 30
0.0
 10
198.790560
 20
-184.082111
 30
0.0
 10
198.719440
 20
-183.939871
 30
0.0
 10
198.577200
 20
-183.868751
 30
0.0
 10
198.361300
 20
-183.868751
 30
0.0
 10
198.219060
 20
-183.797631
 30
0.0
 10
198.147940
 20
-183.655391
 30
0.0
 10
198.147940
 20
-183.581731
 30
0.0
 10
198.219060
 20
-183.439491
 30
0.0
 10
198.361300
 20
-183.368371
 30
0.0
 10
198.577200
 20
-183.368371
 30
0.0
 10
198.719440
 20
-183.439491
 30
0.0
  0
LWPOLYLINE
  5
199
100
AcDbEntity
  8
0
 62
7
100
AcDbPolyline
 90
2
 70
0
 10
199.433180
 20
-184.369131
 30
0.0
 10
199.433180
 20
-182.867991
 30
0.0
  0
LWPOLYLINE
  5
19a
100
AcDbEntity
  8
0
 62
7
100
AcDbPolyline
 90
2
 70
0
 10
199.575420
 20
-183.797631
 30
0.0
 10
200.004680
 20
-184.369131
 30
0.0
  0
LWPOLYLINE
  5
19b
100
AcDbEntity
  8
0
 62
7
100
AcDbPolyline
 90
2
 70
0
 10
200.004680
 20
-183.368371
 30
0.0
 10
199.433180
 20
-183.939871
 30
0.0
  0
LWPOLYLINE
  5
19c
100
AcDbEntity
  8
0
 62
7
100
AcDbPolyline
 90
6
 70
0
 10
201.289920
 20
-184.369131
 30
0.0
 10
201.289920
 20
-183.581731
 30
0.0
 10
201.218800
 20
-183.439491
 30
0.0
 10
201.076560
 20
-183.368371
 30
0.0
 10
200.789540
 20
-183.368371
 30
0.0
 10
200.647300
 20
-183.439491
 30
0.0
  0
LWPOLYLINE
  5
19d
100
AcDbEntity
  8
0
 62
7
100
AcDbPolyline
 90
10
 70
0
 10
201.289920
 20
-184.298011
 30
0.0
 10
201.147680
 20
-184.369131
 30
0.0
 10
200.789540
 20
-184.369131
 30
0.0
 10
200.647300
 20
-184.298011
 30
0.0
 10
200.576180
 20
-184.153231
 30
0.0
 10
200.576180
 20
-184.010991
 30
0.0
 10
200.647300
 20
-183.868751
 30
0.0
 10
200.789540
 20
-183.797631
 30
0.0
 10
201.147680
 20
-183.797631
 30
0.0
 10
201.289920
 20
-183.726511
 30
0.0
  0
LWPOLYLINE
  5
19e
100
AcDbEntity
  8
0
 62
7
100
AcDbPolyline
 90
6
 70
0
 10
202.003660
 20
-184.224351
 30
0.0
 10
202.074780
 20
-184.298011
 30
0.0
 10
202.003660
 20
-184.369131
 30
0.0
 10
201.932540
 20
-184.298011
 30
0.0
 10
202.003660
 20
-184.224351
 30
0.0
 10
202.003660
 20
-184.369131
 30
0.0
  0
LWPOLYLINE
  5
19f
100
AcDbEntity
  8
0
 62
7
100
AcDbPolyline
 90
2
 70
0
 10
202.719940
 20
-184.369131
 30
0.0
 10
202.719940
 20
-182.867991
 30
0.0
  0
LWPOLYLINE
  5
1a0
100
AcDbEntity
  8
0
 62
7
100
AcDbPolyline
 90
2
 70
0
 10
202.862180
 20
-183.797631
 30
0.0
 10
203.291440
 20
-184.369131
 30
0.0
  0
LWPOLYLINE
  5
1a1
100
AcDbEntity
  8
0
 62
7
100
AcDbPolyline
 90
2
 70
0
 10
203.291440
 20
-183.368371
 30
0.0
 10
202.719940
 20
-183.939871
 30
0.0
  0
LWPOLYLINE
  5
1a2
100
AcDbEntity
  8
0
 62
7
100
AcDbPolyline
 90
2
 70
0
 10
203.934060
 20
-184.369131
 30
0.0
 10
203.934060
 20
-183.368371
 30
0.0
  0
LWPOLYLINE
  5
1a3
100
AcDbEntity
  8
0
 62
7
100
AcDbPolyline
 90
6
 70
0
 10
203.934060
 20
-182.867991
 30
0.0
 10
203.860400
 20
-182.939111
 30
0.0
 10
203.934060
 20
-183.010231
 30
0.0
 10
204.005180
 20
-182.939111
 30
0.0
 10
203.934060
 20
-182.867991
 30
0.0
 10
203.934060
 20
-183.010231
 30
0.0
  0
LWPOLYLINE
  5
1a4
100
AcDbEntity
  8
0
 62
7
100
AcDbPolyline
 90
12
 70
0
 10
205.290420
 20
-184.298011
 30
0.0
 10
205.148180
 20
-184.369131
 30
0.0
 10
204.861160
 20
-184.369131
 30
0.0
 10
204.718920
 20
-184.298011
 30
0.0
 10
204.647800
 20
-184.224351
 30
0.0
 10
204.576680
 20
-184.082111
 30
0.0
 10
204.576680
 20
-183.655391
 30
0.0
 10
204.647800
 20
-183.510611
 30
0.0
 10
204.718920
 20
-183.439491
 30
0.0
 10
204.861160
 20
-183.368371
 30
0.0
 10
205.148180
 20
-183.368371
 30
0.0
 10
205.290420
 20
-183.439491
 30
0.0
  0
LWPOLYLINE
  5
1a5
100
AcDbEntity
  8
0
 62
7
100
AcDbPolyline
 90
6
 70
0
 10
206.575660
 20
-184.369131
 30
0.0
 10
206.575660
 20
-183.581731
 30
0.0
 10
206.504540
 20
-183.439491
 30
0.0
 10
206.362300
 20
-183.368371
 30
0.0
 10
206.075280
 20
-183.368371
 30
0.0
 10
205.933040
 20
-183.439491
 30
0.0
  0
LWPOLYLINE
  5
1a6
100
AcDbEntity
  8
0
 62
7
100
AcDbPolyline
 90
10
 70
0
 10
206.575660
 20
-184.298011
 30
0.0
 10
206.433420
 20
-184.369131
 30
0.0
 10
206.075280
 20
-184.369131
 30
0.0
 10
205.933040
 20
-184.298011
 30
0.0
 10
205.861920
 20
-184.153231
 30
0.0
 10
205.861920
 20
-184.010991
 30
0.0
 10
205.933040
 20
-183.868751
 30
0.0
 10
206.075280
 20
-183.797631
 30
0.0
 10
206.433420
 20
-183.797631
 30
0.0
 10
206.575660
 20
-183.726511
 30
0.0
  0
LWPOLYLINE
  5
1a7
100
AcDbEntity
  8
0
 62
7
100
AcDbPolyline
 90
2
 70
0
 10
207.932020
 20
-184.369131
 30
0.0
 10
207.932020
 20
-182.867991
 30
0.0
  0
LWPOLYLINE
  5
1a8
100
AcDbEntity
  8
0
 62
7
100
AcDbPolyline
 90
12
 70
0
 10
207.932020
 20
-184.298011
 30
0.0
 10
207.789780
 20
-184.369131
 30
0.0
 10
207.505300
 20
-184.369131
 30
0.0
 10
207.360520
 20
-184.298011
 30
0.0
 10
207.289400
 20
-184.224351
 30
0.0
 10
207.218280
 20
-184.082111
 30
0.0
 10
207.218280
 20
-183.655391
 30
0.0
 10
207.289400
 20
-183.510611
 30
0.0
 10
207.360520
 20
-183.439491
 30
0.0
 10
207.505300
 20
-183.368371
 30
0.0
 10
207.789780
 20
-183.368371
 30
0.0
 10
207.932020
 20
-183.439491
 30
0.0
  0
LWPOLYLINE
  5
1a9
100
AcDbEntity
  8
0
 62
7
100
AcDbPolyline
 90
2
 70
0
 10
208.290160
 20
-184.511371
 30
0.0
 10
209.433160
 20
-184.511371
 30
0.0
  0
LWPOLYLINE
  5
1aa
100
AcDbEntity
  8
0
 62
7
100
AcDbPolyline
 90
2
 70
0
 10
209.791300
 20
-183.368371
 30
0.0
 10
209.791300
 20
-184.869511
 30
0.0
  0
LWPOLYLINE
  5
1ab
100
AcDbEntity
  8
0
 62
7
100
AcDbPolyline
 90
12
 70
0
 10
209.791300
 20
-183.439491
 30
0.0
 10
209.933540
 20
-183.368371
 30
0.0
 10
210.218020
 20
-183.368371
 30
0.0
 10
210.362800
 20
-183.439491
 30
0.0
 10
210.433920
 20
-183.510611
 30
0.0
 10
210.505040
 20
-183.655391
 30
0.0
 10
210.505040
 20
-184.082111
 30
0.0
 10
210.433920
 20
-184.224351
 30
0.0
 10
210.362800
 20
-184.298011
 30
0.0
 10
210.218020
 20
-184.369131
 30
0.0
 10
209.933540
 20
-184.369131
 30
0.0
 10
209.791300
 20
-184.298011
 30
0.0
  0
LWPOLYLINE
  5
1ac
100
AcDbEntity
  8
0
 62
7
100
AcDbPolyline
 90
12
 70
0
 10
211.790280
 20
-184.298011
 30
0.0
 10
211.648040
 20
-184.369131
 30
0.0
 10
211.361020
 20
-184.369131
 30
0.0
 10
211.218780
 20
-184.298011
 30
0.0
 10
211.147660
 20
-184.224351
 30
0.0
 10
211.076540
 20
-184.082111
 30
0.0
 10
211.076540
 20
-183.655391
 30
0.0
 10
211.147660
 20
-183.510611
 30
0.0
 10
211.218780
 20
-183.439491
 30
0.0
 10
211.361020
 20
-183.368371
 30
0.0
 10
211.648040
 20
-183.368371
 30
0.0
 10
211.790280
 20
-183.439491
 30
0.0
  0
LWPOLYLINE
  5
1ad
100
AcDbEntity
  8
0
 62
7
100
AcDbPolyline
 90
2
 70
0
 10
212.432900
 20
-184.369131
 30
0.0
 10
212.432900
 20
-182.867991
 30
0.0
  0
LWPOLYLINE
  5
1ae
100
AcDbEntity
  8
0
 62
7
100
AcDbPolyline
 90
12
 70
0
 10
212.432900
 20
-183.439491
 30
0.0
 10
212.575140
 20
-183.368371
 30
0.0
 10
212.862160
 20
-183.368371
 30
0.0
 10
213.004400
 20
-183.439491
 30
0.0
 10
213.075520
 20
-183.510611
 30
0.0
 10
213.146640
 20
-183.655391
 30
0.0
 10
213.146640
 20
-184.082111
 30
0.0
 10
213.075520
 20
-184.224351
 30
0.0
 10
213.004400
 20
-184.298011
 30
0.0
 10
212.862160
 20
-184.369131
 30
0.0
 10
212.575140
 20
-184.369131
 30
0.0
 10
212.432900
 20
-184.298011
 30
0.0
  0
LWPOLYLINE
  5
1af
100
AcDbEntity
  8
0
 62
7
100
AcDbPolyline
 90
2
 70
0
 10
176.999900
 20
-179.489791
 30
0.0
 10
285.000700
 20
-179.489791
 30
0.0
  0
LWPOLYLINE
  5
1b0
100
AcDbEntity
  8
0
 62
7
100
AcDbPolyline
 90
20
 70
0
 10
178.361340
 20
-181.597991
 30
0.0
 10
178.574700
 20
-181.669111
 30
0.0
 10
178.932840
 20
-181.669111
 30
0.0
 10
179.075080
 20
-181.597991
 30
0.0
 10
179.146200
 20
-181.524331
 30
0.0
 10
179.219860
 20
-181.382091
 30
0.0
 10
179.219860
 20
-181.239851
 30
0.0
 10
179.146200
 20
-181.097611
 30
0.0
 10
179.075080
 20
-181.026491
 30
0.0
 10
178.932840
 20
-180.955371
 30
0.0
 10
178.648360
 20
-180.881711
 30
0.0
 10
178.503580
 20
-180.810591
 30
0.0
 10
178.432460
 20
-180.739471
 30
0.0
 10
178.361340
 20
-180.597231
 30
0.0
 10
178.361340
 20
-180.454991
 30
0.0
 10
178.432460
 20
-180.310211
 30
0.0
 10
178.503580
 20
-180.239091
 30
0.0
 10
178.648360
 20
-180.167971
 30
0.0
 10
179.003960
 20
-180.167971
 30
0.0
 10
179.219860
 20
-180.239091
 30
0.0
  0
LWPOLYLINE
  5
1b1
100
AcDbEntity
  8
0
 62
7
100
AcDbPolyline
 90
2
 70
0
 10
179.862480
 20
-181.669111
 30
0.0
 10
179.862480
 20
-180.167971
 30
0.0
  0
LWPOLYLINE
  5
1b2
100
AcDbEntity
  8
0
 62
7
100
AcDbPolyline
 90
7
 70
0
 10
180.505100
 20
-181.669111
 30
0.0
 10
180.505100
 20
-180.881711
 30
0.0
 10
180.433980
 20
-180.739471
 30
0.0
 10
180.289200
 20
-180.668351
 30
0.0
 10
180.075840
 20
-180.668351
 30
0.0
 10
179.933600
 20
-180.739471
 30
0.0
 10
179.862480
 20
-180.810591
 30
0.0
  0
LWPOLYLINE
  5
1b3
100
AcDbEntity
  8
0
 62
7
100
AcDbPolyline
 90
13
 70
0
 10
181.790340
 20
-181.597991
 30
0.0
 10
181.648100
 20
-181.669111
 30
0.0
 10
181.361080
 20
-181.669111
 30
0.0
 10
181.218840
 20
-181.597991
 30
0.0
 10
181.147720
 20
-181.453211
 30
0.0
 10
181.147720
 20
-180.881711
 30
0.0
 10
181.218840
 20
-180.739471
 30
0.0
 10
181.361080
 20
-180.668351
 30
0.0
 10
181.648100
 20
-180.668351
 30
0.0
 10
181.790340
 20
-180.739471
 30
0.0
 10
181.861460
 20
-180.881711
 30
0.0
 10
181.861460
 20
-181.026491
 30
0.0
 10
181.147720
 20
-181.168731
 30
0.0
  0
LWPOLYLINE
  5
1b4
100
AcDbEntity
  8
0
 62
7
100
AcDbPolyline
 90
13
 70
0
 10
183.075580
 20
-181.597991
 30
0.0
 10
182.933340
 20
-181.669111
 30
0.0
 10
182.646320
 20
-181.669111
 30
0.0
 10
182.504080
 20
-181.597991
 30
0.0
 10
182.432960
 20
-181.453211
 30
0.0
 10
182.432960
 20
-180.881711
 30
0.0
 10
182.504080
 20
-180.739471
 30
0.0
 10
182.646320
 20
-180.668351
 30
0.0
 10
182.933340
 20
-180.668351
 30
0.0
 10
183.075580
 20
-180.739471
 30
0.0
 10
183.146700
 20
-180.881711
 30
0.0
 10
183.146700
 20
-181.026491
 30
0.0
 10
182.432960
 20
-181.168731
 30
0.0
  0
LWPOLYLINE
  5
1b5
100
AcDbEntity
  8
0
 62
7
100
AcDbPolyline
 90
2
 70
0
 10
183.575960
 20
-180.668351
 30
0.0
 10
184.147460
 20
-180.668351
 30
0.0
  0
LWPOLYLINE
  5
1b6
100
AcDbEntity
  8
0
 62
7
100
AcDbPolyline
 90
5
 70
0
 10
183.789320
 20
-180.167971
 30
0.0
 10
183.789320
 20
-181.453211
 30
0.0
 10
183.860440
 20
-181.597991
 30
0.0
 10
184.005220
 20
-181.669111
 30
0.0
 10
184.147460
 20
-181.669111
 30
0.0
  0
LWPOLYLINE
  5
1b7
100
AcDbEntity
  8
0
 62
7
100
AcDbPolyline
 90
6
 70
0
 10
184.647840
 20
-181.524331
 30
0.0
 10
184.718960
 20
-181.597991
 30
0.0
 10
184.647840
 20
-181.669111
 30
0.0
 10
184.576720
 20
-181.597991
 30
0.0
 10
184.647840
 20
-181.524331
 30
0.0
 10
184.647840
 20
-181.669111
 30
0.0
  0
LWPOLYLINE
  5
1b8
100
AcDbEntity
  8
0
 62
7
100
AcDbPolyline
 90
6
 70
0
 10
184.647840
 20
-180.739471
 30
0.0
 10
184.718960
 20
-180.810591
 30
0.0
 10
184.647840
 20
-180.881711
 30
0.0
 10
184.576720
 20
-180.810591
 30
0.0
 10
184.647840
 20
-180.739471
 30
0.0
 10
184.647840
 20
-180.881711
 30
0.0
  0
LWPOLYLINE
  5
1b9
100
AcDbEntity
  8
0
 62
7
100
AcDbPolyline
 90
2
 70
0
 10
196.999860
 20
-189.489771
 30
0.0
 10
196.999860
 20
-192.489511
 30
0.0
  0
SPLINE
  5
1ba
100
AcDbEntity
  8
0
 62
7
100
AcDbSpline
 70
8
 71
3
 72
8
 73
4
 74
0
 40
0
 40
0
 40
0
 40
0
 40
1
 40
1
 40
1
 40
1
 10
67.334384
 20
-93.422483
 30
0.0
 10
66.343451
 20
-93.422483
 30
0.0
 10
65.450092
 20
-94.019406
 30
0.0
 10
65.070879
 20
-94.934908
 30
0.0
  0
SPLINE
  5
1bb
100
AcDbEntity
  8
0
 62
7
100
AcDbSpline
 70
8
 71
3
 72
8
 73
4
 74
0
 40
0
 40
0
 40
0
 40
0
 40
1
 40
1
 40
1
 40
1
 10
65.070879
 20
-94.934908
 30
0.0
 10
64.691666
 20
-95.850411
 30
0.0
 10
64.901277
 20
-96.904199
 30
0.0
 10
65.601972
 20
-97.604895
 30
0.0
  0
SPLINE
  5
1bc
100
AcDbEntity
  8
0
 62
7
100
AcDbSpline
 70
8
 71
3
 72
8
 73
4
 74
0
 40
0
 40
0
 40
0
 40
0
 40
1
 40
1
 40
1
 40
1
 10
65.601972
 20
-97.604895
 30
0.0
 10
66.302667
 20
-98.305590
 30
0.0
 10
67.356456
 20
-98.515201
 30
0.0
 10
68.271958
 20
-98.135988
 30
0.0
  0
SPLINE
  5
1bd
100
AcDbEntity
  8
0
 62
7
100
AcDbSpline
 70
8
 71
3
 72
8
 73
4
 74
0
 40
0
 40
0
 40
0
 40
0
 40
1
 40
1
 40
1
 40
1
 10
68.271958
 20
-98.135988
 30
0.0
 10
69.187461
 20
-97.756774
 30
0.0
 10
69.784384
 20
-96.863415
 30
0.0
 10
69.784384
 20
-95.872483
 30
0.0
  0
SPLINE
  5
1be
100
AcDbEntity
  8
0
 62
7
100
AcDbSpline
 70
8
 71
3
 72
8
 73
4
 74
0
 40
0
 40
0
 40
0
 40
0
 40
1
 40
1
 40
1
 40
1
 10
69.784384
 20
-95.872483
 30
0.0
 10
69.784384
 20
-95.222702
 30
0.0
 10
69.526260
 20
-94.599535
 30
0.0
 10
69.066796
 20
-94.140071
 30
0.0
  0
SPLINE
  5
1bf
100
AcDbEntity
  8
0
 62
7
100
AcDbSpline
 70
8
 71
3
 72
8
 73
4
 74
0
 40
0
 40
0
 40
0
 40
0
 40
1
 40
1
 40
1
 40
1
 10
69.066796
 20
-94.140071
 30
0.0
 10
68.607332
 20
-93.680607
 30
0.0
 10
67.984164
 20
-93.422483
 30
0.0
 10
67.334384
 20
-93.422483
 30
0.0
  0
LWPOLYLINE
  5
1c0
100
AcDbEntity
  8
0
 62
7
100
AcDbPolyline
 90
2
 70
0
 10
261.000240
 20
-189.489771
 30
0.0
 10
261.000240
 20
-195.989631
 30
0.0
  0
SPLINE
  5
1c1
100
AcDbEntity
  8
0
 62
7
100
AcDbSpline
 70
8
 71
3
 72
8
 73
4
 74
0
 40
0
 40
0
 40
0
 40
0
 40
1
 40
1
 40
1
 40
1
 10
197.344538
 20
-124.022625
 30
0.0
 10
196.353605
 20
-124.022625
 30
0.0
 10
195.460246
 20
-124.619548
 30
0.0
 10
195.081033
 20
-125.535050
 30
0.0
  0
SPLINE
  5
1c2
100
AcDbEntity
  8
0
 62
7
100
AcDbSpline
 70
8
 71
3
 72
8
 73
4
 74
0
 40
0
 40
0
 40
0
 40
0
 40
1
 40
1
 40
1
 40
1
 10
195.081033
 20
-125.535050
 30
0.0
 10
194.701820
 20
-126.450553
 30
0.0
 10
194.911431
 20
-127.504341
 30
0.0
 10
195.612126
 20
-128.205037
 30
0.0
  0
SPLINE
  5
1c3
100
AcDbEntity
  8
0
 62
7
100
AcDbSpline
 70
8
 71
3
 72
8
 73
4
 74
0
 40
0
 40
0
 40
0
 40
0
 40
1
 40
1
 40
1
 40
1
 10
195.612126
 20
-128.205037
 30
0.0
 10
196.312821
 20
-128.905732
 30
0.0
 10
197.366610
 20
-129.115343
 30
0.0
 10
198.282112
 20
-128.736130
 30
0.0
  0
SPLINE
  5
1c4
100
AcDbEntity
  8
0
 62
7
100
AcDbSpline
 70
8
 71
3
 72
8
 73
4
 74
0
 40
0
 40
0
 40
0
 40
0
 40
1
 40
1
 40
1
 40
1
 10
198.282112
 20
-128.736130
 30
0.0
 10
199.197615
 20
-128.356916
 30
0.0
 10
199.794538
 20
-127.463557
 30
0.0
 10
199.794538
 20
-126.472625
 30
0.0
  0
SPLINE
  5
1c5
100
AcDbEntity
  8
0
 62
7
100
AcDbSpline
 70
8
 71
3
 72
8
 73
4
 74
0
 40
0
 40
0
 40
0
 40
0
 40
1
 40
1
 40
1
 40
1
 10
199.794538
 20
-126.472625
 30
0.0
 10
199.794538
 20
-125.822844
 30
0.0
 10
199.536414
 20
-125.199677
 30
0.0
 10
199.076950
 20
-124.740213
 30
0.0
  0
SPLINE
  5
1c6
100
AcDbEntity
  8
0
 62
7
100
AcDbSpline
 70
8
 71
3
 72
8
 73
4
 74
0
 40
0
 40
0
 40
0
 40
0
 40
1
 40
1
 40
1
 40
1
 10
199.076950
 20
-124.740213
 30
0.0
 10
198.617486
 20
-124.280749
 30
0.0
 10
197.994318
 20
-124.022625
 30
0.0
 10
197.344538
 20
-124.022625
 30
0.0
  0
LWPOLYLINE
  5
1c7
100
AcDbEntity
  8
0
 62
7
100
AcDbPolyline
 90
1
 70
1
 10
67.334384
 20
-93.422483
 30
0.0
  0
SPLINE
  5
1c8
100
AcDbEntity
  8
0
 62
7
100
AcDbSpline
 70
8
 71
3
 72
8
 73
4
 74
0
 40
0
 40
0
 40
0
 40
0
 40
1
 40
1
 40
1
 40
1
 10
180.194458
 20
-140.922515
 30
0.0
 10
179.203525
 20
-140.922515
 30
0.0
 10
178.310166
 20
-141.519438
 30
0.0
 10
177.930953
 20
-142.434940
 30
0.0
  0
SPLINE
  5
1c9
100
AcDbEntity
  8
0
 62
7
100
AcDbSpline
 70
8
 71
3
 72
8
 73
4
 74
0
 40
0
 40
0
 40
0
 40
0
 40
1
 40
1
 40
1
 40
1
 10
177.930953
 20
-142.434940
 30
0.0
 10
177.551740
 20
-143.350443
 30
0.0
 10
177.761351
 20
-144.404231
 30
0.0
 10
178.462046
 20
-145.104927
 30
0.0
  0
SPLINE
  5
1ca
100
AcDbEntity
  8
0
 62
7
100
AcDbSpline
 70
8
 71
3
 72
8
 73
4
 74
0
 40
0
 40
0
 40
0
 40
0
 40
1
 40
1
 40
1
 40
1
 10
178.462046
 20
-145.104927
 30
0.0
 10
179.162741
 20
-145.805622
 30
0.0
 10
180.216530
 20
-146.015233
 30
0.0
 10
181.132032
 20
-145.636020
 30
0.0
  0
SPLINE
  5
1cb
100
AcDbEntity
  8
0
 62
7
100
AcDbSpline
 70
8
 71
3
 72
8
 73
4
 74
0
 40
0
 40
0
 40
0
 40
0
 40
1
 40
1
 40
1
 40
1
 10
181.132032
 20
-145.636020
 30
0.0
 10
182.047535
 20
-145.256806
 30
0.0
 10
182.644458
 20
-144.363447
 30
0.0
 10
182.644458
 20
-143.372515
 30
0.0
  0
SPLINE
  5
1cc
100
AcDbEntity
  8
0
 62
7
100
AcDbSpline
 70
8
 71
3
 72
8
 73
4
 74
0
 40
0
 40
0
 40
0
 40
0
 40
1
 40
1
 40
1
 40
1
 10
182.644458
 20
-143.372515
 30
0.0
 10
182.644458
 20
-142.722734
 30
0.0
 10
182.386334
 20
-142.099567
 30
0.0
 10
181.926870
 20
-141.640103
 30
0.0
  0
SPLINE
  5
1cd
100
AcDbEntity
  8
0
 62
7
100
AcDbSpline
 70
8
 71
3
 72
8
 73
4
 74
0
 40
0
 40
0
 40
0
 40
0
 40
1
 40
1
 40
1
 40
1
 10
181.926870
 20
-141.640103
 30
0.0
 10
181.467406
 20
-141.180639
 30
0.0
 10
180.844238
 20
-140.922515
 30
0.0
 10
180.194458
 20
-140.922515
 30
0.0
  0
LWPOLYLINE
  5
1ce
100
AcDbEntity
  8
0
 62
7
100
AcDbPolyline
 90
1
 70
1
 10
197.344538
 20
-124.022625
 30
0.0
  0
SPLINE
  5
1cf
100
AcDbEntity
  8
0
 62
7
100
AcDbSpline
 70
8
 71
3
 72
8
 73
4
 74
0
 40
0
 40
0
 40
0
 40
0
 40
1
 40
1
 40
1
 40
1
 10
141.844522
 20
-131.102621
 30
0.0
 10
140.491424
 20
-131.102621
 30
0.0
 10
139.394522
 20
-132.199523
 30
0.0
 10
139.394522
 20
-133.552621
 30
0.0
  0
SPLINE
  5
1d0
100
AcDbEntity
  8
0
 62
7
100
AcDbSpline
 70
8
 71
3
 72
8
 73
4
 74
0
 40
0
 40
0
 40
0
 40
0
 40
1
 40
1
 40
1
 40
1
 10
139.394522
 20
-133.552621
 30
0.0
 10
139.394522
 20
-134.905719
 30
0.0
 10
140.491424
 20
-136.002621
 30
0.0
 10
141.844522
 20
-136.002621
 30
0.0
  0
SPLINE
  5
1d1
100
AcDbEntity
  8
0
 62
7
100
AcDbSpline
 70
8
 71
3
 72
8
 73
4
 74
0
 40
0
 40
0
 40
0
 40
0
 40
1
 40
1
 40
1
 40
1
 10
141.844522
 20
-136.002621
 30
0.0
 10
143.197620
 20
-136.002621
 30
0.0
 10
144.294522
 20
-134.905719
 30
0.0
 10
144.294522
 20
-133.552621
 30
0.0
  0
SPLINE
  5
1d2
100
AcDbEntity
  8
0
 62
7
100
AcDbSpline
 70
8
 71
3
 72
8
 73
4
 74
0
 40
0
 40
0
 40
0
 40
0
 40
1
 40
1
 40
1
 40
1
 10
144.294522
 20
-133.552621
 30
0.0
 10
144.294522
 20
-132.902840
 30
0.0
 10
144.036398
 20
-132.279673
 30
0.0
 10
143.576934
 20
-131.820209
 30
0.0
  0
SPLINE
  5
1d3
100
AcDbEntity
  8
0
 62
7
100
AcDbSpline
 70
8
 71
3
 72
8
 73
4
 74
0
 40
0
 40
0
 40
0
 40
0
 40
1
 40
1
 40
1
 40
1
 10
143.576934
 20
-131.820209
 30
0.0
 10
143.117470
 20
-131.360745
 30
0.0
 10
142.494302
 20
-131.102621
 30
0.0
 10
141.844522
 20
-131.102621
 30
0.0
  0
LWPOLYLINE
  5
1d4
100
AcDbEntity
  8
0
 62
7
100
AcDbPolyline
 90
1
 70
1
 10
180.194458
 20
-140.922515
 30
0.0
  0
SPLINE
  5
1d5
100
AcDbEntity
  8
0
 62
7
100
AcDbSpline
 70
8
 71
3
 72
8
 73
4
 74
0
 40
0
 40
0
 40
0
 40
0
 40
1
 40
1
 40
1
 40
1
 10
142.364460
 20
-93.142575
 30
0.0
 10
141.011362
 20
-93.142575
 30
0.0
 10
139.914460
 20
-94.239477
 30
0.0
 10
139.914460
 20
-95.592575
 30
0.0
  0
SPLINE
  5
1d6
100
AcDbEntity
  8
0
 62
7
100
AcDbSpline
 70
8
 71
3
 72
8
 73
4
 74
0
 40
0
 40
0
 40
0
 40
0
 40
1
 40
1
 40
1
 40
1
 10
139.914460
 20
-95.592575
 30
0.0
 10
139.914460
 20
-96.945673
 30
0.0
 10
141.011362
 20
-98.042575
 30
0.0
 10
142.364460
 20
-98.042575
 30
0.0
  0
SPLINE
  5
1d7
100
AcDbEntity
  8
0
 62
7
100
AcDbSpline
 70
8
 71
3
 72
8
 73
4
 74
0
 40
0
 40
0
 40
0
 40
0
 40
1
 40
1
 40
1
 40
1
 10
142.364460
 20
-98.042575
 30
0.0
 10
143.717558
 20
-98.042575
 30
0.0
 10
144.814460
 20
-96.945673
 30
0.0
 10
144.814460
 20
-95.592575
 30
0.0
  0
SPLINE
  5
1d8
100
AcDbEntity
  8
0
 62
7
100
AcDbSpline
 70
8
 71
3
 72
8
 73
4
 74
0
 40
0
 40
0
 40
0
 40
0
 40
1
 40
1
 40
1
 40
1
 10
144.814460
 20
-95.592575
 30
0.0
 10
144.814460
 20
-94.942794
 30
0.0
 10
144.556336
 20
-94.319627
 30
0.0
 10
144.096872
 20
-93.860163
 30
0.0
  0
SPLINE
  5
1d9
100
AcDbEntity
  8
0
 62
7
100
AcDbSpline
 70
8
 71
3
 72
8
 73
4
 74
0
 40
0
 40
0
 40
0
 40
0
 40
1
 40
1
 40
1
 40
1
 10
144.096872
 20
-93.860163
 30
0.0
 10
143.637408
 20
-93.400699
 30
0.0
 10
143.014240
 20
-93.142575
 30
0.0
 10
142.364460
 20
-93.142575
 30
0.0
  0
LWPOLYLINE
  5
1da
100
AcDbEntity
  8
0
 62
7
100
AcDbPolyline
 90
1
 70
1
 10
141.844522
 20
-131.102621
 30
0.0
  0
SPLINE
  5
1db
100
AcDbEntity
  8
0
 62
7
100
AcDbSpline
 70
8
 71
3
 72
8
 73
4
 74
0
 40
0
 40
0
 40
0
 40
0
 40
1
 40
1
 40
1
 40
1
 10
198.914512
 20
-59.692553
 30
0.0
 10
197.923579
 20
-59.692553
 30
0.0
 10
197.030220
 20
-60.289476
 30
0.0
 10
196.651007
 20
-61.204978
 30
0.0
  0
SPLINE
  5
1dc
100
AcDbEntity
  8
0
 62
7
100
AcDbSpline
 70
8
 71
3
 72
8
 73
4
 74
0
 40
0
 40
0
 40
0
 40
0
 40
1
 40
1
 40
1
 40
1
 10
196.651007
 20
-61.204978
 30
0.0
 10
196.271794
 20
-62.120481
 30
0.0
 10
196.481405
 20
-63.174269
 30
0.0
 10
197.182100
 20
-63.874965
 30
0.0
  0
SPLINE
  5
1dd
100
AcDbEntity
  8
0
 62
7
100
AcDbSpline
 70
8
 71
3
 72
8
 73
4
 74
0
 40
0
 40
0
 40
0
 40
0
 40
1
 40
1
 40
1
 40
1
 10
197.182100
 20
-63.874965
 30
0.0
 10
197.882795
 20
-64.575660
 30
0.0
 10
198.936584
 20
-64.785271
 30
0.0
 10
199.852086
 20
-64.406058
 30
0.0
  0
SPLINE
  5
1de
100
AcDbEntity
  8
0
 62
7
100
AcDbSpline
 70
8
 71
3
 72
8
 73
4
 74
0
 40
0
 40
0
 40
0
 40
0
 40
1
 40
1
 40
1
 40
1
 10
199.852086
 20
-64.406058
 30
0.0
 10
200.767589
 20
-64.026844
 30
0.0
 10
201.364512
 20
-63.133485
 30
0.0
 10
201.364512
 20
-62.142553
 30
0.0
  0
SPLINE
  5
1df
100
AcDbEntity
  8
0
 62
7
100
AcDbSpline
 70
8
 71
3
 72
8
 73
4
 74
0
 40
0
 40
0
 40
0
 40
0
 40
1
 40
1
 40
1
 40
1
 10
201.364512
 20
-62.142553
 30
0.0
 10
201.364512
 20
-61.492772
 30
0.0
 10
201.106388
 20
-60.869605
 30
0.0
 10
200.646924
 20
-60.410141
 30
0.0
  0
SPLINE
  5
1e0
100
AcDbEntity
  8
0
 62
7
100
AcDbSpline
 70
8
 71
3
 72
8
 73
4
 74
0
 40
0
 40
0
 40
0
 40
0
 40
1
 40
1
 40
1
 40
1
 10
200.646924
 20
-60.410141
 30
0.0
 10
200.187460
 20
-59.950677
 30
0.0
 10
199.564292
 20
-59.692553
 30
0.0
 10
198.914512
 20
-59.692553
 30
0.0
  0
LWPOLYLINE
  5
1e1
100
AcDbEntity
  8
0
 62
7
100
AcDbPolyline
 90
1
 70
1
 10
142.364460
 20
-93.142575
 30
0.0
  0
SPLINE
  5
1e2
100
AcDbEntity
  8
0
 62
7
100
AcDbSpline
 70
8
 71
3
 72
8
 73
4
 74
0
 40
0
 40
0
 40
0
 40
0
 40
1
 40
1
 40
1
 40
1
 10
199.024494
 20
-99.092525
 30
0.0
 10
198.033561
 20
-99.092525
 30
0.0
 10
197.140202
 20
-99.689448
 30
0.0
 10
196.760989
 20
-100.604950
 30
0.0
  0
SPLINE
  5
1e3
100
AcDbEntity
  8
0
 62
7
100
AcDbSpline
 70
8
 71
3
 72
8
 73
4
 74
0
 40
0
 40
0
 40
0
 40
0
 40
1
 40
1
 40
1
 40
1
 10
196.760989
 20
-100.604950
 30
0.0
 10
196.381776
 20
-101.520453
 30
0.0
 10
196.591387
 20
-102.574241
 30
0.0
 10
197.292082
 20
-103.274937
 30
0.0
  0
SPLINE
  5
1e4
100
AcDbEntity
  8
0
 62
7
100
AcDbSpline
 70
8
 71
3
 72
8
 73
4
 74
0
 40
0
 40
0
 40
0
 40
0
 40
1
 40
1
 40
1
 40
1
 10
197.292082
 20
-103.274937
 30
0.0
 10
197.992777
 20
-103.975632
 30
0.0
 10
199.046566
 20
-104.185243
 30
0.0
 10
199.962068
 20
-103.806030
 30
0.0
  0
SPLINE
  5
1e5
100
AcDbEntity
  8
0
 62
7
100
AcDbSpline
 70
8
 71
3
 72
8
 73
4
 74
0
 40
0
 40
0
 40
0
 40
0
 40
1
 40
1
 40
1
 40
1
 10
199.962068
 20
-103.806030
 30
0.0
 10
200.877571
 20
-103.426816
 30
0.0
 10
201.474494
 20
-102.533457
 30
0.0
 10
201.474494
 20
-101.542525
 30
0.0
  0
SPLINE
  5
1e6
100
AcDbEntity
  8
0
 62
7
100
AcDbSpline
 70
8
 71
3
 72
8
 73
4
 74
0
 40
0
 40
0
 40
0
 40
0
 40
1
 40
1
 40
1
 40
1
 10
201.474494
 20
-101.542525
 30
0.0
 10
201.474494
 20
-100.892744
 30
0.0
 10
201.216370
 20
-100.269577
 30
0.0
 10
200.756906
 20
-99.810113
 30
0.0
  0
SPLINE
  5
1e7
100
AcDbEntity
  8
0
 62
7
100
AcDbSpline
 70
8
 71
3
 72
8
 73
4
 74
0
 40
0
 40
0
 40
0
 40
0
 40
1
 40
1
 40
1
 40
1
 10
200.756906
 20
-99.810113
 30
0.0
 10
200.297442
 20
-99.350649
 30
0.0
 10
199.674274
 20
-99.092525
 30
0.0
 10
199.024494
 20
-99.092525
 30
0.0
  0
LWPOLYLINE
  5
1e8
100
AcDbEntity
  8
0
 62
7
100
AcDbPolyline
 90
1
 70
1
 10
198.914512
 20
-59.692553
 30
0.0
  0
SPLINE
  5
1e9
100
AcDbEntity
  8
0
 62
7
100
AcDbSpline
 70
8
 71
3
 72
8
 73
4
 74
0
 40
0
 40
0
 40
0
 40
0
 40
1
 40
1
 40
1
 40
1
 10
104.724454
 20
-55.142651
 30
0.0
 10
103.733521
 20
-55.142651
 30
0.0
 10
102.840162
 20
-55.739574
 30
0.0
 10
102.460949
 20
-56.655076
 30
0.0
  0
SPLINE
  5
1ea
100
AcDbEntity
  8
0
 62
7
100
AcDbSpline
 70
8
 71
3
 72
8
 73
4
 74
0
 40
0
 40
0
 40
0
 40
0
 40
1
 40
1
 40
1
 40
1
 10
102.460949
 20
-56.655076
 30
0.0
 10
102.081736
 20
-57.570579
 30
0.0
 10
102.291347
 20
-58.624367
 30
0.0
 10
102.992042
 20
-59.325063
 30
0.0
  0
SPLINE
  5
1eb
100
AcDbEntity
  8
0
 62
7
100
AcDbSpline
 70
8
 71
3
 72
8
 73
4
 74
0
 40
0
 40
0
 40
0
 40
0
 40
1
 40
1
 40
1
 40
1
 10
102.992042
 20
-59.325063
 30
0.0
 10
103.692737
 20
-60.025758
 30
0.0
 10
104.746526
 20
-60.235369
 30
0.0
 10
105.662028
 20
-59.856156
 30
0.0
  0
SPLINE
  5
1ec
100
AcDbEntity
  8
0
 62
7
100
AcDbSpline
 70
8
 71
3
 72
8
 73
4
 74
0
 40
0
 40
0
 40
0
 40
0
 40
1
 40
1
 40
1
 40
1
 10
105.662028
 20
-59.856156
 30
0.0
 10
106.577531
 20
-59.476942
 30
0.0
 10
107.174454
 20
-58.583583
 30
0.0
 10
107.174454
 20
-57.592651
 30
0.0
  0
SPLINE
  5
1ed
100
AcDbEntity
  8
0
 62
7
100
AcDbSpline
 70
8
 71
3
 72
8
 73
4
 74
0
 40
0
 40
0
 40
0
 40
0
 40
1
 40
1
 40
1
 40
1
 10
107.174454
 20
-57.592651
 30
0.0
 10
107.174454
 20
-56.942870
 30
0.0
 10
106.916330
 20
-56.319703
 30
0.0
 10
106.456866
 20
-55.860239
 30
0.0
  0
SPLINE
  5
1ee
100
AcDbEntity
  8
0
 62
7
100
AcDbSpline
 70
8
 71
3
 72
8
 73
4
 74
0
 40
0
 40
0
 40
0
 40
0
 40
1
 40
1
 40
1
 40
1
 10
106.456866
 20
-55.860239
 30
0.0
 10
105.997402
 20
-55.400775
 30
0.0
 10
105.374234
 20
-55.142651
 30
0.0
 10
104.724454
 20
-55.142651
 30
0.0
  0
LWPOLYLINE
  5
1ef
100
AcDbEntity
  8
0
 62
7
100
AcDbPolyline
 90
1
 70
1
 10
199.024494
 20
-99.092525
 30
0.0
  0
SPLINE
  5
1f0
100
AcDbEntity
  8
0
 62
7
100
AcDbSpline
 70
8
 71
3
 72
8
 73
4
 74
0
 40
0
 40
0
 40
0
 40
0
 40
1
 40
1
 40
1
 40
1
 10
161.464498
 20
-55.122585
 30
0.0
 10
160.473565
 20
-55.122585
 30
0.0
 10
159.580206
 20
-55.719508
 30
0.0
 10
159.200993
 20
-56.635010
 30
0.0
  0
SPLINE
  5
1f1
100
AcDbEntity
  8
0
 62
7
100
AcDbSpline
 70
8
 71
3
 72
8
 73
4
 74
0
 40
0
 40
0
 40
0
 40
0
 40
1
 40
1
 40
1
 40
1
 10
159.200993
 20
-56.635010
 30
0.0
 10
158.821780
 20
-57.550513
 30
0.0
 10
159.031391
 20
-58.604301
 30
0.0
 10
159.732086
 20
-59.304997
 30
0.0
  0
SPLINE
  5
1f2
100
AcDbEntity
  8
0
 62
7
100
AcDbSpline
 70
8
 71
3
 72
8
 73
4
 74
0
 40
0
 40
0
 40
0
 40
0
 40
1
 40
1
 40
1
 40
1
 10
159.732086
 20
-59.304997
 30
0.0
 10
160.432781
 20
-60.005692
 30
0.0
 10
161.486570
 20
-60.215303
 30
0.0
 10
162.402072
 20
-59.836090
 30
0.0
  0
SPLINE
  5
1f3
100
AcDbEntity
  8
0
 62
7
100
AcDbSpline
 70
8
 71
3
 72
8
 73
4
 74
0
 40
0
 40
0
 40
0
 40
0
 40
1
 40
1
 40
1
 40
1
 10
162.402072
 20
-59.836090
 30
0.0
 10
163.317575
 20
-59.456876
 30
0.0
 10
163.914498
 20
-58.563517
 30
0.0
 10
163.914498
 20
-57.572585
 30
0.0
  0
SPLINE
  5
1f4
100
AcDbEntity
  8
0
 62
7
100
AcDbSpline
 70
8
 71
3
 72
8
 73
4
 74
0
 40
0
 40
0
 40
0
 40
0
 40
1
 40
1
 40
1
 40
1
 10
163.914498
 20
-57.572585
 30
0.0
 10
163.914498
 20
-56.922804
 30
0.0
 10
163.656374
 20
-56.299637
 30
0.0
 10
163.196910
 20
-55.840173
 30
0.0
  0
SPLINE
  5
1f5
100
AcDbEntity
  8
0
 62
7
100
AcDbSpline
 70
8
 71
3
 72
8
 73
4
 74
0
 40
0
 40
0
 40
0
 40
0
 40
1
 40
1
 40
1
 40
1
 10
163.196910
 20
-55.840173
 30
0.0
 10
162.737446
 20
-55.380709
 30
0.0
 10
162.114278
 20
-55.122585
 30
0.0
 10
161.464498
 20
-55.122585
 30
0.0
  0
LWPOLYLINE
  5
1f6
100
AcDbEntity
  8
0
 62
7
100
AcDbPolyline
 90
1
 70
1
 10
104.724454
 20
-55.142651
 30
0.0
  0
SPLINE
  5
1f7
100
AcDbEntity
  8
0
 62
7
100
AcDbSpline
 70
8
 71
3
 72
8
 73
4
 74
0
 40
0
 40
0
 40
0
 40
0
 40
1
 40
1
 40
1
 40
1
 10
104.414320
 20
-93.262463
 30
0.0
 10
103.423387
 20
-93.262463
 30
0.0
 10
102.530028
 20
-93.859386
 30
0.0
 10
102.150815
 20
-94.774888
 30
0.0
  0
SPLINE
  5
1f8
100
AcDbEntity
  8
0
 62
7
100
AcDbSpline
 70
8
 71
3
 72
8
 73
4
 74
0
 40
0
 40
0
 40
0
 40
0
 40
1
 40
1
 40
1
 40
1
 10
102.150815
 20
-94.774888
 30
0.0
 10
101.771602
 20
-95.690391
 30
0.0
 10
101.981213
 20
-96.744179
 30
0.0
 10
102.681908
 20
-97.444875
 30
0.0
  0
SPLINE
  5
1f9
100
AcDbEntity
  8
0
 62
7
100
AcDbSpline
 70
8
 71
3
 72
8
 73
4
 74
0
 40
0
 40
0
 40
0
 40
0
 40
1
 40
1
 40
1
 40
1
 10
102.681908
 20
-97.444875
 30
0.0
 10
103.382603
 20
-98.145570
 30
0.0
 10
104.436392
 20
-98.355181
 30
0.0
 10
105.351894
 20
-97.975968
 30
0.0
  0
SPLINE
  5
1fa
100
AcDbEntity
  8
0
 62
7
100
AcDbSpline
 70
8
 71
3
 72
8
 73
4
 74
0
 40
0
 40
0
 40
0
 40
0
 40
1
 40
1
 40
1
 40
1
 10
105.351894
 20
-97.975968
 30
0.0
 10
106.267397
 20
-97.596754
 30
0.0
 10
106.864320
 20
-96.703395
 30
0.0
 10
106.864320
 20
-95.712463
 30
0.0
  0
SPLINE
  5
1fb
100
AcDbEntity
  8
0
 62
7
100
AcDbSpline
 70
8
 71
3
 72
8
 73
4
 74
0
 40
0
 40
0
 40
0
 40
0
 40
1
 40
1
 40
1
 40
1
 10
106.864320
 20
-95.712463
 30
0.0
 10
106.864320
 20
-94.359365
 30
0.0
 10
105.767418
 20
-93.262463
 30
0.0
 10
104.414320
 20
-93.262463
 30
0.0
  0
LWPOLYLINE
  5
1fc
100
AcDbEntity
  8
0
 62
7
100
AcDbPolyline
 90
1
 70
1
 10
161.464498
 20
-55.122585
 30
0.0
  0
LWPOLYLINE
  5
1fd
100
AcDbEntity
  8
0
 62
7
100
AcDbPolyline
 90
1
 70
1
 10
104.414320
 20
-93.262463
 30
0.0
  0
LWPOLYLINE
  5
1fe
100
AcDbEntity
  8
0
 62
7
100
AcDbPolyline
 90
2
 70
0
 10
228.668580
 20
-107.191231
 30
0.0
 10
228.673660
 20
-107.181071
 30
0.0
  0
SPLINE
  5
1ff
100
AcDbEntity
  8
0
 62
7
100
AcDbSpline
 70
8
 71
3
 72
8
 73
4
 74
0
 40
0
 40
0
 40
0
 40
0
 40
1
 40
1
 40
1
 40
1
 10
64.178180
 20
-114.522687
 30
0.0
 10
64.178180
 20
-115.154234
 30
0.0
 10
64.429061
 20
-115.759914
 30
0.0
 10
64.875632
 20
-116.206485
 30
0.0
  0
SPLINE
  5
200
100
AcDbEntity
  8
0
 62
7
100
AcDbSpline
 70
8
 71
3
 72
8
 73
4
 74
0
 40
0
 40
0
 40
0
 40
0
 40
1
 40
1
 40
1
 40
1
 10
64.875632
 20
-116.206485
 30
0.0
 10
65.322203
 20
-116.653056
 30
0.0
 10
65.927883
 20
-116.903937
 30
0.0
 10
66.559430
 20
-116.903937
 30
0.0
  0
SPLINE
  5
201
100
AcDbEntity
  8
0
 62
7
100
AcDbSpline
 70
8
 71
3
 72
8
 73
4
 74
0
 40
0
 40
0
 40
0
 40
0
 40
1
 40
1
 40
1
 40
1
 10
64.178180
 20
-109.760187
 30
0.0
 10
64.178180
 20
-109.128640
 30
0.0
 10
63.927299
 20
-108.522960
 30
0.0
 10
63.480728
 20
-108.076389
 30
0.0
  0
SPLINE
  5
202
100
AcDbEntity
  8
0
 62
7
100
AcDbSpline
 70
8
 71
3
 72
8
 73
4
 74
0
 40
0
 40
0
 40
0
 40
0
 40
1
 40
1
 40
1
 40
1
 10
63.480728
 20
-108.076389
 30
0.0
 10
63.034157
 20
-107.629818
 30
0.0
 10
62.428477
 20
-107.378937
 30
0.0
 10
61.796930
 20
-107.378937
 30
0.0
  0
SPLINE
  5
203
100
AcDbEntity
  8
0
 62
7
100
AcDbSpline
 70
8
 71
3
 72
8
 73
4
 74
0
 40
0
 40
0
 40
0
 40
0
 40
1
 40
1
 40
1
 40
1
 10
45.128180
 20
-104.997687
 30
0.0
 10
45.128180
 20
-105.629234
 30
0.0
 10
45.379061
 20
-106.234914
 30
0.0
 10
45.825632
 20
-106.681485
 30
0.0
  0
SPLINE
  5
204
100
AcDbEntity
  8
0
 62
7
100
AcDbSpline
 70
8
 71
3
 72
8
 73
4
 74
0
 40
0
 40
0
 40
0
 40
0
 40
1
 40
1
 40
1
 40
1
 10
45.825632
 20
-106.681485
 30
0.0
 10
46.272203
 20
-107.128056
 30
0.0
 10
46.877883
 20
-107.378937
 30
0.0
 10
47.509430
 20
-107.378937
 30
0.0
  0
SPLINE
  5
205
100
AcDbEntity
  8
0
 62
7
100
AcDbSpline
 70
8
 71
3
 72
8
 73
4
 74
0
 40
0
 40
0
 40
0
 40
0
 40
1
 40
1
 40
1
 40
1
 10
47.509430
 20
-83.566437
 30
0.0
 10
46.877883
 20
-83.566437
 30
0.0
 10
46.272203
 20
-83.817318
 30
0.0
 10
45.825632
 20
-84.263889
 30
0.0
  0
SPLINE
  5
206
100
AcDbEntity
  8
0
 62
7
100
AcDbSpline
 70
8
 71
3
 72
8
 73
4
 74
0
 40
0
 40
0
 40
0
 40
0
 40
1
 40
1
 40
1
 40
1
 10
45.825632
 20
-84.263889
 30
0.0
 10
45.379061
 20
-84.710460
 30
0.0
 10
45.128180
 20
-85.316140
 30
0.0
 10
45.128180
 20
-85.947687
 30
0.0
  0
SPLINE
  5
207
100
AcDbEntity
  8
0
 62
7
100
AcDbSpline
 70
8
 71
3
 72
8
 73
4
 74
0
 40
0
 40
0
 40
0
 40
0
 40
1
 40
1
 40
1
 40
1
 10
61.796930
 20
-83.566437
 30
0.0
 10
62.428477
 20
-83.566437
 30
0.0
 10
63.034157
 20
-83.315556
 30
0.0
 10
63.480728
 20
-82.868985
 30
0.0
  0
SPLINE
  5
208
100
AcDbEntity
  8
0
 62
7
100
AcDbSpline
 70
8
 71
3
 72
8
 73
4
 74
0
 40
0
 40
0
 40
0
 40
0
 40
1
 40
1
 40
1
 40
1
 10
63.480728
 20
-82.868985
 30
0.0
 10
63.927299
 20
-82.422414
 30
0.0
 10
64.178180
 20
-81.816734
 30
0.0
 10
64.178180
 20
-81.185187
 30
0.0
  0
SPLINE
  5
209
100
AcDbEntity
  8
0
 62
7
100
AcDbSpline
 70
8
 71
3
 72
8
 73
4
 74
0
 40
0
 40
0
 40
0
 40
0
 40
1
 40
1
 40
1
 40
1
 10
80.846930
 20
-54.991437
 30
0.0
 10
81.478477
 20
-54.991437
 30
0.0
 10
82.084157
 20
-54.740556
 30
0.0
 10
82.530728
 20
-54.293985
 30
0.0
  0
SPLINE
  5
20a
100
AcDbEntity
  8
0
 62
7
100
AcDbSpline
 70
8
 71
3
 72
8
 73
4
 74
0
 40
0
 40
0
 40
0
 40
0
 40
1
 40
1
 40
1
 40
1
 10
82.530728
 20
-54.293985
 30
0.0
 10
82.977299
 20
-53.847414
 30
0.0
 10
83.228180
 20
-53.241734
 30
0.0
 10
83.228180
 20
-52.610187
 30
0.0
  0
SPLINE
  5
20b
100
AcDbEntity
  8
0
 62
7
100
AcDbSpline
 70
8
 71
3
 72
8
 73
4
 74
0
 40
0
 40
0
 40
0
 40
0
 40
1
 40
1
 40
1
 40
1
 10
66.559430
 20
-54.991437
 30
0.0
 10
65.927883
 20
-54.991437
 30
0.0
 10
65.322203
 20
-55.242318
 30
0.0
 10
64.875632
 20
-55.688889
 30
0.0
  0
SPLINE
  5
20c
100
AcDbEntity
  8
0
 62
7
100
AcDbSpline
 70
8
 71
3
 72
8
 73
4
 74
0
 40
0
 40
0
 40
0
 40
0
 40
1
 40
1
 40
1
 40
1
 10
64.875632
 20
-55.688889
 30
0.0
 10
64.429061
 20
-56.135460
 30
0.0
 10
64.178180
 20
-56.741140
 30
0.0
 10
64.178180
 20
-57.372687
 30
0.0
  0
SPLINE
  5
20d
100
AcDbEntity
  8
0
 62
7
100
AcDbSpline
 70
8
 71
3
 72
8
 73
4
 74
0
 40
0
 40
0
 40
0
 40
0
 40
1
 40
1
 40
1
 40
1
 10
85.609430
 20
-35.941437
 30
0.0
 10
84.977883
 20
-35.941437
 30
0.0
 10
84.372203
 20
-36.192318
 30
0.0
 10
83.925632
 20
-36.638889
 30
0.0
  0
SPLINE
  5
20e
100
AcDbEntity
  8
0
 62
7
100
AcDbSpline
 70
8
 71
3
 72
8
 73
4
 74
0
 40
0
 40
0
 40
0
 40
0
 40
1
 40
1
 40
1
 40
1
 10
83.925632
 20
-36.638889
 30
0.0
 10
83.479061
 20
-37.085460
 30
0.0
 10
83.228180
 20
-37.691140
 30
0.0
 10
83.228180
 20
-38.322687
 30
0.0
  0
SPLINE
  5
20f
100
AcDbEntity
  8
0
 62
7
100
AcDbSpline
 70
8
 71
3
 72
8
 73
4
 74
0
 40
0
 40
0
 40
0
 40
0
 40
1
 40
1
 40
1
 40
1
 10
199.909430
 20
-150.241437
 30
0.0
 10
200.540977
 20
-150.241437
 30
0.0
 10
201.146657
 20
-149.990556
 30
0.0
 10
201.593228
 20
-149.543985
 30
0.0
  0
SPLINE
  5
210
100
AcDbEntity
  8
0
 62
7
100
AcDbSpline
 70
8
 71
3
 72
8
 73
4
 74
0
 40
0
 40
0
 40
0
 40
0
 40
1
 40
1
 40
1
 40
1
 10
201.593228
 20
-149.543985
 30
0.0
 10
202.039799
 20
-149.097414
 30
0.0
 10
202.290680
 20
-148.491734
 30
0.0
 10
202.290680
 20
-147.860187
 30
0.0
  0
LWPOLYLINE
  5
211
100
AcDbEntity
  8
0
 62
7
100
AcDbPolyline
 90
2
 70
0
 10
116.563140
 20
-116.901651
 30
0.0
 10
66.558160
 20
-116.901651
 30
0.0
  0
LWPOLYLINE
  5
212
100
AcDbEntity
  8
0
 62
7
100
AcDbPolyline
 90
2
 70
0
 10
121.325640
 20
-121.664151
 30
0.0
 10
116.563140
 20
-116.901651
 30
0.0
  0
LWPOLYLINE
  5
213
100
AcDbEntity
  8
0
 62
7
100
AcDbPolyline
 90
2
 70
0
 10
128.470660
 20
-121.664151
 30
0.0
 10
121.325640
 20
-121.664151
 30
0.0
  0
LWPOLYLINE
  5
214
100
AcDbEntity
  8
0
 62
7
100
AcDbPolyline
 90
2
 70
0
 10
133.233160
 20
-126.426651
 30
0.0
 10
128.470660
 20
-121.664151
 30
0.0
  0
LWPOLYLINE
  5
215
100
AcDbEntity
  8
0
 62
7
100
AcDbPolyline
 90
2
 70
0
 10
133.233160
 20
-133.571671
 30
0.0
 10
133.233160
 20
-126.426651
 30
0.0
  0
LWPOLYLINE
  5
216
100
AcDbEntity
  8
0
 62
7
100
AcDbPolyline
 90
2
 70
0
 10
142.758160
 20
-140.714151
 30
0.0
 10
133.233160
 20
-133.571671
 30
0.0
  0
LWPOLYLINE
  5
217
100
AcDbEntity
  8
0
 62
7
100
AcDbPolyline
 90
2
 70
0
 10
202.288140
 20
-147.859171
 30
0.0
 10
202.288140
 20
-133.571671
 30
0.0
  0
LWPOLYLINE
  5
218
100
AcDbEntity
  8
0
 62
7
100
AcDbPolyline
 90
2
 70
0
 10
180.858160
 20
-150.239151
 30
0.0
 10
199.908160
 20
-150.239151
 30
0.0
  0
LWPOLYLINE
  5
219
100
AcDbEntity
  8
0
 62
7
100
AcDbPolyline
 90
2
 70
0
 10
176.095660
 20
-145.476651
 30
0.0
 10
180.858160
 20
-150.239151
 30
0.0
  0
LWPOLYLINE
  5
21a
100
AcDbEntity
  8
0
 62
7
100
AcDbPolyline
 90
2
 70
0
 10
161.808160
 20
-145.476651
 30
0.0
 10
176.095660
 20
-145.476651
 30
0.0
  0
LWPOLYLINE
  5
21b
100
AcDbEntity
  8
0
 62
7
100
AcDbPolyline
 90
2
 70
0
 10
157.045660
 20
-140.714151
 30
0.0
 10
161.808160
 20
-145.476651
 30
0.0
  0
LWPOLYLINE
  5
21c
100
AcDbEntity
  8
0
 62
7
100
AcDbPolyline
 90
2
 70
0
 10
142.758160
 20
-140.714151
 30
0.0
 10
157.045660
 20
-140.714151
 30
0.0
  0
LWPOLYLINE
  5
21d
100
AcDbEntity
  8
0
 62
7
100
AcDbPolyline
 90
2
 70
0
 10
64.175640
 20
-109.759171
 30
0.0
 10
64.175640
 20
-114.521671
 30
0.0
  0
LWPOLYLINE
  5
21e
100
AcDbEntity
  8
0
 62
7
100
AcDbPolyline
 90
2
 70
0
 10
47.508160
 20
-107.376651
 30
0.0
 10
61.795660
 20
-107.376651
 30
0.0
  0
LWPOLYLINE
  5
21f
100
AcDbEntity
  8
0
 62
7
100
AcDbPolyline
 90
2
 70
0
 10
45.125640
 20
-85.946671
 30
0.0
 10
45.125640
 20
-104.996671
 30
0.0
  0
LWPOLYLINE
  5
220
100
AcDbEntity
  8
0
 62
7
100
AcDbPolyline
 90
2
 70
0
 10
61.795660
 20
-83.564151
 30
0.0
 10
47.508160
 20
-83.564151
 30
0.0
  0
LWPOLYLINE
  5
221
100
AcDbEntity
  8
0
 62
7
100
AcDbPolyline
 90
2
 70
0
 10
64.175640
 20
-57.371671
 30
0.0
 10
64.175640
 20
-81.184171
 30
0.0
  0
LWPOLYLINE
  5
222
100
AcDbEntity
  8
0
 62
7
100
AcDbPolyline
 90
2
 70
0
 10
80.845660
 20
-54.989151
 30
0.0
 10
66.558160
 20
-54.989151
 30
0.0
  0
LWPOLYLINE
  5
223
100
AcDbEntity
  8
0
 62
7
100
AcDbPolyline
 90
2
 70
0
 10
83.225640
 20
-38.321671
 30
0.0
 10
83.225640
 20
-52.609171
 30
0.0
  0
LWPOLYLINE
  5
224
100
AcDbEntity
  8
0
 62
7
100
AcDbPolyline
 90
2
 70
0
 10
87.988140
 20
-35.939151
 30
0.0
 10
85.608160
 20
-35.939151
 30
0.0
  0
LWPOLYLINE
  5
225
100
AcDbEntity
  8
0
 62
7
100
AcDbPolyline
 90
2
 70
0
 10
180.858160
 20
-35.939151
 30
0.0
 10
185.620660
 20
-40.701651
 30
0.0
  0
SPLINE
  5
226
100
AcDbEntity
  8
0
 62
7
100
AcDbSpline
 70
8
 71
3
 72
8
 73
4
 74
0
 40
0
 40
0
 40
0
 40
0
 40
1
 40
1
 40
1
 40
1
 10
200.375644
 20
-40.700147
 30
0.0
 10
195.457582
 20
-40.700676
 30
0.0
 10
190.539251
 20
-40.701206
 30
0.0
 10
185.620657
 20
-40.701735
 30
0.0
  0
SPLINE
  5
227
100
AcDbEntity
  8
0
 62
7
100
AcDbSpline
 70
8
 71
3
 72
8
 73
4
 74
0
 40
0
 40
0
 40
0
 40
0
 40
1
 40
1
 40
1
 40
1
 10
200.375647
 20
-40.700147
 30
0.0
 10
201.707379
 20
-40.700147
 30
0.0
 10
203.038845
 20
-40.700147
 30
0.0
 10
203.704444
 20
-41.366534
 30
0.0
  0
SPLINE
  5
228
100
AcDbEntity
  8
0
 62
7
100
AcDbSpline
 70
8
 71
3
 72
8
 73
4
 74
0
 40
0
 40
0
 40
0
 40
0
 40
1
 40
1
 40
1
 40
1
 10
203.704444
 20
-41.366534
 30
0.0
 10
204.370046
 20
-42.032921
 30
0.0
 10
204.370046
 20
-43.365382
 30
0.0
 10
204.370046
 20
-44.697602
 30
0.0
  0
SPLINE
  5
229
100
AcDbEntity
  8
0
 62
7
100
AcDbSpline
 70
8
 71
3
 72
8
 73
4
 74
0
 40
0
 40
0
 40
0
 40
0
 40
1
 40
1
 40
1
 40
1
 10
204.370737
 20
-99.914375
 30
0.0
 10
204.368469
 20
-100.381181
 30
0.0
 10
204.366200
 20
-100.847728
 30
0.0
 10
204.564033
 20
-101.279267
 30
0.0
  0
SPLINE
  5
22a
100
AcDbEntity
  8
0
 62
7
100
AcDbSpline
 70
8
 71
3
 72
8
 73
4
 74
0
 40
0
 40
0
 40
0
 40
0
 40
1
 40
1
 40
1
 40
1
 10
204.564033
 20
-101.279267
 30
0.0
 10
204.761869
 20
-101.710807
 30
0.0
 10
205.159524
 20
-102.107332
 30
0.0
 10
205.556919
 20
-102.503600
 30
0.0
  0
LWPOLYLINE
  5
22b
100
AcDbEntity
  8
0
 62
7
100
AcDbPolyline
 90
2
 70
0
 10
87.988140
 20
-35.939151
 30
0.0
 10
180.858160
 20
-35.939151
 30
0.0
  0
LWPOLYLINE
  5
22c
100
AcDbEntity
  8
0
 62
7
100
AcDbPolyline
 90
2
 70
0
 10
204.369673
 20
-99.950237
 30
0.0
 10
204.369673
 20
-44.674897
 30
0.0
  0
SPLINE
  5
22d
100
AcDbEntity
  8
0
 62
7
100
AcDbSpline
 70
8
 71
3
 72
8
 73
4
 74
0
 40
0
 40
0
 40
0
 40
0
 40
1
 40
1
 40
1
 40
1
 10
218.458316
 20
-115.404999
 30
0.0
 10
218.791203
 20
-115.737889
 30
0.0
 10
219.123831
 20
-116.070515
 30
0.0
 10
219.023738
 20
-116.503534
 30
0.0
  0
SPLINE
  5
22e
100
AcDbEntity
  8
0
 62
7
100
AcDbSpline
 70
8
 71
3
 72
8
 73
4
 74
0
 40
0
 40
0
 40
0
 40
0
 40
1
 40
1
 40
1
 40
1
 10
219.023738
 20
-116.503534
 30
0.0
 10
218.923641
 20
-116.936556
 30
0.0
 10
218.391115
 20
-117.470212
 30
0.0
 10
217.858579
 20
-118.003879
 30
0.0
  0
SPLINE
  5
22f
100
AcDbEntity
  8
0
 62
7
100
AcDbSpline
 70
8
 71
3
 72
8
 73
4
 74
0
 40
0
 40
0
 40
0
 40
0
 40
1
 40
1
 40
1
 40
1
 10
217.858576
 20
-118.003876
 30
0.0
 10
212.668432
 20
-123.193139
 30
0.0
 10
207.478285
 20
-128.382405
 30
0.0
 10
202.288137
 20
-133.571671
 30
0.0
  0
LWPOLYLINE
  5
230
100
AcDbEntity
  8
0
 62
7
100
AcDbPolyline
 90
2
 70
0
 10
205.556917
 20
-102.503597
 30
0.0
 10
218.458318
 20
-115.405002
 30
0.0
  0
ENDSEC
  0
SECTION
  2
OBJECTS
  0
DICTIONARY
  5
C
330
0
100
AcDbDictionary
  3
ACAD_GROUP
350
D
  3
ACAD_MLINESTYLE
350
17
  0
DICTIONARY
  5
D
330
C
100
AcDbDictionary
  0
DICTIONARY
  5
1A
330
C
100
AcDbDictionary
  0
DICTIONARY
  5
17
330
C
100
AcDbDictionary
  3
STANDARD
350
18
  0
DICTIONARY
  5
19
330
C
100
AcDbDictionary
  0
ENDSEC
  0
EOF
