  0
SECTION
  2
HEADER
  9
$ANGBASE
  50
0.0
  9
$ANGDIR
  70
1
  9
$MEASUREMENT
  70
1
  0
ENDSEC
  0
SECTION
  2
TABLES
  0
TABLE
  2
LTYPE
  70
4
  0
LTYPE
  5
40F
  2
CONTINUOUS
  70
0
  3
Solid line
  72
65
  73
0
  40
0.0
  0
LTYPE
  5
410
  2
DASHDOT
 70
0
  3
Dash Dot ____ _ ____ _
 72
65
 73
4
 40
2.0
 49
1.25
 49
-0.25
 49
0.25
 49
-0.25
  0
LTYPE
  5
411
  2
DASHED
 70
0
  3
Dashed __ __ __ __ __
 72
65
 73
2
 40
0.75
 49
0.5
 49
-0.25
  0
LTYPE
  5
43B
  2
DOTTED
 70
0
  3
Dotted .  .  .  .
 72
65
 73
2
 40
0.2
 49
0.0
 49
-0.2
  0
ENDTAB
  0
TABLE
  2
STYLE
  70
4
  0
STYLE
  2
KICAD
  70
0
  40
0
  41
1
  42
1
  50
0
  71
0
  3
isocp.shx
  0
STYLE
  2
KICADB
  70
0
  40
0
  41
1
  42
1
  50
0
  71
0
  3
isocp.shx
  0
STYLE
  2
KICADI
  70
0
  40
0
  41
1
  42
1
  50
15
  71
0
  3
isocp.shx
  0
STYLE
  2
KICADBI
  70
0
  40
0
  41
1
  42
1
  50
15
  71
0
  3
isocp.shx
  0
ENDTAB
  0
TABLE
  2
LAYER
  70
1
  0
LAYER
  2
BLACK
  70
0
  62
7
  6
CONTINUOUS
  0
ENDTAB
  0
ENDSEC
  0
SECTION
  2
ENTITIES
0
LINE
8
BLACK
6
CONTINUOUS
10
197.288
20
-133.376
11
197.299
21
-133.377
0
LINE
8
BLACK
6
CONTINUOUS
10
197.299
20
-133.377
11
197.313
21
-133.382
0
LINE
8
BLACK
6
CONTINUOUS
10
197.313
20
-133.382
11
197.326
21
-133.388
0
LINE
8
BLACK
6
CONTINUOUS
10
197.326
20
-133.388
11
197.338
21
-133.398
0
LINE
8
BLACK
6
CONTINUOUS
10
197.338
20
-133.398
11
197.347
21
-133.409
0
LINE
8
BLACK
6
CONTINUOUS
10
197.347
20
-133.409
11
197.354
21
-133.422
0
LINE
8
BLACK
6
CONTINUOUS
10
197.354
20
-133.422
11
197.358
21
-133.436
0
LINE
8
BLACK
6
CONTINUOUS
10
197.358
20
-133.436
11
197.36
21
-133.451
0
LINE
8
BLACK
6
CONTINUOUS
10
197.36
20
-133.451
11
197.359
21
-133.455
0
LINE
8
BLACK
6
CONTINUOUS
10
197.359
20
-133.455
11
197.359
21
-147.247
0
LINE
8
BLACK
6
CONTINUOUS
10
197.359
20
-147.247
11
197.36
21
-147.251
0
LINE
8
BLACK
6
CONTINUOUS
10
197.36
20
-147.251
11
197.358
21
-147.266
0
LINE
8
BLACK
6
CONTINUOUS
10
197.358
20
-147.266
11
197.354
21
-147.28
0
LINE
8
BLACK
6
CONTINUOUS
10
197.354
20
-147.28
11
197.347
21
-147.293
0
LINE
8
BLACK
6
CONTINUOUS
10
197.347
20
-147.293
11
197.338
21
-147.304
0
LINE
8
BLACK
6
CONTINUOUS
10
197.338
20
-147.304
11
197.326
21
-147.314
0
LINE
8
BLACK
6
CONTINUOUS
10
197.326
20
-147.314
11
197.313
21
-147.321
0
LINE
8
BLACK
6
CONTINUOUS
10
197.313
20
-147.321
11
197.299
21
-147.325
0
LINE
8
BLACK
6
CONTINUOUS
10
197.299
20
-147.325
11
197.288
21
-147.326
0
LINE
8
BLACK
6
CONTINUOUS
10
197.288
20
-147.326
11
197.284
21
-147.327
0
LINE
8
BLACK
6
CONTINUOUS
10
197.284
20
-147.327
11
197.281
21
-147.326
0
LINE
8
BLACK
6
CONTINUOUS
10
197.281
20
-147.326
11
183.488
21
-147.326
0
LINE
8
BLACK
6
CONTINUOUS
10
183.488
20
-147.326
11
183.484
21
-147.327
0
LINE
8
BLACK
6
CONTINUOUS
10
183.484
20
-147.327
11
183.47
21
-147.325
0
LINE
8
BLACK
6
CONTINUOUS
10
183.47
20
-147.325
11
183.456
21
-147.321
0
LINE
8
BLACK
6
CONTINUOUS
10
183.456
20
-147.321
11
183.443
21
-147.314
0
LINE
8
BLACK
6
CONTINUOUS
10
183.443
20
-147.314
11
183.431
21
-147.304
0
LINE
8
BLACK
6
CONTINUOUS
10
183.431
20
-147.304
11
183.422
21
-147.293
0
LINE
8
BLACK
6
CONTINUOUS
10
183.422
20
-147.293
11
183.415
21
-147.28
0
LINE
8
BLACK
6
CONTINUOUS
10
183.415
20
-147.28
11
183.411
21
-147.266
0
LINE
8
BLACK
6
CONTINUOUS
10
183.411
20
-147.266
11
183.409
21
-147.251
0
LINE
8
BLACK
6
CONTINUOUS
10
183.409
20
-147.251
11
183.409
21
-147.247
0
LINE
8
BLACK
6
CONTINUOUS
10
183.409
20
-147.247
11
183.409
21
-133.455
0
LINE
8
BLACK
6
CONTINUOUS
10
183.409
20
-133.455
11
183.409
21
-133.451
0
LINE
8
BLACK
6
CONTINUOUS
10
183.409
20
-133.451
11
183.411
21
-133.436
0
LINE
8
BLACK
6
CONTINUOUS
10
183.411
20
-133.436
11
183.415
21
-133.422
0
LINE
8
BLACK
6
CONTINUOUS
10
183.415
20
-133.422
11
183.422
21
-133.409
0
LINE
8
BLACK
6
CONTINUOUS
10
183.422
20
-133.409
11
183.431
21
-133.398
0
LINE
8
BLACK
6
CONTINUOUS
10
183.431
20
-133.398
11
183.443
21
-133.388
0
LINE
8
BLACK
6
CONTINUOUS
10
183.443
20
-133.388
11
183.456
21
-133.382
0
LINE
8
BLACK
6
CONTINUOUS
10
183.456
20
-133.382
11
183.47
21
-133.377
0
LINE
8
BLACK
6
CONTINUOUS
10
183.47
20
-133.377
11
183.481
21
-133.376
0
LINE
8
BLACK
6
CONTINUOUS
10
183.481
20
-133.376
11
183.484
21
-133.376
0
LINE
8
BLACK
6
CONTINUOUS
10
183.484
20
-133.376
11
183.488
21
-133.376
0
LINE
8
BLACK
6
CONTINUOUS
10
183.488
20
-133.376
11
197.281
21
-133.376
0
LINE
8
BLACK
6
CONTINUOUS
10
197.281
20
-133.376
11
197.284
21
-133.376
0
LINE
8
BLACK
6
CONTINUOUS
10
197.284
20
-133.376
11
197.288
21
-133.376
0
LINE
8
BLACK
6
CONTINUOUS
10
183.559
20
-133.526
11
183.559
21
-147.176
0
LINE
8
BLACK
6
CONTINUOUS
10
183.559
20
-147.176
11
197.209
21
-147.176
0
LINE
8
BLACK
6
CONTINUOUS
10
197.209
20
-147.176
11
197.209
21
-133.526
0
LINE
8
BLACK
6
CONTINUOUS
10
197.209
20
-133.526
11
183.559
21
-133.526
0
LINE
8
BLACK
6
CONTINUOUS
10
178.238
20
-128.614
11
178.249
21
-128.615
0
LINE
8
BLACK
6
CONTINUOUS
10
178.249
20
-128.615
11
178.263
21
-128.619
0
LINE
8
BLACK
6
CONTINUOUS
10
178.263
20
-128.619
11
178.276
21
-128.626
0
LINE
8
BLACK
6
CONTINUOUS
10
178.276
20
-128.626
11
178.288
21
-128.635
0
LINE
8
BLACK
6
CONTINUOUS
10
178.288
20
-128.635
11
178.297
21
-128.647
0
LINE
8
BLACK
6
CONTINUOUS
10
178.297
20
-128.647
11
178.304
21
-128.66
0
LINE
8
BLACK
6
CONTINUOUS
10
178.304
20
-128.66
11
178.308
21
-128.674
0
LINE
8
BLACK
6
CONTINUOUS
10
178.308
20
-128.674
11
178.31
21
-128.689
0
LINE
8
BLACK
6
CONTINUOUS
10
178.31
20
-128.689
11
178.309
21
-128.692
0
LINE
8
BLACK
6
CONTINUOUS
10
178.309
20
-128.692
11
178.309
21
-142.485
0
LINE
8
BLACK
6
CONTINUOUS
10
178.309
20
-142.485
11
178.31
21
-142.489
0
LINE
8
BLACK
6
CONTINUOUS
10
178.31
20
-142.489
11
178.308
21
-142.503
0
LINE
8
BLACK
6
CONTINUOUS
10
178.308
20
-142.503
11
178.304
21
-142.517
0
LINE
8
BLACK
6
CONTINUOUS
10
178.304
20
-142.517
11
178.297
21
-142.531
0
LINE
8
BLACK
6
CONTINUOUS
10
178.297
20
-142.531
11
178.288
21
-142.542
0
LINE
8
BLACK
6
CONTINUOUS
10
178.288
20
-142.542
11
178.276
21
-142.551
0
LINE
8
BLACK
6
CONTINUOUS
10
178.276
20
-142.551
11
178.263
21
-142.558
0
LINE
8
BLACK
6
CONTINUOUS
10
178.263
20
-142.558
11
178.249
21
-142.563
0
LINE
8
BLACK
6
CONTINUOUS
10
178.249
20
-142.563
11
178.238
21
-142.564
0
LINE
8
BLACK
6
CONTINUOUS
10
178.238
20
-142.564
11
178.234
21
-142.564
0
LINE
8
BLACK
6
CONTINUOUS
10
178.234
20
-142.564
11
178.231
21
-142.564
0
LINE
8
BLACK
6
CONTINUOUS
10
178.231
20
-142.564
11
164.438
21
-142.564
0
LINE
8
BLACK
6
CONTINUOUS
10
164.438
20
-142.564
11
164.434
21
-142.564
0
LINE
8
BLACK
6
CONTINUOUS
10
164.434
20
-142.564
11
164.42
21
-142.563
0
LINE
8
BLACK
6
CONTINUOUS
10
164.42
20
-142.563
11
164.406
21
-142.558
0
LINE
8
BLACK
6
CONTINUOUS
10
164.406
20
-142.558
11
164.393
21
-142.551
0
LINE
8
BLACK
6
CONTINUOUS
10
164.393
20
-142.551
11
164.381
21
-142.542
0
LINE
8
BLACK
6
CONTINUOUS
10
164.381
20
-142.542
11
164.372
21
-142.531
0
LINE
8
BLACK
6
CONTINUOUS
10
164.372
20
-142.531
11
164.365
21
-142.517
0
LINE
8
BLACK
6
CONTINUOUS
10
164.365
20
-142.517
11
164.361
21
-142.503
0
LINE
8
BLACK
6
CONTINUOUS
10
164.361
20
-142.503
11
164.359
21
-142.489
0
LINE
8
BLACK
6
CONTINUOUS
10
164.359
20
-142.489
11
164.359
21
-142.485
0
LINE
8
BLACK
6
CONTINUOUS
10
164.359
20
-142.485
11
164.359
21
-128.692
0
LINE
8
BLACK
6
CONTINUOUS
10
164.359
20
-128.692
11
164.359
21
-128.689
0
LINE
8
BLACK
6
CONTINUOUS
10
164.359
20
-128.689
11
164.361
21
-128.674
0
LINE
8
BLACK
6
CONTINUOUS
10
164.361
20
-128.674
11
164.365
21
-128.66
0
LINE
8
BLACK
6
CONTINUOUS
10
164.365
20
-128.66
11
164.372
21
-128.647
0
LINE
8
BLACK
6
CONTINUOUS
10
164.372
20
-128.647
11
164.381
21
-128.635
0
LINE
8
BLACK
6
CONTINUOUS
10
164.381
20
-128.635
11
164.393
21
-128.626
0
LINE
8
BLACK
6
CONTINUOUS
10
164.393
20
-128.626
11
164.406
21
-128.619
0
LINE
8
BLACK
6
CONTINUOUS
10
164.406
20
-128.619
11
164.42
21
-128.615
0
LINE
8
BLACK
6
CONTINUOUS
10
164.42
20
-128.615
11
164.431
21
-128.614
0
LINE
8
BLACK
6
CONTINUOUS
10
164.431
20
-128.614
11
164.434
21
-128.613
0
LINE
8
BLACK
6
CONTINUOUS
10
164.434
20
-128.613
11
164.438
21
-128.614
0
LINE
8
BLACK
6
CONTINUOUS
10
164.438
20
-128.614
11
178.231
21
-128.614
0
LINE
8
BLACK
6
CONTINUOUS
10
178.231
20
-128.614
11
178.234
21
-128.613
0
LINE
8
BLACK
6
CONTINUOUS
10
178.234
20
-128.613
11
178.238
21
-128.614
0
LINE
8
BLACK
6
CONTINUOUS
10
164.509
20
-128.764
11
164.509
21
-142.414
0
LINE
8
BLACK
6
CONTINUOUS
10
164.509
20
-142.414
11
178.159
21
-142.414
0
LINE
8
BLACK
6
CONTINUOUS
10
178.159
20
-142.414
11
178.159
21
-128.764
0
LINE
8
BLACK
6
CONTINUOUS
10
178.159
20
-128.764
11
164.509
21
-128.764
0
LINE
8
BLACK
6
CONTINUOUS
10
159.188
20
-123.851
11
159.199
21
-123.852
0
LINE
8
BLACK
6
CONTINUOUS
10
159.199
20
-123.852
11
159.213
21
-123.857
0
LINE
8
BLACK
6
CONTINUOUS
10
159.213
20
-123.857
11
159.226
21
-123.863
0
LINE
8
BLACK
6
CONTINUOUS
10
159.226
20
-123.863
11
159.238
21
-123.873
0
LINE
8
BLACK
6
CONTINUOUS
10
159.238
20
-123.873
11
159.247
21
-123.884
0
LINE
8
BLACK
6
CONTINUOUS
10
159.247
20
-123.884
11
159.254
21
-123.897
0
LINE
8
BLACK
6
CONTINUOUS
10
159.254
20
-123.897
11
159.258
21
-123.911
0
LINE
8
BLACK
6
CONTINUOUS
10
159.258
20
-123.911
11
159.26
21
-123.926
0
LINE
8
BLACK
6
CONTINUOUS
10
159.26
20
-123.926
11
159.259
21
-123.93
0
LINE
8
BLACK
6
CONTINUOUS
10
159.259
20
-123.93
11
159.259
21
-137.722
0
LINE
8
BLACK
6
CONTINUOUS
10
159.259
20
-137.722
11
159.26
21
-137.726
0
LINE
8
BLACK
6
CONTINUOUS
10
159.26
20
-137.726
11
159.258
21
-137.741
0
LINE
8
BLACK
6
CONTINUOUS
10
159.258
20
-137.741
11
159.254
21
-137.755
0
LINE
8
BLACK
6
CONTINUOUS
10
159.254
20
-137.755
11
159.247
21
-137.768
0
LINE
8
BLACK
6
CONTINUOUS
10
159.247
20
-137.768
11
159.238
21
-137.779
0
LINE
8
BLACK
6
CONTINUOUS
10
159.238
20
-137.779
11
159.226
21
-137.789
0
LINE
8
BLACK
6
CONTINUOUS
10
159.226
20
-137.789
11
159.213
21
-137.796
0
LINE
8
BLACK
6
CONTINUOUS
10
159.213
20
-137.796
11
159.199
21
-137.8
0
LINE
8
BLACK
6
CONTINUOUS
10
159.199
20
-137.8
11
159.188
21
-137.801
0
LINE
8
BLACK
6
CONTINUOUS
10
159.188
20
-137.801
11
159.184
21
-137.802
0
LINE
8
BLACK
6
CONTINUOUS
10
159.184
20
-137.802
11
159.181
21
-137.801
0
LINE
8
BLACK
6
CONTINUOUS
10
159.181
20
-137.801
11
145.388
21
-137.801
0
LINE
8
BLACK
6
CONTINUOUS
10
145.388
20
-137.801
11
145.384
21
-137.802
0
LINE
8
BLACK
6
CONTINUOUS
10
145.384
20
-137.802
11
145.37
21
-137.8
0
LINE
8
BLACK
6
CONTINUOUS
10
145.37
20
-137.8
11
145.356
21
-137.796
0
LINE
8
BLACK
6
CONTINUOUS
10
145.356
20
-137.796
11
145.343
21
-137.789
0
LINE
8
BLACK
6
CONTINUOUS
10
145.343
20
-137.789
11
145.331
21
-137.779
0
LINE
8
BLACK
6
CONTINUOUS
10
145.331
20
-137.779
11
145.322
21
-137.768
0
LINE
8
BLACK
6
CONTINUOUS
10
145.322
20
-137.768
11
145.315
21
-137.755
0
LINE
8
BLACK
6
CONTINUOUS
10
145.315
20
-137.755
11
145.311
21
-137.741
0
LINE
8
BLACK
6
CONTINUOUS
10
145.311
20
-137.741
11
145.309
21
-137.726
0
LINE
8
BLACK
6
CONTINUOUS
10
145.309
20
-137.726
11
145.309
21
-137.722
0
LINE
8
BLACK
6
CONTINUOUS
10
145.309
20
-137.722
11
145.309
21
-123.93
0
LINE
8
BLACK
6
CONTINUOUS
10
145.309
20
-123.93
11
145.309
21
-123.926
0
LINE
8
BLACK
6
CONTINUOUS
10
145.309
20
-123.926
11
145.311
21
-123.911
0
LINE
8
BLACK
6
CONTINUOUS
10
145.311
20
-123.911
11
145.315
21
-123.897
0
LINE
8
BLACK
6
CONTINUOUS
10
145.315
20
-123.897
11
145.322
21
-123.884
0
LINE
8
BLACK
6
CONTINUOUS
10
145.322
20
-123.884
11
145.331
21
-123.873
0
LINE
8
BLACK
6
CONTINUOUS
10
145.331
20
-123.873
11
145.343
21
-123.863
0
LINE
8
BLACK
6
CONTINUOUS
10
145.343
20
-123.863
11
145.356
21
-123.857
0
LINE
8
BLACK
6
CONTINUOUS
10
145.356
20
-123.857
11
145.37
21
-123.852
0
LINE
8
BLACK
6
CONTINUOUS
10
145.37
20
-123.852
11
145.381
21
-123.851
0
LINE
8
BLACK
6
CONTINUOUS
10
145.381
20
-123.851
11
145.384
21
-123.851
0
LINE
8
BLACK
6
CONTINUOUS
10
145.384
20
-123.851
11
145.388
21
-123.851
0
LINE
8
BLACK
6
CONTINUOUS
10
145.388
20
-123.851
11
159.181
21
-123.851
0
LINE
8
BLACK
6
CONTINUOUS
10
159.181
20
-123.851
11
159.184
21
-123.851
0
LINE
8
BLACK
6
CONTINUOUS
10
159.184
20
-123.851
11
159.188
21
-123.851
0
LINE
8
BLACK
6
CONTINUOUS
10
145.459
20
-124.001
11
145.459
21
-137.651
0
LINE
8
BLACK
6
CONTINUOUS
10
145.459
20
-137.651
11
159.109
21
-137.651
0
LINE
8
BLACK
6
CONTINUOUS
10
159.109
20
-137.651
11
159.109
21
-124.001
0
LINE
8
BLACK
6
CONTINUOUS
10
159.109
20
-124.001
11
145.459
21
-124.001
0
LINE
8
BLACK
6
CONTINUOUS
10
202.585
20
-108.524
11
202.599
21
-108.529
0
LINE
8
BLACK
6
CONTINUOUS
10
202.599
20
-108.529
11
202.612
21
-108.536
0
LINE
8
BLACK
6
CONTINUOUS
10
202.612
20
-108.536
11
202.623
21
-108.545
0
LINE
8
BLACK
6
CONTINUOUS
10
202.623
20
-108.545
11
202.626
21
-108.548
0
LINE
8
BLACK
6
CONTINUOUS
10
202.626
20
-108.548
11
212.378
21
-118.301
0
LINE
8
BLACK
6
CONTINUOUS
10
212.378
20
-118.301
11
212.381
21
-118.303
0
LINE
8
BLACK
6
CONTINUOUS
10
212.381
20
-118.303
11
212.384
21
-118.306
0
LINE
8
BLACK
6
CONTINUOUS
10
212.384
20
-118.306
11
212.391
21
-118.315
0
LINE
8
BLACK
6
CONTINUOUS
10
212.391
20
-118.315
11
212.398
21
-118.328
0
LINE
8
BLACK
6
CONTINUOUS
10
212.398
20
-118.328
11
212.398
21
-118.328
0
LINE
8
BLACK
6
CONTINUOUS
10
212.398
20
-118.328
11
212.402
21
-118.342
0
LINE
8
BLACK
6
CONTINUOUS
10
212.402
20
-118.342
11
212.403
21
-118.356
0
LINE
8
BLACK
6
CONTINUOUS
10
212.403
20
-118.356
11
212.402
21
-118.371
0
LINE
8
BLACK
6
CONTINUOUS
10
212.402
20
-118.371
11
212.398
21
-118.385
0
LINE
8
BLACK
6
CONTINUOUS
10
212.398
20
-118.385
11
212.391
21
-118.398
0
LINE
8
BLACK
6
CONTINUOUS
10
212.391
20
-118.398
11
212.381
21
-118.41
0
LINE
8
BLACK
6
CONTINUOUS
10
212.381
20
-118.41
11
212.378
21
-118.412
0
LINE
8
BLACK
6
CONTINUOUS
10
212.378
20
-118.412
11
202.626
21
-128.165
0
LINE
8
BLACK
6
CONTINUOUS
10
202.626
20
-128.165
11
202.623
21
-128.168
0
LINE
8
BLACK
6
CONTINUOUS
10
202.623
20
-128.168
11
202.612
21
-128.177
0
LINE
8
BLACK
6
CONTINUOUS
10
202.612
20
-128.177
11
202.599
21
-128.184
0
LINE
8
BLACK
6
CONTINUOUS
10
202.599
20
-128.184
11
202.585
21
-128.188
0
LINE
8
BLACK
6
CONTINUOUS
10
202.585
20
-128.188
11
202.57
21
-128.19
0
LINE
8
BLACK
6
CONTINUOUS
10
202.57
20
-128.19
11
202.555
21
-128.188
0
LINE
8
BLACK
6
CONTINUOUS
10
202.555
20
-128.188
11
202.541
21
-128.184
0
LINE
8
BLACK
6
CONTINUOUS
10
202.541
20
-128.184
11
202.528
21
-128.177
0
LINE
8
BLACK
6
CONTINUOUS
10
202.528
20
-128.177
11
202.52
21
-128.17
0
LINE
8
BLACK
6
CONTINUOUS
10
202.52
20
-128.17
11
202.52
21
-128.17
0
LINE
8
BLACK
6
CONTINUOUS
10
202.52
20
-128.17
11
202.517
21
-128.168
0
LINE
8
BLACK
6
CONTINUOUS
10
202.517
20
-128.168
11
202.514
21
-128.165
0
LINE
8
BLACK
6
CONTINUOUS
10
202.514
20
-128.165
11
192.761
21
-118.412
0
LINE
8
BLACK
6
CONTINUOUS
10
192.761
20
-118.412
11
192.759
21
-118.41
0
LINE
8
BLACK
6
CONTINUOUS
10
192.759
20
-118.41
11
192.756
21
-118.407
0
LINE
8
BLACK
6
CONTINUOUS
10
192.756
20
-118.407
11
192.756
21
-118.407
0
LINE
8
BLACK
6
CONTINUOUS
10
192.756
20
-118.407
11
192.749
21
-118.398
0
LINE
8
BLACK
6
CONTINUOUS
10
192.749
20
-118.398
11
192.742
21
-118.385
0
LINE
8
BLACK
6
CONTINUOUS
10
192.742
20
-118.385
11
192.738
21
-118.371
0
LINE
8
BLACK
6
CONTINUOUS
10
192.738
20
-118.371
11
192.737
21
-118.356
0
LINE
8
BLACK
6
CONTINUOUS
10
192.737
20
-118.356
11
192.738
21
-118.342
0
LINE
8
BLACK
6
CONTINUOUS
10
192.738
20
-118.342
11
192.742
21
-118.328
0
LINE
8
BLACK
6
CONTINUOUS
10
192.742
20
-118.328
11
192.749
21
-118.315
0
LINE
8
BLACK
6
CONTINUOUS
10
192.749
20
-118.315
11
192.756
21
-118.306
0
LINE
8
BLACK
6
CONTINUOUS
10
192.756
20
-118.306
11
192.756
21
-118.306
0
LINE
8
BLACK
6
CONTINUOUS
10
192.756
20
-118.306
11
192.759
21
-118.303
0
LINE
8
BLACK
6
CONTINUOUS
10
192.759
20
-118.303
11
192.761
21
-118.301
0
LINE
8
BLACK
6
CONTINUOUS
10
192.761
20
-118.301
11
202.514
21
-108.548
0
LINE
8
BLACK
6
CONTINUOUS
10
202.514
20
-108.548
11
202.517
21
-108.545
0
LINE
8
BLACK
6
CONTINUOUS
10
202.517
20
-108.545
11
202.52
21
-108.543
0
LINE
8
BLACK
6
CONTINUOUS
10
202.52
20
-108.543
11
202.52
21
-108.543
0
LINE
8
BLACK
6
CONTINUOUS
10
202.52
20
-108.543
11
202.528
21
-108.536
0
LINE
8
BLACK
6
CONTINUOUS
10
202.528
20
-108.536
11
202.541
21
-108.529
0
LINE
8
BLACK
6
CONTINUOUS
10
202.541
20
-108.529
11
202.555
21
-108.524
0
LINE
8
BLACK
6
CONTINUOUS
10
202.555
20
-108.524
11
202.57
21
-108.523
0
LINE
8
BLACK
6
CONTINUOUS
10
202.57
20
-108.523
11
202.585
21
-108.524
0
LINE
8
BLACK
6
CONTINUOUS
10
192.918
20
-118.356
11
202.57
21
-128.008
0
LINE
8
BLACK
6
CONTINUOUS
10
202.57
20
-128.008
11
212.222
21
-118.356
0
LINE
8
BLACK
6
CONTINUOUS
10
212.222
20
-118.356
11
202.57
21
-108.704
0
LINE
8
BLACK
6
CONTINUOUS
10
202.57
20
-108.704
11
192.918
21
-118.356
0
LINE
8
BLACK
6
CONTINUOUS
10
82.9881
20
-100.039
11
82.9991
21
-100.04
0
LINE
8
BLACK
6
CONTINUOUS
10
82.9991
20
-100.04
11
83.0133
21
-100.044
0
LINE
8
BLACK
6
CONTINUOUS
10
83.0133
20
-100.044
11
83.0263
21
-100.051
0
LINE
8
BLACK
6
CONTINUOUS
10
83.0263
20
-100.051
11
83.0377
21
-100.06
0
LINE
8
BLACK
6
CONTINUOUS
10
83.0377
20
-100.06
11
83.0471
21
-100.072
0
LINE
8
BLACK
6
CONTINUOUS
10
83.0471
20
-100.072
11
83.054
21
-100.085
0
LINE
8
BLACK
6
CONTINUOUS
10
83.054
20
-100.085
11
83.0583
21
-100.099
0
LINE
8
BLACK
6
CONTINUOUS
10
83.0583
20
-100.099
11
83.0598
21
-100.114
0
LINE
8
BLACK
6
CONTINUOUS
10
83.0598
20
-100.114
11
83.0594
21
-100.117
0
LINE
8
BLACK
6
CONTINUOUS
10
83.0594
20
-100.117
11
83.0594
21
-113.91
0
LINE
8
BLACK
6
CONTINUOUS
10
83.0594
20
-113.91
11
83.0598
21
-113.914
0
LINE
8
BLACK
6
CONTINUOUS
10
83.0598
20
-113.914
11
83.0583
21
-113.928
0
LINE
8
BLACK
6
CONTINUOUS
10
83.0583
20
-113.928
11
83.054
21
-113.942
0
LINE
8
BLACK
6
CONTINUOUS
10
83.054
20
-113.942
11
83.0471
21
-113.956
0
LINE
8
BLACK
6
CONTINUOUS
10
83.0471
20
-113.956
11
83.0377
21
-113.967
0
LINE
8
BLACK
6
CONTINUOUS
10
83.0377
20
-113.967
11
83.0263
21
-113.976
0
LINE
8
BLACK
6
CONTINUOUS
10
83.0263
20
-113.976
11
83.0133
21
-113.983
0
LINE
8
BLACK
6
CONTINUOUS
10
83.0133
20
-113.983
11
82.9991
21
-113.988
0
LINE
8
BLACK
6
CONTINUOUS
10
82.9991
20
-113.988
11
82.9881
21
-113.989
0
LINE
8
BLACK
6
CONTINUOUS
10
82.9881
20
-113.989
11
82.9844
21
-113.989
0
LINE
8
BLACK
6
CONTINUOUS
10
82.9844
20
-113.989
11
82.9807
21
-113.989
0
LINE
8
BLACK
6
CONTINUOUS
10
82.9807
20
-113.989
11
69.1881
21
-113.989
0
LINE
8
BLACK
6
CONTINUOUS
10
69.1881
20
-113.989
11
69.1844
21
-113.989
0
LINE
8
BLACK
6
CONTINUOUS
10
69.1844
20
-113.989
11
69.1697
21
-113.988
0
LINE
8
BLACK
6
CONTINUOUS
10
69.1697
20
-113.988
11
69.1556
21
-113.983
0
LINE
8
BLACK
6
CONTINUOUS
10
69.1556
20
-113.983
11
69.1426
21
-113.976
0
LINE
8
BLACK
6
CONTINUOUS
10
69.1426
20
-113.976
11
69.1311
21
-113.967
0
LINE
8
BLACK
6
CONTINUOUS
10
69.1311
20
-113.967
11
69.1218
21
-113.956
0
LINE
8
BLACK
6
CONTINUOUS
10
69.1218
20
-113.956
11
69.1148
21
-113.942
0
LINE
8
BLACK
6
CONTINUOUS
10
69.1148
20
-113.942
11
69.1105
21
-113.928
0
LINE
8
BLACK
6
CONTINUOUS
10
69.1105
20
-113.928
11
69.1091
21
-113.914
0
LINE
8
BLACK
6
CONTINUOUS
10
69.1091
20
-113.914
11
69.1094
21
-113.91
0
LINE
8
BLACK
6
CONTINUOUS
10
69.1094
20
-113.91
11
69.1094
21
-100.117
0
LINE
8
BLACK
6
CONTINUOUS
10
69.1094
20
-100.117
11
69.1091
21
-100.114
0
LINE
8
BLACK
6
CONTINUOUS
10
69.1091
20
-100.114
11
69.1105
21
-100.099
0
LINE
8
BLACK
6
CONTINUOUS
10
69.1105
20
-100.099
11
69.1148
21
-100.085
0
LINE
8
BLACK
6
CONTINUOUS
10
69.1148
20
-100.085
11
69.1218
21
-100.072
0
LINE
8
BLACK
6
CONTINUOUS
10
69.1218
20
-100.072
11
69.1311
21
-100.06
0
LINE
8
BLACK
6
CONTINUOUS
10
69.1311
20
-100.06
11
69.1426
21
-100.051
0
LINE
8
BLACK
6
CONTINUOUS
10
69.1426
20
-100.051
11
69.1556
21
-100.044
0
LINE
8
BLACK
6
CONTINUOUS
10
69.1556
20
-100.044
11
69.1697
21
-100.04
0
LINE
8
BLACK
6
CONTINUOUS
10
69.1697
20
-100.04
11
69.1807
21
-100.039
0
LINE
8
BLACK
6
CONTINUOUS
10
69.1807
20
-100.039
11
69.1844
21
-100.038
0
LINE
8
BLACK
6
CONTINUOUS
10
69.1844
20
-100.038
11
69.1881
21
-100.039
0
LINE
8
BLACK
6
CONTINUOUS
10
69.1881
20
-100.039
11
82.9807
21
-100.039
0
LINE
8
BLACK
6
CONTINUOUS
10
82.9807
20
-100.039
11
82.9844
21
-100.038
0
LINE
8
BLACK
6
CONTINUOUS
10
82.9844
20
-100.038
11
82.9881
21
-100.039
0
LINE
8
BLACK
6
CONTINUOUS
10
69.2594
20
-100.189
11
69.2594
21
-113.839
0
LINE
8
BLACK
6
CONTINUOUS
10
69.2594
20
-113.839
11
82.9094
21
-113.839
0
LINE
8
BLACK
6
CONTINUOUS
10
82.9094
20
-113.839
11
82.9094
21
-100.189
0
LINE
8
BLACK
6
CONTINUOUS
10
82.9094
20
-100.189
11
69.2594
21
-100.189
0
LINE
8
BLACK
6
CONTINUOUS
10
159.188
20
-100.039
11
159.199
21
-100.04
0
LINE
8
BLACK
6
CONTINUOUS
10
159.199
20
-100.04
11
159.213
21
-100.044
0
LINE
8
BLACK
6
CONTINUOUS
10
159.213
20
-100.044
11
159.226
21
-100.051
0
LINE
8
BLACK
6
CONTINUOUS
10
159.226
20
-100.051
11
159.238
21
-100.06
0
LINE
8
BLACK
6
CONTINUOUS
10
159.238
20
-100.06
11
159.247
21
-100.072
0
LINE
8
BLACK
6
CONTINUOUS
10
159.247
20
-100.072
11
159.254
21
-100.085
0
LINE
8
BLACK
6
CONTINUOUS
10
159.254
20
-100.085
11
159.258
21
-100.099
0
LINE
8
BLACK
6
CONTINUOUS
10
159.258
20
-100.099
11
159.26
21
-100.114
0
LINE
8
BLACK
6
CONTINUOUS
10
159.26
20
-100.114
11
159.259
21
-100.117
0
LINE
8
BLACK
6
CONTINUOUS
10
159.259
20
-100.117
11
159.259
21
-113.91
0
LINE
8
BLACK
6
CONTINUOUS
10
159.259
20
-113.91
11
159.26
21
-113.914
0
LINE
8
BLACK
6
CONTINUOUS
10
159.26
20
-113.914
11
159.258
21
-113.928
0
LINE
8
BLACK
6
CONTINUOUS
10
159.258
20
-113.928
11
159.254
21
-113.942
0
LINE
8
BLACK
6
CONTINUOUS
10
159.254
20
-113.942
11
159.247
21
-113.956
0
LINE
8
BLACK
6
CONTINUOUS
10
159.247
20
-113.956
11
159.238
21
-113.967
0
LINE
8
BLACK
6
CONTINUOUS
10
159.238
20
-113.967
11
159.226
21
-113.976
0
LINE
8
BLACK
6
CONTINUOUS
10
159.226
20
-113.976
11
159.213
21
-113.983
0
LINE
8
BLACK
6
CONTINUOUS
10
159.213
20
-113.983
11
159.199
21
-113.988
0
LINE
8
BLACK
6
CONTINUOUS
10
159.199
20
-113.988
11
159.188
21
-113.989
0
LINE
8
BLACK
6
CONTINUOUS
10
159.188
20
-113.989
11
159.184
21
-113.989
0
LINE
8
BLACK
6
CONTINUOUS
10
159.184
20
-113.989
11
159.181
21
-113.989
0
LINE
8
BLACK
6
CONTINUOUS
10
159.181
20
-113.989
11
145.388
21
-113.989
0
LINE
8
BLACK
6
CONTINUOUS
10
145.388
20
-113.989
11
145.384
21
-113.989
0
LINE
8
BLACK
6
CONTINUOUS
10
145.384
20
-113.989
11
145.37
21
-113.988
0
LINE
8
BLACK
6
CONTINUOUS
10
145.37
20
-113.988
11
145.356
21
-113.983
0
LINE
8
BLACK
6
CONTINUOUS
10
145.356
20
-113.983
11
145.343
21
-113.976
0
LINE
8
BLACK
6
CONTINUOUS
10
145.343
20
-113.976
11
145.331
21
-113.967
0
LINE
8
BLACK
6
CONTINUOUS
10
145.331
20
-113.967
11
145.322
21
-113.956
0
LINE
8
BLACK
6
CONTINUOUS
10
145.322
20
-113.956
11
145.315
21
-113.942
0
LINE
8
BLACK
6
CONTINUOUS
10
145.315
20
-113.942
11
145.311
21
-113.928
0
LINE
8
BLACK
6
CONTINUOUS
10
145.311
20
-113.928
11
145.309
21
-113.914
0
LINE
8
BLACK
6
CONTINUOUS
10
145.309
20
-113.914
11
145.309
21
-113.91
0
LINE
8
BLACK
6
CONTINUOUS
10
145.309
20
-113.91
11
145.309
21
-100.117
0
LINE
8
BLACK
6
CONTINUOUS
10
145.309
20
-100.117
11
145.309
21
-100.114
0
LINE
8
BLACK
6
CONTINUOUS
10
145.309
20
-100.114
11
145.311
21
-100.099
0
LINE
8
BLACK
6
CONTINUOUS
10
145.311
20
-100.099
11
145.315
21
-100.085
0
LINE
8
BLACK
6
CONTINUOUS
10
145.315
20
-100.085
11
145.322
21
-100.072
0
LINE
8
BLACK
6
CONTINUOUS
10
145.322
20
-100.072
11
145.331
21
-100.06
0
LINE
8
BLACK
6
CONTINUOUS
10
145.331
20
-100.06
11
145.343
21
-100.051
0
LINE
8
BLACK
6
CONTINUOUS
10
145.343
20
-100.051
11
145.356
21
-100.044
0
LINE
8
BLACK
6
CONTINUOUS
10
145.356
20
-100.044
11
145.37
21
-100.04
0
LINE
8
BLACK
6
CONTINUOUS
10
145.37
20
-100.04
11
145.381
21
-100.039
0
LINE
8
BLACK
6
CONTINUOUS
10
145.381
20
-100.039
11
145.384
21
-100.038
0
LINE
8
BLACK
6
CONTINUOUS
10
145.384
20
-100.038
11
145.388
21
-100.039
0
LINE
8
BLACK
6
CONTINUOUS
10
145.388
20
-100.039
11
159.181
21
-100.039
0
LINE
8
BLACK
6
CONTINUOUS
10
159.181
20
-100.039
11
159.184
21
-100.038
0
LINE
8
BLACK
6
CONTINUOUS
10
159.184
20
-100.038
11
159.188
21
-100.039
0
LINE
8
BLACK
6
CONTINUOUS
10
145.459
20
-100.189
11
145.459
21
-113.839
0
LINE
8
BLACK
6
CONTINUOUS
10
145.459
20
-113.839
11
159.109
21
-113.839
0
LINE
8
BLACK
6
CONTINUOUS
10
159.109
20
-113.839
11
159.109
21
-100.189
0
LINE
8
BLACK
6
CONTINUOUS
10
159.109
20
-100.189
11
145.459
21
-100.189
0
LINE
8
BLACK
6
CONTINUOUS
10
102.038
20
-100.039
11
102.049
21
-100.04
0
LINE
8
BLACK
6
CONTINUOUS
10
102.049
20
-100.04
11
102.063
21
-100.044
0
LINE
8
BLACK
6
CONTINUOUS
10
102.063
20
-100.044
11
102.076
21
-100.051
0
LINE
8
BLACK
6
CONTINUOUS
10
102.076
20
-100.051
11
102.088
21
-100.06
0
LINE
8
BLACK
6
CONTINUOUS
10
102.088
20
-100.06
11
102.097
21
-100.072
0
LINE
8
BLACK
6
CONTINUOUS
10
102.097
20
-100.072
11
102.104
21
-100.085
0
LINE
8
BLACK
6
CONTINUOUS
10
102.104
20
-100.085
11
102.108
21
-100.099
0
LINE
8
BLACK
6
CONTINUOUS
10
102.108
20
-100.099
11
102.11
21
-100.114
0
LINE
8
BLACK
6
CONTINUOUS
10
102.11
20
-100.114
11
102.109
21
-100.117
0
LINE
8
BLACK
6
CONTINUOUS
10
102.109
20
-100.117
11
102.109
21
-113.91
0
LINE
8
BLACK
6
CONTINUOUS
10
102.109
20
-113.91
11
102.11
21
-113.914
0
LINE
8
BLACK
6
CONTINUOUS
10
102.11
20
-113.914
11
102.108
21
-113.928
0
LINE
8
BLACK
6
CONTINUOUS
10
102.108
20
-113.928
11
102.104
21
-113.942
0
LINE
8
BLACK
6
CONTINUOUS
10
102.104
20
-113.942
11
102.097
21
-113.956
0
LINE
8
BLACK
6
CONTINUOUS
10
102.097
20
-113.956
11
102.088
21
-113.967
0
LINE
8
BLACK
6
CONTINUOUS
10
102.088
20
-113.967
11
102.076
21
-113.976
0
LINE
8
BLACK
6
CONTINUOUS
10
102.076
20
-113.976
11
102.063
21
-113.983
0
LINE
8
BLACK
6
CONTINUOUS
10
102.063
20
-113.983
11
102.049
21
-113.988
0
LINE
8
BLACK
6
CONTINUOUS
10
102.049
20
-113.988
11
102.038
21
-113.989
0
LINE
8
BLACK
6
CONTINUOUS
10
102.038
20
-113.989
11
102.034
21
-113.989
0
LINE
8
BLACK
6
CONTINUOUS
10
102.034
20
-113.989
11
102.031
21
-113.989
0
LINE
8
BLACK
6
CONTINUOUS
10
102.031
20
-113.989
11
88.2381
21
-113.989
0
LINE
8
BLACK
6
CONTINUOUS
10
88.2381
20
-113.989
11
88.2344
21
-113.989
0
LINE
8
BLACK
6
CONTINUOUS
10
88.2344
20
-113.989
11
88.2197
21
-113.988
0
LINE
8
BLACK
6
CONTINUOUS
10
88.2197
20
-113.988
11
88.2056
21
-113.983
0
LINE
8
BLACK
6
CONTINUOUS
10
88.2056
20
-113.983
11
88.1926
21
-113.976
0
LINE
8
BLACK
6
CONTINUOUS
10
88.1926
20
-113.976
11
88.1811
21
-113.967
0
LINE
8
BLACK
6
CONTINUOUS
10
88.1811
20
-113.967
11
88.1718
21
-113.956
0
LINE
8
BLACK
6
CONTINUOUS
10
88.1718
20
-113.956
11
88.1648
21
-113.942
0
LINE
8
BLACK
6
CONTINUOUS
10
88.1648
20
-113.942
11
88.1605
21
-113.928
0
LINE
8
BLACK
6
CONTINUOUS
10
88.1605
20
-113.928
11
88.1591
21
-113.914
0
LINE
8
BLACK
6
CONTINUOUS
10
88.1591
20
-113.914
11
88.1594
21
-113.91
0
LINE
8
BLACK
6
CONTINUOUS
10
88.1594
20
-113.91
11
88.1594
21
-100.117
0
LINE
8
BLACK
6
CONTINUOUS
10
88.1594
20
-100.117
11
88.1591
21
-100.114
0
LINE
8
BLACK
6
CONTINUOUS
10
88.1591
20
-100.114
11
88.1605
21
-100.099
0
LINE
8
BLACK
6
CONTINUOUS
10
88.1605
20
-100.099
11
88.1648
21
-100.085
0
LINE
8
BLACK
6
CONTINUOUS
10
88.1648
20
-100.085
11
88.1718
21
-100.072
0
LINE
8
BLACK
6
CONTINUOUS
10
88.1718
20
-100.072
11
88.1811
21
-100.06
0
LINE
8
BLACK
6
CONTINUOUS
10
88.1811
20
-100.06
11
88.1926
21
-100.051
0
LINE
8
BLACK
6
CONTINUOUS
10
88.1926
20
-100.051
11
88.2056
21
-100.044
0
LINE
8
BLACK
6
CONTINUOUS
10
88.2056
20
-100.044
11
88.2197
21
-100.04
0
LINE
8
BLACK
6
CONTINUOUS
10
88.2197
20
-100.04
11
88.2307
21
-100.039
0
LINE
8
BLACK
6
CONTINUOUS
10
88.2307
20
-100.039
11
88.2344
21
-100.038
0
LINE
8
BLACK
6
CONTINUOUS
10
88.2344
20
-100.038
11
88.2381
21
-100.039
0
LINE
8
BLACK
6
CONTINUOUS
10
88.2381
20
-100.039
11
102.031
21
-100.039
0
LINE
8
BLACK
6
CONTINUOUS
10
102.031
20
-100.039
11
102.034
21
-100.038
0
LINE
8
BLACK
6
CONTINUOUS
10
102.034
20
-100.038
11
102.038
21
-100.039
0
LINE
8
BLACK
6
CONTINUOUS
10
88.3094
20
-100.189
11
88.3094
21
-113.839
0
LINE
8
BLACK
6
CONTINUOUS
10
88.3094
20
-113.839
11
101.959
21
-113.839
0
LINE
8
BLACK
6
CONTINUOUS
10
101.959
20
-113.839
11
101.959
21
-100.189
0
LINE
8
BLACK
6
CONTINUOUS
10
101.959
20
-100.189
11
88.3094
21
-100.189
0
LINE
8
BLACK
6
CONTINUOUS
10
178.238
20
-100.039
11
178.249
21
-100.04
0
LINE
8
BLACK
6
CONTINUOUS
10
178.249
20
-100.04
11
178.263
21
-100.044
0
LINE
8
BLACK
6
CONTINUOUS
10
178.263
20
-100.044
11
178.276
21
-100.051
0
LINE
8
BLACK
6
CONTINUOUS
10
178.276
20
-100.051
11
178.288
21
-100.06
0
LINE
8
BLACK
6
CONTINUOUS
10
178.288
20
-100.06
11
178.297
21
-100.072
0
LINE
8
BLACK
6
CONTINUOUS
10
178.297
20
-100.072
11
178.304
21
-100.085
0
LINE
8
BLACK
6
CONTINUOUS
10
178.304
20
-100.085
11
178.308
21
-100.099
0
LINE
8
BLACK
6
CONTINUOUS
10
178.308
20
-100.099
11
178.31
21
-100.114
0
LINE
8
BLACK
6
CONTINUOUS
10
178.31
20
-100.114
11
178.309
21
-100.117
0
LINE
8
BLACK
6
CONTINUOUS
10
178.309
20
-100.117
11
178.309
21
-113.91
0
LINE
8
BLACK
6
CONTINUOUS
10
178.309
20
-113.91
11
178.31
21
-113.914
0
LINE
8
BLACK
6
CONTINUOUS
10
178.31
20
-113.914
11
178.308
21
-113.928
0
LINE
8
BLACK
6
CONTINUOUS
10
178.308
20
-113.928
11
178.304
21
-113.942
0
LINE
8
BLACK
6
CONTINUOUS
10
178.304
20
-113.942
11
178.297
21
-113.956
0
LINE
8
BLACK
6
CONTINUOUS
10
178.297
20
-113.956
11
178.288
21
-113.967
0
LINE
8
BLACK
6
CONTINUOUS
10
178.288
20
-113.967
11
178.276
21
-113.976
0
LINE
8
BLACK
6
CONTINUOUS
10
178.276
20
-113.976
11
178.263
21
-113.983
0
LINE
8
BLACK
6
CONTINUOUS
10
178.263
20
-113.983
11
178.249
21
-113.988
0
LINE
8
BLACK
6
CONTINUOUS
10
178.249
20
-113.988
11
178.238
21
-113.989
0
LINE
8
BLACK
6
CONTINUOUS
10
178.238
20
-113.989
11
178.234
21
-113.989
0
LINE
8
BLACK
6
CONTINUOUS
10
178.234
20
-113.989
11
178.231
21
-113.989
0
LINE
8
BLACK
6
CONTINUOUS
10
178.231
20
-113.989
11
164.438
21
-113.989
0
LINE
8
BLACK
6
CONTINUOUS
10
164.438
20
-113.989
11
164.434
21
-113.989
0
LINE
8
BLACK
6
CONTINUOUS
10
164.434
20
-113.989
11
164.42
21
-113.988
0
LINE
8
BLACK
6
CONTINUOUS
10
164.42
20
-113.988
11
164.406
21
-113.983
0
LINE
8
BLACK
6
CONTINUOUS
10
164.406
20
-113.983
11
164.393
21
-113.976
0
LINE
8
BLACK
6
CONTINUOUS
10
164.393
20
-113.976
11
164.381
21
-113.967
0
LINE
8
BLACK
6
CONTINUOUS
10
164.381
20
-113.967
11
164.372
21
-113.956
0
LINE
8
BLACK
6
CONTINUOUS
10
164.372
20
-113.956
11
164.365
21
-113.942
0
LINE
8
BLACK
6
CONTINUOUS
10
164.365
20
-113.942
11
164.361
21
-113.928
0
LINE
8
BLACK
6
CONTINUOUS
10
164.361
20
-113.928
11
164.359
21
-113.914
0
LINE
8
BLACK
6
CONTINUOUS
10
164.359
20
-113.914
11
164.359
21
-113.91
0
LINE
8
BLACK
6
CONTINUOUS
10
164.359
20
-113.91
11
164.359
21
-100.117
0
LINE
8
BLACK
6
CONTINUOUS
10
164.359
20
-100.117
11
164.359
21
-100.114
0
LINE
8
BLACK
6
CONTINUOUS
10
164.359
20
-100.114
11
164.361
21
-100.099
0
LINE
8
BLACK
6
CONTINUOUS
10
164.361
20
-100.099
11
164.365
21
-100.085
0
LINE
8
BLACK
6
CONTINUOUS
10
164.365
20
-100.085
11
164.372
21
-100.072
0
LINE
8
BLACK
6
CONTINUOUS
10
164.372
20
-100.072
11
164.381
21
-100.06
0
LINE
8
BLACK
6
CONTINUOUS
10
164.381
20
-100.06
11
164.393
21
-100.051
0
LINE
8
BLACK
6
CONTINUOUS
10
164.393
20
-100.051
11
164.406
21
-100.044
0
LINE
8
BLACK
6
CONTINUOUS
10
164.406
20
-100.044
11
164.42
21
-100.04
0
LINE
8
BLACK
6
CONTINUOUS
10
164.42
20
-100.04
11
164.431
21
-100.039
0
LINE
8
BLACK
6
CONTINUOUS
10
164.431
20
-100.039
11
164.434
21
-100.038
0
LINE
8
BLACK
6
CONTINUOUS
10
164.434
20
-100.038
11
164.438
21
-100.039
0
LINE
8
BLACK
6
CONTINUOUS
10
164.438
20
-100.039
11
178.231
21
-100.039
0
LINE
8
BLACK
6
CONTINUOUS
10
178.231
20
-100.039
11
178.234
21
-100.038
0
LINE
8
BLACK
6
CONTINUOUS
10
178.234
20
-100.038
11
178.238
21
-100.039
0
LINE
8
BLACK
6
CONTINUOUS
10
164.509
20
-100.189
11
164.509
21
-113.839
0
LINE
8
BLACK
6
CONTINUOUS
10
164.509
20
-113.839
11
178.159
21
-113.839
0
LINE
8
BLACK
6
CONTINUOUS
10
178.159
20
-113.839
11
178.159
21
-100.189
0
LINE
8
BLACK
6
CONTINUOUS
10
178.159
20
-100.189
11
164.509
21
-100.189
0
LINE
8
BLACK
6
CONTINUOUS
10
140.138
20
-100.039
11
140.149
21
-100.04
0
LINE
8
BLACK
6
CONTINUOUS
10
140.149
20
-100.04
11
140.163
21
-100.044
0
LINE
8
BLACK
6
CONTINUOUS
10
140.163
20
-100.044
11
140.176
21
-100.051
0
LINE
8
BLACK
6
CONTINUOUS
10
140.176
20
-100.051
11
140.188
21
-100.06
0
LINE
8
BLACK
6
CONTINUOUS
10
140.188
20
-100.06
11
140.197
21
-100.072
0
LINE
8
BLACK
6
CONTINUOUS
10
140.197
20
-100.072
11
140.204
21
-100.085
0
LINE
8
BLACK
6
CONTINUOUS
10
140.204
20
-100.085
11
140.208
21
-100.099
0
LINE
8
BLACK
6
CONTINUOUS
10
140.208
20
-100.099
11
140.21
21
-100.114
0
LINE
8
BLACK
6
CONTINUOUS
10
140.21
20
-100.114
11
140.209
21
-100.117
0
LINE
8
BLACK
6
CONTINUOUS
10
140.209
20
-100.117
11
140.209
21
-113.91
0
LINE
8
BLACK
6
CONTINUOUS
10
140.209
20
-113.91
11
140.21
21
-113.914
0
LINE
8
BLACK
6
CONTINUOUS
10
140.21
20
-113.914
11
140.208
21
-113.928
0
LINE
8
BLACK
6
CONTINUOUS
10
140.208
20
-113.928
11
140.204
21
-113.942
0
LINE
8
BLACK
6
CONTINUOUS
10
140.204
20
-113.942
11
140.197
21
-113.956
0
LINE
8
BLACK
6
CONTINUOUS
10
140.197
20
-113.956
11
140.188
21
-113.967
0
LINE
8
BLACK
6
CONTINUOUS
10
140.188
20
-113.967
11
140.176
21
-113.976
0
LINE
8
BLACK
6
CONTINUOUS
10
140.176
20
-113.976
11
140.163
21
-113.983
0
LINE
8
BLACK
6
CONTINUOUS
10
140.163
20
-113.983
11
140.149
21
-113.988
0
LINE
8
BLACK
6
CONTINUOUS
10
140.149
20
-113.988
11
140.138
21
-113.989
0
LINE
8
BLACK
6
CONTINUOUS
10
140.138
20
-113.989
11
140.134
21
-113.989
0
LINE
8
BLACK
6
CONTINUOUS
10
140.134
20
-113.989
11
140.131
21
-113.989
0
LINE
8
BLACK
6
CONTINUOUS
10
140.131
20
-113.989
11
126.338
21
-113.989
0
LINE
8
BLACK
6
CONTINUOUS
10
126.338
20
-113.989
11
126.334
21
-113.989
0
LINE
8
BLACK
6
CONTINUOUS
10
126.334
20
-113.989
11
126.32
21
-113.988
0
LINE
8
BLACK
6
CONTINUOUS
10
126.32
20
-113.988
11
126.306
21
-113.983
0
LINE
8
BLACK
6
CONTINUOUS
10
126.306
20
-113.983
11
126.293
21
-113.976
0
LINE
8
BLACK
6
CONTINUOUS
10
126.293
20
-113.976
11
126.281
21
-113.967
0
LINE
8
BLACK
6
CONTINUOUS
10
126.281
20
-113.967
11
126.272
21
-113.956
0
LINE
8
BLACK
6
CONTINUOUS
10
126.272
20
-113.956
11
126.265
21
-113.942
0
LINE
8
BLACK
6
CONTINUOUS
10
126.265
20
-113.942
11
126.261
21
-113.928
0
LINE
8
BLACK
6
CONTINUOUS
10
126.261
20
-113.928
11
126.259
21
-113.914
0
LINE
8
BLACK
6
CONTINUOUS
10
126.259
20
-113.914
11
126.259
21
-113.91
0
LINE
8
BLACK
6
CONTINUOUS
10
126.259
20
-113.91
11
126.259
21
-100.117
0
LINE
8
BLACK
6
CONTINUOUS
10
126.259
20
-100.117
11
126.259
21
-100.114
0
LINE
8
BLACK
6
CONTINUOUS
10
126.259
20
-100.114
11
126.261
21
-100.099
0
LINE
8
BLACK
6
CONTINUOUS
10
126.261
20
-100.099
11
126.265
21
-100.085
0
LINE
8
BLACK
6
CONTINUOUS
10
126.265
20
-100.085
11
126.272
21
-100.072
0
LINE
8
BLACK
6
CONTINUOUS
10
126.272
20
-100.072
11
126.281
21
-100.06
0
LINE
8
BLACK
6
CONTINUOUS
10
126.281
20
-100.06
11
126.293
21
-100.051
0
LINE
8
BLACK
6
CONTINUOUS
10
126.293
20
-100.051
11
126.306
21
-100.044
0
LINE
8
BLACK
6
CONTINUOUS
10
126.306
20
-100.044
11
126.32
21
-100.04
0
LINE
8
BLACK
6
CONTINUOUS
10
126.32
20
-100.04
11
126.331
21
-100.039
0
LINE
8
BLACK
6
CONTINUOUS
10
126.331
20
-100.039
11
126.334
21
-100.038
0
LINE
8
BLACK
6
CONTINUOUS
10
126.334
20
-100.038
11
126.338
21
-100.039
0
LINE
8
BLACK
6
CONTINUOUS
10
126.338
20
-100.039
11
140.131
21
-100.039
0
LINE
8
BLACK
6
CONTINUOUS
10
140.131
20
-100.039
11
140.134
21
-100.038
0
LINE
8
BLACK
6
CONTINUOUS
10
140.134
20
-100.038
11
140.138
21
-100.039
0
LINE
8
BLACK
6
CONTINUOUS
10
126.409
20
-100.189
11
126.409
21
-113.839
0
LINE
8
BLACK
6
CONTINUOUS
10
126.409
20
-113.839
11
140.059
21
-113.839
0
LINE
8
BLACK
6
CONTINUOUS
10
140.059
20
-113.839
11
140.059
21
-100.189
0
LINE
8
BLACK
6
CONTINUOUS
10
140.059
20
-100.189
11
126.409
21
-100.189
0
LINE
8
BLACK
6
CONTINUOUS
10
121.088
20
-100.039
11
121.099
21
-100.04
0
LINE
8
BLACK
6
CONTINUOUS
10
121.099
20
-100.04
11
121.113
21
-100.044
0
LINE
8
BLACK
6
CONTINUOUS
10
121.113
20
-100.044
11
121.126
21
-100.051
0
LINE
8
BLACK
6
CONTINUOUS
10
121.126
20
-100.051
11
121.138
21
-100.06
0
LINE
8
BLACK
6
CONTINUOUS
10
121.138
20
-100.06
11
121.147
21
-100.072
0
LINE
8
BLACK
6
CONTINUOUS
10
121.147
20
-100.072
11
121.154
21
-100.085
0
LINE
8
BLACK
6
CONTINUOUS
10
121.154
20
-100.085
11
121.158
21
-100.099
0
LINE
8
BLACK
6
CONTINUOUS
10
121.158
20
-100.099
11
121.16
21
-100.114
0
LINE
8
BLACK
6
CONTINUOUS
10
121.16
20
-100.114
11
121.159
21
-100.117
0
LINE
8
BLACK
6
CONTINUOUS
10
121.159
20
-100.117
11
121.159
21
-113.91
0
LINE
8
BLACK
6
CONTINUOUS
10
121.159
20
-113.91
11
121.16
21
-113.914
0
LINE
8
BLACK
6
CONTINUOUS
10
121.16
20
-113.914
11
121.158
21
-113.928
0
LINE
8
BLACK
6
CONTINUOUS
10
121.158
20
-113.928
11
121.154
21
-113.942
0
LINE
8
BLACK
6
CONTINUOUS
10
121.154
20
-113.942
11
121.147
21
-113.956
0
LINE
8
BLACK
6
CONTINUOUS
10
121.147
20
-113.956
11
121.138
21
-113.967
0
LINE
8
BLACK
6
CONTINUOUS
10
121.138
20
-113.967
11
121.126
21
-113.976
0
LINE
8
BLACK
6
CONTINUOUS
10
121.126
20
-113.976
11
121.113
21
-113.983
0
LINE
8
BLACK
6
CONTINUOUS
10
121.113
20
-113.983
11
121.099
21
-113.988
0
LINE
8
BLACK
6
CONTINUOUS
10
121.099
20
-113.988
11
121.088
21
-113.989
0
LINE
8
BLACK
6
CONTINUOUS
10
121.088
20
-113.989
11
121.084
21
-113.989
0
LINE
8
BLACK
6
CONTINUOUS
10
121.084
20
-113.989
11
121.081
21
-113.989
0
LINE
8
BLACK
6
CONTINUOUS
10
121.081
20
-113.989
11
107.288
21
-113.989
0
LINE
8
BLACK
6
CONTINUOUS
10
107.288
20
-113.989
11
107.284
21
-113.989
0
LINE
8
BLACK
6
CONTINUOUS
10
107.284
20
-113.989
11
107.27
21
-113.988
0
LINE
8
BLACK
6
CONTINUOUS
10
107.27
20
-113.988
11
107.256
21
-113.983
0
LINE
8
BLACK
6
CONTINUOUS
10
107.256
20
-113.983
11
107.243
21
-113.976
0
LINE
8
BLACK
6
CONTINUOUS
10
107.243
20
-113.976
11
107.231
21
-113.967
0
LINE
8
BLACK
6
CONTINUOUS
10
107.231
20
-113.967
11
107.222
21
-113.956
0
LINE
8
BLACK
6
CONTINUOUS
10
107.222
20
-113.956
11
107.215
21
-113.942
0
LINE
8
BLACK
6
CONTINUOUS
10
107.215
20
-113.942
11
107.211
21
-113.928
0
LINE
8
BLACK
6
CONTINUOUS
10
107.211
20
-113.928
11
107.209
21
-113.914
0
LINE
8
BLACK
6
CONTINUOUS
10
107.209
20
-113.914
11
107.209
21
-113.91
0
LINE
8
BLACK
6
CONTINUOUS
10
107.209
20
-113.91
11
107.209
21
-100.117
0
LINE
8
BLACK
6
CONTINUOUS
10
107.209
20
-100.117
11
107.209
21
-100.114
0
LINE
8
BLACK
6
CONTINUOUS
10
107.209
20
-100.114
11
107.211
21
-100.099
0
LINE
8
BLACK
6
CONTINUOUS
10
107.211
20
-100.099
11
107.215
21
-100.085
0
LINE
8
BLACK
6
CONTINUOUS
10
107.215
20
-100.085
11
107.222
21
-100.072
0
LINE
8
BLACK
6
CONTINUOUS
10
107.222
20
-100.072
11
107.231
21
-100.06
0
LINE
8
BLACK
6
CONTINUOUS
10
107.231
20
-100.06
11
107.243
21
-100.051
0
LINE
8
BLACK
6
CONTINUOUS
10
107.243
20
-100.051
11
107.256
21
-100.044
0
LINE
8
BLACK
6
CONTINUOUS
10
107.256
20
-100.044
11
107.27
21
-100.04
0
LINE
8
BLACK
6
CONTINUOUS
10
107.27
20
-100.04
11
107.281
21
-100.039
0
LINE
8
BLACK
6
CONTINUOUS
10
107.281
20
-100.039
11
107.284
21
-100.038
0
LINE
8
BLACK
6
CONTINUOUS
10
107.284
20
-100.038
11
107.288
21
-100.039
0
LINE
8
BLACK
6
CONTINUOUS
10
107.288
20
-100.039
11
121.081
21
-100.039
0
LINE
8
BLACK
6
CONTINUOUS
10
121.081
20
-100.039
11
121.084
21
-100.038
0
LINE
8
BLACK
6
CONTINUOUS
10
121.084
20
-100.038
11
121.088
21
-100.039
0
LINE
8
BLACK
6
CONTINUOUS
10
107.359
20
-100.189
11
107.359
21
-113.839
0
LINE
8
BLACK
6
CONTINUOUS
10
107.359
20
-113.839
11
121.009
21
-113.839
0
LINE
8
BLACK
6
CONTINUOUS
10
121.009
20
-113.839
11
121.009
21
-100.189
0
LINE
8
BLACK
6
CONTINUOUS
10
121.009
20
-100.189
11
107.359
21
-100.189
0
LINE
8
BLACK
6
CONTINUOUS
10
63.9381
20
-90.5136
11
63.9491
21
-90.5147
0
LINE
8
BLACK
6
CONTINUOUS
10
63.9491
20
-90.5147
11
63.9633
21
-90.519
0
LINE
8
BLACK
6
CONTINUOUS
10
63.9633
20
-90.519
11
63.9763
21
-90.526
0
LINE
8
BLACK
6
CONTINUOUS
10
63.9763
20
-90.526
11
63.9877
21
-90.5354
0
LINE
8
BLACK
6
CONTINUOUS
10
63.9877
20
-90.5354
11
63.9971
21
-90.5468
0
LINE
8
BLACK
6
CONTINUOUS
10
63.9971
20
-90.5468
11
64.004
21
-90.5598
0
LINE
8
BLACK
6
CONTINUOUS
10
64.004
20
-90.5598
11
64.0083
21
-90.5739
0
LINE
8
BLACK
6
CONTINUOUS
10
64.0083
20
-90.5739
11
64.0098
21
-90.5886
0
LINE
8
BLACK
6
CONTINUOUS
10
64.0098
20
-90.5886
11
64.0094
21
-90.5923
0
LINE
8
BLACK
6
CONTINUOUS
10
64.0094
20
-90.5923
11
64.0094
21
-104.385
0
LINE
8
BLACK
6
CONTINUOUS
10
64.0094
20
-104.385
11
64.0098
21
-104.389
0
LINE
8
BLACK
6
CONTINUOUS
10
64.0098
20
-104.389
11
64.0083
21
-104.403
0
LINE
8
BLACK
6
CONTINUOUS
10
64.0083
20
-104.403
11
64.004
21
-104.417
0
LINE
8
BLACK
6
CONTINUOUS
10
64.004
20
-104.417
11
63.9971
21
-104.431
0
LINE
8
BLACK
6
CONTINUOUS
10
63.9971
20
-104.431
11
63.9877
21
-104.442
0
LINE
8
BLACK
6
CONTINUOUS
10
63.9877
20
-104.442
11
63.9763
21
-104.451
0
LINE
8
BLACK
6
CONTINUOUS
10
63.9763
20
-104.451
11
63.9633
21
-104.458
0
LINE
8
BLACK
6
CONTINUOUS
10
63.9633
20
-104.458
11
63.9491
21
-104.463
0
LINE
8
BLACK
6
CONTINUOUS
10
63.9491
20
-104.463
11
63.9381
21
-104.464
0
LINE
8
BLACK
6
CONTINUOUS
10
63.9381
20
-104.464
11
63.9344
21
-104.464
0
LINE
8
BLACK
6
CONTINUOUS
10
63.9344
20
-104.464
11
63.9307
21
-104.464
0
LINE
8
BLACK
6
CONTINUOUS
10
63.9307
20
-104.464
11
50.1381
21
-104.464
0
LINE
8
BLACK
6
CONTINUOUS
10
50.1381
20
-104.464
11
50.1344
21
-104.464
0
LINE
8
BLACK
6
CONTINUOUS
10
50.1344
20
-104.464
11
50.1197
21
-104.463
0
LINE
8
BLACK
6
CONTINUOUS
10
50.1197
20
-104.463
11
50.1056
21
-104.458
0
LINE
8
BLACK
6
CONTINUOUS
10
50.1056
20
-104.458
11
50.0926
21
-104.451
0
LINE
8
BLACK
6
CONTINUOUS
10
50.0926
20
-104.451
11
50.0811
21
-104.442
0
LINE
8
BLACK
6
CONTINUOUS
10
50.0811
20
-104.442
11
50.0718
21
-104.431
0
LINE
8
BLACK
6
CONTINUOUS
10
50.0718
20
-104.431
11
50.0648
21
-104.417
0
LINE
8
BLACK
6
CONTINUOUS
10
50.0648
20
-104.417
11
50.0605
21
-104.403
0
LINE
8
BLACK
6
CONTINUOUS
10
50.0605
20
-104.403
11
50.0591
21
-104.389
0
LINE
8
BLACK
6
CONTINUOUS
10
50.0591
20
-104.389
11
50.0594
21
-104.385
0
LINE
8
BLACK
6
CONTINUOUS
10
50.0594
20
-104.385
11
50.0594
21
-90.5923
0
LINE
8
BLACK
6
CONTINUOUS
10
50.0594
20
-90.5923
11
50.0591
21
-90.5886
0
LINE
8
BLACK
6
CONTINUOUS
10
50.0591
20
-90.5886
11
50.0605
21
-90.5739
0
LINE
8
BLACK
6
CONTINUOUS
10
50.0605
20
-90.5739
11
50.0648
21
-90.5598
0
LINE
8
BLACK
6
CONTINUOUS
10
50.0648
20
-90.5598
11
50.0718
21
-90.5468
0
LINE
8
BLACK
6
CONTINUOUS
10
50.0718
20
-90.5468
11
50.0811
21
-90.5354
0
LINE
8
BLACK
6
CONTINUOUS
10
50.0811
20
-90.5354
11
50.0926
21
-90.526
0
LINE
8
BLACK
6
CONTINUOUS
10
50.0926
20
-90.526
11
50.1056
21
-90.519
0
LINE
8
BLACK
6
CONTINUOUS
10
50.1056
20
-90.519
11
50.1197
21
-90.5147
0
LINE
8
BLACK
6
CONTINUOUS
10
50.1197
20
-90.5147
11
50.1307
21
-90.5136
0
LINE
8
BLACK
6
CONTINUOUS
10
50.1307
20
-90.5136
11
50.1344
21
-90.5133
0
LINE
8
BLACK
6
CONTINUOUS
10
50.1344
20
-90.5133
11
50.1381
21
-90.5136
0
LINE
8
BLACK
6
CONTINUOUS
10
50.1381
20
-90.5136
11
63.9307
21
-90.5136
0
LINE
8
BLACK
6
CONTINUOUS
10
63.9307
20
-90.5136
11
63.9344
21
-90.5133
0
LINE
8
BLACK
6
CONTINUOUS
10
63.9344
20
-90.5133
11
63.9381
21
-90.5136
0
LINE
8
BLACK
6
CONTINUOUS
10
50.2094
20
-90.6636
11
50.2094
21
-104.314
0
LINE
8
BLACK
6
CONTINUOUS
10
50.2094
20
-104.314
11
63.8594
21
-104.314
0
LINE
8
BLACK
6
CONTINUOUS
10
63.8594
20
-104.314
11
63.8594
21
-90.6636
0
LINE
8
BLACK
6
CONTINUOUS
10
63.8594
20
-90.6636
11
50.2094
21
-90.6636
0
LINE
8
BLACK
6
CONTINUOUS
10
197.288
20
-85.7511
11
197.299
21
-85.7522
0
LINE
8
BLACK
6
CONTINUOUS
10
197.299
20
-85.7522
11
197.313
21
-85.7565
0
LINE
8
BLACK
6
CONTINUOUS
10
197.313
20
-85.7565
11
197.326
21
-85.7635
0
LINE
8
BLACK
6
CONTINUOUS
10
197.326
20
-85.7635
11
197.338
21
-85.7729
0
LINE
8
BLACK
6
CONTINUOUS
10
197.338
20
-85.7729
11
197.347
21
-85.7843
0
LINE
8
BLACK
6
CONTINUOUS
10
197.347
20
-85.7843
11
197.354
21
-85.7973
0
LINE
8
BLACK
6
CONTINUOUS
10
197.354
20
-85.7973
11
197.358
21
-85.8114
0
LINE
8
BLACK
6
CONTINUOUS
10
197.358
20
-85.8114
11
197.36
21
-85.8261
0
LINE
8
BLACK
6
CONTINUOUS
10
197.36
20
-85.8261
11
197.359
21
-85.8298
0
LINE
8
BLACK
6
CONTINUOUS
10
197.359
20
-85.8298
11
197.359
21
-99.6225
0
LINE
8
BLACK
6
CONTINUOUS
10
197.359
20
-99.6225
11
197.36
21
-99.6261
0
LINE
8
BLACK
6
CONTINUOUS
10
197.36
20
-99.6261
11
197.358
21
-99.6408
0
LINE
8
BLACK
6
CONTINUOUS
10
197.358
20
-99.6408
11
197.354
21
-99.655
0
LINE
8
BLACK
6
CONTINUOUS
10
197.354
20
-99.655
11
197.347
21
-99.668
0
LINE
8
BLACK
6
CONTINUOUS
10
197.347
20
-99.668
11
197.338
21
-99.6794
0
LINE
8
BLACK
6
CONTINUOUS
10
197.338
20
-99.6794
11
197.326
21
-99.6888
0
LINE
8
BLACK
6
CONTINUOUS
10
197.326
20
-99.6888
11
197.313
21
-99.6958
0
LINE
8
BLACK
6
CONTINUOUS
10
197.313
20
-99.6958
11
197.299
21
-99.7001
0
LINE
8
BLACK
6
CONTINUOUS
10
197.299
20
-99.7001
11
197.288
21
-99.7011
0
LINE
8
BLACK
6
CONTINUOUS
10
197.288
20
-99.7011
11
197.284
21
-99.7015
0
LINE
8
BLACK
6
CONTINUOUS
10
197.284
20
-99.7015
11
197.281
21
-99.7011
0
LINE
8
BLACK
6
CONTINUOUS
10
197.281
20
-99.7011
11
183.488
21
-99.7011
0
LINE
8
BLACK
6
CONTINUOUS
10
183.488
20
-99.7011
11
183.484
21
-99.7015
0
LINE
8
BLACK
6
CONTINUOUS
10
183.484
20
-99.7015
11
183.47
21
-99.7001
0
LINE
8
BLACK
6
CONTINUOUS
10
183.47
20
-99.7001
11
183.456
21
-99.6958
0
LINE
8
BLACK
6
CONTINUOUS
10
183.456
20
-99.6958
11
183.443
21
-99.6888
0
LINE
8
BLACK
6
CONTINUOUS
10
183.443
20
-99.6888
11
183.431
21
-99.6794
0
LINE
8
BLACK
6
CONTINUOUS
10
183.431
20
-99.6794
11
183.422
21
-99.668
0
LINE
8
BLACK
6
CONTINUOUS
10
183.422
20
-99.668
11
183.415
21
-99.655
0
LINE
8
BLACK
6
CONTINUOUS
10
183.415
20
-99.655
11
183.411
21
-99.6408
0
LINE
8
BLACK
6
CONTINUOUS
10
183.411
20
-99.6408
11
183.409
21
-99.6261
0
LINE
8
BLACK
6
CONTINUOUS
10
183.409
20
-99.6261
11
183.409
21
-99.6225
0
LINE
8
BLACK
6
CONTINUOUS
10
183.409
20
-99.6225
11
183.409
21
-85.8298
0
LINE
8
BLACK
6
CONTINUOUS
10
183.409
20
-85.8298
11
183.409
21
-85.8261
0
LINE
8
BLACK
6
CONTINUOUS
10
183.409
20
-85.8261
11
183.411
21
-85.8114
0
LINE
8
BLACK
6
CONTINUOUS
10
183.411
20
-85.8114
11
183.415
21
-85.7973
0
LINE
8
BLACK
6
CONTINUOUS
10
183.415
20
-85.7973
11
183.422
21
-85.7843
0
LINE
8
BLACK
6
CONTINUOUS
10
183.422
20
-85.7843
11
183.431
21
-85.7729
0
LINE
8
BLACK
6
CONTINUOUS
10
183.431
20
-85.7729
11
183.443
21
-85.7635
0
LINE
8
BLACK
6
CONTINUOUS
10
183.443
20
-85.7635
11
183.456
21
-85.7565
0
LINE
8
BLACK
6
CONTINUOUS
10
183.456
20
-85.7565
11
183.47
21
-85.7522
0
LINE
8
BLACK
6
CONTINUOUS
10
183.47
20
-85.7522
11
183.481
21
-85.7511
0
LINE
8
BLACK
6
CONTINUOUS
10
183.481
20
-85.7511
11
183.484
21
-85.7508
0
LINE
8
BLACK
6
CONTINUOUS
10
183.484
20
-85.7508
11
183.488
21
-85.7511
0
LINE
8
BLACK
6
CONTINUOUS
10
183.488
20
-85.7511
11
197.281
21
-85.7511
0
LINE
8
BLACK
6
CONTINUOUS
10
197.281
20
-85.7511
11
197.284
21
-85.7508
0
LINE
8
BLACK
6
CONTINUOUS
10
197.284
20
-85.7508
11
197.288
21
-85.7511
0
LINE
8
BLACK
6
CONTINUOUS
10
183.559
20
-85.9011
11
183.559
21
-99.5511
0
LINE
8
BLACK
6
CONTINUOUS
10
183.559
20
-99.5511
11
197.209
21
-99.5511
0
LINE
8
BLACK
6
CONTINUOUS
10
197.209
20
-99.5511
11
197.209
21
-85.9011
0
LINE
8
BLACK
6
CONTINUOUS
10
197.209
20
-85.9011
11
183.559
21
-85.9011
0
LINE
8
BLACK
6
CONTINUOUS
10
159.188
20
-80.9886
11
159.199
21
-80.9897
0
LINE
8
BLACK
6
CONTINUOUS
10
159.199
20
-80.9897
11
159.213
21
-80.994
0
LINE
8
BLACK
6
CONTINUOUS
10
159.213
20
-80.994
11
159.226
21
-81.001
0
LINE
8
BLACK
6
CONTINUOUS
10
159.226
20
-81.001
11
159.238
21
-81.0104
0
LINE
8
BLACK
6
CONTINUOUS
10
159.238
20
-81.0104
11
159.247
21
-81.0218
0
LINE
8
BLACK
6
CONTINUOUS
10
159.247
20
-81.0218
11
159.254
21
-81.0348
0
LINE
8
BLACK
6
CONTINUOUS
10
159.254
20
-81.0348
11
159.258
21
-81.0489
0
LINE
8
BLACK
6
CONTINUOUS
10
159.258
20
-81.0489
11
159.26
21
-81.0636
0
LINE
8
BLACK
6
CONTINUOUS
10
159.26
20
-81.0636
11
159.259
21
-81.0673
0
LINE
8
BLACK
6
CONTINUOUS
10
159.259
20
-81.0673
11
159.259
21
-94.86
0
LINE
8
BLACK
6
CONTINUOUS
10
159.259
20
-94.86
11
159.26
21
-94.8636
0
LINE
8
BLACK
6
CONTINUOUS
10
159.26
20
-94.8636
11
159.258
21
-94.8783
0
LINE
8
BLACK
6
CONTINUOUS
10
159.258
20
-94.8783
11
159.254
21
-94.8925
0
LINE
8
BLACK
6
CONTINUOUS
10
159.254
20
-94.8925
11
159.247
21
-94.9055
0
LINE
8
BLACK
6
CONTINUOUS
10
159.247
20
-94.9055
11
159.238
21
-94.9169
0
LINE
8
BLACK
6
CONTINUOUS
10
159.238
20
-94.9169
11
159.226
21
-94.9263
0
LINE
8
BLACK
6
CONTINUOUS
10
159.226
20
-94.9263
11
159.213
21
-94.9333
0
LINE
8
BLACK
6
CONTINUOUS
10
159.213
20
-94.9333
11
159.199
21
-94.9376
0
LINE
8
BLACK
6
CONTINUOUS
10
159.199
20
-94.9376
11
159.188
21
-94.9386
0
LINE
8
BLACK
6
CONTINUOUS
10
159.188
20
-94.9386
11
159.184
21
-94.939
0
LINE
8
BLACK
6
CONTINUOUS
10
159.184
20
-94.939
11
159.181
21
-94.9386
0
LINE
8
BLACK
6
CONTINUOUS
10
159.181
20
-94.9386
11
145.388
21
-94.9386
0
LINE
8
BLACK
6
CONTINUOUS
10
145.388
20
-94.9386
11
145.384
21
-94.939
0
LINE
8
BLACK
6
CONTINUOUS
10
145.384
20
-94.939
11
145.37
21
-94.9376
0
LINE
8
BLACK
6
CONTINUOUS
10
145.37
20
-94.9376
11
145.356
21
-94.9333
0
LINE
8
BLACK
6
CONTINUOUS
10
145.356
20
-94.9333
11
145.343
21
-94.9263
0
LINE
8
BLACK
6
CONTINUOUS
10
145.343
20
-94.9263
11
145.331
21
-94.9169
0
LINE
8
BLACK
6
CONTINUOUS
10
145.331
20
-94.9169
11
145.322
21
-94.9055
0
LINE
8
BLACK
6
CONTINUOUS
10
145.322
20
-94.9055
11
145.315
21
-94.8925
0
LINE
8
BLACK
6
CONTINUOUS
10
145.315
20
-94.8925
11
145.311
21
-94.8783
0
LINE
8
BLACK
6
CONTINUOUS
10
145.311
20
-94.8783
11
145.309
21
-94.8636
0
LINE
8
BLACK
6
CONTINUOUS
10
145.309
20
-94.8636
11
145.309
21
-94.86
0
LINE
8
BLACK
6
CONTINUOUS
10
145.309
20
-94.86
11
145.309
21
-81.0673
0
LINE
8
BLACK
6
CONTINUOUS
10
145.309
20
-81.0673
11
145.309
21
-81.0636
0
LINE
8
BLACK
6
CONTINUOUS
10
145.309
20
-81.0636
11
145.311
21
-81.0489
0
LINE
8
BLACK
6
CONTINUOUS
10
145.311
20
-81.0489
11
145.315
21
-81.0348
0
LINE
8
BLACK
6
CONTINUOUS
10
145.315
20
-81.0348
11
145.322
21
-81.0218
0
LINE
8
BLACK
6
CONTINUOUS
10
145.322
20
-81.0218
11
145.331
21
-81.0104
0
LINE
8
BLACK
6
CONTINUOUS
10
145.331
20
-81.0104
11
145.343
21
-81.001
0
LINE
8
BLACK
6
CONTINUOUS
10
145.343
20
-81.001
11
145.356
21
-80.994
0
LINE
8
BLACK
6
CONTINUOUS
10
145.356
20
-80.994
11
145.37
21
-80.9897
0
LINE
8
BLACK
6
CONTINUOUS
10
145.37
20
-80.9897
11
145.381
21
-80.9886
0
LINE
8
BLACK
6
CONTINUOUS
10
145.381
20
-80.9886
11
145.384
21
-80.9883
0
LINE
8
BLACK
6
CONTINUOUS
10
145.384
20
-80.9883
11
145.388
21
-80.9886
0
LINE
8
BLACK
6
CONTINUOUS
10
145.388
20
-80.9886
11
159.181
21
-80.9886
0
LINE
8
BLACK
6
CONTINUOUS
10
159.181
20
-80.9886
11
159.184
21
-80.9883
0
LINE
8
BLACK
6
CONTINUOUS
10
159.184
20
-80.9883
11
159.188
21
-80.9886
0
LINE
8
BLACK
6
CONTINUOUS
10
145.459
20
-81.1386
11
145.459
21
-94.7886
0
LINE
8
BLACK
6
CONTINUOUS
10
145.459
20
-94.7886
11
159.109
21
-94.7886
0
LINE
8
BLACK
6
CONTINUOUS
10
159.109
20
-94.7886
11
159.109
21
-81.1386
0
LINE
8
BLACK
6
CONTINUOUS
10
159.109
20
-81.1386
11
145.459
21
-81.1386
0
LINE
8
BLACK
6
CONTINUOUS
10
140.138
20
-80.9886
11
140.149
21
-80.9897
0
LINE
8
BLACK
6
CONTINUOUS
10
140.149
20
-80.9897
11
140.163
21
-80.994
0
LINE
8
BLACK
6
CONTINUOUS
10
140.163
20
-80.994
11
140.176
21
-81.001
0
LINE
8
BLACK
6
CONTINUOUS
10
140.176
20
-81.001
11
140.188
21
-81.0104
0
LINE
8
BLACK
6
CONTINUOUS
10
140.188
20
-81.0104
11
140.197
21
-81.0218
0
LINE
8
BLACK
6
CONTINUOUS
10
140.197
20
-81.0218
11
140.204
21
-81.0348
0
LINE
8
BLACK
6
CONTINUOUS
10
140.204
20
-81.0348
11
140.208
21
-81.0489
0
LINE
8
BLACK
6
CONTINUOUS
10
140.208
20
-81.0489
11
140.21
21
-81.0636
0
LINE
8
BLACK
6
CONTINUOUS
10
140.21
20
-81.0636
11
140.209
21
-81.0673
0
LINE
8
BLACK
6
CONTINUOUS
10
140.209
20
-81.0673
11
140.209
21
-94.86
0
LINE
8
BLACK
6
CONTINUOUS
10
140.209
20
-94.86
11
140.21
21
-94.8636
0
LINE
8
BLACK
6
CONTINUOUS
10
140.21
20
-94.8636
11
140.208
21
-94.8783
0
LINE
8
BLACK
6
CONTINUOUS
10
140.208
20
-94.8783
11
140.204
21
-94.8925
0
LINE
8
BLACK
6
CONTINUOUS
10
140.204
20
-94.8925
11
140.197
21
-94.9055
0
LINE
8
BLACK
6
CONTINUOUS
10
140.197
20
-94.9055
11
140.188
21
-94.9169
0
LINE
8
BLACK
6
CONTINUOUS
10
140.188
20
-94.9169
11
140.176
21
-94.9263
0
LINE
8
BLACK
6
CONTINUOUS
10
140.176
20
-94.9263
11
140.163
21
-94.9333
0
LINE
8
BLACK
6
CONTINUOUS
10
140.163
20
-94.9333
11
140.149
21
-94.9376
0
LINE
8
BLACK
6
CONTINUOUS
10
140.149
20
-94.9376
11
140.138
21
-94.9386
0
LINE
8
BLACK
6
CONTINUOUS
10
140.138
20
-94.9386
11
140.134
21
-94.939
0
LINE
8
BLACK
6
CONTINUOUS
10
140.134
20
-94.939
11
140.131
21
-94.9386
0
LINE
8
BLACK
6
CONTINUOUS
10
140.131
20
-94.9386
11
126.338
21
-94.9386
0
LINE
8
BLACK
6
CONTINUOUS
10
126.338
20
-94.9386
11
126.334
21
-94.939
0
LINE
8
BLACK
6
CONTINUOUS
10
126.334
20
-94.939
11
126.32
21
-94.9376
0
LINE
8
BLACK
6
CONTINUOUS
10
126.32
20
-94.9376
11
126.306
21
-94.9333
0
LINE
8
BLACK
6
CONTINUOUS
10
126.306
20
-94.9333
11
126.293
21
-94.9263
0
LINE
8
BLACK
6
CONTINUOUS
10
126.293
20
-94.9263
11
126.281
21
-94.9169
0
LINE
8
BLACK
6
CONTINUOUS
10
126.281
20
-94.9169
11
126.272
21
-94.9055
0
LINE
8
BLACK
6
CONTINUOUS
10
126.272
20
-94.9055
11
126.265
21
-94.8925
0
LINE
8
BLACK
6
CONTINUOUS
10
126.265
20
-94.8925
11
126.261
21
-94.8783
0
LINE
8
BLACK
6
CONTINUOUS
10
126.261
20
-94.8783
11
126.259
21
-94.8636
0
LINE
8
BLACK
6
CONTINUOUS
10
126.259
20
-94.8636
11
126.259
21
-94.86
0
LINE
8
BLACK
6
CONTINUOUS
10
126.259
20
-94.86
11
126.259
21
-81.0673
0
LINE
8
BLACK
6
CONTINUOUS
10
126.259
20
-81.0673
11
126.259
21
-81.0636
0
LINE
8
BLACK
6
CONTINUOUS
10
126.259
20
-81.0636
11
126.261
21
-81.0489
0
LINE
8
BLACK
6
CONTINUOUS
10
126.261
20
-81.0489
11
126.265
21
-81.0348
0
LINE
8
BLACK
6
CONTINUOUS
10
126.265
20
-81.0348
11
126.272
21
-81.0218
0
LINE
8
BLACK
6
CONTINUOUS
10
126.272
20
-81.0218
11
126.281
21
-81.0104
0
LINE
8
BLACK
6
CONTINUOUS
10
126.281
20
-81.0104
11
126.293
21
-81.001
0
LINE
8
BLACK
6
CONTINUOUS
10
126.293
20
-81.001
11
126.306
21
-80.994
0
LINE
8
BLACK
6
CONTINUOUS
10
126.306
20
-80.994
11
126.32
21
-80.9897
0
LINE
8
BLACK
6
CONTINUOUS
10
126.32
20
-80.9897
11
126.331
21
-80.9886
0
LINE
8
BLACK
6
CONTINUOUS
10
126.331
20
-80.9886
11
126.334
21
-80.9883
0
LINE
8
BLACK
6
CONTINUOUS
10
126.334
20
-80.9883
11
126.338
21
-80.9886
0
LINE
8
BLACK
6
CONTINUOUS
10
126.338
20
-80.9886
11
140.131
21
-80.9886
0
LINE
8
BLACK
6
CONTINUOUS
10
140.131
20
-80.9886
11
140.134
21
-80.9883
0
LINE
8
BLACK
6
CONTINUOUS
10
140.134
20
-80.9883
11
140.138
21
-80.9886
0
LINE
8
BLACK
6
CONTINUOUS
10
126.409
20
-81.1386
11
126.409
21
-94.7886
0
LINE
8
BLACK
6
CONTINUOUS
10
126.409
20
-94.7886
11
140.059
21
-94.7886
0
LINE
8
BLACK
6
CONTINUOUS
10
140.059
20
-94.7886
11
140.059
21
-81.1386
0
LINE
8
BLACK
6
CONTINUOUS
10
140.059
20
-81.1386
11
126.409
21
-81.1386
0
LINE
8
BLACK
6
CONTINUOUS
10
178.238
20
-80.9886
11
178.249
21
-80.9897
0
LINE
8
BLACK
6
CONTINUOUS
10
178.249
20
-80.9897
11
178.263
21
-80.994
0
LINE
8
BLACK
6
CONTINUOUS
10
178.263
20
-80.994
11
178.276
21
-81.001
0
LINE
8
BLACK
6
CONTINUOUS
10
178.276
20
-81.001
11
178.288
21
-81.0104
0
LINE
8
BLACK
6
CONTINUOUS
10
178.288
20
-81.0104
11
178.297
21
-81.0218
0
LINE
8
BLACK
6
CONTINUOUS
10
178.297
20
-81.0218
11
178.304
21
-81.0348
0
LINE
8
BLACK
6
CONTINUOUS
10
178.304
20
-81.0348
11
178.308
21
-81.0489
0
LINE
8
BLACK
6
CONTINUOUS
10
178.308
20
-81.0489
11
178.31
21
-81.0636
0
LINE
8
BLACK
6
CONTINUOUS
10
178.31
20
-81.0636
11
178.309
21
-81.0673
0
LINE
8
BLACK
6
CONTINUOUS
10
178.309
20
-81.0673
11
178.309
21
-94.86
0
LINE
8
BLACK
6
CONTINUOUS
10
178.309
20
-94.86
11
178.31
21
-94.8636
0
LINE
8
BLACK
6
CONTINUOUS
10
178.31
20
-94.8636
11
178.308
21
-94.8783
0
LINE
8
BLACK
6
CONTINUOUS
10
178.308
20
-94.8783
11
178.304
21
-94.8925
0
LINE
8
BLACK
6
CONTINUOUS
10
178.304
20
-94.8925
11
178.297
21
-94.9055
0
LINE
8
BLACK
6
CONTINUOUS
10
178.297
20
-94.9055
11
178.288
21
-94.9169
0
LINE
8
BLACK
6
CONTINUOUS
10
178.288
20
-94.9169
11
178.276
21
-94.9263
0
LINE
8
BLACK
6
CONTINUOUS
10
178.276
20
-94.9263
11
178.263
21
-94.9333
0
LINE
8
BLACK
6
CONTINUOUS
10
178.263
20
-94.9333
11
178.249
21
-94.9376
0
LINE
8
BLACK
6
CONTINUOUS
10
178.249
20
-94.9376
11
178.238
21
-94.9386
0
LINE
8
BLACK
6
CONTINUOUS
10
178.238
20
-94.9386
11
178.234
21
-94.939
0
LINE
8
BLACK
6
CONTINUOUS
10
178.234
20
-94.939
11
178.231
21
-94.9386
0
LINE
8
BLACK
6
CONTINUOUS
10
178.231
20
-94.9386
11
164.438
21
-94.9386
0
LINE
8
BLACK
6
CONTINUOUS
10
164.438
20
-94.9386
11
164.434
21
-94.939
0
LINE
8
BLACK
6
CONTINUOUS
10
164.434
20
-94.939
11
164.42
21
-94.9376
0
LINE
8
BLACK
6
CONTINUOUS
10
164.42
20
-94.9376
11
164.406
21
-94.9333
0
LINE
8
BLACK
6
CONTINUOUS
10
164.406
20
-94.9333
11
164.393
21
-94.9263
0
LINE
8
BLACK
6
CONTINUOUS
10
164.393
20
-94.9263
11
164.381
21
-94.9169
0
LINE
8
BLACK
6
CONTINUOUS
10
164.381
20
-94.9169
11
164.372
21
-94.9055
0
LINE
8
BLACK
6
CONTINUOUS
10
164.372
20
-94.9055
11
164.365
21
-94.8925
0
LINE
8
BLACK
6
CONTINUOUS
10
164.365
20
-94.8925
11
164.361
21
-94.8783
0
LINE
8
BLACK
6
CONTINUOUS
10
164.361
20
-94.8783
11
164.359
21
-94.8636
0
LINE
8
BLACK
6
CONTINUOUS
10
164.359
20
-94.8636
11
164.359
21
-94.86
0
LINE
8
BLACK
6
CONTINUOUS
10
164.359
20
-94.86
11
164.359
21
-81.0673
0
LINE
8
BLACK
6
CONTINUOUS
10
164.359
20
-81.0673
11
164.359
21
-81.0636
0
LINE
8
BLACK
6
CONTINUOUS
10
164.359
20
-81.0636
11
164.361
21
-81.0489
0
LINE
8
BLACK
6
CONTINUOUS
10
164.361
20
-81.0489
11
164.365
21
-81.0348
0
LINE
8
BLACK
6
CONTINUOUS
10
164.365
20
-81.0348
11
164.372
21
-81.0218
0
LINE
8
BLACK
6
CONTINUOUS
10
164.372
20
-81.0218
11
164.381
21
-81.0104
0
LINE
8
BLACK
6
CONTINUOUS
10
164.381
20
-81.0104
11
164.393
21
-81.001
0
LINE
8
BLACK
6
CONTINUOUS
10
164.393
20
-81.001
11
164.406
21
-80.994
0
LINE
8
BLACK
6
CONTINUOUS
10
164.406
20
-80.994
11
164.42
21
-80.9897
0
LINE
8
BLACK
6
CONTINUOUS
10
164.42
20
-80.9897
11
164.431
21
-80.9886
0
LINE
8
BLACK
6
CONTINUOUS
10
164.431
20
-80.9886
11
164.434
21
-80.9883
0
LINE
8
BLACK
6
CONTINUOUS
10
164.434
20
-80.9883
11
164.438
21
-80.9886
0
LINE
8
BLACK
6
CONTINUOUS
10
164.438
20
-80.9886
11
178.231
21
-80.9886
0
LINE
8
BLACK
6
CONTINUOUS
10
178.231
20
-80.9886
11
178.234
21
-80.9883
0
LINE
8
BLACK
6
CONTINUOUS
10
178.234
20
-80.9883
11
178.238
21
-80.9886
0
LINE
8
BLACK
6
CONTINUOUS
10
164.509
20
-81.1386
11
164.509
21
-94.7886
0
LINE
8
BLACK
6
CONTINUOUS
10
164.509
20
-94.7886
11
178.159
21
-94.7886
0
LINE
8
BLACK
6
CONTINUOUS
10
178.159
20
-94.7886
11
178.159
21
-81.1386
0
LINE
8
BLACK
6
CONTINUOUS
10
178.159
20
-81.1386
11
164.509
21
-81.1386
0
LINE
8
BLACK
6
CONTINUOUS
10
121.088
20
-80.9886
11
121.099
21
-80.9897
0
LINE
8
BLACK
6
CONTINUOUS
10
121.099
20
-80.9897
11
121.113
21
-80.994
0
LINE
8
BLACK
6
CONTINUOUS
10
121.113
20
-80.994
11
121.126
21
-81.001
0
LINE
8
BLACK
6
CONTINUOUS
10
121.126
20
-81.001
11
121.138
21
-81.0104
0
LINE
8
BLACK
6
CONTINUOUS
10
121.138
20
-81.0104
11
121.147
21
-81.0218
0
LINE
8
BLACK
6
CONTINUOUS
10
121.147
20
-81.0218
11
121.154
21
-81.0348
0
LINE
8
BLACK
6
CONTINUOUS
10
121.154
20
-81.0348
11
121.158
21
-81.0489
0
LINE
8
BLACK
6
CONTINUOUS
10
121.158
20
-81.0489
11
121.16
21
-81.0636
0
LINE
8
BLACK
6
CONTINUOUS
10
121.16
20
-81.0636
11
121.159
21
-81.0673
0
LINE
8
BLACK
6
CONTINUOUS
10
121.159
20
-81.0673
11
121.159
21
-94.86
0
LINE
8
BLACK
6
CONTINUOUS
10
121.159
20
-94.86
11
121.16
21
-94.8636
0
LINE
8
BLACK
6
CONTINUOUS
10
121.16
20
-94.8636
11
121.158
21
-94.8783
0
LINE
8
BLACK
6
CONTINUOUS
10
121.158
20
-94.8783
11
121.154
21
-94.8925
0
LINE
8
BLACK
6
CONTINUOUS
10
121.154
20
-94.8925
11
121.147
21
-94.9055
0
LINE
8
BLACK
6
CONTINUOUS
10
121.147
20
-94.9055
11
121.138
21
-94.9169
0
LINE
8
BLACK
6
CONTINUOUS
10
121.138
20
-94.9169
11
121.126
21
-94.9263
0
LINE
8
BLACK
6
CONTINUOUS
10
121.126
20
-94.9263
11
121.113
21
-94.9333
0
LINE
8
BLACK
6
CONTINUOUS
10
121.113
20
-94.9333
11
121.099
21
-94.9376
0
LINE
8
BLACK
6
CONTINUOUS
10
121.099
20
-94.9376
11
121.088
21
-94.9386
0
LINE
8
BLACK
6
CONTINUOUS
10
121.088
20
-94.9386
11
121.084
21
-94.939
0
LINE
8
BLACK
6
CONTINUOUS
10
121.084
20
-94.939
11
121.081
21
-94.9386
0
LINE
8
BLACK
6
CONTINUOUS
10
121.081
20
-94.9386
11
107.288
21
-94.9386
0
LINE
8
BLACK
6
CONTINUOUS
10
107.288
20
-94.9386
11
107.284
21
-94.939
0
LINE
8
BLACK
6
CONTINUOUS
10
107.284
20
-94.939
11
107.27
21
-94.9376
0
LINE
8
BLACK
6
CONTINUOUS
10
107.27
20
-94.9376
11
107.256
21
-94.9333
0
LINE
8
BLACK
6
CONTINUOUS
10
107.256
20
-94.9333
11
107.243
21
-94.9263
0
LINE
8
BLACK
6
CONTINUOUS
10
107.243
20
-94.9263
11
107.231
21
-94.9169
0
LINE
8
BLACK
6
CONTINUOUS
10
107.231
20
-94.9169
11
107.222
21
-94.9055
0
LINE
8
BLACK
6
CONTINUOUS
10
107.222
20
-94.9055
11
107.215
21
-94.8925
0
LINE
8
BLACK
6
CONTINUOUS
10
107.215
20
-94.8925
11
107.211
21
-94.8783
0
LINE
8
BLACK
6
CONTINUOUS
10
107.211
20
-94.8783
11
107.209
21
-94.8636
0
LINE
8
BLACK
6
CONTINUOUS
10
107.209
20
-94.8636
11
107.209
21
-94.86
0
LINE
8
BLACK
6
CONTINUOUS
10
107.209
20
-94.86
11
107.209
21
-81.0673
0
LINE
8
BLACK
6
CONTINUOUS
10
107.209
20
-81.0673
11
107.209
21
-81.0636
0
LINE
8
BLACK
6
CONTINUOUS
10
107.209
20
-81.0636
11
107.211
21
-81.0489
0
LINE
8
BLACK
6
CONTINUOUS
10
107.211
20
-81.0489
11
107.215
21
-81.0348
0
LINE
8
BLACK
6
CONTINUOUS
10
107.215
20
-81.0348
11
107.222
21
-81.0218
0
LINE
8
BLACK
6
CONTINUOUS
10
107.222
20
-81.0218
11
107.231
21
-81.0104
0
LINE
8
BLACK
6
CONTINUOUS
10
107.231
20
-81.0104
11
107.243
21
-81.001
0
LINE
8
BLACK
6
CONTINUOUS
10
107.243
20
-81.001
11
107.256
21
-80.994
0
LINE
8
BLACK
6
CONTINUOUS
10
107.256
20
-80.994
11
107.27
21
-80.9897
0
LINE
8
BLACK
6
CONTINUOUS
10
107.27
20
-80.9897
11
107.281
21
-80.9886
0
LINE
8
BLACK
6
CONTINUOUS
10
107.281
20
-80.9886
11
107.284
21
-80.9883
0
LINE
8
BLACK
6
CONTINUOUS
10
107.284
20
-80.9883
11
107.288
21
-80.9886
0
LINE
8
BLACK
6
CONTINUOUS
10
107.288
20
-80.9886
11
121.081
21
-80.9886
0
LINE
8
BLACK
6
CONTINUOUS
10
121.081
20
-80.9886
11
121.084
21
-80.9883
0
LINE
8
BLACK
6
CONTINUOUS
10
121.084
20
-80.9883
11
121.088
21
-80.9886
0
LINE
8
BLACK
6
CONTINUOUS
10
107.359
20
-81.1386
11
107.359
21
-94.7886
0
LINE
8
BLACK
6
CONTINUOUS
10
107.359
20
-94.7886
11
121.009
21
-94.7886
0
LINE
8
BLACK
6
CONTINUOUS
10
121.009
20
-94.7886
11
121.009
21
-81.1386
0
LINE
8
BLACK
6
CONTINUOUS
10
121.009
20
-81.1386
11
107.359
21
-81.1386
0
LINE
8
BLACK
6
CONTINUOUS
10
102.038
20
-80.9886
11
102.049
21
-80.9897
0
LINE
8
BLACK
6
CONTINUOUS
10
102.049
20
-80.9897
11
102.063
21
-80.994
0
LINE
8
BLACK
6
CONTINUOUS
10
102.063
20
-80.994
11
102.076
21
-81.001
0
LINE
8
BLACK
6
CONTINUOUS
10
102.076
20
-81.001
11
102.088
21
-81.0104
0
LINE
8
BLACK
6
CONTINUOUS
10
102.088
20
-81.0104
11
102.097
21
-81.0218
0
LINE
8
BLACK
6
CONTINUOUS
10
102.097
20
-81.0218
11
102.104
21
-81.0348
0
LINE
8
BLACK
6
CONTINUOUS
10
102.104
20
-81.0348
11
102.108
21
-81.0489
0
LINE
8
BLACK
6
CONTINUOUS
10
102.108
20
-81.0489
11
102.11
21
-81.0636
0
LINE
8
BLACK
6
CONTINUOUS
10
102.11
20
-81.0636
11
102.109
21
-81.0673
0
LINE
8
BLACK
6
CONTINUOUS
10
102.109
20
-81.0673
11
102.109
21
-94.86
0
LINE
8
BLACK
6
CONTINUOUS
10
102.109
20
-94.86
11
102.11
21
-94.8636
0
LINE
8
BLACK
6
CONTINUOUS
10
102.11
20
-94.8636
11
102.108
21
-94.8783
0
LINE
8
BLACK
6
CONTINUOUS
10
102.108
20
-94.8783
11
102.104
21
-94.8925
0
LINE
8
BLACK
6
CONTINUOUS
10
102.104
20
-94.8925
11
102.097
21
-94.9055
0
LINE
8
BLACK
6
CONTINUOUS
10
102.097
20
-94.9055
11
102.088
21
-94.9169
0
LINE
8
BLACK
6
CONTINUOUS
10
102.088
20
-94.9169
11
102.076
21
-94.9263
0
LINE
8
BLACK
6
CONTINUOUS
10
102.076
20
-94.9263
11
102.063
21
-94.9333
0
LINE
8
BLACK
6
CONTINUOUS
10
102.063
20
-94.9333
11
102.049
21
-94.9376
0
LINE
8
BLACK
6
CONTINUOUS
10
102.049
20
-94.9376
11
102.038
21
-94.9386
0
LINE
8
BLACK
6
CONTINUOUS
10
102.038
20
-94.9386
11
102.034
21
-94.939
0
LINE
8
BLACK
6
CONTINUOUS
10
102.034
20
-94.939
11
102.031
21
-94.9386
0
LINE
8
BLACK
6
CONTINUOUS
10
102.031
20
-94.9386
11
88.2381
21
-94.9386
0
LINE
8
BLACK
6
CONTINUOUS
10
88.2381
20
-94.9386
11
88.2344
21
-94.939
0
LINE
8
BLACK
6
CONTINUOUS
10
88.2344
20
-94.939
11
88.2197
21
-94.9376
0
LINE
8
BLACK
6
CONTINUOUS
10
88.2197
20
-94.9376
11
88.2056
21
-94.9333
0
LINE
8
BLACK
6
CONTINUOUS
10
88.2056
20
-94.9333
11
88.1926
21
-94.9263
0
LINE
8
BLACK
6
CONTINUOUS
10
88.1926
20
-94.9263
11
88.1811
21
-94.9169
0
LINE
8
BLACK
6
CONTINUOUS
10
88.1811
20
-94.9169
11
88.1718
21
-94.9055
0
LINE
8
BLACK
6
CONTINUOUS
10
88.1718
20
-94.9055
11
88.1648
21
-94.8925
0
LINE
8
BLACK
6
CONTINUOUS
10
88.1648
20
-94.8925
11
88.1605
21
-94.8783
0
LINE
8
BLACK
6
CONTINUOUS
10
88.1605
20
-94.8783
11
88.1591
21
-94.8636
0
LINE
8
BLACK
6
CONTINUOUS
10
88.1591
20
-94.8636
11
88.1594
21
-94.86
0
LINE
8
BLACK
6
CONTINUOUS
10
88.1594
20
-94.86
11
88.1594
21
-81.0673
0
LINE
8
BLACK
6
CONTINUOUS
10
88.1594
20
-81.0673
11
88.1591
21
-81.0636
0
LINE
8
BLACK
6
CONTINUOUS
10
88.1591
20
-81.0636
11
88.1605
21
-81.0489
0
LINE
8
BLACK
6
CONTINUOUS
10
88.1605
20
-81.0489
11
88.1648
21
-81.0348
0
LINE
8
BLACK
6
CONTINUOUS
10
88.1648
20
-81.0348
11
88.1718
21
-81.0218
0
LINE
8
BLACK
6
CONTINUOUS
10
88.1718
20
-81.0218
11
88.1811
21
-81.0104
0
LINE
8
BLACK
6
CONTINUOUS
10
88.1811
20
-81.0104
11
88.1926
21
-81.001
0
LINE
8
BLACK
6
CONTINUOUS
10
88.1926
20
-81.001
11
88.2056
21
-80.994
0
LINE
8
BLACK
6
CONTINUOUS
10
88.2056
20
-80.994
11
88.2197
21
-80.9897
0
LINE
8
BLACK
6
CONTINUOUS
10
88.2197
20
-80.9897
11
88.2307
21
-80.9886
0
LINE
8
BLACK
6
CONTINUOUS
10
88.2307
20
-80.9886
11
88.2344
21
-80.9883
0
LINE
8
BLACK
6
CONTINUOUS
10
88.2344
20
-80.9883
11
88.2381
21
-80.9886
0
LINE
8
BLACK
6
CONTINUOUS
10
88.2381
20
-80.9886
11
102.031
21
-80.9886
0
LINE
8
BLACK
6
CONTINUOUS
10
102.031
20
-80.9886
11
102.034
21
-80.9883
0
LINE
8
BLACK
6
CONTINUOUS
10
102.034
20
-80.9883
11
102.038
21
-80.9886
0
LINE
8
BLACK
6
CONTINUOUS
10
88.3094
20
-81.1386
11
88.3094
21
-94.7886
0
LINE
8
BLACK
6
CONTINUOUS
10
88.3094
20
-94.7886
11
101.959
21
-94.7886
0
LINE
8
BLACK
6
CONTINUOUS
10
101.959
20
-94.7886
11
101.959
21
-81.1386
0
LINE
8
BLACK
6
CONTINUOUS
10
101.959
20
-81.1386
11
88.3094
21
-81.1386
0
LINE
8
BLACK
6
CONTINUOUS
10
82.9881
20
-80.9886
11
82.9991
21
-80.9897
0
LINE
8
BLACK
6
CONTINUOUS
10
82.9991
20
-80.9897
11
83.0133
21
-80.994
0
LINE
8
BLACK
6
CONTINUOUS
10
83.0133
20
-80.994
11
83.0263
21
-81.001
0
LINE
8
BLACK
6
CONTINUOUS
10
83.0263
20
-81.001
11
83.0377
21
-81.0104
0
LINE
8
BLACK
6
CONTINUOUS
10
83.0377
20
-81.0104
11
83.0471
21
-81.0218
0
LINE
8
BLACK
6
CONTINUOUS
10
83.0471
20
-81.0218
11
83.054
21
-81.0348
0
LINE
8
BLACK
6
CONTINUOUS
10
83.054
20
-81.0348
11
83.0583
21
-81.0489
0
LINE
8
BLACK
6
CONTINUOUS
10
83.0583
20
-81.0489
11
83.0598
21
-81.0636
0
LINE
8
BLACK
6
CONTINUOUS
10
83.0598
20
-81.0636
11
83.0594
21
-81.0673
0
LINE
8
BLACK
6
CONTINUOUS
10
83.0594
20
-81.0673
11
83.0594
21
-94.86
0
LINE
8
BLACK
6
CONTINUOUS
10
83.0594
20
-94.86
11
83.0598
21
-94.8636
0
LINE
8
BLACK
6
CONTINUOUS
10
83.0598
20
-94.8636
11
83.0583
21
-94.8783
0
LINE
8
BLACK
6
CONTINUOUS
10
83.0583
20
-94.8783
11
83.054
21
-94.8925
0
LINE
8
BLACK
6
CONTINUOUS
10
83.054
20
-94.8925
11
83.0471
21
-94.9055
0
LINE
8
BLACK
6
CONTINUOUS
10
83.0471
20
-94.9055
11
83.0377
21
-94.9169
0
LINE
8
BLACK
6
CONTINUOUS
10
83.0377
20
-94.9169
11
83.0263
21
-94.9263
0
LINE
8
BLACK
6
CONTINUOUS
10
83.0263
20
-94.9263
11
83.0133
21
-94.9333
0
LINE
8
BLACK
6
CONTINUOUS
10
83.0133
20
-94.9333
11
82.9991
21
-94.9376
0
LINE
8
BLACK
6
CONTINUOUS
10
82.9991
20
-94.9376
11
82.9881
21
-94.9386
0
LINE
8
BLACK
6
CONTINUOUS
10
82.9881
20
-94.9386
11
82.9844
21
-94.939
0
LINE
8
BLACK
6
CONTINUOUS
10
82.9844
20
-94.939
11
82.9807
21
-94.9386
0
LINE
8
BLACK
6
CONTINUOUS
10
82.9807
20
-94.9386
11
69.1881
21
-94.9386
0
LINE
8
BLACK
6
CONTINUOUS
10
69.1881
20
-94.9386
11
69.1844
21
-94.939
0
LINE
8
BLACK
6
CONTINUOUS
10
69.1844
20
-94.939
11
69.1697
21
-94.9376
0
LINE
8
BLACK
6
CONTINUOUS
10
69.1697
20
-94.9376
11
69.1556
21
-94.9333
0
LINE
8
BLACK
6
CONTINUOUS
10
69.1556
20
-94.9333
11
69.1426
21
-94.9263
0
LINE
8
BLACK
6
CONTINUOUS
10
69.1426
20
-94.9263
11
69.1311
21
-94.9169
0
LINE
8
BLACK
6
CONTINUOUS
10
69.1311
20
-94.9169
11
69.1218
21
-94.9055
0
LINE
8
BLACK
6
CONTINUOUS
10
69.1218
20
-94.9055
11
69.1148
21
-94.8925
0
LINE
8
BLACK
6
CONTINUOUS
10
69.1148
20
-94.8925
11
69.1105
21
-94.8783
0
LINE
8
BLACK
6
CONTINUOUS
10
69.1105
20
-94.8783
11
69.1091
21
-94.8636
0
LINE
8
BLACK
6
CONTINUOUS
10
69.1091
20
-94.8636
11
69.1094
21
-94.86
0
LINE
8
BLACK
6
CONTINUOUS
10
69.1094
20
-94.86
11
69.1094
21
-81.0673
0
LINE
8
BLACK
6
CONTINUOUS
10
69.1094
20
-81.0673
11
69.1091
21
-81.0636
0
LINE
8
BLACK
6
CONTINUOUS
10
69.1091
20
-81.0636
11
69.1105
21
-81.0489
0
LINE
8
BLACK
6
CONTINUOUS
10
69.1105
20
-81.0489
11
69.1148
21
-81.0348
0
LINE
8
BLACK
6
CONTINUOUS
10
69.1148
20
-81.0348
11
69.1218
21
-81.0218
0
LINE
8
BLACK
6
CONTINUOUS
10
69.1218
20
-81.0218
11
69.1311
21
-81.0104
0
LINE
8
BLACK
6
CONTINUOUS
10
69.1311
20
-81.0104
11
69.1426
21
-81.001
0
LINE
8
BLACK
6
CONTINUOUS
10
69.1426
20
-81.001
11
69.1556
21
-80.994
0
LINE
8
BLACK
6
CONTINUOUS
10
69.1556
20
-80.994
11
69.1697
21
-80.9897
0
LINE
8
BLACK
6
CONTINUOUS
10
69.1697
20
-80.9897
11
69.1807
21
-80.9886
0
LINE
8
BLACK
6
CONTINUOUS
10
69.1807
20
-80.9886
11
69.1844
21
-80.9883
0
LINE
8
BLACK
6
CONTINUOUS
10
69.1844
20
-80.9883
11
69.1881
21
-80.9886
0
LINE
8
BLACK
6
CONTINUOUS
10
69.1881
20
-80.9886
11
82.9807
21
-80.9886
0
LINE
8
BLACK
6
CONTINUOUS
10
82.9807
20
-80.9886
11
82.9844
21
-80.9883
0
LINE
8
BLACK
6
CONTINUOUS
10
82.9844
20
-80.9883
11
82.9881
21
-80.9886
0
LINE
8
BLACK
6
CONTINUOUS
10
69.2594
20
-81.1386
11
69.2594
21
-94.7886
0
LINE
8
BLACK
6
CONTINUOUS
10
69.2594
20
-94.7886
11
82.9094
21
-94.7886
0
LINE
8
BLACK
6
CONTINUOUS
10
82.9094
20
-94.7886
11
82.9094
21
-81.1386
0
LINE
8
BLACK
6
CONTINUOUS
10
82.9094
20
-81.1386
11
69.2594
21
-81.1386
0
LINE
8
BLACK
6
CONTINUOUS
10
197.288
20
-66.7011
11
197.299
21
-66.7022
0
LINE
8
BLACK
6
CONTINUOUS
10
197.299
20
-66.7022
11
197.313
21
-66.7065
0
LINE
8
BLACK
6
CONTINUOUS
10
197.313
20
-66.7065
11
197.326
21
-66.7135
0
LINE
8
BLACK
6
CONTINUOUS
10
197.326
20
-66.7135
11
197.338
21
-66.7229
0
LINE
8
BLACK
6
CONTINUOUS
10
197.338
20
-66.7229
11
197.347
21
-66.7343
0
LINE
8
BLACK
6
CONTINUOUS
10
197.347
20
-66.7343
11
197.354
21
-66.7473
0
LINE
8
BLACK
6
CONTINUOUS
10
197.354
20
-66.7473
11
197.358
21
-66.7614
0
LINE
8
BLACK
6
CONTINUOUS
10
197.358
20
-66.7614
11
197.36
21
-66.7761
0
LINE
8
BLACK
6
CONTINUOUS
10
197.36
20
-66.7761
11
197.359
21
-66.7798
0
LINE
8
BLACK
6
CONTINUOUS
10
197.359
20
-66.7798
11
197.359
21
-80.5725
0
LINE
8
BLACK
6
CONTINUOUS
10
197.359
20
-80.5725
11
197.36
21
-80.5761
0
LINE
8
BLACK
6
CONTINUOUS
10
197.36
20
-80.5761
11
197.358
21
-80.5908
0
LINE
8
BLACK
6
CONTINUOUS
10
197.358
20
-80.5908
11
197.354
21
-80.605
0
LINE
8
BLACK
6
CONTINUOUS
10
197.354
20
-80.605
11
197.347
21
-80.618
0
LINE
8
BLACK
6
CONTINUOUS
10
197.347
20
-80.618
11
197.338
21
-80.6294
0
LINE
8
BLACK
6
CONTINUOUS
10
197.338
20
-80.6294
11
197.326
21
-80.6388
0
LINE
8
BLACK
6
CONTINUOUS
10
197.326
20
-80.6388
11
197.313
21
-80.6458
0
LINE
8
BLACK
6
CONTINUOUS
10
197.313
20
-80.6458
11
197.299
21
-80.6501
0
LINE
8
BLACK
6
CONTINUOUS
10
197.299
20
-80.6501
11
197.288
21
-80.6511
0
LINE
8
BLACK
6
CONTINUOUS
10
197.288
20
-80.6511
11
197.284
21
-80.6515
0
LINE
8
BLACK
6
CONTINUOUS
10
197.284
20
-80.6515
11
197.281
21
-80.6511
0
LINE
8
BLACK
6
CONTINUOUS
10
197.281
20
-80.6511
11
183.488
21
-80.6511
0
LINE
8
BLACK
6
CONTINUOUS
10
183.488
20
-80.6511
11
183.484
21
-80.6515
0
LINE
8
BLACK
6
CONTINUOUS
10
183.484
20
-80.6515
11
183.47
21
-80.6501
0
LINE
8
BLACK
6
CONTINUOUS
10
183.47
20
-80.6501
11
183.456
21
-80.6458
0
LINE
8
BLACK
6
CONTINUOUS
10
183.456
20
-80.6458
11
183.443
21
-80.6388
0
LINE
8
BLACK
6
CONTINUOUS
10
183.443
20
-80.6388
11
183.431
21
-80.6294
0
LINE
8
BLACK
6
CONTINUOUS
10
183.431
20
-80.6294
11
183.422
21
-80.618
0
LINE
8
BLACK
6
CONTINUOUS
10
183.422
20
-80.618
11
183.415
21
-80.605
0
LINE
8
BLACK
6
CONTINUOUS
10
183.415
20
-80.605
11
183.411
21
-80.5908
0
LINE
8
BLACK
6
CONTINUOUS
10
183.411
20
-80.5908
11
183.409
21
-80.5761
0
LINE
8
BLACK
6
CONTINUOUS
10
183.409
20
-80.5761
11
183.409
21
-80.5725
0
LINE
8
BLACK
6
CONTINUOUS
10
183.409
20
-80.5725
11
183.409
21
-66.7798
0
LINE
8
BLACK
6
CONTINUOUS
10
183.409
20
-66.7798
11
183.409
21
-66.7761
0
LINE
8
BLACK
6
CONTINUOUS
10
183.409
20
-66.7761
11
183.411
21
-66.7614
0
LINE
8
BLACK
6
CONTINUOUS
10
183.411
20
-66.7614
11
183.415
21
-66.7473
0
LINE
8
BLACK
6
CONTINUOUS
10
183.415
20
-66.7473
11
183.422
21
-66.7343
0
LINE
8
BLACK
6
CONTINUOUS
10
183.422
20
-66.7343
11
183.431
21
-66.7229
0
LINE
8
BLACK
6
CONTINUOUS
10
183.431
20
-66.7229
11
183.443
21
-66.7135
0
LINE
8
BLACK
6
CONTINUOUS
10
183.443
20
-66.7135
11
183.456
21
-66.7065
0
LINE
8
BLACK
6
CONTINUOUS
10
183.456
20
-66.7065
11
183.47
21
-66.7022
0
LINE
8
BLACK
6
CONTINUOUS
10
183.47
20
-66.7022
11
183.481
21
-66.7011
0
LINE
8
BLACK
6
CONTINUOUS
10
183.481
20
-66.7011
11
183.484
21
-66.7008
0
LINE
8
BLACK
6
CONTINUOUS
10
183.484
20
-66.7008
11
183.488
21
-66.7011
0
LINE
8
BLACK
6
CONTINUOUS
10
183.488
20
-66.7011
11
197.281
21
-66.7011
0
LINE
8
BLACK
6
CONTINUOUS
10
197.281
20
-66.7011
11
197.284
21
-66.7008
0
LINE
8
BLACK
6
CONTINUOUS
10
197.284
20
-66.7008
11
197.288
21
-66.7011
0
LINE
8
BLACK
6
CONTINUOUS
10
183.559
20
-66.8511
11
183.559
21
-80.5011
0
LINE
8
BLACK
6
CONTINUOUS
10
183.559
20
-80.5011
11
197.209
21
-80.5011
0
LINE
8
BLACK
6
CONTINUOUS
10
197.209
20
-80.5011
11
197.209
21
-66.8511
0
LINE
8
BLACK
6
CONTINUOUS
10
197.209
20
-66.8511
11
183.559
21
-66.8511
0
LINE
8
BLACK
6
CONTINUOUS
10
82.9881
20
-61.9386
11
82.9991
21
-61.9397
0
LINE
8
BLACK
6
CONTINUOUS
10
82.9991
20
-61.9397
11
83.0133
21
-61.944
0
LINE
8
BLACK
6
CONTINUOUS
10
83.0133
20
-61.944
11
83.0263
21
-61.951
0
LINE
8
BLACK
6
CONTINUOUS
10
83.0263
20
-61.951
11
83.0377
21
-61.9604
0
LINE
8
BLACK
6
CONTINUOUS
10
83.0377
20
-61.9604
11
83.0471
21
-61.9718
0
LINE
8
BLACK
6
CONTINUOUS
10
83.0471
20
-61.9718
11
83.054
21
-61.9848
0
LINE
8
BLACK
6
CONTINUOUS
10
83.054
20
-61.9848
11
83.0583
21
-61.9989
0
LINE
8
BLACK
6
CONTINUOUS
10
83.0583
20
-61.9989
11
83.0598
21
-62.0136
0
LINE
8
BLACK
6
CONTINUOUS
10
83.0598
20
-62.0136
11
83.0594
21
-62.0173
0
LINE
8
BLACK
6
CONTINUOUS
10
83.0594
20
-62.0173
11
83.0594
21
-75.81
0
LINE
8
BLACK
6
CONTINUOUS
10
83.0594
20
-75.81
11
83.0598
21
-75.8136
0
LINE
8
BLACK
6
CONTINUOUS
10
83.0598
20
-75.8136
11
83.0583
21
-75.8283
0
LINE
8
BLACK
6
CONTINUOUS
10
83.0583
20
-75.8283
11
83.054
21
-75.8425
0
LINE
8
BLACK
6
CONTINUOUS
10
83.054
20
-75.8425
11
83.0471
21
-75.8555
0
LINE
8
BLACK
6
CONTINUOUS
10
83.0471
20
-75.8555
11
83.0377
21
-75.8669
0
LINE
8
BLACK
6
CONTINUOUS
10
83.0377
20
-75.8669
11
83.0263
21
-75.8763
0
LINE
8
BLACK
6
CONTINUOUS
10
83.0263
20
-75.8763
11
83.0133
21
-75.8833
0
LINE
8
BLACK
6
CONTINUOUS
10
83.0133
20
-75.8833
11
82.9991
21
-75.8876
0
LINE
8
BLACK
6
CONTINUOUS
10
82.9991
20
-75.8876
11
82.9881
21
-75.8886
0
LINE
8
BLACK
6
CONTINUOUS
10
82.9881
20
-75.8886
11
82.9844
21
-75.889
0
LINE
8
BLACK
6
CONTINUOUS
10
82.9844
20
-75.889
11
82.9807
21
-75.8886
0
LINE
8
BLACK
6
CONTINUOUS
10
82.9807
20
-75.8886
11
69.1881
21
-75.8886
0
LINE
8
BLACK
6
CONTINUOUS
10
69.1881
20
-75.8886
11
69.1844
21
-75.889
0
LINE
8
BLACK
6
CONTINUOUS
10
69.1844
20
-75.889
11
69.1697
21
-75.8876
0
LINE
8
BLACK
6
CONTINUOUS
10
69.1697
20
-75.8876
11
69.1556
21
-75.8833
0
LINE
8
BLACK
6
CONTINUOUS
10
69.1556
20
-75.8833
11
69.1426
21
-75.8763
0
LINE
8
BLACK
6
CONTINUOUS
10
69.1426
20
-75.8763
11
69.1311
21
-75.8669
0
LINE
8
BLACK
6
CONTINUOUS
10
69.1311
20
-75.8669
11
69.1218
21
-75.8555
0
LINE
8
BLACK
6
CONTINUOUS
10
69.1218
20
-75.8555
11
69.1148
21
-75.8425
0
LINE
8
BLACK
6
CONTINUOUS
10
69.1148
20
-75.8425
11
69.1105
21
-75.8283
0
LINE
8
BLACK
6
CONTINUOUS
10
69.1105
20
-75.8283
11
69.1091
21
-75.8136
0
LINE
8
BLACK
6
CONTINUOUS
10
69.1091
20
-75.8136
11
69.1094
21
-75.81
0
LINE
8
BLACK
6
CONTINUOUS
10
69.1094
20
-75.81
11
69.1094
21
-62.0173
0
LINE
8
BLACK
6
CONTINUOUS
10
69.1094
20
-62.0173
11
69.1091
21
-62.0136
0
LINE
8
BLACK
6
CONTINUOUS
10
69.1091
20
-62.0136
11
69.1105
21
-61.9989
0
LINE
8
BLACK
6
CONTINUOUS
10
69.1105
20
-61.9989
11
69.1148
21
-61.9848
0
LINE
8
BLACK
6
CONTINUOUS
10
69.1148
20
-61.9848
11
69.1218
21
-61.9718
0
LINE
8
BLACK
6
CONTINUOUS
10
69.1218
20
-61.9718
11
69.1311
21
-61.9604
0
LINE
8
BLACK
6
CONTINUOUS
10
69.1311
20
-61.9604
11
69.1426
21
-61.951
0
LINE
8
BLACK
6
CONTINUOUS
10
69.1426
20
-61.951
11
69.1556
21
-61.944
0
LINE
8
BLACK
6
CONTINUOUS
10
69.1556
20
-61.944
11
69.1697
21
-61.9397
0
LINE
8
BLACK
6
CONTINUOUS
10
69.1697
20
-61.9397
11
69.1807
21
-61.9386
0
LINE
8
BLACK
6
CONTINUOUS
10
69.1807
20
-61.9386
11
69.1844
21
-61.9383
0
LINE
8
BLACK
6
CONTINUOUS
10
69.1844
20
-61.9383
11
69.1881
21
-61.9386
0
LINE
8
BLACK
6
CONTINUOUS
10
69.1881
20
-61.9386
11
82.9807
21
-61.9386
0
LINE
8
BLACK
6
CONTINUOUS
10
82.9807
20
-61.9386
11
82.9844
21
-61.9383
0
LINE
8
BLACK
6
CONTINUOUS
10
82.9844
20
-61.9383
11
82.9881
21
-61.9386
0
LINE
8
BLACK
6
CONTINUOUS
10
69.2594
20
-62.0886
11
69.2594
21
-75.7386
0
LINE
8
BLACK
6
CONTINUOUS
10
69.2594
20
-75.7386
11
82.9094
21
-75.7386
0
LINE
8
BLACK
6
CONTINUOUS
10
82.9094
20
-75.7386
11
82.9094
21
-62.0886
0
LINE
8
BLACK
6
CONTINUOUS
10
82.9094
20
-62.0886
11
69.2594
21
-62.0886
0
LINE
8
BLACK
6
CONTINUOUS
10
102.038
20
-61.9386
11
102.049
21
-61.9397
0
LINE
8
BLACK
6
CONTINUOUS
10
102.049
20
-61.9397
11
102.063
21
-61.944
0
LINE
8
BLACK
6
CONTINUOUS
10
102.063
20
-61.944
11
102.076
21
-61.951
0
LINE
8
BLACK
6
CONTINUOUS
10
102.076
20
-61.951
11
102.088
21
-61.9604
0
LINE
8
BLACK
6
CONTINUOUS
10
102.088
20
-61.9604
11
102.097
21
-61.9718
0
LINE
8
BLACK
6
CONTINUOUS
10
102.097
20
-61.9718
11
102.104
21
-61.9848
0
LINE
8
BLACK
6
CONTINUOUS
10
102.104
20
-61.9848
11
102.108
21
-61.9989
0
LINE
8
BLACK
6
CONTINUOUS
10
102.108
20
-61.9989
11
102.11
21
-62.0136
0
LINE
8
BLACK
6
CONTINUOUS
10
102.11
20
-62.0136
11
102.109
21
-62.0173
0
LINE
8
BLACK
6
CONTINUOUS
10
102.109
20
-62.0173
11
102.109
21
-75.81
0
LINE
8
BLACK
6
CONTINUOUS
10
102.109
20
-75.81
11
102.11
21
-75.8136
0
LINE
8
BLACK
6
CONTINUOUS
10
102.11
20
-75.8136
11
102.108
21
-75.8283
0
LINE
8
BLACK
6
CONTINUOUS
10
102.108
20
-75.8283
11
102.104
21
-75.8425
0
LINE
8
BLACK
6
CONTINUOUS
10
102.104
20
-75.8425
11
102.097
21
-75.8555
0
LINE
8
BLACK
6
CONTINUOUS
10
102.097
20
-75.8555
11
102.088
21
-75.8669
0
LINE
8
BLACK
6
CONTINUOUS
10
102.088
20
-75.8669
11
102.076
21
-75.8763
0
LINE
8
BLACK
6
CONTINUOUS
10
102.076
20
-75.8763
11
102.063
21
-75.8833
0
LINE
8
BLACK
6
CONTINUOUS
10
102.063
20
-75.8833
11
102.049
21
-75.8876
0
LINE
8
BLACK
6
CONTINUOUS
10
102.049
20
-75.8876
11
102.038
21
-75.8886
0
LINE
8
BLACK
6
CONTINUOUS
10
102.038
20
-75.8886
11
102.034
21
-75.889
0
LINE
8
BLACK
6
CONTINUOUS
10
102.034
20
-75.889
11
102.031
21
-75.8886
0
LINE
8
BLACK
6
CONTINUOUS
10
102.031
20
-75.8886
11
88.2381
21
-75.8886
0
LINE
8
BLACK
6
CONTINUOUS
10
88.2381
20
-75.8886
11
88.2344
21
-75.889
0
LINE
8
BLACK
6
CONTINUOUS
10
88.2344
20
-75.889
11
88.2197
21
-75.8876
0
LINE
8
BLACK
6
CONTINUOUS
10
88.2197
20
-75.8876
11
88.2056
21
-75.8833
0
LINE
8
BLACK
6
CONTINUOUS
10
88.2056
20
-75.8833
11
88.1926
21
-75.8763
0
LINE
8
BLACK
6
CONTINUOUS
10
88.1926
20
-75.8763
11
88.1811
21
-75.8669
0
LINE
8
BLACK
6
CONTINUOUS
10
88.1811
20
-75.8669
11
88.1718
21
-75.8555
0
LINE
8
BLACK
6
CONTINUOUS
10
88.1718
20
-75.8555
11
88.1648
21
-75.8425
0
LINE
8
BLACK
6
CONTINUOUS
10
88.1648
20
-75.8425
11
88.1605
21
-75.8283
0
LINE
8
BLACK
6
CONTINUOUS
10
88.1605
20
-75.8283
11
88.1591
21
-75.8136
0
LINE
8
BLACK
6
CONTINUOUS
10
88.1591
20
-75.8136
11
88.1594
21
-75.81
0
LINE
8
BLACK
6
CONTINUOUS
10
88.1594
20
-75.81
11
88.1594
21
-62.0173
0
LINE
8
BLACK
6
CONTINUOUS
10
88.1594
20
-62.0173
11
88.1591
21
-62.0136
0
LINE
8
BLACK
6
CONTINUOUS
10
88.1591
20
-62.0136
11
88.1605
21
-61.9989
0
LINE
8
BLACK
6
CONTINUOUS
10
88.1605
20
-61.9989
11
88.1648
21
-61.9848
0
LINE
8
BLACK
6
CONTINUOUS
10
88.1648
20
-61.9848
11
88.1718
21
-61.9718
0
LINE
8
BLACK
6
CONTINUOUS
10
88.1718
20
-61.9718
11
88.1811
21
-61.9604
0
LINE
8
BLACK
6
CONTINUOUS
10
88.1811
20
-61.9604
11
88.1926
21
-61.951
0
LINE
8
BLACK
6
CONTINUOUS
10
88.1926
20
-61.951
11
88.2056
21
-61.944
0
LINE
8
BLACK
6
CONTINUOUS
10
88.2056
20
-61.944
11
88.2197
21
-61.9397
0
LINE
8
BLACK
6
CONTINUOUS
10
88.2197
20
-61.9397
11
88.2307
21
-61.9386
0
LINE
8
BLACK
6
CONTINUOUS
10
88.2307
20
-61.9386
11
88.2344
21
-61.9383
0
LINE
8
BLACK
6
CONTINUOUS
10
88.2344
20
-61.9383
11
88.2381
21
-61.9386
0
LINE
8
BLACK
6
CONTINUOUS
10
88.2381
20
-61.9386
11
102.031
21
-61.9386
0
LINE
8
BLACK
6
CONTINUOUS
10
102.031
20
-61.9386
11
102.034
21
-61.9383
0
LINE
8
BLACK
6
CONTINUOUS
10
102.034
20
-61.9383
11
102.038
21
-61.9386
0
LINE
8
BLACK
6
CONTINUOUS
10
88.3094
20
-62.0886
11
88.3094
21
-75.7386
0
LINE
8
BLACK
6
CONTINUOUS
10
88.3094
20
-75.7386
11
101.959
21
-75.7386
0
LINE
8
BLACK
6
CONTINUOUS
10
101.959
20
-75.7386
11
101.959
21
-62.0886
0
LINE
8
BLACK
6
CONTINUOUS
10
101.959
20
-62.0886
11
88.3094
21
-62.0886
0
LINE
8
BLACK
6
CONTINUOUS
10
178.238
20
-61.9386
11
178.249
21
-61.9397
0
LINE
8
BLACK
6
CONTINUOUS
10
178.249
20
-61.9397
11
178.263
21
-61.944
0
LINE
8
BLACK
6
CONTINUOUS
10
178.263
20
-61.944
11
178.276
21
-61.951
0
LINE
8
BLACK
6
CONTINUOUS
10
178.276
20
-61.951
11
178.288
21
-61.9604
0
LINE
8
BLACK
6
CONTINUOUS
10
178.288
20
-61.9604
11
178.297
21
-61.9718
0
LINE
8
BLACK
6
CONTINUOUS
10
178.297
20
-61.9718
11
178.304
21
-61.9848
0
LINE
8
BLACK
6
CONTINUOUS
10
178.304
20
-61.9848
11
178.308
21
-61.9989
0
LINE
8
BLACK
6
CONTINUOUS
10
178.308
20
-61.9989
11
178.31
21
-62.0136
0
LINE
8
BLACK
6
CONTINUOUS
10
178.31
20
-62.0136
11
178.309
21
-62.0173
0
LINE
8
BLACK
6
CONTINUOUS
10
178.309
20
-62.0173
11
178.309
21
-75.81
0
LINE
8
BLACK
6
CONTINUOUS
10
178.309
20
-75.81
11
178.31
21
-75.8136
0
LINE
8
BLACK
6
CONTINUOUS
10
178.31
20
-75.8136
11
178.308
21
-75.8283
0
LINE
8
BLACK
6
CONTINUOUS
10
178.308
20
-75.8283
11
178.304
21
-75.8425
0
LINE
8
BLACK
6
CONTINUOUS
10
178.304
20
-75.8425
11
178.297
21
-75.8555
0
LINE
8
BLACK
6
CONTINUOUS
10
178.297
20
-75.8555
11
178.288
21
-75.8669
0
LINE
8
BLACK
6
CONTINUOUS
10
178.288
20
-75.8669
11
178.276
21
-75.8763
0
LINE
8
BLACK
6
CONTINUOUS
10
178.276
20
-75.8763
11
178.263
21
-75.8833
0
LINE
8
BLACK
6
CONTINUOUS
10
178.263
20
-75.8833
11
178.249
21
-75.8876
0
LINE
8
BLACK
6
CONTINUOUS
10
178.249
20
-75.8876
11
178.238
21
-75.8886
0
LINE
8
BLACK
6
CONTINUOUS
10
178.238
20
-75.8886
11
178.234
21
-75.889
0
LINE
8
BLACK
6
CONTINUOUS
10
178.234
20
-75.889
11
178.231
21
-75.8886
0
LINE
8
BLACK
6
CONTINUOUS
10
178.231
20
-75.8886
11
164.438
21
-75.8886
0
LINE
8
BLACK
6
CONTINUOUS
10
164.438
20
-75.8886
11
164.434
21
-75.889
0
LINE
8
BLACK
6
CONTINUOUS
10
164.434
20
-75.889
11
164.42
21
-75.8876
0
LINE
8
BLACK
6
CONTINUOUS
10
164.42
20
-75.8876
11
164.406
21
-75.8833
0
LINE
8
BLACK
6
CONTINUOUS
10
164.406
20
-75.8833
11
164.393
21
-75.8763
0
LINE
8
BLACK
6
CONTINUOUS
10
164.393
20
-75.8763
11
164.381
21
-75.8669
0
LINE
8
BLACK
6
CONTINUOUS
10
164.381
20
-75.8669
11
164.372
21
-75.8555
0
LINE
8
BLACK
6
CONTINUOUS
10
164.372
20
-75.8555
11
164.365
21
-75.8425
0
LINE
8
BLACK
6
CONTINUOUS
10
164.365
20
-75.8425
11
164.361
21
-75.8283
0
LINE
8
BLACK
6
CONTINUOUS
10
164.361
20
-75.8283
11
164.359
21
-75.8136
0
LINE
8
BLACK
6
CONTINUOUS
10
164.359
20
-75.8136
11
164.359
21
-75.81
0
LINE
8
BLACK
6
CONTINUOUS
10
164.359
20
-75.81
11
164.359
21
-62.0173
0
LINE
8
BLACK
6
CONTINUOUS
10
164.359
20
-62.0173
11
164.359
21
-62.0136
0
LINE
8
BLACK
6
CONTINUOUS
10
164.359
20
-62.0136
11
164.361
21
-61.9989
0
LINE
8
BLACK
6
CONTINUOUS
10
164.361
20
-61.9989
11
164.365
21
-61.9848
0
LINE
8
BLACK
6
CONTINUOUS
10
164.365
20
-61.9848
11
164.372
21
-61.9718
0
LINE
8
BLACK
6
CONTINUOUS
10
164.372
20
-61.9718
11
164.381
21
-61.9604
0
LINE
8
BLACK
6
CONTINUOUS
10
164.381
20
-61.9604
11
164.393
21
-61.951
0
LINE
8
BLACK
6
CONTINUOUS
10
164.393
20
-61.951
11
164.406
21
-61.944
0
LINE
8
BLACK
6
CONTINUOUS
10
164.406
20
-61.944
11
164.42
21
-61.9397
0
LINE
8
BLACK
6
CONTINUOUS
10
164.42
20
-61.9397
11
164.431
21
-61.9386
0
LINE
8
BLACK
6
CONTINUOUS
10
164.431
20
-61.9386
11
164.434
21
-61.9383
0
LINE
8
BLACK
6
CONTINUOUS
10
164.434
20
-61.9383
11
164.438
21
-61.9386
0
LINE
8
BLACK
6
CONTINUOUS
10
164.438
20
-61.9386
11
178.231
21
-61.9386
0
LINE
8
BLACK
6
CONTINUOUS
10
178.231
20
-61.9386
11
178.234
21
-61.9383
0
LINE
8
BLACK
6
CONTINUOUS
10
178.234
20
-61.9383
11
178.238
21
-61.9386
0
LINE
8
BLACK
6
CONTINUOUS
10
164.509
20
-62.0886
11
164.509
21
-75.7386
0
LINE
8
BLACK
6
CONTINUOUS
10
164.509
20
-75.7386
11
178.159
21
-75.7386
0
LINE
8
BLACK
6
CONTINUOUS
10
178.159
20
-75.7386
11
178.159
21
-62.0886
0
LINE
8
BLACK
6
CONTINUOUS
10
178.159
20
-62.0886
11
164.509
21
-62.0886
0
LINE
8
BLACK
6
CONTINUOUS
10
159.188
20
-61.9386
11
159.199
21
-61.9397
0
LINE
8
BLACK
6
CONTINUOUS
10
159.199
20
-61.9397
11
159.213
21
-61.944
0
LINE
8
BLACK
6
CONTINUOUS
10
159.213
20
-61.944
11
159.226
21
-61.951
0
LINE
8
BLACK
6
CONTINUOUS
10
159.226
20
-61.951
11
159.238
21
-61.9604
0
LINE
8
BLACK
6
CONTINUOUS
10
159.238
20
-61.9604
11
159.247
21
-61.9718
0
LINE
8
BLACK
6
CONTINUOUS
10
159.247
20
-61.9718
11
159.254
21
-61.9848
0
LINE
8
BLACK
6
CONTINUOUS
10
159.254
20
-61.9848
11
159.258
21
-61.9989
0
LINE
8
BLACK
6
CONTINUOUS
10
159.258
20
-61.9989
11
159.26
21
-62.0136
0
LINE
8
BLACK
6
CONTINUOUS
10
159.26
20
-62.0136
11
159.259
21
-62.0173
0
LINE
8
BLACK
6
CONTINUOUS
10
159.259
20
-62.0173
11
159.259
21
-75.81
0
LINE
8
BLACK
6
CONTINUOUS
10
159.259
20
-75.81
11
159.26
21
-75.8136
0
LINE
8
BLACK
6
CONTINUOUS
10
159.26
20
-75.8136
11
159.258
21
-75.8283
0
LINE
8
BLACK
6
CONTINUOUS
10
159.258
20
-75.8283
11
159.254
21
-75.8425
0
LINE
8
BLACK
6
CONTINUOUS
10
159.254
20
-75.8425
11
159.247
21
-75.8555
0
LINE
8
BLACK
6
CONTINUOUS
10
159.247
20
-75.8555
11
159.238
21
-75.8669
0
LINE
8
BLACK
6
CONTINUOUS
10
159.238
20
-75.8669
11
159.226
21
-75.8763
0
LINE
8
BLACK
6
CONTINUOUS
10
159.226
20
-75.8763
11
159.213
21
-75.8833
0
LINE
8
BLACK
6
CONTINUOUS
10
159.213
20
-75.8833
11
159.199
21
-75.8876
0
LINE
8
BLACK
6
CONTINUOUS
10
159.199
20
-75.8876
11
159.188
21
-75.8886
0
LINE
8
BLACK
6
CONTINUOUS
10
159.188
20
-75.8886
11
159.184
21
-75.889
0
LINE
8
BLACK
6
CONTINUOUS
10
159.184
20
-75.889
11
159.181
21
-75.8886
0
LINE
8
BLACK
6
CONTINUOUS
10
159.181
20
-75.8886
11
145.388
21
-75.8886
0
LINE
8
BLACK
6
CONTINUOUS
10
145.388
20
-75.8886
11
145.384
21
-75.889
0
LINE
8
BLACK
6
CONTINUOUS
10
145.384
20
-75.889
11
145.37
21
-75.8876
0
LINE
8
BLACK
6
CONTINUOUS
10
145.37
20
-75.8876
11
145.356
21
-75.8833
0
LINE
8
BLACK
6
CONTINUOUS
10
145.356
20
-75.8833
11
145.343
21
-75.8763
0
LINE
8
BLACK
6
CONTINUOUS
10
145.343
20
-75.8763
11
145.331
21
-75.8669
0
LINE
8
BLACK
6
CONTINUOUS
10
145.331
20
-75.8669
11
145.322
21
-75.8555
0
LINE
8
BLACK
6
CONTINUOUS
10
145.322
20
-75.8555
11
145.315
21
-75.8425
0
LINE
8
BLACK
6
CONTINUOUS
10
145.315
20
-75.8425
11
145.311
21
-75.8283
0
LINE
8
BLACK
6
CONTINUOUS
10
145.311
20
-75.8283
11
145.309
21
-75.8136
0
LINE
8
BLACK
6
CONTINUOUS
10
145.309
20
-75.8136
11
145.309
21
-75.81
0
LINE
8
BLACK
6
CONTINUOUS
10
145.309
20
-75.81
11
145.309
21
-62.0173
0
LINE
8
BLACK
6
CONTINUOUS
10
145.309
20
-62.0173
11
145.309
21
-62.0136
0
LINE
8
BLACK
6
CONTINUOUS
10
145.309
20
-62.0136
11
145.311
21
-61.9989
0
LINE
8
BLACK
6
CONTINUOUS
10
145.311
20
-61.9989
11
145.315
21
-61.9848
0
LINE
8
BLACK
6
CONTINUOUS
10
145.315
20
-61.9848
11
145.322
21
-61.9718
0
LINE
8
BLACK
6
CONTINUOUS
10
145.322
20
-61.9718
11
145.331
21
-61.9604
0
LINE
8
BLACK
6
CONTINUOUS
10
145.331
20
-61.9604
11
145.343
21
-61.951
0
LINE
8
BLACK
6
CONTINUOUS
10
145.343
20
-61.951
11
145.356
21
-61.944
0
LINE
8
BLACK
6
CONTINUOUS
10
145.356
20
-61.944
11
145.37
21
-61.9397
0
LINE
8
BLACK
6
CONTINUOUS
10
145.37
20
-61.9397
11
145.381
21
-61.9386
0
LINE
8
BLACK
6
CONTINUOUS
10
145.381
20
-61.9386
11
145.384
21
-61.9383
0
LINE
8
BLACK
6
CONTINUOUS
10
145.384
20
-61.9383
11
145.388
21
-61.9386
0
LINE
8
BLACK
6
CONTINUOUS
10
145.388
20
-61.9386
11
159.181
21
-61.9386
0
LINE
8
BLACK
6
CONTINUOUS
10
159.181
20
-61.9386
11
159.184
21
-61.9383
0
LINE
8
BLACK
6
CONTINUOUS
10
159.184
20
-61.9383
11
159.188
21
-61.9386
0
LINE
8
BLACK
6
CONTINUOUS
10
145.459
20
-62.0886
11
145.459
21
-75.7386
0
LINE
8
BLACK
6
CONTINUOUS
10
145.459
20
-75.7386
11
159.109
21
-75.7386
0
LINE
8
BLACK
6
CONTINUOUS
10
159.109
20
-75.7386
11
159.109
21
-62.0886
0
LINE
8
BLACK
6
CONTINUOUS
10
159.109
20
-62.0886
11
145.459
21
-62.0886
0
LINE
8
BLACK
6
CONTINUOUS
10
121.088
20
-61.9386
11
121.099
21
-61.9397
0
LINE
8
BLACK
6
CONTINUOUS
10
121.099
20
-61.9397
11
121.113
21
-61.944
0
LINE
8
BLACK
6
CONTINUOUS
10
121.113
20
-61.944
11
121.126
21
-61.951
0
LINE
8
BLACK
6
CONTINUOUS
10
121.126
20
-61.951
11
121.138
21
-61.9604
0
LINE
8
BLACK
6
CONTINUOUS
10
121.138
20
-61.9604
11
121.147
21
-61.9718
0
LINE
8
BLACK
6
CONTINUOUS
10
121.147
20
-61.9718
11
121.154
21
-61.9848
0
LINE
8
BLACK
6
CONTINUOUS
10
121.154
20
-61.9848
11
121.158
21
-61.9989
0
LINE
8
BLACK
6
CONTINUOUS
10
121.158
20
-61.9989
11
121.16
21
-62.0136
0
LINE
8
BLACK
6
CONTINUOUS
10
121.16
20
-62.0136
11
121.159
21
-62.0173
0
LINE
8
BLACK
6
CONTINUOUS
10
121.159
20
-62.0173
11
121.159
21
-75.81
0
LINE
8
BLACK
6
CONTINUOUS
10
121.159
20
-75.81
11
121.16
21
-75.8136
0
LINE
8
BLACK
6
CONTINUOUS
10
121.16
20
-75.8136
11
121.158
21
-75.8283
0
LINE
8
BLACK
6
CONTINUOUS
10
121.158
20
-75.8283
11
121.154
21
-75.8425
0
LINE
8
BLACK
6
CONTINUOUS
10
121.154
20
-75.8425
11
121.147
21
-75.8555
0
LINE
8
BLACK
6
CONTINUOUS
10
121.147
20
-75.8555
11
121.138
21
-75.8669
0
LINE
8
BLACK
6
CONTINUOUS
10
121.138
20
-75.8669
11
121.126
21
-75.8763
0
LINE
8
BLACK
6
CONTINUOUS
10
121.126
20
-75.8763
11
121.113
21
-75.8833
0
LINE
8
BLACK
6
CONTINUOUS
10
121.113
20
-75.8833
11
121.099
21
-75.8876
0
LINE
8
BLACK
6
CONTINUOUS
10
121.099
20
-75.8876
11
121.088
21
-75.8886
0
LINE
8
BLACK
6
CONTINUOUS
10
121.088
20
-75.8886
11
121.084
21
-75.889
0
LINE
8
BLACK
6
CONTINUOUS
10
121.084
20
-75.889
11
121.081
21
-75.8886
0
LINE
8
BLACK
6
CONTINUOUS
10
121.081
20
-75.8886
11
107.288
21
-75.8886
0
LINE
8
BLACK
6
CONTINUOUS
10
107.288
20
-75.8886
11
107.284
21
-75.889
0
LINE
8
BLACK
6
CONTINUOUS
10
107.284
20
-75.889
11
107.27
21
-75.8876
0
LINE
8
BLACK
6
CONTINUOUS
10
107.27
20
-75.8876
11
107.256
21
-75.8833
0
LINE
8
BLACK
6
CONTINUOUS
10
107.256
20
-75.8833
11
107.243
21
-75.8763
0
LINE
8
BLACK
6
CONTINUOUS
10
107.243
20
-75.8763
11
107.231
21
-75.8669
0
LINE
8
BLACK
6
CONTINUOUS
10
107.231
20
-75.8669
11
107.222
21
-75.8555
0
LINE
8
BLACK
6
CONTINUOUS
10
107.222
20
-75.8555
11
107.215
21
-75.8425
0
LINE
8
BLACK
6
CONTINUOUS
10
107.215
20
-75.8425
11
107.211
21
-75.8283
0
LINE
8
BLACK
6
CONTINUOUS
10
107.211
20
-75.8283
11
107.209
21
-75.8136
0
LINE
8
BLACK
6
CONTINUOUS
10
107.209
20
-75.8136
11
107.209
21
-75.81
0
LINE
8
BLACK
6
CONTINUOUS
10
107.209
20
-75.81
11
107.209
21
-62.0173
0
LINE
8
BLACK
6
CONTINUOUS
10
107.209
20
-62.0173
11
107.209
21
-62.0136
0
LINE
8
BLACK
6
CONTINUOUS
10
107.209
20
-62.0136
11
107.211
21
-61.9989
0
LINE
8
BLACK
6
CONTINUOUS
10
107.211
20
-61.9989
11
107.215
21
-61.9848
0
LINE
8
BLACK
6
CONTINUOUS
10
107.215
20
-61.9848
11
107.222
21
-61.9718
0
LINE
8
BLACK
6
CONTINUOUS
10
107.222
20
-61.9718
11
107.231
21
-61.9604
0
LINE
8
BLACK
6
CONTINUOUS
10
107.231
20
-61.9604
11
107.243
21
-61.951
0
LINE
8
BLACK
6
CONTINUOUS
10
107.243
20
-61.951
11
107.256
21
-61.944
0
LINE
8
BLACK
6
CONTINUOUS
10
107.256
20
-61.944
11
107.27
21
-61.9397
0
LINE
8
BLACK
6
CONTINUOUS
10
107.27
20
-61.9397
11
107.281
21
-61.9386
0
LINE
8
BLACK
6
CONTINUOUS
10
107.281
20
-61.9386
11
107.284
21
-61.9383
0
LINE
8
BLACK
6
CONTINUOUS
10
107.284
20
-61.9383
11
107.288
21
-61.9386
0
LINE
8
BLACK
6
CONTINUOUS
10
107.288
20
-61.9386
11
121.081
21
-61.9386
0
LINE
8
BLACK
6
CONTINUOUS
10
121.081
20
-61.9386
11
121.084
21
-61.9383
0
LINE
8
BLACK
6
CONTINUOUS
10
121.084
20
-61.9383
11
121.088
21
-61.9386
0
LINE
8
BLACK
6
CONTINUOUS
10
107.359
20
-62.0886
11
107.359
21
-75.7386
0
LINE
8
BLACK
6
CONTINUOUS
10
107.359
20
-75.7386
11
121.009
21
-75.7386
0
LINE
8
BLACK
6
CONTINUOUS
10
121.009
20
-75.7386
11
121.009
21
-62.0886
0
LINE
8
BLACK
6
CONTINUOUS
10
121.009
20
-62.0886
11
107.359
21
-62.0886
0
LINE
8
BLACK
6
CONTINUOUS
10
140.138
20
-61.9386
11
140.149
21
-61.9397
0
LINE
8
BLACK
6
CONTINUOUS
10
140.149
20
-61.9397
11
140.163
21
-61.944
0
LINE
8
BLACK
6
CONTINUOUS
10
140.163
20
-61.944
11
140.176
21
-61.951
0
LINE
8
BLACK
6
CONTINUOUS
10
140.176
20
-61.951
11
140.188
21
-61.9604
0
LINE
8
BLACK
6
CONTINUOUS
10
140.188
20
-61.9604
11
140.197
21
-61.9718
0
LINE
8
BLACK
6
CONTINUOUS
10
140.197
20
-61.9718
11
140.204
21
-61.9848
0
LINE
8
BLACK
6
CONTINUOUS
10
140.204
20
-61.9848
11
140.208
21
-61.9989
0
LINE
8
BLACK
6
CONTINUOUS
10
140.208
20
-61.9989
11
140.21
21
-62.0136
0
LINE
8
BLACK
6
CONTINUOUS
10
140.21
20
-62.0136
11
140.209
21
-62.0173
0
LINE
8
BLACK
6
CONTINUOUS
10
140.209
20
-62.0173
11
140.209
21
-75.81
0
LINE
8
BLACK
6
CONTINUOUS
10
140.209
20
-75.81
11
140.21
21
-75.8136
0
LINE
8
BLACK
6
CONTINUOUS
10
140.21
20
-75.8136
11
140.208
21
-75.8283
0
LINE
8
BLACK
6
CONTINUOUS
10
140.208
20
-75.8283
11
140.204
21
-75.8425
0
LINE
8
BLACK
6
CONTINUOUS
10
140.204
20
-75.8425
11
140.197
21
-75.8555
0
LINE
8
BLACK
6
CONTINUOUS
10
140.197
20
-75.8555
11
140.188
21
-75.8669
0
LINE
8
BLACK
6
CONTINUOUS
10
140.188
20
-75.8669
11
140.176
21
-75.8763
0
LINE
8
BLACK
6
CONTINUOUS
10
140.176
20
-75.8763
11
140.163
21
-75.8833
0
LINE
8
BLACK
6
CONTINUOUS
10
140.163
20
-75.8833
11
140.149
21
-75.8876
0
LINE
8
BLACK
6
CONTINUOUS
10
140.149
20
-75.8876
11
140.138
21
-75.8886
0
LINE
8
BLACK
6
CONTINUOUS
10
140.138
20
-75.8886
11
140.134
21
-75.889
0
LINE
8
BLACK
6
CONTINUOUS
10
140.134
20
-75.889
11
140.131
21
-75.8886
0
LINE
8
BLACK
6
CONTINUOUS
10
140.131
20
-75.8886
11
126.338
21
-75.8886
0
LINE
8
BLACK
6
CONTINUOUS
10
126.338
20
-75.8886
11
126.334
21
-75.889
0
LINE
8
BLACK
6
CONTINUOUS
10
126.334
20
-75.889
11
126.32
21
-75.8876
0
LINE
8
BLACK
6
CONTINUOUS
10
126.32
20
-75.8876
11
126.306
21
-75.8833
0
LINE
8
BLACK
6
CONTINUOUS
10
126.306
20
-75.8833
11
126.293
21
-75.8763
0
LINE
8
BLACK
6
CONTINUOUS
10
126.293
20
-75.8763
11
126.281
21
-75.8669
0
LINE
8
BLACK
6
CONTINUOUS
10
126.281
20
-75.8669
11
126.272
21
-75.8555
0
LINE
8
BLACK
6
CONTINUOUS
10
126.272
20
-75.8555
11
126.265
21
-75.8425
0
LINE
8
BLACK
6
CONTINUOUS
10
126.265
20
-75.8425
11
126.261
21
-75.8283
0
LINE
8
BLACK
6
CONTINUOUS
10
126.261
20
-75.8283
11
126.259
21
-75.8136
0
LINE
8
BLACK
6
CONTINUOUS
10
126.259
20
-75.8136
11
126.259
21
-75.81
0
LINE
8
BLACK
6
CONTINUOUS
10
126.259
20
-75.81
11
126.259
21
-62.0173
0
LINE
8
BLACK
6
CONTINUOUS
10
126.259
20
-62.0173
11
126.259
21
-62.0136
0
LINE
8
BLACK
6
CONTINUOUS
10
126.259
20
-62.0136
11
126.261
21
-61.9989
0
LINE
8
BLACK
6
CONTINUOUS
10
126.261
20
-61.9989
11
126.265
21
-61.9848
0
LINE
8
BLACK
6
CONTINUOUS
10
126.265
20
-61.9848
11
126.272
21
-61.9718
0
LINE
8
BLACK
6
CONTINUOUS
10
126.272
20
-61.9718
11
126.281
21
-61.9604
0
LINE
8
BLACK
6
CONTINUOUS
10
126.281
20
-61.9604
11
126.293
21
-61.951
0
LINE
8
BLACK
6
CONTINUOUS
10
126.293
20
-61.951
11
126.306
21
-61.944
0
LINE
8
BLACK
6
CONTINUOUS
10
126.306
20
-61.944
11
126.32
21
-61.9397
0
LINE
8
BLACK
6
CONTINUOUS
10
126.32
20
-61.9397
11
126.331
21
-61.9386
0
LINE
8
BLACK
6
CONTINUOUS
10
126.331
20
-61.9386
11
126.334
21
-61.9383
0
LINE
8
BLACK
6
CONTINUOUS
10
126.334
20
-61.9383
11
126.338
21
-61.9386
0
LINE
8
BLACK
6
CONTINUOUS
10
126.338
20
-61.9386
11
140.131
21
-61.9386
0
LINE
8
BLACK
6
CONTINUOUS
10
140.131
20
-61.9386
11
140.134
21
-61.9383
0
LINE
8
BLACK
6
CONTINUOUS
10
140.134
20
-61.9383
11
140.138
21
-61.9386
0
LINE
8
BLACK
6
CONTINUOUS
10
126.409
20
-62.0886
11
126.409
21
-75.7386
0
LINE
8
BLACK
6
CONTINUOUS
10
126.409
20
-75.7386
11
140.059
21
-75.7386
0
LINE
8
BLACK
6
CONTINUOUS
10
140.059
20
-75.7386
11
140.059
21
-62.0886
0
LINE
8
BLACK
6
CONTINUOUS
10
140.059
20
-62.0886
11
126.409
21
-62.0886
0
LINE
8
BLACK
6
CONTINUOUS
10
197.288
20
-47.6511
11
197.299
21
-47.6522
0
LINE
8
BLACK
6
CONTINUOUS
10
197.299
20
-47.6522
11
197.313
21
-47.6565
0
LINE
8
BLACK
6
CONTINUOUS
10
197.313
20
-47.6565
11
197.326
21
-47.6635
0
LINE
8
BLACK
6
CONTINUOUS
10
197.326
20
-47.6635
11
197.338
21
-47.6729
0
LINE
8
BLACK
6
CONTINUOUS
10
197.338
20
-47.6729
11
197.347
21
-47.6843
0
LINE
8
BLACK
6
CONTINUOUS
10
197.347
20
-47.6843
11
197.354
21
-47.6973
0
LINE
8
BLACK
6
CONTINUOUS
10
197.354
20
-47.6973
11
197.358
21
-47.7114
0
LINE
8
BLACK
6
CONTINUOUS
10
197.358
20
-47.7114
11
197.36
21
-47.7261
0
LINE
8
BLACK
6
CONTINUOUS
10
197.36
20
-47.7261
11
197.359
21
-47.7298
0
LINE
8
BLACK
6
CONTINUOUS
10
197.359
20
-47.7298
11
197.359
21
-61.5225
0
LINE
8
BLACK
6
CONTINUOUS
10
197.359
20
-61.5225
11
197.36
21
-61.5261
0
LINE
8
BLACK
6
CONTINUOUS
10
197.36
20
-61.5261
11
197.358
21
-61.5408
0
LINE
8
BLACK
6
CONTINUOUS
10
197.358
20
-61.5408
11
197.354
21
-61.555
0
LINE
8
BLACK
6
CONTINUOUS
10
197.354
20
-61.555
11
197.347
21
-61.568
0
LINE
8
BLACK
6
CONTINUOUS
10
197.347
20
-61.568
11
197.338
21
-61.5794
0
LINE
8
BLACK
6
CONTINUOUS
10
197.338
20
-61.5794
11
197.326
21
-61.5888
0
LINE
8
BLACK
6
CONTINUOUS
10
197.326
20
-61.5888
11
197.313
21
-61.5958
0
LINE
8
BLACK
6
CONTINUOUS
10
197.313
20
-61.5958
11
197.299
21
-61.6001
0
LINE
8
BLACK
6
CONTINUOUS
10
197.299
20
-61.6001
11
197.288
21
-61.6011
0
LINE
8
BLACK
6
CONTINUOUS
10
197.288
20
-61.6011
11
197.284
21
-61.6015
0
LINE
8
BLACK
6
CONTINUOUS
10
197.284
20
-61.6015
11
197.281
21
-61.6011
0
LINE
8
BLACK
6
CONTINUOUS
10
197.281
20
-61.6011
11
183.488
21
-61.6011
0
LINE
8
BLACK
6
CONTINUOUS
10
183.488
20
-61.6011
11
183.484
21
-61.6015
0
LINE
8
BLACK
6
CONTINUOUS
10
183.484
20
-61.6015
11
183.47
21
-61.6001
0
LINE
8
BLACK
6
CONTINUOUS
10
183.47
20
-61.6001
11
183.456
21
-61.5958
0
LINE
8
BLACK
6
CONTINUOUS
10
183.456
20
-61.5958
11
183.443
21
-61.5888
0
LINE
8
BLACK
6
CONTINUOUS
10
183.443
20
-61.5888
11
183.431
21
-61.5794
0
LINE
8
BLACK
6
CONTINUOUS
10
183.431
20
-61.5794
11
183.422
21
-61.568
0
LINE
8
BLACK
6
CONTINUOUS
10
183.422
20
-61.568
11
183.415
21
-61.555
0
LINE
8
BLACK
6
CONTINUOUS
10
183.415
20
-61.555
11
183.411
21
-61.5408
0
LINE
8
BLACK
6
CONTINUOUS
10
183.411
20
-61.5408
11
183.409
21
-61.5261
0
LINE
8
BLACK
6
CONTINUOUS
10
183.409
20
-61.5261
11
183.409
21
-61.5225
0
LINE
8
BLACK
6
CONTINUOUS
10
183.409
20
-61.5225
11
183.409
21
-47.7298
0
LINE
8
BLACK
6
CONTINUOUS
10
183.409
20
-47.7298
11
183.409
21
-47.7261
0
LINE
8
BLACK
6
CONTINUOUS
10
183.409
20
-47.7261
11
183.411
21
-47.7114
0
LINE
8
BLACK
6
CONTINUOUS
10
183.411
20
-47.7114
11
183.415
21
-47.6973
0
LINE
8
BLACK
6
CONTINUOUS
10
183.415
20
-47.6973
11
183.422
21
-47.6843
0
LINE
8
BLACK
6
CONTINUOUS
10
183.422
20
-47.6843
11
183.431
21
-47.6729
0
LINE
8
BLACK
6
CONTINUOUS
10
183.431
20
-47.6729
11
183.443
21
-47.6635
0
LINE
8
BLACK
6
CONTINUOUS
10
183.443
20
-47.6635
11
183.456
21
-47.6565
0
LINE
8
BLACK
6
CONTINUOUS
10
183.456
20
-47.6565
11
183.47
21
-47.6522
0
LINE
8
BLACK
6
CONTINUOUS
10
183.47
20
-47.6522
11
183.481
21
-47.6511
0
LINE
8
BLACK
6
CONTINUOUS
10
183.481
20
-47.6511
11
183.484
21
-47.6508
0
LINE
8
BLACK
6
CONTINUOUS
10
183.484
20
-47.6508
11
183.488
21
-47.6511
0
LINE
8
BLACK
6
CONTINUOUS
10
183.488
20
-47.6511
11
197.281
21
-47.6511
0
LINE
8
BLACK
6
CONTINUOUS
10
197.281
20
-47.6511
11
197.284
21
-47.6508
0
LINE
8
BLACK
6
CONTINUOUS
10
197.284
20
-47.6508
11
197.288
21
-47.6511
0
LINE
8
BLACK
6
CONTINUOUS
10
183.559
20
-47.8011
11
183.559
21
-61.4511
0
LINE
8
BLACK
6
CONTINUOUS
10
183.559
20
-61.4511
11
197.209
21
-61.4511
0
LINE
8
BLACK
6
CONTINUOUS
10
197.209
20
-61.4511
11
197.209
21
-47.8011
0
LINE
8
BLACK
6
CONTINUOUS
10
197.209
20
-47.8011
11
183.559
21
-47.8011
0
LINE
8
BLACK
6
CONTINUOUS
10
178.238
20
-42.8886
11
178.249
21
-42.8897
0
LINE
8
BLACK
6
CONTINUOUS
10
178.249
20
-42.8897
11
178.263
21
-42.894
0
LINE
8
BLACK
6
CONTINUOUS
10
178.263
20
-42.894
11
178.276
21
-42.901
0
LINE
8
BLACK
6
CONTINUOUS
10
178.276
20
-42.901
11
178.288
21
-42.9104
0
LINE
8
BLACK
6
CONTINUOUS
10
178.288
20
-42.9104
11
178.297
21
-42.9218
0
LINE
8
BLACK
6
CONTINUOUS
10
178.297
20
-42.9218
11
178.304
21
-42.9348
0
LINE
8
BLACK
6
CONTINUOUS
10
178.304
20
-42.9348
11
178.308
21
-42.9489
0
LINE
8
BLACK
6
CONTINUOUS
10
178.308
20
-42.9489
11
178.31
21
-42.9636
0
LINE
8
BLACK
6
CONTINUOUS
10
178.31
20
-42.9636
11
178.309
21
-42.9673
0
LINE
8
BLACK
6
CONTINUOUS
10
178.309
20
-42.9673
11
178.309
21
-56.76
0
LINE
8
BLACK
6
CONTINUOUS
10
178.309
20
-56.76
11
178.31
21
-56.7636
0
LINE
8
BLACK
6
CONTINUOUS
10
178.31
20
-56.7636
11
178.308
21
-56.7783
0
LINE
8
BLACK
6
CONTINUOUS
10
178.308
20
-56.7783
11
178.304
21
-56.7925
0
LINE
8
BLACK
6
CONTINUOUS
10
178.304
20
-56.7925
11
178.297
21
-56.8055
0
LINE
8
BLACK
6
CONTINUOUS
10
178.297
20
-56.8055
11
178.288
21
-56.8169
0
LINE
8
BLACK
6
CONTINUOUS
10
178.288
20
-56.8169
11
178.276
21
-56.8263
0
LINE
8
BLACK
6
CONTINUOUS
10
178.276
20
-56.8263
11
178.263
21
-56.8333
0
LINE
8
BLACK
6
CONTINUOUS
10
178.263
20
-56.8333
11
178.249
21
-56.8376
0
LINE
8
BLACK
6
CONTINUOUS
10
178.249
20
-56.8376
11
178.238
21
-56.8386
0
LINE
8
BLACK
6
CONTINUOUS
10
178.238
20
-56.8386
11
178.234
21
-56.839
0
LINE
8
BLACK
6
CONTINUOUS
10
178.234
20
-56.839
11
178.231
21
-56.8386
0
LINE
8
BLACK
6
CONTINUOUS
10
178.231
20
-56.8386
11
164.438
21
-56.8386
0
LINE
8
BLACK
6
CONTINUOUS
10
164.438
20
-56.8386
11
164.434
21
-56.839
0
LINE
8
BLACK
6
CONTINUOUS
10
164.434
20
-56.839
11
164.42
21
-56.8376
0
LINE
8
BLACK
6
CONTINUOUS
10
164.42
20
-56.8376
11
164.406
21
-56.8333
0
LINE
8
BLACK
6
CONTINUOUS
10
164.406
20
-56.8333
11
164.393
21
-56.8263
0
LINE
8
BLACK
6
CONTINUOUS
10
164.393
20
-56.8263
11
164.381
21
-56.8169
0
LINE
8
BLACK
6
CONTINUOUS
10
164.381
20
-56.8169
11
164.372
21
-56.8055
0
LINE
8
BLACK
6
CONTINUOUS
10
164.372
20
-56.8055
11
164.365
21
-56.7925
0
LINE
8
BLACK
6
CONTINUOUS
10
164.365
20
-56.7925
11
164.361
21
-56.7783
0
LINE
8
BLACK
6
CONTINUOUS
10
164.361
20
-56.7783
11
164.359
21
-56.7636
0
LINE
8
BLACK
6
CONTINUOUS
10
164.359
20
-56.7636
11
164.359
21
-56.76
0
LINE
8
BLACK
6
CONTINUOUS
10
164.359
20
-56.76
11
164.359
21
-42.9673
0
LINE
8
BLACK
6
CONTINUOUS
10
164.359
20
-42.9673
11
164.359
21
-42.9636
0
LINE
8
BLACK
6
CONTINUOUS
10
164.359
20
-42.9636
11
164.361
21
-42.9489
0
LINE
8
BLACK
6
CONTINUOUS
10
164.361
20
-42.9489
11
164.365
21
-42.9348
0
LINE
8
BLACK
6
CONTINUOUS
10
164.365
20
-42.9348
11
164.372
21
-42.9218
0
LINE
8
BLACK
6
CONTINUOUS
10
164.372
20
-42.9218
11
164.381
21
-42.9104
0
LINE
8
BLACK
6
CONTINUOUS
10
164.381
20
-42.9104
11
164.393
21
-42.901
0
LINE
8
BLACK
6
CONTINUOUS
10
164.393
20
-42.901
11
164.406
21
-42.894
0
LINE
8
BLACK
6
CONTINUOUS
10
164.406
20
-42.894
11
164.42
21
-42.8897
0
LINE
8
BLACK
6
CONTINUOUS
10
164.42
20
-42.8897
11
164.431
21
-42.8886
0
LINE
8
BLACK
6
CONTINUOUS
10
164.431
20
-42.8886
11
164.434
21
-42.8883
0
LINE
8
BLACK
6
CONTINUOUS
10
164.434
20
-42.8883
11
164.438
21
-42.8886
0
LINE
8
BLACK
6
CONTINUOUS
10
164.438
20
-42.8886
11
178.231
21
-42.8886
0
LINE
8
BLACK
6
CONTINUOUS
10
178.231
20
-42.8886
11
178.234
21
-42.8883
0
LINE
8
BLACK
6
CONTINUOUS
10
178.234
20
-42.8883
11
178.238
21
-42.8886
0
LINE
8
BLACK
6
CONTINUOUS
10
164.509
20
-43.0386
11
164.509
21
-56.6886
0
LINE
8
BLACK
6
CONTINUOUS
10
164.509
20
-56.6886
11
178.159
21
-56.6886
0
LINE
8
BLACK
6
CONTINUOUS
10
178.159
20
-56.6886
11
178.159
21
-43.0386
0
LINE
8
BLACK
6
CONTINUOUS
10
178.159
20
-43.0386
11
164.509
21
-43.0386
0
LINE
8
BLACK
6
CONTINUOUS
10
140.138
20
-42.8886
11
140.149
21
-42.8897
0
LINE
8
BLACK
6
CONTINUOUS
10
140.149
20
-42.8897
11
140.163
21
-42.894
0
LINE
8
BLACK
6
CONTINUOUS
10
140.163
20
-42.894
11
140.176
21
-42.901
0
LINE
8
BLACK
6
CONTINUOUS
10
140.176
20
-42.901
11
140.188
21
-42.9104
0
LINE
8
BLACK
6
CONTINUOUS
10
140.188
20
-42.9104
11
140.197
21
-42.9218
0
LINE
8
BLACK
6
CONTINUOUS
10
140.197
20
-42.9218
11
140.204
21
-42.9348
0
LINE
8
BLACK
6
CONTINUOUS
10
140.204
20
-42.9348
11
140.208
21
-42.9489
0
LINE
8
BLACK
6
CONTINUOUS
10
140.208
20
-42.9489
11
140.21
21
-42.9636
0
LINE
8
BLACK
6
CONTINUOUS
10
140.21
20
-42.9636
11
140.209
21
-42.9673
0
LINE
8
BLACK
6
CONTINUOUS
10
140.209
20
-42.9673
11
140.209
21
-56.76
0
LINE
8
BLACK
6
CONTINUOUS
10
140.209
20
-56.76
11
140.21
21
-56.7636
0
LINE
8
BLACK
6
CONTINUOUS
10
140.21
20
-56.7636
11
140.208
21
-56.7783
0
LINE
8
BLACK
6
CONTINUOUS
10
140.208
20
-56.7783
11
140.204
21
-56.7925
0
LINE
8
BLACK
6
CONTINUOUS
10
140.204
20
-56.7925
11
140.197
21
-56.8055
0
LINE
8
BLACK
6
CONTINUOUS
10
140.197
20
-56.8055
11
140.188
21
-56.8169
0
LINE
8
BLACK
6
CONTINUOUS
10
140.188
20
-56.8169
11
140.176
21
-56.8263
0
LINE
8
BLACK
6
CONTINUOUS
10
140.176
20
-56.8263
11
140.163
21
-56.8333
0
LINE
8
BLACK
6
CONTINUOUS
10
140.163
20
-56.8333
11
140.149
21
-56.8376
0
LINE
8
BLACK
6
CONTINUOUS
10
140.149
20
-56.8376
11
140.138
21
-56.8386
0
LINE
8
BLACK
6
CONTINUOUS
10
140.138
20
-56.8386
11
140.134
21
-56.839
0
LINE
8
BLACK
6
CONTINUOUS
10
140.134
20
-56.839
11
140.131
21
-56.8386
0
LINE
8
BLACK
6
CONTINUOUS
10
140.131
20
-56.8386
11
126.338
21
-56.8386
0
LINE
8
BLACK
6
CONTINUOUS
10
126.338
20
-56.8386
11
126.334
21
-56.839
0
LINE
8
BLACK
6
CONTINUOUS
10
126.334
20
-56.839
11
126.32
21
-56.8376
0
LINE
8
BLACK
6
CONTINUOUS
10
126.32
20
-56.8376
11
126.306
21
-56.8333
0
LINE
8
BLACK
6
CONTINUOUS
10
126.306
20
-56.8333
11
126.293
21
-56.8263
0
LINE
8
BLACK
6
CONTINUOUS
10
126.293
20
-56.8263
11
126.281
21
-56.8169
0
LINE
8
BLACK
6
CONTINUOUS
10
126.281
20
-56.8169
11
126.272
21
-56.8055
0
LINE
8
BLACK
6
CONTINUOUS
10
126.272
20
-56.8055
11
126.265
21
-56.7925
0
LINE
8
BLACK
6
CONTINUOUS
10
126.265
20
-56.7925
11
126.261
21
-56.7783
0
LINE
8
BLACK
6
CONTINUOUS
10
126.261
20
-56.7783
11
126.259
21
-56.7636
0
LINE
8
BLACK
6
CONTINUOUS
10
126.259
20
-56.7636
11
126.259
21
-56.76
0
LINE
8
BLACK
6
CONTINUOUS
10
126.259
20
-56.76
11
126.259
21
-42.9673
0
LINE
8
BLACK
6
CONTINUOUS
10
126.259
20
-42.9673
11
126.259
21
-42.9636
0
LINE
8
BLACK
6
CONTINUOUS
10
126.259
20
-42.9636
11
126.261
21
-42.9489
0
LINE
8
BLACK
6
CONTINUOUS
10
126.261
20
-42.9489
11
126.265
21
-42.9348
0
LINE
8
BLACK
6
CONTINUOUS
10
126.265
20
-42.9348
11
126.272
21
-42.9218
0
LINE
8
BLACK
6
CONTINUOUS
10
126.272
20
-42.9218
11
126.281
21
-42.9104
0
LINE
8
BLACK
6
CONTINUOUS
10
126.281
20
-42.9104
11
126.293
21
-42.901
0
LINE
8
BLACK
6
CONTINUOUS
10
126.293
20
-42.901
11
126.306
21
-42.894
0
LINE
8
BLACK
6
CONTINUOUS
10
126.306
20
-42.894
11
126.32
21
-42.8897
0
LINE
8
BLACK
6
CONTINUOUS
10
126.32
20
-42.8897
11
126.331
21
-42.8886
0
LINE
8
BLACK
6
CONTINUOUS
10
126.331
20
-42.8886
11
126.334
21
-42.8883
0
LINE
8
BLACK
6
CONTINUOUS
10
126.334
20
-42.8883
11
126.338
21
-42.8886
0
LINE
8
BLACK
6
CONTINUOUS
10
126.338
20
-42.8886
11
140.131
21
-42.8886
0
LINE
8
BLACK
6
CONTINUOUS
10
140.131
20
-42.8886
11
140.134
21
-42.8883
0
LINE
8
BLACK
6
CONTINUOUS
10
140.134
20
-42.8883
11
140.138
21
-42.8886
0
LINE
8
BLACK
6
CONTINUOUS
10
126.409
20
-43.0386
11
126.409
21
-56.6886
0
LINE
8
BLACK
6
CONTINUOUS
10
126.409
20
-56.6886
11
140.059
21
-56.6886
0
LINE
8
BLACK
6
CONTINUOUS
10
140.059
20
-56.6886
11
140.059
21
-43.0386
0
LINE
8
BLACK
6
CONTINUOUS
10
140.059
20
-43.0386
11
126.409
21
-43.0386
0
LINE
8
BLACK
6
CONTINUOUS
10
159.188
20
-42.8886
11
159.199
21
-42.8897
0
LINE
8
BLACK
6
CONTINUOUS
10
159.199
20
-42.8897
11
159.213
21
-42.894
0
LINE
8
BLACK
6
CONTINUOUS
10
159.213
20
-42.894
11
159.226
21
-42.901
0
LINE
8
BLACK
6
CONTINUOUS
10
159.226
20
-42.901
11
159.238
21
-42.9104
0
LINE
8
BLACK
6
CONTINUOUS
10
159.238
20
-42.9104
11
159.247
21
-42.9218
0
LINE
8
BLACK
6
CONTINUOUS
10
159.247
20
-42.9218
11
159.254
21
-42.9348
0
LINE
8
BLACK
6
CONTINUOUS
10
159.254
20
-42.9348
11
159.258
21
-42.9489
0
LINE
8
BLACK
6
CONTINUOUS
10
159.258
20
-42.9489
11
159.26
21
-42.9636
0
LINE
8
BLACK
6
CONTINUOUS
10
159.26
20
-42.9636
11
159.259
21
-42.9673
0
LINE
8
BLACK
6
CONTINUOUS
10
159.259
20
-42.9673
11
159.259
21
-56.76
0
LINE
8
BLACK
6
CONTINUOUS
10
159.259
20
-56.76
11
159.26
21
-56.7636
0
LINE
8
BLACK
6
CONTINUOUS
10
159.26
20
-56.7636
11
159.258
21
-56.7783
0
LINE
8
BLACK
6
CONTINUOUS
10
159.258
20
-56.7783
11
159.254
21
-56.7925
0
LINE
8
BLACK
6
CONTINUOUS
10
159.254
20
-56.7925
11
159.247
21
-56.8055
0
LINE
8
BLACK
6
CONTINUOUS
10
159.247
20
-56.8055
11
159.238
21
-56.8169
0
LINE
8
BLACK
6
CONTINUOUS
10
159.238
20
-56.8169
11
159.226
21
-56.8263
0
LINE
8
BLACK
6
CONTINUOUS
10
159.226
20
-56.8263
11
159.213
21
-56.8333
0
LINE
8
BLACK
6
CONTINUOUS
10
159.213
20
-56.8333
11
159.199
21
-56.8376
0
LINE
8
BLACK
6
CONTINUOUS
10
159.199
20
-56.8376
11
159.188
21
-56.8386
0
LINE
8
BLACK
6
CONTINUOUS
10
159.188
20
-56.8386
11
159.184
21
-56.839
0
LINE
8
BLACK
6
CONTINUOUS
10
159.184
20
-56.839
11
159.181
21
-56.8386
0
LINE
8
BLACK
6
CONTINUOUS
10
159.181
20
-56.8386
11
145.388
21
-56.8386
0
LINE
8
BLACK
6
CONTINUOUS
10
145.388
20
-56.8386
11
145.384
21
-56.839
0
LINE
8
BLACK
6
CONTINUOUS
10
145.384
20
-56.839
11
145.37
21
-56.8376
0
LINE
8
BLACK
6
CONTINUOUS
10
145.37
20
-56.8376
11
145.356
21
-56.8333
0
LINE
8
BLACK
6
CONTINUOUS
10
145.356
20
-56.8333
11
145.343
21
-56.8263
0
LINE
8
BLACK
6
CONTINUOUS
10
145.343
20
-56.8263
11
145.331
21
-56.8169
0
LINE
8
BLACK
6
CONTINUOUS
10
145.331
20
-56.8169
11
145.322
21
-56.8055
0
LINE
8
BLACK
6
CONTINUOUS
10
145.322
20
-56.8055
11
145.315
21
-56.7925
0
LINE
8
BLACK
6
CONTINUOUS
10
145.315
20
-56.7925
11
145.311
21
-56.7783
0
LINE
8
BLACK
6
CONTINUOUS
10
145.311
20
-56.7783
11
145.309
21
-56.7636
0
LINE
8
BLACK
6
CONTINUOUS
10
145.309
20
-56.7636
11
145.309
21
-56.76
0
LINE
8
BLACK
6
CONTINUOUS
10
145.309
20
-56.76
11
145.309
21
-42.9673
0
LINE
8
BLACK
6
CONTINUOUS
10
145.309
20
-42.9673
11
145.309
21
-42.9636
0
LINE
8
BLACK
6
CONTINUOUS
10
145.309
20
-42.9636
11
145.311
21
-42.9489
0
LINE
8
BLACK
6
CONTINUOUS
10
145.311
20
-42.9489
11
145.315
21
-42.9348
0
LINE
8
BLACK
6
CONTINUOUS
10
145.315
20
-42.9348
11
145.322
21
-42.9218
0
LINE
8
BLACK
6
CONTINUOUS
10
145.322
20
-42.9218
11
145.331
21
-42.9104
0
LINE
8
BLACK
6
CONTINUOUS
10
145.331
20
-42.9104
11
145.343
21
-42.901
0
LINE
8
BLACK
6
CONTINUOUS
10
145.343
20
-42.901
11
145.356
21
-42.894
0
LINE
8
BLACK
6
CONTINUOUS
10
145.356
20
-42.894
11
145.37
21
-42.8897
0
LINE
8
BLACK
6
CONTINUOUS
10
145.37
20
-42.8897
11
145.381
21
-42.8886
0
LINE
8
BLACK
6
CONTINUOUS
10
145.381
20
-42.8886
11
145.384
21
-42.8883
0
LINE
8
BLACK
6
CONTINUOUS
10
145.384
20
-42.8883
11
145.388
21
-42.8886
0
LINE
8
BLACK
6
CONTINUOUS
10
145.388
20
-42.8886
11
159.181
21
-42.8886
0
LINE
8
BLACK
6
CONTINUOUS
10
159.181
20
-42.8886
11
159.184
21
-42.8883
0
LINE
8
BLACK
6
CONTINUOUS
10
159.184
20
-42.8883
11
159.188
21
-42.8886
0
LINE
8
BLACK
6
CONTINUOUS
10
145.459
20
-43.0386
11
145.459
21
-56.6886
0
LINE
8
BLACK
6
CONTINUOUS
10
145.459
20
-56.6886
11
159.109
21
-56.6886
0
LINE
8
BLACK
6
CONTINUOUS
10
159.109
20
-56.6886
11
159.109
21
-43.0386
0
LINE
8
BLACK
6
CONTINUOUS
10
159.109
20
-43.0386
11
145.459
21
-43.0386
0
LINE
8
BLACK
6
CONTINUOUS
10
102.038
20
-42.8886
11
102.049
21
-42.8897
0
LINE
8
BLACK
6
CONTINUOUS
10
102.049
20
-42.8897
11
102.063
21
-42.894
0
LINE
8
BLACK
6
CONTINUOUS
10
102.063
20
-42.894
11
102.076
21
-42.901
0
LINE
8
BLACK
6
CONTINUOUS
10
102.076
20
-42.901
11
102.088
21
-42.9104
0
LINE
8
BLACK
6
CONTINUOUS
10
102.088
20
-42.9104
11
102.097
21
-42.9218
0
LINE
8
BLACK
6
CONTINUOUS
10
102.097
20
-42.9218
11
102.104
21
-42.9348
0
LINE
8
BLACK
6
CONTINUOUS
10
102.104
20
-42.9348
11
102.108
21
-42.9489
0
LINE
8
BLACK
6
CONTINUOUS
10
102.108
20
-42.9489
11
102.11
21
-42.9636
0
LINE
8
BLACK
6
CONTINUOUS
10
102.11
20
-42.9636
11
102.109
21
-42.9673
0
LINE
8
BLACK
6
CONTINUOUS
10
102.109
20
-42.9673
11
102.109
21
-56.76
0
LINE
8
BLACK
6
CONTINUOUS
10
102.109
20
-56.76
11
102.11
21
-56.7636
0
LINE
8
BLACK
6
CONTINUOUS
10
102.11
20
-56.7636
11
102.108
21
-56.7783
0
LINE
8
BLACK
6
CONTINUOUS
10
102.108
20
-56.7783
11
102.104
21
-56.7925
0
LINE
8
BLACK
6
CONTINUOUS
10
102.104
20
-56.7925
11
102.097
21
-56.8055
0
LINE
8
BLACK
6
CONTINUOUS
10
102.097
20
-56.8055
11
102.088
21
-56.8169
0
LINE
8
BLACK
6
CONTINUOUS
10
102.088
20
-56.8169
11
102.076
21
-56.8263
0
LINE
8
BLACK
6
CONTINUOUS
10
102.076
20
-56.8263
11
102.063
21
-56.8333
0
LINE
8
BLACK
6
CONTINUOUS
10
102.063
20
-56.8333
11
102.049
21
-56.8376
0
LINE
8
BLACK
6
CONTINUOUS
10
102.049
20
-56.8376
11
102.038
21
-56.8386
0
LINE
8
BLACK
6
CONTINUOUS
10
102.038
20
-56.8386
11
102.034
21
-56.839
0
LINE
8
BLACK
6
CONTINUOUS
10
102.034
20
-56.839
11
102.031
21
-56.8386
0
LINE
8
BLACK
6
CONTINUOUS
10
102.031
20
-56.8386
11
88.2381
21
-56.8386
0
LINE
8
BLACK
6
CONTINUOUS
10
88.2381
20
-56.8386
11
88.2344
21
-56.839
0
LINE
8
BLACK
6
CONTINUOUS
10
88.2344
20
-56.839
11
88.2197
21
-56.8376
0
LINE
8
BLACK
6
CONTINUOUS
10
88.2197
20
-56.8376
11
88.2056
21
-56.8333
0
LINE
8
BLACK
6
CONTINUOUS
10
88.2056
20
-56.8333
11
88.1926
21
-56.8263
0
LINE
8
BLACK
6
CONTINUOUS
10
88.1926
20
-56.8263
11
88.1811
21
-56.8169
0
LINE
8
BLACK
6
CONTINUOUS
10
88.1811
20
-56.8169
11
88.1718
21
-56.8055
0
LINE
8
BLACK
6
CONTINUOUS
10
88.1718
20
-56.8055
11
88.1648
21
-56.7925
0
LINE
8
BLACK
6
CONTINUOUS
10
88.1648
20
-56.7925
11
88.1605
21
-56.7783
0
LINE
8
BLACK
6
CONTINUOUS
10
88.1605
20
-56.7783
11
88.1591
21
-56.7636
0
LINE
8
BLACK
6
CONTINUOUS
10
88.1591
20
-56.7636
11
88.1594
21
-56.76
0
LINE
8
BLACK
6
CONTINUOUS
10
88.1594
20
-56.76
11
88.1594
21
-42.9673
0
LINE
8
BLACK
6
CONTINUOUS
10
88.1594
20
-42.9673
11
88.1591
21
-42.9636
0
LINE
8
BLACK
6
CONTINUOUS
10
88.1591
20
-42.9636
11
88.1605
21
-42.9489
0
LINE
8
BLACK
6
CONTINUOUS
10
88.1605
20
-42.9489
11
88.1648
21
-42.9348
0
LINE
8
BLACK
6
CONTINUOUS
10
88.1648
20
-42.9348
11
88.1718
21
-42.9218
0
LINE
8
BLACK
6
CONTINUOUS
10
88.1718
20
-42.9218
11
88.1811
21
-42.9104
0
LINE
8
BLACK
6
CONTINUOUS
10
88.1811
20
-42.9104
11
88.1926
21
-42.901
0
LINE
8
BLACK
6
CONTINUOUS
10
88.1926
20
-42.901
11
88.2056
21
-42.894
0
LINE
8
BLACK
6
CONTINUOUS
10
88.2056
20
-42.894
11
88.2197
21
-42.8897
0
LINE
8
BLACK
6
CONTINUOUS
10
88.2197
20
-42.8897
11
88.2307
21
-42.8886
0
LINE
8
BLACK
6
CONTINUOUS
10
88.2307
20
-42.8886
11
88.2344
21
-42.8883
0
LINE
8
BLACK
6
CONTINUOUS
10
88.2344
20
-42.8883
11
88.2381
21
-42.8886
0
LINE
8
BLACK
6
CONTINUOUS
10
88.2381
20
-42.8886
11
102.031
21
-42.8886
0
LINE
8
BLACK
6
CONTINUOUS
10
102.031
20
-42.8886
11
102.034
21
-42.8883
0
LINE
8
BLACK
6
CONTINUOUS
10
102.034
20
-42.8883
11
102.038
21
-42.8886
0
LINE
8
BLACK
6
CONTINUOUS
10
88.3094
20
-43.0386
11
88.3094
21
-56.6886
0
LINE
8
BLACK
6
CONTINUOUS
10
88.3094
20
-56.6886
11
101.959
21
-56.6886
0
LINE
8
BLACK
6
CONTINUOUS
10
101.959
20
-56.6886
11
101.959
21
-43.0386
0
LINE
8
BLACK
6
CONTINUOUS
10
101.959
20
-43.0386
11
88.3094
21
-43.0386
0
LINE
8
BLACK
6
CONTINUOUS
10
121.088
20
-42.8886
11
121.099
21
-42.8897
0
LINE
8
BLACK
6
CONTINUOUS
10
121.099
20
-42.8897
11
121.113
21
-42.894
0
LINE
8
BLACK
6
CONTINUOUS
10
121.113
20
-42.894
11
121.126
21
-42.901
0
LINE
8
BLACK
6
CONTINUOUS
10
121.126
20
-42.901
11
121.138
21
-42.9104
0
LINE
8
BLACK
6
CONTINUOUS
10
121.138
20
-42.9104
11
121.147
21
-42.9218
0
LINE
8
BLACK
6
CONTINUOUS
10
121.147
20
-42.9218
11
121.154
21
-42.9348
0
LINE
8
BLACK
6
CONTINUOUS
10
121.154
20
-42.9348
11
121.158
21
-42.9489
0
LINE
8
BLACK
6
CONTINUOUS
10
121.158
20
-42.9489
11
121.16
21
-42.9636
0
LINE
8
BLACK
6
CONTINUOUS
10
121.16
20
-42.9636
11
121.159
21
-42.9673
0
LINE
8
BLACK
6
CONTINUOUS
10
121.159
20
-42.9673
11
121.159
21
-56.76
0
LINE
8
BLACK
6
CONTINUOUS
10
121.159
20
-56.76
11
121.16
21
-56.7636
0
LINE
8
BLACK
6
CONTINUOUS
10
121.16
20
-56.7636
11
121.158
21
-56.7783
0
LINE
8
BLACK
6
CONTINUOUS
10
121.158
20
-56.7783
11
121.154
21
-56.7925
0
LINE
8
BLACK
6
CONTINUOUS
10
121.154
20
-56.7925
11
121.147
21
-56.8055
0
LINE
8
BLACK
6
CONTINUOUS
10
121.147
20
-56.8055
11
121.138
21
-56.8169
0
LINE
8
BLACK
6
CONTINUOUS
10
121.138
20
-56.8169
11
121.126
21
-56.8263
0
LINE
8
BLACK
6
CONTINUOUS
10
121.126
20
-56.8263
11
121.113
21
-56.8333
0
LINE
8
BLACK
6
CONTINUOUS
10
121.113
20
-56.8333
11
121.099
21
-56.8376
0
LINE
8
BLACK
6
CONTINUOUS
10
121.099
20
-56.8376
11
121.088
21
-56.8386
0
LINE
8
BLACK
6
CONTINUOUS
10
121.088
20
-56.8386
11
121.084
21
-56.839
0
LINE
8
BLACK
6
CONTINUOUS
10
121.084
20
-56.839
11
121.081
21
-56.8386
0
LINE
8
BLACK
6
CONTINUOUS
10
121.081
20
-56.8386
11
107.288
21
-56.8386
0
LINE
8
BLACK
6
CONTINUOUS
10
107.288
20
-56.8386
11
107.284
21
-56.839
0
LINE
8
BLACK
6
CONTINUOUS
10
107.284
20
-56.839
11
107.27
21
-56.8376
0
LINE
8
BLACK
6
CONTINUOUS
10
107.27
20
-56.8376
11
107.256
21
-56.8333
0
LINE
8
BLACK
6
CONTINUOUS
10
107.256
20
-56.8333
11
107.243
21
-56.8263
0
LINE
8
BLACK
6
CONTINUOUS
10
107.243
20
-56.8263
11
107.231
21
-56.8169
0
LINE
8
BLACK
6
CONTINUOUS
10
107.231
20
-56.8169
11
107.222
21
-56.8055
0
LINE
8
BLACK
6
CONTINUOUS
10
107.222
20
-56.8055
11
107.215
21
-56.7925
0
LINE
8
BLACK
6
CONTINUOUS
10
107.215
20
-56.7925
11
107.211
21
-56.7783
0
LINE
8
BLACK
6
CONTINUOUS
10
107.211
20
-56.7783
11
107.209
21
-56.7636
0
LINE
8
BLACK
6
CONTINUOUS
10
107.209
20
-56.7636
11
107.209
21
-56.76
0
LINE
8
BLACK
6
CONTINUOUS
10
107.209
20
-56.76
11
107.209
21
-42.9673
0
LINE
8
BLACK
6
CONTINUOUS
10
107.209
20
-42.9673
11
107.209
21
-42.9636
0
LINE
8
BLACK
6
CONTINUOUS
10
107.209
20
-42.9636
11
107.211
21
-42.9489
0
LINE
8
BLACK
6
CONTINUOUS
10
107.211
20
-42.9489
11
107.215
21
-42.9348
0
LINE
8
BLACK
6
CONTINUOUS
10
107.215
20
-42.9348
11
107.222
21
-42.9218
0
LINE
8
BLACK
6
CONTINUOUS
10
107.222
20
-42.9218
11
107.231
21
-42.9104
0
LINE
8
BLACK
6
CONTINUOUS
10
107.231
20
-42.9104
11
107.243
21
-42.901
0
LINE
8
BLACK
6
CONTINUOUS
10
107.243
20
-42.901
11
107.256
21
-42.894
0
LINE
8
BLACK
6
CONTINUOUS
10
107.256
20
-42.894
11
107.27
21
-42.8897
0
LINE
8
BLACK
6
CONTINUOUS
10
107.27
20
-42.8897
11
107.281
21
-42.8886
0
LINE
8
BLACK
6
CONTINUOUS
10
107.281
20
-42.8886
11
107.284
21
-42.8883
0
LINE
8
BLACK
6
CONTINUOUS
10
107.284
20
-42.8883
11
107.288
21
-42.8886
0
LINE
8
BLACK
6
CONTINUOUS
10
107.288
20
-42.8886
11
121.081
21
-42.8886
0
LINE
8
BLACK
6
CONTINUOUS
10
121.081
20
-42.8886
11
121.084
21
-42.8883
0
LINE
8
BLACK
6
CONTINUOUS
10
121.084
20
-42.8883
11
121.088
21
-42.8886
0
LINE
8
BLACK
6
CONTINUOUS
10
107.359
20
-43.0386
11
107.359
21
-56.6886
0
LINE
8
BLACK
6
CONTINUOUS
10
107.359
20
-56.6886
11
121.009
21
-56.6886
0
LINE
8
BLACK
6
CONTINUOUS
10
121.009
20
-56.6886
11
121.009
21
-43.0386
0
LINE
8
BLACK
6
CONTINUOUS
10
121.009
20
-43.0386
11
107.359
21
-43.0386
  0
ENDSEC
  0
EOF
