  0
SECTION
  2
HEADER
  9
$ANGBASE
  50
0.0
  9
$ANGDIR
  70
1
  9
$MEASUREMENT
  70
1
  0
ENDSEC
  0
SECTION
  2
TABLES
  0
TABLE
  2
LTYPE
  70
4
  0
LTYPE
  5
40F
  2
CONTINUOUS
  70
0
  3
Solid line
  72
65
  73
0
  40
0.0
  0
LTYPE
  5
410
  2
DASHDOT
 70
0
  3
Dash Dot ____ _ ____ _
 72
65
 73
4
 40
2.0
 49
1.25
 49
-0.25
 49
0.25
 49
-0.25
  0
LTYPE
  5
411
  2
DASHED
 70
0
  3
Dashed __ __ __ __ __
 72
65
 73
2
 40
0.75
 49
0.5
 49
-0.25
  0
LTYPE
  5
43B
  2
DOTTED
 70
0
  3
Dotted .  .  .  .
 72
65
 73
2
 40
0.2
 49
0.0
 49
-0.2
  0
ENDTAB
  0
TABLE
  2
STYLE
  70
4
  0
STYLE
  2
KICAD
  70
0
  40
0
  41
1
  42
1
  50
0
  71
0
  3
isocp.shx
  0
STYLE
  2
KICADB
  70
0
  40
0
  41
1
  42
1
  50
0
  71
0
  3
isocp.shx
  0
STYLE
  2
KICADI
  70
0
  40
0
  41
1
  42
1
  50
15
  71
0
  3
isocp.shx
  0
STYLE
  2
KICADBI
  70
0
  40
0
  41
1
  42
1
  50
15
  71
0
  3
isocp.shx
  0
ENDTAB
  0
TABLE
  2
LAYER
  70
1
  0
LAYER
  2
BLACK
  70
0
  62
7
  6
CONTINUOUS
  0
ENDTAB
  0
ENDSEC
  0
SECTION
  2
ENTITIES
0
LINE
8
BLACK
6
CONTINUOUS
10
200.402
20
-152.257
11
200.398
21
-152.258
0
LINE
8
BLACK
6
CONTINUOUS
10
200.398
20
-152.258
11
200.393
21
-152.258
0
LINE
8
BLACK
6
CONTINUOUS
10
200.393
20
-152.258
11
199.931
21
-152.307
0
LINE
8
BLACK
6
CONTINUOUS
10
199.931
20
-152.307
11
199.931
21
-152.307
0
LINE
8
BLACK
6
CONTINUOUS
10
199.931
20
-152.307
11
199.928
21
-152.307
0
LINE
8
BLACK
6
CONTINUOUS
10
199.928
20
-152.307
11
199.926
21
-152.307
0
LINE
8
BLACK
6
CONTINUOUS
10
199.926
20
-152.307
11
199.912
21
-152.307
0
LINE
8
BLACK
6
CONTINUOUS
10
199.912
20
-152.307
11
199.912
21
-152.307
0
LINE
8
BLACK
6
CONTINUOUS
10
199.912
20
-152.307
11
180.862
21
-152.307
0
LINE
8
BLACK
6
CONTINUOUS
10
180.862
20
-152.307
11
180.859
21
-152.308
0
LINE
8
BLACK
6
CONTINUOUS
10
180.859
20
-152.308
11
180.857
21
-152.307
0
LINE
8
BLACK
6
CONTINUOUS
10
180.857
20
-152.307
11
180.857
21
-152.307
0
LINE
8
BLACK
6
CONTINUOUS
10
180.857
20
-152.307
11
180.85
21
-152.307
0
LINE
8
BLACK
6
CONTINUOUS
10
180.85
20
-152.307
11
180.84
21
-152.304
0
LINE
8
BLACK
6
CONTINUOUS
10
180.84
20
-152.304
11
180.84
21
-152.303
0
LINE
8
BLACK
6
CONTINUOUS
10
180.84
20
-152.303
11
180.832
21
-152.299
0
LINE
8
BLACK
6
CONTINUOUS
10
180.832
20
-152.299
11
180.826
21
-152.294
0
LINE
8
BLACK
6
CONTINUOUS
10
180.826
20
-152.294
11
180.824
21
-152.293
0
LINE
8
BLACK
6
CONTINUOUS
10
180.824
20
-152.293
11
180.822
21
-152.291
0
LINE
8
BLACK
6
CONTINUOUS
10
180.822
20
-152.291
11
176.076
21
-147.545
0
LINE
8
BLACK
6
CONTINUOUS
10
176.076
20
-147.545
11
161.812
21
-147.545
0
LINE
8
BLACK
6
CONTINUOUS
10
161.812
20
-147.545
11
161.809
21
-147.545
0
LINE
8
BLACK
6
CONTINUOUS
10
161.809
20
-147.545
11
161.807
21
-147.545
0
LINE
8
BLACK
6
CONTINUOUS
10
161.807
20
-147.545
11
161.807
21
-147.545
0
LINE
8
BLACK
6
CONTINUOUS
10
161.807
20
-147.545
11
161.8
21
-147.544
0
LINE
8
BLACK
6
CONTINUOUS
10
161.8
20
-147.544
11
161.79
21
-147.541
0
LINE
8
BLACK
6
CONTINUOUS
10
161.79
20
-147.541
11
161.79
21
-147.541
0
LINE
8
BLACK
6
CONTINUOUS
10
161.79
20
-147.541
11
161.782
21
-147.537
0
LINE
8
BLACK
6
CONTINUOUS
10
161.782
20
-147.537
11
161.776
21
-147.532
0
LINE
8
BLACK
6
CONTINUOUS
10
161.776
20
-147.532
11
161.774
21
-147.53
0
LINE
8
BLACK
6
CONTINUOUS
10
161.774
20
-147.53
11
161.772
21
-147.529
0
LINE
8
BLACK
6
CONTINUOUS
10
161.772
20
-147.529
11
157.026
21
-142.782
0
LINE
8
BLACK
6
CONTINUOUS
10
157.026
20
-142.782
11
142.76
21
-142.782
0
LINE
8
BLACK
6
CONTINUOUS
10
142.76
20
-142.782
11
142.757
21
-142.783
0
LINE
8
BLACK
6
CONTINUOUS
10
142.757
20
-142.783
11
142.753
21
-142.782
0
LINE
8
BLACK
6
CONTINUOUS
10
142.753
20
-142.782
11
142.75
21
-142.782
0
LINE
8
BLACK
6
CONTINUOUS
10
142.75
20
-142.782
11
142.748
21
-142.781
0
LINE
8
BLACK
6
CONTINUOUS
10
142.748
20
-142.781
11
142.747
21
-142.781
0
LINE
8
BLACK
6
CONTINUOUS
10
142.747
20
-142.781
11
142.744
21
-142.78
0
LINE
8
BLACK
6
CONTINUOUS
10
142.744
20
-142.78
11
142.74
21
-142.779
0
LINE
8
BLACK
6
CONTINUOUS
10
142.74
20
-142.779
11
142.739
21
-142.778
0
LINE
8
BLACK
6
CONTINUOUS
10
142.739
20
-142.778
11
142.738
21
-142.778
0
LINE
8
BLACK
6
CONTINUOUS
10
142.738
20
-142.778
11
142.735
21
-142.776
0
LINE
8
BLACK
6
CONTINUOUS
10
142.735
20
-142.776
11
142.732
21
-142.774
0
LINE
8
BLACK
6
CONTINUOUS
10
142.732
20
-142.774
11
142.729
21
-142.772
0
LINE
8
BLACK
6
CONTINUOUS
10
142.729
20
-142.772
11
133.207
21
-135.631
0
LINE
8
BLACK
6
CONTINUOUS
10
133.207
20
-135.631
11
133.207
21
-135.63
0
LINE
8
BLACK
6
CONTINUOUS
10
133.207
20
-135.63
11
133.204
21
-135.628
0
LINE
8
BLACK
6
CONTINUOUS
10
133.204
20
-135.628
11
133.202
21
-135.627
0
LINE
8
BLACK
6
CONTINUOUS
10
133.202
20
-135.627
11
133.202
21
-135.626
0
LINE
8
BLACK
6
CONTINUOUS
10
133.202
20
-135.626
11
133.199
21
-135.624
0
LINE
8
BLACK
6
CONTINUOUS
10
133.199
20
-135.624
11
133.198
21
-135.623
0
LINE
8
BLACK
6
CONTINUOUS
10
133.198
20
-135.623
11
133.197
21
-135.622
0
LINE
8
BLACK
6
CONTINUOUS
10
133.197
20
-135.622
11
133.195
21
-135.619
0
LINE
8
BLACK
6
CONTINUOUS
10
133.195
20
-135.619
11
133.193
21
-135.617
0
LINE
8
BLACK
6
CONTINUOUS
10
133.193
20
-135.617
11
133.192
21
-135.615
0
LINE
8
BLACK
6
CONTINUOUS
10
133.192
20
-135.615
11
133.191
21
-135.614
0
LINE
8
BLACK
6
CONTINUOUS
10
133.191
20
-135.614
11
133.19
21
-135.611
0
LINE
8
BLACK
6
CONTINUOUS
10
133.19
20
-135.611
11
133.188
21
-135.608
0
LINE
8
BLACK
6
CONTINUOUS
10
133.188
20
-135.608
11
133.188
21
-135.607
0
LINE
8
BLACK
6
CONTINUOUS
10
133.188
20
-135.607
11
133.187
21
-135.605
0
LINE
8
BLACK
6
CONTINUOUS
10
133.187
20
-135.605
11
133.186
21
-135.602
0
LINE
8
BLACK
6
CONTINUOUS
10
133.186
20
-135.602
11
133.185
21
-135.598
0
LINE
8
BLACK
6
CONTINUOUS
10
133.185
20
-135.598
11
133.185
21
-135.597
0
LINE
8
BLACK
6
CONTINUOUS
10
133.185
20
-135.597
11
133.185
21
-135.596
0
LINE
8
BLACK
6
CONTINUOUS
10
133.185
20
-135.596
11
133.185
21
-135.592
0
LINE
8
BLACK
6
CONTINUOUS
10
133.185
20
-135.592
11
133.184
21
-135.591
0
LINE
8
BLACK
6
CONTINUOUS
10
133.184
20
-135.591
11
133.184
21
-135.59
0
LINE
8
BLACK
6
CONTINUOUS
10
133.184
20
-135.59
11
133.184
21
-135.586
0
LINE
8
BLACK
6
CONTINUOUS
10
133.184
20
-135.586
11
133.184
21
-135.585
0
LINE
8
BLACK
6
CONTINUOUS
10
133.184
20
-135.585
11
133.184
21
-128.466
0
LINE
8
BLACK
6
CONTINUOUS
10
133.184
20
-128.466
11
128.451
21
-123.732
0
LINE
8
BLACK
6
CONTINUOUS
10
128.451
20
-123.732
11
121.331
21
-123.732
0
LINE
8
BLACK
6
CONTINUOUS
10
121.331
20
-123.732
11
121.328
21
-123.733
0
LINE
8
BLACK
6
CONTINUOUS
10
121.328
20
-123.733
11
121.326
21
-123.732
0
LINE
8
BLACK
6
CONTINUOUS
10
121.326
20
-123.732
11
121.326
21
-123.732
0
LINE
8
BLACK
6
CONTINUOUS
10
121.326
20
-123.732
11
121.318
21
-123.732
0
LINE
8
BLACK
6
CONTINUOUS
10
121.318
20
-123.732
11
121.309
21
-123.729
0
LINE
8
BLACK
6
CONTINUOUS
10
121.309
20
-123.729
11
121.309
21
-123.729
0
LINE
8
BLACK
6
CONTINUOUS
10
121.309
20
-123.729
11
121.3
21
-123.724
0
LINE
8
BLACK
6
CONTINUOUS
10
121.3
20
-123.724
11
121.295
21
-123.719
0
LINE
8
BLACK
6
CONTINUOUS
10
121.295
20
-123.719
11
121.293
21
-123.718
0
LINE
8
BLACK
6
CONTINUOUS
10
121.293
20
-123.718
11
121.291
21
-123.716
0
LINE
8
BLACK
6
CONTINUOUS
10
121.291
20
-123.716
11
116.545
21
-118.97
0
LINE
8
BLACK
6
CONTINUOUS
10
116.545
20
-118.97
11
66.557
21
-118.97
0
LINE
8
BLACK
6
CONTINUOUS
10
66.557
20
-118.97
11
66.5545
21
-118.97
0
LINE
8
BLACK
6
CONTINUOUS
10
66.5545
20
-118.97
11
66.5545
21
-118.97
0
LINE
8
BLACK
6
CONTINUOUS
10
66.5545
20
-118.97
11
66.092
21
-118.924
0
LINE
8
BLACK
6
CONTINUOUS
10
66.092
20
-118.924
11
66.092
21
-118.924
0
LINE
8
BLACK
6
CONTINUOUS
10
66.092
20
-118.924
11
66.092
21
-118.924
0
LINE
8
BLACK
6
CONTINUOUS
10
66.092
20
-118.924
11
66.0913
21
-118.924
0
LINE
8
BLACK
6
CONTINUOUS
10
66.0913
20
-118.924
11
66.0869
21
-118.923
0
LINE
8
BLACK
6
CONTINUOUS
10
66.0869
20
-118.923
11
66.0824
21
-118.922
0
LINE
8
BLACK
6
CONTINUOUS
10
66.0824
20
-118.922
11
65.6375
21
-118.788
0
LINE
8
BLACK
6
CONTINUOUS
10
65.6375
20
-118.788
11
65.6369
21
-118.788
0
LINE
8
BLACK
6
CONTINUOUS
10
65.6369
20
-118.788
11
65.6327
21
-118.786
0
LINE
8
BLACK
6
CONTINUOUS
10
65.6327
20
-118.786
11
65.6285
21
-118.784
0
LINE
8
BLACK
6
CONTINUOUS
10
65.6285
20
-118.784
11
65.2182
21
-118.566
0
LINE
8
BLACK
6
CONTINUOUS
10
65.2182
20
-118.566
11
65.2176
21
-118.566
0
LINE
8
BLACK
6
CONTINUOUS
10
65.2176
20
-118.566
11
65.2138
21
-118.563
0
LINE
8
BLACK
6
CONTINUOUS
10
65.2138
20
-118.563
11
65.2101
21
-118.561
0
LINE
8
BLACK
6
CONTINUOUS
10
65.2101
20
-118.561
11
64.8499
21
-118.267
0
LINE
8
BLACK
6
CONTINUOUS
10
64.8499
20
-118.267
11
64.8494
21
-118.267
0
LINE
8
BLACK
6
CONTINUOUS
10
64.8494
20
-118.267
11
64.8462
21
-118.263
0
LINE
8
BLACK
6
CONTINUOUS
10
64.8462
20
-118.263
11
64.843
21
-118.26
0
LINE
8
BLACK
6
CONTINUOUS
10
64.843
20
-118.26
11
64.5468
21
-117.902
0
LINE
8
BLACK
6
CONTINUOUS
10
64.5468
20
-117.902
11
64.5467
21
-117.902
0
LINE
8
BLACK
6
CONTINUOUS
10
64.5467
20
-117.902
11
64.5467
21
-117.902
0
LINE
8
BLACK
6
CONTINUOUS
10
64.5467
20
-117.902
11
64.5463
21
-117.902
0
LINE
8
BLACK
6
CONTINUOUS
10
64.5463
20
-117.902
11
64.5438
21
-117.898
0
LINE
8
BLACK
6
CONTINUOUS
10
64.5438
20
-117.898
11
64.5413
21
-117.894
0
LINE
8
BLACK
6
CONTINUOUS
10
64.5413
20
-117.894
11
64.3203
21
-117.485
0
LINE
8
BLACK
6
CONTINUOUS
10
64.3203
20
-117.485
11
64.3203
21
-117.485
0
LINE
8
BLACK
6
CONTINUOUS
10
64.3203
20
-117.485
11
64.3202
21
-117.485
0
LINE
8
BLACK
6
CONTINUOUS
10
64.3202
20
-117.485
11
64.3199
21
-117.485
0
LINE
8
BLACK
6
CONTINUOUS
10
64.3199
20
-117.485
11
64.3182
21
-117.48
0
LINE
8
BLACK
6
CONTINUOUS
10
64.3182
20
-117.48
11
64.3165
21
-117.476
0
LINE
8
BLACK
6
CONTINUOUS
10
64.3165
20
-117.476
11
64.179
21
-117.032
0
LINE
8
BLACK
6
CONTINUOUS
10
64.179
20
-117.032
11
64.1788
21
-117.032
0
LINE
8
BLACK
6
CONTINUOUS
10
64.1788
20
-117.032
11
64.178
21
-117.027
0
LINE
8
BLACK
6
CONTINUOUS
10
64.178
20
-117.027
11
64.1771
21
-117.023
0
LINE
8
BLACK
6
CONTINUOUS
10
64.1771
20
-117.023
11
64.1285
21
-116.56
0
LINE
8
BLACK
6
CONTINUOUS
10
64.1285
20
-116.56
11
64.1284
21
-116.56
0
LINE
8
BLACK
6
CONTINUOUS
10
64.1284
20
-116.56
11
64.1284
21
-116.558
0
LINE
8
BLACK
6
CONTINUOUS
10
64.1284
20
-116.558
11
64.1282
21
-116.555
0
LINE
8
BLACK
6
CONTINUOUS
10
64.1282
20
-116.555
11
64.1282
21
-116.541
0
LINE
8
BLACK
6
CONTINUOUS
10
64.1282
20
-116.541
11
64.1282
21
-116.541
0
LINE
8
BLACK
6
CONTINUOUS
10
64.1282
20
-116.541
11
64.1282
21
-116.539
0
LINE
8
BLACK
6
CONTINUOUS
10
64.1282
20
-116.539
11
64.1282
21
-116.539
0
LINE
8
BLACK
6
CONTINUOUS
10
64.1282
20
-116.539
11
64.1282
21
-116.538
0
LINE
8
BLACK
6
CONTINUOUS
10
64.1282
20
-116.538
11
64.1282
21
-111.776
0
LINE
8
BLACK
6
CONTINUOUS
10
64.1282
20
-111.776
11
64.1281
21
-111.762
0
LINE
8
BLACK
6
CONTINUOUS
10
64.1281
20
-111.762
11
64.0803
21
-111.307
0
LINE
8
BLACK
6
CONTINUOUS
10
64.0803
20
-111.307
11
63.9458
21
-110.873
0
LINE
8
BLACK
6
CONTINUOUS
10
63.9458
20
-110.873
11
63.7294
21
-110.473
0
LINE
8
BLACK
6
CONTINUOUS
10
63.7294
20
-110.473
11
63.4394
21
-110.122
0
LINE
8
BLACK
6
CONTINUOUS
10
63.4394
20
-110.122
11
63.0869
21
-109.835
0
LINE
8
BLACK
6
CONTINUOUS
10
63.0869
20
-109.835
11
62.6852
21
-109.621
0
LINE
8
BLACK
6
CONTINUOUS
10
62.6852
20
-109.621
11
62.2497
21
-109.49
0
LINE
8
BLACK
6
CONTINUOUS
10
62.2497
20
-109.49
11
61.7945
21
-109.445
0
LINE
8
BLACK
6
CONTINUOUS
10
61.7945
20
-109.445
11
47.507
21
-109.445
0
LINE
8
BLACK
6
CONTINUOUS
10
47.507
20
-109.445
11
47.5045
21
-109.445
0
LINE
8
BLACK
6
CONTINUOUS
10
47.5045
20
-109.445
11
47.5045
21
-109.445
0
LINE
8
BLACK
6
CONTINUOUS
10
47.5045
20
-109.445
11
47.042
21
-109.399
0
LINE
8
BLACK
6
CONTINUOUS
10
47.042
20
-109.399
11
47.042
21
-109.399
0
LINE
8
BLACK
6
CONTINUOUS
10
47.042
20
-109.399
11
47.042
21
-109.399
0
LINE
8
BLACK
6
CONTINUOUS
10
47.042
20
-109.399
11
47.0413
21
-109.399
0
LINE
8
BLACK
6
CONTINUOUS
10
47.0413
20
-109.399
11
47.0369
21
-109.398
0
LINE
8
BLACK
6
CONTINUOUS
10
47.0369
20
-109.398
11
47.0324
21
-109.397
0
LINE
8
BLACK
6
CONTINUOUS
10
47.0324
20
-109.397
11
46.5875
21
-109.263
0
LINE
8
BLACK
6
CONTINUOUS
10
46.5875
20
-109.263
11
46.5869
21
-109.263
0
LINE
8
BLACK
6
CONTINUOUS
10
46.5869
20
-109.263
11
46.5827
21
-109.261
0
LINE
8
BLACK
6
CONTINUOUS
10
46.5827
20
-109.261
11
46.5785
21
-109.259
0
LINE
8
BLACK
6
CONTINUOUS
10
46.5785
20
-109.259
11
46.1682
21
-109.041
0
LINE
8
BLACK
6
CONTINUOUS
10
46.1682
20
-109.041
11
46.1676
21
-109.041
0
LINE
8
BLACK
6
CONTINUOUS
10
46.1676
20
-109.041
11
46.1638
21
-109.038
0
LINE
8
BLACK
6
CONTINUOUS
10
46.1638
20
-109.038
11
46.1601
21
-109.036
0
LINE
8
BLACK
6
CONTINUOUS
10
46.1601
20
-109.036
11
45.7999
21
-108.742
0
LINE
8
BLACK
6
CONTINUOUS
10
45.7999
20
-108.742
11
45.7994
21
-108.742
0
LINE
8
BLACK
6
CONTINUOUS
10
45.7994
20
-108.742
11
45.7962
21
-108.738
0
LINE
8
BLACK
6
CONTINUOUS
10
45.7962
20
-108.738
11
45.793
21
-108.735
0
LINE
8
BLACK
6
CONTINUOUS
10
45.793
20
-108.735
11
45.4968
21
-108.377
0
LINE
8
BLACK
6
CONTINUOUS
10
45.4968
20
-108.377
11
45.4967
21
-108.377
0
LINE
8
BLACK
6
CONTINUOUS
10
45.4967
20
-108.377
11
45.4967
21
-108.377
0
LINE
8
BLACK
6
CONTINUOUS
10
45.4967
20
-108.377
11
45.4963
21
-108.377
0
LINE
8
BLACK
6
CONTINUOUS
10
45.4963
20
-108.377
11
45.4938
21
-108.373
0
LINE
8
BLACK
6
CONTINUOUS
10
45.4938
20
-108.373
11
45.4913
21
-108.369
0
LINE
8
BLACK
6
CONTINUOUS
10
45.4913
20
-108.369
11
45.2703
21
-107.96
0
LINE
8
BLACK
6
CONTINUOUS
10
45.2703
20
-107.96
11
45.2702
21
-107.96
0
LINE
8
BLACK
6
CONTINUOUS
10
45.2702
20
-107.96
11
45.2702
21
-107.96
0
LINE
8
BLACK
6
CONTINUOUS
10
45.2702
20
-107.96
11
45.2699
21
-107.96
0
LINE
8
BLACK
6
CONTINUOUS
10
45.2699
20
-107.96
11
45.2682
21
-107.955
0
LINE
8
BLACK
6
CONTINUOUS
10
45.2682
20
-107.955
11
45.2665
21
-107.951
0
LINE
8
BLACK
6
CONTINUOUS
10
45.2665
20
-107.951
11
45.129
21
-107.507
0
LINE
8
BLACK
6
CONTINUOUS
10
45.129
20
-107.507
11
45.1288
21
-107.507
0
LINE
8
BLACK
6
CONTINUOUS
10
45.1288
20
-107.507
11
45.128
21
-107.502
0
LINE
8
BLACK
6
CONTINUOUS
10
45.128
20
-107.502
11
45.1271
21
-107.498
0
LINE
8
BLACK
6
CONTINUOUS
10
45.1271
20
-107.498
11
45.0785
21
-107.035
0
LINE
8
BLACK
6
CONTINUOUS
10
45.0785
20
-107.035
11
45.0784
21
-107.035
0
LINE
8
BLACK
6
CONTINUOUS
10
45.0784
20
-107.035
11
45.0784
21
-107.033
0
LINE
8
BLACK
6
CONTINUOUS
10
45.0784
20
-107.033
11
45.0782
21
-107.03
0
LINE
8
BLACK
6
CONTINUOUS
10
45.0782
20
-107.03
11
45.0782
21
-107.016
0
LINE
8
BLACK
6
CONTINUOUS
10
45.0782
20
-107.016
11
45.0782
21
-107.016
0
LINE
8
BLACK
6
CONTINUOUS
10
45.0782
20
-107.016
11
45.0782
21
-107.014
0
LINE
8
BLACK
6
CONTINUOUS
10
45.0782
20
-107.014
11
45.0782
21
-107.014
0
LINE
8
BLACK
6
CONTINUOUS
10
45.0782
20
-107.014
11
45.0782
21
-107.013
0
LINE
8
BLACK
6
CONTINUOUS
10
45.0782
20
-107.013
11
45.0782
21
-87.9612
0
LINE
8
BLACK
6
CONTINUOUS
10
45.0782
20
-87.9612
11
45.0784
21
-87.9588
0
LINE
8
BLACK
6
CONTINUOUS
10
45.0784
20
-87.9588
11
45.1238
21
-87.4962
0
LINE
8
BLACK
6
CONTINUOUS
10
45.1238
20
-87.4962
11
45.1238
21
-87.4962
0
LINE
8
BLACK
6
CONTINUOUS
10
45.1238
20
-87.4962
11
45.1238
21
-87.4962
0
LINE
8
BLACK
6
CONTINUOUS
10
45.1238
20
-87.4962
11
45.1238
21
-87.4955
0
LINE
8
BLACK
6
CONTINUOUS
10
45.1238
20
-87.4955
11
45.1248
21
-87.4912
0
LINE
8
BLACK
6
CONTINUOUS
10
45.1248
20
-87.4912
11
45.1257
21
-87.4867
0
LINE
8
BLACK
6
CONTINUOUS
10
45.1257
20
-87.4867
11
45.26
21
-87.0418
0
LINE
8
BLACK
6
CONTINUOUS
10
45.26
20
-87.0418
11
45.2602
21
-87.0411
0
LINE
8
BLACK
6
CONTINUOUS
10
45.2602
20
-87.0411
11
45.262
21
-87.0369
0
LINE
8
BLACK
6
CONTINUOUS
10
45.262
20
-87.0369
11
45.2637
21
-87.0327
0
LINE
8
BLACK
6
CONTINUOUS
10
45.2637
20
-87.0327
11
45.4819
21
-86.6224
0
LINE
8
BLACK
6
CONTINUOUS
10
45.4819
20
-86.6224
11
45.4819
21
-86.6224
0
LINE
8
BLACK
6
CONTINUOUS
10
45.4819
20
-86.6224
11
45.4819
21
-86.6224
0
LINE
8
BLACK
6
CONTINUOUS
10
45.4819
20
-86.6224
11
45.4822
21
-86.6218
0
LINE
8
BLACK
6
CONTINUOUS
10
45.4822
20
-86.6218
11
45.4848
21
-86.6181
0
LINE
8
BLACK
6
CONTINUOUS
10
45.4848
20
-86.6181
11
45.4873
21
-86.6143
0
LINE
8
BLACK
6
CONTINUOUS
10
45.4873
20
-86.6143
11
45.781
21
-86.2541
0
LINE
8
BLACK
6
CONTINUOUS
10
45.781
20
-86.2541
11
45.781
21
-86.2541
0
LINE
8
BLACK
6
CONTINUOUS
10
45.781
20
-86.2541
11
45.781
21
-86.2541
0
LINE
8
BLACK
6
CONTINUOUS
10
45.781
20
-86.2541
11
45.7815
21
-86.2536
0
LINE
8
BLACK
6
CONTINUOUS
10
45.7815
20
-86.2536
11
45.7847
21
-86.2504
0
LINE
8
BLACK
6
CONTINUOUS
10
45.7847
20
-86.2504
11
45.7879
21
-86.2472
0
LINE
8
BLACK
6
CONTINUOUS
10
45.7879
20
-86.2472
11
46.146
21
-85.951
0
LINE
8
BLACK
6
CONTINUOUS
10
46.146
20
-85.951
11
46.146
21
-85.951
0
LINE
8
BLACK
6
CONTINUOUS
10
46.146
20
-85.951
11
46.146
21
-85.951
0
LINE
8
BLACK
6
CONTINUOUS
10
46.146
20
-85.951
11
46.1465
21
-85.9505
0
LINE
8
BLACK
6
CONTINUOUS
10
46.1465
20
-85.9505
11
46.1503
21
-85.9481
0
LINE
8
BLACK
6
CONTINUOUS
10
46.1503
20
-85.9481
11
46.1541
21
-85.9455
0
LINE
8
BLACK
6
CONTINUOUS
10
46.1541
20
-85.9455
11
46.5629
21
-85.7245
0
LINE
8
BLACK
6
CONTINUOUS
10
46.5629
20
-85.7245
11
46.5629
21
-85.7245
0
LINE
8
BLACK
6
CONTINUOUS
10
46.5629
20
-85.7245
11
46.5629
21
-85.7245
0
LINE
8
BLACK
6
CONTINUOUS
10
46.5629
20
-85.7245
11
46.5635
21
-85.7241
0
LINE
8
BLACK
6
CONTINUOUS
10
46.5635
20
-85.7241
11
46.5677
21
-85.7225
0
LINE
8
BLACK
6
CONTINUOUS
10
46.5677
20
-85.7225
11
46.5719
21
-85.7207
0
LINE
8
BLACK
6
CONTINUOUS
10
46.5719
20
-85.7207
11
47.0158
21
-85.5833
0
LINE
8
BLACK
6
CONTINUOUS
10
47.0158
20
-85.5833
11
47.0158
21
-85.5833
0
LINE
8
BLACK
6
CONTINUOUS
10
47.0158
20
-85.5833
11
47.0165
21
-85.5831
0
LINE
8
BLACK
6
CONTINUOUS
10
47.0165
20
-85.5831
11
47.0209
21
-85.5822
0
LINE
8
BLACK
6
CONTINUOUS
10
47.0209
20
-85.5822
11
47.0254
21
-85.5813
0
LINE
8
BLACK
6
CONTINUOUS
10
47.0254
20
-85.5813
11
47.4876
21
-85.5327
0
LINE
8
BLACK
6
CONTINUOUS
10
47.4876
20
-85.5327
11
47.4883
21
-85.5327
0
LINE
8
BLACK
6
CONTINUOUS
10
47.4883
20
-85.5327
11
47.4904
21
-85.5327
0
LINE
8
BLACK
6
CONTINUOUS
10
47.4904
20
-85.5327
11
47.4926
21
-85.5324
0
LINE
8
BLACK
6
CONTINUOUS
10
47.4926
20
-85.5324
11
47.5069
21
-85.5324
0
LINE
8
BLACK
6
CONTINUOUS
10
47.5069
20
-85.5324
11
47.507
21
-85.5324
0
LINE
8
BLACK
6
CONTINUOUS
10
47.507
20
-85.5324
11
61.7967
21
-85.5324
0
LINE
8
BLACK
6
CONTINUOUS
10
61.7967
20
-85.5324
11
61.8108
21
-85.5323
0
LINE
8
BLACK
6
CONTINUOUS
10
61.8108
20
-85.5323
11
62.2656
21
-85.4845
0
LINE
8
BLACK
6
CONTINUOUS
10
62.2656
20
-85.4845
11
62.7002
21
-85.35
0
LINE
8
BLACK
6
CONTINUOUS
10
62.7002
20
-85.35
11
63.1004
21
-85.1336
0
LINE
8
BLACK
6
CONTINUOUS
10
63.1004
20
-85.1336
11
63.4509
21
-84.8436
0
LINE
8
BLACK
6
CONTINUOUS
10
63.4509
20
-84.8436
11
63.7385
21
-84.4911
0
LINE
8
BLACK
6
CONTINUOUS
10
63.7385
20
-84.4911
11
63.952
21
-84.0894
0
LINE
8
BLACK
6
CONTINUOUS
10
63.952
20
-84.0894
11
64.0835
21
-83.6539
0
LINE
8
BLACK
6
CONTINUOUS
10
64.0835
20
-83.6539
11
64.1282
21
-83.1987
0
LINE
8
BLACK
6
CONTINUOUS
10
64.1282
20
-83.1987
11
64.1282
21
-59.3862
0
LINE
8
BLACK
6
CONTINUOUS
10
64.1282
20
-59.3862
11
64.1284
21
-59.3838
0
LINE
8
BLACK
6
CONTINUOUS
10
64.1284
20
-59.3838
11
64.1738
21
-58.9213
0
LINE
8
BLACK
6
CONTINUOUS
10
64.1738
20
-58.9213
11
64.1738
21
-58.9212
0
LINE
8
BLACK
6
CONTINUOUS
10
64.1738
20
-58.9212
11
64.1738
21
-58.9212
0
LINE
8
BLACK
6
CONTINUOUS
10
64.1738
20
-58.9212
11
64.1738
21
-58.9205
0
LINE
8
BLACK
6
CONTINUOUS
10
64.1738
20
-58.9205
11
64.1748
21
-58.9162
0
LINE
8
BLACK
6
CONTINUOUS
10
64.1748
20
-58.9162
11
64.1757
21
-58.9117
0
LINE
8
BLACK
6
CONTINUOUS
10
64.1757
20
-58.9117
11
64.31
21
-58.4668
0
LINE
8
BLACK
6
CONTINUOUS
10
64.31
20
-58.4668
11
64.3102
21
-58.4661
0
LINE
8
BLACK
6
CONTINUOUS
10
64.3102
20
-58.4661
11
64.312
21
-58.4619
0
LINE
8
BLACK
6
CONTINUOUS
10
64.312
20
-58.4619
11
64.3137
21
-58.4577
0
LINE
8
BLACK
6
CONTINUOUS
10
64.3137
20
-58.4577
11
64.5319
21
-58.0474
0
LINE
8
BLACK
6
CONTINUOUS
10
64.5319
20
-58.0474
11
64.5319
21
-58.0474
0
LINE
8
BLACK
6
CONTINUOUS
10
64.5319
20
-58.0474
11
64.5319
21
-58.0474
0
LINE
8
BLACK
6
CONTINUOUS
10
64.5319
20
-58.0474
11
64.5322
21
-58.0468
0
LINE
8
BLACK
6
CONTINUOUS
10
64.5322
20
-58.0468
11
64.5348
21
-58.0431
0
LINE
8
BLACK
6
CONTINUOUS
10
64.5348
20
-58.0431
11
64.5373
21
-58.0393
0
LINE
8
BLACK
6
CONTINUOUS
10
64.5373
20
-58.0393
11
64.831
21
-57.6791
0
LINE
8
BLACK
6
CONTINUOUS
10
64.831
20
-57.6791
11
64.831
21
-57.6791
0
LINE
8
BLACK
6
CONTINUOUS
10
64.831
20
-57.6791
11
64.831
21
-57.6791
0
LINE
8
BLACK
6
CONTINUOUS
10
64.831
20
-57.6791
11
64.8315
21
-57.6786
0
LINE
8
BLACK
6
CONTINUOUS
10
64.8315
20
-57.6786
11
64.8347
21
-57.6754
0
LINE
8
BLACK
6
CONTINUOUS
10
64.8347
20
-57.6754
11
64.8379
21
-57.6722
0
LINE
8
BLACK
6
CONTINUOUS
10
64.8379
20
-57.6722
11
65.196
21
-57.376
0
LINE
8
BLACK
6
CONTINUOUS
10
65.196
20
-57.376
11
65.196
21
-57.376
0
LINE
8
BLACK
6
CONTINUOUS
10
65.196
20
-57.376
11
65.196
21
-57.376
0
LINE
8
BLACK
6
CONTINUOUS
10
65.196
20
-57.376
11
65.1965
21
-57.3755
0
LINE
8
BLACK
6
CONTINUOUS
10
65.1965
20
-57.3755
11
65.2003
21
-57.3731
0
LINE
8
BLACK
6
CONTINUOUS
10
65.2003
20
-57.3731
11
65.2041
21
-57.3705
0
LINE
8
BLACK
6
CONTINUOUS
10
65.2041
20
-57.3705
11
65.6129
21
-57.1495
0
LINE
8
BLACK
6
CONTINUOUS
10
65.6129
20
-57.1495
11
65.6129
21
-57.1495
0
LINE
8
BLACK
6
CONTINUOUS
10
65.6129
20
-57.1495
11
65.6129
21
-57.1495
0
LINE
8
BLACK
6
CONTINUOUS
10
65.6129
20
-57.1495
11
65.6135
21
-57.1491
0
LINE
8
BLACK
6
CONTINUOUS
10
65.6135
20
-57.1491
11
65.6177
21
-57.1475
0
LINE
8
BLACK
6
CONTINUOUS
10
65.6177
20
-57.1475
11
65.6219
21
-57.1457
0
LINE
8
BLACK
6
CONTINUOUS
10
65.6219
20
-57.1457
11
66.0658
21
-57.0083
0
LINE
8
BLACK
6
CONTINUOUS
10
66.0658
20
-57.0083
11
66.0658
21
-57.0083
0
LINE
8
BLACK
6
CONTINUOUS
10
66.0658
20
-57.0083
11
66.0665
21
-57.0081
0
LINE
8
BLACK
6
CONTINUOUS
10
66.0665
20
-57.0081
11
66.0709
21
-57.0072
0
LINE
8
BLACK
6
CONTINUOUS
10
66.0709
20
-57.0072
11
66.0754
21
-57.0063
0
LINE
8
BLACK
6
CONTINUOUS
10
66.0754
20
-57.0063
11
66.5376
21
-56.9577
0
LINE
8
BLACK
6
CONTINUOUS
10
66.5376
20
-56.9577
11
66.5383
21
-56.9577
0
LINE
8
BLACK
6
CONTINUOUS
10
66.5383
20
-56.9577
11
66.5404
21
-56.9577
0
LINE
8
BLACK
6
CONTINUOUS
10
66.5404
20
-56.9577
11
66.5426
21
-56.9574
0
LINE
8
BLACK
6
CONTINUOUS
10
66.5426
20
-56.9574
11
66.5569
21
-56.9574
0
LINE
8
BLACK
6
CONTINUOUS
10
66.5569
20
-56.9574
11
66.557
21
-56.9574
0
LINE
8
BLACK
6
CONTINUOUS
10
66.557
20
-56.9574
11
80.8467
21
-56.9574
0
LINE
8
BLACK
6
CONTINUOUS
10
80.8467
20
-56.9574
11
80.8608
21
-56.9573
0
LINE
8
BLACK
6
CONTINUOUS
10
80.8608
20
-56.9573
11
81.3156
21
-56.9095
0
LINE
8
BLACK
6
CONTINUOUS
10
81.3156
20
-56.9095
11
81.7502
21
-56.775
0
LINE
8
BLACK
6
CONTINUOUS
10
81.7502
20
-56.775
11
82.1504
21
-56.5586
0
LINE
8
BLACK
6
CONTINUOUS
10
82.1504
20
-56.5586
11
82.5009
21
-56.2686
0
LINE
8
BLACK
6
CONTINUOUS
10
82.5009
20
-56.2686
11
82.7885
21
-55.9161
0
LINE
8
BLACK
6
CONTINUOUS
10
82.7885
20
-55.9161
11
83.002
21
-55.5144
0
LINE
8
BLACK
6
CONTINUOUS
10
83.002
20
-55.5144
11
83.1335
21
-55.0789
0
LINE
8
BLACK
6
CONTINUOUS
10
83.1335
20
-55.0789
11
83.1782
21
-54.6237
0
LINE
8
BLACK
6
CONTINUOUS
10
83.1782
20
-54.6237
11
83.1782
21
-40.3362
0
LINE
8
BLACK
6
CONTINUOUS
10
83.1782
20
-40.3362
11
83.1784
21
-40.3338
0
LINE
8
BLACK
6
CONTINUOUS
10
83.1784
20
-40.3338
11
83.2238
21
-39.8712
0
LINE
8
BLACK
6
CONTINUOUS
10
83.2238
20
-39.8712
11
83.2238
21
-39.8712
0
LINE
8
BLACK
6
CONTINUOUS
10
83.2238
20
-39.8712
11
83.2238
21
-39.8712
0
LINE
8
BLACK
6
CONTINUOUS
10
83.2238
20
-39.8712
11
83.2238
21
-39.8705
0
LINE
8
BLACK
6
CONTINUOUS
10
83.2238
20
-39.8705
11
83.2248
21
-39.8662
0
LINE
8
BLACK
6
CONTINUOUS
10
83.2248
20
-39.8662
11
83.2257
21
-39.8617
0
LINE
8
BLACK
6
CONTINUOUS
10
83.2257
20
-39.8617
11
83.36
21
-39.4168
0
LINE
8
BLACK
6
CONTINUOUS
10
83.36
20
-39.4168
11
83.3602
21
-39.4161
0
LINE
8
BLACK
6
CONTINUOUS
10
83.3602
20
-39.4161
11
83.362
21
-39.4119
0
LINE
8
BLACK
6
CONTINUOUS
10
83.362
20
-39.4119
11
83.3637
21
-39.4077
0
LINE
8
BLACK
6
CONTINUOUS
10
83.3637
20
-39.4077
11
83.5819
21
-38.9974
0
LINE
8
BLACK
6
CONTINUOUS
10
83.5819
20
-38.9974
11
83.5819
21
-38.9974
0
LINE
8
BLACK
6
CONTINUOUS
10
83.5819
20
-38.9974
11
83.5819
21
-38.9974
0
LINE
8
BLACK
6
CONTINUOUS
10
83.5819
20
-38.9974
11
83.5822
21
-38.9968
0
LINE
8
BLACK
6
CONTINUOUS
10
83.5822
20
-38.9968
11
83.5848
21
-38.9931
0
LINE
8
BLACK
6
CONTINUOUS
10
83.5848
20
-38.9931
11
83.5873
21
-38.9893
0
LINE
8
BLACK
6
CONTINUOUS
10
83.5873
20
-38.9893
11
83.881
21
-38.6291
0
LINE
8
BLACK
6
CONTINUOUS
10
83.881
20
-38.6291
11
83.881
21
-38.6291
0
LINE
8
BLACK
6
CONTINUOUS
10
83.881
20
-38.6291
11
83.881
21
-38.6291
0
LINE
8
BLACK
6
CONTINUOUS
10
83.881
20
-38.6291
11
83.8815
21
-38.6286
0
LINE
8
BLACK
6
CONTINUOUS
10
83.8815
20
-38.6286
11
83.8847
21
-38.6254
0
LINE
8
BLACK
6
CONTINUOUS
10
83.8847
20
-38.6254
11
83.8879
21
-38.6222
0
LINE
8
BLACK
6
CONTINUOUS
10
83.8879
20
-38.6222
11
84.246
21
-38.326
0
LINE
8
BLACK
6
CONTINUOUS
10
84.246
20
-38.326
11
84.246
21
-38.326
0
LINE
8
BLACK
6
CONTINUOUS
10
84.246
20
-38.326
11
84.246
21
-38.326
0
LINE
8
BLACK
6
CONTINUOUS
10
84.246
20
-38.326
11
84.2465
21
-38.3255
0
LINE
8
BLACK
6
CONTINUOUS
10
84.2465
20
-38.3255
11
84.2503
21
-38.3231
0
LINE
8
BLACK
6
CONTINUOUS
10
84.2503
20
-38.3231
11
84.2541
21
-38.3205
0
LINE
8
BLACK
6
CONTINUOUS
10
84.2541
20
-38.3205
11
84.6629
21
-38.0995
0
LINE
8
BLACK
6
CONTINUOUS
10
84.6629
20
-38.0995
11
84.6629
21
-38.0995
0
LINE
8
BLACK
6
CONTINUOUS
10
84.6629
20
-38.0995
11
84.6629
21
-38.0995
0
LINE
8
BLACK
6
CONTINUOUS
10
84.6629
20
-38.0995
11
84.6635
21
-38.0991
0
LINE
8
BLACK
6
CONTINUOUS
10
84.6635
20
-38.0991
11
84.6677
21
-38.0975
0
LINE
8
BLACK
6
CONTINUOUS
10
84.6677
20
-38.0975
11
84.6719
21
-38.0957
0
LINE
8
BLACK
6
CONTINUOUS
10
84.6719
20
-38.0957
11
85.1158
21
-37.9583
0
LINE
8
BLACK
6
CONTINUOUS
10
85.1158
20
-37.9583
11
85.1158
21
-37.9583
0
LINE
8
BLACK
6
CONTINUOUS
10
85.1158
20
-37.9583
11
85.1165
21
-37.9581
0
LINE
8
BLACK
6
CONTINUOUS
10
85.1165
20
-37.9581
11
85.1209
21
-37.9572
0
LINE
8
BLACK
6
CONTINUOUS
10
85.1209
20
-37.9572
11
85.1254
21
-37.9563
0
LINE
8
BLACK
6
CONTINUOUS
10
85.1254
20
-37.9563
11
85.5876
21
-37.9077
0
LINE
8
BLACK
6
CONTINUOUS
10
85.5876
20
-37.9077
11
85.5883
21
-37.9077
0
LINE
8
BLACK
6
CONTINUOUS
10
85.5883
20
-37.9077
11
85.5904
21
-37.9077
0
LINE
8
BLACK
6
CONTINUOUS
10
85.5904
20
-37.9077
11
85.5926
21
-37.9074
0
LINE
8
BLACK
6
CONTINUOUS
10
85.5926
20
-37.9074
11
85.6069
21
-37.9074
0
LINE
8
BLACK
6
CONTINUOUS
10
85.6069
20
-37.9074
11
85.607
21
-37.9074
0
LINE
8
BLACK
6
CONTINUOUS
10
85.607
20
-37.9074
11
180.857
21
-37.9074
0
LINE
8
BLACK
6
CONTINUOUS
10
180.857
20
-37.9074
11
180.859
21
-37.9071
0
LINE
8
BLACK
6
CONTINUOUS
10
180.859
20
-37.9071
11
180.862
21
-37.9074
0
LINE
8
BLACK
6
CONTINUOUS
10
180.862
20
-37.9074
11
180.862
21
-37.9074
0
LINE
8
BLACK
6
CONTINUOUS
10
180.862
20
-37.9074
11
180.869
21
-37.9081
0
LINE
8
BLACK
6
CONTINUOUS
10
180.869
20
-37.9081
11
180.879
21
-37.911
0
LINE
8
BLACK
6
CONTINUOUS
10
180.879
20
-37.911
11
180.887
21
-37.9156
0
LINE
8
BLACK
6
CONTINUOUS
10
180.887
20
-37.9156
11
180.895
21
-37.9219
0
LINE
8
BLACK
6
CONTINUOUS
10
180.895
20
-37.9219
11
180.897
21
-37.9238
0
LINE
8
BLACK
6
CONTINUOUS
10
180.897
20
-37.9238
11
185.641
21
-42.6686
0
LINE
8
BLACK
6
CONTINUOUS
10
185.641
20
-42.6686
11
227.359
21
-42.6686
0
LINE
8
BLACK
6
CONTINUOUS
10
227.359
20
-42.6686
11
227.361
21
-42.6688
0
LINE
8
BLACK
6
CONTINUOUS
10
227.361
20
-42.6688
11
227.616
21
-42.692
0
LINE
8
BLACK
6
CONTINUOUS
10
227.616
20
-42.692
11
227.616
21
-42.6921
0
LINE
8
BLACK
6
CONTINUOUS
10
227.616
20
-42.6921
11
227.621
21
-42.693
0
LINE
8
BLACK
6
CONTINUOUS
10
227.621
20
-42.693
11
227.625
21
-42.6939
0
LINE
8
BLACK
6
CONTINUOUS
10
227.625
20
-42.6939
11
227.871
21
-42.766
0
LINE
8
BLACK
6
CONTINUOUS
10
227.871
20
-42.766
11
227.871
21
-42.7662
0
LINE
8
BLACK
6
CONTINUOUS
10
227.871
20
-42.7662
11
227.875
21
-42.768
0
LINE
8
BLACK
6
CONTINUOUS
10
227.875
20
-42.768
11
227.88
21
-42.7697
0
LINE
8
BLACK
6
CONTINUOUS
10
227.88
20
-42.7697
11
228.106
21
-42.8882
0
LINE
8
BLACK
6
CONTINUOUS
10
228.106
20
-42.8882
11
228.106
21
-42.8882
0
LINE
8
BLACK
6
CONTINUOUS
10
228.106
20
-42.8882
11
228.106
21
-42.8882
0
LINE
8
BLACK
6
CONTINUOUS
10
228.106
20
-42.8882
11
228.107
21
-42.8885
0
LINE
8
BLACK
6
CONTINUOUS
10
228.107
20
-42.8885
11
228.111
21
-42.891
0
LINE
8
BLACK
6
CONTINUOUS
10
228.111
20
-42.891
11
228.114
21
-42.8935
0
LINE
8
BLACK
6
CONTINUOUS
10
228.114
20
-42.8935
11
228.314
21
-43.0537
0
LINE
8
BLACK
6
CONTINUOUS
10
228.314
20
-43.0537
11
228.314
21
-43.0537
0
LINE
8
BLACK
6
CONTINUOUS
10
228.314
20
-43.0537
11
228.314
21
-43.0537
0
LINE
8
BLACK
6
CONTINUOUS
10
228.314
20
-43.0537
11
228.314
21
-43.0542
0
LINE
8
BLACK
6
CONTINUOUS
10
228.314
20
-43.0542
11
228.317
21
-43.0574
0
LINE
8
BLACK
6
CONTINUOUS
10
228.317
20
-43.0574
11
228.321
21
-43.0606
0
LINE
8
BLACK
6
CONTINUOUS
10
228.321
20
-43.0606
11
228.485
21
-43.2564
0
LINE
8
BLACK
6
CONTINUOUS
10
228.485
20
-43.2564
11
228.485
21
-43.2564
0
LINE
8
BLACK
6
CONTINUOUS
10
228.485
20
-43.2564
11
228.485
21
-43.2564
0
LINE
8
BLACK
6
CONTINUOUS
10
228.485
20
-43.2564
11
228.485
21
-43.257
0
LINE
8
BLACK
6
CONTINUOUS
10
228.485
20
-43.257
11
228.488
21
-43.2607
0
LINE
8
BLACK
6
CONTINUOUS
10
228.488
20
-43.2607
11
228.49
21
-43.2645
0
LINE
8
BLACK
6
CONTINUOUS
10
228.49
20
-43.2645
11
228.614
21
-43.4885
0
LINE
8
BLACK
6
CONTINUOUS
10
228.614
20
-43.4885
11
228.614
21
-43.4891
0
LINE
8
BLACK
6
CONTINUOUS
10
228.614
20
-43.4891
11
228.616
21
-43.4933
0
LINE
8
BLACK
6
CONTINUOUS
10
228.616
20
-43.4933
11
228.617
21
-43.4975
0
LINE
8
BLACK
6
CONTINUOUS
10
228.617
20
-43.4975
11
228.695
21
-43.7412
0
LINE
8
BLACK
6
CONTINUOUS
10
228.695
20
-43.7412
11
228.695
21
-43.7419
0
LINE
8
BLACK
6
CONTINUOUS
10
228.695
20
-43.7419
11
228.696
21
-43.7463
0
LINE
8
BLACK
6
CONTINUOUS
10
228.696
20
-43.7463
11
228.697
21
-43.7507
0
LINE
8
BLACK
6
CONTINUOUS
10
228.697
20
-43.7507
11
228.725
21
-44.0048
0
LINE
8
BLACK
6
CONTINUOUS
10
228.725
20
-44.0048
11
228.725
21
-44.0055
0
LINE
8
BLACK
6
CONTINUOUS
10
228.725
20
-44.0055
11
228.725
21
-44.0077
0
LINE
8
BLACK
6
CONTINUOUS
10
228.725
20
-44.0077
11
228.726
21
-44.0099
0
LINE
8
BLACK
6
CONTINUOUS
10
228.726
20
-44.0099
11
228.726
21
-44.0159
0
LINE
8
BLACK
6
CONTINUOUS
10
228.726
20
-44.0159
11
228.726
21
-44.0162
0
LINE
8
BLACK
6
CONTINUOUS
10
228.726
20
-44.0162
11
228.726
21
-109.198
0
LINE
8
BLACK
6
CONTINUOUS
10
228.726
20
-109.198
11
228.726
21
-109.202
0
LINE
8
BLACK
6
CONTINUOUS
10
228.726
20
-109.202
11
228.725
21
-109.205
0
LINE
8
BLACK
6
CONTINUOUS
10
228.725
20
-109.205
11
228.725
21
-109.208
0
LINE
8
BLACK
6
CONTINUOUS
10
228.725
20
-109.208
11
228.724
21
-109.21
0
LINE
8
BLACK
6
CONTINUOUS
10
228.724
20
-109.21
11
228.724
21
-109.212
0
LINE
8
BLACK
6
CONTINUOUS
10
228.724
20
-109.212
11
228.723
21
-109.215
0
LINE
8
BLACK
6
CONTINUOUS
10
228.723
20
-109.215
11
228.722
21
-109.218
0
LINE
8
BLACK
6
CONTINUOUS
10
228.722
20
-109.218
11
228.72
21
-109.222
0
LINE
8
BLACK
6
CONTINUOUS
10
228.72
20
-109.222
11
228.717
21
-109.227
0
LINE
8
BLACK
6
CONTINUOUS
10
228.717
20
-109.227
11
228.717
21
-109.228
0
LINE
8
BLACK
6
CONTINUOUS
10
228.717
20
-109.228
11
228.715
21
-109.232
0
LINE
8
BLACK
6
CONTINUOUS
10
228.715
20
-109.232
11
228.714
21
-109.233
0
LINE
8
BLACK
6
CONTINUOUS
10
228.714
20
-109.233
11
228.714
21
-109.234
0
LINE
8
BLACK
6
CONTINUOUS
10
228.714
20
-109.234
11
228.712
21
-109.237
0
LINE
8
BLACK
6
CONTINUOUS
10
228.712
20
-109.237
11
228.711
21
-109.238
0
LINE
8
BLACK
6
CONTINUOUS
10
228.711
20
-109.238
11
228.71
21
-109.239
0
LINE
8
BLACK
6
CONTINUOUS
10
228.71
20
-109.239
11
228.708
21
-109.242
0
LINE
8
BLACK
6
CONTINUOUS
10
228.708
20
-109.242
11
228.708
21
-109.242
0
LINE
8
BLACK
6
CONTINUOUS
10
228.708
20
-109.242
11
228.706
21
-109.244
0
LINE
8
BLACK
6
CONTINUOUS
10
228.706
20
-109.244
11
228.704
21
-109.247
0
LINE
8
BLACK
6
CONTINUOUS
10
228.704
20
-109.247
11
228.703
21
-109.247
0
LINE
8
BLACK
6
CONTINUOUS
10
228.703
20
-109.247
11
223.759
21
-114.191
0
LINE
8
BLACK
6
CONTINUOUS
10
223.759
20
-114.191
11
223.759
21
-114.191
0
LINE
8
BLACK
6
CONTINUOUS
10
223.759
20
-114.191
11
221.378
21
-116.572
0
LINE
8
BLACK
6
CONTINUOUS
10
221.378
20
-116.572
11
221.378
21
-116.572
0
LINE
8
BLACK
6
CONTINUOUS
10
221.378
20
-116.572
11
202.341
21
-135.609
0
LINE
8
BLACK
6
CONTINUOUS
10
202.341
20
-135.609
11
202.341
21
-149.879
0
LINE
8
BLACK
6
CONTINUOUS
10
202.341
20
-149.879
11
202.34
21
-149.881
0
LINE
8
BLACK
6
CONTINUOUS
10
202.34
20
-149.881
11
202.34
21
-149.881
0
LINE
8
BLACK
6
CONTINUOUS
10
202.34
20
-149.881
11
202.295
21
-150.344
0
LINE
8
BLACK
6
CONTINUOUS
10
202.295
20
-150.344
11
202.295
21
-150.344
0
LINE
8
BLACK
6
CONTINUOUS
10
202.295
20
-150.344
11
202.295
21
-150.344
0
LINE
8
BLACK
6
CONTINUOUS
10
202.295
20
-150.344
11
202.295
21
-150.344
0
LINE
8
BLACK
6
CONTINUOUS
10
202.295
20
-150.344
11
202.294
21
-150.349
0
LINE
8
BLACK
6
CONTINUOUS
10
202.294
20
-150.349
11
202.293
21
-150.353
0
LINE
8
BLACK
6
CONTINUOUS
10
202.293
20
-150.353
11
202.159
21
-150.798
0
LINE
8
BLACK
6
CONTINUOUS
10
202.159
20
-150.798
11
202.159
21
-150.799
0
LINE
8
BLACK
6
CONTINUOUS
10
202.159
20
-150.799
11
202.157
21
-150.803
0
LINE
8
BLACK
6
CONTINUOUS
10
202.157
20
-150.803
11
202.155
21
-150.807
0
LINE
8
BLACK
6
CONTINUOUS
10
202.155
20
-150.807
11
201.937
21
-151.217
0
LINE
8
BLACK
6
CONTINUOUS
10
201.937
20
-151.217
11
201.937
21
-151.218
0
LINE
8
BLACK
6
CONTINUOUS
10
201.937
20
-151.218
11
201.934
21
-151.222
0
LINE
8
BLACK
6
CONTINUOUS
10
201.934
20
-151.222
11
201.932
21
-151.226
0
LINE
8
BLACK
6
CONTINUOUS
10
201.932
20
-151.226
11
201.638
21
-151.586
0
LINE
8
BLACK
6
CONTINUOUS
10
201.638
20
-151.586
11
201.637
21
-151.586
0
LINE
8
BLACK
6
CONTINUOUS
10
201.637
20
-151.586
11
201.634
21
-151.589
0
LINE
8
BLACK
6
CONTINUOUS
10
201.634
20
-151.589
11
201.631
21
-151.593
0
LINE
8
BLACK
6
CONTINUOUS
10
201.631
20
-151.593
11
201.273
21
-151.889
0
LINE
8
BLACK
6
CONTINUOUS
10
201.273
20
-151.889
11
201.273
21
-151.889
0
LINE
8
BLACK
6
CONTINUOUS
10
201.273
20
-151.889
11
201.273
21
-151.889
0
LINE
8
BLACK
6
CONTINUOUS
10
201.273
20
-151.889
11
201.272
21
-151.889
0
LINE
8
BLACK
6
CONTINUOUS
10
201.272
20
-151.889
11
201.269
21
-151.892
0
LINE
8
BLACK
6
CONTINUOUS
10
201.269
20
-151.892
11
201.265
21
-151.894
0
LINE
8
BLACK
6
CONTINUOUS
10
201.265
20
-151.894
11
200.856
21
-152.115
0
LINE
8
BLACK
6
CONTINUOUS
10
200.856
20
-152.115
11
200.856
21
-152.115
0
LINE
8
BLACK
6
CONTINUOUS
10
200.856
20
-152.115
11
200.856
21
-152.115
0
LINE
8
BLACK
6
CONTINUOUS
10
200.856
20
-152.115
11
200.855
21
-152.116
0
LINE
8
BLACK
6
CONTINUOUS
10
200.855
20
-152.116
11
200.851
21
-152.117
0
LINE
8
BLACK
6
CONTINUOUS
10
200.851
20
-152.117
11
200.847
21
-152.119
0
LINE
8
BLACK
6
CONTINUOUS
10
200.847
20
-152.119
11
200.403
21
-152.257
0
LINE
8
BLACK
6
CONTINUOUS
10
200.403
20
-152.257
11
200.403
21
-152.257
0
LINE
8
BLACK
6
CONTINUOUS
10
200.403
20
-152.257
11
200.402
21
-152.257
0
LINE
8
BLACK
6
CONTINUOUS
10
81.3399
20
-57.0067
11
81.3354
21
-57.0076
0
LINE
8
BLACK
6
CONTINUOUS
10
81.3354
20
-57.0076
11
81.331
21
-57.0085
0
LINE
8
BLACK
6
CONTINUOUS
10
81.331
20
-57.0085
11
80.8688
21
-57.0571
0
LINE
8
BLACK
6
CONTINUOUS
10
80.8688
20
-57.0571
11
80.8681
21
-57.0571
0
LINE
8
BLACK
6
CONTINUOUS
10
80.8681
20
-57.0571
11
80.8659
21
-57.0571
0
LINE
8
BLACK
6
CONTINUOUS
10
80.8659
20
-57.0571
11
80.8637
21
-57.0573
0
LINE
8
BLACK
6
CONTINUOUS
10
80.8637
20
-57.0573
11
80.8495
21
-57.0574
0
LINE
8
BLACK
6
CONTINUOUS
10
80.8495
20
-57.0574
11
80.8494
21
-57.0574
0
LINE
8
BLACK
6
CONTINUOUS
10
80.8494
20
-57.0574
11
66.5596
21
-57.0574
0
LINE
8
BLACK
6
CONTINUOUS
10
66.5596
20
-57.0574
11
66.5455
21
-57.0574
0
LINE
8
BLACK
6
CONTINUOUS
10
66.5455
20
-57.0574
11
66.0907
21
-57.1052
0
LINE
8
BLACK
6
CONTINUOUS
10
66.0907
20
-57.1052
11
65.6561
21
-57.2398
0
LINE
8
BLACK
6
CONTINUOUS
10
65.6561
20
-57.2398
11
65.2559
21
-57.4561
0
LINE
8
BLACK
6
CONTINUOUS
10
65.2559
20
-57.4561
11
64.9054
21
-57.7461
0
LINE
8
BLACK
6
CONTINUOUS
10
64.9054
20
-57.7461
11
64.6179
21
-58.0987
0
LINE
8
BLACK
6
CONTINUOUS
10
64.6179
20
-58.0987
11
64.4043
21
-58.5004
0
LINE
8
BLACK
6
CONTINUOUS
10
64.4043
20
-58.5004
11
64.2728
21
-58.9359
0
LINE
8
BLACK
6
CONTINUOUS
10
64.2728
20
-58.9359
11
64.2282
21
-59.3911
0
LINE
8
BLACK
6
CONTINUOUS
10
64.2282
20
-59.3911
11
64.2282
21
-83.2036
0
LINE
8
BLACK
6
CONTINUOUS
10
64.2282
20
-83.2036
11
64.2279
21
-83.206
0
LINE
8
BLACK
6
CONTINUOUS
10
64.2279
20
-83.206
11
64.2279
21
-83.206
0
LINE
8
BLACK
6
CONTINUOUS
10
64.2279
20
-83.206
11
64.1826
21
-83.6685
0
LINE
8
BLACK
6
CONTINUOUS
10
64.1826
20
-83.6685
11
64.1826
21
-83.6685
0
LINE
8
BLACK
6
CONTINUOUS
10
64.1826
20
-83.6685
11
64.1826
21
-83.6686
0
LINE
8
BLACK
6
CONTINUOUS
10
64.1826
20
-83.6686
11
64.1825
21
-83.6692
0
LINE
8
BLACK
6
CONTINUOUS
10
64.1825
20
-83.6692
11
64.1816
21
-83.6736
0
LINE
8
BLACK
6
CONTINUOUS
10
64.1816
20
-83.6736
11
64.1807
21
-83.6781
0
LINE
8
BLACK
6
CONTINUOUS
10
64.1807
20
-83.6781
11
64.0464
21
-84.123
0
LINE
8
BLACK
6
CONTINUOUS
10
64.0464
20
-84.123
11
64.0462
21
-84.1237
0
LINE
8
BLACK
6
CONTINUOUS
10
64.0462
20
-84.1237
11
64.0444
21
-84.1278
0
LINE
8
BLACK
6
CONTINUOUS
10
64.0444
20
-84.1278
11
64.0426
21
-84.132
0
LINE
8
BLACK
6
CONTINUOUS
10
64.0426
20
-84.132
11
63.8245
21
-84.5424
0
LINE
8
BLACK
6
CONTINUOUS
10
63.8245
20
-84.5424
11
63.8241
21
-84.543
0
LINE
8
BLACK
6
CONTINUOUS
10
63.8241
20
-84.543
11
63.8216
21
-84.5467
0
LINE
8
BLACK
6
CONTINUOUS
10
63.8216
20
-84.5467
11
63.8191
21
-84.5505
0
LINE
8
BLACK
6
CONTINUOUS
10
63.8191
20
-84.5505
11
63.5253
21
-84.9107
0
LINE
8
BLACK
6
CONTINUOUS
10
63.5253
20
-84.9107
11
63.5249
21
-84.9112
0
LINE
8
BLACK
6
CONTINUOUS
10
63.5249
20
-84.9112
11
63.5217
21
-84.9144
0
LINE
8
BLACK
6
CONTINUOUS
10
63.5217
20
-84.9144
11
63.5185
21
-84.9176
0
LINE
8
BLACK
6
CONTINUOUS
10
63.5185
20
-84.9176
11
63.1604
21
-85.2138
0
LINE
8
BLACK
6
CONTINUOUS
10
63.1604
20
-85.2138
11
63.1604
21
-85.2138
0
LINE
8
BLACK
6
CONTINUOUS
10
63.1604
20
-85.2138
11
63.1604
21
-85.2138
0
LINE
8
BLACK
6
CONTINUOUS
10
63.1604
20
-85.2138
11
63.1598
21
-85.2143
0
LINE
8
BLACK
6
CONTINUOUS
10
63.1598
20
-85.2143
11
63.1561
21
-85.2167
0
LINE
8
BLACK
6
CONTINUOUS
10
63.1561
20
-85.2167
11
63.1523
21
-85.2193
0
LINE
8
BLACK
6
CONTINUOUS
10
63.1523
20
-85.2193
11
62.7435
21
-85.4403
0
LINE
8
BLACK
6
CONTINUOUS
10
62.7435
20
-85.4403
11
62.7435
21
-85.4403
0
LINE
8
BLACK
6
CONTINUOUS
10
62.7435
20
-85.4403
11
62.7435
21
-85.4403
0
LINE
8
BLACK
6
CONTINUOUS
10
62.7435
20
-85.4403
11
62.7429
21
-85.4406
0
LINE
8
BLACK
6
CONTINUOUS
10
62.7429
20
-85.4406
11
62.7387
21
-85.4423
0
LINE
8
BLACK
6
CONTINUOUS
10
62.7387
20
-85.4423
11
62.7345
21
-85.4441
0
LINE
8
BLACK
6
CONTINUOUS
10
62.7345
20
-85.4441
11
62.2905
21
-85.5815
0
LINE
8
BLACK
6
CONTINUOUS
10
62.2905
20
-85.5815
11
62.2905
21
-85.5815
0
LINE
8
BLACK
6
CONTINUOUS
10
62.2905
20
-85.5815
11
62.2899
21
-85.5817
0
LINE
8
BLACK
6
CONTINUOUS
10
62.2899
20
-85.5817
11
62.2854
21
-85.5826
0
LINE
8
BLACK
6
CONTINUOUS
10
62.2854
20
-85.5826
11
62.281
21
-85.5835
0
LINE
8
BLACK
6
CONTINUOUS
10
62.281
20
-85.5835
11
61.8188
21
-85.6321
0
LINE
8
BLACK
6
CONTINUOUS
10
61.8188
20
-85.6321
11
61.8181
21
-85.6321
0
LINE
8
BLACK
6
CONTINUOUS
10
61.8181
20
-85.6321
11
61.8159
21
-85.6321
0
LINE
8
BLACK
6
CONTINUOUS
10
61.8159
20
-85.6321
11
61.8137
21
-85.6323
0
LINE
8
BLACK
6
CONTINUOUS
10
61.8137
20
-85.6323
11
61.7995
21
-85.6324
0
LINE
8
BLACK
6
CONTINUOUS
10
61.7995
20
-85.6324
11
61.7994
21
-85.6324
0
LINE
8
BLACK
6
CONTINUOUS
10
61.7994
20
-85.6324
11
47.5096
21
-85.6324
0
LINE
8
BLACK
6
CONTINUOUS
10
47.5096
20
-85.6324
11
47.4955
21
-85.6324
0
LINE
8
BLACK
6
CONTINUOUS
10
47.4955
20
-85.6324
11
47.0407
21
-85.6802
0
LINE
8
BLACK
6
CONTINUOUS
10
47.0407
20
-85.6802
11
46.6061
21
-85.8148
0
LINE
8
BLACK
6
CONTINUOUS
10
46.6061
20
-85.8148
11
46.2059
21
-86.0311
0
LINE
8
BLACK
6
CONTINUOUS
10
46.2059
20
-86.0311
11
45.8554
21
-86.3211
0
LINE
8
BLACK
6
CONTINUOUS
10
45.8554
20
-86.3211
11
45.5679
21
-86.6737
0
LINE
8
BLACK
6
CONTINUOUS
10
45.5679
20
-86.6737
11
45.3543
21
-87.0754
0
LINE
8
BLACK
6
CONTINUOUS
10
45.3543
20
-87.0754
11
45.2228
21
-87.5109
0
LINE
8
BLACK
6
CONTINUOUS
10
45.2228
20
-87.5109
11
45.1782
21
-87.9661
0
LINE
8
BLACK
6
CONTINUOUS
10
45.1782
20
-87.9661
11
45.1782
21
-107.013
0
LINE
8
BLACK
6
CONTINUOUS
10
45.1782
20
-107.013
11
45.1782
21
-107.028
0
LINE
8
BLACK
6
CONTINUOUS
10
45.1782
20
-107.028
11
45.226
21
-107.482
0
LINE
8
BLACK
6
CONTINUOUS
10
45.226
20
-107.482
11
45.3605
21
-107.917
0
LINE
8
BLACK
6
CONTINUOUS
10
45.3605
20
-107.917
11
45.5769
21
-108.317
0
LINE
8
BLACK
6
CONTINUOUS
10
45.5769
20
-108.317
11
45.8669
21
-108.668
0
LINE
8
BLACK
6
CONTINUOUS
10
45.8669
20
-108.668
11
46.2195
21
-108.955
0
LINE
8
BLACK
6
CONTINUOUS
10
46.2195
20
-108.955
11
46.6211
21
-109.169
0
LINE
8
BLACK
6
CONTINUOUS
10
46.6211
20
-109.169
11
47.0567
21
-109.3
0
LINE
8
BLACK
6
CONTINUOUS
10
47.0567
20
-109.3
11
47.5119
21
-109.345
0
LINE
8
BLACK
6
CONTINUOUS
10
47.5119
20
-109.345
11
61.7994
21
-109.345
0
LINE
8
BLACK
6
CONTINUOUS
10
61.7994
20
-109.345
11
61.8018
21
-109.345
0
LINE
8
BLACK
6
CONTINUOUS
10
61.8018
20
-109.345
11
61.8018
21
-109.345
0
LINE
8
BLACK
6
CONTINUOUS
10
61.8018
20
-109.345
11
62.2643
21
-109.39
0
LINE
8
BLACK
6
CONTINUOUS
10
62.2643
20
-109.39
11
62.2643
21
-109.39
0
LINE
8
BLACK
6
CONTINUOUS
10
62.2643
20
-109.39
11
62.2643
21
-109.39
0
LINE
8
BLACK
6
CONTINUOUS
10
62.2643
20
-109.39
11
62.265
21
-109.391
0
LINE
8
BLACK
6
CONTINUOUS
10
62.265
20
-109.391
11
62.2694
21
-109.391
0
LINE
8
BLACK
6
CONTINUOUS
10
62.2694
20
-109.391
11
62.2739
21
-109.392
0
LINE
8
BLACK
6
CONTINUOUS
10
62.2739
20
-109.392
11
62.7188
21
-109.527
0
LINE
8
BLACK
6
CONTINUOUS
10
62.7188
20
-109.527
11
62.7195
21
-109.527
0
LINE
8
BLACK
6
CONTINUOUS
10
62.7195
20
-109.527
11
62.7236
21
-109.529
0
LINE
8
BLACK
6
CONTINUOUS
10
62.7236
20
-109.529
11
62.7278
21
-109.53
0
LINE
8
BLACK
6
CONTINUOUS
10
62.7278
20
-109.53
11
63.1382
21
-109.749
0
LINE
8
BLACK
6
CONTINUOUS
10
63.1382
20
-109.749
11
63.1382
21
-109.749
0
LINE
8
BLACK
6
CONTINUOUS
10
63.1382
20
-109.749
11
63.1382
21
-109.749
0
LINE
8
BLACK
6
CONTINUOUS
10
63.1382
20
-109.749
11
63.1388
21
-109.749
0
LINE
8
BLACK
6
CONTINUOUS
10
63.1388
20
-109.749
11
63.1425
21
-109.751
0
LINE
8
BLACK
6
CONTINUOUS
10
63.1425
20
-109.751
11
63.1463
21
-109.754
0
LINE
8
BLACK
6
CONTINUOUS
10
63.1463
20
-109.754
11
63.5064
21
-110.048
0
LINE
8
BLACK
6
CONTINUOUS
10
63.5064
20
-110.048
11
63.5064
21
-110.048
0
LINE
8
BLACK
6
CONTINUOUS
10
63.5064
20
-110.048
11
63.5064
21
-110.048
0
LINE
8
BLACK
6
CONTINUOUS
10
63.5064
20
-110.048
11
63.507
21
-110.048
0
LINE
8
BLACK
6
CONTINUOUS
10
63.507
20
-110.048
11
63.5101
21
-110.051
0
LINE
8
BLACK
6
CONTINUOUS
10
63.5101
20
-110.051
11
63.5134
21
-110.055
0
LINE
8
BLACK
6
CONTINUOUS
10
63.5134
20
-110.055
11
63.8096
21
-110.413
0
LINE
8
BLACK
6
CONTINUOUS
10
63.8096
20
-110.413
11
63.8096
21
-110.413
0
LINE
8
BLACK
6
CONTINUOUS
10
63.8096
20
-110.413
11
63.8096
21
-110.413
0
LINE
8
BLACK
6
CONTINUOUS
10
63.8096
20
-110.413
11
63.81
21
-110.413
0
LINE
8
BLACK
6
CONTINUOUS
10
63.81
20
-110.413
11
63.8125
21
-110.417
0
LINE
8
BLACK
6
CONTINUOUS
10
63.8125
20
-110.417
11
63.815
21
-110.421
0
LINE
8
BLACK
6
CONTINUOUS
10
63.815
20
-110.421
11
64.0361
21
-110.83
0
LINE
8
BLACK
6
CONTINUOUS
10
64.0361
20
-110.83
11
64.0361
21
-110.83
0
LINE
8
BLACK
6
CONTINUOUS
10
64.0361
20
-110.83
11
64.0361
21
-110.83
0
LINE
8
BLACK
6
CONTINUOUS
10
64.0361
20
-110.83
11
64.0364
21
-110.83
0
LINE
8
BLACK
6
CONTINUOUS
10
64.0364
20
-110.83
11
64.0381
21
-110.834
0
LINE
8
BLACK
6
CONTINUOUS
10
64.0381
20
-110.834
11
64.0399
21
-110.839
0
LINE
8
BLACK
6
CONTINUOUS
10
64.0399
20
-110.839
11
64.1773
21
-111.283
0
LINE
8
BLACK
6
CONTINUOUS
10
64.1773
20
-111.283
11
64.1775
21
-111.283
0
LINE
8
BLACK
6
CONTINUOUS
10
64.1775
20
-111.283
11
64.1783
21
-111.288
0
LINE
8
BLACK
6
CONTINUOUS
10
64.1783
20
-111.288
11
64.1793
21
-111.292
0
LINE
8
BLACK
6
CONTINUOUS
10
64.1793
20
-111.292
11
64.2278
21
-111.754
0
LINE
8
BLACK
6
CONTINUOUS
10
64.2278
20
-111.754
11
64.2279
21
-111.755
0
LINE
8
BLACK
6
CONTINUOUS
10
64.2279
20
-111.755
11
64.2279
21
-111.757
0
LINE
8
BLACK
6
CONTINUOUS
10
64.2279
20
-111.757
11
64.2281
21
-111.759
0
LINE
8
BLACK
6
CONTINUOUS
10
64.2281
20
-111.759
11
64.2282
21
-111.774
0
LINE
8
BLACK
6
CONTINUOUS
10
64.2282
20
-111.774
11
64.2282
21
-111.774
0
LINE
8
BLACK
6
CONTINUOUS
10
64.2282
20
-111.774
11
64.2282
21
-116.538
0
LINE
8
BLACK
6
CONTINUOUS
10
64.2282
20
-116.538
11
64.2282
21
-116.553
0
LINE
8
BLACK
6
CONTINUOUS
10
64.2282
20
-116.553
11
64.276
21
-117.007
0
LINE
8
BLACK
6
CONTINUOUS
10
64.276
20
-117.007
11
64.4105
21
-117.442
0
LINE
8
BLACK
6
CONTINUOUS
10
64.4105
20
-117.442
11
64.6269
21
-117.842
0
LINE
8
BLACK
6
CONTINUOUS
10
64.6269
20
-117.842
11
64.9169
21
-118.193
0
LINE
8
BLACK
6
CONTINUOUS
10
64.9169
20
-118.193
11
65.2695
21
-118.48
0
LINE
8
BLACK
6
CONTINUOUS
10
65.2695
20
-118.48
11
65.6711
21
-118.694
0
LINE
8
BLACK
6
CONTINUOUS
10
65.6711
20
-118.694
11
66.1067
21
-118.825
0
LINE
8
BLACK
6
CONTINUOUS
10
66.1067
20
-118.825
11
66.5619
21
-118.87
0
LINE
8
BLACK
6
CONTINUOUS
10
66.5619
20
-118.87
11
116.563
21
-118.87
0
LINE
8
BLACK
6
CONTINUOUS
10
116.563
20
-118.87
11
116.566
21
-118.87
0
LINE
8
BLACK
6
CONTINUOUS
10
116.566
20
-118.87
11
116.568
21
-118.87
0
LINE
8
BLACK
6
CONTINUOUS
10
116.568
20
-118.87
11
116.568
21
-118.87
0
LINE
8
BLACK
6
CONTINUOUS
10
116.568
20
-118.87
11
116.575
21
-118.871
0
LINE
8
BLACK
6
CONTINUOUS
10
116.575
20
-118.871
11
116.585
21
-118.873
0
LINE
8
BLACK
6
CONTINUOUS
10
116.585
20
-118.873
11
116.594
21
-118.878
0
LINE
8
BLACK
6
CONTINUOUS
10
116.594
20
-118.878
11
116.601
21
-118.884
0
LINE
8
BLACK
6
CONTINUOUS
10
116.601
20
-118.884
11
116.603
21
-118.886
0
LINE
8
BLACK
6
CONTINUOUS
10
116.603
20
-118.886
11
121.349
21
-123.632
0
LINE
8
BLACK
6
CONTINUOUS
10
121.349
20
-123.632
11
128.469
21
-123.632
0
LINE
8
BLACK
6
CONTINUOUS
10
128.469
20
-123.632
11
128.472
21
-123.632
0
LINE
8
BLACK
6
CONTINUOUS
10
128.472
20
-123.632
11
128.474
21
-123.632
0
LINE
8
BLACK
6
CONTINUOUS
10
128.474
20
-123.632
11
128.474
21
-123.632
0
LINE
8
BLACK
6
CONTINUOUS
10
128.474
20
-123.632
11
128.482
21
-123.633
0
LINE
8
BLACK
6
CONTINUOUS
10
128.482
20
-123.633
11
128.491
21
-123.636
0
LINE
8
BLACK
6
CONTINUOUS
10
128.491
20
-123.636
11
128.5
21
-123.641
0
LINE
8
BLACK
6
CONTINUOUS
10
128.5
20
-123.641
11
128.507
21
-123.647
0
LINE
8
BLACK
6
CONTINUOUS
10
128.507
20
-123.647
11
128.509
21
-123.649
0
LINE
8
BLACK
6
CONTINUOUS
10
128.509
20
-123.649
11
133.268
21
-128.408
0
LINE
8
BLACK
6
CONTINUOUS
10
133.268
20
-128.408
11
133.27
21
-128.409
0
LINE
8
BLACK
6
CONTINUOUS
10
133.27
20
-128.409
11
133.272
21
-128.411
0
LINE
8
BLACK
6
CONTINUOUS
10
133.272
20
-128.411
11
133.276
21
-128.417
0
LINE
8
BLACK
6
CONTINUOUS
10
133.276
20
-128.417
11
133.281
21
-128.426
0
LINE
8
BLACK
6
CONTINUOUS
10
133.281
20
-128.426
11
133.281
21
-128.426
0
LINE
8
BLACK
6
CONTINUOUS
10
133.281
20
-128.426
11
133.284
21
-128.435
0
LINE
8
BLACK
6
CONTINUOUS
10
133.284
20
-128.435
11
133.284
21
-128.442
0
LINE
8
BLACK
6
CONTINUOUS
10
133.284
20
-128.442
11
133.285
21
-128.445
0
LINE
8
BLACK
6
CONTINUOUS
10
133.285
20
-128.445
11
133.284
21
-128.447
0
LINE
8
BLACK
6
CONTINUOUS
10
133.284
20
-128.447
11
133.284
21
-135.564
0
LINE
8
BLACK
6
CONTINUOUS
10
133.284
20
-135.564
11
142.776
21
-142.682
0
LINE
8
BLACK
6
CONTINUOUS
10
142.776
20
-142.682
11
157.044
21
-142.682
0
LINE
8
BLACK
6
CONTINUOUS
10
157.044
20
-142.682
11
157.047
21
-142.682
0
LINE
8
BLACK
6
CONTINUOUS
10
157.047
20
-142.682
11
157.049
21
-142.682
0
LINE
8
BLACK
6
CONTINUOUS
10
157.049
20
-142.682
11
157.049
21
-142.682
0
LINE
8
BLACK
6
CONTINUOUS
10
157.049
20
-142.682
11
157.057
21
-142.683
0
LINE
8
BLACK
6
CONTINUOUS
10
157.057
20
-142.683
11
157.066
21
-142.686
0
LINE
8
BLACK
6
CONTINUOUS
10
157.066
20
-142.686
11
157.075
21
-142.691
0
LINE
8
BLACK
6
CONTINUOUS
10
157.075
20
-142.691
11
157.082
21
-142.697
0
LINE
8
BLACK
6
CONTINUOUS
10
157.082
20
-142.697
11
157.084
21
-142.699
0
LINE
8
BLACK
6
CONTINUOUS
10
157.084
20
-142.699
11
161.83
21
-147.445
0
LINE
8
BLACK
6
CONTINUOUS
10
161.83
20
-147.445
11
176.094
21
-147.445
0
LINE
8
BLACK
6
CONTINUOUS
10
176.094
20
-147.445
11
176.097
21
-147.445
0
LINE
8
BLACK
6
CONTINUOUS
10
176.097
20
-147.445
11
176.099
21
-147.445
0
LINE
8
BLACK
6
CONTINUOUS
10
176.099
20
-147.445
11
176.099
21
-147.445
0
LINE
8
BLACK
6
CONTINUOUS
10
176.099
20
-147.445
11
176.107
21
-147.446
0
LINE
8
BLACK
6
CONTINUOUS
10
176.107
20
-147.446
11
176.116
21
-147.448
0
LINE
8
BLACK
6
CONTINUOUS
10
176.116
20
-147.448
11
176.125
21
-147.453
0
LINE
8
BLACK
6
CONTINUOUS
10
176.125
20
-147.453
11
176.132
21
-147.459
0
LINE
8
BLACK
6
CONTINUOUS
10
176.132
20
-147.459
11
176.134
21
-147.461
0
LINE
8
BLACK
6
CONTINUOUS
10
176.134
20
-147.461
11
180.88
21
-152.207
0
LINE
8
BLACK
6
CONTINUOUS
10
180.88
20
-152.207
11
199.909
21
-152.207
0
LINE
8
BLACK
6
CONTINUOUS
10
199.909
20
-152.207
11
199.923
21
-152.207
0
LINE
8
BLACK
6
CONTINUOUS
10
199.923
20
-152.207
11
200.378
21
-152.16
0
LINE
8
BLACK
6
CONTINUOUS
10
200.378
20
-152.16
11
200.813
21
-152.025
0
LINE
8
BLACK
6
CONTINUOUS
10
200.813
20
-152.025
11
201.213
21
-151.809
0
LINE
8
BLACK
6
CONTINUOUS
10
201.213
20
-151.809
11
201.563
21
-151.519
0
LINE
8
BLACK
6
CONTINUOUS
10
201.563
20
-151.519
11
201.851
21
-151.166
0
LINE
8
BLACK
6
CONTINUOUS
10
201.851
20
-151.166
11
202.065
21
-150.764
0
LINE
8
BLACK
6
CONTINUOUS
10
202.065
20
-150.764
11
202.196
21
-150.329
0
LINE
8
BLACK
6
CONTINUOUS
10
202.196
20
-150.329
11
202.241
21
-149.874
0
LINE
8
BLACK
6
CONTINUOUS
10
202.241
20
-149.874
11
202.241
21
-135.591
0
LINE
8
BLACK
6
CONTINUOUS
10
202.241
20
-135.591
11
202.24
21
-135.589
0
LINE
8
BLACK
6
CONTINUOUS
10
202.24
20
-135.589
11
202.241
21
-135.579
0
LINE
8
BLACK
6
CONTINUOUS
10
202.241
20
-135.579
11
202.244
21
-135.569
0
LINE
8
BLACK
6
CONTINUOUS
10
202.244
20
-135.569
11
202.249
21
-135.561
0
LINE
8
BLACK
6
CONTINUOUS
10
202.249
20
-135.561
11
202.254
21
-135.555
0
LINE
8
BLACK
6
CONTINUOUS
10
202.254
20
-135.555
11
202.254
21
-135.555
0
LINE
8
BLACK
6
CONTINUOUS
10
202.254
20
-135.555
11
202.255
21
-135.553
0
LINE
8
BLACK
6
CONTINUOUS
10
202.255
20
-135.553
11
202.257
21
-135.552
0
LINE
8
BLACK
6
CONTINUOUS
10
202.257
20
-135.552
11
221.307
21
-116.502
0
LINE
8
BLACK
6
CONTINUOUS
10
221.307
20
-116.502
11
221.307
21
-116.502
0
LINE
8
BLACK
6
CONTINUOUS
10
221.307
20
-116.502
11
223.688
21
-114.12
0
LINE
8
BLACK
6
CONTINUOUS
10
223.688
20
-114.12
11
223.688
21
-114.12
0
LINE
8
BLACK
6
CONTINUOUS
10
223.688
20
-114.12
11
228.626
21
-109.183
0
LINE
8
BLACK
6
CONTINUOUS
10
228.626
20
-109.183
11
228.626
21
-44.0189
0
LINE
8
BLACK
6
CONTINUOUS
10
228.626
20
-44.0189
11
228.626
21
-44.0135
0
LINE
8
BLACK
6
CONTINUOUS
10
228.626
20
-44.0135
11
228.598
21
-43.7668
0
LINE
8
BLACK
6
CONTINUOUS
10
228.598
20
-43.7668
11
228.524
21
-43.5324
0
LINE
8
BLACK
6
CONTINUOUS
10
228.524
20
-43.5324
11
228.405
21
-43.3169
0
LINE
8
BLACK
6
CONTINUOUS
10
228.405
20
-43.3169
11
228.247
21
-43.1286
0
LINE
8
BLACK
6
CONTINUOUS
10
228.247
20
-43.1286
11
228.056
21
-42.9745
0
LINE
8
BLACK
6
CONTINUOUS
10
228.056
20
-42.9745
11
227.838
21
-42.8606
0
LINE
8
BLACK
6
CONTINUOUS
10
227.838
20
-42.8606
11
227.602
21
-42.7912
0
LINE
8
BLACK
6
CONTINUOUS
10
227.602
20
-42.7912
11
227.354
21
-42.7686
0
LINE
8
BLACK
6
CONTINUOUS
10
227.354
20
-42.7686
11
185.633
21
-42.7686
0
LINE
8
BLACK
6
CONTINUOUS
10
185.633
20
-42.7686
11
185.632
21
-42.7692
0
LINE
8
BLACK
6
CONTINUOUS
10
185.632
20
-42.7692
11
185.622
21
-42.7701
0
LINE
8
BLACK
6
CONTINUOUS
10
185.622
20
-42.7701
11
185.612
21
-42.7692
0
LINE
8
BLACK
6
CONTINUOUS
10
185.612
20
-42.7692
11
185.603
21
-42.7663
0
LINE
8
BLACK
6
CONTINUOUS
10
185.603
20
-42.7663
11
185.594
21
-42.7617
0
LINE
8
BLACK
6
CONTINUOUS
10
185.594
20
-42.7617
11
185.588
21
-42.757
0
LINE
8
BLACK
6
CONTINUOUS
10
185.588
20
-42.757
11
180.839
21
-38.0074
0
LINE
8
BLACK
6
CONTINUOUS
10
180.839
20
-38.0074
11
85.6096
21
-38.0074
0
LINE
8
BLACK
6
CONTINUOUS
10
85.6096
20
-38.0074
11
85.5955
21
-38.0074
0
LINE
8
BLACK
6
CONTINUOUS
10
85.5955
20
-38.0074
11
85.1407
21
-38.0552
0
LINE
8
BLACK
6
CONTINUOUS
10
85.1407
20
-38.0552
11
84.7061
21
-38.1898
0
LINE
8
BLACK
6
CONTINUOUS
10
84.7061
20
-38.1898
11
84.3059
21
-38.4061
0
LINE
8
BLACK
6
CONTINUOUS
10
84.3059
20
-38.4061
11
83.9554
21
-38.6961
0
LINE
8
BLACK
6
CONTINUOUS
10
83.9554
20
-38.6961
11
83.6679
21
-39.0487
0
LINE
8
BLACK
6
CONTINUOUS
10
83.6679
20
-39.0487
11
83.4543
21
-39.4504
0
LINE
8
BLACK
6
CONTINUOUS
10
83.4543
20
-39.4504
11
83.3228
21
-39.8859
0
LINE
8
BLACK
6
CONTINUOUS
10
83.3228
20
-39.8859
11
83.2782
21
-40.3411
0
LINE
8
BLACK
6
CONTINUOUS
10
83.2782
20
-40.3411
11
83.2782
21
-54.6286
0
LINE
8
BLACK
6
CONTINUOUS
10
83.2782
20
-54.6286
11
83.2779
21
-54.631
0
LINE
8
BLACK
6
CONTINUOUS
10
83.2779
20
-54.631
11
83.2779
21
-54.631
0
LINE
8
BLACK
6
CONTINUOUS
10
83.2779
20
-54.631
11
83.2326
21
-55.0935
0
LINE
8
BLACK
6
CONTINUOUS
10
83.2326
20
-55.0935
11
83.2326
21
-55.0935
0
LINE
8
BLACK
6
CONTINUOUS
10
83.2326
20
-55.0935
11
83.2326
21
-55.0936
0
LINE
8
BLACK
6
CONTINUOUS
10
83.2326
20
-55.0936
11
83.2325
21
-55.0942
0
LINE
8
BLACK
6
CONTINUOUS
10
83.2325
20
-55.0942
11
83.2316
21
-55.0986
0
LINE
8
BLACK
6
CONTINUOUS
10
83.2316
20
-55.0986
11
83.2307
21
-55.1031
0
LINE
8
BLACK
6
CONTINUOUS
10
83.2307
20
-55.1031
11
83.0964
21
-55.548
0
LINE
8
BLACK
6
CONTINUOUS
10
83.0964
20
-55.548
11
83.0962
21
-55.5487
0
LINE
8
BLACK
6
CONTINUOUS
10
83.0962
20
-55.5487
11
83.0944
21
-55.5528
0
LINE
8
BLACK
6
CONTINUOUS
10
83.0944
20
-55.5528
11
83.0926
21
-55.557
0
LINE
8
BLACK
6
CONTINUOUS
10
83.0926
20
-55.557
11
82.8745
21
-55.9674
0
LINE
8
BLACK
6
CONTINUOUS
10
82.8745
20
-55.9674
11
82.8741
21
-55.968
0
LINE
8
BLACK
6
CONTINUOUS
10
82.8741
20
-55.968
11
82.8716
21
-55.9717
0
LINE
8
BLACK
6
CONTINUOUS
10
82.8716
20
-55.9717
11
82.8691
21
-55.9755
0
LINE
8
BLACK
6
CONTINUOUS
10
82.8691
20
-55.9755
11
82.5753
21
-56.3357
0
LINE
8
BLACK
6
CONTINUOUS
10
82.5753
20
-56.3357
11
82.5749
21
-56.3362
0
LINE
8
BLACK
6
CONTINUOUS
10
82.5749
20
-56.3362
11
82.5717
21
-56.3394
0
LINE
8
BLACK
6
CONTINUOUS
10
82.5717
20
-56.3394
11
82.5685
21
-56.3426
0
LINE
8
BLACK
6
CONTINUOUS
10
82.5685
20
-56.3426
11
82.2104
21
-56.6388
0
LINE
8
BLACK
6
CONTINUOUS
10
82.2104
20
-56.6388
11
82.2104
21
-56.6388
0
LINE
8
BLACK
6
CONTINUOUS
10
82.2104
20
-56.6388
11
82.2104
21
-56.6388
0
LINE
8
BLACK
6
CONTINUOUS
10
82.2104
20
-56.6388
11
82.2098
21
-56.6393
0
LINE
8
BLACK
6
CONTINUOUS
10
82.2098
20
-56.6393
11
82.2061
21
-56.6417
0
LINE
8
BLACK
6
CONTINUOUS
10
82.2061
20
-56.6417
11
82.2023
21
-56.6443
0
LINE
8
BLACK
6
CONTINUOUS
10
82.2023
20
-56.6443
11
81.7935
21
-56.8653
0
LINE
8
BLACK
6
CONTINUOUS
10
81.7935
20
-56.8653
11
81.7935
21
-56.8653
0
LINE
8
BLACK
6
CONTINUOUS
10
81.7935
20
-56.8653
11
81.7935
21
-56.8653
0
LINE
8
BLACK
6
CONTINUOUS
10
81.7935
20
-56.8653
11
81.7929
21
-56.8656
0
LINE
8
BLACK
6
CONTINUOUS
10
81.7929
20
-56.8656
11
81.7887
21
-56.8673
0
LINE
8
BLACK
6
CONTINUOUS
10
81.7887
20
-56.8673
11
81.7845
21
-56.8691
0
LINE
8
BLACK
6
CONTINUOUS
10
81.7845
20
-56.8691
11
81.3405
21
-57.0065
0
LINE
8
BLACK
6
CONTINUOUS
10
81.3405
20
-57.0065
11
81.3405
21
-57.0065
0
LINE
8
BLACK
6
CONTINUOUS
10
81.3405
20
-57.0065
11
81.3399
21
-57.0067
  0
ENDSEC
  0
EOF
