  0
SECTION
  2
HEADER
  9
$ANGBASE
  50
0.0
  9
$ANGDIR
  70
1
  9
$MEASUREMENT
  70
1
  0
ENDSEC
  0
SECTION
  2
TABLES
  0
TABLE
  2
LTYPE
  70
4
  0
LTYPE
  5
40F
  2
CONTINUOUS
  70
0
  3
Solid line
  72
65
  73
0
  40
0.0
  0
LTYPE
  5
410
  2
DASHDOT
 70
0
  3
Dash Dot ____ _ ____ _
 72
65
 73
4
 40
2.0
 49
1.25
 49
-0.25
 49
0.25
 49
-0.25
  0
LTYPE
  5
411
  2
DASHED
 70
0
  3
Dashed __ __ __ __ __
 72
65
 73
2
 40
0.75
 49
0.5
 49
-0.25
  0
LTYPE
  5
43B
  2
DOTTED
 70
0
  3
Dotted .  .  .  .
 72
65
 73
2
 40
0.2
 49
0.0
 49
-0.2
  0
ENDTAB
  0
TABLE
  2
STYLE
  70
4
  0
STYLE
  2
KICAD
  70
0
  40
0
  41
1
  42
1
  50
0
  71
0
  3
isocp.shx
  0
STYLE
  2
KICADB
  70
0
  40
0
  41
1
  42
1
  50
0
  71
0
  3
isocp.shx
  0
STYLE
  2
KICADI
  70
0
  40
0
  41
1
  42
1
  50
15
  71
0
  3
isocp.shx
  0
STYLE
  2
KICADBI
  70
0
  40
0
  41
1
  42
1
  50
15
  71
0
  3
isocp.shx
  0
ENDTAB
  0
TABLE
  2
LAYER
  70
1
  0
LAYER
  2
BLACK
  70
0
  62
7
  6
CONTINUOUS
  0
ENDTAB
  0
ENDSEC
  0
SECTION
  2
ENTITIES
0
LINE
8
BLACK
6
CONTINUOUS
10
197.394
20
-133.25
11
197.409
21
-133.252
0
LINE
8
BLACK
6
CONTINUOUS
10
197.409
20
-133.252
11
197.427
21
-133.258
0
LINE
8
BLACK
6
CONTINUOUS
10
197.427
20
-133.258
11
197.445
21
-133.267
0
LINE
8
BLACK
6
CONTINUOUS
10
197.445
20
-133.267
11
197.46
21
-133.279
0
LINE
8
BLACK
6
CONTINUOUS
10
197.46
20
-133.279
11
197.473
21
-133.295
0
LINE
8
BLACK
6
CONTINUOUS
10
197.473
20
-133.295
11
197.482
21
-133.312
0
LINE
8
BLACK
6
CONTINUOUS
10
197.482
20
-133.312
11
197.488
21
-133.331
0
LINE
8
BLACK
6
CONTINUOUS
10
197.488
20
-133.331
11
197.489
21
-133.35
0
LINE
8
BLACK
6
CONTINUOUS
10
197.489
20
-133.35
11
197.489
21
-133.355
0
LINE
8
BLACK
6
CONTINUOUS
10
197.489
20
-133.355
11
197.489
21
-147.345
0
LINE
8
BLACK
6
CONTINUOUS
10
197.489
20
-147.345
11
197.489
21
-147.35
0
LINE
8
BLACK
6
CONTINUOUS
10
197.489
20
-147.35
11
197.488
21
-147.37
0
LINE
8
BLACK
6
CONTINUOUS
10
197.488
20
-147.37
11
197.482
21
-147.388
0
LINE
8
BLACK
6
CONTINUOUS
10
197.482
20
-147.388
11
197.473
21
-147.406
0
LINE
8
BLACK
6
CONTINUOUS
10
197.473
20
-147.406
11
197.46
21
-147.421
0
LINE
8
BLACK
6
CONTINUOUS
10
197.46
20
-147.421
11
197.445
21
-147.434
0
LINE
8
BLACK
6
CONTINUOUS
10
197.445
20
-147.434
11
197.427
21
-147.443
0
LINE
8
BLACK
6
CONTINUOUS
10
197.427
20
-147.443
11
197.409
21
-147.449
0
LINE
8
BLACK
6
CONTINUOUS
10
197.409
20
-147.449
11
197.394
21
-147.45
0
LINE
8
BLACK
6
CONTINUOUS
10
197.394
20
-147.45
11
197.389
21
-147.45
0
LINE
8
BLACK
6
CONTINUOUS
10
197.389
20
-147.45
11
197.384
21
-147.45
0
LINE
8
BLACK
6
CONTINUOUS
10
197.384
20
-147.45
11
183.395
21
-147.45
0
LINE
8
BLACK
6
CONTINUOUS
10
183.395
20
-147.45
11
183.39
21
-147.45
0
LINE
8
BLACK
6
CONTINUOUS
10
183.39
20
-147.45
11
183.37
21
-147.449
0
LINE
8
BLACK
6
CONTINUOUS
10
183.37
20
-147.449
11
183.352
21
-147.443
0
LINE
8
BLACK
6
CONTINUOUS
10
183.352
20
-147.443
11
183.334
21
-147.434
0
LINE
8
BLACK
6
CONTINUOUS
10
183.334
20
-147.434
11
183.319
21
-147.421
0
LINE
8
BLACK
6
CONTINUOUS
10
183.319
20
-147.421
11
183.306
21
-147.406
0
LINE
8
BLACK
6
CONTINUOUS
10
183.306
20
-147.406
11
183.297
21
-147.388
0
LINE
8
BLACK
6
CONTINUOUS
10
183.297
20
-147.388
11
183.291
21
-147.37
0
LINE
8
BLACK
6
CONTINUOUS
10
183.291
20
-147.37
11
183.29
21
-147.35
0
LINE
8
BLACK
6
CONTINUOUS
10
183.29
20
-147.35
11
183.29
21
-147.345
0
LINE
8
BLACK
6
CONTINUOUS
10
183.29
20
-147.345
11
183.29
21
-133.355
0
LINE
8
BLACK
6
CONTINUOUS
10
183.29
20
-133.355
11
183.29
21
-133.35
0
LINE
8
BLACK
6
CONTINUOUS
10
183.29
20
-133.35
11
183.291
21
-133.331
0
LINE
8
BLACK
6
CONTINUOUS
10
183.291
20
-133.331
11
183.297
21
-133.312
0
LINE
8
BLACK
6
CONTINUOUS
10
183.297
20
-133.312
11
183.306
21
-133.295
0
LINE
8
BLACK
6
CONTINUOUS
10
183.306
20
-133.295
11
183.319
21
-133.279
0
LINE
8
BLACK
6
CONTINUOUS
10
183.319
20
-133.279
11
183.334
21
-133.267
0
LINE
8
BLACK
6
CONTINUOUS
10
183.334
20
-133.267
11
183.352
21
-133.258
0
LINE
8
BLACK
6
CONTINUOUS
10
183.352
20
-133.258
11
183.37
21
-133.252
0
LINE
8
BLACK
6
CONTINUOUS
10
183.37
20
-133.252
11
183.385
21
-133.25
0
LINE
8
BLACK
6
CONTINUOUS
10
183.385
20
-133.25
11
183.39
21
-133.25
0
LINE
8
BLACK
6
CONTINUOUS
10
183.39
20
-133.25
11
183.395
21
-133.25
0
LINE
8
BLACK
6
CONTINUOUS
10
183.395
20
-133.25
11
197.384
21
-133.25
0
LINE
8
BLACK
6
CONTINUOUS
10
197.384
20
-133.25
11
197.389
21
-133.25
0
LINE
8
BLACK
6
CONTINUOUS
10
197.389
20
-133.25
11
197.394
21
-133.25
0
LINE
8
BLACK
6
CONTINUOUS
10
183.49
20
-133.451
11
183.49
21
-147.25
0
LINE
8
BLACK
6
CONTINUOUS
10
183.49
20
-147.25
11
197.289
21
-147.25
0
LINE
8
BLACK
6
CONTINUOUS
10
197.289
20
-147.25
11
197.289
21
-133.451
0
LINE
8
BLACK
6
CONTINUOUS
10
197.289
20
-133.451
11
183.49
21
-133.451
0
LINE
8
BLACK
6
CONTINUOUS
10
178.344
20
-128.488
11
178.359
21
-128.489
0
LINE
8
BLACK
6
CONTINUOUS
10
178.359
20
-128.489
11
178.377
21
-128.495
0
LINE
8
BLACK
6
CONTINUOUS
10
178.377
20
-128.495
11
178.395
21
-128.504
0
LINE
8
BLACK
6
CONTINUOUS
10
178.395
20
-128.504
11
178.41
21
-128.517
0
LINE
8
BLACK
6
CONTINUOUS
10
178.41
20
-128.517
11
178.423
21
-128.532
0
LINE
8
BLACK
6
CONTINUOUS
10
178.423
20
-128.532
11
178.432
21
-128.55
0
LINE
8
BLACK
6
CONTINUOUS
10
178.432
20
-128.55
11
178.438
21
-128.568
0
LINE
8
BLACK
6
CONTINUOUS
10
178.438
20
-128.568
11
178.439
21
-128.588
0
LINE
8
BLACK
6
CONTINUOUS
10
178.439
20
-128.588
11
178.439
21
-128.593
0
LINE
8
BLACK
6
CONTINUOUS
10
178.439
20
-128.593
11
178.439
21
-142.583
0
LINE
8
BLACK
6
CONTINUOUS
10
178.439
20
-142.583
11
178.439
21
-142.587
0
LINE
8
BLACK
6
CONTINUOUS
10
178.439
20
-142.587
11
178.438
21
-142.607
0
LINE
8
BLACK
6
CONTINUOUS
10
178.438
20
-142.607
11
178.432
21
-142.626
0
LINE
8
BLACK
6
CONTINUOUS
10
178.432
20
-142.626
11
178.423
21
-142.643
0
LINE
8
BLACK
6
CONTINUOUS
10
178.423
20
-142.643
11
178.41
21
-142.659
0
LINE
8
BLACK
6
CONTINUOUS
10
178.41
20
-142.659
11
178.395
21
-142.671
0
LINE
8
BLACK
6
CONTINUOUS
10
178.395
20
-142.671
11
178.377
21
-142.68
0
LINE
8
BLACK
6
CONTINUOUS
10
178.377
20
-142.68
11
178.359
21
-142.686
0
LINE
8
BLACK
6
CONTINUOUS
10
178.359
20
-142.686
11
178.344
21
-142.687
0
LINE
8
BLACK
6
CONTINUOUS
10
178.344
20
-142.687
11
178.339
21
-142.688
0
LINE
8
BLACK
6
CONTINUOUS
10
178.339
20
-142.688
11
178.334
21
-142.687
0
LINE
8
BLACK
6
CONTINUOUS
10
178.334
20
-142.687
11
164.345
21
-142.687
0
LINE
8
BLACK
6
CONTINUOUS
10
164.345
20
-142.687
11
164.34
21
-142.688
0
LINE
8
BLACK
6
CONTINUOUS
10
164.34
20
-142.688
11
164.32
21
-142.686
0
LINE
8
BLACK
6
CONTINUOUS
10
164.32
20
-142.686
11
164.302
21
-142.68
0
LINE
8
BLACK
6
CONTINUOUS
10
164.302
20
-142.68
11
164.284
21
-142.671
0
LINE
8
BLACK
6
CONTINUOUS
10
164.284
20
-142.671
11
164.269
21
-142.659
0
LINE
8
BLACK
6
CONTINUOUS
10
164.269
20
-142.659
11
164.256
21
-142.643
0
LINE
8
BLACK
6
CONTINUOUS
10
164.256
20
-142.643
11
164.247
21
-142.626
0
LINE
8
BLACK
6
CONTINUOUS
10
164.247
20
-142.626
11
164.241
21
-142.607
0
LINE
8
BLACK
6
CONTINUOUS
10
164.241
20
-142.607
11
164.24
21
-142.587
0
LINE
8
BLACK
6
CONTINUOUS
10
164.24
20
-142.587
11
164.24
21
-142.583
0
LINE
8
BLACK
6
CONTINUOUS
10
164.24
20
-142.583
11
164.24
21
-128.593
0
LINE
8
BLACK
6
CONTINUOUS
10
164.24
20
-128.593
11
164.24
21
-128.588
0
LINE
8
BLACK
6
CONTINUOUS
10
164.24
20
-128.588
11
164.241
21
-128.568
0
LINE
8
BLACK
6
CONTINUOUS
10
164.241
20
-128.568
11
164.247
21
-128.55
0
LINE
8
BLACK
6
CONTINUOUS
10
164.247
20
-128.55
11
164.256
21
-128.532
0
LINE
8
BLACK
6
CONTINUOUS
10
164.256
20
-128.532
11
164.269
21
-128.517
0
LINE
8
BLACK
6
CONTINUOUS
10
164.269
20
-128.517
11
164.284
21
-128.504
0
LINE
8
BLACK
6
CONTINUOUS
10
164.284
20
-128.504
11
164.302
21
-128.495
0
LINE
8
BLACK
6
CONTINUOUS
10
164.302
20
-128.495
11
164.32
21
-128.489
0
LINE
8
BLACK
6
CONTINUOUS
10
164.32
20
-128.489
11
164.335
21
-128.488
0
LINE
8
BLACK
6
CONTINUOUS
10
164.335
20
-128.488
11
164.34
21
-128.488
0
LINE
8
BLACK
6
CONTINUOUS
10
164.34
20
-128.488
11
164.345
21
-128.488
0
LINE
8
BLACK
6
CONTINUOUS
10
164.345
20
-128.488
11
178.334
21
-128.488
0
LINE
8
BLACK
6
CONTINUOUS
10
178.334
20
-128.488
11
178.339
21
-128.488
0
LINE
8
BLACK
6
CONTINUOUS
10
178.339
20
-128.488
11
178.344
21
-128.488
0
LINE
8
BLACK
6
CONTINUOUS
10
164.44
20
-128.688
11
164.44
21
-142.487
0
LINE
8
BLACK
6
CONTINUOUS
10
164.44
20
-142.487
11
178.239
21
-142.487
0
LINE
8
BLACK
6
CONTINUOUS
10
178.239
20
-142.487
11
178.239
21
-128.688
0
LINE
8
BLACK
6
CONTINUOUS
10
178.239
20
-128.688
11
164.44
21
-128.688
0
LINE
8
BLACK
6
CONTINUOUS
10
159.294
20
-123.725
11
159.309
21
-123.727
0
LINE
8
BLACK
6
CONTINUOUS
10
159.309
20
-123.727
11
159.327
21
-123.733
0
LINE
8
BLACK
6
CONTINUOUS
10
159.327
20
-123.733
11
159.345
21
-123.742
0
LINE
8
BLACK
6
CONTINUOUS
10
159.345
20
-123.742
11
159.36
21
-123.754
0
LINE
8
BLACK
6
CONTINUOUS
10
159.36
20
-123.754
11
159.373
21
-123.77
0
LINE
8
BLACK
6
CONTINUOUS
10
159.373
20
-123.77
11
159.382
21
-123.787
0
LINE
8
BLACK
6
CONTINUOUS
10
159.382
20
-123.787
11
159.388
21
-123.806
0
LINE
8
BLACK
6
CONTINUOUS
10
159.388
20
-123.806
11
159.389
21
-123.825
0
LINE
8
BLACK
6
CONTINUOUS
10
159.389
20
-123.825
11
159.389
21
-123.83
0
LINE
8
BLACK
6
CONTINUOUS
10
159.389
20
-123.83
11
159.389
21
-137.82
0
LINE
8
BLACK
6
CONTINUOUS
10
159.389
20
-137.82
11
159.389
21
-137.825
0
LINE
8
BLACK
6
CONTINUOUS
10
159.389
20
-137.825
11
159.388
21
-137.845
0
LINE
8
BLACK
6
CONTINUOUS
10
159.388
20
-137.845
11
159.382
21
-137.863
0
LINE
8
BLACK
6
CONTINUOUS
10
159.382
20
-137.863
11
159.373
21
-137.881
0
LINE
8
BLACK
6
CONTINUOUS
10
159.373
20
-137.881
11
159.36
21
-137.896
0
LINE
8
BLACK
6
CONTINUOUS
10
159.36
20
-137.896
11
159.345
21
-137.909
0
LINE
8
BLACK
6
CONTINUOUS
10
159.345
20
-137.909
11
159.327
21
-137.918
0
LINE
8
BLACK
6
CONTINUOUS
10
159.327
20
-137.918
11
159.309
21
-137.924
0
LINE
8
BLACK
6
CONTINUOUS
10
159.309
20
-137.924
11
159.294
21
-137.925
0
LINE
8
BLACK
6
CONTINUOUS
10
159.294
20
-137.925
11
159.289
21
-137.925
0
LINE
8
BLACK
6
CONTINUOUS
10
159.289
20
-137.925
11
159.284
21
-137.925
0
LINE
8
BLACK
6
CONTINUOUS
10
159.284
20
-137.925
11
145.295
21
-137.925
0
LINE
8
BLACK
6
CONTINUOUS
10
145.295
20
-137.925
11
145.29
21
-137.925
0
LINE
8
BLACK
6
CONTINUOUS
10
145.29
20
-137.925
11
145.27
21
-137.924
0
LINE
8
BLACK
6
CONTINUOUS
10
145.27
20
-137.924
11
145.252
21
-137.918
0
LINE
8
BLACK
6
CONTINUOUS
10
145.252
20
-137.918
11
145.234
21
-137.909
0
LINE
8
BLACK
6
CONTINUOUS
10
145.234
20
-137.909
11
145.219
21
-137.896
0
LINE
8
BLACK
6
CONTINUOUS
10
145.219
20
-137.896
11
145.206
21
-137.881
0
LINE
8
BLACK
6
CONTINUOUS
10
145.206
20
-137.881
11
145.197
21
-137.863
0
LINE
8
BLACK
6
CONTINUOUS
10
145.197
20
-137.863
11
145.191
21
-137.845
0
LINE
8
BLACK
6
CONTINUOUS
10
145.191
20
-137.845
11
145.19
21
-137.825
0
LINE
8
BLACK
6
CONTINUOUS
10
145.19
20
-137.825
11
145.19
21
-137.82
0
LINE
8
BLACK
6
CONTINUOUS
10
145.19
20
-137.82
11
145.19
21
-123.83
0
LINE
8
BLACK
6
CONTINUOUS
10
145.19
20
-123.83
11
145.19
21
-123.825
0
LINE
8
BLACK
6
CONTINUOUS
10
145.19
20
-123.825
11
145.191
21
-123.806
0
LINE
8
BLACK
6
CONTINUOUS
10
145.191
20
-123.806
11
145.197
21
-123.787
0
LINE
8
BLACK
6
CONTINUOUS
10
145.197
20
-123.787
11
145.206
21
-123.77
0
LINE
8
BLACK
6
CONTINUOUS
10
145.206
20
-123.77
11
145.219
21
-123.754
0
LINE
8
BLACK
6
CONTINUOUS
10
145.219
20
-123.754
11
145.234
21
-123.742
0
LINE
8
BLACK
6
CONTINUOUS
10
145.234
20
-123.742
11
145.252
21
-123.733
0
LINE
8
BLACK
6
CONTINUOUS
10
145.252
20
-123.733
11
145.27
21
-123.727
0
LINE
8
BLACK
6
CONTINUOUS
10
145.27
20
-123.727
11
145.285
21
-123.725
0
LINE
8
BLACK
6
CONTINUOUS
10
145.285
20
-123.725
11
145.29
21
-123.725
0
LINE
8
BLACK
6
CONTINUOUS
10
145.29
20
-123.725
11
145.295
21
-123.725
0
LINE
8
BLACK
6
CONTINUOUS
10
145.295
20
-123.725
11
159.284
21
-123.725
0
LINE
8
BLACK
6
CONTINUOUS
10
159.284
20
-123.725
11
159.289
21
-123.725
0
LINE
8
BLACK
6
CONTINUOUS
10
159.289
20
-123.725
11
159.294
21
-123.725
0
LINE
8
BLACK
6
CONTINUOUS
10
145.39
20
-123.925
11
145.39
21
-137.725
0
LINE
8
BLACK
6
CONTINUOUS
10
145.39
20
-137.725
11
159.189
21
-137.725
0
LINE
8
BLACK
6
CONTINUOUS
10
159.189
20
-137.725
11
159.189
21
-123.925
0
LINE
8
BLACK
6
CONTINUOUS
10
159.189
20
-123.925
11
145.39
21
-123.925
0
LINE
8
BLACK
6
CONTINUOUS
10
202.578
20
-108.372
11
202.584
21
-108.373
0
LINE
8
BLACK
6
CONTINUOUS
10
202.584
20
-108.373
11
202.584
21
-108.373
0
LINE
8
BLACK
6
CONTINUOUS
10
202.584
20
-108.373
11
202.584
21
-108.373
0
LINE
8
BLACK
6
CONTINUOUS
10
202.584
20
-108.373
11
202.598
21
-108.377
0
LINE
8
BLACK
6
CONTINUOUS
10
202.598
20
-108.377
11
202.602
21
-108.378
0
LINE
8
BLACK
6
CONTINUOUS
10
202.602
20
-108.378
11
202.602
21
-108.378
0
LINE
8
BLACK
6
CONTINUOUS
10
202.602
20
-108.378
11
202.602
21
-108.378
0
LINE
8
BLACK
6
CONTINUOUS
10
202.602
20
-108.378
11
202.613
21
-108.384
0
LINE
8
BLACK
6
CONTINUOUS
10
202.613
20
-108.384
11
202.62
21
-108.388
0
LINE
8
BLACK
6
CONTINUOUS
10
202.62
20
-108.388
11
202.62
21
-108.388
0
LINE
8
BLACK
6
CONTINUOUS
10
202.62
20
-108.388
11
202.62
21
-108.388
0
LINE
8
BLACK
6
CONTINUOUS
10
202.62
20
-108.388
11
202.629
21
-108.395
0
LINE
8
BLACK
6
CONTINUOUS
10
202.629
20
-108.395
11
202.631
21
-108.397
0
LINE
8
BLACK
6
CONTINUOUS
10
202.631
20
-108.397
11
202.631
21
-108.397
0
LINE
8
BLACK
6
CONTINUOUS
10
202.631
20
-108.397
11
202.635
21
-108.4
0
LINE
8
BLACK
6
CONTINUOUS
10
202.635
20
-108.4
11
202.638
21
-108.404
0
LINE
8
BLACK
6
CONTINUOUS
10
202.638
20
-108.404
11
212.531
21
-118.296
0
LINE
8
BLACK
6
CONTINUOUS
10
212.531
20
-118.296
11
212.535
21
-118.299
0
LINE
8
BLACK
6
CONTINUOUS
10
212.535
20
-118.299
11
212.538
21
-118.303
0
LINE
8
BLACK
6
CONTINUOUS
10
212.538
20
-118.303
11
212.548
21
-118.314
0
LINE
8
BLACK
6
CONTINUOUS
10
212.548
20
-118.314
11
212.548
21
-118.314
0
LINE
8
BLACK
6
CONTINUOUS
10
212.548
20
-118.314
11
212.548
21
-118.314
0
LINE
8
BLACK
6
CONTINUOUS
10
212.548
20
-118.314
11
212.551
21
-118.321
0
LINE
8
BLACK
6
CONTINUOUS
10
212.551
20
-118.321
11
212.557
21
-118.331
0
LINE
8
BLACK
6
CONTINUOUS
10
212.557
20
-118.331
11
212.557
21
-118.331
0
LINE
8
BLACK
6
CONTINUOUS
10
212.557
20
-118.331
11
212.557
21
-118.331
0
LINE
8
BLACK
6
CONTINUOUS
10
212.557
20
-118.331
11
212.56
21
-118.341
0
LINE
8
BLACK
6
CONTINUOUS
10
212.56
20
-118.341
11
212.563
21
-118.35
0
LINE
8
BLACK
6
CONTINUOUS
10
212.563
20
-118.35
11
212.563
21
-118.35
0
LINE
8
BLACK
6
CONTINUOUS
10
212.563
20
-118.35
11
212.563
21
-118.35
0
LINE
8
BLACK
6
CONTINUOUS
10
212.563
20
-118.35
11
212.563
21
-118.36
0
LINE
8
BLACK
6
CONTINUOUS
10
212.563
20
-118.36
11
212.564
21
-118.37
0
LINE
8
BLACK
6
CONTINUOUS
10
212.564
20
-118.37
11
212.564
21
-118.37
0
LINE
8
BLACK
6
CONTINUOUS
10
212.564
20
-118.37
11
212.564
21
-118.37
0
LINE
8
BLACK
6
CONTINUOUS
10
212.564
20
-118.37
11
212.563
21
-118.38
0
LINE
8
BLACK
6
CONTINUOUS
10
212.563
20
-118.38
11
212.563
21
-118.389
0
LINE
8
BLACK
6
CONTINUOUS
10
212.563
20
-118.389
11
212.563
21
-118.389
0
LINE
8
BLACK
6
CONTINUOUS
10
212.563
20
-118.389
11
212.563
21
-118.389
0
LINE
8
BLACK
6
CONTINUOUS
10
212.563
20
-118.389
11
212.56
21
-118.399
0
LINE
8
BLACK
6
CONTINUOUS
10
212.56
20
-118.399
11
212.557
21
-118.408
0
LINE
8
BLACK
6
CONTINUOUS
10
212.557
20
-118.408
11
212.557
21
-118.408
0
LINE
8
BLACK
6
CONTINUOUS
10
212.557
20
-118.408
11
212.557
21
-118.408
0
LINE
8
BLACK
6
CONTINUOUS
10
212.557
20
-118.408
11
212.551
21
-118.418
0
LINE
8
BLACK
6
CONTINUOUS
10
212.551
20
-118.418
11
212.548
21
-118.426
0
LINE
8
BLACK
6
CONTINUOUS
10
212.548
20
-118.426
11
212.548
21
-118.426
0
LINE
8
BLACK
6
CONTINUOUS
10
212.548
20
-118.426
11
212.548
21
-118.426
0
LINE
8
BLACK
6
CONTINUOUS
10
212.548
20
-118.426
11
212.54
21
-118.435
0
LINE
8
BLACK
6
CONTINUOUS
10
212.54
20
-118.435
11
212.535
21
-118.441
0
LINE
8
BLACK
6
CONTINUOUS
10
212.535
20
-118.441
11
212.531
21
-118.444
0
LINE
8
BLACK
6
CONTINUOUS
10
212.531
20
-118.444
11
202.638
21
-128.336
0
LINE
8
BLACK
6
CONTINUOUS
10
202.638
20
-128.336
11
202.635
21
-128.339
0
LINE
8
BLACK
6
CONTINUOUS
10
202.635
20
-128.339
11
202.631
21
-128.342
0
LINE
8
BLACK
6
CONTINUOUS
10
202.631
20
-128.342
11
202.631
21
-128.342
0
LINE
8
BLACK
6
CONTINUOUS
10
202.631
20
-128.342
11
202.629
21
-128.344
0
LINE
8
BLACK
6
CONTINUOUS
10
202.629
20
-128.344
11
202.62
21
-128.352
0
LINE
8
BLACK
6
CONTINUOUS
10
202.62
20
-128.352
11
202.62
21
-128.352
0
LINE
8
BLACK
6
CONTINUOUS
10
202.62
20
-128.352
11
202.62
21
-128.352
0
LINE
8
BLACK
6
CONTINUOUS
10
202.62
20
-128.352
11
202.613
21
-128.355
0
LINE
8
BLACK
6
CONTINUOUS
10
202.613
20
-128.355
11
202.602
21
-128.361
0
LINE
8
BLACK
6
CONTINUOUS
10
202.602
20
-128.361
11
202.602
21
-128.361
0
LINE
8
BLACK
6
CONTINUOUS
10
202.602
20
-128.361
11
202.602
21
-128.361
0
LINE
8
BLACK
6
CONTINUOUS
10
202.602
20
-128.361
11
202.598
21
-128.362
0
LINE
8
BLACK
6
CONTINUOUS
10
202.598
20
-128.362
11
202.584
21
-128.367
0
LINE
8
BLACK
6
CONTINUOUS
10
202.584
20
-128.367
11
202.584
21
-128.367
0
LINE
8
BLACK
6
CONTINUOUS
10
202.584
20
-128.367
11
202.584
21
-128.367
0
LINE
8
BLACK
6
CONTINUOUS
10
202.584
20
-128.367
11
202.578
21
-128.367
0
LINE
8
BLACK
6
CONTINUOUS
10
202.578
20
-128.367
11
202.564
21
-128.369
0
LINE
8
BLACK
6
CONTINUOUS
10
202.564
20
-128.369
11
202.564
21
-128.369
0
LINE
8
BLACK
6
CONTINUOUS
10
202.564
20
-128.369
11
202.564
21
-128.369
0
LINE
8
BLACK
6
CONTINUOUS
10
202.564
20
-128.369
11
202.557
21
-128.368
0
LINE
8
BLACK
6
CONTINUOUS
10
202.557
20
-128.368
11
202.544
21
-128.367
0
LINE
8
BLACK
6
CONTINUOUS
10
202.544
20
-128.367
11
202.544
21
-128.367
0
LINE
8
BLACK
6
CONTINUOUS
10
202.544
20
-128.367
11
202.544
21
-128.367
0
LINE
8
BLACK
6
CONTINUOUS
10
202.544
20
-128.367
11
202.542
21
-128.366
0
LINE
8
BLACK
6
CONTINUOUS
10
202.542
20
-128.366
11
202.526
21
-128.361
0
LINE
8
BLACK
6
CONTINUOUS
10
202.526
20
-128.361
11
202.526
21
-128.361
0
LINE
8
BLACK
6
CONTINUOUS
10
202.526
20
-128.361
11
202.526
21
-128.361
0
LINE
8
BLACK
6
CONTINUOUS
10
202.526
20
-128.361
11
202.519
21
-128.358
0
LINE
8
BLACK
6
CONTINUOUS
10
202.519
20
-128.358
11
202.508
21
-128.352
0
LINE
8
BLACK
6
CONTINUOUS
10
202.508
20
-128.352
11
202.508
21
-128.352
0
LINE
8
BLACK
6
CONTINUOUS
10
202.508
20
-128.352
11
202.508
21
-128.352
0
LINE
8
BLACK
6
CONTINUOUS
10
202.508
20
-128.352
11
202.504
21
-128.348
0
LINE
8
BLACK
6
CONTINUOUS
10
202.504
20
-128.348
11
202.497
21
-128.342
0
LINE
8
BLACK
6
CONTINUOUS
10
202.497
20
-128.342
11
202.497
21
-128.342
0
LINE
8
BLACK
6
CONTINUOUS
10
202.497
20
-128.342
11
202.493
21
-128.339
0
LINE
8
BLACK
6
CONTINUOUS
10
202.493
20
-128.339
11
202.49
21
-128.336
0
LINE
8
BLACK
6
CONTINUOUS
10
202.49
20
-128.336
11
192.597
21
-118.444
0
LINE
8
BLACK
6
CONTINUOUS
10
192.597
20
-118.444
11
192.593
21
-118.441
0
LINE
8
BLACK
6
CONTINUOUS
10
192.593
20
-118.441
11
192.585
21
-118.432
0
LINE
8
BLACK
6
CONTINUOUS
10
192.585
20
-118.432
11
192.58
21
-118.426
0
LINE
8
BLACK
6
CONTINUOUS
10
192.58
20
-118.426
11
192.58
21
-118.426
0
LINE
8
BLACK
6
CONTINUOUS
10
192.58
20
-118.426
11
192.58
21
-118.426
0
LINE
8
BLACK
6
CONTINUOUS
10
192.58
20
-118.426
11
192.576
21
-118.417
0
LINE
8
BLACK
6
CONTINUOUS
10
192.576
20
-118.417
11
192.571
21
-118.408
0
LINE
8
BLACK
6
CONTINUOUS
10
192.571
20
-118.408
11
192.571
21
-118.408
0
LINE
8
BLACK
6
CONTINUOUS
10
192.571
20
-118.408
11
192.571
21
-118.408
0
LINE
8
BLACK
6
CONTINUOUS
10
192.571
20
-118.408
11
192.569
21
-118.402
0
LINE
8
BLACK
6
CONTINUOUS
10
192.569
20
-118.402
11
192.565
21
-118.389
0
LINE
8
BLACK
6
CONTINUOUS
10
192.565
20
-118.389
11
192.565
21
-118.389
0
LINE
8
BLACK
6
CONTINUOUS
10
192.565
20
-118.389
11
192.565
21
-118.389
0
LINE
8
BLACK
6
CONTINUOUS
10
192.565
20
-118.389
11
192.564
21
-118.379
0
LINE
8
BLACK
6
CONTINUOUS
10
192.564
20
-118.379
11
192.564
21
-118.37
0
LINE
8
BLACK
6
CONTINUOUS
10
192.564
20
-118.37
11
192.564
21
-118.37
0
LINE
8
BLACK
6
CONTINUOUS
10
192.564
20
-118.37
11
192.564
21
-118.37
0
LINE
8
BLACK
6
CONTINUOUS
10
192.564
20
-118.37
11
192.564
21
-118.36
0
LINE
8
BLACK
6
CONTINUOUS
10
192.564
20
-118.36
11
192.565
21
-118.35
0
LINE
8
BLACK
6
CONTINUOUS
10
192.565
20
-118.35
11
192.565
21
-118.35
0
LINE
8
BLACK
6
CONTINUOUS
10
192.565
20
-118.35
11
192.565
21
-118.35
0
LINE
8
BLACK
6
CONTINUOUS
10
192.565
20
-118.35
11
192.569
21
-118.338
0
LINE
8
BLACK
6
CONTINUOUS
10
192.569
20
-118.338
11
192.571
21
-118.331
0
LINE
8
BLACK
6
CONTINUOUS
10
192.571
20
-118.331
11
192.571
21
-118.331
0
LINE
8
BLACK
6
CONTINUOUS
10
192.571
20
-118.331
11
192.571
21
-118.331
0
LINE
8
BLACK
6
CONTINUOUS
10
192.571
20
-118.331
11
192.576
21
-118.323
0
LINE
8
BLACK
6
CONTINUOUS
10
192.576
20
-118.323
11
192.58
21
-118.314
0
LINE
8
BLACK
6
CONTINUOUS
10
192.58
20
-118.314
11
192.58
21
-118.314
0
LINE
8
BLACK
6
CONTINUOUS
10
192.58
20
-118.314
11
192.58
21
-118.314
0
LINE
8
BLACK
6
CONTINUOUS
10
192.58
20
-118.314
11
192.585
21
-118.308
0
LINE
8
BLACK
6
CONTINUOUS
10
192.585
20
-118.308
11
192.593
21
-118.299
0
LINE
8
BLACK
6
CONTINUOUS
10
192.593
20
-118.299
11
192.597
21
-118.296
0
LINE
8
BLACK
6
CONTINUOUS
10
192.597
20
-118.296
11
202.49
21
-108.404
0
LINE
8
BLACK
6
CONTINUOUS
10
202.49
20
-108.404
11
202.493
21
-108.4
0
LINE
8
BLACK
6
CONTINUOUS
10
202.493
20
-108.4
11
202.497
21
-108.397
0
LINE
8
BLACK
6
CONTINUOUS
10
202.497
20
-108.397
11
202.497
21
-108.397
0
LINE
8
BLACK
6
CONTINUOUS
10
202.497
20
-108.397
11
202.504
21
-108.391
0
LINE
8
BLACK
6
CONTINUOUS
10
202.504
20
-108.391
11
202.508
21
-108.388
0
LINE
8
BLACK
6
CONTINUOUS
10
202.508
20
-108.388
11
202.508
21
-108.388
0
LINE
8
BLACK
6
CONTINUOUS
10
202.508
20
-108.388
11
202.508
21
-108.388
0
LINE
8
BLACK
6
CONTINUOUS
10
202.508
20
-108.388
11
202.519
21
-108.382
0
LINE
8
BLACK
6
CONTINUOUS
10
202.519
20
-108.382
11
202.526
21
-108.378
0
LINE
8
BLACK
6
CONTINUOUS
10
202.526
20
-108.378
11
202.526
21
-108.378
0
LINE
8
BLACK
6
CONTINUOUS
10
202.526
20
-108.378
11
202.526
21
-108.378
0
LINE
8
BLACK
6
CONTINUOUS
10
202.526
20
-108.378
11
202.542
21
-108.373
0
LINE
8
BLACK
6
CONTINUOUS
10
202.542
20
-108.373
11
202.544
21
-108.373
0
LINE
8
BLACK
6
CONTINUOUS
10
202.544
20
-108.373
11
202.544
21
-108.373
0
LINE
8
BLACK
6
CONTINUOUS
10
202.544
20
-108.373
11
202.544
21
-108.373
0
LINE
8
BLACK
6
CONTINUOUS
10
202.544
20
-108.373
11
202.557
21
-108.371
0
LINE
8
BLACK
6
CONTINUOUS
10
202.557
20
-108.371
11
202.564
21
-108.371
0
LINE
8
BLACK
6
CONTINUOUS
10
202.564
20
-108.371
11
202.564
21
-108.371
0
LINE
8
BLACK
6
CONTINUOUS
10
202.564
20
-108.371
11
202.564
21
-108.371
0
LINE
8
BLACK
6
CONTINUOUS
10
202.564
20
-108.371
11
202.578
21
-108.372
0
LINE
8
BLACK
6
CONTINUOUS
10
192.805
20
-118.37
11
202.564
21
-128.127
0
LINE
8
BLACK
6
CONTINUOUS
10
202.564
20
-128.127
11
212.323
21
-118.37
0
LINE
8
BLACK
6
CONTINUOUS
10
212.323
20
-118.37
11
202.564
21
-108.613
0
LINE
8
BLACK
6
CONTINUOUS
10
202.564
20
-108.613
11
192.805
21
-118.37
0
LINE
8
BLACK
6
CONTINUOUS
10
159.294
20
-99.9131
11
159.309
21
-99.9145
0
LINE
8
BLACK
6
CONTINUOUS
10
159.309
20
-99.9145
11
159.327
21
-99.9203
0
LINE
8
BLACK
6
CONTINUOUS
10
159.327
20
-99.9203
11
159.345
21
-99.9296
0
LINE
8
BLACK
6
CONTINUOUS
10
159.345
20
-99.9296
11
159.36
21
-99.942
0
LINE
8
BLACK
6
CONTINUOUS
10
159.36
20
-99.942
11
159.373
21
-99.9573
0
LINE
8
BLACK
6
CONTINUOUS
10
159.373
20
-99.9573
11
159.382
21
-99.9746
0
LINE
8
BLACK
6
CONTINUOUS
10
159.382
20
-99.9746
11
159.388
21
-99.9935
0
LINE
8
BLACK
6
CONTINUOUS
10
159.388
20
-99.9935
11
159.389
21
-100.013
0
LINE
8
BLACK
6
CONTINUOUS
10
159.389
20
-100.013
11
159.389
21
-100.018
0
LINE
8
BLACK
6
CONTINUOUS
10
159.389
20
-100.018
11
159.389
21
-114.007
0
LINE
8
BLACK
6
CONTINUOUS
10
159.389
20
-114.007
11
159.389
21
-114.012
0
LINE
8
BLACK
6
CONTINUOUS
10
159.389
20
-114.012
11
159.388
21
-114.032
0
LINE
8
BLACK
6
CONTINUOUS
10
159.388
20
-114.032
11
159.382
21
-114.051
0
LINE
8
BLACK
6
CONTINUOUS
10
159.382
20
-114.051
11
159.373
21
-114.068
0
LINE
8
BLACK
6
CONTINUOUS
10
159.373
20
-114.068
11
159.36
21
-114.083
0
LINE
8
BLACK
6
CONTINUOUS
10
159.36
20
-114.083
11
159.345
21
-114.096
0
LINE
8
BLACK
6
CONTINUOUS
10
159.345
20
-114.096
11
159.327
21
-114.105
0
LINE
8
BLACK
6
CONTINUOUS
10
159.327
20
-114.105
11
159.309
21
-114.111
0
LINE
8
BLACK
6
CONTINUOUS
10
159.309
20
-114.111
11
159.294
21
-114.112
0
LINE
8
BLACK
6
CONTINUOUS
10
159.294
20
-114.112
11
159.289
21
-114.113
0
LINE
8
BLACK
6
CONTINUOUS
10
159.289
20
-114.113
11
159.284
21
-114.112
0
LINE
8
BLACK
6
CONTINUOUS
10
159.284
20
-114.112
11
145.293
21
-114.112
0
LINE
8
BLACK
6
CONTINUOUS
10
145.293
20
-114.112
11
145.288
21
-114.113
0
LINE
8
BLACK
6
CONTINUOUS
10
145.288
20
-114.113
11
145.268
21
-114.111
0
LINE
8
BLACK
6
CONTINUOUS
10
145.268
20
-114.111
11
145.25
21
-114.105
0
LINE
8
BLACK
6
CONTINUOUS
10
145.25
20
-114.105
11
145.232
21
-114.096
0
LINE
8
BLACK
6
CONTINUOUS
10
145.232
20
-114.096
11
145.217
21
-114.083
0
LINE
8
BLACK
6
CONTINUOUS
10
145.217
20
-114.083
11
145.204
21
-114.068
0
LINE
8
BLACK
6
CONTINUOUS
10
145.204
20
-114.068
11
145.195
21
-114.051
0
LINE
8
BLACK
6
CONTINUOUS
10
145.195
20
-114.051
11
145.189
21
-114.032
0
LINE
8
BLACK
6
CONTINUOUS
10
145.189
20
-114.032
11
145.188
21
-114.012
0
LINE
8
BLACK
6
CONTINUOUS
10
145.188
20
-114.012
11
145.188
21
-114.007
0
LINE
8
BLACK
6
CONTINUOUS
10
145.188
20
-114.007
11
145.188
21
-100.018
0
LINE
8
BLACK
6
CONTINUOUS
10
145.188
20
-100.018
11
145.188
21
-100.013
0
LINE
8
BLACK
6
CONTINUOUS
10
145.188
20
-100.013
11
145.189
21
-99.9935
0
LINE
8
BLACK
6
CONTINUOUS
10
145.189
20
-99.9935
11
145.195
21
-99.9746
0
LINE
8
BLACK
6
CONTINUOUS
10
145.195
20
-99.9746
11
145.204
21
-99.9573
0
LINE
8
BLACK
6
CONTINUOUS
10
145.204
20
-99.9573
11
145.217
21
-99.942
0
LINE
8
BLACK
6
CONTINUOUS
10
145.217
20
-99.942
11
145.232
21
-99.9296
0
LINE
8
BLACK
6
CONTINUOUS
10
145.232
20
-99.9296
11
145.25
21
-99.9203
0
LINE
8
BLACK
6
CONTINUOUS
10
145.25
20
-99.9203
11
145.268
21
-99.9145
0
LINE
8
BLACK
6
CONTINUOUS
10
145.268
20
-99.9145
11
145.283
21
-99.9131
0
LINE
8
BLACK
6
CONTINUOUS
10
145.283
20
-99.9131
11
145.288
21
-99.9126
0
LINE
8
BLACK
6
CONTINUOUS
10
145.288
20
-99.9126
11
145.293
21
-99.9131
0
LINE
8
BLACK
6
CONTINUOUS
10
145.293
20
-99.9131
11
159.284
21
-99.9131
0
LINE
8
BLACK
6
CONTINUOUS
10
159.284
20
-99.9131
11
159.289
21
-99.9126
0
LINE
8
BLACK
6
CONTINUOUS
10
159.289
20
-99.9126
11
159.294
21
-99.9131
0
LINE
8
BLACK
6
CONTINUOUS
10
145.388
20
-100.113
11
145.388
21
-113.912
0
LINE
8
BLACK
6
CONTINUOUS
10
145.388
20
-113.912
11
159.189
21
-113.912
0
LINE
8
BLACK
6
CONTINUOUS
10
159.189
20
-113.912
11
159.189
21
-100.113
0
LINE
8
BLACK
6
CONTINUOUS
10
159.189
20
-100.113
11
145.388
21
-100.113
0
LINE
8
BLACK
6
CONTINUOUS
10
83.0939
20
-99.9131
11
83.1086
21
-99.9145
0
LINE
8
BLACK
6
CONTINUOUS
10
83.1086
20
-99.9145
11
83.1275
21
-99.9203
0
LINE
8
BLACK
6
CONTINUOUS
10
83.1275
20
-99.9203
11
83.1448
21
-99.9296
0
LINE
8
BLACK
6
CONTINUOUS
10
83.1448
20
-99.9296
11
83.1601
21
-99.942
0
LINE
8
BLACK
6
CONTINUOUS
10
83.1601
20
-99.942
11
83.1725
21
-99.9573
0
LINE
8
BLACK
6
CONTINUOUS
10
83.1725
20
-99.9573
11
83.1818
21
-99.9746
0
LINE
8
BLACK
6
CONTINUOUS
10
83.1818
20
-99.9746
11
83.1876
21
-99.9935
0
LINE
8
BLACK
6
CONTINUOUS
10
83.1876
20
-99.9935
11
83.1895
21
-100.013
0
LINE
8
BLACK
6
CONTINUOUS
10
83.1895
20
-100.013
11
83.189
21
-100.018
0
LINE
8
BLACK
6
CONTINUOUS
10
83.189
20
-100.018
11
83.189
21
-114.007
0
LINE
8
BLACK
6
CONTINUOUS
10
83.189
20
-114.007
11
83.1895
21
-114.012
0
LINE
8
BLACK
6
CONTINUOUS
10
83.1895
20
-114.012
11
83.1876
21
-114.032
0
LINE
8
BLACK
6
CONTINUOUS
10
83.1876
20
-114.032
11
83.1818
21
-114.051
0
LINE
8
BLACK
6
CONTINUOUS
10
83.1818
20
-114.051
11
83.1725
21
-114.068
0
LINE
8
BLACK
6
CONTINUOUS
10
83.1725
20
-114.068
11
83.1601
21
-114.083
0
LINE
8
BLACK
6
CONTINUOUS
10
83.1601
20
-114.083
11
83.1448
21
-114.096
0
LINE
8
BLACK
6
CONTINUOUS
10
83.1448
20
-114.096
11
83.1275
21
-114.105
0
LINE
8
BLACK
6
CONTINUOUS
10
83.1275
20
-114.105
11
83.1086
21
-114.111
0
LINE
8
BLACK
6
CONTINUOUS
10
83.1086
20
-114.111
11
83.0939
21
-114.112
0
LINE
8
BLACK
6
CONTINUOUS
10
83.0939
20
-114.112
11
83.089
21
-114.113
0
LINE
8
BLACK
6
CONTINUOUS
10
83.089
20
-114.113
11
83.0841
21
-114.112
0
LINE
8
BLACK
6
CONTINUOUS
10
83.0841
20
-114.112
11
69.0946
21
-114.112
0
LINE
8
BLACK
6
CONTINUOUS
10
69.0946
20
-114.112
11
69.0897
21
-114.113
0
LINE
8
BLACK
6
CONTINUOUS
10
69.0897
20
-114.113
11
69.0701
21
-114.111
0
LINE
8
BLACK
6
CONTINUOUS
10
69.0701
20
-114.111
11
69.0512
21
-114.105
0
LINE
8
BLACK
6
CONTINUOUS
10
69.0512
20
-114.105
11
69.0339
21
-114.096
0
LINE
8
BLACK
6
CONTINUOUS
10
69.0339
20
-114.096
11
69.0186
21
-114.083
0
LINE
8
BLACK
6
CONTINUOUS
10
69.0186
20
-114.083
11
69.0062
21
-114.068
0
LINE
8
BLACK
6
CONTINUOUS
10
69.0062
20
-114.068
11
68.9969
21
-114.051
0
LINE
8
BLACK
6
CONTINUOUS
10
68.9969
20
-114.051
11
68.9911
21
-114.032
0
LINE
8
BLACK
6
CONTINUOUS
10
68.9911
20
-114.032
11
68.9892
21
-114.012
0
LINE
8
BLACK
6
CONTINUOUS
10
68.9892
20
-114.012
11
68.9897
21
-114.007
0
LINE
8
BLACK
6
CONTINUOUS
10
68.9897
20
-114.007
11
68.9897
21
-100.018
0
LINE
8
BLACK
6
CONTINUOUS
10
68.9897
20
-100.018
11
68.9892
21
-100.013
0
LINE
8
BLACK
6
CONTINUOUS
10
68.9892
20
-100.013
11
68.9911
21
-99.9935
0
LINE
8
BLACK
6
CONTINUOUS
10
68.9911
20
-99.9935
11
68.9969
21
-99.9746
0
LINE
8
BLACK
6
CONTINUOUS
10
68.9969
20
-99.9746
11
69.0062
21
-99.9573
0
LINE
8
BLACK
6
CONTINUOUS
10
69.0062
20
-99.9573
11
69.0186
21
-99.942
0
LINE
8
BLACK
6
CONTINUOUS
10
69.0186
20
-99.942
11
69.0339
21
-99.9296
0
LINE
8
BLACK
6
CONTINUOUS
10
69.0339
20
-99.9296
11
69.0512
21
-99.9203
0
LINE
8
BLACK
6
CONTINUOUS
10
69.0512
20
-99.9203
11
69.0701
21
-99.9145
0
LINE
8
BLACK
6
CONTINUOUS
10
69.0701
20
-99.9145
11
69.0848
21
-99.9131
0
LINE
8
BLACK
6
CONTINUOUS
10
69.0848
20
-99.9131
11
69.0897
21
-99.9126
0
LINE
8
BLACK
6
CONTINUOUS
10
69.0897
20
-99.9126
11
69.0946
21
-99.9131
0
LINE
8
BLACK
6
CONTINUOUS
10
69.0946
20
-99.9131
11
83.0841
21
-99.9131
0
LINE
8
BLACK
6
CONTINUOUS
10
83.0841
20
-99.9131
11
83.089
21
-99.9126
0
LINE
8
BLACK
6
CONTINUOUS
10
83.089
20
-99.9126
11
83.0939
21
-99.9131
0
LINE
8
BLACK
6
CONTINUOUS
10
69.1897
20
-100.113
11
69.1897
21
-113.912
0
LINE
8
BLACK
6
CONTINUOUS
10
69.1897
20
-113.912
11
82.989
21
-113.912
0
LINE
8
BLACK
6
CONTINUOUS
10
82.989
20
-113.912
11
82.989
21
-100.113
0
LINE
8
BLACK
6
CONTINUOUS
10
82.989
20
-100.113
11
69.1897
21
-100.113
0
LINE
8
BLACK
6
CONTINUOUS
10
140.244
20
-99.9131
11
140.259
21
-99.9145
0
LINE
8
BLACK
6
CONTINUOUS
10
140.259
20
-99.9145
11
140.277
21
-99.9203
0
LINE
8
BLACK
6
CONTINUOUS
10
140.277
20
-99.9203
11
140.295
21
-99.9296
0
LINE
8
BLACK
6
CONTINUOUS
10
140.295
20
-99.9296
11
140.31
21
-99.942
0
LINE
8
BLACK
6
CONTINUOUS
10
140.31
20
-99.942
11
140.323
21
-99.9573
0
LINE
8
BLACK
6
CONTINUOUS
10
140.323
20
-99.9573
11
140.332
21
-99.9746
0
LINE
8
BLACK
6
CONTINUOUS
10
140.332
20
-99.9746
11
140.338
21
-99.9935
0
LINE
8
BLACK
6
CONTINUOUS
10
140.338
20
-99.9935
11
140.339
21
-100.013
0
LINE
8
BLACK
6
CONTINUOUS
10
140.339
20
-100.013
11
140.339
21
-100.018
0
LINE
8
BLACK
6
CONTINUOUS
10
140.339
20
-100.018
11
140.339
21
-114.007
0
LINE
8
BLACK
6
CONTINUOUS
10
140.339
20
-114.007
11
140.339
21
-114.012
0
LINE
8
BLACK
6
CONTINUOUS
10
140.339
20
-114.012
11
140.338
21
-114.032
0
LINE
8
BLACK
6
CONTINUOUS
10
140.338
20
-114.032
11
140.332
21
-114.051
0
LINE
8
BLACK
6
CONTINUOUS
10
140.332
20
-114.051
11
140.323
21
-114.068
0
LINE
8
BLACK
6
CONTINUOUS
10
140.323
20
-114.068
11
140.31
21
-114.083
0
LINE
8
BLACK
6
CONTINUOUS
10
140.31
20
-114.083
11
140.295
21
-114.096
0
LINE
8
BLACK
6
CONTINUOUS
10
140.295
20
-114.096
11
140.277
21
-114.105
0
LINE
8
BLACK
6
CONTINUOUS
10
140.277
20
-114.105
11
140.259
21
-114.111
0
LINE
8
BLACK
6
CONTINUOUS
10
140.259
20
-114.111
11
140.244
21
-114.112
0
LINE
8
BLACK
6
CONTINUOUS
10
140.244
20
-114.112
11
140.239
21
-114.113
0
LINE
8
BLACK
6
CONTINUOUS
10
140.239
20
-114.113
11
140.234
21
-114.112
0
LINE
8
BLACK
6
CONTINUOUS
10
140.234
20
-114.112
11
126.243
21
-114.112
0
LINE
8
BLACK
6
CONTINUOUS
10
126.243
20
-114.112
11
126.238
21
-114.113
0
LINE
8
BLACK
6
CONTINUOUS
10
126.238
20
-114.113
11
126.219
21
-114.111
0
LINE
8
BLACK
6
CONTINUOUS
10
126.219
20
-114.111
11
126.2
21
-114.105
0
LINE
8
BLACK
6
CONTINUOUS
10
126.2
20
-114.105
11
126.182
21
-114.096
0
LINE
8
BLACK
6
CONTINUOUS
10
126.182
20
-114.096
11
126.167
21
-114.083
0
LINE
8
BLACK
6
CONTINUOUS
10
126.167
20
-114.083
11
126.155
21
-114.068
0
LINE
8
BLACK
6
CONTINUOUS
10
126.155
20
-114.068
11
126.145
21
-114.051
0
LINE
8
BLACK
6
CONTINUOUS
10
126.145
20
-114.051
11
126.14
21
-114.032
0
LINE
8
BLACK
6
CONTINUOUS
10
126.14
20
-114.032
11
126.138
21
-114.012
0
LINE
8
BLACK
6
CONTINUOUS
10
126.138
20
-114.012
11
126.138
21
-114.007
0
LINE
8
BLACK
6
CONTINUOUS
10
126.138
20
-114.007
11
126.138
21
-100.018
0
LINE
8
BLACK
6
CONTINUOUS
10
126.138
20
-100.018
11
126.138
21
-100.013
0
LINE
8
BLACK
6
CONTINUOUS
10
126.138
20
-100.013
11
126.14
21
-99.9935
0
LINE
8
BLACK
6
CONTINUOUS
10
126.14
20
-99.9935
11
126.145
21
-99.9746
0
LINE
8
BLACK
6
CONTINUOUS
10
126.145
20
-99.9746
11
126.155
21
-99.9573
0
LINE
8
BLACK
6
CONTINUOUS
10
126.155
20
-99.9573
11
126.167
21
-99.942
0
LINE
8
BLACK
6
CONTINUOUS
10
126.167
20
-99.942
11
126.182
21
-99.9296
0
LINE
8
BLACK
6
CONTINUOUS
10
126.182
20
-99.9296
11
126.2
21
-99.9203
0
LINE
8
BLACK
6
CONTINUOUS
10
126.2
20
-99.9203
11
126.219
21
-99.9145
0
LINE
8
BLACK
6
CONTINUOUS
10
126.219
20
-99.9145
11
126.233
21
-99.9131
0
LINE
8
BLACK
6
CONTINUOUS
10
126.233
20
-99.9131
11
126.238
21
-99.9126
0
LINE
8
BLACK
6
CONTINUOUS
10
126.238
20
-99.9126
11
126.243
21
-99.9131
0
LINE
8
BLACK
6
CONTINUOUS
10
126.243
20
-99.9131
11
140.234
21
-99.9131
0
LINE
8
BLACK
6
CONTINUOUS
10
140.234
20
-99.9131
11
140.239
21
-99.9126
0
LINE
8
BLACK
6
CONTINUOUS
10
140.239
20
-99.9126
11
140.244
21
-99.9131
0
LINE
8
BLACK
6
CONTINUOUS
10
126.338
20
-100.113
11
126.338
21
-113.912
0
LINE
8
BLACK
6
CONTINUOUS
10
126.338
20
-113.912
11
140.139
21
-113.912
0
LINE
8
BLACK
6
CONTINUOUS
10
140.139
20
-113.912
11
140.139
21
-100.113
0
LINE
8
BLACK
6
CONTINUOUS
10
140.139
20
-100.113
11
126.338
21
-100.113
0
LINE
8
BLACK
6
CONTINUOUS
10
102.144
20
-99.9131
11
102.159
21
-99.9145
0
LINE
8
BLACK
6
CONTINUOUS
10
102.159
20
-99.9145
11
102.177
21
-99.9203
0
LINE
8
BLACK
6
CONTINUOUS
10
102.177
20
-99.9203
11
102.195
21
-99.9296
0
LINE
8
BLACK
6
CONTINUOUS
10
102.195
20
-99.9296
11
102.21
21
-99.942
0
LINE
8
BLACK
6
CONTINUOUS
10
102.21
20
-99.942
11
102.223
21
-99.9573
0
LINE
8
BLACK
6
CONTINUOUS
10
102.223
20
-99.9573
11
102.232
21
-99.9746
0
LINE
8
BLACK
6
CONTINUOUS
10
102.232
20
-99.9746
11
102.238
21
-99.9935
0
LINE
8
BLACK
6
CONTINUOUS
10
102.238
20
-99.9935
11
102.239
21
-100.013
0
LINE
8
BLACK
6
CONTINUOUS
10
102.239
20
-100.013
11
102.239
21
-100.018
0
LINE
8
BLACK
6
CONTINUOUS
10
102.239
20
-100.018
11
102.239
21
-114.007
0
LINE
8
BLACK
6
CONTINUOUS
10
102.239
20
-114.007
11
102.239
21
-114.012
0
LINE
8
BLACK
6
CONTINUOUS
10
102.239
20
-114.012
11
102.238
21
-114.032
0
LINE
8
BLACK
6
CONTINUOUS
10
102.238
20
-114.032
11
102.232
21
-114.051
0
LINE
8
BLACK
6
CONTINUOUS
10
102.232
20
-114.051
11
102.223
21
-114.068
0
LINE
8
BLACK
6
CONTINUOUS
10
102.223
20
-114.068
11
102.21
21
-114.083
0
LINE
8
BLACK
6
CONTINUOUS
10
102.21
20
-114.083
11
102.195
21
-114.096
0
LINE
8
BLACK
6
CONTINUOUS
10
102.195
20
-114.096
11
102.177
21
-114.105
0
LINE
8
BLACK
6
CONTINUOUS
10
102.177
20
-114.105
11
102.159
21
-114.111
0
LINE
8
BLACK
6
CONTINUOUS
10
102.159
20
-114.111
11
102.144
21
-114.112
0
LINE
8
BLACK
6
CONTINUOUS
10
102.144
20
-114.112
11
102.139
21
-114.113
0
LINE
8
BLACK
6
CONTINUOUS
10
102.139
20
-114.113
11
102.134
21
-114.112
0
LINE
8
BLACK
6
CONTINUOUS
10
102.134
20
-114.112
11
88.1446
21
-114.112
0
LINE
8
BLACK
6
CONTINUOUS
10
88.1446
20
-114.112
11
88.1397
21
-114.113
0
LINE
8
BLACK
6
CONTINUOUS
10
88.1397
20
-114.113
11
88.1201
21
-114.111
0
LINE
8
BLACK
6
CONTINUOUS
10
88.1201
20
-114.111
11
88.1012
21
-114.105
0
LINE
8
BLACK
6
CONTINUOUS
10
88.1012
20
-114.105
11
88.0839
21
-114.096
0
LINE
8
BLACK
6
CONTINUOUS
10
88.0839
20
-114.096
11
88.0686
21
-114.083
0
LINE
8
BLACK
6
CONTINUOUS
10
88.0686
20
-114.083
11
88.0562
21
-114.068
0
LINE
8
BLACK
6
CONTINUOUS
10
88.0562
20
-114.068
11
88.0469
21
-114.051
0
LINE
8
BLACK
6
CONTINUOUS
10
88.0469
20
-114.051
11
88.0411
21
-114.032
0
LINE
8
BLACK
6
CONTINUOUS
10
88.0411
20
-114.032
11
88.0392
21
-114.012
0
LINE
8
BLACK
6
CONTINUOUS
10
88.0392
20
-114.012
11
88.0397
21
-114.007
0
LINE
8
BLACK
6
CONTINUOUS
10
88.0397
20
-114.007
11
88.0397
21
-100.018
0
LINE
8
BLACK
6
CONTINUOUS
10
88.0397
20
-100.018
11
88.0392
21
-100.013
0
LINE
8
BLACK
6
CONTINUOUS
10
88.0392
20
-100.013
11
88.0411
21
-99.9935
0
LINE
8
BLACK
6
CONTINUOUS
10
88.0411
20
-99.9935
11
88.0469
21
-99.9746
0
LINE
8
BLACK
6
CONTINUOUS
10
88.0469
20
-99.9746
11
88.0562
21
-99.9573
0
LINE
8
BLACK
6
CONTINUOUS
10
88.0562
20
-99.9573
11
88.0686
21
-99.942
0
LINE
8
BLACK
6
CONTINUOUS
10
88.0686
20
-99.942
11
88.0839
21
-99.9296
0
LINE
8
BLACK
6
CONTINUOUS
10
88.0839
20
-99.9296
11
88.1012
21
-99.9203
0
LINE
8
BLACK
6
CONTINUOUS
10
88.1012
20
-99.9203
11
88.1201
21
-99.9145
0
LINE
8
BLACK
6
CONTINUOUS
10
88.1201
20
-99.9145
11
88.1348
21
-99.9131
0
LINE
8
BLACK
6
CONTINUOUS
10
88.1348
20
-99.9131
11
88.1397
21
-99.9126
0
LINE
8
BLACK
6
CONTINUOUS
10
88.1397
20
-99.9126
11
88.1446
21
-99.9131
0
LINE
8
BLACK
6
CONTINUOUS
10
88.1446
20
-99.9131
11
102.134
21
-99.9131
0
LINE
8
BLACK
6
CONTINUOUS
10
102.134
20
-99.9131
11
102.139
21
-99.9126
0
LINE
8
BLACK
6
CONTINUOUS
10
102.139
20
-99.9126
11
102.144
21
-99.9131
0
LINE
8
BLACK
6
CONTINUOUS
10
88.2397
20
-100.113
11
88.2397
21
-113.912
0
LINE
8
BLACK
6
CONTINUOUS
10
88.2397
20
-113.912
11
102.039
21
-113.912
0
LINE
8
BLACK
6
CONTINUOUS
10
102.039
20
-113.912
11
102.039
21
-100.113
0
LINE
8
BLACK
6
CONTINUOUS
10
102.039
20
-100.113
11
88.2397
21
-100.113
0
LINE
8
BLACK
6
CONTINUOUS
10
121.194
20
-99.9131
11
121.209
21
-99.9145
0
LINE
8
BLACK
6
CONTINUOUS
10
121.209
20
-99.9145
11
121.227
21
-99.9203
0
LINE
8
BLACK
6
CONTINUOUS
10
121.227
20
-99.9203
11
121.245
21
-99.9296
0
LINE
8
BLACK
6
CONTINUOUS
10
121.245
20
-99.9296
11
121.26
21
-99.942
0
LINE
8
BLACK
6
CONTINUOUS
10
121.26
20
-99.942
11
121.273
21
-99.9573
0
LINE
8
BLACK
6
CONTINUOUS
10
121.273
20
-99.9573
11
121.282
21
-99.9746
0
LINE
8
BLACK
6
CONTINUOUS
10
121.282
20
-99.9746
11
121.288
21
-99.9935
0
LINE
8
BLACK
6
CONTINUOUS
10
121.288
20
-99.9935
11
121.289
21
-100.013
0
LINE
8
BLACK
6
CONTINUOUS
10
121.289
20
-100.013
11
121.289
21
-100.018
0
LINE
8
BLACK
6
CONTINUOUS
10
121.289
20
-100.018
11
121.289
21
-114.007
0
LINE
8
BLACK
6
CONTINUOUS
10
121.289
20
-114.007
11
121.289
21
-114.012
0
LINE
8
BLACK
6
CONTINUOUS
10
121.289
20
-114.012
11
121.288
21
-114.032
0
LINE
8
BLACK
6
CONTINUOUS
10
121.288
20
-114.032
11
121.282
21
-114.051
0
LINE
8
BLACK
6
CONTINUOUS
10
121.282
20
-114.051
11
121.273
21
-114.068
0
LINE
8
BLACK
6
CONTINUOUS
10
121.273
20
-114.068
11
121.26
21
-114.083
0
LINE
8
BLACK
6
CONTINUOUS
10
121.26
20
-114.083
11
121.245
21
-114.096
0
LINE
8
BLACK
6
CONTINUOUS
10
121.245
20
-114.096
11
121.227
21
-114.105
0
LINE
8
BLACK
6
CONTINUOUS
10
121.227
20
-114.105
11
121.209
21
-114.111
0
LINE
8
BLACK
6
CONTINUOUS
10
121.209
20
-114.111
11
121.194
21
-114.112
0
LINE
8
BLACK
6
CONTINUOUS
10
121.194
20
-114.112
11
121.189
21
-114.113
0
LINE
8
BLACK
6
CONTINUOUS
10
121.189
20
-114.113
11
121.184
21
-114.112
0
LINE
8
BLACK
6
CONTINUOUS
10
121.184
20
-114.112
11
107.195
21
-114.112
0
LINE
8
BLACK
6
CONTINUOUS
10
107.195
20
-114.112
11
107.19
21
-114.113
0
LINE
8
BLACK
6
CONTINUOUS
10
107.19
20
-114.113
11
107.17
21
-114.111
0
LINE
8
BLACK
6
CONTINUOUS
10
107.17
20
-114.111
11
107.151
21
-114.105
0
LINE
8
BLACK
6
CONTINUOUS
10
107.151
20
-114.105
11
107.134
21
-114.096
0
LINE
8
BLACK
6
CONTINUOUS
10
107.134
20
-114.096
11
107.119
21
-114.083
0
LINE
8
BLACK
6
CONTINUOUS
10
107.119
20
-114.083
11
107.106
21
-114.068
0
LINE
8
BLACK
6
CONTINUOUS
10
107.106
20
-114.068
11
107.097
21
-114.051
0
LINE
8
BLACK
6
CONTINUOUS
10
107.097
20
-114.051
11
107.091
21
-114.032
0
LINE
8
BLACK
6
CONTINUOUS
10
107.091
20
-114.032
11
107.089
21
-114.012
0
LINE
8
BLACK
6
CONTINUOUS
10
107.089
20
-114.012
11
107.09
21
-114.007
0
LINE
8
BLACK
6
CONTINUOUS
10
107.09
20
-114.007
11
107.09
21
-100.018
0
LINE
8
BLACK
6
CONTINUOUS
10
107.09
20
-100.018
11
107.089
21
-100.013
0
LINE
8
BLACK
6
CONTINUOUS
10
107.089
20
-100.013
11
107.091
21
-99.9935
0
LINE
8
BLACK
6
CONTINUOUS
10
107.091
20
-99.9935
11
107.097
21
-99.9746
0
LINE
8
BLACK
6
CONTINUOUS
10
107.097
20
-99.9746
11
107.106
21
-99.9573
0
LINE
8
BLACK
6
CONTINUOUS
10
107.106
20
-99.9573
11
107.119
21
-99.942
0
LINE
8
BLACK
6
CONTINUOUS
10
107.119
20
-99.942
11
107.134
21
-99.9296
0
LINE
8
BLACK
6
CONTINUOUS
10
107.134
20
-99.9296
11
107.151
21
-99.9203
0
LINE
8
BLACK
6
CONTINUOUS
10
107.151
20
-99.9203
11
107.17
21
-99.9145
0
LINE
8
BLACK
6
CONTINUOUS
10
107.17
20
-99.9145
11
107.185
21
-99.9131
0
LINE
8
BLACK
6
CONTINUOUS
10
107.185
20
-99.9131
11
107.19
21
-99.9126
0
LINE
8
BLACK
6
CONTINUOUS
10
107.19
20
-99.9126
11
107.195
21
-99.9131
0
LINE
8
BLACK
6
CONTINUOUS
10
107.195
20
-99.9131
11
121.184
21
-99.9131
0
LINE
8
BLACK
6
CONTINUOUS
10
121.184
20
-99.9131
11
121.189
21
-99.9126
0
LINE
8
BLACK
6
CONTINUOUS
10
121.189
20
-99.9126
11
121.194
21
-99.9131
0
LINE
8
BLACK
6
CONTINUOUS
10
107.29
20
-100.113
11
107.29
21
-113.912
0
LINE
8
BLACK
6
CONTINUOUS
10
107.29
20
-113.912
11
121.089
21
-113.912
0
LINE
8
BLACK
6
CONTINUOUS
10
121.089
20
-113.912
11
121.089
21
-100.113
0
LINE
8
BLACK
6
CONTINUOUS
10
121.089
20
-100.113
11
107.29
21
-100.113
0
LINE
8
BLACK
6
CONTINUOUS
10
178.344
20
-99.9131
11
178.359
21
-99.9145
0
LINE
8
BLACK
6
CONTINUOUS
10
178.359
20
-99.9145
11
178.377
21
-99.9203
0
LINE
8
BLACK
6
CONTINUOUS
10
178.377
20
-99.9203
11
178.395
21
-99.9296
0
LINE
8
BLACK
6
CONTINUOUS
10
178.395
20
-99.9296
11
178.41
21
-99.942
0
LINE
8
BLACK
6
CONTINUOUS
10
178.41
20
-99.942
11
178.423
21
-99.9573
0
LINE
8
BLACK
6
CONTINUOUS
10
178.423
20
-99.9573
11
178.432
21
-99.9746
0
LINE
8
BLACK
6
CONTINUOUS
10
178.432
20
-99.9746
11
178.438
21
-99.9935
0
LINE
8
BLACK
6
CONTINUOUS
10
178.438
20
-99.9935
11
178.439
21
-100.013
0
LINE
8
BLACK
6
CONTINUOUS
10
178.439
20
-100.013
11
178.439
21
-100.018
0
LINE
8
BLACK
6
CONTINUOUS
10
178.439
20
-100.018
11
178.439
21
-114.007
0
LINE
8
BLACK
6
CONTINUOUS
10
178.439
20
-114.007
11
178.439
21
-114.012
0
LINE
8
BLACK
6
CONTINUOUS
10
178.439
20
-114.012
11
178.438
21
-114.032
0
LINE
8
BLACK
6
CONTINUOUS
10
178.438
20
-114.032
11
178.432
21
-114.051
0
LINE
8
BLACK
6
CONTINUOUS
10
178.432
20
-114.051
11
178.423
21
-114.068
0
LINE
8
BLACK
6
CONTINUOUS
10
178.423
20
-114.068
11
178.41
21
-114.083
0
LINE
8
BLACK
6
CONTINUOUS
10
178.41
20
-114.083
11
178.395
21
-114.096
0
LINE
8
BLACK
6
CONTINUOUS
10
178.395
20
-114.096
11
178.377
21
-114.105
0
LINE
8
BLACK
6
CONTINUOUS
10
178.377
20
-114.105
11
178.359
21
-114.111
0
LINE
8
BLACK
6
CONTINUOUS
10
178.359
20
-114.111
11
178.344
21
-114.112
0
LINE
8
BLACK
6
CONTINUOUS
10
178.344
20
-114.112
11
178.339
21
-114.113
0
LINE
8
BLACK
6
CONTINUOUS
10
178.339
20
-114.113
11
178.334
21
-114.112
0
LINE
8
BLACK
6
CONTINUOUS
10
178.334
20
-114.112
11
164.345
21
-114.112
0
LINE
8
BLACK
6
CONTINUOUS
10
164.345
20
-114.112
11
164.34
21
-114.113
0
LINE
8
BLACK
6
CONTINUOUS
10
164.34
20
-114.113
11
164.32
21
-114.111
0
LINE
8
BLACK
6
CONTINUOUS
10
164.32
20
-114.111
11
164.302
21
-114.105
0
LINE
8
BLACK
6
CONTINUOUS
10
164.302
20
-114.105
11
164.284
21
-114.096
0
LINE
8
BLACK
6
CONTINUOUS
10
164.284
20
-114.096
11
164.269
21
-114.083
0
LINE
8
BLACK
6
CONTINUOUS
10
164.269
20
-114.083
11
164.256
21
-114.068
0
LINE
8
BLACK
6
CONTINUOUS
10
164.256
20
-114.068
11
164.247
21
-114.051
0
LINE
8
BLACK
6
CONTINUOUS
10
164.247
20
-114.051
11
164.241
21
-114.032
0
LINE
8
BLACK
6
CONTINUOUS
10
164.241
20
-114.032
11
164.24
21
-114.012
0
LINE
8
BLACK
6
CONTINUOUS
10
164.24
20
-114.012
11
164.24
21
-114.007
0
LINE
8
BLACK
6
CONTINUOUS
10
164.24
20
-114.007
11
164.24
21
-100.018
0
LINE
8
BLACK
6
CONTINUOUS
10
164.24
20
-100.018
11
164.24
21
-100.013
0
LINE
8
BLACK
6
CONTINUOUS
10
164.24
20
-100.013
11
164.241
21
-99.9935
0
LINE
8
BLACK
6
CONTINUOUS
10
164.241
20
-99.9935
11
164.247
21
-99.9746
0
LINE
8
BLACK
6
CONTINUOUS
10
164.247
20
-99.9746
11
164.256
21
-99.9573
0
LINE
8
BLACK
6
CONTINUOUS
10
164.256
20
-99.9573
11
164.269
21
-99.942
0
LINE
8
BLACK
6
CONTINUOUS
10
164.269
20
-99.942
11
164.284
21
-99.9296
0
LINE
8
BLACK
6
CONTINUOUS
10
164.284
20
-99.9296
11
164.302
21
-99.9203
0
LINE
8
BLACK
6
CONTINUOUS
10
164.302
20
-99.9203
11
164.32
21
-99.9145
0
LINE
8
BLACK
6
CONTINUOUS
10
164.32
20
-99.9145
11
164.335
21
-99.9131
0
LINE
8
BLACK
6
CONTINUOUS
10
164.335
20
-99.9131
11
164.34
21
-99.9126
0
LINE
8
BLACK
6
CONTINUOUS
10
164.34
20
-99.9126
11
164.345
21
-99.9131
0
LINE
8
BLACK
6
CONTINUOUS
10
164.345
20
-99.9131
11
178.334
21
-99.9131
0
LINE
8
BLACK
6
CONTINUOUS
10
178.334
20
-99.9131
11
178.339
21
-99.9126
0
LINE
8
BLACK
6
CONTINUOUS
10
178.339
20
-99.9126
11
178.344
21
-99.9131
0
LINE
8
BLACK
6
CONTINUOUS
10
164.44
20
-100.113
11
164.44
21
-113.912
0
LINE
8
BLACK
6
CONTINUOUS
10
164.44
20
-113.912
11
178.239
21
-113.912
0
LINE
8
BLACK
6
CONTINUOUS
10
178.239
20
-113.912
11
178.239
21
-100.113
0
LINE
8
BLACK
6
CONTINUOUS
10
178.239
20
-100.113
11
164.44
21
-100.113
0
LINE
8
BLACK
6
CONTINUOUS
10
64.0439
20
-90.3881
11
64.0586
21
-90.3895
0
LINE
8
BLACK
6
CONTINUOUS
10
64.0586
20
-90.3895
11
64.0775
21
-90.3953
0
LINE
8
BLACK
6
CONTINUOUS
10
64.0775
20
-90.3953
11
64.0948
21
-90.4046
0
LINE
8
BLACK
6
CONTINUOUS
10
64.0948
20
-90.4046
11
64.1101
21
-90.417
0
LINE
8
BLACK
6
CONTINUOUS
10
64.1101
20
-90.417
11
64.1225
21
-90.4323
0
LINE
8
BLACK
6
CONTINUOUS
10
64.1225
20
-90.4323
11
64.1318
21
-90.4496
0
LINE
8
BLACK
6
CONTINUOUS
10
64.1318
20
-90.4496
11
64.1376
21
-90.4685
0
LINE
8
BLACK
6
CONTINUOUS
10
64.1376
20
-90.4685
11
64.1395
21
-90.4881
0
LINE
8
BLACK
6
CONTINUOUS
10
64.1395
20
-90.4881
11
64.139
21
-90.493
0
LINE
8
BLACK
6
CONTINUOUS
10
64.139
20
-90.493
11
64.139
21
-104.482
0
LINE
8
BLACK
6
CONTINUOUS
10
64.139
20
-104.482
11
64.1395
21
-104.487
0
LINE
8
BLACK
6
CONTINUOUS
10
64.1395
20
-104.487
11
64.1376
21
-104.507
0
LINE
8
BLACK
6
CONTINUOUS
10
64.1376
20
-104.507
11
64.1318
21
-104.526
0
LINE
8
BLACK
6
CONTINUOUS
10
64.1318
20
-104.526
11
64.1225
21
-104.543
0
LINE
8
BLACK
6
CONTINUOUS
10
64.1225
20
-104.543
11
64.1101
21
-104.558
0
LINE
8
BLACK
6
CONTINUOUS
10
64.1101
20
-104.558
11
64.0948
21
-104.571
0
LINE
8
BLACK
6
CONTINUOUS
10
64.0948
20
-104.571
11
64.0775
21
-104.58
0
LINE
8
BLACK
6
CONTINUOUS
10
64.0775
20
-104.58
11
64.0586
21
-104.586
0
LINE
8
BLACK
6
CONTINUOUS
10
64.0586
20
-104.586
11
64.0439
21
-104.587
0
LINE
8
BLACK
6
CONTINUOUS
10
64.0439
20
-104.587
11
64.039
21
-104.588
0
LINE
8
BLACK
6
CONTINUOUS
10
64.039
20
-104.588
11
64.0341
21
-104.587
0
LINE
8
BLACK
6
CONTINUOUS
10
64.0341
20
-104.587
11
50.0446
21
-104.587
0
LINE
8
BLACK
6
CONTINUOUS
10
50.0446
20
-104.587
11
50.0397
21
-104.588
0
LINE
8
BLACK
6
CONTINUOUS
10
50.0397
20
-104.588
11
50.0201
21
-104.586
0
LINE
8
BLACK
6
CONTINUOUS
10
50.0201
20
-104.586
11
50.0012
21
-104.58
0
LINE
8
BLACK
6
CONTINUOUS
10
50.0012
20
-104.58
11
49.9839
21
-104.571
0
LINE
8
BLACK
6
CONTINUOUS
10
49.9839
20
-104.571
11
49.9686
21
-104.558
0
LINE
8
BLACK
6
CONTINUOUS
10
49.9686
20
-104.558
11
49.9562
21
-104.543
0
LINE
8
BLACK
6
CONTINUOUS
10
49.9562
20
-104.543
11
49.9469
21
-104.526
0
LINE
8
BLACK
6
CONTINUOUS
10
49.9469
20
-104.526
11
49.9411
21
-104.507
0
LINE
8
BLACK
6
CONTINUOUS
10
49.9411
20
-104.507
11
49.9392
21
-104.487
0
LINE
8
BLACK
6
CONTINUOUS
10
49.9392
20
-104.487
11
49.9397
21
-104.482
0
LINE
8
BLACK
6
CONTINUOUS
10
49.9397
20
-104.482
11
49.9397
21
-90.493
0
LINE
8
BLACK
6
CONTINUOUS
10
49.9397
20
-90.493
11
49.9392
21
-90.4881
0
LINE
8
BLACK
6
CONTINUOUS
10
49.9392
20
-90.4881
11
49.9411
21
-90.4685
0
LINE
8
BLACK
6
CONTINUOUS
10
49.9411
20
-90.4685
11
49.9469
21
-90.4496
0
LINE
8
BLACK
6
CONTINUOUS
10
49.9469
20
-90.4496
11
49.9562
21
-90.4323
0
LINE
8
BLACK
6
CONTINUOUS
10
49.9562
20
-90.4323
11
49.9686
21
-90.417
0
LINE
8
BLACK
6
CONTINUOUS
10
49.9686
20
-90.417
11
49.9839
21
-90.4046
0
LINE
8
BLACK
6
CONTINUOUS
10
49.9839
20
-90.4046
11
50.0012
21
-90.3953
0
LINE
8
BLACK
6
CONTINUOUS
10
50.0012
20
-90.3953
11
50.0201
21
-90.3895
0
LINE
8
BLACK
6
CONTINUOUS
10
50.0201
20
-90.3895
11
50.0348
21
-90.3881
0
LINE
8
BLACK
6
CONTINUOUS
10
50.0348
20
-90.3881
11
50.0397
21
-90.3876
0
LINE
8
BLACK
6
CONTINUOUS
10
50.0397
20
-90.3876
11
50.0446
21
-90.3881
0
LINE
8
BLACK
6
CONTINUOUS
10
50.0446
20
-90.3881
11
64.0341
21
-90.3881
0
LINE
8
BLACK
6
CONTINUOUS
10
64.0341
20
-90.3881
11
64.039
21
-90.3876
0
LINE
8
BLACK
6
CONTINUOUS
10
64.039
20
-90.3876
11
64.0439
21
-90.3881
0
LINE
8
BLACK
6
CONTINUOUS
10
50.2518
20
-104.387
11
63.827
21
-104.387
0
LINE
8
BLACK
6
CONTINUOUS
10
63.827
20
-104.387
11
57.0394
21
-97.5997
0
LINE
8
BLACK
6
CONTINUOUS
10
57.0394
20
-97.5997
11
50.2518
21
-104.387
0
LINE
8
BLACK
6
CONTINUOUS
10
50.1397
20
-104.287
11
56.9334
21
-97.4936
0
LINE
8
BLACK
6
CONTINUOUS
10
56.9334
20
-97.4936
11
50.1397
21
-90.7
0
LINE
8
BLACK
6
CONTINUOUS
10
50.1397
20
-90.7
11
50.1397
21
-104.287
0
LINE
8
BLACK
6
CONTINUOUS
10
57.1455
20
-97.4936
11
63.939
21
-104.287
0
LINE
8
BLACK
6
CONTINUOUS
10
63.939
20
-104.287
11
63.939
21
-90.7001
0
LINE
8
BLACK
6
CONTINUOUS
10
63.939
20
-90.7001
11
57.1455
21
-97.4936
0
LINE
8
BLACK
6
CONTINUOUS
10
50.2399
20
-90.5881
11
57.0394
21
-97.3876
0
LINE
8
BLACK
6
CONTINUOUS
10
57.0394
20
-97.3876
11
63.8389
21
-90.5881
0
LINE
8
BLACK
6
CONTINUOUS
10
63.8389
20
-90.5881
11
50.2399
21
-90.5881
0
LINE
8
BLACK
6
CONTINUOUS
10
197.394
20
-85.6256
11
197.409
21
-85.627
0
LINE
8
BLACK
6
CONTINUOUS
10
197.409
20
-85.627
11
197.427
21
-85.6328
0
LINE
8
BLACK
6
CONTINUOUS
10
197.427
20
-85.6328
11
197.445
21
-85.6421
0
LINE
8
BLACK
6
CONTINUOUS
10
197.445
20
-85.6421
11
197.46
21
-85.6545
0
LINE
8
BLACK
6
CONTINUOUS
10
197.46
20
-85.6545
11
197.473
21
-85.6698
0
LINE
8
BLACK
6
CONTINUOUS
10
197.473
20
-85.6698
11
197.482
21
-85.6871
0
LINE
8
BLACK
6
CONTINUOUS
10
197.482
20
-85.6871
11
197.488
21
-85.706
0
LINE
8
BLACK
6
CONTINUOUS
10
197.488
20
-85.706
11
197.489
21
-85.7256
0
LINE
8
BLACK
6
CONTINUOUS
10
197.489
20
-85.7256
11
197.489
21
-85.7305
0
LINE
8
BLACK
6
CONTINUOUS
10
197.489
20
-85.7305
11
197.489
21
-99.7199
0
LINE
8
BLACK
6
CONTINUOUS
10
197.489
20
-99.7199
11
197.489
21
-99.7248
0
LINE
8
BLACK
6
CONTINUOUS
10
197.489
20
-99.7248
11
197.488
21
-99.7444
0
LINE
8
BLACK
6
CONTINUOUS
10
197.488
20
-99.7444
11
197.482
21
-99.7633
0
LINE
8
BLACK
6
CONTINUOUS
10
197.482
20
-99.7633
11
197.473
21
-99.7806
0
LINE
8
BLACK
6
CONTINUOUS
10
197.473
20
-99.7806
11
197.46
21
-99.7959
0
LINE
8
BLACK
6
CONTINUOUS
10
197.46
20
-99.7959
11
197.445
21
-99.8083
0
LINE
8
BLACK
6
CONTINUOUS
10
197.445
20
-99.8083
11
197.427
21
-99.8176
0
LINE
8
BLACK
6
CONTINUOUS
10
197.427
20
-99.8176
11
197.409
21
-99.8234
0
LINE
8
BLACK
6
CONTINUOUS
10
197.409
20
-99.8234
11
197.394
21
-99.8248
0
LINE
8
BLACK
6
CONTINUOUS
10
197.394
20
-99.8248
11
197.389
21
-99.8253
0
LINE
8
BLACK
6
CONTINUOUS
10
197.389
20
-99.8253
11
197.384
21
-99.8248
0
LINE
8
BLACK
6
CONTINUOUS
10
197.384
20
-99.8248
11
183.395
21
-99.8248
0
LINE
8
BLACK
6
CONTINUOUS
10
183.395
20
-99.8248
11
183.39
21
-99.8253
0
LINE
8
BLACK
6
CONTINUOUS
10
183.39
20
-99.8253
11
183.37
21
-99.8234
0
LINE
8
BLACK
6
CONTINUOUS
10
183.37
20
-99.8234
11
183.352
21
-99.8176
0
LINE
8
BLACK
6
CONTINUOUS
10
183.352
20
-99.8176
11
183.334
21
-99.8083
0
LINE
8
BLACK
6
CONTINUOUS
10
183.334
20
-99.8083
11
183.319
21
-99.7959
0
LINE
8
BLACK
6
CONTINUOUS
10
183.319
20
-99.7959
11
183.306
21
-99.7806
0
LINE
8
BLACK
6
CONTINUOUS
10
183.306
20
-99.7806
11
183.297
21
-99.7633
0
LINE
8
BLACK
6
CONTINUOUS
10
183.297
20
-99.7633
11
183.291
21
-99.7444
0
LINE
8
BLACK
6
CONTINUOUS
10
183.291
20
-99.7444
11
183.29
21
-99.7248
0
LINE
8
BLACK
6
CONTINUOUS
10
183.29
20
-99.7248
11
183.29
21
-99.7199
0
LINE
8
BLACK
6
CONTINUOUS
10
183.29
20
-99.7199
11
183.29
21
-85.7305
0
LINE
8
BLACK
6
CONTINUOUS
10
183.29
20
-85.7305
11
183.29
21
-85.7256
0
LINE
8
BLACK
6
CONTINUOUS
10
183.29
20
-85.7256
11
183.291
21
-85.706
0
LINE
8
BLACK
6
CONTINUOUS
10
183.291
20
-85.706
11
183.297
21
-85.6871
0
LINE
8
BLACK
6
CONTINUOUS
10
183.297
20
-85.6871
11
183.306
21
-85.6698
0
LINE
8
BLACK
6
CONTINUOUS
10
183.306
20
-85.6698
11
183.319
21
-85.6545
0
LINE
8
BLACK
6
CONTINUOUS
10
183.319
20
-85.6545
11
183.334
21
-85.6421
0
LINE
8
BLACK
6
CONTINUOUS
10
183.334
20
-85.6421
11
183.352
21
-85.6328
0
LINE
8
BLACK
6
CONTINUOUS
10
183.352
20
-85.6328
11
183.37
21
-85.627
0
LINE
8
BLACK
6
CONTINUOUS
10
183.37
20
-85.627
11
183.385
21
-85.6256
0
LINE
8
BLACK
6
CONTINUOUS
10
183.385
20
-85.6256
11
183.39
21
-85.6251
0
LINE
8
BLACK
6
CONTINUOUS
10
183.39
20
-85.6251
11
183.395
21
-85.6256
0
LINE
8
BLACK
6
CONTINUOUS
10
183.395
20
-85.6256
11
197.384
21
-85.6256
0
LINE
8
BLACK
6
CONTINUOUS
10
197.384
20
-85.6256
11
197.389
21
-85.6251
0
LINE
8
BLACK
6
CONTINUOUS
10
197.389
20
-85.6251
11
197.394
21
-85.6256
0
LINE
8
BLACK
6
CONTINUOUS
10
183.49
20
-85.8256
11
183.49
21
-99.6248
0
LINE
8
BLACK
6
CONTINUOUS
10
183.49
20
-99.6248
11
197.289
21
-99.6248
0
LINE
8
BLACK
6
CONTINUOUS
10
197.289
20
-99.6248
11
197.289
21
-85.8256
0
LINE
8
BLACK
6
CONTINUOUS
10
197.289
20
-85.8256
11
183.49
21
-85.8256
0
LINE
8
BLACK
6
CONTINUOUS
10
140.244
20
-80.8631
11
140.259
21
-80.8645
0
LINE
8
BLACK
6
CONTINUOUS
10
140.259
20
-80.8645
11
140.277
21
-80.8703
0
LINE
8
BLACK
6
CONTINUOUS
10
140.277
20
-80.8703
11
140.295
21
-80.8796
0
LINE
8
BLACK
6
CONTINUOUS
10
140.295
20
-80.8796
11
140.31
21
-80.892
0
LINE
8
BLACK
6
CONTINUOUS
10
140.31
20
-80.892
11
140.323
21
-80.9073
0
LINE
8
BLACK
6
CONTINUOUS
10
140.323
20
-80.9073
11
140.332
21
-80.9246
0
LINE
8
BLACK
6
CONTINUOUS
10
140.332
20
-80.9246
11
140.338
21
-80.9435
0
LINE
8
BLACK
6
CONTINUOUS
10
140.338
20
-80.9435
11
140.339
21
-80.9631
0
LINE
8
BLACK
6
CONTINUOUS
10
140.339
20
-80.9631
11
140.339
21
-80.968
0
LINE
8
BLACK
6
CONTINUOUS
10
140.339
20
-80.968
11
140.339
21
-94.9574
0
LINE
8
BLACK
6
CONTINUOUS
10
140.339
20
-94.9574
11
140.339
21
-94.9623
0
LINE
8
BLACK
6
CONTINUOUS
10
140.339
20
-94.9623
11
140.338
21
-94.9819
0
LINE
8
BLACK
6
CONTINUOUS
10
140.338
20
-94.9819
11
140.332
21
-95.0008
0
LINE
8
BLACK
6
CONTINUOUS
10
140.332
20
-95.0008
11
140.323
21
-95.0181
0
LINE
8
BLACK
6
CONTINUOUS
10
140.323
20
-95.0181
11
140.31
21
-95.0334
0
LINE
8
BLACK
6
CONTINUOUS
10
140.31
20
-95.0334
11
140.295
21
-95.0458
0
LINE
8
BLACK
6
CONTINUOUS
10
140.295
20
-95.0458
11
140.277
21
-95.0551
0
LINE
8
BLACK
6
CONTINUOUS
10
140.277
20
-95.0551
11
140.259
21
-95.0609
0
LINE
8
BLACK
6
CONTINUOUS
10
140.259
20
-95.0609
11
140.244
21
-95.0623
0
LINE
8
BLACK
6
CONTINUOUS
10
140.244
20
-95.0623
11
140.239
21
-95.0628
0
LINE
8
BLACK
6
CONTINUOUS
10
140.239
20
-95.0628
11
140.234
21
-95.0623
0
LINE
8
BLACK
6
CONTINUOUS
10
140.234
20
-95.0623
11
126.243
21
-95.0623
0
LINE
8
BLACK
6
CONTINUOUS
10
126.243
20
-95.0623
11
126.238
21
-95.0628
0
LINE
8
BLACK
6
CONTINUOUS
10
126.238
20
-95.0628
11
126.219
21
-95.0609
0
LINE
8
BLACK
6
CONTINUOUS
10
126.219
20
-95.0609
11
126.2
21
-95.0551
0
LINE
8
BLACK
6
CONTINUOUS
10
126.2
20
-95.0551
11
126.182
21
-95.0458
0
LINE
8
BLACK
6
CONTINUOUS
10
126.182
20
-95.0458
11
126.167
21
-95.0334
0
LINE
8
BLACK
6
CONTINUOUS
10
126.167
20
-95.0334
11
126.155
21
-95.0181
0
LINE
8
BLACK
6
CONTINUOUS
10
126.155
20
-95.0181
11
126.145
21
-95.0008
0
LINE
8
BLACK
6
CONTINUOUS
10
126.145
20
-95.0008
11
126.14
21
-94.9819
0
LINE
8
BLACK
6
CONTINUOUS
10
126.14
20
-94.9819
11
126.138
21
-94.9623
0
LINE
8
BLACK
6
CONTINUOUS
10
126.138
20
-94.9623
11
126.138
21
-94.9574
0
LINE
8
BLACK
6
CONTINUOUS
10
126.138
20
-94.9574
11
126.138
21
-80.968
0
LINE
8
BLACK
6
CONTINUOUS
10
126.138
20
-80.968
11
126.138
21
-80.9631
0
LINE
8
BLACK
6
CONTINUOUS
10
126.138
20
-80.9631
11
126.14
21
-80.9435
0
LINE
8
BLACK
6
CONTINUOUS
10
126.14
20
-80.9435
11
126.145
21
-80.9246
0
LINE
8
BLACK
6
CONTINUOUS
10
126.145
20
-80.9246
11
126.155
21
-80.9073
0
LINE
8
BLACK
6
CONTINUOUS
10
126.155
20
-80.9073
11
126.167
21
-80.892
0
LINE
8
BLACK
6
CONTINUOUS
10
126.167
20
-80.892
11
126.182
21
-80.8796
0
LINE
8
BLACK
6
CONTINUOUS
10
126.182
20
-80.8796
11
126.2
21
-80.8703
0
LINE
8
BLACK
6
CONTINUOUS
10
126.2
20
-80.8703
11
126.219
21
-80.8645
0
LINE
8
BLACK
6
CONTINUOUS
10
126.219
20
-80.8645
11
126.233
21
-80.8631
0
LINE
8
BLACK
6
CONTINUOUS
10
126.233
20
-80.8631
11
126.238
21
-80.8626
0
LINE
8
BLACK
6
CONTINUOUS
10
126.238
20
-80.8626
11
126.243
21
-80.8631
0
LINE
8
BLACK
6
CONTINUOUS
10
126.243
20
-80.8631
11
140.234
21
-80.8631
0
LINE
8
BLACK
6
CONTINUOUS
10
140.234
20
-80.8631
11
140.239
21
-80.8626
0
LINE
8
BLACK
6
CONTINUOUS
10
140.239
20
-80.8626
11
140.244
21
-80.8631
0
LINE
8
BLACK
6
CONTINUOUS
10
126.338
20
-81.0631
11
126.338
21
-94.8623
0
LINE
8
BLACK
6
CONTINUOUS
10
126.338
20
-94.8623
11
140.139
21
-94.8623
0
LINE
8
BLACK
6
CONTINUOUS
10
140.139
20
-94.8623
11
140.139
21
-81.0631
0
LINE
8
BLACK
6
CONTINUOUS
10
140.139
20
-81.0631
11
126.338
21
-81.0631
0
LINE
8
BLACK
6
CONTINUOUS
10
121.194
20
-80.8631
11
121.209
21
-80.8645
0
LINE
8
BLACK
6
CONTINUOUS
10
121.209
20
-80.8645
11
121.227
21
-80.8703
0
LINE
8
BLACK
6
CONTINUOUS
10
121.227
20
-80.8703
11
121.245
21
-80.8796
0
LINE
8
BLACK
6
CONTINUOUS
10
121.245
20
-80.8796
11
121.26
21
-80.892
0
LINE
8
BLACK
6
CONTINUOUS
10
121.26
20
-80.892
11
121.273
21
-80.9073
0
LINE
8
BLACK
6
CONTINUOUS
10
121.273
20
-80.9073
11
121.282
21
-80.9246
0
LINE
8
BLACK
6
CONTINUOUS
10
121.282
20
-80.9246
11
121.288
21
-80.9435
0
LINE
8
BLACK
6
CONTINUOUS
10
121.288
20
-80.9435
11
121.289
21
-80.9631
0
LINE
8
BLACK
6
CONTINUOUS
10
121.289
20
-80.9631
11
121.289
21
-80.968
0
LINE
8
BLACK
6
CONTINUOUS
10
121.289
20
-80.968
11
121.289
21
-94.9574
0
LINE
8
BLACK
6
CONTINUOUS
10
121.289
20
-94.9574
11
121.289
21
-94.9623
0
LINE
8
BLACK
6
CONTINUOUS
10
121.289
20
-94.9623
11
121.288
21
-94.9819
0
LINE
8
BLACK
6
CONTINUOUS
10
121.288
20
-94.9819
11
121.282
21
-95.0008
0
LINE
8
BLACK
6
CONTINUOUS
10
121.282
20
-95.0008
11
121.273
21
-95.0181
0
LINE
8
BLACK
6
CONTINUOUS
10
121.273
20
-95.0181
11
121.26
21
-95.0334
0
LINE
8
BLACK
6
CONTINUOUS
10
121.26
20
-95.0334
11
121.245
21
-95.0458
0
LINE
8
BLACK
6
CONTINUOUS
10
121.245
20
-95.0458
11
121.227
21
-95.0551
0
LINE
8
BLACK
6
CONTINUOUS
10
121.227
20
-95.0551
11
121.209
21
-95.0609
0
LINE
8
BLACK
6
CONTINUOUS
10
121.209
20
-95.0609
11
121.194
21
-95.0623
0
LINE
8
BLACK
6
CONTINUOUS
10
121.194
20
-95.0623
11
121.189
21
-95.0628
0
LINE
8
BLACK
6
CONTINUOUS
10
121.189
20
-95.0628
11
121.184
21
-95.0623
0
LINE
8
BLACK
6
CONTINUOUS
10
121.184
20
-95.0623
11
107.195
21
-95.0623
0
LINE
8
BLACK
6
CONTINUOUS
10
107.195
20
-95.0623
11
107.19
21
-95.0628
0
LINE
8
BLACK
6
CONTINUOUS
10
107.19
20
-95.0628
11
107.17
21
-95.0609
0
LINE
8
BLACK
6
CONTINUOUS
10
107.17
20
-95.0609
11
107.151
21
-95.0551
0
LINE
8
BLACK
6
CONTINUOUS
10
107.151
20
-95.0551
11
107.134
21
-95.0458
0
LINE
8
BLACK
6
CONTINUOUS
10
107.134
20
-95.0458
11
107.119
21
-95.0334
0
LINE
8
BLACK
6
CONTINUOUS
10
107.119
20
-95.0334
11
107.106
21
-95.0181
0
LINE
8
BLACK
6
CONTINUOUS
10
107.106
20
-95.0181
11
107.097
21
-95.0008
0
LINE
8
BLACK
6
CONTINUOUS
10
107.097
20
-95.0008
11
107.091
21
-94.9819
0
LINE
8
BLACK
6
CONTINUOUS
10
107.091
20
-94.9819
11
107.089
21
-94.9623
0
LINE
8
BLACK
6
CONTINUOUS
10
107.089
20
-94.9623
11
107.09
21
-94.9574
0
LINE
8
BLACK
6
CONTINUOUS
10
107.09
20
-94.9574
11
107.09
21
-80.968
0
LINE
8
BLACK
6
CONTINUOUS
10
107.09
20
-80.968
11
107.089
21
-80.9631
0
LINE
8
BLACK
6
CONTINUOUS
10
107.089
20
-80.9631
11
107.091
21
-80.9435
0
LINE
8
BLACK
6
CONTINUOUS
10
107.091
20
-80.9435
11
107.097
21
-80.9246
0
LINE
8
BLACK
6
CONTINUOUS
10
107.097
20
-80.9246
11
107.106
21
-80.9073
0
LINE
8
BLACK
6
CONTINUOUS
10
107.106
20
-80.9073
11
107.119
21
-80.892
0
LINE
8
BLACK
6
CONTINUOUS
10
107.119
20
-80.892
11
107.134
21
-80.8796
0
LINE
8
BLACK
6
CONTINUOUS
10
107.134
20
-80.8796
11
107.151
21
-80.8703
0
LINE
8
BLACK
6
CONTINUOUS
10
107.151
20
-80.8703
11
107.17
21
-80.8645
0
LINE
8
BLACK
6
CONTINUOUS
10
107.17
20
-80.8645
11
107.185
21
-80.8631
0
LINE
8
BLACK
6
CONTINUOUS
10
107.185
20
-80.8631
11
107.19
21
-80.8626
0
LINE
8
BLACK
6
CONTINUOUS
10
107.19
20
-80.8626
11
107.195
21
-80.8631
0
LINE
8
BLACK
6
CONTINUOUS
10
107.195
20
-80.8631
11
121.184
21
-80.8631
0
LINE
8
BLACK
6
CONTINUOUS
10
121.184
20
-80.8631
11
121.189
21
-80.8626
0
LINE
8
BLACK
6
CONTINUOUS
10
121.189
20
-80.8626
11
121.194
21
-80.8631
0
LINE
8
BLACK
6
CONTINUOUS
10
107.29
20
-81.0631
11
107.29
21
-94.8623
0
LINE
8
BLACK
6
CONTINUOUS
10
107.29
20
-94.8623
11
121.089
21
-94.8623
0
LINE
8
BLACK
6
CONTINUOUS
10
121.089
20
-94.8623
11
121.089
21
-81.0631
0
LINE
8
BLACK
6
CONTINUOUS
10
121.089
20
-81.0631
11
107.29
21
-81.0631
0
LINE
8
BLACK
6
CONTINUOUS
10
102.144
20
-80.8631
11
102.159
21
-80.8645
0
LINE
8
BLACK
6
CONTINUOUS
10
102.159
20
-80.8645
11
102.177
21
-80.8703
0
LINE
8
BLACK
6
CONTINUOUS
10
102.177
20
-80.8703
11
102.195
21
-80.8796
0
LINE
8
BLACK
6
CONTINUOUS
10
102.195
20
-80.8796
11
102.21
21
-80.892
0
LINE
8
BLACK
6
CONTINUOUS
10
102.21
20
-80.892
11
102.223
21
-80.9073
0
LINE
8
BLACK
6
CONTINUOUS
10
102.223
20
-80.9073
11
102.232
21
-80.9246
0
LINE
8
BLACK
6
CONTINUOUS
10
102.232
20
-80.9246
11
102.238
21
-80.9435
0
LINE
8
BLACK
6
CONTINUOUS
10
102.238
20
-80.9435
11
102.239
21
-80.9631
0
LINE
8
BLACK
6
CONTINUOUS
10
102.239
20
-80.9631
11
102.239
21
-80.968
0
LINE
8
BLACK
6
CONTINUOUS
10
102.239
20
-80.968
11
102.239
21
-94.9574
0
LINE
8
BLACK
6
CONTINUOUS
10
102.239
20
-94.9574
11
102.239
21
-94.9623
0
LINE
8
BLACK
6
CONTINUOUS
10
102.239
20
-94.9623
11
102.238
21
-94.9819
0
LINE
8
BLACK
6
CONTINUOUS
10
102.238
20
-94.9819
11
102.232
21
-95.0008
0
LINE
8
BLACK
6
CONTINUOUS
10
102.232
20
-95.0008
11
102.223
21
-95.0181
0
LINE
8
BLACK
6
CONTINUOUS
10
102.223
20
-95.0181
11
102.21
21
-95.0334
0
LINE
8
BLACK
6
CONTINUOUS
10
102.21
20
-95.0334
11
102.195
21
-95.0458
0
LINE
8
BLACK
6
CONTINUOUS
10
102.195
20
-95.0458
11
102.177
21
-95.0551
0
LINE
8
BLACK
6
CONTINUOUS
10
102.177
20
-95.0551
11
102.159
21
-95.0609
0
LINE
8
BLACK
6
CONTINUOUS
10
102.159
20
-95.0609
11
102.144
21
-95.0623
0
LINE
8
BLACK
6
CONTINUOUS
10
102.144
20
-95.0623
11
102.139
21
-95.0628
0
LINE
8
BLACK
6
CONTINUOUS
10
102.139
20
-95.0628
11
102.134
21
-95.0623
0
LINE
8
BLACK
6
CONTINUOUS
10
102.134
20
-95.0623
11
88.1446
21
-95.0623
0
LINE
8
BLACK
6
CONTINUOUS
10
88.1446
20
-95.0623
11
88.1397
21
-95.0628
0
LINE
8
BLACK
6
CONTINUOUS
10
88.1397
20
-95.0628
11
88.1201
21
-95.0609
0
LINE
8
BLACK
6
CONTINUOUS
10
88.1201
20
-95.0609
11
88.1012
21
-95.0551
0
LINE
8
BLACK
6
CONTINUOUS
10
88.1012
20
-95.0551
11
88.0839
21
-95.0458
0
LINE
8
BLACK
6
CONTINUOUS
10
88.0839
20
-95.0458
11
88.0686
21
-95.0334
0
LINE
8
BLACK
6
CONTINUOUS
10
88.0686
20
-95.0334
11
88.0562
21
-95.0181
0
LINE
8
BLACK
6
CONTINUOUS
10
88.0562
20
-95.0181
11
88.0469
21
-95.0008
0
LINE
8
BLACK
6
CONTINUOUS
10
88.0469
20
-95.0008
11
88.0411
21
-94.9819
0
LINE
8
BLACK
6
CONTINUOUS
10
88.0411
20
-94.9819
11
88.0392
21
-94.9623
0
LINE
8
BLACK
6
CONTINUOUS
10
88.0392
20
-94.9623
11
88.0397
21
-94.9574
0
LINE
8
BLACK
6
CONTINUOUS
10
88.0397
20
-94.9574
11
88.0397
21
-80.968
0
LINE
8
BLACK
6
CONTINUOUS
10
88.0397
20
-80.968
11
88.0392
21
-80.9631
0
LINE
8
BLACK
6
CONTINUOUS
10
88.0392
20
-80.9631
11
88.0411
21
-80.9435
0
LINE
8
BLACK
6
CONTINUOUS
10
88.0411
20
-80.9435
11
88.0469
21
-80.9246
0
LINE
8
BLACK
6
CONTINUOUS
10
88.0469
20
-80.9246
11
88.0562
21
-80.9073
0
LINE
8
BLACK
6
CONTINUOUS
10
88.0562
20
-80.9073
11
88.0686
21
-80.892
0
LINE
8
BLACK
6
CONTINUOUS
10
88.0686
20
-80.892
11
88.0839
21
-80.8796
0
LINE
8
BLACK
6
CONTINUOUS
10
88.0839
20
-80.8796
11
88.1012
21
-80.8703
0
LINE
8
BLACK
6
CONTINUOUS
10
88.1012
20
-80.8703
11
88.1201
21
-80.8645
0
LINE
8
BLACK
6
CONTINUOUS
10
88.1201
20
-80.8645
11
88.1348
21
-80.8631
0
LINE
8
BLACK
6
CONTINUOUS
10
88.1348
20
-80.8631
11
88.1397
21
-80.8626
0
LINE
8
BLACK
6
CONTINUOUS
10
88.1397
20
-80.8626
11
88.1446
21
-80.8631
0
LINE
8
BLACK
6
CONTINUOUS
10
88.1446
20
-80.8631
11
102.134
21
-80.8631
0
LINE
8
BLACK
6
CONTINUOUS
10
102.134
20
-80.8631
11
102.139
21
-80.8626
0
LINE
8
BLACK
6
CONTINUOUS
10
102.139
20
-80.8626
11
102.144
21
-80.8631
0
LINE
8
BLACK
6
CONTINUOUS
10
88.2397
20
-81.0631
11
88.2397
21
-94.8623
0
LINE
8
BLACK
6
CONTINUOUS
10
88.2397
20
-94.8623
11
102.039
21
-94.8623
0
LINE
8
BLACK
6
CONTINUOUS
10
102.039
20
-94.8623
11
102.039
21
-81.0631
0
LINE
8
BLACK
6
CONTINUOUS
10
102.039
20
-81.0631
11
88.2397
21
-81.0631
0
LINE
8
BLACK
6
CONTINUOUS
10
83.0939
20
-80.8631
11
83.1086
21
-80.8645
0
LINE
8
BLACK
6
CONTINUOUS
10
83.1086
20
-80.8645
11
83.1275
21
-80.8703
0
LINE
8
BLACK
6
CONTINUOUS
10
83.1275
20
-80.8703
11
83.1448
21
-80.8796
0
LINE
8
BLACK
6
CONTINUOUS
10
83.1448
20
-80.8796
11
83.1601
21
-80.892
0
LINE
8
BLACK
6
CONTINUOUS
10
83.1601
20
-80.892
11
83.1725
21
-80.9073
0
LINE
8
BLACK
6
CONTINUOUS
10
83.1725
20
-80.9073
11
83.1818
21
-80.9246
0
LINE
8
BLACK
6
CONTINUOUS
10
83.1818
20
-80.9246
11
83.1876
21
-80.9435
0
LINE
8
BLACK
6
CONTINUOUS
10
83.1876
20
-80.9435
11
83.1895
21
-80.9631
0
LINE
8
BLACK
6
CONTINUOUS
10
83.1895
20
-80.9631
11
83.189
21
-80.968
0
LINE
8
BLACK
6
CONTINUOUS
10
83.189
20
-80.968
11
83.189
21
-94.9574
0
LINE
8
BLACK
6
CONTINUOUS
10
83.189
20
-94.9574
11
83.1895
21
-94.9623
0
LINE
8
BLACK
6
CONTINUOUS
10
83.1895
20
-94.9623
11
83.1876
21
-94.9819
0
LINE
8
BLACK
6
CONTINUOUS
10
83.1876
20
-94.9819
11
83.1818
21
-95.0008
0
LINE
8
BLACK
6
CONTINUOUS
10
83.1818
20
-95.0008
11
83.1725
21
-95.0181
0
LINE
8
BLACK
6
CONTINUOUS
10
83.1725
20
-95.0181
11
83.1601
21
-95.0334
0
LINE
8
BLACK
6
CONTINUOUS
10
83.1601
20
-95.0334
11
83.1448
21
-95.0458
0
LINE
8
BLACK
6
CONTINUOUS
10
83.1448
20
-95.0458
11
83.1275
21
-95.0551
0
LINE
8
BLACK
6
CONTINUOUS
10
83.1275
20
-95.0551
11
83.1086
21
-95.0609
0
LINE
8
BLACK
6
CONTINUOUS
10
83.1086
20
-95.0609
11
83.0939
21
-95.0623
0
LINE
8
BLACK
6
CONTINUOUS
10
83.0939
20
-95.0623
11
83.089
21
-95.0628
0
LINE
8
BLACK
6
CONTINUOUS
10
83.089
20
-95.0628
11
83.0841
21
-95.0623
0
LINE
8
BLACK
6
CONTINUOUS
10
83.0841
20
-95.0623
11
69.0946
21
-95.0623
0
LINE
8
BLACK
6
CONTINUOUS
10
69.0946
20
-95.0623
11
69.0897
21
-95.0628
0
LINE
8
BLACK
6
CONTINUOUS
10
69.0897
20
-95.0628
11
69.0701
21
-95.0609
0
LINE
8
BLACK
6
CONTINUOUS
10
69.0701
20
-95.0609
11
69.0512
21
-95.0551
0
LINE
8
BLACK
6
CONTINUOUS
10
69.0512
20
-95.0551
11
69.0339
21
-95.0458
0
LINE
8
BLACK
6
CONTINUOUS
10
69.0339
20
-95.0458
11
69.0186
21
-95.0334
0
LINE
8
BLACK
6
CONTINUOUS
10
69.0186
20
-95.0334
11
69.0062
21
-95.0181
0
LINE
8
BLACK
6
CONTINUOUS
10
69.0062
20
-95.0181
11
68.9969
21
-95.0008
0
LINE
8
BLACK
6
CONTINUOUS
10
68.9969
20
-95.0008
11
68.9911
21
-94.9819
0
LINE
8
BLACK
6
CONTINUOUS
10
68.9911
20
-94.9819
11
68.9892
21
-94.9623
0
LINE
8
BLACK
6
CONTINUOUS
10
68.9892
20
-94.9623
11
68.9897
21
-94.9574
0
LINE
8
BLACK
6
CONTINUOUS
10
68.9897
20
-94.9574
11
68.9897
21
-80.968
0
LINE
8
BLACK
6
CONTINUOUS
10
68.9897
20
-80.968
11
68.9892
21
-80.9631
0
LINE
8
BLACK
6
CONTINUOUS
10
68.9892
20
-80.9631
11
68.9911
21
-80.9435
0
LINE
8
BLACK
6
CONTINUOUS
10
68.9911
20
-80.9435
11
68.9969
21
-80.9246
0
LINE
8
BLACK
6
CONTINUOUS
10
68.9969
20
-80.9246
11
69.0062
21
-80.9073
0
LINE
8
BLACK
6
CONTINUOUS
10
69.0062
20
-80.9073
11
69.0186
21
-80.892
0
LINE
8
BLACK
6
CONTINUOUS
10
69.0186
20
-80.892
11
69.0339
21
-80.8796
0
LINE
8
BLACK
6
CONTINUOUS
10
69.0339
20
-80.8796
11
69.0512
21
-80.8703
0
LINE
8
BLACK
6
CONTINUOUS
10
69.0512
20
-80.8703
11
69.0701
21
-80.8645
0
LINE
8
BLACK
6
CONTINUOUS
10
69.0701
20
-80.8645
11
69.0848
21
-80.8631
0
LINE
8
BLACK
6
CONTINUOUS
10
69.0848
20
-80.8631
11
69.0897
21
-80.8626
0
LINE
8
BLACK
6
CONTINUOUS
10
69.0897
20
-80.8626
11
69.0946
21
-80.8631
0
LINE
8
BLACK
6
CONTINUOUS
10
69.0946
20
-80.8631
11
83.0841
21
-80.8631
0
LINE
8
BLACK
6
CONTINUOUS
10
83.0841
20
-80.8631
11
83.089
21
-80.8626
0
LINE
8
BLACK
6
CONTINUOUS
10
83.089
20
-80.8626
11
83.0939
21
-80.8631
0
LINE
8
BLACK
6
CONTINUOUS
10
69.1897
20
-81.0631
11
69.1897
21
-94.8623
0
LINE
8
BLACK
6
CONTINUOUS
10
69.1897
20
-94.8623
11
82.989
21
-94.8623
0
LINE
8
BLACK
6
CONTINUOUS
10
82.989
20
-94.8623
11
82.989
21
-81.0631
0
LINE
8
BLACK
6
CONTINUOUS
10
82.989
20
-81.0631
11
69.1897
21
-81.0631
0
LINE
8
BLACK
6
CONTINUOUS
10
159.294
20
-80.8631
11
159.309
21
-80.8645
0
LINE
8
BLACK
6
CONTINUOUS
10
159.309
20
-80.8645
11
159.327
21
-80.8703
0
LINE
8
BLACK
6
CONTINUOUS
10
159.327
20
-80.8703
11
159.345
21
-80.8796
0
LINE
8
BLACK
6
CONTINUOUS
10
159.345
20
-80.8796
11
159.36
21
-80.892
0
LINE
8
BLACK
6
CONTINUOUS
10
159.36
20
-80.892
11
159.373
21
-80.9073
0
LINE
8
BLACK
6
CONTINUOUS
10
159.373
20
-80.9073
11
159.382
21
-80.9246
0
LINE
8
BLACK
6
CONTINUOUS
10
159.382
20
-80.9246
11
159.388
21
-80.9435
0
LINE
8
BLACK
6
CONTINUOUS
10
159.388
20
-80.9435
11
159.389
21
-80.9631
0
LINE
8
BLACK
6
CONTINUOUS
10
159.389
20
-80.9631
11
159.389
21
-80.968
0
LINE
8
BLACK
6
CONTINUOUS
10
159.389
20
-80.968
11
159.389
21
-94.9574
0
LINE
8
BLACK
6
CONTINUOUS
10
159.389
20
-94.9574
11
159.389
21
-94.9623
0
LINE
8
BLACK
6
CONTINUOUS
10
159.389
20
-94.9623
11
159.388
21
-94.9819
0
LINE
8
BLACK
6
CONTINUOUS
10
159.388
20
-94.9819
11
159.382
21
-95.0008
0
LINE
8
BLACK
6
CONTINUOUS
10
159.382
20
-95.0008
11
159.373
21
-95.0181
0
LINE
8
BLACK
6
CONTINUOUS
10
159.373
20
-95.0181
11
159.36
21
-95.0334
0
LINE
8
BLACK
6
CONTINUOUS
10
159.36
20
-95.0334
11
159.345
21
-95.0458
0
LINE
8
BLACK
6
CONTINUOUS
10
159.345
20
-95.0458
11
159.327
21
-95.0551
0
LINE
8
BLACK
6
CONTINUOUS
10
159.327
20
-95.0551
11
159.309
21
-95.0609
0
LINE
8
BLACK
6
CONTINUOUS
10
159.309
20
-95.0609
11
159.294
21
-95.0623
0
LINE
8
BLACK
6
CONTINUOUS
10
159.294
20
-95.0623
11
159.289
21
-95.0628
0
LINE
8
BLACK
6
CONTINUOUS
10
159.289
20
-95.0628
11
159.284
21
-95.0623
0
LINE
8
BLACK
6
CONTINUOUS
10
159.284
20
-95.0623
11
145.293
21
-95.0623
0
LINE
8
BLACK
6
CONTINUOUS
10
145.293
20
-95.0623
11
145.288
21
-95.0628
0
LINE
8
BLACK
6
CONTINUOUS
10
145.288
20
-95.0628
11
145.268
21
-95.0609
0
LINE
8
BLACK
6
CONTINUOUS
10
145.268
20
-95.0609
11
145.25
21
-95.0551
0
LINE
8
BLACK
6
CONTINUOUS
10
145.25
20
-95.0551
11
145.232
21
-95.0458
0
LINE
8
BLACK
6
CONTINUOUS
10
145.232
20
-95.0458
11
145.217
21
-95.0334
0
LINE
8
BLACK
6
CONTINUOUS
10
145.217
20
-95.0334
11
145.204
21
-95.0181
0
LINE
8
BLACK
6
CONTINUOUS
10
145.204
20
-95.0181
11
145.195
21
-95.0008
0
LINE
8
BLACK
6
CONTINUOUS
10
145.195
20
-95.0008
11
145.189
21
-94.9819
0
LINE
8
BLACK
6
CONTINUOUS
10
145.189
20
-94.9819
11
145.188
21
-94.9623
0
LINE
8
BLACK
6
CONTINUOUS
10
145.188
20
-94.9623
11
145.188
21
-94.9574
0
LINE
8
BLACK
6
CONTINUOUS
10
145.188
20
-94.9574
11
145.188
21
-80.968
0
LINE
8
BLACK
6
CONTINUOUS
10
145.188
20
-80.968
11
145.188
21
-80.9631
0
LINE
8
BLACK
6
CONTINUOUS
10
145.188
20
-80.9631
11
145.189
21
-80.9435
0
LINE
8
BLACK
6
CONTINUOUS
10
145.189
20
-80.9435
11
145.195
21
-80.9246
0
LINE
8
BLACK
6
CONTINUOUS
10
145.195
20
-80.9246
11
145.204
21
-80.9073
0
LINE
8
BLACK
6
CONTINUOUS
10
145.204
20
-80.9073
11
145.217
21
-80.892
0
LINE
8
BLACK
6
CONTINUOUS
10
145.217
20
-80.892
11
145.232
21
-80.8796
0
LINE
8
BLACK
6
CONTINUOUS
10
145.232
20
-80.8796
11
145.25
21
-80.8703
0
LINE
8
BLACK
6
CONTINUOUS
10
145.25
20
-80.8703
11
145.268
21
-80.8645
0
LINE
8
BLACK
6
CONTINUOUS
10
145.268
20
-80.8645
11
145.283
21
-80.8631
0
LINE
8
BLACK
6
CONTINUOUS
10
145.283
20
-80.8631
11
145.288
21
-80.8626
0
LINE
8
BLACK
6
CONTINUOUS
10
145.288
20
-80.8626
11
145.293
21
-80.8631
0
LINE
8
BLACK
6
CONTINUOUS
10
145.293
20
-80.8631
11
159.284
21
-80.8631
0
LINE
8
BLACK
6
CONTINUOUS
10
159.284
20
-80.8631
11
159.289
21
-80.8626
0
LINE
8
BLACK
6
CONTINUOUS
10
159.289
20
-80.8626
11
159.294
21
-80.8631
0
LINE
8
BLACK
6
CONTINUOUS
10
145.388
20
-81.0631
11
145.388
21
-94.8623
0
LINE
8
BLACK
6
CONTINUOUS
10
145.388
20
-94.8623
11
159.189
21
-94.8623
0
LINE
8
BLACK
6
CONTINUOUS
10
159.189
20
-94.8623
11
159.189
21
-81.0631
0
LINE
8
BLACK
6
CONTINUOUS
10
159.189
20
-81.0631
11
145.388
21
-81.0631
0
LINE
8
BLACK
6
CONTINUOUS
10
178.344
20
-80.8631
11
178.359
21
-80.8645
0
LINE
8
BLACK
6
CONTINUOUS
10
178.359
20
-80.8645
11
178.377
21
-80.8703
0
LINE
8
BLACK
6
CONTINUOUS
10
178.377
20
-80.8703
11
178.395
21
-80.8796
0
LINE
8
BLACK
6
CONTINUOUS
10
178.395
20
-80.8796
11
178.41
21
-80.892
0
LINE
8
BLACK
6
CONTINUOUS
10
178.41
20
-80.892
11
178.423
21
-80.9073
0
LINE
8
BLACK
6
CONTINUOUS
10
178.423
20
-80.9073
11
178.432
21
-80.9246
0
LINE
8
BLACK
6
CONTINUOUS
10
178.432
20
-80.9246
11
178.438
21
-80.9435
0
LINE
8
BLACK
6
CONTINUOUS
10
178.438
20
-80.9435
11
178.439
21
-80.9631
0
LINE
8
BLACK
6
CONTINUOUS
10
178.439
20
-80.9631
11
178.439
21
-80.968
0
LINE
8
BLACK
6
CONTINUOUS
10
178.439
20
-80.968
11
178.439
21
-94.9574
0
LINE
8
BLACK
6
CONTINUOUS
10
178.439
20
-94.9574
11
178.439
21
-94.9623
0
LINE
8
BLACK
6
CONTINUOUS
10
178.439
20
-94.9623
11
178.438
21
-94.9819
0
LINE
8
BLACK
6
CONTINUOUS
10
178.438
20
-94.9819
11
178.432
21
-95.0008
0
LINE
8
BLACK
6
CONTINUOUS
10
178.432
20
-95.0008
11
178.423
21
-95.0181
0
LINE
8
BLACK
6
CONTINUOUS
10
178.423
20
-95.0181
11
178.41
21
-95.0334
0
LINE
8
BLACK
6
CONTINUOUS
10
178.41
20
-95.0334
11
178.395
21
-95.0458
0
LINE
8
BLACK
6
CONTINUOUS
10
178.395
20
-95.0458
11
178.377
21
-95.0551
0
LINE
8
BLACK
6
CONTINUOUS
10
178.377
20
-95.0551
11
178.359
21
-95.0609
0
LINE
8
BLACK
6
CONTINUOUS
10
178.359
20
-95.0609
11
178.344
21
-95.0623
0
LINE
8
BLACK
6
CONTINUOUS
10
178.344
20
-95.0623
11
178.339
21
-95.0628
0
LINE
8
BLACK
6
CONTINUOUS
10
178.339
20
-95.0628
11
178.334
21
-95.0623
0
LINE
8
BLACK
6
CONTINUOUS
10
178.334
20
-95.0623
11
164.345
21
-95.0623
0
LINE
8
BLACK
6
CONTINUOUS
10
164.345
20
-95.0623
11
164.34
21
-95.0628
0
LINE
8
BLACK
6
CONTINUOUS
10
164.34
20
-95.0628
11
164.32
21
-95.0609
0
LINE
8
BLACK
6
CONTINUOUS
10
164.32
20
-95.0609
11
164.302
21
-95.0551
0
LINE
8
BLACK
6
CONTINUOUS
10
164.302
20
-95.0551
11
164.284
21
-95.0458
0
LINE
8
BLACK
6
CONTINUOUS
10
164.284
20
-95.0458
11
164.269
21
-95.0334
0
LINE
8
BLACK
6
CONTINUOUS
10
164.269
20
-95.0334
11
164.256
21
-95.0181
0
LINE
8
BLACK
6
CONTINUOUS
10
164.256
20
-95.0181
11
164.247
21
-95.0008
0
LINE
8
BLACK
6
CONTINUOUS
10
164.247
20
-95.0008
11
164.241
21
-94.9819
0
LINE
8
BLACK
6
CONTINUOUS
10
164.241
20
-94.9819
11
164.24
21
-94.9623
0
LINE
8
BLACK
6
CONTINUOUS
10
164.24
20
-94.9623
11
164.24
21
-94.9574
0
LINE
8
BLACK
6
CONTINUOUS
10
164.24
20
-94.9574
11
164.24
21
-80.968
0
LINE
8
BLACK
6
CONTINUOUS
10
164.24
20
-80.968
11
164.24
21
-80.9631
0
LINE
8
BLACK
6
CONTINUOUS
10
164.24
20
-80.9631
11
164.241
21
-80.9435
0
LINE
8
BLACK
6
CONTINUOUS
10
164.241
20
-80.9435
11
164.247
21
-80.9246
0
LINE
8
BLACK
6
CONTINUOUS
10
164.247
20
-80.9246
11
164.256
21
-80.9073
0
LINE
8
BLACK
6
CONTINUOUS
10
164.256
20
-80.9073
11
164.269
21
-80.892
0
LINE
8
BLACK
6
CONTINUOUS
10
164.269
20
-80.892
11
164.284
21
-80.8796
0
LINE
8
BLACK
6
CONTINUOUS
10
164.284
20
-80.8796
11
164.302
21
-80.8703
0
LINE
8
BLACK
6
CONTINUOUS
10
164.302
20
-80.8703
11
164.32
21
-80.8645
0
LINE
8
BLACK
6
CONTINUOUS
10
164.32
20
-80.8645
11
164.335
21
-80.8631
0
LINE
8
BLACK
6
CONTINUOUS
10
164.335
20
-80.8631
11
164.34
21
-80.8626
0
LINE
8
BLACK
6
CONTINUOUS
10
164.34
20
-80.8626
11
164.345
21
-80.8631
0
LINE
8
BLACK
6
CONTINUOUS
10
164.345
20
-80.8631
11
178.334
21
-80.8631
0
LINE
8
BLACK
6
CONTINUOUS
10
178.334
20
-80.8631
11
178.339
21
-80.8626
0
LINE
8
BLACK
6
CONTINUOUS
10
178.339
20
-80.8626
11
178.344
21
-80.8631
0
LINE
8
BLACK
6
CONTINUOUS
10
164.44
20
-81.0631
11
164.44
21
-94.8623
0
LINE
8
BLACK
6
CONTINUOUS
10
164.44
20
-94.8623
11
178.239
21
-94.8623
0
LINE
8
BLACK
6
CONTINUOUS
10
178.239
20
-94.8623
11
178.239
21
-81.0631
0
LINE
8
BLACK
6
CONTINUOUS
10
178.239
20
-81.0631
11
164.44
21
-81.0631
0
LINE
8
BLACK
6
CONTINUOUS
10
212.057
20
-91.9641
11
212.06
21
-91.9644
0
LINE
8
BLACK
6
CONTINUOUS
10
212.06
20
-91.9644
11
212.062
21
-91.9643
0
LINE
8
BLACK
6
CONTINUOUS
10
212.062
20
-91.9643
11
212.067
21
-91.9652
0
LINE
8
BLACK
6
CONTINUOUS
10
212.067
20
-91.9652
11
212.072
21
-91.9658
0
LINE
8
BLACK
6
CONTINUOUS
10
212.072
20
-91.9658
11
212.074
21
-91.9664
0
LINE
8
BLACK
6
CONTINUOUS
10
212.074
20
-91.9664
11
212.076
21
-91.9668
0
LINE
8
BLACK
6
CONTINUOUS
10
212.076
20
-91.9668
11
212.081
21
-91.9686
0
LINE
8
BLACK
6
CONTINUOUS
10
212.081
20
-91.9686
11
212.086
21
-91.9702
0
LINE
8
BLACK
6
CONTINUOUS
10
212.086
20
-91.9702
11
212.088
21
-91.9712
0
LINE
8
BLACK
6
CONTINUOUS
10
212.088
20
-91.9712
11
212.09
21
-91.972
0
LINE
8
BLACK
6
CONTINUOUS
10
212.09
20
-91.972
11
212.185
21
-92.0197
0
LINE
8
BLACK
6
CONTINUOUS
10
212.185
20
-92.0197
11
212.186
21
-92.0201
0
LINE
8
BLACK
6
CONTINUOUS
10
212.186
20
-92.0201
11
212.19
21
-92.0224
0
LINE
8
BLACK
6
CONTINUOUS
10
212.19
20
-92.0224
11
212.193
21
-92.0244
0
LINE
8
BLACK
6
CONTINUOUS
10
212.193
20
-92.0244
11
212.196
21
-92.0264
0
LINE
8
BLACK
6
CONTINUOUS
10
212.196
20
-92.0264
11
212.198
21
-92.0281
0
LINE
8
BLACK
6
CONTINUOUS
10
212.198
20
-92.0281
11
212.201
21
-92.031
0
LINE
8
BLACK
6
CONTINUOUS
10
212.201
20
-92.031
11
212.205
21
-92.0337
0
LINE
8
BLACK
6
CONTINUOUS
10
212.205
20
-92.0337
11
212.252
21
-92.0813
0
LINE
8
BLACK
6
CONTINUOUS
10
212.252
20
-92.0813
11
212.253
21
-92.0821
0
LINE
8
BLACK
6
CONTINUOUS
10
212.253
20
-92.0821
11
212.256
21
-92.0854
0
LINE
8
BLACK
6
CONTINUOUS
10
212.256
20
-92.0854
11
212.258
21
-92.0884
0
LINE
8
BLACK
6
CONTINUOUS
10
212.258
20
-92.0884
11
212.26
21
-92.0911
0
LINE
8
BLACK
6
CONTINUOUS
10
212.26
20
-92.0911
11
212.262
21
-92.0935
0
LINE
8
BLACK
6
CONTINUOUS
10
212.262
20
-92.0935
11
212.264
21
-92.0972
0
LINE
8
BLACK
6
CONTINUOUS
10
212.264
20
-92.0972
11
212.266
21
-92.1008
0
LINE
8
BLACK
6
CONTINUOUS
10
212.266
20
-92.1008
11
212.314
21
-92.1961
0
LINE
8
BLACK
6
CONTINUOUS
10
212.314
20
-92.1961
11
212.314
21
-92.197
0
LINE
8
BLACK
6
CONTINUOUS
10
212.314
20
-92.197
11
212.315
21
-92.1991
0
LINE
8
BLACK
6
CONTINUOUS
10
212.315
20
-92.1991
11
212.316
21
-92.201
0
LINE
8
BLACK
6
CONTINUOUS
10
212.316
20
-92.201
11
212.318
21
-92.2059
0
LINE
8
BLACK
6
CONTINUOUS
10
212.318
20
-92.2059
11
212.319
21
-92.2107
0
LINE
8
BLACK
6
CONTINUOUS
10
212.319
20
-92.2107
11
212.32
21
-92.2129
0
LINE
8
BLACK
6
CONTINUOUS
10
212.32
20
-92.2129
11
212.32
21
-92.215
0
LINE
8
BLACK
6
CONTINUOUS
10
212.32
20
-92.215
11
212.321
21
-92.2201
0
LINE
8
BLACK
6
CONTINUOUS
10
212.321
20
-92.2201
11
212.322
21
-92.2252
0
LINE
8
BLACK
6
CONTINUOUS
10
212.322
20
-92.2252
11
212.322
21
-92.2274
0
LINE
8
BLACK
6
CONTINUOUS
10
212.322
20
-92.2274
11
212.322
21
-92.2296
0
LINE
8
BLACK
6
CONTINUOUS
10
212.322
20
-92.2296
11
212.322
21
-92.4201
0
LINE
8
BLACK
6
CONTINUOUS
10
212.322
20
-92.4201
11
212.322
21
-92.4211
0
LINE
8
BLACK
6
CONTINUOUS
10
212.322
20
-92.4211
11
212.322
21
-92.4233
0
LINE
8
BLACK
6
CONTINUOUS
10
212.322
20
-92.4233
11
212.322
21
-92.4255
0
LINE
8
BLACK
6
CONTINUOUS
10
212.322
20
-92.4255
11
212.321
21
-92.4306
0
LINE
8
BLACK
6
CONTINUOUS
10
212.321
20
-92.4306
11
212.32
21
-92.4357
0
LINE
8
BLACK
6
CONTINUOUS
10
212.32
20
-92.4357
11
212.319
21
-92.4378
0
LINE
8
BLACK
6
CONTINUOUS
10
212.319
20
-92.4378
11
212.319
21
-92.4399
0
LINE
8
BLACK
6
CONTINUOUS
10
212.319
20
-92.4399
11
212.317
21
-92.4447
0
LINE
8
BLACK
6
CONTINUOUS
10
212.317
20
-92.4447
11
212.316
21
-92.4496
0
LINE
8
BLACK
6
CONTINUOUS
10
212.316
20
-92.4496
11
212.315
21
-92.4515
0
LINE
8
BLACK
6
CONTINUOUS
10
212.315
20
-92.4515
11
212.314
21
-92.4536
0
LINE
8
BLACK
6
CONTINUOUS
10
212.314
20
-92.4536
11
212.266
21
-92.5488
0
LINE
8
BLACK
6
CONTINUOUS
10
212.266
20
-92.5488
11
212.266
21
-92.5498
0
LINE
8
BLACK
6
CONTINUOUS
10
212.266
20
-92.5498
11
212.263
21
-92.5533
0
LINE
8
BLACK
6
CONTINUOUS
10
212.263
20
-92.5533
11
212.262
21
-92.557
0
LINE
8
BLACK
6
CONTINUOUS
10
212.262
20
-92.557
11
212.26
21
-92.5594
0
LINE
8
BLACK
6
CONTINUOUS
10
212.26
20
-92.5594
11
212.258
21
-92.5621
0
LINE
8
BLACK
6
CONTINUOUS
10
212.258
20
-92.5621
11
212.255
21
-92.5651
0
LINE
8
BLACK
6
CONTINUOUS
10
212.255
20
-92.5651
11
212.252
21
-92.5683
0
LINE
8
BLACK
6
CONTINUOUS
10
212.252
20
-92.5683
11
212.205
21
-92.616
0
LINE
8
BLACK
6
CONTINUOUS
10
212.205
20
-92.616
11
212.204
21
-92.6167
0
LINE
8
BLACK
6
CONTINUOUS
10
212.204
20
-92.6167
11
212.201
21
-92.6193
0
LINE
8
BLACK
6
CONTINUOUS
10
212.201
20
-92.6193
11
212.197
21
-92.6222
0
LINE
8
BLACK
6
CONTINUOUS
10
212.197
20
-92.6222
11
212.195
21
-92.6239
0
LINE
8
BLACK
6
CONTINUOUS
10
212.195
20
-92.6239
11
212.192
21
-92.6258
0
LINE
8
BLACK
6
CONTINUOUS
10
212.192
20
-92.6258
11
212.189
21
-92.6278
0
LINE
8
BLACK
6
CONTINUOUS
10
212.189
20
-92.6278
11
212.185
21
-92.63
0
LINE
8
BLACK
6
CONTINUOUS
10
212.185
20
-92.63
11
212.09
21
-92.6776
0
LINE
8
BLACK
6
CONTINUOUS
10
212.09
20
-92.6776
11
212.089
21
-92.6781
0
LINE
8
BLACK
6
CONTINUOUS
10
212.089
20
-92.6781
11
212.087
21
-92.6788
0
LINE
8
BLACK
6
CONTINUOUS
10
212.087
20
-92.6788
11
212.085
21
-92.6799
0
LINE
8
BLACK
6
CONTINUOUS
10
212.085
20
-92.6799
11
212.08
21
-92.6814
0
LINE
8
BLACK
6
CONTINUOUS
10
212.08
20
-92.6814
11
212.075
21
-92.6831
0
LINE
8
BLACK
6
CONTINUOUS
10
212.075
20
-92.6831
11
212.073
21
-92.6835
0
LINE
8
BLACK
6
CONTINUOUS
10
212.073
20
-92.6835
11
212.071
21
-92.6841
0
LINE
8
BLACK
6
CONTINUOUS
10
212.071
20
-92.6841
11
212.066
21
-92.6846
0
LINE
8
BLACK
6
CONTINUOUS
10
212.066
20
-92.6846
11
212.061
21
-92.6854
0
LINE
8
BLACK
6
CONTINUOUS
10
212.061
20
-92.6854
11
212.059
21
-92.6853
0
LINE
8
BLACK
6
CONTINUOUS
10
212.059
20
-92.6853
11
212.056
21
-92.6855
0
LINE
8
BLACK
6
CONTINUOUS
10
212.056
20
-92.6855
11
211.247
21
-92.6855
0
LINE
8
BLACK
6
CONTINUOUS
10
211.247
20
-92.6855
11
211.246
21
-92.6855
0
LINE
8
BLACK
6
CONTINUOUS
10
211.246
20
-92.6855
11
211.231
21
-92.6839
0
LINE
8
BLACK
6
CONTINUOUS
10
211.231
20
-92.6839
11
211.217
21
-92.6795
0
LINE
8
BLACK
6
CONTINUOUS
10
211.217
20
-92.6795
11
211.204
21
-92.6724
0
LINE
8
BLACK
6
CONTINUOUS
10
211.204
20
-92.6724
11
211.193
21
-92.663
0
LINE
8
BLACK
6
CONTINUOUS
10
211.193
20
-92.663
11
211.184
21
-92.6516
0
LINE
8
BLACK
6
CONTINUOUS
10
211.184
20
-92.6516
11
211.177
21
-92.6386
0
LINE
8
BLACK
6
CONTINUOUS
10
211.177
20
-92.6386
11
211.173
21
-92.6246
0
LINE
8
BLACK
6
CONTINUOUS
10
211.173
20
-92.6246
11
211.172
21
-92.61
0
LINE
8
BLACK
6
CONTINUOUS
10
211.172
20
-92.61
11
211.173
21
-92.5955
0
LINE
8
BLACK
6
CONTINUOUS
10
211.173
20
-92.5955
11
211.178
21
-92.5815
0
LINE
8
BLACK
6
CONTINUOUS
10
211.178
20
-92.5815
11
211.185
21
-92.5686
0
LINE
8
BLACK
6
CONTINUOUS
10
211.185
20
-92.5686
11
211.194
21
-92.5573
0
LINE
8
BLACK
6
CONTINUOUS
10
211.194
20
-92.5573
11
211.205
21
-92.5481
0
LINE
8
BLACK
6
CONTINUOUS
10
211.205
20
-92.5481
11
211.218
21
-92.5412
0
LINE
8
BLACK
6
CONTINUOUS
10
211.218
20
-92.5412
11
211.232
21
-92.537
0
LINE
8
BLACK
6
CONTINUOUS
10
211.232
20
-92.537
11
211.247
21
-92.5355
0
LINE
8
BLACK
6
CONTINUOUS
10
211.247
20
-92.5355
11
212.039
21
-92.5355
0
LINE
8
BLACK
6
CONTINUOUS
10
212.039
20
-92.5355
11
212.107
21
-92.5013
0
LINE
8
BLACK
6
CONTINUOUS
10
212.107
20
-92.5013
11
212.138
21
-92.4709
0
LINE
8
BLACK
6
CONTINUOUS
10
212.138
20
-92.4709
11
212.172
21
-92.4024
0
LINE
8
BLACK
6
CONTINUOUS
10
212.172
20
-92.4024
11
212.172
21
-92.2473
0
LINE
8
BLACK
6
CONTINUOUS
10
212.172
20
-92.2473
11
212.138
21
-92.1788
0
LINE
8
BLACK
6
CONTINUOUS
10
212.138
20
-92.1788
11
212.107
21
-92.1484
0
LINE
8
BLACK
6
CONTINUOUS
10
212.107
20
-92.1484
11
212.039
21
-92.1141
0
LINE
8
BLACK
6
CONTINUOUS
10
212.039
20
-92.1141
11
211.247
21
-92.1141
0
LINE
8
BLACK
6
CONTINUOUS
10
211.247
20
-92.1141
11
211.246
21
-92.1141
0
LINE
8
BLACK
6
CONTINUOUS
10
211.246
20
-92.1141
11
211.231
21
-92.1125
0
LINE
8
BLACK
6
CONTINUOUS
10
211.231
20
-92.1125
11
211.217
21
-92.1081
0
LINE
8
BLACK
6
CONTINUOUS
10
211.217
20
-92.1081
11
211.204
21
-92.101
0
LINE
8
BLACK
6
CONTINUOUS
10
211.204
20
-92.101
11
211.193
21
-92.0916
0
LINE
8
BLACK
6
CONTINUOUS
10
211.193
20
-92.0916
11
211.184
21
-92.0802
0
LINE
8
BLACK
6
CONTINUOUS
10
211.184
20
-92.0802
11
211.177
21
-92.0672
0
LINE
8
BLACK
6
CONTINUOUS
10
211.177
20
-92.0672
11
211.173
21
-92.0532
0
LINE
8
BLACK
6
CONTINUOUS
10
211.173
20
-92.0532
11
211.172
21
-92.0386
0
LINE
8
BLACK
6
CONTINUOUS
10
211.172
20
-92.0386
11
211.173
21
-92.024
0
LINE
8
BLACK
6
CONTINUOUS
10
211.173
20
-92.024
11
211.178
21
-92.0101
0
LINE
8
BLACK
6
CONTINUOUS
10
211.178
20
-92.0101
11
211.185
21
-91.9972
0
LINE
8
BLACK
6
CONTINUOUS
10
211.185
20
-91.9972
11
211.194
21
-91.9859
0
LINE
8
BLACK
6
CONTINUOUS
10
211.194
20
-91.9859
11
211.205
21
-91.9766
0
LINE
8
BLACK
6
CONTINUOUS
10
211.205
20
-91.9766
11
211.218
21
-91.9698
0
LINE
8
BLACK
6
CONTINUOUS
10
211.218
20
-91.9698
11
211.232
21
-91.9655
0
LINE
8
BLACK
6
CONTINUOUS
10
211.232
20
-91.9655
11
211.247
21
-91.9641
0
LINE
8
BLACK
6
CONTINUOUS
10
211.247
20
-91.9641
11
212.056
21
-91.9641
0
LINE
8
BLACK
6
CONTINUOUS
10
212.056
20
-91.9641
11
212.057
21
-91.9641
0
LINE
8
BLACK
6
CONTINUOUS
10
211.534
20
-90.9641
11
211.538
21
-90.9646
0
LINE
8
BLACK
6
CONTINUOUS
10
211.538
20
-90.9646
11
211.542
21
-90.9647
0
LINE
8
BLACK
6
CONTINUOUS
10
211.542
20
-90.9647
11
211.545
21
-90.9654
0
LINE
8
BLACK
6
CONTINUOUS
10
211.545
20
-90.9654
11
211.548
21
-90.9658
0
LINE
8
BLACK
6
CONTINUOUS
10
211.548
20
-90.9658
11
211.552
21
-90.967
0
LINE
8
BLACK
6
CONTINUOUS
10
211.552
20
-90.967
11
211.556
21
-90.968
0
LINE
8
BLACK
6
CONTINUOUS
10
211.556
20
-90.968
11
211.699
21
-91.0156
0
LINE
8
BLACK
6
CONTINUOUS
10
211.699
20
-91.0156
11
211.7
21
-91.0159
0
LINE
8
BLACK
6
CONTINUOUS
10
211.7
20
-91.0159
11
211.702
21
-91.0168
0
LINE
8
BLACK
6
CONTINUOUS
10
211.702
20
-91.0168
11
211.704
21
-91.0175
0
LINE
8
BLACK
6
CONTINUOUS
10
211.704
20
-91.0175
11
211.709
21
-91.0199
0
LINE
8
BLACK
6
CONTINUOUS
10
211.709
20
-91.0199
11
211.713
21
-91.0221
0
LINE
8
BLACK
6
CONTINUOUS
10
211.713
20
-91.0221
11
211.715
21
-91.0234
0
LINE
8
BLACK
6
CONTINUOUS
10
211.715
20
-91.0234
11
211.717
21
-91.0244
0
LINE
8
BLACK
6
CONTINUOUS
10
211.717
20
-91.0244
11
211.721
21
-91.0277
0
LINE
8
BLACK
6
CONTINUOUS
10
211.721
20
-91.0277
11
211.725
21
-91.0307
0
LINE
8
BLACK
6
CONTINUOUS
10
211.725
20
-91.0307
11
211.727
21
-91.0323
0
LINE
8
BLACK
6
CONTINUOUS
10
211.727
20
-91.0323
11
211.728
21
-91.0337
0
LINE
8
BLACK
6
CONTINUOUS
10
211.728
20
-91.0337
11
212.172
21
-91.4771
0
LINE
8
BLACK
6
CONTINUOUS
10
212.172
20
-91.4771
11
212.172
21
-91.0391
0
LINE
8
BLACK
6
CONTINUOUS
10
212.172
20
-91.0391
11
212.172
21
-91.0381
0
LINE
8
BLACK
6
CONTINUOUS
10
212.172
20
-91.0381
11
212.173
21
-91.0235
0
LINE
8
BLACK
6
CONTINUOUS
10
212.173
20
-91.0235
11
212.178
21
-91.0096
0
LINE
8
BLACK
6
CONTINUOUS
10
212.178
20
-91.0096
11
212.185
21
-90.9967
0
LINE
8
BLACK
6
CONTINUOUS
10
212.185
20
-90.9967
11
212.194
21
-90.9855
0
LINE
8
BLACK
6
CONTINUOUS
10
212.194
20
-90.9855
11
212.206
21
-90.9764
0
LINE
8
BLACK
6
CONTINUOUS
10
212.206
20
-90.9764
11
212.219
21
-90.9696
0
LINE
8
BLACK
6
CONTINUOUS
10
212.219
20
-90.9696
11
212.233
21
-90.9654
0
LINE
8
BLACK
6
CONTINUOUS
10
212.233
20
-90.9654
11
212.247
21
-90.9641
0
LINE
8
BLACK
6
CONTINUOUS
10
212.247
20
-90.9641
11
212.262
21
-90.9656
0
LINE
8
BLACK
6
CONTINUOUS
10
212.262
20
-90.9656
11
212.276
21
-90.97
0
LINE
8
BLACK
6
CONTINUOUS
10
212.276
20
-90.97
11
212.289
21
-90.9769
0
LINE
8
BLACK
6
CONTINUOUS
10
212.289
20
-90.9769
11
212.3
21
-90.9863
0
LINE
8
BLACK
6
CONTINUOUS
10
212.3
20
-90.9863
11
212.309
21
-90.9976
0
LINE
8
BLACK
6
CONTINUOUS
10
212.309
20
-90.9976
11
212.316
21
-91.0105
0
LINE
8
BLACK
6
CONTINUOUS
10
212.316
20
-91.0105
11
212.32
21
-91.0245
0
LINE
8
BLACK
6
CONTINUOUS
10
212.32
20
-91.0245
11
212.322
21
-91.0391
0
LINE
8
BLACK
6
CONTINUOUS
10
212.322
20
-91.0391
11
212.322
21
-91.6582
0
LINE
8
BLACK
6
CONTINUOUS
10
212.322
20
-91.6582
11
212.322
21
-91.6589
0
LINE
8
BLACK
6
CONTINUOUS
10
212.322
20
-91.6589
11
212.322
21
-91.6589
0
LINE
8
BLACK
6
CONTINUOUS
10
212.322
20
-91.6589
11
212.322
21
-91.659
0
LINE
8
BLACK
6
CONTINUOUS
10
212.322
20
-91.659
11
212.322
21
-91.6592
0
LINE
8
BLACK
6
CONTINUOUS
10
212.322
20
-91.6592
11
212.321
21
-91.6665
0
LINE
8
BLACK
6
CONTINUOUS
10
212.321
20
-91.6665
11
212.32
21
-91.6735
0
LINE
8
BLACK
6
CONTINUOUS
10
212.32
20
-91.6735
11
212.32
21
-91.6736
0
LINE
8
BLACK
6
CONTINUOUS
10
212.32
20
-91.6736
11
212.32
21
-91.6738
0
LINE
8
BLACK
6
CONTINUOUS
10
212.32
20
-91.6738
11
212.318
21
-91.6807
0
LINE
8
BLACK
6
CONTINUOUS
10
212.318
20
-91.6807
11
212.316
21
-91.6875
0
LINE
8
BLACK
6
CONTINUOUS
10
212.316
20
-91.6875
11
212.316
21
-91.6876
0
LINE
8
BLACK
6
CONTINUOUS
10
212.316
20
-91.6876
11
212.316
21
-91.6877
0
LINE
8
BLACK
6
CONTINUOUS
10
212.316
20
-91.6877
11
212.312
21
-91.6941
0
LINE
8
BLACK
6
CONTINUOUS
10
212.312
20
-91.6941
11
212.309
21
-91.7003
0
LINE
8
BLACK
6
CONTINUOUS
10
212.309
20
-91.7003
11
212.309
21
-91.7004
0
LINE
8
BLACK
6
CONTINUOUS
10
212.309
20
-91.7004
11
212.309
21
-91.7005
0
LINE
8
BLACK
6
CONTINUOUS
10
212.309
20
-91.7005
11
212.304
21
-91.7062
0
LINE
8
BLACK
6
CONTINUOUS
10
212.304
20
-91.7062
11
212.299
21
-91.7116
0
LINE
8
BLACK
6
CONTINUOUS
10
212.299
20
-91.7116
11
212.299
21
-91.7116
0
LINE
8
BLACK
6
CONTINUOUS
10
212.299
20
-91.7116
11
212.299
21
-91.7117
0
LINE
8
BLACK
6
CONTINUOUS
10
212.299
20
-91.7117
11
212.294
21
-91.7163
0
LINE
8
BLACK
6
CONTINUOUS
10
212.294
20
-91.7163
11
212.288
21
-91.7208
0
LINE
8
BLACK
6
CONTINUOUS
10
212.288
20
-91.7208
11
212.288
21
-91.7208
0
LINE
8
BLACK
6
CONTINUOUS
10
212.288
20
-91.7208
11
212.288
21
-91.7209
0
LINE
8
BLACK
6
CONTINUOUS
10
212.288
20
-91.7209
11
212.282
21
-91.7242
0
LINE
8
BLACK
6
CONTINUOUS
10
212.282
20
-91.7242
11
212.275
21
-91.7276
0
LINE
8
BLACK
6
CONTINUOUS
10
212.275
20
-91.7276
11
212.275
21
-91.7276
0
LINE
8
BLACK
6
CONTINUOUS
10
212.275
20
-91.7276
11
212.275
21
-91.7277
0
LINE
8
BLACK
6
CONTINUOUS
10
212.275
20
-91.7277
11
212.268
21
-91.7297
0
LINE
8
BLACK
6
CONTINUOUS
10
212.268
20
-91.7297
11
212.261
21
-91.7318
0
LINE
8
BLACK
6
CONTINUOUS
10
212.261
20
-91.7318
11
212.261
21
-91.7318
0
LINE
8
BLACK
6
CONTINUOUS
10
212.261
20
-91.7318
11
212.261
21
-91.7318
0
LINE
8
BLACK
6
CONTINUOUS
10
212.261
20
-91.7318
11
212.254
21
-91.7325
0
LINE
8
BLACK
6
CONTINUOUS
10
212.254
20
-91.7325
11
212.247
21
-91.7332
0
LINE
8
BLACK
6
CONTINUOUS
10
212.247
20
-91.7332
11
212.246
21
-91.7331
0
LINE
8
BLACK
6
CONTINUOUS
10
212.246
20
-91.7331
11
212.246
21
-91.7332
0
LINE
8
BLACK
6
CONTINUOUS
10
212.246
20
-91.7332
11
212.239
21
-91.7324
0
LINE
8
BLACK
6
CONTINUOUS
10
212.239
20
-91.7324
11
212.232
21
-91.7317
0
LINE
8
BLACK
6
CONTINUOUS
10
212.232
20
-91.7317
11
212.232
21
-91.7316
0
LINE
8
BLACK
6
CONTINUOUS
10
212.232
20
-91.7316
11
212.232
21
-91.7316
0
LINE
8
BLACK
6
CONTINUOUS
10
212.232
20
-91.7316
11
212.225
21
-91.7295
0
LINE
8
BLACK
6
CONTINUOUS
10
212.225
20
-91.7295
11
212.218
21
-91.7274
0
LINE
8
BLACK
6
CONTINUOUS
10
212.218
20
-91.7274
11
212.218
21
-91.7273
0
LINE
8
BLACK
6
CONTINUOUS
10
212.218
20
-91.7273
11
212.218
21
-91.7273
0
LINE
8
BLACK
6
CONTINUOUS
10
212.218
20
-91.7273
11
212.211
21
-91.7238
0
LINE
8
BLACK
6
CONTINUOUS
10
212.211
20
-91.7238
11
212.205
21
-91.7205
0
LINE
8
BLACK
6
CONTINUOUS
10
212.205
20
-91.7205
11
212.205
21
-91.7204
0
LINE
8
BLACK
6
CONTINUOUS
10
212.205
20
-91.7204
11
212.205
21
-91.7203
0
LINE
8
BLACK
6
CONTINUOUS
10
212.205
20
-91.7203
11
212.199
21
-91.7157
0
LINE
8
BLACK
6
CONTINUOUS
10
212.199
20
-91.7157
11
212.194
21
-91.7112
0
LINE
8
BLACK
6
CONTINUOUS
10
212.194
20
-91.7112
11
211.635
21
-91.1523
0
LINE
8
BLACK
6
CONTINUOUS
10
211.635
20
-91.1523
11
211.52
21
-91.1141
0
LINE
8
BLACK
6
CONTINUOUS
10
211.52
20
-91.1141
11
211.455
21
-91.1141
0
LINE
8
BLACK
6
CONTINUOUS
10
211.455
20
-91.1141
11
211.386
21
-91.1484
0
LINE
8
BLACK
6
CONTINUOUS
10
211.386
20
-91.1484
11
211.356
21
-91.1788
0
LINE
8
BLACK
6
CONTINUOUS
10
211.356
20
-91.1788
11
211.322
21
-91.2473
0
LINE
8
BLACK
6
CONTINUOUS
10
211.322
20
-91.2473
11
211.322
21
-91.45
0
LINE
8
BLACK
6
CONTINUOUS
10
211.322
20
-91.45
11
211.356
21
-91.5185
0
LINE
8
BLACK
6
CONTINUOUS
10
211.356
20
-91.5185
11
211.395
21
-91.5575
0
LINE
8
BLACK
6
CONTINUOUS
10
211.395
20
-91.5575
11
211.396
21
-91.5583
0
LINE
8
BLACK
6
CONTINUOUS
10
211.396
20
-91.5583
11
211.405
21
-91.5697
0
LINE
8
BLACK
6
CONTINUOUS
10
211.405
20
-91.5697
11
211.412
21
-91.5827
0
LINE
8
BLACK
6
CONTINUOUS
10
211.412
20
-91.5827
11
211.416
21
-91.5967
0
LINE
8
BLACK
6
CONTINUOUS
10
211.416
20
-91.5967
11
211.417
21
-91.6113
0
LINE
8
BLACK
6
CONTINUOUS
10
211.417
20
-91.6113
11
211.415
21
-91.6259
0
LINE
8
BLACK
6
CONTINUOUS
10
211.415
20
-91.6259
11
211.411
21
-91.6398
0
LINE
8
BLACK
6
CONTINUOUS
10
211.411
20
-91.6398
11
211.404
21
-91.6527
0
LINE
8
BLACK
6
CONTINUOUS
10
211.404
20
-91.6527
11
211.395
21
-91.6639
0
LINE
8
BLACK
6
CONTINUOUS
10
211.395
20
-91.6639
11
211.383
21
-91.6732
0
LINE
8
BLACK
6
CONTINUOUS
10
211.383
20
-91.6732
11
211.37
21
-91.68
0
LINE
8
BLACK
6
CONTINUOUS
10
211.37
20
-91.68
11
211.356
21
-91.6842
0
LINE
8
BLACK
6
CONTINUOUS
10
211.356
20
-91.6842
11
211.342
21
-91.6855
0
LINE
8
BLACK
6
CONTINUOUS
10
211.342
20
-91.6855
11
211.327
21
-91.6841
0
LINE
8
BLACK
6
CONTINUOUS
10
211.327
20
-91.6841
11
211.313
21
-91.6798
0
LINE
8
BLACK
6
CONTINUOUS
10
211.313
20
-91.6798
11
211.3
21
-91.6729
0
LINE
8
BLACK
6
CONTINUOUS
10
211.3
20
-91.6729
11
211.289
21
-91.6636
0
LINE
8
BLACK
6
CONTINUOUS
10
211.289
20
-91.6636
11
211.241
21
-91.616
0
LINE
8
BLACK
6
CONTINUOUS
10
211.241
20
-91.616
11
211.241
21
-91.6152
0
LINE
8
BLACK
6
CONTINUOUS
10
211.241
20
-91.6152
11
211.238
21
-91.6119
0
LINE
8
BLACK
6
CONTINUOUS
10
211.238
20
-91.6119
11
211.235
21
-91.6089
0
LINE
8
BLACK
6
CONTINUOUS
10
211.235
20
-91.6089
11
211.233
21
-91.6062
0
LINE
8
BLACK
6
CONTINUOUS
10
211.233
20
-91.6062
11
211.232
21
-91.6038
0
LINE
8
BLACK
6
CONTINUOUS
10
211.232
20
-91.6038
11
211.23
21
-91.6
0
LINE
8
BLACK
6
CONTINUOUS
10
211.23
20
-91.6
11
211.227
21
-91.5965
0
LINE
8
BLACK
6
CONTINUOUS
10
211.227
20
-91.5965
11
211.18
21
-91.5012
0
LINE
8
BLACK
6
CONTINUOUS
10
211.18
20
-91.5012
11
211.179
21
-91.5003
0
LINE
8
BLACK
6
CONTINUOUS
10
211.179
20
-91.5003
11
211.178
21
-91.4982
0
LINE
8
BLACK
6
CONTINUOUS
10
211.178
20
-91.4982
11
211.177
21
-91.4963
0
LINE
8
BLACK
6
CONTINUOUS
10
211.177
20
-91.4963
11
211.176
21
-91.4914
0
LINE
8
BLACK
6
CONTINUOUS
10
211.176
20
-91.4914
11
211.174
21
-91.4865
0
LINE
8
BLACK
6
CONTINUOUS
10
211.174
20
-91.4865
11
211.174
21
-91.4844
0
LINE
8
BLACK
6
CONTINUOUS
10
211.174
20
-91.4844
11
211.173
21
-91.4823
0
LINE
8
BLACK
6
CONTINUOUS
10
211.173
20
-91.4823
11
211.173
21
-91.4771
0
LINE
8
BLACK
6
CONTINUOUS
10
211.173
20
-91.4771
11
211.172
21
-91.4721
0
LINE
8
BLACK
6
CONTINUOUS
10
211.172
20
-91.4721
11
211.172
21
-91.4699
0
LINE
8
BLACK
6
CONTINUOUS
10
211.172
20
-91.4699
11
211.172
21
-91.4677
0
LINE
8
BLACK
6
CONTINUOUS
10
211.172
20
-91.4677
11
211.172
21
-91.2296
0
LINE
8
BLACK
6
CONTINUOUS
10
211.172
20
-91.2296
11
211.172
21
-91.2285
0
LINE
8
BLACK
6
CONTINUOUS
10
211.172
20
-91.2285
11
211.172
21
-91.2263
0
LINE
8
BLACK
6
CONTINUOUS
10
211.172
20
-91.2263
11
211.172
21
-91.2241
0
LINE
8
BLACK
6
CONTINUOUS
10
211.172
20
-91.2241
11
211.173
21
-91.2191
0
LINE
8
BLACK
6
CONTINUOUS
10
211.173
20
-91.2191
11
211.173
21
-91.214
0
LINE
8
BLACK
6
CONTINUOUS
10
211.173
20
-91.214
11
211.174
21
-91.2119
0
LINE
8
BLACK
6
CONTINUOUS
10
211.174
20
-91.2119
11
211.174
21
-91.2097
0
LINE
8
BLACK
6
CONTINUOUS
10
211.174
20
-91.2097
11
211.176
21
-91.2049
0
LINE
8
BLACK
6
CONTINUOUS
10
211.176
20
-91.2049
11
211.178
21
-91.2
0
LINE
8
BLACK
6
CONTINUOUS
10
211.178
20
-91.2
11
211.179
21
-91.1981
0
LINE
8
BLACK
6
CONTINUOUS
10
211.179
20
-91.1981
11
211.18
21
-91.196
0
LINE
8
BLACK
6
CONTINUOUS
10
211.18
20
-91.196
11
211.227
21
-91.1008
0
LINE
8
BLACK
6
CONTINUOUS
10
211.227
20
-91.1008
11
211.228
21
-91.0999
0
LINE
8
BLACK
6
CONTINUOUS
10
211.228
20
-91.0999
11
211.23
21
-91.0963
0
LINE
8
BLACK
6
CONTINUOUS
10
211.23
20
-91.0963
11
211.232
21
-91.0926
0
LINE
8
BLACK
6
CONTINUOUS
10
211.232
20
-91.0926
11
211.234
21
-91.0902
0
LINE
8
BLACK
6
CONTINUOUS
10
211.234
20
-91.0902
11
211.236
21
-91.0876
0
LINE
8
BLACK
6
CONTINUOUS
10
211.236
20
-91.0876
11
211.239
21
-91.0846
0
LINE
8
BLACK
6
CONTINUOUS
10
211.239
20
-91.0846
11
211.241
21
-91.0813
0
LINE
8
BLACK
6
CONTINUOUS
10
211.241
20
-91.0813
11
211.289
21
-91.0337
0
LINE
8
BLACK
6
CONTINUOUS
10
211.289
20
-91.0337
11
211.29
21
-91.033
0
LINE
8
BLACK
6
CONTINUOUS
10
211.29
20
-91.033
11
211.293
21
-91.0303
0
LINE
8
BLACK
6
CONTINUOUS
10
211.293
20
-91.0303
11
211.296
21
-91.0274
0
LINE
8
BLACK
6
CONTINUOUS
10
211.296
20
-91.0274
11
211.299
21
-91.0258
0
LINE
8
BLACK
6
CONTINUOUS
10
211.299
20
-91.0258
11
211.301
21
-91.0238
0
LINE
8
BLACK
6
CONTINUOUS
10
211.301
20
-91.0238
11
211.305
21
-91.0219
0
LINE
8
BLACK
6
CONTINUOUS
10
211.305
20
-91.0219
11
211.308
21
-91.0197
0
LINE
8
BLACK
6
CONTINUOUS
10
211.308
20
-91.0197
11
211.404
21
-90.972
0
LINE
8
BLACK
6
CONTINUOUS
10
211.404
20
-90.972
11
211.405
21
-90.9716
0
LINE
8
BLACK
6
CONTINUOUS
10
211.405
20
-90.9716
11
211.407
21
-90.9708
0
LINE
8
BLACK
6
CONTINUOUS
10
211.407
20
-90.9708
11
211.409
21
-90.9698
0
LINE
8
BLACK
6
CONTINUOUS
10
211.409
20
-90.9698
11
211.414
21
-90.9683
0
LINE
8
BLACK
6
CONTINUOUS
10
211.414
20
-90.9683
11
211.418
21
-90.9665
0
LINE
8
BLACK
6
CONTINUOUS
10
211.418
20
-90.9665
11
211.421
21
-90.9662
0
LINE
8
BLACK
6
CONTINUOUS
10
211.421
20
-90.9662
11
211.423
21
-90.9655
0
LINE
8
BLACK
6
CONTINUOUS
10
211.423
20
-90.9655
11
211.428
21
-90.965
0
LINE
8
BLACK
6
CONTINUOUS
10
211.428
20
-90.965
11
211.433
21
-90.9642
0
LINE
8
BLACK
6
CONTINUOUS
10
211.433
20
-90.9642
11
211.435
21
-90.9643
0
LINE
8
BLACK
6
CONTINUOUS
10
211.435
20
-90.9643
11
211.437
21
-90.9641
0
LINE
8
BLACK
6
CONTINUOUS
10
211.437
20
-90.9641
11
211.533
21
-90.9641
0
LINE
8
BLACK
6
CONTINUOUS
10
211.533
20
-90.9641
11
211.534
21
-90.9641
0
LINE
8
BLACK
6
CONTINUOUS
10
211.352
20
-89.7141
11
211.353
21
-89.7141
0
LINE
8
BLACK
6
CONTINUOUS
10
211.353
20
-89.7141
11
211.36
21
-89.7149
0
LINE
8
BLACK
6
CONTINUOUS
10
211.36
20
-89.7149
11
211.367
21
-89.7156
0
LINE
8
BLACK
6
CONTINUOUS
10
211.367
20
-89.7156
11
211.367
21
-89.7156
0
LINE
8
BLACK
6
CONTINUOUS
10
211.367
20
-89.7156
11
211.367
21
-89.7156
0
LINE
8
BLACK
6
CONTINUOUS
10
211.367
20
-89.7156
11
211.374
21
-89.7178
0
LINE
8
BLACK
6
CONTINUOUS
10
211.374
20
-89.7178
11
211.381
21
-89.7199
0
LINE
8
BLACK
6
CONTINUOUS
10
211.381
20
-89.7199
11
211.381
21
-89.7199
0
LINE
8
BLACK
6
CONTINUOUS
10
211.381
20
-89.7199
11
211.381
21
-89.72
0
LINE
8
BLACK
6
CONTINUOUS
10
211.381
20
-89.72
11
211.387
21
-89.7234
0
LINE
8
BLACK
6
CONTINUOUS
10
211.387
20
-89.7234
11
211.394
21
-89.7268
0
LINE
8
BLACK
6
CONTINUOUS
10
211.394
20
-89.7268
11
211.394
21
-89.7269
0
LINE
8
BLACK
6
CONTINUOUS
10
211.394
20
-89.7269
11
211.394
21
-89.7269
0
LINE
8
BLACK
6
CONTINUOUS
10
211.394
20
-89.7269
11
211.4
21
-89.7315
0
LINE
8
BLACK
6
CONTINUOUS
10
211.4
20
-89.7315
11
211.405
21
-89.7361
0
LINE
8
BLACK
6
CONTINUOUS
10
211.405
20
-89.7361
11
211.964
21
-90.295
0
LINE
8
BLACK
6
CONTINUOUS
10
211.964
20
-90.295
11
212.078
21
-90.3332
0
LINE
8
BLACK
6
CONTINUOUS
10
212.078
20
-90.3332
11
212.144
21
-90.3332
0
LINE
8
BLACK
6
CONTINUOUS
10
212.144
20
-90.3332
11
212.212
21
-90.2989
0
LINE
8
BLACK
6
CONTINUOUS
10
212.212
20
-90.2989
11
212.243
21
-90.2685
0
LINE
8
BLACK
6
CONTINUOUS
10
212.243
20
-90.2685
11
212.277
21
-90.2
0
LINE
8
BLACK
6
CONTINUOUS
10
212.277
20
-90.2
11
212.277
21
-89.9973
0
LINE
8
BLACK
6
CONTINUOUS
10
212.277
20
-89.9973
11
212.243
21
-89.9288
0
LINE
8
BLACK
6
CONTINUOUS
10
212.243
20
-89.9288
11
212.204
21
-89.8898
0
LINE
8
BLACK
6
CONTINUOUS
10
212.204
20
-89.8898
11
212.203
21
-89.889
0
LINE
8
BLACK
6
CONTINUOUS
10
212.203
20
-89.889
11
212.194
21
-89.8776
0
LINE
8
BLACK
6
CONTINUOUS
10
212.194
20
-89.8776
11
212.187
21
-89.8646
0
LINE
8
BLACK
6
CONTINUOUS
10
212.187
20
-89.8646
11
212.183
21
-89.8505
0
LINE
8
BLACK
6
CONTINUOUS
10
212.183
20
-89.8505
11
212.182
21
-89.836
0
LINE
8
BLACK
6
CONTINUOUS
10
212.182
20
-89.836
11
212.183
21
-89.8214
0
LINE
8
BLACK
6
CONTINUOUS
10
212.183
20
-89.8214
11
212.188
21
-89.8074
0
LINE
8
BLACK
6
CONTINUOUS
10
212.188
20
-89.8074
11
212.195
21
-89.7946
0
LINE
8
BLACK
6
CONTINUOUS
10
212.195
20
-89.7946
11
212.204
21
-89.7833
0
LINE
8
BLACK
6
CONTINUOUS
10
212.204
20
-89.7833
11
212.216
21
-89.7741
0
LINE
8
BLACK
6
CONTINUOUS
10
212.216
20
-89.7741
11
212.228
21
-89.7673
0
LINE
8
BLACK
6
CONTINUOUS
10
212.228
20
-89.7673
11
212.242
21
-89.7631
0
LINE
8
BLACK
6
CONTINUOUS
10
212.242
20
-89.7631
11
212.257
21
-89.7617
0
LINE
8
BLACK
6
CONTINUOUS
10
212.257
20
-89.7617
11
212.272
21
-89.7632
0
LINE
8
BLACK
6
CONTINUOUS
10
212.272
20
-89.7632
11
212.286
21
-89.7675
0
LINE
8
BLACK
6
CONTINUOUS
10
212.286
20
-89.7675
11
212.299
21
-89.7744
0
LINE
8
BLACK
6
CONTINUOUS
10
212.299
20
-89.7744
11
212.31
21
-89.7837
0
LINE
8
BLACK
6
CONTINUOUS
10
212.31
20
-89.7837
11
212.357
21
-89.8313
0
LINE
8
BLACK
6
CONTINUOUS
10
212.357
20
-89.8313
11
212.358
21
-89.8321
0
LINE
8
BLACK
6
CONTINUOUS
10
212.358
20
-89.8321
11
212.361
21
-89.8354
0
LINE
8
BLACK
6
CONTINUOUS
10
212.361
20
-89.8354
11
212.364
21
-89.8384
0
LINE
8
BLACK
6
CONTINUOUS
10
212.364
20
-89.8384
11
212.365
21
-89.8411
0
LINE
8
BLACK
6
CONTINUOUS
10
212.365
20
-89.8411
11
212.367
21
-89.8435
0
LINE
8
BLACK
6
CONTINUOUS
10
212.367
20
-89.8435
11
212.369
21
-89.8472
0
LINE
8
BLACK
6
CONTINUOUS
10
212.369
20
-89.8472
11
212.372
21
-89.8508
0
LINE
8
BLACK
6
CONTINUOUS
10
212.372
20
-89.8508
11
212.419
21
-89.9461
0
LINE
8
BLACK
6
CONTINUOUS
10
212.419
20
-89.9461
11
212.42
21
-89.947
0
LINE
8
BLACK
6
CONTINUOUS
10
212.42
20
-89.947
11
212.42
21
-89.9491
0
LINE
8
BLACK
6
CONTINUOUS
10
212.42
20
-89.9491
11
212.421
21
-89.951
0
LINE
8
BLACK
6
CONTINUOUS
10
212.421
20
-89.951
11
212.423
21
-89.9559
0
LINE
8
BLACK
6
CONTINUOUS
10
212.423
20
-89.9559
11
212.425
21
-89.9607
0
LINE
8
BLACK
6
CONTINUOUS
10
212.425
20
-89.9607
11
212.425
21
-89.9629
0
LINE
8
BLACK
6
CONTINUOUS
10
212.425
20
-89.9629
11
212.426
21
-89.965
0
LINE
8
BLACK
6
CONTINUOUS
10
212.426
20
-89.965
11
212.426
21
-89.9701
0
LINE
8
BLACK
6
CONTINUOUS
10
212.426
20
-89.9701
11
212.427
21
-89.9752
0
LINE
8
BLACK
6
CONTINUOUS
10
212.427
20
-89.9752
11
212.427
21
-89.9774
0
LINE
8
BLACK
6
CONTINUOUS
10
212.427
20
-89.9774
11
212.427
21
-89.9796
0
LINE
8
BLACK
6
CONTINUOUS
10
212.427
20
-89.9796
11
212.427
21
-90.2177
0
LINE
8
BLACK
6
CONTINUOUS
10
212.427
20
-90.2177
11
212.427
21
-90.2187
0
LINE
8
BLACK
6
CONTINUOUS
10
212.427
20
-90.2187
11
212.427
21
-90.2209
0
LINE
8
BLACK
6
CONTINUOUS
10
212.427
20
-90.2209
11
212.427
21
-90.2231
0
LINE
8
BLACK
6
CONTINUOUS
10
212.427
20
-90.2231
11
212.426
21
-90.2282
0
LINE
8
BLACK
6
CONTINUOUS
10
212.426
20
-90.2282
11
212.425
21
-90.2333
0
LINE
8
BLACK
6
CONTINUOUS
10
212.425
20
-90.2333
11
212.425
21
-90.2354
0
LINE
8
BLACK
6
CONTINUOUS
10
212.425
20
-90.2354
11
212.424
21
-90.2376
0
LINE
8
BLACK
6
CONTINUOUS
10
212.424
20
-90.2376
11
212.423
21
-90.2424
0
LINE
8
BLACK
6
CONTINUOUS
10
212.423
20
-90.2424
11
212.421
21
-90.2472
0
LINE
8
BLACK
6
CONTINUOUS
10
212.421
20
-90.2472
11
212.42
21
-90.2492
0
LINE
8
BLACK
6
CONTINUOUS
10
212.42
20
-90.2492
11
212.419
21
-90.2512
0
LINE
8
BLACK
6
CONTINUOUS
10
212.419
20
-90.2512
11
212.372
21
-90.3465
0
LINE
8
BLACK
6
CONTINUOUS
10
212.372
20
-90.3465
11
212.371
21
-90.3474
0
LINE
8
BLACK
6
CONTINUOUS
10
212.371
20
-90.3474
11
212.369
21
-90.3509
0
LINE
8
BLACK
6
CONTINUOUS
10
212.369
20
-90.3509
11
212.367
21
-90.3546
0
LINE
8
BLACK
6
CONTINUOUS
10
212.367
20
-90.3546
11
212.365
21
-90.3571
0
LINE
8
BLACK
6
CONTINUOUS
10
212.365
20
-90.3571
11
212.363
21
-90.3597
0
LINE
8
BLACK
6
CONTINUOUS
10
212.363
20
-90.3597
11
212.36
21
-90.3627
0
LINE
8
BLACK
6
CONTINUOUS
10
212.36
20
-90.3627
11
212.357
21
-90.366
0
LINE
8
BLACK
6
CONTINUOUS
10
212.357
20
-90.366
11
212.31
21
-90.4136
0
LINE
8
BLACK
6
CONTINUOUS
10
212.31
20
-90.4136
11
212.309
21
-90.4143
0
LINE
8
BLACK
6
CONTINUOUS
10
212.309
20
-90.4143
11
212.306
21
-90.4169
0
LINE
8
BLACK
6
CONTINUOUS
10
212.306
20
-90.4169
11
212.303
21
-90.4198
0
LINE
8
BLACK
6
CONTINUOUS
10
212.303
20
-90.4198
11
212.3
21
-90.4215
0
LINE
8
BLACK
6
CONTINUOUS
10
212.3
20
-90.4215
11
212.298
21
-90.4234
0
LINE
8
BLACK
6
CONTINUOUS
10
212.298
20
-90.4234
11
212.294
21
-90.4254
0
LINE
8
BLACK
6
CONTINUOUS
10
212.294
20
-90.4254
11
212.29
21
-90.4276
0
LINE
8
BLACK
6
CONTINUOUS
10
212.29
20
-90.4276
11
212.195
21
-90.4752
0
LINE
8
BLACK
6
CONTINUOUS
10
212.195
20
-90.4752
11
212.194
21
-90.4757
0
LINE
8
BLACK
6
CONTINUOUS
10
212.194
20
-90.4757
11
212.192
21
-90.4765
0
LINE
8
BLACK
6
CONTINUOUS
10
212.192
20
-90.4765
11
212.19
21
-90.4775
0
LINE
8
BLACK
6
CONTINUOUS
10
212.19
20
-90.4775
11
212.185
21
-90.479
0
LINE
8
BLACK
6
CONTINUOUS
10
212.185
20
-90.479
11
212.18
21
-90.4808
0
LINE
8
BLACK
6
CONTINUOUS
10
212.18
20
-90.4808
11
212.178
21
-90.4811
0
LINE
8
BLACK
6
CONTINUOUS
10
212.178
20
-90.4811
11
212.176
21
-90.4817
0
LINE
8
BLACK
6
CONTINUOUS
10
212.176
20
-90.4817
11
212.171
21
-90.4822
0
LINE
8
BLACK
6
CONTINUOUS
10
212.171
20
-90.4822
11
212.166
21
-90.483
0
LINE
8
BLACK
6
CONTINUOUS
10
212.166
20
-90.483
11
212.164
21
-90.4829
0
LINE
8
BLACK
6
CONTINUOUS
10
212.164
20
-90.4829
11
212.162
21
-90.4832
0
LINE
8
BLACK
6
CONTINUOUS
10
212.162
20
-90.4832
11
212.066
21
-90.4832
0
LINE
8
BLACK
6
CONTINUOUS
10
212.066
20
-90.4832
11
212.065
21
-90.4832
0
LINE
8
BLACK
6
CONTINUOUS
10
212.065
20
-90.4832
11
212.061
21
-90.4827
0
LINE
8
BLACK
6
CONTINUOUS
10
212.061
20
-90.4827
11
212.057
21
-90.4826
0
LINE
8
BLACK
6
CONTINUOUS
10
212.057
20
-90.4826
11
212.054
21
-90.4819
0
LINE
8
BLACK
6
CONTINUOUS
10
212.054
20
-90.4819
11
212.051
21
-90.4815
0
LINE
8
BLACK
6
CONTINUOUS
10
212.051
20
-90.4815
11
212.047
21
-90.4803
0
LINE
8
BLACK
6
CONTINUOUS
10
212.047
20
-90.4803
11
212.043
21
-90.4793
0
LINE
8
BLACK
6
CONTINUOUS
10
212.043
20
-90.4793
11
211.9
21
-90.4317
0
LINE
8
BLACK
6
CONTINUOUS
10
211.9
20
-90.4317
11
211.899
21
-90.4314
0
LINE
8
BLACK
6
CONTINUOUS
10
211.899
20
-90.4314
11
211.897
21
-90.4304
0
LINE
8
BLACK
6
CONTINUOUS
10
211.897
20
-90.4304
11
211.895
21
-90.4298
0
LINE
8
BLACK
6
CONTINUOUS
10
211.895
20
-90.4298
11
211.89
21
-90.4274
0
LINE
8
BLACK
6
CONTINUOUS
10
211.89
20
-90.4274
11
211.885
21
-90.4252
0
LINE
8
BLACK
6
CONTINUOUS
10
211.885
20
-90.4252
11
211.884
21
-90.4239
0
LINE
8
BLACK
6
CONTINUOUS
10
211.884
20
-90.4239
11
211.882
21
-90.4229
0
LINE
8
BLACK
6
CONTINUOUS
10
211.882
20
-90.4229
11
211.878
21
-90.4196
0
LINE
8
BLACK
6
CONTINUOUS
10
211.878
20
-90.4196
11
211.874
21
-90.4166
0
LINE
8
BLACK
6
CONTINUOUS
10
211.874
20
-90.4166
11
211.872
21
-90.415
0
LINE
8
BLACK
6
CONTINUOUS
10
211.872
20
-90.415
11
211.87
21
-90.4136
0
LINE
8
BLACK
6
CONTINUOUS
10
211.87
20
-90.4136
11
211.427
21
-89.9702
0
LINE
8
BLACK
6
CONTINUOUS
10
211.427
20
-89.9702
11
211.427
21
-90.4082
0
LINE
8
BLACK
6
CONTINUOUS
10
211.427
20
-90.4082
11
211.427
21
-90.4092
0
LINE
8
BLACK
6
CONTINUOUS
10
211.427
20
-90.4092
11
211.425
21
-90.4238
0
LINE
8
BLACK
6
CONTINUOUS
10
211.425
20
-90.4238
11
211.421
21
-90.4377
0
LINE
8
BLACK
6
CONTINUOUS
10
211.421
20
-90.4377
11
211.414
21
-90.4505
0
LINE
8
BLACK
6
CONTINUOUS
10
211.414
20
-90.4505
11
211.405
21
-90.4617
0
LINE
8
BLACK
6
CONTINUOUS
10
211.405
20
-90.4617
11
211.393
21
-90.4709
0
LINE
8
BLACK
6
CONTINUOUS
10
211.393
20
-90.4709
11
211.38
21
-90.4777
0
LINE
8
BLACK
6
CONTINUOUS
10
211.38
20
-90.4777
11
211.366
21
-90.4818
0
LINE
8
BLACK
6
CONTINUOUS
10
211.366
20
-90.4818
11
211.352
21
-90.4832
0
LINE
8
BLACK
6
CONTINUOUS
10
211.352
20
-90.4832
11
211.337
21
-90.4816
0
LINE
8
BLACK
6
CONTINUOUS
10
211.337
20
-90.4816
11
211.323
21
-90.4773
0
LINE
8
BLACK
6
CONTINUOUS
10
211.323
20
-90.4773
11
211.31
21
-90.4703
0
LINE
8
BLACK
6
CONTINUOUS
10
211.31
20
-90.4703
11
211.299
21
-90.461
0
LINE
8
BLACK
6
CONTINUOUS
10
211.299
20
-90.461
11
211.29
21
-90.4497
0
LINE
8
BLACK
6
CONTINUOUS
10
211.29
20
-90.4497
11
211.283
21
-90.4367
0
LINE
8
BLACK
6
CONTINUOUS
10
211.283
20
-90.4367
11
211.278
21
-90.4227
0
LINE
8
BLACK
6
CONTINUOUS
10
211.278
20
-90.4227
11
211.277
21
-90.4082
0
LINE
8
BLACK
6
CONTINUOUS
10
211.277
20
-90.4082
11
211.277
21
-89.7891
0
LINE
8
BLACK
6
CONTINUOUS
10
211.277
20
-89.7891
11
211.277
21
-89.7883
0
LINE
8
BLACK
6
CONTINUOUS
10
211.277
20
-89.7883
11
211.277
21
-89.7883
0
LINE
8
BLACK
6
CONTINUOUS
10
211.277
20
-89.7883
11
211.277
21
-89.7883
0
LINE
8
BLACK
6
CONTINUOUS
10
211.277
20
-89.7883
11
211.277
21
-89.7881
0
LINE
8
BLACK
6
CONTINUOUS
10
211.277
20
-89.7881
11
211.278
21
-89.7809
0
LINE
8
BLACK
6
CONTINUOUS
10
211.278
20
-89.7809
11
211.279
21
-89.7738
0
LINE
8
BLACK
6
CONTINUOUS
10
211.279
20
-89.7738
11
211.279
21
-89.7737
0
LINE
8
BLACK
6
CONTINUOUS
10
211.279
20
-89.7737
11
211.279
21
-89.7735
0
LINE
8
BLACK
6
CONTINUOUS
10
211.279
20
-89.7735
11
211.281
21
-89.7667
0
LINE
8
BLACK
6
CONTINUOUS
10
211.281
20
-89.7667
11
211.283
21
-89.7598
0
LINE
8
BLACK
6
CONTINUOUS
10
211.283
20
-89.7598
11
211.283
21
-89.7597
0
LINE
8
BLACK
6
CONTINUOUS
10
211.283
20
-89.7597
11
211.283
21
-89.7596
0
LINE
8
BLACK
6
CONTINUOUS
10
211.283
20
-89.7596
11
211.287
21
-89.7533
0
LINE
8
BLACK
6
CONTINUOUS
10
211.287
20
-89.7533
11
211.29
21
-89.747
0
LINE
8
BLACK
6
CONTINUOUS
10
211.29
20
-89.747
11
211.29
21
-89.7469
0
LINE
8
BLACK
6
CONTINUOUS
10
211.29
20
-89.7469
11
211.29
21
-89.7467
0
LINE
8
BLACK
6
CONTINUOUS
10
211.29
20
-89.7467
11
211.295
21
-89.7412
0
LINE
8
BLACK
6
CONTINUOUS
10
211.295
20
-89.7412
11
211.299
21
-89.7357
0
LINE
8
BLACK
6
CONTINUOUS
10
211.299
20
-89.7357
11
211.299
21
-89.7356
0
LINE
8
BLACK
6
CONTINUOUS
10
211.299
20
-89.7356
11
211.3
21
-89.7355
0
LINE
8
BLACK
6
CONTINUOUS
10
211.3
20
-89.7355
11
211.305
21
-89.7311
0
LINE
8
BLACK
6
CONTINUOUS
10
211.305
20
-89.7311
11
211.311
21
-89.7265
0
LINE
8
BLACK
6
CONTINUOUS
10
211.311
20
-89.7265
11
211.311
21
-89.7264
0
LINE
8
BLACK
6
CONTINUOUS
10
211.311
20
-89.7264
11
211.311
21
-89.7264
0
LINE
8
BLACK
6
CONTINUOUS
10
211.311
20
-89.7264
11
211.317
21
-89.7231
0
LINE
8
BLACK
6
CONTINUOUS
10
211.317
20
-89.7231
11
211.324
21
-89.7197
0
LINE
8
BLACK
6
CONTINUOUS
10
211.324
20
-89.7197
11
211.324
21
-89.7196
0
LINE
8
BLACK
6
CONTINUOUS
10
211.324
20
-89.7196
11
211.324
21
-89.7196
0
LINE
8
BLACK
6
CONTINUOUS
10
211.324
20
-89.7196
11
211.331
21
-89.7176
0
LINE
8
BLACK
6
CONTINUOUS
10
211.331
20
-89.7176
11
211.338
21
-89.7155
0
LINE
8
BLACK
6
CONTINUOUS
10
211.338
20
-89.7155
11
211.338
21
-89.7155
0
LINE
8
BLACK
6
CONTINUOUS
10
211.338
20
-89.7155
11
211.338
21
-89.7154
0
LINE
8
BLACK
6
CONTINUOUS
10
211.338
20
-89.7154
11
211.345
21
-89.7148
0
LINE
8
BLACK
6
CONTINUOUS
10
211.345
20
-89.7148
11
211.352
21
-89.7141
0
LINE
8
BLACK
6
CONTINUOUS
10
211.352
20
-89.7141
11
211.352
21
-89.7141
0
LINE
8
BLACK
6
CONTINUOUS
10
212.353
20
-88.7617
11
212.368
21
-88.7634
0
LINE
8
BLACK
6
CONTINUOUS
10
212.368
20
-88.7634
11
212.382
21
-88.7678
0
LINE
8
BLACK
6
CONTINUOUS
10
212.382
20
-88.7678
11
212.394
21
-88.7749
0
LINE
8
BLACK
6
CONTINUOUS
10
212.394
20
-88.7749
11
212.406
21
-88.7843
0
LINE
8
BLACK
6
CONTINUOUS
10
212.406
20
-88.7843
11
212.415
21
-88.7957
0
LINE
8
BLACK
6
CONTINUOUS
10
212.415
20
-88.7957
11
212.422
21
-88.8086
0
LINE
8
BLACK
6
CONTINUOUS
10
212.422
20
-88.8086
11
212.426
21
-88.8227
0
LINE
8
BLACK
6
CONTINUOUS
10
212.426
20
-88.8227
11
212.427
21
-88.8373
0
LINE
8
BLACK
6
CONTINUOUS
10
212.427
20
-88.8373
11
212.426
21
-88.8518
0
LINE
8
BLACK
6
CONTINUOUS
10
212.426
20
-88.8518
11
212.421
21
-88.8658
0
LINE
8
BLACK
6
CONTINUOUS
10
212.421
20
-88.8658
11
212.414
21
-88.8787
0
LINE
8
BLACK
6
CONTINUOUS
10
212.414
20
-88.8787
11
212.405
21
-88.89
0
LINE
8
BLACK
6
CONTINUOUS
10
212.405
20
-88.89
11
212.394
21
-88.8992
0
LINE
8
BLACK
6
CONTINUOUS
10
212.394
20
-88.8992
11
212.381
21
-88.9061
0
LINE
8
BLACK
6
CONTINUOUS
10
212.381
20
-88.9061
11
212.367
21
-88.9103
0
LINE
8
BLACK
6
CONTINUOUS
10
212.367
20
-88.9103
11
212.352
21
-88.9117
0
LINE
8
BLACK
6
CONTINUOUS
10
212.352
20
-88.9117
11
211.56
21
-88.9117
0
LINE
8
BLACK
6
CONTINUOUS
10
211.56
20
-88.9117
11
211.492
21
-88.946
0
LINE
8
BLACK
6
CONTINUOUS
10
211.492
20
-88.946
11
211.461
21
-88.9764
0
LINE
8
BLACK
6
CONTINUOUS
10
211.461
20
-88.9764
11
211.427
21
-89.0449
0
LINE
8
BLACK
6
CONTINUOUS
10
211.427
20
-89.0449
11
211.427
21
-89.2
0
LINE
8
BLACK
6
CONTINUOUS
10
211.427
20
-89.2
11
211.461
21
-89.2685
0
LINE
8
BLACK
6
CONTINUOUS
10
211.461
20
-89.2685
11
211.492
21
-89.2989
0
LINE
8
BLACK
6
CONTINUOUS
10
211.492
20
-89.2989
11
211.56
21
-89.3332
0
LINE
8
BLACK
6
CONTINUOUS
10
211.56
20
-89.3332
11
212.352
21
-89.3332
0
LINE
8
BLACK
6
CONTINUOUS
10
212.352
20
-89.3332
11
212.353
21
-89.3332
0
LINE
8
BLACK
6
CONTINUOUS
10
212.353
20
-89.3332
11
212.368
21
-89.3348
0
LINE
8
BLACK
6
CONTINUOUS
10
212.368
20
-89.3348
11
212.382
21
-89.3392
0
LINE
8
BLACK
6
CONTINUOUS
10
212.382
20
-89.3392
11
212.394
21
-89.3463
0
LINE
8
BLACK
6
CONTINUOUS
10
212.394
20
-89.3463
11
212.406
21
-89.3557
0
LINE
8
BLACK
6
CONTINUOUS
10
212.406
20
-89.3557
11
212.415
21
-89.3671
0
LINE
8
BLACK
6
CONTINUOUS
10
212.415
20
-89.3671
11
212.422
21
-89.3801
0
LINE
8
BLACK
6
CONTINUOUS
10
212.422
20
-89.3801
11
212.426
21
-89.3941
0
LINE
8
BLACK
6
CONTINUOUS
10
212.426
20
-89.3941
11
212.427
21
-89.4087
0
LINE
8
BLACK
6
CONTINUOUS
10
212.427
20
-89.4087
11
212.426
21
-89.4232
0
LINE
8
BLACK
6
CONTINUOUS
10
212.426
20
-89.4232
11
212.421
21
-89.4372
0
LINE
8
BLACK
6
CONTINUOUS
10
212.421
20
-89.4372
11
212.414
21
-89.4501
0
LINE
8
BLACK
6
CONTINUOUS
10
212.414
20
-89.4501
11
212.405
21
-89.4614
0
LINE
8
BLACK
6
CONTINUOUS
10
212.405
20
-89.4614
11
212.394
21
-89.4706
0
LINE
8
BLACK
6
CONTINUOUS
10
212.394
20
-89.4706
11
212.381
21
-89.4775
0
LINE
8
BLACK
6
CONTINUOUS
10
212.381
20
-89.4775
11
212.367
21
-89.4817
0
LINE
8
BLACK
6
CONTINUOUS
10
212.367
20
-89.4817
11
212.352
21
-89.4832
0
LINE
8
BLACK
6
CONTINUOUS
10
212.352
20
-89.4832
11
211.543
21
-89.4832
0
LINE
8
BLACK
6
CONTINUOUS
10
211.543
20
-89.4832
11
211.541
21
-89.4832
0
LINE
8
BLACK
6
CONTINUOUS
10
211.541
20
-89.4832
11
211.539
21
-89.4829
0
LINE
8
BLACK
6
CONTINUOUS
10
211.539
20
-89.4829
11
211.537
21
-89.483
0
LINE
8
BLACK
6
CONTINUOUS
10
211.537
20
-89.483
11
211.532
21
-89.4821
0
LINE
8
BLACK
6
CONTINUOUS
10
211.532
20
-89.4821
11
211.527
21
-89.4815
0
LINE
8
BLACK
6
CONTINUOUS
10
211.527
20
-89.4815
11
211.525
21
-89.4809
0
LINE
8
BLACK
6
CONTINUOUS
10
211.525
20
-89.4809
11
211.523
21
-89.4805
0
LINE
8
BLACK
6
CONTINUOUS
10
211.523
20
-89.4805
11
211.518
21
-89.4786
0
LINE
8
BLACK
6
CONTINUOUS
10
211.518
20
-89.4786
11
211.513
21
-89.4771
0
LINE
8
BLACK
6
CONTINUOUS
10
211.513
20
-89.4771
11
211.511
21
-89.476
0
LINE
8
BLACK
6
CONTINUOUS
10
211.511
20
-89.476
11
211.509
21
-89.4752
0
LINE
8
BLACK
6
CONTINUOUS
10
211.509
20
-89.4752
11
211.414
21
-89.4276
0
LINE
8
BLACK
6
CONTINUOUS
10
211.414
20
-89.4276
11
211.413
21
-89.4272
0
LINE
8
BLACK
6
CONTINUOUS
10
211.413
20
-89.4272
11
211.409
21
-89.4249
0
LINE
8
BLACK
6
CONTINUOUS
10
211.409
20
-89.4249
11
211.406
21
-89.4229
0
LINE
8
BLACK
6
CONTINUOUS
10
211.406
20
-89.4229
11
211.403
21
-89.4209
0
LINE
8
BLACK
6
CONTINUOUS
10
211.403
20
-89.4209
11
211.401
21
-89.4192
0
LINE
8
BLACK
6
CONTINUOUS
10
211.401
20
-89.4192
11
211.397
21
-89.4163
0
LINE
8
BLACK
6
CONTINUOUS
10
211.397
20
-89.4163
11
211.394
21
-89.4136
0
LINE
8
BLACK
6
CONTINUOUS
10
211.394
20
-89.4136
11
211.347
21
-89.366
0
LINE
8
BLACK
6
CONTINUOUS
10
211.347
20
-89.366
11
211.346
21
-89.3652
0
LINE
8
BLACK
6
CONTINUOUS
10
211.346
20
-89.3652
11
211.343
21
-89.3619
0
LINE
8
BLACK
6
CONTINUOUS
10
211.343
20
-89.3619
11
211.34
21
-89.3589
0
LINE
8
BLACK
6
CONTINUOUS
10
211.34
20
-89.3589
11
211.339
21
-89.3562
0
LINE
8
BLACK
6
CONTINUOUS
10
211.339
20
-89.3562
11
211.337
21
-89.3538
0
LINE
8
BLACK
6
CONTINUOUS
10
211.337
20
-89.3538
11
211.335
21
-89.35
0
LINE
8
BLACK
6
CONTINUOUS
10
211.335
20
-89.35
11
211.333
21
-89.3465
0
LINE
8
BLACK
6
CONTINUOUS
10
211.333
20
-89.3465
11
211.285
21
-89.2512
0
LINE
8
BLACK
6
CONTINUOUS
10
211.285
20
-89.2512
11
211.284
21
-89.2503
0
LINE
8
BLACK
6
CONTINUOUS
10
211.284
20
-89.2503
11
211.284
21
-89.2482
0
LINE
8
BLACK
6
CONTINUOUS
10
211.284
20
-89.2482
11
211.283
21
-89.2463
0
LINE
8
BLACK
6
CONTINUOUS
10
211.283
20
-89.2463
11
211.281
21
-89.2414
0
LINE
8
BLACK
6
CONTINUOUS
10
211.281
20
-89.2414
11
211.279
21
-89.2365
0
LINE
8
BLACK
6
CONTINUOUS
10
211.279
20
-89.2365
11
211.279
21
-89.2344
0
LINE
8
BLACK
6
CONTINUOUS
10
211.279
20
-89.2344
11
211.278
21
-89.2323
0
LINE
8
BLACK
6
CONTINUOUS
10
211.278
20
-89.2323
11
211.278
21
-89.2271
0
LINE
8
BLACK
6
CONTINUOUS
10
211.278
20
-89.2271
11
211.277
21
-89.2221
0
LINE
8
BLACK
6
CONTINUOUS
10
211.277
20
-89.2221
11
211.277
21
-89.2199
0
LINE
8
BLACK
6
CONTINUOUS
10
211.277
20
-89.2199
11
211.277
21
-89.2177
0
LINE
8
BLACK
6
CONTINUOUS
10
211.277
20
-89.2177
11
211.277
21
-89.0272
0
LINE
8
BLACK
6
CONTINUOUS
10
211.277
20
-89.0272
11
211.277
21
-89.0262
0
LINE
8
BLACK
6
CONTINUOUS
10
211.277
20
-89.0262
11
211.277
21
-89.024
0
LINE
8
BLACK
6
CONTINUOUS
10
211.277
20
-89.024
11
211.277
21
-89.0218
0
LINE
8
BLACK
6
CONTINUOUS
10
211.277
20
-89.0218
11
211.278
21
-89.0167
0
LINE
8
BLACK
6
CONTINUOUS
10
211.278
20
-89.0167
11
211.279
21
-89.0116
0
LINE
8
BLACK
6
CONTINUOUS
10
211.279
20
-89.0116
11
211.279
21
-89.0095
0
LINE
8
BLACK
6
CONTINUOUS
10
211.279
20
-89.0095
11
211.28
21
-89.0073
0
LINE
8
BLACK
6
CONTINUOUS
10
211.28
20
-89.0073
11
211.282
21
-89.0025
0
LINE
8
BLACK
6
CONTINUOUS
10
211.282
20
-89.0025
11
211.283
21
-88.9977
0
LINE
8
BLACK
6
CONTINUOUS
10
211.283
20
-88.9977
11
211.284
21
-88.9957
0
LINE
8
BLACK
6
CONTINUOUS
10
211.284
20
-88.9957
11
211.285
21
-88.9937
0
LINE
8
BLACK
6
CONTINUOUS
10
211.285
20
-88.9937
11
211.333
21
-88.8984
0
LINE
8
BLACK
6
CONTINUOUS
10
211.333
20
-88.8984
11
211.333
21
-88.8975
0
LINE
8
BLACK
6
CONTINUOUS
10
211.333
20
-88.8975
11
211.335
21
-88.894
0
LINE
8
BLACK
6
CONTINUOUS
10
211.335
20
-88.894
11
211.337
21
-88.8903
0
LINE
8
BLACK
6
CONTINUOUS
10
211.337
20
-88.8903
11
211.339
21
-88.8878
0
LINE
8
BLACK
6
CONTINUOUS
10
211.339
20
-88.8878
11
211.341
21
-88.8852
0
LINE
8
BLACK
6
CONTINUOUS
10
211.341
20
-88.8852
11
211.344
21
-88.8822
0
LINE
8
BLACK
6
CONTINUOUS
10
211.344
20
-88.8822
11
211.347
21
-88.8789
0
LINE
8
BLACK
6
CONTINUOUS
10
211.347
20
-88.8789
11
211.394
21
-88.8313
0
LINE
8
BLACK
6
CONTINUOUS
10
211.394
20
-88.8313
11
211.395
21
-88.8306
0
LINE
8
BLACK
6
CONTINUOUS
10
211.395
20
-88.8306
11
211.398
21
-88.828
0
LINE
8
BLACK
6
CONTINUOUS
10
211.398
20
-88.828
11
211.401
21
-88.8251
0
LINE
8
BLACK
6
CONTINUOUS
10
211.401
20
-88.8251
11
211.404
21
-88.8234
0
LINE
8
BLACK
6
CONTINUOUS
10
211.404
20
-88.8234
11
211.406
21
-88.8215
0
LINE
8
BLACK
6
CONTINUOUS
10
211.406
20
-88.8215
11
211.41
21
-88.8195
0
LINE
8
BLACK
6
CONTINUOUS
10
211.41
20
-88.8195
11
211.414
21
-88.8173
0
LINE
8
BLACK
6
CONTINUOUS
10
211.414
20
-88.8173
11
211.509
21
-88.7697
0
LINE
8
BLACK
6
CONTINUOUS
10
211.509
20
-88.7697
11
211.51
21
-88.7692
0
LINE
8
BLACK
6
CONTINUOUS
10
211.51
20
-88.7692
11
211.512
21
-88.7684
0
LINE
8
BLACK
6
CONTINUOUS
10
211.512
20
-88.7684
11
211.514
21
-88.7674
0
LINE
8
BLACK
6
CONTINUOUS
10
211.514
20
-88.7674
11
211.519
21
-88.7659
0
LINE
8
BLACK
6
CONTINUOUS
10
211.519
20
-88.7659
11
211.524
21
-88.7641
0
LINE
8
BLACK
6
CONTINUOUS
10
211.524
20
-88.7641
11
211.526
21
-88.7638
0
LINE
8
BLACK
6
CONTINUOUS
10
211.526
20
-88.7638
11
211.528
21
-88.7632
0
LINE
8
BLACK
6
CONTINUOUS
10
211.528
20
-88.7632
11
211.533
21
-88.7627
0
LINE
8
BLACK
6
CONTINUOUS
10
211.533
20
-88.7627
11
211.538
21
-88.7619
0
LINE
8
BLACK
6
CONTINUOUS
10
211.538
20
-88.7619
11
211.54
21
-88.7619
0
LINE
8
BLACK
6
CONTINUOUS
10
211.54
20
-88.7619
11
211.543
21
-88.7617
0
LINE
8
BLACK
6
CONTINUOUS
10
211.543
20
-88.7617
11
212.352
21
-88.7617
0
LINE
8
BLACK
6
CONTINUOUS
10
212.352
20
-88.7617
11
212.353
21
-88.7617
0
LINE
8
BLACK
6
CONTINUOUS
10
197.394
20
-66.5756
11
197.409
21
-66.577
0
LINE
8
BLACK
6
CONTINUOUS
10
197.409
20
-66.577
11
197.427
21
-66.5828
0
LINE
8
BLACK
6
CONTINUOUS
10
197.427
20
-66.5828
11
197.445
21
-66.5921
0
LINE
8
BLACK
6
CONTINUOUS
10
197.445
20
-66.5921
11
197.46
21
-66.6045
0
LINE
8
BLACK
6
CONTINUOUS
10
197.46
20
-66.6045
11
197.473
21
-66.6198
0
LINE
8
BLACK
6
CONTINUOUS
10
197.473
20
-66.6198
11
197.482
21
-66.6371
0
LINE
8
BLACK
6
CONTINUOUS
10
197.482
20
-66.6371
11
197.488
21
-66.656
0
LINE
8
BLACK
6
CONTINUOUS
10
197.488
20
-66.656
11
197.489
21
-66.6756
0
LINE
8
BLACK
6
CONTINUOUS
10
197.489
20
-66.6756
11
197.489
21
-66.6805
0
LINE
8
BLACK
6
CONTINUOUS
10
197.489
20
-66.6805
11
197.489
21
-80.6699
0
LINE
8
BLACK
6
CONTINUOUS
10
197.489
20
-80.6699
11
197.489
21
-80.6748
0
LINE
8
BLACK
6
CONTINUOUS
10
197.489
20
-80.6748
11
197.488
21
-80.6944
0
LINE
8
BLACK
6
CONTINUOUS
10
197.488
20
-80.6944
11
197.482
21
-80.7133
0
LINE
8
BLACK
6
CONTINUOUS
10
197.482
20
-80.7133
11
197.473
21
-80.7306
0
LINE
8
BLACK
6
CONTINUOUS
10
197.473
20
-80.7306
11
197.46
21
-80.7459
0
LINE
8
BLACK
6
CONTINUOUS
10
197.46
20
-80.7459
11
197.445
21
-80.7583
0
LINE
8
BLACK
6
CONTINUOUS
10
197.445
20
-80.7583
11
197.427
21
-80.7676
0
LINE
8
BLACK
6
CONTINUOUS
10
197.427
20
-80.7676
11
197.409
21
-80.7734
0
LINE
8
BLACK
6
CONTINUOUS
10
197.409
20
-80.7734
11
197.394
21
-80.7748
0
LINE
8
BLACK
6
CONTINUOUS
10
197.394
20
-80.7748
11
197.389
21
-80.7753
0
LINE
8
BLACK
6
CONTINUOUS
10
197.389
20
-80.7753
11
197.384
21
-80.7748
0
LINE
8
BLACK
6
CONTINUOUS
10
197.384
20
-80.7748
11
183.395
21
-80.7748
0
LINE
8
BLACK
6
CONTINUOUS
10
183.395
20
-80.7748
11
183.39
21
-80.7753
0
LINE
8
BLACK
6
CONTINUOUS
10
183.39
20
-80.7753
11
183.37
21
-80.7734
0
LINE
8
BLACK
6
CONTINUOUS
10
183.37
20
-80.7734
11
183.352
21
-80.7676
0
LINE
8
BLACK
6
CONTINUOUS
10
183.352
20
-80.7676
11
183.334
21
-80.7583
0
LINE
8
BLACK
6
CONTINUOUS
10
183.334
20
-80.7583
11
183.319
21
-80.7459
0
LINE
8
BLACK
6
CONTINUOUS
10
183.319
20
-80.7459
11
183.306
21
-80.7306
0
LINE
8
BLACK
6
CONTINUOUS
10
183.306
20
-80.7306
11
183.297
21
-80.7133
0
LINE
8
BLACK
6
CONTINUOUS
10
183.297
20
-80.7133
11
183.291
21
-80.6944
0
LINE
8
BLACK
6
CONTINUOUS
10
183.291
20
-80.6944
11
183.29
21
-80.6748
0
LINE
8
BLACK
6
CONTINUOUS
10
183.29
20
-80.6748
11
183.29
21
-80.6699
0
LINE
8
BLACK
6
CONTINUOUS
10
183.29
20
-80.6699
11
183.29
21
-66.6805
0
LINE
8
BLACK
6
CONTINUOUS
10
183.29
20
-66.6805
11
183.29
21
-66.6756
0
LINE
8
BLACK
6
CONTINUOUS
10
183.29
20
-66.6756
11
183.291
21
-66.656
0
LINE
8
BLACK
6
CONTINUOUS
10
183.291
20
-66.656
11
183.297
21
-66.6371
0
LINE
8
BLACK
6
CONTINUOUS
10
183.297
20
-66.6371
11
183.306
21
-66.6198
0
LINE
8
BLACK
6
CONTINUOUS
10
183.306
20
-66.6198
11
183.319
21
-66.6045
0
LINE
8
BLACK
6
CONTINUOUS
10
183.319
20
-66.6045
11
183.334
21
-66.5921
0
LINE
8
BLACK
6
CONTINUOUS
10
183.334
20
-66.5921
11
183.352
21
-66.5828
0
LINE
8
BLACK
6
CONTINUOUS
10
183.352
20
-66.5828
11
183.37
21
-66.577
0
LINE
8
BLACK
6
CONTINUOUS
10
183.37
20
-66.577
11
183.385
21
-66.5756
0
LINE
8
BLACK
6
CONTINUOUS
10
183.385
20
-66.5756
11
183.39
21
-66.5751
0
LINE
8
BLACK
6
CONTINUOUS
10
183.39
20
-66.5751
11
183.395
21
-66.5756
0
LINE
8
BLACK
6
CONTINUOUS
10
183.395
20
-66.5756
11
197.384
21
-66.5756
0
LINE
8
BLACK
6
CONTINUOUS
10
197.384
20
-66.5756
11
197.389
21
-66.5751
0
LINE
8
BLACK
6
CONTINUOUS
10
197.389
20
-66.5751
11
197.394
21
-66.5756
0
LINE
8
BLACK
6
CONTINUOUS
10
183.49
20
-66.7756
11
183.49
21
-80.5748
0
LINE
8
BLACK
6
CONTINUOUS
10
183.49
20
-80.5748
11
197.289
21
-80.5748
0
LINE
8
BLACK
6
CONTINUOUS
10
197.289
20
-80.5748
11
197.289
21
-66.7756
0
LINE
8
BLACK
6
CONTINUOUS
10
197.289
20
-66.7756
11
183.49
21
-66.7756
0
LINE
8
BLACK
6
CONTINUOUS
10
102.144
20
-61.8131
11
102.159
21
-61.8145
0
LINE
8
BLACK
6
CONTINUOUS
10
102.159
20
-61.8145
11
102.177
21
-61.8203
0
LINE
8
BLACK
6
CONTINUOUS
10
102.177
20
-61.8203
11
102.195
21
-61.8296
0
LINE
8
BLACK
6
CONTINUOUS
10
102.195
20
-61.8296
11
102.21
21
-61.842
0
LINE
8
BLACK
6
CONTINUOUS
10
102.21
20
-61.842
11
102.223
21
-61.8573
0
LINE
8
BLACK
6
CONTINUOUS
10
102.223
20
-61.8573
11
102.232
21
-61.8746
0
LINE
8
BLACK
6
CONTINUOUS
10
102.232
20
-61.8746
11
102.238
21
-61.8935
0
LINE
8
BLACK
6
CONTINUOUS
10
102.238
20
-61.8935
11
102.239
21
-61.9131
0
LINE
8
BLACK
6
CONTINUOUS
10
102.239
20
-61.9131
11
102.239
21
-61.918
0
LINE
8
BLACK
6
CONTINUOUS
10
102.239
20
-61.918
11
102.239
21
-75.9074
0
LINE
8
BLACK
6
CONTINUOUS
10
102.239
20
-75.9074
11
102.239
21
-75.9123
0
LINE
8
BLACK
6
CONTINUOUS
10
102.239
20
-75.9123
11
102.238
21
-75.9319
0
LINE
8
BLACK
6
CONTINUOUS
10
102.238
20
-75.9319
11
102.232
21
-75.9508
0
LINE
8
BLACK
6
CONTINUOUS
10
102.232
20
-75.9508
11
102.223
21
-75.9681
0
LINE
8
BLACK
6
CONTINUOUS
10
102.223
20
-75.9681
11
102.21
21
-75.9834
0
LINE
8
BLACK
6
CONTINUOUS
10
102.21
20
-75.9834
11
102.195
21
-75.9958
0
LINE
8
BLACK
6
CONTINUOUS
10
102.195
20
-75.9958
11
102.177
21
-76.0051
0
LINE
8
BLACK
6
CONTINUOUS
10
102.177
20
-76.0051
11
102.159
21
-76.0109
0
LINE
8
BLACK
6
CONTINUOUS
10
102.159
20
-76.0109
11
102.144
21
-76.0123
0
LINE
8
BLACK
6
CONTINUOUS
10
102.144
20
-76.0123
11
102.139
21
-76.0128
0
LINE
8
BLACK
6
CONTINUOUS
10
102.139
20
-76.0128
11
102.134
21
-76.0123
0
LINE
8
BLACK
6
CONTINUOUS
10
102.134
20
-76.0123
11
88.1446
21
-76.0123
0
LINE
8
BLACK
6
CONTINUOUS
10
88.1446
20
-76.0123
11
88.1397
21
-76.0128
0
LINE
8
BLACK
6
CONTINUOUS
10
88.1397
20
-76.0128
11
88.1201
21
-76.0109
0
LINE
8
BLACK
6
CONTINUOUS
10
88.1201
20
-76.0109
11
88.1012
21
-76.0051
0
LINE
8
BLACK
6
CONTINUOUS
10
88.1012
20
-76.0051
11
88.0839
21
-75.9958
0
LINE
8
BLACK
6
CONTINUOUS
10
88.0839
20
-75.9958
11
88.0686
21
-75.9834
0
LINE
8
BLACK
6
CONTINUOUS
10
88.0686
20
-75.9834
11
88.0562
21
-75.9681
0
LINE
8
BLACK
6
CONTINUOUS
10
88.0562
20
-75.9681
11
88.0469
21
-75.9508
0
LINE
8
BLACK
6
CONTINUOUS
10
88.0469
20
-75.9508
11
88.0411
21
-75.9319
0
LINE
8
BLACK
6
CONTINUOUS
10
88.0411
20
-75.9319
11
88.0392
21
-75.9123
0
LINE
8
BLACK
6
CONTINUOUS
10
88.0392
20
-75.9123
11
88.0397
21
-75.9074
0
LINE
8
BLACK
6
CONTINUOUS
10
88.0397
20
-75.9074
11
88.0397
21
-61.918
0
LINE
8
BLACK
6
CONTINUOUS
10
88.0397
20
-61.918
11
88.0392
21
-61.9131
0
LINE
8
BLACK
6
CONTINUOUS
10
88.0392
20
-61.9131
11
88.0411
21
-61.8935
0
LINE
8
BLACK
6
CONTINUOUS
10
88.0411
20
-61.8935
11
88.0469
21
-61.8746
0
LINE
8
BLACK
6
CONTINUOUS
10
88.0469
20
-61.8746
11
88.0562
21
-61.8573
0
LINE
8
BLACK
6
CONTINUOUS
10
88.0562
20
-61.8573
11
88.0686
21
-61.842
0
LINE
8
BLACK
6
CONTINUOUS
10
88.0686
20
-61.842
11
88.0839
21
-61.8296
0
LINE
8
BLACK
6
CONTINUOUS
10
88.0839
20
-61.8296
11
88.1012
21
-61.8203
0
LINE
8
BLACK
6
CONTINUOUS
10
88.1012
20
-61.8203
11
88.1201
21
-61.8145
0
LINE
8
BLACK
6
CONTINUOUS
10
88.1201
20
-61.8145
11
88.1348
21
-61.8131
0
LINE
8
BLACK
6
CONTINUOUS
10
88.1348
20
-61.8131
11
88.1397
21
-61.8126
0
LINE
8
BLACK
6
CONTINUOUS
10
88.1397
20
-61.8126
11
88.1446
21
-61.8131
0
LINE
8
BLACK
6
CONTINUOUS
10
88.1446
20
-61.8131
11
102.134
21
-61.8131
0
LINE
8
BLACK
6
CONTINUOUS
10
102.134
20
-61.8131
11
102.139
21
-61.8126
0
LINE
8
BLACK
6
CONTINUOUS
10
102.139
20
-61.8126
11
102.144
21
-61.8131
0
LINE
8
BLACK
6
CONTINUOUS
10
88.2397
20
-62.0131
11
88.2397
21
-75.8123
0
LINE
8
BLACK
6
CONTINUOUS
10
88.2397
20
-75.8123
11
102.039
21
-75.8123
0
LINE
8
BLACK
6
CONTINUOUS
10
102.039
20
-75.8123
11
102.039
21
-62.0131
0
LINE
8
BLACK
6
CONTINUOUS
10
102.039
20
-62.0131
11
88.2397
21
-62.0131
0
LINE
8
BLACK
6
CONTINUOUS
10
178.344
20
-61.8131
11
178.359
21
-61.8145
0
LINE
8
BLACK
6
CONTINUOUS
10
178.359
20
-61.8145
11
178.377
21
-61.8203
0
LINE
8
BLACK
6
CONTINUOUS
10
178.377
20
-61.8203
11
178.395
21
-61.8296
0
LINE
8
BLACK
6
CONTINUOUS
10
178.395
20
-61.8296
11
178.41
21
-61.842
0
LINE
8
BLACK
6
CONTINUOUS
10
178.41
20
-61.842
11
178.423
21
-61.8573
0
LINE
8
BLACK
6
CONTINUOUS
10
178.423
20
-61.8573
11
178.432
21
-61.8746
0
LINE
8
BLACK
6
CONTINUOUS
10
178.432
20
-61.8746
11
178.438
21
-61.8935
0
LINE
8
BLACK
6
CONTINUOUS
10
178.438
20
-61.8935
11
178.439
21
-61.9131
0
LINE
8
BLACK
6
CONTINUOUS
10
178.439
20
-61.9131
11
178.439
21
-61.918
0
LINE
8
BLACK
6
CONTINUOUS
10
178.439
20
-61.918
11
178.439
21
-75.9074
0
LINE
8
BLACK
6
CONTINUOUS
10
178.439
20
-75.9074
11
178.439
21
-75.9123
0
LINE
8
BLACK
6
CONTINUOUS
10
178.439
20
-75.9123
11
178.438
21
-75.9319
0
LINE
8
BLACK
6
CONTINUOUS
10
178.438
20
-75.9319
11
178.432
21
-75.9508
0
LINE
8
BLACK
6
CONTINUOUS
10
178.432
20
-75.9508
11
178.423
21
-75.9681
0
LINE
8
BLACK
6
CONTINUOUS
10
178.423
20
-75.9681
11
178.41
21
-75.9834
0
LINE
8
BLACK
6
CONTINUOUS
10
178.41
20
-75.9834
11
178.395
21
-75.9958
0
LINE
8
BLACK
6
CONTINUOUS
10
178.395
20
-75.9958
11
178.377
21
-76.0051
0
LINE
8
BLACK
6
CONTINUOUS
10
178.377
20
-76.0051
11
178.359
21
-76.0109
0
LINE
8
BLACK
6
CONTINUOUS
10
178.359
20
-76.0109
11
178.344
21
-76.0123
0
LINE
8
BLACK
6
CONTINUOUS
10
178.344
20
-76.0123
11
178.339
21
-76.0128
0
LINE
8
BLACK
6
CONTINUOUS
10
178.339
20
-76.0128
11
178.334
21
-76.0123
0
LINE
8
BLACK
6
CONTINUOUS
10
178.334
20
-76.0123
11
164.345
21
-76.0123
0
LINE
8
BLACK
6
CONTINUOUS
10
164.345
20
-76.0123
11
164.34
21
-76.0128
0
LINE
8
BLACK
6
CONTINUOUS
10
164.34
20
-76.0128
11
164.32
21
-76.0109
0
LINE
8
BLACK
6
CONTINUOUS
10
164.32
20
-76.0109
11
164.302
21
-76.0051
0
LINE
8
BLACK
6
CONTINUOUS
10
164.302
20
-76.0051
11
164.284
21
-75.9958
0
LINE
8
BLACK
6
CONTINUOUS
10
164.284
20
-75.9958
11
164.269
21
-75.9834
0
LINE
8
BLACK
6
CONTINUOUS
10
164.269
20
-75.9834
11
164.256
21
-75.9681
0
LINE
8
BLACK
6
CONTINUOUS
10
164.256
20
-75.9681
11
164.247
21
-75.9508
0
LINE
8
BLACK
6
CONTINUOUS
10
164.247
20
-75.9508
11
164.241
21
-75.9319
0
LINE
8
BLACK
6
CONTINUOUS
10
164.241
20
-75.9319
11
164.24
21
-75.9123
0
LINE
8
BLACK
6
CONTINUOUS
10
164.24
20
-75.9123
11
164.24
21
-75.9074
0
LINE
8
BLACK
6
CONTINUOUS
10
164.24
20
-75.9074
11
164.24
21
-61.918
0
LINE
8
BLACK
6
CONTINUOUS
10
164.24
20
-61.918
11
164.24
21
-61.9131
0
LINE
8
BLACK
6
CONTINUOUS
10
164.24
20
-61.9131
11
164.241
21
-61.8935
0
LINE
8
BLACK
6
CONTINUOUS
10
164.241
20
-61.8935
11
164.247
21
-61.8746
0
LINE
8
BLACK
6
CONTINUOUS
10
164.247
20
-61.8746
11
164.256
21
-61.8573
0
LINE
8
BLACK
6
CONTINUOUS
10
164.256
20
-61.8573
11
164.269
21
-61.842
0
LINE
8
BLACK
6
CONTINUOUS
10
164.269
20
-61.842
11
164.284
21
-61.8296
0
LINE
8
BLACK
6
CONTINUOUS
10
164.284
20
-61.8296
11
164.302
21
-61.8203
0
LINE
8
BLACK
6
CONTINUOUS
10
164.302
20
-61.8203
11
164.32
21
-61.8145
0
LINE
8
BLACK
6
CONTINUOUS
10
164.32
20
-61.8145
11
164.335
21
-61.8131
0
LINE
8
BLACK
6
CONTINUOUS
10
164.335
20
-61.8131
11
164.34
21
-61.8126
0
LINE
8
BLACK
6
CONTINUOUS
10
164.34
20
-61.8126
11
164.345
21
-61.8131
0
LINE
8
BLACK
6
CONTINUOUS
10
164.345
20
-61.8131
11
178.334
21
-61.8131
0
LINE
8
BLACK
6
CONTINUOUS
10
178.334
20
-61.8131
11
178.339
21
-61.8126
0
LINE
8
BLACK
6
CONTINUOUS
10
178.339
20
-61.8126
11
178.344
21
-61.8131
0
LINE
8
BLACK
6
CONTINUOUS
10
164.44
20
-62.0131
11
164.44
21
-75.8123
0
LINE
8
BLACK
6
CONTINUOUS
10
164.44
20
-75.8123
11
178.239
21
-75.8123
0
LINE
8
BLACK
6
CONTINUOUS
10
178.239
20
-75.8123
11
178.239
21
-62.0131
0
LINE
8
BLACK
6
CONTINUOUS
10
178.239
20
-62.0131
11
164.44
21
-62.0131
0
LINE
8
BLACK
6
CONTINUOUS
10
83.0939
20
-61.8131
11
83.1086
21
-61.8145
0
LINE
8
BLACK
6
CONTINUOUS
10
83.1086
20
-61.8145
11
83.1275
21
-61.8203
0
LINE
8
BLACK
6
CONTINUOUS
10
83.1275
20
-61.8203
11
83.1448
21
-61.8296
0
LINE
8
BLACK
6
CONTINUOUS
10
83.1448
20
-61.8296
11
83.1601
21
-61.842
0
LINE
8
BLACK
6
CONTINUOUS
10
83.1601
20
-61.842
11
83.1725
21
-61.8573
0
LINE
8
BLACK
6
CONTINUOUS
10
83.1725
20
-61.8573
11
83.1818
21
-61.8746
0
LINE
8
BLACK
6
CONTINUOUS
10
83.1818
20
-61.8746
11
83.1876
21
-61.8935
0
LINE
8
BLACK
6
CONTINUOUS
10
83.1876
20
-61.8935
11
83.1895
21
-61.9131
0
LINE
8
BLACK
6
CONTINUOUS
10
83.1895
20
-61.9131
11
83.189
21
-61.918
0
LINE
8
BLACK
6
CONTINUOUS
10
83.189
20
-61.918
11
83.189
21
-75.9074
0
LINE
8
BLACK
6
CONTINUOUS
10
83.189
20
-75.9074
11
83.1895
21
-75.9123
0
LINE
8
BLACK
6
CONTINUOUS
10
83.1895
20
-75.9123
11
83.1876
21
-75.9319
0
LINE
8
BLACK
6
CONTINUOUS
10
83.1876
20
-75.9319
11
83.1818
21
-75.9508
0
LINE
8
BLACK
6
CONTINUOUS
10
83.1818
20
-75.9508
11
83.1725
21
-75.9681
0
LINE
8
BLACK
6
CONTINUOUS
10
83.1725
20
-75.9681
11
83.1601
21
-75.9834
0
LINE
8
BLACK
6
CONTINUOUS
10
83.1601
20
-75.9834
11
83.1448
21
-75.9958
0
LINE
8
BLACK
6
CONTINUOUS
10
83.1448
20
-75.9958
11
83.1275
21
-76.0051
0
LINE
8
BLACK
6
CONTINUOUS
10
83.1275
20
-76.0051
11
83.1086
21
-76.0109
0
LINE
8
BLACK
6
CONTINUOUS
10
83.1086
20
-76.0109
11
83.0939
21
-76.0123
0
LINE
8
BLACK
6
CONTINUOUS
10
83.0939
20
-76.0123
11
83.089
21
-76.0128
0
LINE
8
BLACK
6
CONTINUOUS
10
83.089
20
-76.0128
11
83.0841
21
-76.0123
0
LINE
8
BLACK
6
CONTINUOUS
10
83.0841
20
-76.0123
11
69.0946
21
-76.0123
0
LINE
8
BLACK
6
CONTINUOUS
10
69.0946
20
-76.0123
11
69.0897
21
-76.0128
0
LINE
8
BLACK
6
CONTINUOUS
10
69.0897
20
-76.0128
11
69.0701
21
-76.0109
0
LINE
8
BLACK
6
CONTINUOUS
10
69.0701
20
-76.0109
11
69.0512
21
-76.0051
0
LINE
8
BLACK
6
CONTINUOUS
10
69.0512
20
-76.0051
11
69.0339
21
-75.9958
0
LINE
8
BLACK
6
CONTINUOUS
10
69.0339
20
-75.9958
11
69.0186
21
-75.9834
0
LINE
8
BLACK
6
CONTINUOUS
10
69.0186
20
-75.9834
11
69.0062
21
-75.9681
0
LINE
8
BLACK
6
CONTINUOUS
10
69.0062
20
-75.9681
11
68.9969
21
-75.9508
0
LINE
8
BLACK
6
CONTINUOUS
10
68.9969
20
-75.9508
11
68.9911
21
-75.9319
0
LINE
8
BLACK
6
CONTINUOUS
10
68.9911
20
-75.9319
11
68.9892
21
-75.9123
0
LINE
8
BLACK
6
CONTINUOUS
10
68.9892
20
-75.9123
11
68.9897
21
-75.9074
0
LINE
8
BLACK
6
CONTINUOUS
10
68.9897
20
-75.9074
11
68.9897
21
-61.918
0
LINE
8
BLACK
6
CONTINUOUS
10
68.9897
20
-61.918
11
68.9892
21
-61.9131
0
LINE
8
BLACK
6
CONTINUOUS
10
68.9892
20
-61.9131
11
68.9911
21
-61.8935
0
LINE
8
BLACK
6
CONTINUOUS
10
68.9911
20
-61.8935
11
68.9969
21
-61.8746
0
LINE
8
BLACK
6
CONTINUOUS
10
68.9969
20
-61.8746
11
69.0062
21
-61.8573
0
LINE
8
BLACK
6
CONTINUOUS
10
69.0062
20
-61.8573
11
69.0186
21
-61.842
0
LINE
8
BLACK
6
CONTINUOUS
10
69.0186
20
-61.842
11
69.0339
21
-61.8296
0
LINE
8
BLACK
6
CONTINUOUS
10
69.0339
20
-61.8296
11
69.0512
21
-61.8203
0
LINE
8
BLACK
6
CONTINUOUS
10
69.0512
20
-61.8203
11
69.0701
21
-61.8145
0
LINE
8
BLACK
6
CONTINUOUS
10
69.0701
20
-61.8145
11
69.0848
21
-61.8131
0
LINE
8
BLACK
6
CONTINUOUS
10
69.0848
20
-61.8131
11
69.0897
21
-61.8126
0
LINE
8
BLACK
6
CONTINUOUS
10
69.0897
20
-61.8126
11
69.0946
21
-61.8131
0
LINE
8
BLACK
6
CONTINUOUS
10
69.0946
20
-61.8131
11
83.0841
21
-61.8131
0
LINE
8
BLACK
6
CONTINUOUS
10
83.0841
20
-61.8131
11
83.089
21
-61.8126
0
LINE
8
BLACK
6
CONTINUOUS
10
83.089
20
-61.8126
11
83.0939
21
-61.8131
0
LINE
8
BLACK
6
CONTINUOUS
10
69.1897
20
-62.0131
11
69.1897
21
-75.8123
0
LINE
8
BLACK
6
CONTINUOUS
10
69.1897
20
-75.8123
11
82.989
21
-75.8123
0
LINE
8
BLACK
6
CONTINUOUS
10
82.989
20
-75.8123
11
82.989
21
-62.0131
0
LINE
8
BLACK
6
CONTINUOUS
10
82.989
20
-62.0131
11
69.1897
21
-62.0131
0
LINE
8
BLACK
6
CONTINUOUS
10
159.294
20
-61.8131
11
159.309
21
-61.8145
0
LINE
8
BLACK
6
CONTINUOUS
10
159.309
20
-61.8145
11
159.327
21
-61.8203
0
LINE
8
BLACK
6
CONTINUOUS
10
159.327
20
-61.8203
11
159.345
21
-61.8296
0
LINE
8
BLACK
6
CONTINUOUS
10
159.345
20
-61.8296
11
159.36
21
-61.842
0
LINE
8
BLACK
6
CONTINUOUS
10
159.36
20
-61.842
11
159.373
21
-61.8573
0
LINE
8
BLACK
6
CONTINUOUS
10
159.373
20
-61.8573
11
159.382
21
-61.8746
0
LINE
8
BLACK
6
CONTINUOUS
10
159.382
20
-61.8746
11
159.388
21
-61.8935
0
LINE
8
BLACK
6
CONTINUOUS
10
159.388
20
-61.8935
11
159.389
21
-61.9131
0
LINE
8
BLACK
6
CONTINUOUS
10
159.389
20
-61.9131
11
159.389
21
-61.918
0
LINE
8
BLACK
6
CONTINUOUS
10
159.389
20
-61.918
11
159.389
21
-75.9074
0
LINE
8
BLACK
6
CONTINUOUS
10
159.389
20
-75.9074
11
159.389
21
-75.9123
0
LINE
8
BLACK
6
CONTINUOUS
10
159.389
20
-75.9123
11
159.388
21
-75.9319
0
LINE
8
BLACK
6
CONTINUOUS
10
159.388
20
-75.9319
11
159.382
21
-75.9508
0
LINE
8
BLACK
6
CONTINUOUS
10
159.382
20
-75.9508
11
159.373
21
-75.9681
0
LINE
8
BLACK
6
CONTINUOUS
10
159.373
20
-75.9681
11
159.36
21
-75.9834
0
LINE
8
BLACK
6
CONTINUOUS
10
159.36
20
-75.9834
11
159.345
21
-75.9958
0
LINE
8
BLACK
6
CONTINUOUS
10
159.345
20
-75.9958
11
159.327
21
-76.0051
0
LINE
8
BLACK
6
CONTINUOUS
10
159.327
20
-76.0051
11
159.309
21
-76.0109
0
LINE
8
BLACK
6
CONTINUOUS
10
159.309
20
-76.0109
11
159.294
21
-76.0123
0
LINE
8
BLACK
6
CONTINUOUS
10
159.294
20
-76.0123
11
159.289
21
-76.0128
0
LINE
8
BLACK
6
CONTINUOUS
10
159.289
20
-76.0128
11
159.284
21
-76.0123
0
LINE
8
BLACK
6
CONTINUOUS
10
159.284
20
-76.0123
11
145.293
21
-76.0123
0
LINE
8
BLACK
6
CONTINUOUS
10
145.293
20
-76.0123
11
145.288
21
-76.0128
0
LINE
8
BLACK
6
CONTINUOUS
10
145.288
20
-76.0128
11
145.268
21
-76.0109
0
LINE
8
BLACK
6
CONTINUOUS
10
145.268
20
-76.0109
11
145.25
21
-76.0051
0
LINE
8
BLACK
6
CONTINUOUS
10
145.25
20
-76.0051
11
145.232
21
-75.9958
0
LINE
8
BLACK
6
CONTINUOUS
10
145.232
20
-75.9958
11
145.217
21
-75.9834
0
LINE
8
BLACK
6
CONTINUOUS
10
145.217
20
-75.9834
11
145.204
21
-75.9681
0
LINE
8
BLACK
6
CONTINUOUS
10
145.204
20
-75.9681
11
145.195
21
-75.9508
0
LINE
8
BLACK
6
CONTINUOUS
10
145.195
20
-75.9508
11
145.189
21
-75.9319
0
LINE
8
BLACK
6
CONTINUOUS
10
145.189
20
-75.9319
11
145.188
21
-75.9123
0
LINE
8
BLACK
6
CONTINUOUS
10
145.188
20
-75.9123
11
145.188
21
-75.9074
0
LINE
8
BLACK
6
CONTINUOUS
10
145.188
20
-75.9074
11
145.188
21
-61.918
0
LINE
8
BLACK
6
CONTINUOUS
10
145.188
20
-61.918
11
145.188
21
-61.9131
0
LINE
8
BLACK
6
CONTINUOUS
10
145.188
20
-61.9131
11
145.189
21
-61.8935
0
LINE
8
BLACK
6
CONTINUOUS
10
145.189
20
-61.8935
11
145.195
21
-61.8746
0
LINE
8
BLACK
6
CONTINUOUS
10
145.195
20
-61.8746
11
145.204
21
-61.8573
0
LINE
8
BLACK
6
CONTINUOUS
10
145.204
20
-61.8573
11
145.217
21
-61.842
0
LINE
8
BLACK
6
CONTINUOUS
10
145.217
20
-61.842
11
145.232
21
-61.8296
0
LINE
8
BLACK
6
CONTINUOUS
10
145.232
20
-61.8296
11
145.25
21
-61.8203
0
LINE
8
BLACK
6
CONTINUOUS
10
145.25
20
-61.8203
11
145.268
21
-61.8145
0
LINE
8
BLACK
6
CONTINUOUS
10
145.268
20
-61.8145
11
145.283
21
-61.8131
0
LINE
8
BLACK
6
CONTINUOUS
10
145.283
20
-61.8131
11
145.288
21
-61.8126
0
LINE
8
BLACK
6
CONTINUOUS
10
145.288
20
-61.8126
11
145.293
21
-61.8131
0
LINE
8
BLACK
6
CONTINUOUS
10
145.293
20
-61.8131
11
159.284
21
-61.8131
0
LINE
8
BLACK
6
CONTINUOUS
10
159.284
20
-61.8131
11
159.289
21
-61.8126
0
LINE
8
BLACK
6
CONTINUOUS
10
159.289
20
-61.8126
11
159.294
21
-61.8131
0
LINE
8
BLACK
6
CONTINUOUS
10
145.388
20
-62.0131
11
145.388
21
-75.8123
0
LINE
8
BLACK
6
CONTINUOUS
10
145.388
20
-75.8123
11
159.189
21
-75.8123
0
LINE
8
BLACK
6
CONTINUOUS
10
159.189
20
-75.8123
11
159.189
21
-62.0131
0
LINE
8
BLACK
6
CONTINUOUS
10
159.189
20
-62.0131
11
145.388
21
-62.0131
0
LINE
8
BLACK
6
CONTINUOUS
10
121.194
20
-61.8131
11
121.209
21
-61.8145
0
LINE
8
BLACK
6
CONTINUOUS
10
121.209
20
-61.8145
11
121.227
21
-61.8203
0
LINE
8
BLACK
6
CONTINUOUS
10
121.227
20
-61.8203
11
121.245
21
-61.8296
0
LINE
8
BLACK
6
CONTINUOUS
10
121.245
20
-61.8296
11
121.26
21
-61.842
0
LINE
8
BLACK
6
CONTINUOUS
10
121.26
20
-61.842
11
121.273
21
-61.8573
0
LINE
8
BLACK
6
CONTINUOUS
10
121.273
20
-61.8573
11
121.282
21
-61.8746
0
LINE
8
BLACK
6
CONTINUOUS
10
121.282
20
-61.8746
11
121.288
21
-61.8935
0
LINE
8
BLACK
6
CONTINUOUS
10
121.288
20
-61.8935
11
121.289
21
-61.9131
0
LINE
8
BLACK
6
CONTINUOUS
10
121.289
20
-61.9131
11
121.289
21
-61.918
0
LINE
8
BLACK
6
CONTINUOUS
10
121.289
20
-61.918
11
121.289
21
-75.9074
0
LINE
8
BLACK
6
CONTINUOUS
10
121.289
20
-75.9074
11
121.289
21
-75.9123
0
LINE
8
BLACK
6
CONTINUOUS
10
121.289
20
-75.9123
11
121.288
21
-75.9319
0
LINE
8
BLACK
6
CONTINUOUS
10
121.288
20
-75.9319
11
121.282
21
-75.9508
0
LINE
8
BLACK
6
CONTINUOUS
10
121.282
20
-75.9508
11
121.273
21
-75.9681
0
LINE
8
BLACK
6
CONTINUOUS
10
121.273
20
-75.9681
11
121.26
21
-75.9834
0
LINE
8
BLACK
6
CONTINUOUS
10
121.26
20
-75.9834
11
121.245
21
-75.9958
0
LINE
8
BLACK
6
CONTINUOUS
10
121.245
20
-75.9958
11
121.227
21
-76.0051
0
LINE
8
BLACK
6
CONTINUOUS
10
121.227
20
-76.0051
11
121.209
21
-76.0109
0
LINE
8
BLACK
6
CONTINUOUS
10
121.209
20
-76.0109
11
121.194
21
-76.0123
0
LINE
8
BLACK
6
CONTINUOUS
10
121.194
20
-76.0123
11
121.189
21
-76.0128
0
LINE
8
BLACK
6
CONTINUOUS
10
121.189
20
-76.0128
11
121.184
21
-76.0123
0
LINE
8
BLACK
6
CONTINUOUS
10
121.184
20
-76.0123
11
107.195
21
-76.0123
0
LINE
8
BLACK
6
CONTINUOUS
10
107.195
20
-76.0123
11
107.19
21
-76.0128
0
LINE
8
BLACK
6
CONTINUOUS
10
107.19
20
-76.0128
11
107.17
21
-76.0109
0
LINE
8
BLACK
6
CONTINUOUS
10
107.17
20
-76.0109
11
107.151
21
-76.0051
0
LINE
8
BLACK
6
CONTINUOUS
10
107.151
20
-76.0051
11
107.134
21
-75.9958
0
LINE
8
BLACK
6
CONTINUOUS
10
107.134
20
-75.9958
11
107.119
21
-75.9834
0
LINE
8
BLACK
6
CONTINUOUS
10
107.119
20
-75.9834
11
107.106
21
-75.9681
0
LINE
8
BLACK
6
CONTINUOUS
10
107.106
20
-75.9681
11
107.097
21
-75.9508
0
LINE
8
BLACK
6
CONTINUOUS
10
107.097
20
-75.9508
11
107.091
21
-75.9319
0
LINE
8
BLACK
6
CONTINUOUS
10
107.091
20
-75.9319
11
107.089
21
-75.9123
0
LINE
8
BLACK
6
CONTINUOUS
10
107.089
20
-75.9123
11
107.09
21
-75.9074
0
LINE
8
BLACK
6
CONTINUOUS
10
107.09
20
-75.9074
11
107.09
21
-61.918
0
LINE
8
BLACK
6
CONTINUOUS
10
107.09
20
-61.918
11
107.089
21
-61.9131
0
LINE
8
BLACK
6
CONTINUOUS
10
107.089
20
-61.9131
11
107.091
21
-61.8935
0
LINE
8
BLACK
6
CONTINUOUS
10
107.091
20
-61.8935
11
107.097
21
-61.8746
0
LINE
8
BLACK
6
CONTINUOUS
10
107.097
20
-61.8746
11
107.106
21
-61.8573
0
LINE
8
BLACK
6
CONTINUOUS
10
107.106
20
-61.8573
11
107.119
21
-61.842
0
LINE
8
BLACK
6
CONTINUOUS
10
107.119
20
-61.842
11
107.134
21
-61.8296
0
LINE
8
BLACK
6
CONTINUOUS
10
107.134
20
-61.8296
11
107.151
21
-61.8203
0
LINE
8
BLACK
6
CONTINUOUS
10
107.151
20
-61.8203
11
107.17
21
-61.8145
0
LINE
8
BLACK
6
CONTINUOUS
10
107.17
20
-61.8145
11
107.185
21
-61.8131
0
LINE
8
BLACK
6
CONTINUOUS
10
107.185
20
-61.8131
11
107.19
21
-61.8126
0
LINE
8
BLACK
6
CONTINUOUS
10
107.19
20
-61.8126
11
107.195
21
-61.8131
0
LINE
8
BLACK
6
CONTINUOUS
10
107.195
20
-61.8131
11
121.184
21
-61.8131
0
LINE
8
BLACK
6
CONTINUOUS
10
121.184
20
-61.8131
11
121.189
21
-61.8126
0
LINE
8
BLACK
6
CONTINUOUS
10
121.189
20
-61.8126
11
121.194
21
-61.8131
0
LINE
8
BLACK
6
CONTINUOUS
10
107.29
20
-62.0131
11
107.29
21
-75.8123
0
LINE
8
BLACK
6
CONTINUOUS
10
107.29
20
-75.8123
11
121.089
21
-75.8123
0
LINE
8
BLACK
6
CONTINUOUS
10
121.089
20
-75.8123
11
121.089
21
-62.0131
0
LINE
8
BLACK
6
CONTINUOUS
10
121.089
20
-62.0131
11
107.29
21
-62.0131
0
LINE
8
BLACK
6
CONTINUOUS
10
140.244
20
-61.8131
11
140.259
21
-61.8145
0
LINE
8
BLACK
6
CONTINUOUS
10
140.259
20
-61.8145
11
140.277
21
-61.8203
0
LINE
8
BLACK
6
CONTINUOUS
10
140.277
20
-61.8203
11
140.295
21
-61.8296
0
LINE
8
BLACK
6
CONTINUOUS
10
140.295
20
-61.8296
11
140.31
21
-61.842
0
LINE
8
BLACK
6
CONTINUOUS
10
140.31
20
-61.842
11
140.323
21
-61.8573
0
LINE
8
BLACK
6
CONTINUOUS
10
140.323
20
-61.8573
11
140.332
21
-61.8746
0
LINE
8
BLACK
6
CONTINUOUS
10
140.332
20
-61.8746
11
140.338
21
-61.8935
0
LINE
8
BLACK
6
CONTINUOUS
10
140.338
20
-61.8935
11
140.339
21
-61.9131
0
LINE
8
BLACK
6
CONTINUOUS
10
140.339
20
-61.9131
11
140.339
21
-61.918
0
LINE
8
BLACK
6
CONTINUOUS
10
140.339
20
-61.918
11
140.339
21
-75.9074
0
LINE
8
BLACK
6
CONTINUOUS
10
140.339
20
-75.9074
11
140.339
21
-75.9123
0
LINE
8
BLACK
6
CONTINUOUS
10
140.339
20
-75.9123
11
140.338
21
-75.9319
0
LINE
8
BLACK
6
CONTINUOUS
10
140.338
20
-75.9319
11
140.332
21
-75.9508
0
LINE
8
BLACK
6
CONTINUOUS
10
140.332
20
-75.9508
11
140.323
21
-75.9681
0
LINE
8
BLACK
6
CONTINUOUS
10
140.323
20
-75.9681
11
140.31
21
-75.9834
0
LINE
8
BLACK
6
CONTINUOUS
10
140.31
20
-75.9834
11
140.295
21
-75.9958
0
LINE
8
BLACK
6
CONTINUOUS
10
140.295
20
-75.9958
11
140.277
21
-76.0051
0
LINE
8
BLACK
6
CONTINUOUS
10
140.277
20
-76.0051
11
140.259
21
-76.0109
0
LINE
8
BLACK
6
CONTINUOUS
10
140.259
20
-76.0109
11
140.244
21
-76.0123
0
LINE
8
BLACK
6
CONTINUOUS
10
140.244
20
-76.0123
11
140.239
21
-76.0128
0
LINE
8
BLACK
6
CONTINUOUS
10
140.239
20
-76.0128
11
140.234
21
-76.0123
0
LINE
8
BLACK
6
CONTINUOUS
10
140.234
20
-76.0123
11
126.243
21
-76.0123
0
LINE
8
BLACK
6
CONTINUOUS
10
126.243
20
-76.0123
11
126.238
21
-76.0128
0
LINE
8
BLACK
6
CONTINUOUS
10
126.238
20
-76.0128
11
126.219
21
-76.0109
0
LINE
8
BLACK
6
CONTINUOUS
10
126.219
20
-76.0109
11
126.2
21
-76.0051
0
LINE
8
BLACK
6
CONTINUOUS
10
126.2
20
-76.0051
11
126.182
21
-75.9958
0
LINE
8
BLACK
6
CONTINUOUS
10
126.182
20
-75.9958
11
126.167
21
-75.9834
0
LINE
8
BLACK
6
CONTINUOUS
10
126.167
20
-75.9834
11
126.155
21
-75.9681
0
LINE
8
BLACK
6
CONTINUOUS
10
126.155
20
-75.9681
11
126.145
21
-75.9508
0
LINE
8
BLACK
6
CONTINUOUS
10
126.145
20
-75.9508
11
126.14
21
-75.9319
0
LINE
8
BLACK
6
CONTINUOUS
10
126.14
20
-75.9319
11
126.138
21
-75.9123
0
LINE
8
BLACK
6
CONTINUOUS
10
126.138
20
-75.9123
11
126.138
21
-75.9074
0
LINE
8
BLACK
6
CONTINUOUS
10
126.138
20
-75.9074
11
126.138
21
-61.918
0
LINE
8
BLACK
6
CONTINUOUS
10
126.138
20
-61.918
11
126.138
21
-61.9131
0
LINE
8
BLACK
6
CONTINUOUS
10
126.138
20
-61.9131
11
126.14
21
-61.8935
0
LINE
8
BLACK
6
CONTINUOUS
10
126.14
20
-61.8935
11
126.145
21
-61.8746
0
LINE
8
BLACK
6
CONTINUOUS
10
126.145
20
-61.8746
11
126.155
21
-61.8573
0
LINE
8
BLACK
6
CONTINUOUS
10
126.155
20
-61.8573
11
126.167
21
-61.842
0
LINE
8
BLACK
6
CONTINUOUS
10
126.167
20
-61.842
11
126.182
21
-61.8296
0
LINE
8
BLACK
6
CONTINUOUS
10
126.182
20
-61.8296
11
126.2
21
-61.8203
0
LINE
8
BLACK
6
CONTINUOUS
10
126.2
20
-61.8203
11
126.219
21
-61.8145
0
LINE
8
BLACK
6
CONTINUOUS
10
126.219
20
-61.8145
11
126.233
21
-61.8131
0
LINE
8
BLACK
6
CONTINUOUS
10
126.233
20
-61.8131
11
126.238
21
-61.8126
0
LINE
8
BLACK
6
CONTINUOUS
10
126.238
20
-61.8126
11
126.243
21
-61.8131
0
LINE
8
BLACK
6
CONTINUOUS
10
126.243
20
-61.8131
11
140.234
21
-61.8131
0
LINE
8
BLACK
6
CONTINUOUS
10
140.234
20
-61.8131
11
140.239
21
-61.8126
0
LINE
8
BLACK
6
CONTINUOUS
10
140.239
20
-61.8126
11
140.244
21
-61.8131
0
LINE
8
BLACK
6
CONTINUOUS
10
126.338
20
-62.0131
11
126.338
21
-75.8123
0
LINE
8
BLACK
6
CONTINUOUS
10
126.338
20
-75.8123
11
140.139
21
-75.8123
0
LINE
8
BLACK
6
CONTINUOUS
10
140.139
20
-75.8123
11
140.139
21
-62.0131
0
LINE
8
BLACK
6
CONTINUOUS
10
140.139
20
-62.0131
11
126.338
21
-62.0131
0
LINE
8
BLACK
6
CONTINUOUS
10
197.394
20
-47.526
11
197.409
21
-47.5274
0
LINE
8
BLACK
6
CONTINUOUS
10
197.409
20
-47.5274
11
197.427
21
-47.5332
0
LINE
8
BLACK
6
CONTINUOUS
10
197.427
20
-47.5332
11
197.445
21
-47.5425
0
LINE
8
BLACK
6
CONTINUOUS
10
197.445
20
-47.5425
11
197.46
21
-47.5549
0
LINE
8
BLACK
6
CONTINUOUS
10
197.46
20
-47.5549
11
197.473
21
-47.5702
0
LINE
8
BLACK
6
CONTINUOUS
10
197.473
20
-47.5702
11
197.482
21
-47.5875
0
LINE
8
BLACK
6
CONTINUOUS
10
197.482
20
-47.5875
11
197.488
21
-47.6064
0
LINE
8
BLACK
6
CONTINUOUS
10
197.488
20
-47.6064
11
197.489
21
-47.626
0
LINE
8
BLACK
6
CONTINUOUS
10
197.489
20
-47.626
11
197.489
21
-47.6309
0
LINE
8
BLACK
6
CONTINUOUS
10
197.489
20
-47.6309
11
197.489
21
-61.6199
0
LINE
8
BLACK
6
CONTINUOUS
10
197.489
20
-61.6199
11
197.489
21
-61.6248
0
LINE
8
BLACK
6
CONTINUOUS
10
197.489
20
-61.6248
11
197.488
21
-61.6444
0
LINE
8
BLACK
6
CONTINUOUS
10
197.488
20
-61.6444
11
197.482
21
-61.6633
0
LINE
8
BLACK
6
CONTINUOUS
10
197.482
20
-61.6633
11
197.473
21
-61.6806
0
LINE
8
BLACK
6
CONTINUOUS
10
197.473
20
-61.6806
11
197.46
21
-61.6959
0
LINE
8
BLACK
6
CONTINUOUS
10
197.46
20
-61.6959
11
197.445
21
-61.7083
0
LINE
8
BLACK
6
CONTINUOUS
10
197.445
20
-61.7083
11
197.427
21
-61.7176
0
LINE
8
BLACK
6
CONTINUOUS
10
197.427
20
-61.7176
11
197.409
21
-61.7234
0
LINE
8
BLACK
6
CONTINUOUS
10
197.409
20
-61.7234
11
197.394
21
-61.7248
0
LINE
8
BLACK
6
CONTINUOUS
10
197.394
20
-61.7248
11
197.389
21
-61.7253
0
LINE
8
BLACK
6
CONTINUOUS
10
197.389
20
-61.7253
11
197.384
21
-61.7248
0
LINE
8
BLACK
6
CONTINUOUS
10
197.384
20
-61.7248
11
183.395
21
-61.7248
0
LINE
8
BLACK
6
CONTINUOUS
10
183.395
20
-61.7248
11
183.39
21
-61.7253
0
LINE
8
BLACK
6
CONTINUOUS
10
183.39
20
-61.7253
11
183.37
21
-61.7234
0
LINE
8
BLACK
6
CONTINUOUS
10
183.37
20
-61.7234
11
183.352
21
-61.7176
0
LINE
8
BLACK
6
CONTINUOUS
10
183.352
20
-61.7176
11
183.334
21
-61.7083
0
LINE
8
BLACK
6
CONTINUOUS
10
183.334
20
-61.7083
11
183.319
21
-61.6959
0
LINE
8
BLACK
6
CONTINUOUS
10
183.319
20
-61.6959
11
183.306
21
-61.6806
0
LINE
8
BLACK
6
CONTINUOUS
10
183.306
20
-61.6806
11
183.297
21
-61.6633
0
LINE
8
BLACK
6
CONTINUOUS
10
183.297
20
-61.6633
11
183.291
21
-61.6444
0
LINE
8
BLACK
6
CONTINUOUS
10
183.291
20
-61.6444
11
183.29
21
-61.6248
0
LINE
8
BLACK
6
CONTINUOUS
10
183.29
20
-61.6248
11
183.29
21
-61.6199
0
LINE
8
BLACK
6
CONTINUOUS
10
183.29
20
-61.6199
11
183.29
21
-47.6309
0
LINE
8
BLACK
6
CONTINUOUS
10
183.29
20
-47.6309
11
183.29
21
-47.626
0
LINE
8
BLACK
6
CONTINUOUS
10
183.29
20
-47.626
11
183.291
21
-47.6064
0
LINE
8
BLACK
6
CONTINUOUS
10
183.291
20
-47.6064
11
183.297
21
-47.5875
0
LINE
8
BLACK
6
CONTINUOUS
10
183.297
20
-47.5875
11
183.306
21
-47.5702
0
LINE
8
BLACK
6
CONTINUOUS
10
183.306
20
-47.5702
11
183.319
21
-47.5549
0
LINE
8
BLACK
6
CONTINUOUS
10
183.319
20
-47.5549
11
183.334
21
-47.5425
0
LINE
8
BLACK
6
CONTINUOUS
10
183.334
20
-47.5425
11
183.352
21
-47.5332
0
LINE
8
BLACK
6
CONTINUOUS
10
183.352
20
-47.5332
11
183.37
21
-47.5274
0
LINE
8
BLACK
6
CONTINUOUS
10
183.37
20
-47.5274
11
183.385
21
-47.526
0
LINE
8
BLACK
6
CONTINUOUS
10
183.385
20
-47.526
11
183.39
21
-47.5255
0
LINE
8
BLACK
6
CONTINUOUS
10
183.39
20
-47.5255
11
183.395
21
-47.526
0
LINE
8
BLACK
6
CONTINUOUS
10
183.395
20
-47.526
11
197.384
21
-47.526
0
LINE
8
BLACK
6
CONTINUOUS
10
197.384
20
-47.526
11
197.389
21
-47.5255
0
LINE
8
BLACK
6
CONTINUOUS
10
197.389
20
-47.5255
11
197.394
21
-47.526
0
LINE
8
BLACK
6
CONTINUOUS
10
183.49
20
-47.726
11
183.49
21
-61.5248
0
LINE
8
BLACK
6
CONTINUOUS
10
183.49
20
-61.5248
11
197.289
21
-61.5248
0
LINE
8
BLACK
6
CONTINUOUS
10
197.289
20
-61.5248
11
197.289
21
-47.726
0
LINE
8
BLACK
6
CONTINUOUS
10
197.289
20
-47.726
11
183.49
21
-47.726
0
LINE
8
BLACK
6
CONTINUOUS
10
121.194
20
-42.763
11
121.209
21
-42.7644
0
LINE
8
BLACK
6
CONTINUOUS
10
121.209
20
-42.7644
11
121.227
21
-42.7702
0
LINE
8
BLACK
6
CONTINUOUS
10
121.227
20
-42.7702
11
121.245
21
-42.7795
0
LINE
8
BLACK
6
CONTINUOUS
10
121.245
20
-42.7795
11
121.26
21
-42.7919
0
LINE
8
BLACK
6
CONTINUOUS
10
121.26
20
-42.7919
11
121.273
21
-42.8072
0
LINE
8
BLACK
6
CONTINUOUS
10
121.273
20
-42.8072
11
121.282
21
-42.8245
0
LINE
8
BLACK
6
CONTINUOUS
10
121.282
20
-42.8245
11
121.288
21
-42.8434
0
LINE
8
BLACK
6
CONTINUOUS
10
121.288
20
-42.8434
11
121.289
21
-42.863
0
LINE
8
BLACK
6
CONTINUOUS
10
121.289
20
-42.863
11
121.289
21
-42.8679
0
LINE
8
BLACK
6
CONTINUOUS
10
121.289
20
-42.8679
11
121.289
21
-56.8574
0
LINE
8
BLACK
6
CONTINUOUS
10
121.289
20
-56.8574
11
121.289
21
-56.8623
0
LINE
8
BLACK
6
CONTINUOUS
10
121.289
20
-56.8623
11
121.288
21
-56.8819
0
LINE
8
BLACK
6
CONTINUOUS
10
121.288
20
-56.8819
11
121.282
21
-56.9008
0
LINE
8
BLACK
6
CONTINUOUS
10
121.282
20
-56.9008
11
121.273
21
-56.9181
0
LINE
8
BLACK
6
CONTINUOUS
10
121.273
20
-56.9181
11
121.26
21
-56.9334
0
LINE
8
BLACK
6
CONTINUOUS
10
121.26
20
-56.9334
11
121.245
21
-56.9458
0
LINE
8
BLACK
6
CONTINUOUS
10
121.245
20
-56.9458
11
121.227
21
-56.9551
0
LINE
8
BLACK
6
CONTINUOUS
10
121.227
20
-56.9551
11
121.209
21
-56.9609
0
LINE
8
BLACK
6
CONTINUOUS
10
121.209
20
-56.9609
11
121.194
21
-56.9623
0
LINE
8
BLACK
6
CONTINUOUS
10
121.194
20
-56.9623
11
121.189
21
-56.9628
0
LINE
8
BLACK
6
CONTINUOUS
10
121.189
20
-56.9628
11
121.184
21
-56.9623
0
LINE
8
BLACK
6
CONTINUOUS
10
121.184
20
-56.9623
11
107.195
21
-56.9623
0
LINE
8
BLACK
6
CONTINUOUS
10
107.195
20
-56.9623
11
107.19
21
-56.9628
0
LINE
8
BLACK
6
CONTINUOUS
10
107.19
20
-56.9628
11
107.17
21
-56.9609
0
LINE
8
BLACK
6
CONTINUOUS
10
107.17
20
-56.9609
11
107.151
21
-56.9551
0
LINE
8
BLACK
6
CONTINUOUS
10
107.151
20
-56.9551
11
107.134
21
-56.9458
0
LINE
8
BLACK
6
CONTINUOUS
10
107.134
20
-56.9458
11
107.119
21
-56.9334
0
LINE
8
BLACK
6
CONTINUOUS
10
107.119
20
-56.9334
11
107.106
21
-56.9181
0
LINE
8
BLACK
6
CONTINUOUS
10
107.106
20
-56.9181
11
107.097
21
-56.9008
0
LINE
8
BLACK
6
CONTINUOUS
10
107.097
20
-56.9008
11
107.091
21
-56.8819
0
LINE
8
BLACK
6
CONTINUOUS
10
107.091
20
-56.8819
11
107.089
21
-56.8623
0
LINE
8
BLACK
6
CONTINUOUS
10
107.089
20
-56.8623
11
107.09
21
-56.8574
0
LINE
8
BLACK
6
CONTINUOUS
10
107.09
20
-56.8574
11
107.09
21
-42.8679
0
LINE
8
BLACK
6
CONTINUOUS
10
107.09
20
-42.8679
11
107.089
21
-42.863
0
LINE
8
BLACK
6
CONTINUOUS
10
107.089
20
-42.863
11
107.091
21
-42.8434
0
LINE
8
BLACK
6
CONTINUOUS
10
107.091
20
-42.8434
11
107.097
21
-42.8245
0
LINE
8
BLACK
6
CONTINUOUS
10
107.097
20
-42.8245
11
107.106
21
-42.8072
0
LINE
8
BLACK
6
CONTINUOUS
10
107.106
20
-42.8072
11
107.119
21
-42.7919
0
LINE
8
BLACK
6
CONTINUOUS
10
107.119
20
-42.7919
11
107.134
21
-42.7795
0
LINE
8
BLACK
6
CONTINUOUS
10
107.134
20
-42.7795
11
107.151
21
-42.7702
0
LINE
8
BLACK
6
CONTINUOUS
10
107.151
20
-42.7702
11
107.17
21
-42.7644
0
LINE
8
BLACK
6
CONTINUOUS
10
107.17
20
-42.7644
11
107.185
21
-42.763
0
LINE
8
BLACK
6
CONTINUOUS
10
107.185
20
-42.763
11
107.19
21
-42.7625
0
LINE
8
BLACK
6
CONTINUOUS
10
107.19
20
-42.7625
11
107.195
21
-42.763
0
LINE
8
BLACK
6
CONTINUOUS
10
107.195
20
-42.763
11
121.184
21
-42.763
0
LINE
8
BLACK
6
CONTINUOUS
10
121.184
20
-42.763
11
121.189
21
-42.7625
0
LINE
8
BLACK
6
CONTINUOUS
10
121.189
20
-42.7625
11
121.194
21
-42.763
0
LINE
8
BLACK
6
CONTINUOUS
10
107.29
20
-42.963
11
107.29
21
-56.7623
0
LINE
8
BLACK
6
CONTINUOUS
10
107.29
20
-56.7623
11
121.089
21
-56.7623
0
LINE
8
BLACK
6
CONTINUOUS
10
121.089
20
-56.7623
11
121.089
21
-42.963
0
LINE
8
BLACK
6
CONTINUOUS
10
121.089
20
-42.963
11
107.29
21
-42.963
0
LINE
8
BLACK
6
CONTINUOUS
10
102.144
20
-42.763
11
102.159
21
-42.7644
0
LINE
8
BLACK
6
CONTINUOUS
10
102.159
20
-42.7644
11
102.177
21
-42.7702
0
LINE
8
BLACK
6
CONTINUOUS
10
102.177
20
-42.7702
11
102.195
21
-42.7795
0
LINE
8
BLACK
6
CONTINUOUS
10
102.195
20
-42.7795
11
102.21
21
-42.7919
0
LINE
8
BLACK
6
CONTINUOUS
10
102.21
20
-42.7919
11
102.223
21
-42.8072
0
LINE
8
BLACK
6
CONTINUOUS
10
102.223
20
-42.8072
11
102.232
21
-42.8245
0
LINE
8
BLACK
6
CONTINUOUS
10
102.232
20
-42.8245
11
102.238
21
-42.8434
0
LINE
8
BLACK
6
CONTINUOUS
10
102.238
20
-42.8434
11
102.239
21
-42.863
0
LINE
8
BLACK
6
CONTINUOUS
10
102.239
20
-42.863
11
102.239
21
-42.8679
0
LINE
8
BLACK
6
CONTINUOUS
10
102.239
20
-42.8679
11
102.239
21
-56.8574
0
LINE
8
BLACK
6
CONTINUOUS
10
102.239
20
-56.8574
11
102.239
21
-56.8623
0
LINE
8
BLACK
6
CONTINUOUS
10
102.239
20
-56.8623
11
102.238
21
-56.8819
0
LINE
8
BLACK
6
CONTINUOUS
10
102.238
20
-56.8819
11
102.232
21
-56.9008
0
LINE
8
BLACK
6
CONTINUOUS
10
102.232
20
-56.9008
11
102.223
21
-56.9181
0
LINE
8
BLACK
6
CONTINUOUS
10
102.223
20
-56.9181
11
102.21
21
-56.9334
0
LINE
8
BLACK
6
CONTINUOUS
10
102.21
20
-56.9334
11
102.195
21
-56.9458
0
LINE
8
BLACK
6
CONTINUOUS
10
102.195
20
-56.9458
11
102.177
21
-56.9551
0
LINE
8
BLACK
6
CONTINUOUS
10
102.177
20
-56.9551
11
102.159
21
-56.9609
0
LINE
8
BLACK
6
CONTINUOUS
10
102.159
20
-56.9609
11
102.144
21
-56.9623
0
LINE
8
BLACK
6
CONTINUOUS
10
102.144
20
-56.9623
11
102.139
21
-56.9628
0
LINE
8
BLACK
6
CONTINUOUS
10
102.139
20
-56.9628
11
102.134
21
-56.9623
0
LINE
8
BLACK
6
CONTINUOUS
10
102.134
20
-56.9623
11
88.1446
21
-56.9623
0
LINE
8
BLACK
6
CONTINUOUS
10
88.1446
20
-56.9623
11
88.1397
21
-56.9628
0
LINE
8
BLACK
6
CONTINUOUS
10
88.1397
20
-56.9628
11
88.1201
21
-56.9609
0
LINE
8
BLACK
6
CONTINUOUS
10
88.1201
20
-56.9609
11
88.1012
21
-56.9551
0
LINE
8
BLACK
6
CONTINUOUS
10
88.1012
20
-56.9551
11
88.0839
21
-56.9458
0
LINE
8
BLACK
6
CONTINUOUS
10
88.0839
20
-56.9458
11
88.0686
21
-56.9334
0
LINE
8
BLACK
6
CONTINUOUS
10
88.0686
20
-56.9334
11
88.0562
21
-56.9181
0
LINE
8
BLACK
6
CONTINUOUS
10
88.0562
20
-56.9181
11
88.0469
21
-56.9008
0
LINE
8
BLACK
6
CONTINUOUS
10
88.0469
20
-56.9008
11
88.0411
21
-56.8819
0
LINE
8
BLACK
6
CONTINUOUS
10
88.0411
20
-56.8819
11
88.0392
21
-56.8623
0
LINE
8
BLACK
6
CONTINUOUS
10
88.0392
20
-56.8623
11
88.0397
21
-56.8574
0
LINE
8
BLACK
6
CONTINUOUS
10
88.0397
20
-56.8574
11
88.0397
21
-42.8679
0
LINE
8
BLACK
6
CONTINUOUS
10
88.0397
20
-42.8679
11
88.0392
21
-42.863
0
LINE
8
BLACK
6
CONTINUOUS
10
88.0392
20
-42.863
11
88.0411
21
-42.8434
0
LINE
8
BLACK
6
CONTINUOUS
10
88.0411
20
-42.8434
11
88.0469
21
-42.8245
0
LINE
8
BLACK
6
CONTINUOUS
10
88.0469
20
-42.8245
11
88.0562
21
-42.8072
0
LINE
8
BLACK
6
CONTINUOUS
10
88.0562
20
-42.8072
11
88.0686
21
-42.7919
0
LINE
8
BLACK
6
CONTINUOUS
10
88.0686
20
-42.7919
11
88.0839
21
-42.7795
0
LINE
8
BLACK
6
CONTINUOUS
10
88.0839
20
-42.7795
11
88.1012
21
-42.7702
0
LINE
8
BLACK
6
CONTINUOUS
10
88.1012
20
-42.7702
11
88.1201
21
-42.7644
0
LINE
8
BLACK
6
CONTINUOUS
10
88.1201
20
-42.7644
11
88.1348
21
-42.763
0
LINE
8
BLACK
6
CONTINUOUS
10
88.1348
20
-42.763
11
88.1397
21
-42.7625
0
LINE
8
BLACK
6
CONTINUOUS
10
88.1397
20
-42.7625
11
88.1446
21
-42.763
0
LINE
8
BLACK
6
CONTINUOUS
10
88.1446
20
-42.763
11
102.134
21
-42.763
0
LINE
8
BLACK
6
CONTINUOUS
10
102.134
20
-42.763
11
102.139
21
-42.7625
0
LINE
8
BLACK
6
CONTINUOUS
10
102.139
20
-42.7625
11
102.144
21
-42.763
0
LINE
8
BLACK
6
CONTINUOUS
10
88.2397
20
-42.963
11
88.2397
21
-56.7623
0
LINE
8
BLACK
6
CONTINUOUS
10
88.2397
20
-56.7623
11
102.039
21
-56.7623
0
LINE
8
BLACK
6
CONTINUOUS
10
102.039
20
-56.7623
11
102.039
21
-42.963
0
LINE
8
BLACK
6
CONTINUOUS
10
102.039
20
-42.963
11
88.2397
21
-42.963
0
LINE
8
BLACK
6
CONTINUOUS
10
140.244
20
-42.763
11
140.259
21
-42.7644
0
LINE
8
BLACK
6
CONTINUOUS
10
140.259
20
-42.7644
11
140.277
21
-42.7702
0
LINE
8
BLACK
6
CONTINUOUS
10
140.277
20
-42.7702
11
140.295
21
-42.7795
0
LINE
8
BLACK
6
CONTINUOUS
10
140.295
20
-42.7795
11
140.31
21
-42.7919
0
LINE
8
BLACK
6
CONTINUOUS
10
140.31
20
-42.7919
11
140.323
21
-42.8072
0
LINE
8
BLACK
6
CONTINUOUS
10
140.323
20
-42.8072
11
140.332
21
-42.8245
0
LINE
8
BLACK
6
CONTINUOUS
10
140.332
20
-42.8245
11
140.338
21
-42.8434
0
LINE
8
BLACK
6
CONTINUOUS
10
140.338
20
-42.8434
11
140.339
21
-42.863
0
LINE
8
BLACK
6
CONTINUOUS
10
140.339
20
-42.863
11
140.339
21
-42.8679
0
LINE
8
BLACK
6
CONTINUOUS
10
140.339
20
-42.8679
11
140.339
21
-56.8574
0
LINE
8
BLACK
6
CONTINUOUS
10
140.339
20
-56.8574
11
140.339
21
-56.8623
0
LINE
8
BLACK
6
CONTINUOUS
10
140.339
20
-56.8623
11
140.338
21
-56.8819
0
LINE
8
BLACK
6
CONTINUOUS
10
140.338
20
-56.8819
11
140.332
21
-56.9008
0
LINE
8
BLACK
6
CONTINUOUS
10
140.332
20
-56.9008
11
140.323
21
-56.9181
0
LINE
8
BLACK
6
CONTINUOUS
10
140.323
20
-56.9181
11
140.31
21
-56.9334
0
LINE
8
BLACK
6
CONTINUOUS
10
140.31
20
-56.9334
11
140.295
21
-56.9458
0
LINE
8
BLACK
6
CONTINUOUS
10
140.295
20
-56.9458
11
140.277
21
-56.9551
0
LINE
8
BLACK
6
CONTINUOUS
10
140.277
20
-56.9551
11
140.259
21
-56.9609
0
LINE
8
BLACK
6
CONTINUOUS
10
140.259
20
-56.9609
11
140.244
21
-56.9623
0
LINE
8
BLACK
6
CONTINUOUS
10
140.244
20
-56.9623
11
140.239
21
-56.9628
0
LINE
8
BLACK
6
CONTINUOUS
10
140.239
20
-56.9628
11
140.234
21
-56.9623
0
LINE
8
BLACK
6
CONTINUOUS
10
140.234
20
-56.9623
11
126.245
21
-56.9623
0
LINE
8
BLACK
6
CONTINUOUS
10
126.245
20
-56.9623
11
126.24
21
-56.9628
0
LINE
8
BLACK
6
CONTINUOUS
10
126.24
20
-56.9628
11
126.22
21
-56.9609
0
LINE
8
BLACK
6
CONTINUOUS
10
126.22
20
-56.9609
11
126.201
21
-56.9551
0
LINE
8
BLACK
6
CONTINUOUS
10
126.201
20
-56.9551
11
126.184
21
-56.9458
0
LINE
8
BLACK
6
CONTINUOUS
10
126.184
20
-56.9458
11
126.169
21
-56.9334
0
LINE
8
BLACK
6
CONTINUOUS
10
126.169
20
-56.9334
11
126.156
21
-56.9181
0
LINE
8
BLACK
6
CONTINUOUS
10
126.156
20
-56.9181
11
126.147
21
-56.9008
0
LINE
8
BLACK
6
CONTINUOUS
10
126.147
20
-56.9008
11
126.141
21
-56.8819
0
LINE
8
BLACK
6
CONTINUOUS
10
126.141
20
-56.8819
11
126.139
21
-56.8623
0
LINE
8
BLACK
6
CONTINUOUS
10
126.139
20
-56.8623
11
126.14
21
-56.8574
0
LINE
8
BLACK
6
CONTINUOUS
10
126.14
20
-56.8574
11
126.14
21
-42.8679
0
LINE
8
BLACK
6
CONTINUOUS
10
126.14
20
-42.8679
11
126.139
21
-42.863
0
LINE
8
BLACK
6
CONTINUOUS
10
126.139
20
-42.863
11
126.141
21
-42.8434
0
LINE
8
BLACK
6
CONTINUOUS
10
126.141
20
-42.8434
11
126.147
21
-42.8245
0
LINE
8
BLACK
6
CONTINUOUS
10
126.147
20
-42.8245
11
126.156
21
-42.8072
0
LINE
8
BLACK
6
CONTINUOUS
10
126.156
20
-42.8072
11
126.169
21
-42.7919
0
LINE
8
BLACK
6
CONTINUOUS
10
126.169
20
-42.7919
11
126.184
21
-42.7795
0
LINE
8
BLACK
6
CONTINUOUS
10
126.184
20
-42.7795
11
126.201
21
-42.7702
0
LINE
8
BLACK
6
CONTINUOUS
10
126.201
20
-42.7702
11
126.22
21
-42.7644
0
LINE
8
BLACK
6
CONTINUOUS
10
126.22
20
-42.7644
11
126.235
21
-42.763
0
LINE
8
BLACK
6
CONTINUOUS
10
126.235
20
-42.763
11
126.24
21
-42.7625
0
LINE
8
BLACK
6
CONTINUOUS
10
126.24
20
-42.7625
11
126.245
21
-42.763
0
LINE
8
BLACK
6
CONTINUOUS
10
126.245
20
-42.763
11
140.234
21
-42.763
0
LINE
8
BLACK
6
CONTINUOUS
10
140.234
20
-42.763
11
140.239
21
-42.7625
0
LINE
8
BLACK
6
CONTINUOUS
10
140.239
20
-42.7625
11
140.244
21
-42.763
0
LINE
8
BLACK
6
CONTINUOUS
10
126.34
20
-42.963
11
126.34
21
-56.7623
0
LINE
8
BLACK
6
CONTINUOUS
10
126.34
20
-56.7623
11
140.139
21
-56.7623
0
LINE
8
BLACK
6
CONTINUOUS
10
140.139
20
-56.7623
11
140.139
21
-42.963
0
LINE
8
BLACK
6
CONTINUOUS
10
140.139
20
-42.963
11
126.34
21
-42.963
0
LINE
8
BLACK
6
CONTINUOUS
10
159.294
20
-42.763
11
159.309
21
-42.7644
0
LINE
8
BLACK
6
CONTINUOUS
10
159.309
20
-42.7644
11
159.327
21
-42.7702
0
LINE
8
BLACK
6
CONTINUOUS
10
159.327
20
-42.7702
11
159.345
21
-42.7795
0
LINE
8
BLACK
6
CONTINUOUS
10
159.345
20
-42.7795
11
159.36
21
-42.7919
0
LINE
8
BLACK
6
CONTINUOUS
10
159.36
20
-42.7919
11
159.373
21
-42.8072
0
LINE
8
BLACK
6
CONTINUOUS
10
159.373
20
-42.8072
11
159.382
21
-42.8245
0
LINE
8
BLACK
6
CONTINUOUS
10
159.382
20
-42.8245
11
159.388
21
-42.8434
0
LINE
8
BLACK
6
CONTINUOUS
10
159.388
20
-42.8434
11
159.389
21
-42.863
0
LINE
8
BLACK
6
CONTINUOUS
10
159.389
20
-42.863
11
159.389
21
-42.8679
0
LINE
8
BLACK
6
CONTINUOUS
10
159.389
20
-42.8679
11
159.389
21
-56.8574
0
LINE
8
BLACK
6
CONTINUOUS
10
159.389
20
-56.8574
11
159.389
21
-56.8623
0
LINE
8
BLACK
6
CONTINUOUS
10
159.389
20
-56.8623
11
159.388
21
-56.8819
0
LINE
8
BLACK
6
CONTINUOUS
10
159.388
20
-56.8819
11
159.382
21
-56.9008
0
LINE
8
BLACK
6
CONTINUOUS
10
159.382
20
-56.9008
11
159.373
21
-56.9181
0
LINE
8
BLACK
6
CONTINUOUS
10
159.373
20
-56.9181
11
159.36
21
-56.9334
0
LINE
8
BLACK
6
CONTINUOUS
10
159.36
20
-56.9334
11
159.345
21
-56.9458
0
LINE
8
BLACK
6
CONTINUOUS
10
159.345
20
-56.9458
11
159.327
21
-56.9551
0
LINE
8
BLACK
6
CONTINUOUS
10
159.327
20
-56.9551
11
159.309
21
-56.9609
0
LINE
8
BLACK
6
CONTINUOUS
10
159.309
20
-56.9609
11
159.294
21
-56.9623
0
LINE
8
BLACK
6
CONTINUOUS
10
159.294
20
-56.9623
11
159.289
21
-56.9628
0
LINE
8
BLACK
6
CONTINUOUS
10
159.289
20
-56.9628
11
159.284
21
-56.9623
0
LINE
8
BLACK
6
CONTINUOUS
10
159.284
20
-56.9623
11
145.295
21
-56.9623
0
LINE
8
BLACK
6
CONTINUOUS
10
145.295
20
-56.9623
11
145.29
21
-56.9628
0
LINE
8
BLACK
6
CONTINUOUS
10
145.29
20
-56.9628
11
145.27
21
-56.9609
0
LINE
8
BLACK
6
CONTINUOUS
10
145.27
20
-56.9609
11
145.252
21
-56.9551
0
LINE
8
BLACK
6
CONTINUOUS
10
145.252
20
-56.9551
11
145.234
21
-56.9458
0
LINE
8
BLACK
6
CONTINUOUS
10
145.234
20
-56.9458
11
145.219
21
-56.9334
0
LINE
8
BLACK
6
CONTINUOUS
10
145.219
20
-56.9334
11
145.206
21
-56.9181
0
LINE
8
BLACK
6
CONTINUOUS
10
145.206
20
-56.9181
11
145.197
21
-56.9008
0
LINE
8
BLACK
6
CONTINUOUS
10
145.197
20
-56.9008
11
145.191
21
-56.8819
0
LINE
8
BLACK
6
CONTINUOUS
10
145.191
20
-56.8819
11
145.19
21
-56.8623
0
LINE
8
BLACK
6
CONTINUOUS
10
145.19
20
-56.8623
11
145.19
21
-56.8574
0
LINE
8
BLACK
6
CONTINUOUS
10
145.19
20
-56.8574
11
145.19
21
-42.8679
0
LINE
8
BLACK
6
CONTINUOUS
10
145.19
20
-42.8679
11
145.19
21
-42.863
0
LINE
8
BLACK
6
CONTINUOUS
10
145.19
20
-42.863
11
145.191
21
-42.8434
0
LINE
8
BLACK
6
CONTINUOUS
10
145.191
20
-42.8434
11
145.197
21
-42.8245
0
LINE
8
BLACK
6
CONTINUOUS
10
145.197
20
-42.8245
11
145.206
21
-42.8072
0
LINE
8
BLACK
6
CONTINUOUS
10
145.206
20
-42.8072
11
145.219
21
-42.7919
0
LINE
8
BLACK
6
CONTINUOUS
10
145.219
20
-42.7919
11
145.234
21
-42.7795
0
LINE
8
BLACK
6
CONTINUOUS
10
145.234
20
-42.7795
11
145.252
21
-42.7702
0
LINE
8
BLACK
6
CONTINUOUS
10
145.252
20
-42.7702
11
145.27
21
-42.7644
0
LINE
8
BLACK
6
CONTINUOUS
10
145.27
20
-42.7644
11
145.285
21
-42.763
0
LINE
8
BLACK
6
CONTINUOUS
10
145.285
20
-42.763
11
145.29
21
-42.7625
0
LINE
8
BLACK
6
CONTINUOUS
10
145.29
20
-42.7625
11
145.295
21
-42.763
0
LINE
8
BLACK
6
CONTINUOUS
10
145.295
20
-42.763
11
159.284
21
-42.763
0
LINE
8
BLACK
6
CONTINUOUS
10
159.284
20
-42.763
11
159.289
21
-42.7625
0
LINE
8
BLACK
6
CONTINUOUS
10
159.289
20
-42.7625
11
159.294
21
-42.763
0
LINE
8
BLACK
6
CONTINUOUS
10
145.39
20
-42.963
11
145.39
21
-56.7623
0
LINE
8
BLACK
6
CONTINUOUS
10
145.39
20
-56.7623
11
159.189
21
-56.7623
0
LINE
8
BLACK
6
CONTINUOUS
10
159.189
20
-56.7623
11
159.189
21
-42.963
0
LINE
8
BLACK
6
CONTINUOUS
10
159.189
20
-42.963
11
145.39
21
-42.963
0
LINE
8
BLACK
6
CONTINUOUS
10
178.344
20
-42.763
11
178.359
21
-42.7644
0
LINE
8
BLACK
6
CONTINUOUS
10
178.359
20
-42.7644
11
178.377
21
-42.7702
0
LINE
8
BLACK
6
CONTINUOUS
10
178.377
20
-42.7702
11
178.395
21
-42.7795
0
LINE
8
BLACK
6
CONTINUOUS
10
178.395
20
-42.7795
11
178.41
21
-42.7919
0
LINE
8
BLACK
6
CONTINUOUS
10
178.41
20
-42.7919
11
178.423
21
-42.8072
0
LINE
8
BLACK
6
CONTINUOUS
10
178.423
20
-42.8072
11
178.432
21
-42.8245
0
LINE
8
BLACK
6
CONTINUOUS
10
178.432
20
-42.8245
11
178.438
21
-42.8434
0
LINE
8
BLACK
6
CONTINUOUS
10
178.438
20
-42.8434
11
178.439
21
-42.863
0
LINE
8
BLACK
6
CONTINUOUS
10
178.439
20
-42.863
11
178.439
21
-42.8679
0
LINE
8
BLACK
6
CONTINUOUS
10
178.439
20
-42.8679
11
178.439
21
-56.8574
0
LINE
8
BLACK
6
CONTINUOUS
10
178.439
20
-56.8574
11
178.439
21
-56.8623
0
LINE
8
BLACK
6
CONTINUOUS
10
178.439
20
-56.8623
11
178.438
21
-56.8819
0
LINE
8
BLACK
6
CONTINUOUS
10
178.438
20
-56.8819
11
178.432
21
-56.9008
0
LINE
8
BLACK
6
CONTINUOUS
10
178.432
20
-56.9008
11
178.423
21
-56.9181
0
LINE
8
BLACK
6
CONTINUOUS
10
178.423
20
-56.9181
11
178.41
21
-56.9334
0
LINE
8
BLACK
6
CONTINUOUS
10
178.41
20
-56.9334
11
178.395
21
-56.9458
0
LINE
8
BLACK
6
CONTINUOUS
10
178.395
20
-56.9458
11
178.377
21
-56.9551
0
LINE
8
BLACK
6
CONTINUOUS
10
178.377
20
-56.9551
11
178.359
21
-56.9609
0
LINE
8
BLACK
6
CONTINUOUS
10
178.359
20
-56.9609
11
178.344
21
-56.9623
0
LINE
8
BLACK
6
CONTINUOUS
10
178.344
20
-56.9623
11
178.339
21
-56.9628
0
LINE
8
BLACK
6
CONTINUOUS
10
178.339
20
-56.9628
11
178.334
21
-56.9623
0
LINE
8
BLACK
6
CONTINUOUS
10
178.334
20
-56.9623
11
164.345
21
-56.9623
0
LINE
8
BLACK
6
CONTINUOUS
10
164.345
20
-56.9623
11
164.34
21
-56.9628
0
LINE
8
BLACK
6
CONTINUOUS
10
164.34
20
-56.9628
11
164.32
21
-56.9609
0
LINE
8
BLACK
6
CONTINUOUS
10
164.32
20
-56.9609
11
164.302
21
-56.9551
0
LINE
8
BLACK
6
CONTINUOUS
10
164.302
20
-56.9551
11
164.284
21
-56.9458
0
LINE
8
BLACK
6
CONTINUOUS
10
164.284
20
-56.9458
11
164.269
21
-56.9334
0
LINE
8
BLACK
6
CONTINUOUS
10
164.269
20
-56.9334
11
164.256
21
-56.9181
0
LINE
8
BLACK
6
CONTINUOUS
10
164.256
20
-56.9181
11
164.247
21
-56.9008
0
LINE
8
BLACK
6
CONTINUOUS
10
164.247
20
-56.9008
11
164.241
21
-56.8819
0
LINE
8
BLACK
6
CONTINUOUS
10
164.241
20
-56.8819
11
164.24
21
-56.8623
0
LINE
8
BLACK
6
CONTINUOUS
10
164.24
20
-56.8623
11
164.24
21
-56.8574
0
LINE
8
BLACK
6
CONTINUOUS
10
164.24
20
-56.8574
11
164.24
21
-42.8679
0
LINE
8
BLACK
6
CONTINUOUS
10
164.24
20
-42.8679
11
164.24
21
-42.863
0
LINE
8
BLACK
6
CONTINUOUS
10
164.24
20
-42.863
11
164.241
21
-42.8434
0
LINE
8
BLACK
6
CONTINUOUS
10
164.241
20
-42.8434
11
164.247
21
-42.8245
0
LINE
8
BLACK
6
CONTINUOUS
10
164.247
20
-42.8245
11
164.256
21
-42.8072
0
LINE
8
BLACK
6
CONTINUOUS
10
164.256
20
-42.8072
11
164.269
21
-42.7919
0
LINE
8
BLACK
6
CONTINUOUS
10
164.269
20
-42.7919
11
164.284
21
-42.7795
0
LINE
8
BLACK
6
CONTINUOUS
10
164.284
20
-42.7795
11
164.302
21
-42.7702
0
LINE
8
BLACK
6
CONTINUOUS
10
164.302
20
-42.7702
11
164.32
21
-42.7644
0
LINE
8
BLACK
6
CONTINUOUS
10
164.32
20
-42.7644
11
164.335
21
-42.763
0
LINE
8
BLACK
6
CONTINUOUS
10
164.335
20
-42.763
11
164.34
21
-42.7625
0
LINE
8
BLACK
6
CONTINUOUS
10
164.34
20
-42.7625
11
164.345
21
-42.763
0
LINE
8
BLACK
6
CONTINUOUS
10
164.345
20
-42.763
11
178.334
21
-42.763
0
LINE
8
BLACK
6
CONTINUOUS
10
178.334
20
-42.763
11
178.339
21
-42.7625
0
LINE
8
BLACK
6
CONTINUOUS
10
178.339
20
-42.7625
11
178.344
21
-42.763
0
LINE
8
BLACK
6
CONTINUOUS
10
164.44
20
-42.963
11
164.44
21
-56.7623
0
LINE
8
BLACK
6
CONTINUOUS
10
164.44
20
-56.7623
11
178.239
21
-56.7623
0
LINE
8
BLACK
6
CONTINUOUS
10
178.239
20
-56.7623
11
178.239
21
-42.963
0
LINE
8
BLACK
6
CONTINUOUS
10
178.239
20
-42.963
11
164.44
21
-42.963
  0
ENDSEC
  0
EOF
