M48
; DRILL file {KiCad 5.1.9} date Tue Apr  6 00:26:12 2021
; FORMAT={-:-/ absolute / inch / decimal}
; #@! TF.CreationDate,2021-04-06T00:26:12+02:00
; #@! TF.GenerationSoftware,Kicad,Pcbnew,5.1.9
; #@! TF.FileFunction,NonPlated,1,2,NPTH
FMAT,2
INCH
T1C0.0315
T2C0.0670
T3C0.1570
%
G90
G05
T1
X8.5588Y-3.6161
X8.5592Y-3.5275
X8.8344Y-3.6161
X8.8348Y-3.5275
T2
X2.0454Y-3.8381
X2.4454Y-3.8381
X2.7954Y-2.7131
X2.7954Y-3.4631
X2.7954Y-4.2131
X3.1954Y-2.7131
X3.1954Y-3.4631
X3.1954Y-4.2131
X3.5454Y-1.9631
X3.5454Y-2.7131
X3.5454Y-3.4631
X3.5454Y-4.2131
X3.9454Y-1.9631
X3.9454Y-2.7131
X3.9454Y-3.4631
X3.9454Y-4.2131
X4.2954Y-1.9631
X4.2954Y-2.7131
X4.2954Y-3.4631
X4.2954Y-4.2131
X4.6954Y-1.9631
X4.6954Y-2.7131
X4.6954Y-3.4631
X4.6954Y-4.2131
X5.0454Y-1.9631
X5.0454Y-2.7131
X5.0454Y-3.4631
X5.0454Y-4.2131
X5.4454Y-1.9631
X5.4454Y-2.7131
X5.4454Y-3.4631
X5.4454Y-4.2131
X5.7954Y-1.9631
X5.7954Y-2.7131
X5.7954Y-3.4631
X5.7954Y-4.2131
X5.7954Y-5.1506
X6.1954Y-1.9631
X6.1954Y-2.7131
X6.1954Y-3.4631
X6.1954Y-4.2131
X6.1954Y-5.1506
X6.5454Y-1.9631
X6.5454Y-2.7131
X6.5454Y-3.4631
X6.5454Y-4.2131
X6.5454Y-5.3381
X6.9454Y-1.9631
X6.9454Y-2.7131
X6.9454Y-3.4631
X6.9454Y-4.2131
X6.9454Y-5.3381
X7.2954Y-2.1506
X7.2954Y-2.9006
X7.2954Y-3.6506
X7.2954Y-5.5256
X7.6954Y-2.1506
X7.6954Y-2.9006
X7.6954Y-3.6506
X7.6954Y-5.5256
X7.8338Y-4.5183
X8.1166Y-4.8011
T3
X2.2454Y-3.8381
X2.9954Y-2.7131
X2.9954Y-3.4631
X2.9954Y-4.2131
X3.7454Y-1.9631
X3.7454Y-2.7131
X3.7454Y-3.4631
X3.7454Y-4.2131
X4.4954Y-1.9631
X4.4954Y-2.7131
X4.4954Y-3.4631
X4.4954Y-4.2131
X5.2454Y-1.9631
X5.2454Y-2.7131
X5.2454Y-3.4631
X5.2454Y-4.2131
X5.9954Y-1.9631
X5.9954Y-2.7131
X5.9954Y-3.4631
X5.9954Y-4.2131
X5.9954Y-5.1506
X6.7454Y-1.9631
X6.7454Y-2.7131
X6.7454Y-3.4631
X6.7454Y-4.2131
X6.7454Y-5.3381
X7.4954Y-2.1506
X7.4954Y-2.9006
X7.4954Y-3.6506
X7.4954Y-5.5256
X7.9752Y-4.6597
T0
M30
