%TF.GenerationSoftware,KiCad,Pcbnew,5.1.9*%
%TF.CreationDate,2021-04-18T17:12:56+02:00*%
%TF.ProjectId,Crystal-Zeliska-plate,43727973-7461-46c2-9d5a-656c69736b61,rev?*%
%TF.SameCoordinates,Original*%
%TF.FileFunction,Legend,Top*%
%TF.FilePolarity,Positive*%
%FSLAX46Y46*%
G04 Gerber Fmt 4.6, Leading zero omitted, Abs format (unit mm)*
G04 Created by KiCad (PCBNEW 5.1.9) date 2021-04-18 17:12:56*
%MOMM*%
%LPD*%
G01*
G04 APERTURE LIST*
%TA.AperFunction,Profile*%
%ADD10C,0.100000*%
%TD*%
%TA.AperFunction,Profile*%
%ADD11C,0.200000*%
%TD*%
%ADD12C,0.200000*%
%ADD13C,0.150000*%
G04 APERTURE END LIST*
D10*
X182736236Y-39662123D02*
X198464420Y-39708640D01*
X199674420Y-40908640D02*
X199674420Y-91798640D01*
X199674420Y-91798640D02*
X205854420Y-97978640D01*
X219114420Y-97978640D02*
X224854420Y-103718640D01*
X224854420Y-103718640D02*
X224857219Y-107078640D01*
X224857219Y-107078640D02*
X199403716Y-132532143D01*
X199403716Y-132532143D02*
X199403716Y-146819643D01*
X197023736Y-149197083D02*
X177973736Y-149197083D01*
X177973736Y-34899623D02*
X182736236Y-39662123D01*
D11*
X137247376Y-58955963D02*
X137247376Y-72755783D01*
X123447556Y-72755783D02*
X123447556Y-58955963D01*
X123447556Y-91805783D02*
X137247376Y-91805783D01*
X137247376Y-78005963D02*
X123447556Y-78005963D01*
X137247376Y-78005963D02*
X137247376Y-91805783D01*
X123447556Y-91805783D02*
X123447556Y-78005963D01*
X123447556Y-110855783D02*
X123447556Y-97055963D01*
X137247376Y-97055963D02*
X137247376Y-110855783D01*
X194397376Y-63718463D02*
X194397376Y-77518283D01*
X180597556Y-77518283D02*
X180597556Y-63718463D01*
X180597556Y-96568283D02*
X180597556Y-82768463D01*
X194397376Y-82768463D02*
X194397376Y-96568283D01*
X194397376Y-82768463D02*
X180597556Y-82768463D01*
X180597556Y-96568283D02*
X194397376Y-96568283D01*
X189924436Y-115298243D02*
X199683116Y-125056923D01*
X209441796Y-115298243D02*
X199683116Y-105542103D01*
X99147376Y-39905963D02*
X85347556Y-39905963D01*
X85347556Y-53705783D02*
X99147376Y-53705783D01*
X85347556Y-72755783D02*
X85347556Y-58955963D01*
X99147376Y-58955963D02*
X99147376Y-72755783D01*
X99147376Y-58955963D02*
X85347556Y-58955963D01*
X85347556Y-72755783D02*
X99147376Y-72755783D01*
X85347556Y-91805783D02*
X85347556Y-78005963D01*
X99147376Y-78005963D02*
X99147376Y-91805783D01*
X175347376Y-39905963D02*
X161547556Y-39905963D01*
X161547556Y-53705783D02*
X175347376Y-53705783D01*
X66297556Y-72755783D02*
X66297556Y-58955963D01*
X80097376Y-58955963D02*
X80097376Y-72755783D01*
X80097376Y-58955963D02*
X66297556Y-58955963D01*
X66297556Y-72755783D02*
X80097376Y-72755783D01*
X66297556Y-110855783D02*
X80097376Y-110855783D01*
X80097376Y-97055963D02*
X66297556Y-97055963D01*
X175347376Y-58955963D02*
X175347376Y-72755783D01*
X161547556Y-72755783D02*
X161547556Y-58955963D01*
X161547556Y-91805783D02*
X161547556Y-78005963D01*
X175347376Y-78005963D02*
X175347376Y-91805783D01*
X175347376Y-78005963D02*
X161547556Y-78005963D01*
X161547556Y-91805783D02*
X175347376Y-91805783D01*
X161547556Y-110855783D02*
X161547556Y-97055963D01*
X175347376Y-97055963D02*
X175347376Y-110855783D01*
X118197376Y-39905963D02*
X118197376Y-53705783D01*
X104397556Y-53705783D02*
X104397556Y-39905963D01*
X104397556Y-72755783D02*
X118197376Y-72755783D01*
X118197376Y-58955963D02*
X104397556Y-58955963D01*
X118197376Y-58955963D02*
X118197376Y-72755783D01*
X104397556Y-72755783D02*
X104397556Y-58955963D01*
X104397556Y-110855783D02*
X104397556Y-97055963D01*
X118197376Y-97055963D02*
X118197376Y-110855783D01*
X156297376Y-97055963D02*
X142497556Y-97055963D01*
X142497556Y-110855783D02*
X156297376Y-110855783D01*
X142497556Y-134668283D02*
X156297376Y-134668283D01*
X156297376Y-120868463D02*
X142497556Y-120868463D01*
X156297376Y-120868463D02*
X156297376Y-134668283D01*
X142497556Y-134668283D02*
X142497556Y-120868463D01*
X161547556Y-72755783D02*
X175347376Y-72755783D01*
X175347376Y-58955963D02*
X161547556Y-58955963D01*
X137247376Y-97055963D02*
X123447556Y-97055963D01*
X123447556Y-110855783D02*
X137247376Y-110855783D01*
X142497556Y-53705783D02*
X156297376Y-53705783D01*
X156297376Y-39905963D02*
X142497556Y-39905963D01*
X156297376Y-39905963D02*
X156297376Y-53705783D01*
X142497556Y-53705783D02*
X142497556Y-39905963D01*
X142497556Y-72755783D02*
X156297376Y-72755783D01*
X156297376Y-58955963D02*
X142497556Y-58955963D01*
X175347376Y-97055963D02*
X161547556Y-97055963D01*
X161547556Y-110855783D02*
X175347376Y-110855783D01*
X180597556Y-58468283D02*
X180597556Y-44668463D01*
X194397376Y-44668463D02*
X194397376Y-58468283D01*
X194397376Y-44668463D02*
X180597556Y-44668463D01*
X180597556Y-58468283D02*
X194397376Y-58468283D01*
X180597556Y-77518283D02*
X194397376Y-77518283D01*
X194397376Y-63718463D02*
X180597556Y-63718463D01*
D10*
X63673735Y-115865347D02*
G75*
G02*
X61291216Y-113482143I685J2383204D01*
G01*
D11*
X161547556Y-139430783D02*
X175347376Y-139430783D01*
X175347376Y-125630963D02*
X161547556Y-125630963D01*
X175347376Y-125630963D02*
X175347376Y-139430783D01*
X161547556Y-139430783D02*
X161547556Y-125630963D01*
X161547556Y-53705783D02*
X161547556Y-39905963D01*
X175347376Y-39905963D02*
X175347376Y-53705783D01*
X80097376Y-78005963D02*
X66297556Y-78005963D01*
X66297556Y-91805783D02*
X80097376Y-91805783D01*
X47247556Y-101330783D02*
X61047376Y-101330783D01*
X61047376Y-87530963D02*
X47247556Y-87530963D01*
X61047376Y-87530963D02*
X61047376Y-101330783D01*
X47247556Y-101330783D02*
X47247556Y-87530963D01*
X85347556Y-53705783D02*
X85347556Y-39905963D01*
X99147376Y-39905963D02*
X99147376Y-53705783D01*
X80097376Y-97055963D02*
X80097376Y-110855783D01*
X66297556Y-110855783D02*
X66297556Y-97055963D01*
X104397556Y-91805783D02*
X104397556Y-78005963D01*
X118197376Y-78005963D02*
X118197376Y-91805783D01*
X118197376Y-78005963D02*
X104397556Y-78005963D01*
X104397556Y-91805783D02*
X118197376Y-91805783D01*
X66297556Y-91805783D02*
X66297556Y-78005963D01*
X80097376Y-78005963D02*
X80097376Y-91805783D01*
D10*
X118441216Y-120624623D02*
X113678716Y-115862123D01*
X113678716Y-115862123D02*
X63674244Y-115861361D01*
X61291216Y-113482143D02*
X61291216Y-108719643D01*
X58911236Y-106337123D02*
X44624244Y-106336361D01*
X42241216Y-103957143D02*
X42239831Y-84938638D01*
X44624244Y-82523861D02*
X58911744Y-82523861D01*
X61292994Y-80142611D02*
X61285413Y-56332126D01*
X63673736Y-53949623D02*
X77961744Y-53948861D01*
X177973736Y-149197083D02*
X173211236Y-144437123D01*
X173211236Y-144437123D02*
X158923736Y-144437123D01*
X158923736Y-144437123D02*
X154161236Y-139674623D01*
X154161236Y-139674623D02*
X139873736Y-139674623D01*
X139873736Y-139674623D02*
X130348736Y-132532143D01*
X130348736Y-132532143D02*
X130348736Y-125387123D01*
X130348736Y-125387123D02*
X125586236Y-120624623D01*
X125586236Y-120624623D02*
X118441216Y-120624623D01*
D11*
X209441796Y-115298243D02*
X199683116Y-125056923D01*
X189924436Y-115298243D02*
X199683116Y-105542103D01*
X180597556Y-144193283D02*
X180597556Y-130393463D01*
X194397376Y-130393463D02*
X194397376Y-144193283D01*
X194397376Y-130393463D02*
X180597556Y-130393463D01*
X180597556Y-144193283D02*
X194397376Y-144193283D01*
D10*
X44624244Y-106340347D02*
G75*
G02*
X42241216Y-103957143I176J2383204D01*
G01*
D11*
X156297376Y-58955963D02*
X156297376Y-72755783D01*
X142497556Y-72755783D02*
X142497556Y-58955963D01*
X142497556Y-91805783D02*
X142497556Y-78005963D01*
X156297376Y-78005963D02*
X156297376Y-91805783D01*
X156297376Y-78005963D02*
X142497556Y-78005963D01*
X142497556Y-91805783D02*
X156297376Y-91805783D01*
X142497556Y-110855783D02*
X142497556Y-97055963D01*
X156297376Y-97055963D02*
X156297376Y-110855783D01*
D10*
X42239831Y-84938638D02*
G75*
G02*
X44624245Y-82523862I2384589J29998D01*
G01*
X61285412Y-56332126D02*
G75*
G02*
X63673736Y-53949623I2389008J-6514D01*
G01*
X61290396Y-80142617D02*
G75*
G02*
X58911237Y-82524622I-2375976J-6023D01*
G01*
D11*
X99147376Y-78005963D02*
X85347556Y-78005963D01*
X85347556Y-91805783D02*
X99147376Y-91805783D01*
X85347556Y-110855783D02*
X99147376Y-110855783D01*
X99147376Y-97055963D02*
X85347556Y-97055963D01*
X99147376Y-97055963D02*
X99147376Y-110855783D01*
X85347556Y-110855783D02*
X85347556Y-97055963D01*
X104397556Y-53705783D02*
X118197376Y-53705783D01*
X118197376Y-39905963D02*
X104397556Y-39905963D01*
X118197376Y-97055963D02*
X104397556Y-97055963D01*
X104397556Y-110855783D02*
X118197376Y-110855783D01*
X123447556Y-53705783D02*
X137247376Y-53705783D01*
X137247376Y-39905963D02*
X123447556Y-39905963D01*
X137247376Y-39905963D02*
X137247376Y-53705783D01*
X123447556Y-53705783D02*
X123447556Y-39905963D01*
X123447556Y-72755783D02*
X137247376Y-72755783D01*
X137247376Y-58955963D02*
X123447556Y-58955963D01*
D10*
X80342994Y-51567611D02*
X80341216Y-37282143D01*
X82723736Y-34899623D02*
X177973736Y-34899623D01*
X205854420Y-97978640D02*
X219114420Y-97978640D01*
X199402863Y-146819643D02*
G75*
G02*
X197024420Y-149197083I-2378443J1003D01*
G01*
X198464420Y-39708599D02*
G75*
G02*
X199674420Y-40908640I0J-1210041D01*
G01*
X80345407Y-37282136D02*
G75*
G02*
X82723737Y-34899624I2379013J3496D01*
G01*
X58911241Y-106341847D02*
G75*
G02*
X61291215Y-108719642I3179J-2376793D01*
G01*
X80345404Y-51567609D02*
G75*
G02*
X77961237Y-53949622I-2380984J-1031D01*
G01*
D12*
X184531022Y-106023432D02*
X183906025Y-106669035D01*
X185156607Y-105377222D02*
X185781547Y-106022766D01*
X185156604Y-108631807D02*
X185156604Y-108631807D01*
X185156604Y-108631807D02*
X185079966Y-108684704D01*
X179422903Y-108098025D02*
X179312015Y-107983480D01*
X185161545Y-110601110D02*
X185146205Y-110616949D01*
X185124623Y-104013972D02*
X188979011Y-107995435D01*
X184560032Y-104597177D02*
X184717712Y-104434297D01*
X184717712Y-104434297D02*
X184874859Y-104271969D01*
X184874859Y-104271969D02*
X185027065Y-104114745D01*
X185027065Y-104114745D02*
X185124623Y-104013972D01*
X185689214Y-111393694D02*
X185531532Y-111556573D01*
X185531532Y-111556573D02*
X185374385Y-111718901D01*
X185374385Y-111718901D02*
X185222180Y-111876125D01*
X185222180Y-111876125D02*
X185124623Y-111976899D01*
X180692390Y-106915071D02*
X184077818Y-103417539D01*
X190600442Y-107990353D02*
X190547502Y-107935663D01*
X185322516Y-107289855D02*
X185273922Y-107168669D01*
X185039286Y-107411042D02*
X185220096Y-107448192D01*
X184296898Y-113645115D02*
X181561717Y-116470479D01*
X181561455Y-110819481D02*
X184296898Y-113645115D01*
X187289039Y-108575073D02*
X187147649Y-108721124D01*
X187147649Y-108721124D02*
X186995448Y-108878343D01*
X186995448Y-108878343D02*
X186833700Y-109045423D01*
X186833700Y-109045423D02*
X186663670Y-109221060D01*
X186663670Y-109221060D02*
X186486620Y-109403947D01*
X186486620Y-109403947D02*
X186303815Y-109592779D01*
X186303815Y-109592779D02*
X186163695Y-109737519D01*
X186163695Y-109737519D02*
X186021581Y-109884317D01*
X186021581Y-109884317D02*
X185925996Y-109983055D01*
X182269042Y-113685639D02*
X182329503Y-113698062D01*
X185198795Y-107908603D02*
X185266854Y-107803387D01*
X183042266Y-113685498D02*
X183102517Y-113697878D01*
X175905045Y-106915052D02*
X180692402Y-106915052D01*
X189552568Y-110898824D02*
X187935619Y-112569783D01*
X187131004Y-102295343D02*
X187170098Y-102278616D01*
X187170098Y-102278616D02*
X187221176Y-102313870D01*
X185954560Y-102335725D02*
X188689740Y-105161088D01*
X185457776Y-102335640D02*
X190883707Y-107940683D01*
X190146379Y-97492460D02*
X185457776Y-102335640D01*
X189552568Y-109072252D02*
X186167140Y-112569783D01*
X180692390Y-105088498D02*
X179021431Y-103471549D01*
X183641895Y-113601328D02*
X183665907Y-113726023D01*
X186396457Y-102335725D02*
X186428900Y-102254817D01*
X183102517Y-113697878D02*
X183136647Y-113645115D01*
X189552571Y-109072280D02*
X189338631Y-109293273D01*
X194119791Y-109072280D02*
X189552571Y-109072280D01*
X183228975Y-107197115D02*
X183372120Y-107049250D01*
X183372120Y-107049250D02*
X183513628Y-106903077D01*
X183513628Y-106903077D02*
X183652965Y-106759146D01*
X183652965Y-106759146D02*
X183834450Y-106571678D01*
X183834450Y-106571678D02*
X184009864Y-106390481D01*
X184009864Y-106390481D02*
X184177942Y-106216861D01*
X184177942Y-106216861D02*
X184337422Y-106052123D01*
X184337422Y-106052123D02*
X184487038Y-105897574D01*
X184487038Y-105897574D02*
X184592018Y-105789134D01*
X185156609Y-110777808D02*
X182459588Y-107991870D01*
X185350141Y-106747441D02*
X185293456Y-106606077D01*
X185230668Y-106932141D02*
X185348915Y-106769944D01*
X185348915Y-106769944D02*
X185350141Y-106747441D01*
X185079966Y-108684704D02*
X185097948Y-108778084D01*
X185156607Y-110606320D02*
X183325917Y-108715278D01*
X185156607Y-110606320D02*
X186986191Y-108716417D01*
X185188348Y-108796659D02*
X185239556Y-108717494D01*
X185215260Y-108656904D02*
X185156604Y-108631807D01*
X182347502Y-113604592D02*
X182308272Y-113587806D01*
X185266854Y-107803387D02*
X185234562Y-107722859D01*
X185156607Y-106062276D02*
X185625720Y-106546857D01*
X184687572Y-106546774D02*
X185156607Y-106062276D01*
X184387221Y-106000683D02*
X183228975Y-107197115D01*
X184592018Y-105789134D02*
X184749699Y-105626254D01*
X184749699Y-105626254D02*
X184906846Y-105463926D01*
X184906846Y-105463926D02*
X185059051Y-105306702D01*
X185059051Y-105306702D02*
X185156609Y-105205929D01*
X185124623Y-104013972D02*
X185124623Y-104013972D01*
X182329503Y-113698062D02*
X182363752Y-113645115D01*
X185220096Y-107448192D02*
X185322516Y-107289855D01*
X183136647Y-113645115D02*
X183120454Y-113604734D01*
X185234562Y-107722859D02*
X185156604Y-107689503D01*
X183081360Y-113588006D02*
X183081360Y-113588006D01*
X180277260Y-118310842D02*
X180104961Y-118488820D01*
X184794112Y-113645070D02*
X180104961Y-118488813D01*
X185126196Y-113645070D02*
X184794112Y-113645070D01*
X185156604Y-107689503D02*
X185156604Y-107689503D01*
X183196989Y-106005158D02*
X183340134Y-105857293D01*
X183340134Y-105857293D02*
X183481642Y-105711120D01*
X183481642Y-105711120D02*
X183620979Y-105567189D01*
X183620979Y-105567189D02*
X183802464Y-105379721D01*
X183802464Y-105379721D02*
X183977877Y-105198524D01*
X183977877Y-105198524D02*
X184145956Y-105024904D01*
X184145956Y-105024904D02*
X184305436Y-104860166D01*
X184305436Y-104860166D02*
X184455052Y-104705617D01*
X184455052Y-104705617D02*
X184560032Y-104597177D01*
X182363752Y-113645115D02*
X182347502Y-113604592D01*
X187221176Y-102313870D02*
X187209192Y-102376108D01*
X186507226Y-102221304D02*
X186609563Y-102291938D01*
X182308272Y-113587806D02*
X182308272Y-113587806D01*
X186428900Y-102254817D02*
X186507226Y-102221304D01*
X187903956Y-102295202D02*
X187943186Y-102278416D01*
X181270235Y-107995435D02*
X181416967Y-107843865D01*
X181416967Y-107843865D02*
X181568395Y-107687445D01*
X181568395Y-107687445D02*
X181737367Y-107512901D01*
X181737367Y-107512901D02*
X181834826Y-107412230D01*
X185124623Y-111976899D02*
X181270235Y-107995435D01*
X187943186Y-102278416D02*
X187994442Y-102313794D01*
X187209192Y-102376108D02*
X187148941Y-102388488D01*
X185019752Y-106888805D02*
X185216989Y-106937381D01*
X185216989Y-106937381D02*
X185230668Y-106932141D01*
X184977799Y-106670936D02*
X185005213Y-106871997D01*
X185005213Y-106871997D02*
X185019752Y-106888805D01*
X187982416Y-102376249D02*
X187921955Y-102388672D01*
X186464836Y-102441437D02*
X186396457Y-102335725D01*
X183081360Y-113588006D02*
X183030282Y-113623261D01*
X183786622Y-113750828D02*
X183855001Y-113645115D01*
X189552571Y-109072280D02*
X194119791Y-109072280D01*
X180692402Y-106915052D02*
X180867818Y-106733853D01*
X190146378Y-97492453D02*
X189815073Y-97492225D01*
X190033251Y-97609308D02*
X190146378Y-97492453D01*
X187887706Y-102335725D02*
X187903956Y-102295202D01*
X183030282Y-113623261D02*
X183042266Y-113685498D01*
X183024179Y-107408664D02*
X183165568Y-107262612D01*
X183165568Y-107262612D02*
X183317769Y-107105393D01*
X183317769Y-107105393D02*
X183479517Y-106938313D01*
X183479517Y-106938313D02*
X183649547Y-106762676D01*
X183649547Y-106762676D02*
X183826597Y-106579789D01*
X183826597Y-106579789D02*
X184009402Y-106390957D01*
X184009402Y-106390957D02*
X184149522Y-106246218D01*
X184149522Y-106246218D02*
X184291635Y-106099420D01*
X184291635Y-106099420D02*
X184387221Y-106000683D01*
X182459588Y-107991870D02*
X182606320Y-107840299D01*
X182606320Y-107840299D02*
X182757747Y-107683879D01*
X182757747Y-107683879D02*
X182926720Y-107509335D01*
X182926720Y-107509335D02*
X183024179Y-107408664D01*
X185925996Y-109983055D02*
X187084243Y-108786622D01*
X185721200Y-110194603D02*
X185563518Y-110357482D01*
X185563518Y-110357482D02*
X185406371Y-110519810D01*
X185406371Y-110519810D02*
X185254166Y-110677034D01*
X185254166Y-110677034D02*
X185156609Y-110777808D01*
X186507226Y-102221304D02*
X186507226Y-102221304D01*
X187084243Y-108786622D02*
X186941097Y-108934486D01*
X186941097Y-108934486D02*
X186799589Y-109080660D01*
X186799589Y-109080660D02*
X186660252Y-109224591D01*
X186660252Y-109224591D02*
X186478767Y-109412059D01*
X186478767Y-109412059D02*
X186303353Y-109593256D01*
X186303353Y-109593256D02*
X186135275Y-109766876D01*
X186135275Y-109766876D02*
X185975795Y-109931613D01*
X185975795Y-109931613D02*
X185826179Y-110086162D01*
X185826179Y-110086162D02*
X185721200Y-110194603D01*
X185156609Y-105205929D02*
X187853630Y-107991870D01*
X183744232Y-113530694D02*
X183641895Y-113601328D01*
X187921955Y-102388672D02*
X187887706Y-102335725D01*
X183822558Y-113564208D02*
X183744232Y-113530694D01*
X186609563Y-102291938D02*
X186585551Y-102416633D01*
X185156604Y-107118473D02*
X185156604Y-107118473D01*
X187853630Y-107991870D02*
X187706897Y-108143439D01*
X187706897Y-108143439D02*
X187555470Y-108299859D01*
X187555470Y-108299859D02*
X187386497Y-108474401D01*
X187386497Y-108474401D02*
X187289039Y-108575073D01*
X187052256Y-109985713D02*
X186909110Y-110133577D01*
X186909110Y-110133577D02*
X186767602Y-110279750D01*
X186767602Y-110279750D02*
X186628265Y-110423681D01*
X186628265Y-110423681D02*
X186446781Y-110611149D01*
X186446781Y-110611149D02*
X186271367Y-110792346D01*
X186271367Y-110792346D02*
X186103289Y-110965966D01*
X186103289Y-110965966D02*
X185943809Y-111130704D01*
X185943809Y-111130704D02*
X185794193Y-111285253D01*
X185794193Y-111285253D02*
X185689214Y-111393694D01*
X185156604Y-106547524D02*
X184983883Y-106657239D01*
X184983883Y-106657239D02*
X184977799Y-106670936D01*
X185781547Y-106022766D02*
X186406713Y-106668547D01*
X183197869Y-106004250D02*
X183196989Y-106005158D01*
X180437483Y-118488469D02*
X180552446Y-118369709D01*
X180104961Y-118488820D02*
X180437483Y-118488469D01*
X185239556Y-108717494D02*
X185215260Y-108656904D01*
X182308272Y-113587806D02*
X182257016Y-113623184D01*
X183744232Y-113530694D02*
X183744232Y-113530694D01*
X183120454Y-113604734D02*
X183081360Y-113588006D01*
X187994442Y-102313794D02*
X187982416Y-102376249D01*
X184531022Y-106023432D02*
X185156607Y-105377222D01*
X185156609Y-105205929D02*
X185156609Y-105205929D01*
X185003321Y-107224270D02*
X185039286Y-107411042D01*
X185156604Y-107118473D02*
X185003321Y-107224270D01*
X187114811Y-102335725D02*
X187131004Y-102295343D01*
X183855001Y-113645115D02*
X183822558Y-113564208D01*
X188690003Y-99510091D02*
X185954560Y-102335725D01*
X182257016Y-113623184D02*
X182269042Y-113685639D01*
X185054747Y-107759805D02*
X185078646Y-107883915D01*
X187051377Y-109986622D02*
X187052256Y-109985713D01*
X185126195Y-102335690D02*
X190547486Y-107935715D01*
X189815073Y-97492225D02*
X185126195Y-102335690D01*
X185293456Y-106606077D02*
X185156604Y-106547524D01*
X185126196Y-113645070D02*
X179712940Y-108053339D01*
X180437483Y-118488364D02*
X185126196Y-113645070D01*
X185273922Y-107168669D02*
X185156604Y-107118473D01*
X190931807Y-107990353D02*
X190600442Y-107990353D01*
X190883707Y-107940683D02*
X190931807Y-107990353D01*
X185078646Y-107883915D02*
X185198795Y-107908603D01*
X185156604Y-107689503D02*
X185054747Y-107759805D01*
X185156604Y-106547524D02*
X185156604Y-106547524D01*
X183665907Y-113726023D02*
X183786622Y-113750828D01*
X179651961Y-107990381D02*
X179712941Y-108053370D01*
X179312015Y-107983480D02*
X179651961Y-107990381D01*
X186585551Y-102416633D02*
X186464836Y-102441437D01*
X187943186Y-102278416D02*
X187943186Y-102278416D01*
X187170098Y-102278616D02*
X187170098Y-102278616D01*
X179312018Y-107983479D02*
X184801951Y-113648301D01*
X185126196Y-102335640D02*
X185457776Y-102335640D01*
X181834826Y-107412230D02*
X181976215Y-107266179D01*
X181976215Y-107266179D02*
X182128416Y-107108960D01*
X182128416Y-107108960D02*
X182290164Y-106941880D01*
X182290164Y-106941880D02*
X182460195Y-106766244D01*
X182460195Y-106766244D02*
X182637245Y-106583357D01*
X182637245Y-106583357D02*
X182820050Y-106394525D01*
X182820050Y-106394525D02*
X182960170Y-106249785D01*
X182960170Y-106249785D02*
X183102283Y-106102987D01*
X183102283Y-106102987D02*
X183197869Y-106004250D01*
X188979011Y-107995435D02*
X188832278Y-108147005D01*
X188832278Y-108147005D02*
X188680850Y-108303424D01*
X188680850Y-108303424D02*
X188511878Y-108477968D01*
X188511878Y-108477968D02*
X188414420Y-108578640D01*
X187148941Y-102388488D02*
X187114811Y-102335725D01*
X185097948Y-108778084D02*
X185188348Y-108796659D01*
X188414420Y-108578640D02*
X188273029Y-108724691D01*
X188273029Y-108724691D02*
X188120829Y-108881910D01*
X188120829Y-108881910D02*
X187959081Y-109048991D01*
X187959081Y-109048991D02*
X187789050Y-109224627D01*
X187789050Y-109224627D02*
X187612000Y-109407514D01*
X187612000Y-109407514D02*
X187429195Y-109596346D01*
X187429195Y-109596346D02*
X187289075Y-109741086D01*
X187289075Y-109741086D02*
X187146962Y-109887884D01*
X187146962Y-109887884D02*
X187051377Y-109986622D01*
D13*
X217991086Y-65831020D02*
X217657753Y-65354830D01*
X217419658Y-65831020D02*
X217419658Y-64831020D01*
X217800610Y-64831020D01*
X217895848Y-64878640D01*
X217943467Y-64926259D01*
X217991086Y-65021497D01*
X217991086Y-65164354D01*
X217943467Y-65259592D01*
X217895848Y-65307211D01*
X217800610Y-65354830D01*
X217419658Y-65354830D01*
X218419658Y-65307211D02*
X218752991Y-65307211D01*
X218895848Y-65831020D02*
X218419658Y-65831020D01*
X218419658Y-64831020D01*
X218895848Y-64831020D01*
X219657753Y-65307211D02*
X219324420Y-65307211D01*
X219324420Y-65831020D02*
X219324420Y-64831020D01*
X219800610Y-64831020D01*
X220324420Y-64831020D02*
X220324420Y-65069116D01*
X220086324Y-64973878D02*
X220324420Y-65069116D01*
X220562515Y-64973878D01*
X220181562Y-65259592D02*
X220324420Y-65069116D01*
X220467277Y-65259592D01*
X221086324Y-64831020D02*
X221086324Y-65069116D01*
X220848229Y-64973878D02*
X221086324Y-65069116D01*
X221324420Y-64973878D01*
X220943467Y-65259592D02*
X221086324Y-65069116D01*
X221229181Y-65259592D01*
X218141086Y-68611020D02*
X217807753Y-68134830D01*
X217569658Y-68611020D02*
X217569658Y-67611020D01*
X217950610Y-67611020D01*
X218045848Y-67658640D01*
X218093467Y-67706259D01*
X218141086Y-67801497D01*
X218141086Y-67944354D01*
X218093467Y-68039592D01*
X218045848Y-68087211D01*
X217950610Y-68134830D01*
X217569658Y-68134830D01*
X218569658Y-68087211D02*
X218902991Y-68087211D01*
X219045848Y-68611020D02*
X218569658Y-68611020D01*
X218569658Y-67611020D01*
X219045848Y-67611020D01*
X219807753Y-68087211D02*
X219474420Y-68087211D01*
X219474420Y-68611020D02*
X219474420Y-67611020D01*
X219950610Y-67611020D01*
X220474420Y-67611020D02*
X220474420Y-67849116D01*
X220236324Y-67753878D02*
X220474420Y-67849116D01*
X220712515Y-67753878D01*
X220331562Y-68039592D02*
X220474420Y-67849116D01*
X220617277Y-68039592D01*
X221236324Y-67611020D02*
X221236324Y-67849116D01*
X220998229Y-67753878D02*
X221236324Y-67849116D01*
X221474420Y-67753878D01*
X221093467Y-68039592D02*
X221236324Y-67849116D01*
X221379181Y-68039592D01*
X223551086Y-62371020D02*
X223217753Y-61894830D01*
X222979658Y-62371020D02*
X222979658Y-61371020D01*
X223360610Y-61371020D01*
X223455848Y-61418640D01*
X223503467Y-61466259D01*
X223551086Y-61561497D01*
X223551086Y-61704354D01*
X223503467Y-61799592D01*
X223455848Y-61847211D01*
X223360610Y-61894830D01*
X222979658Y-61894830D01*
X223979658Y-61847211D02*
X224312991Y-61847211D01*
X224455848Y-62371020D02*
X223979658Y-62371020D01*
X223979658Y-61371020D01*
X224455848Y-61371020D01*
X225217753Y-61847211D02*
X224884420Y-61847211D01*
X224884420Y-62371020D02*
X224884420Y-61371020D01*
X225360610Y-61371020D01*
X225884420Y-61371020D02*
X225884420Y-61609116D01*
X225646324Y-61513878D02*
X225884420Y-61609116D01*
X226122515Y-61513878D01*
X225741562Y-61799592D02*
X225884420Y-61609116D01*
X226027277Y-61799592D01*
X226646324Y-61371020D02*
X226646324Y-61609116D01*
X226408229Y-61513878D02*
X226646324Y-61609116D01*
X226884420Y-61513878D01*
X226503467Y-61799592D02*
X226646324Y-61609116D01*
X226789181Y-61799592D01*
X222161086Y-66851020D02*
X221827753Y-66374830D01*
X221589658Y-66851020D02*
X221589658Y-65851020D01*
X221970610Y-65851020D01*
X222065848Y-65898640D01*
X222113467Y-65946259D01*
X222161086Y-66041497D01*
X222161086Y-66184354D01*
X222113467Y-66279592D01*
X222065848Y-66327211D01*
X221970610Y-66374830D01*
X221589658Y-66374830D01*
X222589658Y-66327211D02*
X222922991Y-66327211D01*
X223065848Y-66851020D02*
X222589658Y-66851020D01*
X222589658Y-65851020D01*
X223065848Y-65851020D01*
X223827753Y-66327211D02*
X223494420Y-66327211D01*
X223494420Y-66851020D02*
X223494420Y-65851020D01*
X223970610Y-65851020D01*
X224494420Y-65851020D02*
X224494420Y-66089116D01*
X224256324Y-65993878D02*
X224494420Y-66089116D01*
X224732515Y-65993878D01*
X224351562Y-66279592D02*
X224494420Y-66089116D01*
X224637277Y-66279592D01*
X225256324Y-65851020D02*
X225256324Y-66089116D01*
X225018229Y-65993878D02*
X225256324Y-66089116D01*
X225494420Y-65993878D01*
X225113467Y-66279592D02*
X225256324Y-66089116D01*
X225399181Y-66279592D01*
X223701086Y-69541020D02*
X223367753Y-69064830D01*
X223129658Y-69541020D02*
X223129658Y-68541020D01*
X223510610Y-68541020D01*
X223605848Y-68588640D01*
X223653467Y-68636259D01*
X223701086Y-68731497D01*
X223701086Y-68874354D01*
X223653467Y-68969592D01*
X223605848Y-69017211D01*
X223510610Y-69064830D01*
X223129658Y-69064830D01*
X224129658Y-69017211D02*
X224462991Y-69017211D01*
X224605848Y-69541020D02*
X224129658Y-69541020D01*
X224129658Y-68541020D01*
X224605848Y-68541020D01*
X225367753Y-69017211D02*
X225034420Y-69017211D01*
X225034420Y-69541020D02*
X225034420Y-68541020D01*
X225510610Y-68541020D01*
X226034420Y-68541020D02*
X226034420Y-68779116D01*
X225796324Y-68683878D02*
X226034420Y-68779116D01*
X226272515Y-68683878D01*
X225891562Y-68969592D02*
X226034420Y-68779116D01*
X226177277Y-68969592D01*
X226796324Y-68541020D02*
X226796324Y-68779116D01*
X226558229Y-68683878D02*
X226796324Y-68779116D01*
X227034420Y-68683878D01*
X226653467Y-68969592D02*
X226796324Y-68779116D01*
X226939181Y-68969592D01*
X220921086Y-70771020D02*
X220587753Y-70294830D01*
X220349658Y-70771020D02*
X220349658Y-69771020D01*
X220730610Y-69771020D01*
X220825848Y-69818640D01*
X220873467Y-69866259D01*
X220921086Y-69961497D01*
X220921086Y-70104354D01*
X220873467Y-70199592D01*
X220825848Y-70247211D01*
X220730610Y-70294830D01*
X220349658Y-70294830D01*
X221349658Y-70247211D02*
X221682991Y-70247211D01*
X221825848Y-70771020D02*
X221349658Y-70771020D01*
X221349658Y-69771020D01*
X221825848Y-69771020D01*
X222587753Y-70247211D02*
X222254420Y-70247211D01*
X222254420Y-70771020D02*
X222254420Y-69771020D01*
X222730610Y-69771020D01*
X223254420Y-69771020D02*
X223254420Y-70009116D01*
X223016324Y-69913878D02*
X223254420Y-70009116D01*
X223492515Y-69913878D01*
X223111562Y-70199592D02*
X223254420Y-70009116D01*
X223397277Y-70199592D01*
X224016324Y-69771020D02*
X224016324Y-70009116D01*
X223778229Y-69913878D02*
X224016324Y-70009116D01*
X224254420Y-69913878D01*
X223873467Y-70199592D02*
X224016324Y-70009116D01*
X224159181Y-70199592D01*
X219691086Y-55941020D02*
X219357753Y-55464830D01*
X219119658Y-55941020D02*
X219119658Y-54941020D01*
X219500610Y-54941020D01*
X219595848Y-54988640D01*
X219643467Y-55036259D01*
X219691086Y-55131497D01*
X219691086Y-55274354D01*
X219643467Y-55369592D01*
X219595848Y-55417211D01*
X219500610Y-55464830D01*
X219119658Y-55464830D01*
X220119658Y-55417211D02*
X220452991Y-55417211D01*
X220595848Y-55941020D02*
X220119658Y-55941020D01*
X220119658Y-54941020D01*
X220595848Y-54941020D01*
X221357753Y-55417211D02*
X221024420Y-55417211D01*
X221024420Y-55941020D02*
X221024420Y-54941020D01*
X221500610Y-54941020D01*
X222024420Y-54941020D02*
X222024420Y-55179116D01*
X221786324Y-55083878D02*
X222024420Y-55179116D01*
X222262515Y-55083878D01*
X221881562Y-55369592D02*
X222024420Y-55179116D01*
X222167277Y-55369592D01*
X222786324Y-54941020D02*
X222786324Y-55179116D01*
X222548229Y-55083878D02*
X222786324Y-55179116D01*
X223024420Y-55083878D01*
X222643467Y-55369592D02*
X222786324Y-55179116D01*
X222929181Y-55369592D01*
X221231086Y-60211020D02*
X220897753Y-59734830D01*
X220659658Y-60211020D02*
X220659658Y-59211020D01*
X221040610Y-59211020D01*
X221135848Y-59258640D01*
X221183467Y-59306259D01*
X221231086Y-59401497D01*
X221231086Y-59544354D01*
X221183467Y-59639592D01*
X221135848Y-59687211D01*
X221040610Y-59734830D01*
X220659658Y-59734830D01*
X221659658Y-59687211D02*
X221992991Y-59687211D01*
X222135848Y-60211020D02*
X221659658Y-60211020D01*
X221659658Y-59211020D01*
X222135848Y-59211020D01*
X222897753Y-59687211D02*
X222564420Y-59687211D01*
X222564420Y-60211020D02*
X222564420Y-59211020D01*
X223040610Y-59211020D01*
X223564420Y-59211020D02*
X223564420Y-59449116D01*
X223326324Y-59353878D02*
X223564420Y-59449116D01*
X223802515Y-59353878D01*
X223421562Y-59639592D02*
X223564420Y-59449116D01*
X223707277Y-59639592D01*
X224326324Y-59211020D02*
X224326324Y-59449116D01*
X224088229Y-59353878D02*
X224326324Y-59449116D01*
X224564420Y-59353878D01*
X224183467Y-59639592D02*
X224326324Y-59449116D01*
X224469181Y-59639592D01*
X215821086Y-70931020D02*
X215487753Y-70454830D01*
X215249658Y-70931020D02*
X215249658Y-69931020D01*
X215630610Y-69931020D01*
X215725848Y-69978640D01*
X215773467Y-70026259D01*
X215821086Y-70121497D01*
X215821086Y-70264354D01*
X215773467Y-70359592D01*
X215725848Y-70407211D01*
X215630610Y-70454830D01*
X215249658Y-70454830D01*
X216249658Y-70407211D02*
X216582991Y-70407211D01*
X216725848Y-70931020D02*
X216249658Y-70931020D01*
X216249658Y-69931020D01*
X216725848Y-69931020D01*
X217487753Y-70407211D02*
X217154420Y-70407211D01*
X217154420Y-70931020D02*
X217154420Y-69931020D01*
X217630610Y-69931020D01*
X218154420Y-69931020D02*
X218154420Y-70169116D01*
X217916324Y-70073878D02*
X218154420Y-70169116D01*
X218392515Y-70073878D01*
X218011562Y-70359592D02*
X218154420Y-70169116D01*
X218297277Y-70359592D01*
X218916324Y-69931020D02*
X218916324Y-70169116D01*
X218678229Y-70073878D02*
X218916324Y-70169116D01*
X219154420Y-70073878D01*
X218773467Y-70359592D02*
X218916324Y-70169116D01*
X219059181Y-70359592D01*
X217831086Y-63451020D02*
X217497753Y-62974830D01*
X217259658Y-63451020D02*
X217259658Y-62451020D01*
X217640610Y-62451020D01*
X217735848Y-62498640D01*
X217783467Y-62546259D01*
X217831086Y-62641497D01*
X217831086Y-62784354D01*
X217783467Y-62879592D01*
X217735848Y-62927211D01*
X217640610Y-62974830D01*
X217259658Y-62974830D01*
X218259658Y-62927211D02*
X218592991Y-62927211D01*
X218735848Y-63451020D02*
X218259658Y-63451020D01*
X218259658Y-62451020D01*
X218735848Y-62451020D01*
X219497753Y-62927211D02*
X219164420Y-62927211D01*
X219164420Y-63451020D02*
X219164420Y-62451020D01*
X219640610Y-62451020D01*
X220164420Y-62451020D02*
X220164420Y-62689116D01*
X219926324Y-62593878D02*
X220164420Y-62689116D01*
X220402515Y-62593878D01*
X220021562Y-62879592D02*
X220164420Y-62689116D01*
X220307277Y-62879592D01*
X220926324Y-62451020D02*
X220926324Y-62689116D01*
X220688229Y-62593878D02*
X220926324Y-62689116D01*
X221164420Y-62593878D01*
X220783467Y-62879592D02*
X220926324Y-62689116D01*
X221069181Y-62879592D01*
M02*
