M48
; DRILL file {KiCad 5.1.9} date Sun Apr 18 17:13:00 2021
; FORMAT={-:-/ absolute / inch / decimal}
; #@! TF.CreationDate,2021-04-18T17:13:00+02:00
; #@! TF.GenerationSoftware,Kicad,Pcbnew,5.1.9
; #@! TF.FileFunction,Plated,1,2,PTH
FMAT,2
INCH
T1C0.0157
T2C0.0866
%
G90
G05
T1
X2.4726Y-3.7334
X2.4916Y-3.6875
X2.4916Y-3.7793
X2.5376Y-3.6685
X2.5376Y-3.7984
X2.5835Y-3.6875
X2.5835Y-3.7793
X2.6025Y-3.7334
X3.9325Y-3.7267
X3.9443Y-2.2259
X3.9515Y-3.6808
X3.9515Y-3.7727
X3.9633Y-2.18
X3.9633Y-2.2719
X3.9974Y-3.6618
X3.9974Y-3.7917
X4.0092Y-2.161
X4.0092Y-2.2909
X4.0434Y-3.6808
X4.0434Y-3.7727
X4.0552Y-2.18
X4.0552Y-2.2719
X4.0624Y-3.7267
X4.0742Y-2.2259
X5.4061Y-5.2169
X5.4251Y-5.1709
X5.4251Y-5.2628
X5.4262Y-3.7224
X5.4452Y-3.6765
X5.4452Y-3.7683
X5.471Y-5.1519
X5.471Y-5.2818
X5.4911Y-3.6574
X5.4911Y-3.7873
X5.517Y-5.1709
X5.517Y-5.2628
X5.536Y-5.2169
X5.5371Y-3.6765
X5.5371Y-3.7683
X5.5561Y-3.7224
X6.1785Y-2.2255
X6.1975Y-2.1796
X6.1975Y-2.2715
X6.2435Y-2.1606
X6.2435Y-2.2905
X6.2894Y-2.1796
X6.2894Y-2.2715
X6.3084Y-2.2255
X6.9159Y-5.6031
X6.9349Y-5.5572
X6.9349Y-5.649
X6.9809Y-5.5381
X6.9809Y-5.6681
X7.0268Y-5.5572
X7.0268Y-5.649
X7.0458Y-5.6031
X7.5911Y-4.9377
X7.6101Y-4.8918
X7.6101Y-4.9837
X7.6529Y-2.4055
X7.6561Y-4.8728
X7.6561Y-5.0027
X7.6569Y-3.9566
X7.672Y-2.3595
X7.672Y-2.4514
X7.6759Y-3.9107
X7.6759Y-4.0026
X7.702Y-4.8918
X7.702Y-4.9837
X7.7179Y-2.3405
X7.7179Y-2.4704
X7.721Y-4.9377
X7.7218Y-3.8917
X7.7218Y-4.0216
X7.7638Y-2.3595
X7.7638Y-2.4514
X7.7678Y-3.9107
X7.7678Y-4.0026
X7.7829Y-2.4055
X7.7868Y-3.9566
T2
X2.5376Y-3.7334
X3.9974Y-3.7267
X4.0092Y-2.2259
X5.471Y-5.2169
X5.4911Y-3.7224
X6.2435Y-2.2255
X6.9809Y-5.6031
X7.6561Y-4.9377
X7.7179Y-2.4055
X7.7218Y-3.9566
T0
M30
