%TF.GenerationSoftware,KiCad,Pcbnew,5.1.9*%
%TF.CreationDate,2021-04-18T17:12:56+02:00*%
%TF.ProjectId,Crystal-Zeliska-plate,43727973-7461-46c2-9d5a-656c69736b61,rev?*%
%TF.SameCoordinates,Original*%
%TF.FileFunction,Paste,Bot*%
%TF.FilePolarity,Positive*%
%FSLAX46Y46*%
G04 Gerber Fmt 4.6, Leading zero omitted, Abs format (unit mm)*
G04 Created by KiCad (PCBNEW 5.1.9) date 2021-04-18 17:12:56*
%MOMM*%
%LPD*%
G01*
G04 APERTURE LIST*
%TA.AperFunction,Profile*%
%ADD10C,0.100000*%
%TD*%
%TA.AperFunction,Profile*%
%ADD11C,0.200000*%
%TD*%
G04 APERTURE END LIST*
D10*
X182736236Y-39662123D02*
X198464420Y-39708640D01*
X199674420Y-40908640D02*
X199674420Y-91798640D01*
X199674420Y-91798640D02*
X205854420Y-97978640D01*
X219114420Y-97978640D02*
X224854420Y-103718640D01*
X224854420Y-103718640D02*
X224857219Y-107078640D01*
X224857219Y-107078640D02*
X199403716Y-132532143D01*
X199403716Y-132532143D02*
X199403716Y-146819643D01*
X197023736Y-149197083D02*
X177973736Y-149197083D01*
X177973736Y-34899623D02*
X182736236Y-39662123D01*
D11*
X137247376Y-58955963D02*
X137247376Y-72755783D01*
X123447556Y-72755783D02*
X123447556Y-58955963D01*
X123447556Y-91805783D02*
X137247376Y-91805783D01*
X137247376Y-78005963D02*
X123447556Y-78005963D01*
X137247376Y-78005963D02*
X137247376Y-91805783D01*
X123447556Y-91805783D02*
X123447556Y-78005963D01*
X123447556Y-110855783D02*
X123447556Y-97055963D01*
X137247376Y-97055963D02*
X137247376Y-110855783D01*
X194397376Y-63718463D02*
X194397376Y-77518283D01*
X180597556Y-77518283D02*
X180597556Y-63718463D01*
X180597556Y-96568283D02*
X180597556Y-82768463D01*
X194397376Y-82768463D02*
X194397376Y-96568283D01*
X194397376Y-82768463D02*
X180597556Y-82768463D01*
X180597556Y-96568283D02*
X194397376Y-96568283D01*
X189924436Y-115298243D02*
X199683116Y-125056923D01*
X209441796Y-115298243D02*
X199683116Y-105542103D01*
X99147376Y-39905963D02*
X85347556Y-39905963D01*
X85347556Y-53705783D02*
X99147376Y-53705783D01*
X85347556Y-72755783D02*
X85347556Y-58955963D01*
X99147376Y-58955963D02*
X99147376Y-72755783D01*
X99147376Y-58955963D02*
X85347556Y-58955963D01*
X85347556Y-72755783D02*
X99147376Y-72755783D01*
X85347556Y-91805783D02*
X85347556Y-78005963D01*
X99147376Y-78005963D02*
X99147376Y-91805783D01*
X175347376Y-39905963D02*
X161547556Y-39905963D01*
X161547556Y-53705783D02*
X175347376Y-53705783D01*
X66297556Y-72755783D02*
X66297556Y-58955963D01*
X80097376Y-58955963D02*
X80097376Y-72755783D01*
X80097376Y-58955963D02*
X66297556Y-58955963D01*
X66297556Y-72755783D02*
X80097376Y-72755783D01*
X66297556Y-110855783D02*
X80097376Y-110855783D01*
X80097376Y-97055963D02*
X66297556Y-97055963D01*
X175347376Y-58955963D02*
X175347376Y-72755783D01*
X161547556Y-72755783D02*
X161547556Y-58955963D01*
X161547556Y-91805783D02*
X161547556Y-78005963D01*
X175347376Y-78005963D02*
X175347376Y-91805783D01*
X175347376Y-78005963D02*
X161547556Y-78005963D01*
X161547556Y-91805783D02*
X175347376Y-91805783D01*
X161547556Y-110855783D02*
X161547556Y-97055963D01*
X175347376Y-97055963D02*
X175347376Y-110855783D01*
X118197376Y-39905963D02*
X118197376Y-53705783D01*
X104397556Y-53705783D02*
X104397556Y-39905963D01*
X104397556Y-72755783D02*
X118197376Y-72755783D01*
X118197376Y-58955963D02*
X104397556Y-58955963D01*
X118197376Y-58955963D02*
X118197376Y-72755783D01*
X104397556Y-72755783D02*
X104397556Y-58955963D01*
X104397556Y-110855783D02*
X104397556Y-97055963D01*
X118197376Y-97055963D02*
X118197376Y-110855783D01*
X156297376Y-97055963D02*
X142497556Y-97055963D01*
X142497556Y-110855783D02*
X156297376Y-110855783D01*
X142497556Y-134668283D02*
X156297376Y-134668283D01*
X156297376Y-120868463D02*
X142497556Y-120868463D01*
X156297376Y-120868463D02*
X156297376Y-134668283D01*
X142497556Y-134668283D02*
X142497556Y-120868463D01*
X161547556Y-72755783D02*
X175347376Y-72755783D01*
X175347376Y-58955963D02*
X161547556Y-58955963D01*
X137247376Y-97055963D02*
X123447556Y-97055963D01*
X123447556Y-110855783D02*
X137247376Y-110855783D01*
X142497556Y-53705783D02*
X156297376Y-53705783D01*
X156297376Y-39905963D02*
X142497556Y-39905963D01*
X156297376Y-39905963D02*
X156297376Y-53705783D01*
X142497556Y-53705783D02*
X142497556Y-39905963D01*
X142497556Y-72755783D02*
X156297376Y-72755783D01*
X156297376Y-58955963D02*
X142497556Y-58955963D01*
X175347376Y-97055963D02*
X161547556Y-97055963D01*
X161547556Y-110855783D02*
X175347376Y-110855783D01*
X180597556Y-58468283D02*
X180597556Y-44668463D01*
X194397376Y-44668463D02*
X194397376Y-58468283D01*
X194397376Y-44668463D02*
X180597556Y-44668463D01*
X180597556Y-58468283D02*
X194397376Y-58468283D01*
X180597556Y-77518283D02*
X194397376Y-77518283D01*
X194397376Y-63718463D02*
X180597556Y-63718463D01*
D10*
X63673735Y-115865347D02*
G75*
G02*
X61291216Y-113482143I685J2383204D01*
G01*
D11*
X161547556Y-139430783D02*
X175347376Y-139430783D01*
X175347376Y-125630963D02*
X161547556Y-125630963D01*
X175347376Y-125630963D02*
X175347376Y-139430783D01*
X161547556Y-139430783D02*
X161547556Y-125630963D01*
X161547556Y-53705783D02*
X161547556Y-39905963D01*
X175347376Y-39905963D02*
X175347376Y-53705783D01*
X80097376Y-78005963D02*
X66297556Y-78005963D01*
X66297556Y-91805783D02*
X80097376Y-91805783D01*
X47247556Y-101330783D02*
X61047376Y-101330783D01*
X61047376Y-87530963D02*
X47247556Y-87530963D01*
X61047376Y-87530963D02*
X61047376Y-101330783D01*
X47247556Y-101330783D02*
X47247556Y-87530963D01*
X85347556Y-53705783D02*
X85347556Y-39905963D01*
X99147376Y-39905963D02*
X99147376Y-53705783D01*
X80097376Y-97055963D02*
X80097376Y-110855783D01*
X66297556Y-110855783D02*
X66297556Y-97055963D01*
X104397556Y-91805783D02*
X104397556Y-78005963D01*
X118197376Y-78005963D02*
X118197376Y-91805783D01*
X118197376Y-78005963D02*
X104397556Y-78005963D01*
X104397556Y-91805783D02*
X118197376Y-91805783D01*
X66297556Y-91805783D02*
X66297556Y-78005963D01*
X80097376Y-78005963D02*
X80097376Y-91805783D01*
D10*
X118441216Y-120624623D02*
X113678716Y-115862123D01*
X113678716Y-115862123D02*
X63674244Y-115861361D01*
X61291216Y-113482143D02*
X61291216Y-108719643D01*
X58911236Y-106337123D02*
X44624244Y-106336361D01*
X42241216Y-103957143D02*
X42239831Y-84938638D01*
X44624244Y-82523861D02*
X58911744Y-82523861D01*
X61292994Y-80142611D02*
X61285413Y-56332126D01*
X63673736Y-53949623D02*
X77961744Y-53948861D01*
X177973736Y-149197083D02*
X173211236Y-144437123D01*
X173211236Y-144437123D02*
X158923736Y-144437123D01*
X158923736Y-144437123D02*
X154161236Y-139674623D01*
X154161236Y-139674623D02*
X139873736Y-139674623D01*
X139873736Y-139674623D02*
X130348736Y-132532143D01*
X130348736Y-132532143D02*
X130348736Y-125387123D01*
X130348736Y-125387123D02*
X125586236Y-120624623D01*
X125586236Y-120624623D02*
X118441216Y-120624623D01*
D11*
X209441796Y-115298243D02*
X199683116Y-125056923D01*
X189924436Y-115298243D02*
X199683116Y-105542103D01*
X180597556Y-144193283D02*
X180597556Y-130393463D01*
X194397376Y-130393463D02*
X194397376Y-144193283D01*
X194397376Y-130393463D02*
X180597556Y-130393463D01*
X180597556Y-144193283D02*
X194397376Y-144193283D01*
D10*
X44624244Y-106340347D02*
G75*
G02*
X42241216Y-103957143I176J2383204D01*
G01*
D11*
X156297376Y-58955963D02*
X156297376Y-72755783D01*
X142497556Y-72755783D02*
X142497556Y-58955963D01*
X142497556Y-91805783D02*
X142497556Y-78005963D01*
X156297376Y-78005963D02*
X156297376Y-91805783D01*
X156297376Y-78005963D02*
X142497556Y-78005963D01*
X142497556Y-91805783D02*
X156297376Y-91805783D01*
X142497556Y-110855783D02*
X142497556Y-97055963D01*
X156297376Y-97055963D02*
X156297376Y-110855783D01*
D10*
X42239831Y-84938638D02*
G75*
G02*
X44624245Y-82523862I2384589J29998D01*
G01*
X61285412Y-56332126D02*
G75*
G02*
X63673736Y-53949623I2389008J-6514D01*
G01*
X61290396Y-80142617D02*
G75*
G02*
X58911237Y-82524622I-2375976J-6023D01*
G01*
D11*
X99147376Y-78005963D02*
X85347556Y-78005963D01*
X85347556Y-91805783D02*
X99147376Y-91805783D01*
X85347556Y-110855783D02*
X99147376Y-110855783D01*
X99147376Y-97055963D02*
X85347556Y-97055963D01*
X99147376Y-97055963D02*
X99147376Y-110855783D01*
X85347556Y-110855783D02*
X85347556Y-97055963D01*
X104397556Y-53705783D02*
X118197376Y-53705783D01*
X118197376Y-39905963D02*
X104397556Y-39905963D01*
X118197376Y-97055963D02*
X104397556Y-97055963D01*
X104397556Y-110855783D02*
X118197376Y-110855783D01*
X123447556Y-53705783D02*
X137247376Y-53705783D01*
X137247376Y-39905963D02*
X123447556Y-39905963D01*
X137247376Y-39905963D02*
X137247376Y-53705783D01*
X123447556Y-53705783D02*
X123447556Y-39905963D01*
X123447556Y-72755783D02*
X137247376Y-72755783D01*
X137247376Y-58955963D02*
X123447556Y-58955963D01*
D10*
X80342994Y-51567611D02*
X80341216Y-37282143D01*
X82723736Y-34899623D02*
X177973736Y-34899623D01*
X205854420Y-97978640D02*
X219114420Y-97978640D01*
X199402863Y-146819643D02*
G75*
G02*
X197024420Y-149197083I-2378443J1003D01*
G01*
X198464420Y-39708599D02*
G75*
G02*
X199674420Y-40908640I0J-1210041D01*
G01*
X80345407Y-37282136D02*
G75*
G02*
X82723737Y-34899624I2379013J3496D01*
G01*
X58911241Y-106341847D02*
G75*
G02*
X61291215Y-108719642I3179J-2376793D01*
G01*
X80345404Y-51567609D02*
G75*
G02*
X77961237Y-53949622I-2380984J-1031D01*
G01*
M02*
