G04 #@! TF.GenerationSoftware,KiCad,Pcbnew,5.1.9*
G04 #@! TF.CreationDate,2021-04-17T13:18:15+02:00*
G04 #@! TF.ProjectId,Crystal-Zeliska-plate,43727973-7461-46c2-9d5a-656c69736b61,rev?*
G04 #@! TF.SameCoordinates,Original*
G04 #@! TF.FileFunction,Other,ECO2*
%FSLAX46Y46*%
G04 Gerber Fmt 4.6, Leading zero omitted, Abs format (unit mm)*
G04 Created by KiCad (PCBNEW 5.1.9) date 2021-04-17 13:18:15*
%MOMM*%
%LPD*%
G01*
G04 APERTURE LIST*
G04 #@! TA.AperFunction,Profile*
%ADD10C,0.200000*%
G04 #@! TD*
G04 #@! TA.AperFunction,Profile*
%ADD11C,0.100000*%
G04 #@! TD*
%ADD12C,0.100000*%
%ADD13C,0.200000*%
G04 APERTURE END LIST*
D10*
X136695831Y-131572496D02*
X136604622Y-131833222D01*
X136604622Y-131833222D02*
X136543981Y-132098811D01*
X136543981Y-132098811D02*
X136513425Y-132366835D01*
X136513425Y-132366835D02*
X136512471Y-132634862D01*
X136512471Y-132634862D02*
X136540636Y-132900465D01*
X136540636Y-132900465D02*
X136597435Y-133161214D01*
X136597435Y-133161214D02*
X136682387Y-133414680D01*
X136682387Y-133414680D02*
X136795008Y-133658433D01*
X136795008Y-133658433D02*
X136934814Y-133890044D01*
X136934814Y-133890044D02*
X137101322Y-134107083D01*
X137101322Y-134107083D02*
X137226924Y-134242482D01*
X137226924Y-134242482D02*
X137432899Y-134426523D01*
X137432899Y-134426523D02*
X137655066Y-134584184D01*
X137655066Y-134584184D02*
X137890994Y-134714982D01*
X137890994Y-134714982D02*
X138138254Y-134818433D01*
X138138254Y-134818433D02*
X138394418Y-134894055D01*
X138394418Y-134894055D02*
X138657054Y-134941363D01*
X138657054Y-134941363D02*
X138923736Y-134959875D01*
X138923736Y-134959875D02*
X139192032Y-134949108D01*
X139192032Y-134949108D02*
X139459514Y-134908578D01*
X139459514Y-134908578D02*
X139723752Y-134837802D01*
X139723752Y-134837802D02*
X139896910Y-134773576D01*
X139896910Y-134773576D02*
X140145765Y-134653708D01*
X140145765Y-134653708D02*
X140376445Y-134508787D01*
X140376445Y-134508787D02*
X140587572Y-134340872D01*
X140587572Y-134340872D02*
X140777771Y-134152022D01*
X140777771Y-134152022D02*
X140945666Y-133944297D01*
X140945666Y-133944297D02*
X141089880Y-133719756D01*
X141089880Y-133719756D02*
X141209037Y-133480459D01*
X141209037Y-133480459D02*
X141301762Y-133228465D01*
X141301762Y-133228465D02*
X141366677Y-132965834D01*
X141366677Y-132965834D02*
X141402408Y-132694624D01*
X141402408Y-132694624D02*
X141409336Y-132510070D01*
X141409336Y-132510070D02*
X141397347Y-132267917D01*
X141397347Y-132267917D02*
X141361825Y-132029866D01*
X141361825Y-132029866D02*
X141303434Y-131797524D01*
X141303434Y-131797524D02*
X141222841Y-131572496D01*
X141222841Y-131572496D02*
X141120710Y-131356388D01*
X141120710Y-131356388D02*
X140997707Y-131150809D01*
X140997707Y-131150809D02*
X140854498Y-130957363D01*
X140854498Y-130957363D02*
X140691748Y-130777659D01*
X140691748Y-130777659D02*
X140512043Y-130614908D01*
X140512043Y-130614908D02*
X140318597Y-130471699D01*
X140318597Y-130471699D02*
X140113017Y-130348696D01*
X140113017Y-130348696D02*
X139896910Y-130246565D01*
X139896910Y-130246565D02*
X139671882Y-130165971D01*
X139671882Y-130165971D02*
X139439539Y-130107581D01*
X139439539Y-130107581D02*
X139201488Y-130072058D01*
X139201488Y-130072058D02*
X138959336Y-130060070D01*
X139479271Y-92099999D02*
X139479271Y-92099999D01*
X177309267Y-139880091D02*
X177033483Y-139895600D01*
X177033483Y-139895600D02*
X176764904Y-139941212D01*
X176764904Y-139941212D02*
X176505589Y-140015551D01*
X176505589Y-140015551D02*
X176257599Y-140117239D01*
X176257599Y-140117239D02*
X176022991Y-140244902D01*
X176022991Y-140244902D02*
X175803827Y-140397162D01*
X175803827Y-140397162D02*
X175602165Y-140572644D01*
X175602165Y-140572644D02*
X175420065Y-140769972D01*
X175420065Y-140769972D02*
X175259586Y-140987770D01*
X175259586Y-140987770D02*
X175122787Y-141224661D01*
X175122787Y-141224661D02*
X175045762Y-141392517D01*
X175045762Y-141392517D02*
X174954553Y-141653243D01*
X174954553Y-141653243D02*
X174893912Y-141918832D01*
X174893912Y-141918832D02*
X174863356Y-142186856D01*
X174863356Y-142186856D02*
X174862402Y-142454883D01*
X174862402Y-142454883D02*
X174890567Y-142720486D01*
X174890567Y-142720486D02*
X174947366Y-142981235D01*
X174947366Y-142981235D02*
X175032318Y-143234701D01*
X175032318Y-143234701D02*
X175144939Y-143478454D01*
X175144939Y-143478454D02*
X175284745Y-143710065D01*
X175284745Y-143710065D02*
X175451253Y-143927104D01*
X175451253Y-143927104D02*
X175576855Y-144062503D01*
X175576855Y-144062503D02*
X175782830Y-144246544D01*
X175782830Y-144246544D02*
X176004997Y-144404205D01*
X176004997Y-144404205D02*
X176240925Y-144535003D01*
X176240925Y-144535003D02*
X176488185Y-144638454D01*
X176488185Y-144638454D02*
X176744349Y-144714076D01*
X176744349Y-144714076D02*
X177006985Y-144761384D01*
X177006985Y-144761384D02*
X177273667Y-144779896D01*
X177273667Y-144779896D02*
X177541963Y-144769128D01*
X177541963Y-144769128D02*
X177809445Y-144728598D01*
X177809445Y-144728598D02*
X178073683Y-144657822D01*
X178073683Y-144657822D02*
X178246841Y-144593596D01*
X99265626Y-93732564D02*
X99174417Y-93993290D01*
X99174417Y-93993290D02*
X99113777Y-94258879D01*
X99113777Y-94258879D02*
X99083221Y-94526903D01*
X99083221Y-94526903D02*
X99082267Y-94794930D01*
X99082267Y-94794930D02*
X99110432Y-95060533D01*
X99110432Y-95060533D02*
X99167231Y-95321282D01*
X99167231Y-95321282D02*
X99252183Y-95574748D01*
X99252183Y-95574748D02*
X99364804Y-95818501D01*
X99364804Y-95818501D02*
X99504610Y-96050112D01*
X99504610Y-96050112D02*
X99671118Y-96267151D01*
X99671118Y-96267151D02*
X99796720Y-96402550D01*
X99796720Y-96402550D02*
X100002695Y-96586591D01*
X100002695Y-96586591D02*
X100224862Y-96744252D01*
X100224862Y-96744252D02*
X100460790Y-96875050D01*
X100460790Y-96875050D02*
X100708050Y-96978501D01*
X100708050Y-96978501D02*
X100964214Y-97054123D01*
X100964214Y-97054123D02*
X101226850Y-97101431D01*
X101226850Y-97101431D02*
X101493532Y-97119943D01*
X101493532Y-97119943D02*
X101761828Y-97109175D01*
X101761828Y-97109175D02*
X102029310Y-97068645D01*
X102029310Y-97068645D02*
X102293548Y-96997869D01*
X102293548Y-96997869D02*
X102466706Y-96933643D01*
X102466706Y-96933643D02*
X102715561Y-96813776D01*
X102715561Y-96813776D02*
X102946241Y-96668855D01*
X102946241Y-96668855D02*
X103157368Y-96500940D01*
X103157368Y-96500940D02*
X103347567Y-96312090D01*
X103347567Y-96312090D02*
X103515461Y-96104365D01*
X103515461Y-96104365D02*
X103659675Y-95879824D01*
X103659675Y-95879824D02*
X103778833Y-95640527D01*
X103778833Y-95640527D02*
X103871557Y-95388533D01*
X103871557Y-95388533D02*
X103936473Y-95125902D01*
X103936473Y-95125902D02*
X103972204Y-94854692D01*
X103972204Y-94854692D02*
X103979132Y-94670138D01*
X103979132Y-94670138D02*
X103966482Y-94419639D01*
X103966482Y-94419639D02*
X103929356Y-94176377D01*
X103929356Y-94176377D02*
X103868984Y-93941583D01*
X103868984Y-93941583D02*
X103786598Y-93716487D01*
X103786598Y-93716487D02*
X103683430Y-93502322D01*
X103683430Y-93502322D02*
X103560710Y-93300319D01*
X103560710Y-93300319D02*
X103419670Y-93111710D01*
X103419670Y-93111710D02*
X103261543Y-92937726D01*
X103261543Y-92937726D02*
X103087559Y-92779599D01*
X103087559Y-92779599D02*
X102898949Y-92638559D01*
X102898949Y-92638559D02*
X102696946Y-92515839D01*
X102696946Y-92515839D02*
X102482781Y-92412671D01*
X102482781Y-92412671D02*
X102257686Y-92330285D01*
X102257686Y-92330285D02*
X102022891Y-92269913D01*
X102022891Y-92269913D02*
X101779629Y-92232787D01*
X101779629Y-92232787D02*
X101529131Y-92220138D01*
X64449197Y-92380158D02*
X64449197Y-92380158D01*
X158579307Y-54080004D02*
X158303523Y-54095513D01*
X158303523Y-54095513D02*
X158034944Y-54141125D01*
X158034944Y-54141125D02*
X157775629Y-54215464D01*
X157775629Y-54215464D02*
X157527639Y-54317152D01*
X157527639Y-54317152D02*
X157293031Y-54444814D01*
X157293031Y-54444814D02*
X157073867Y-54597075D01*
X157073867Y-54597075D02*
X156872205Y-54772557D01*
X156872205Y-54772557D02*
X156690105Y-54969885D01*
X156690105Y-54969885D02*
X156529626Y-55187682D01*
X156529626Y-55187682D02*
X156392827Y-55424573D01*
X156392827Y-55424573D02*
X156315802Y-55592429D01*
X156315802Y-55592429D02*
X156224593Y-55853155D01*
X156224593Y-55853155D02*
X156163952Y-56118745D01*
X156163952Y-56118745D02*
X156133396Y-56386768D01*
X156133396Y-56386768D02*
X156132442Y-56654796D01*
X156132442Y-56654796D02*
X156160607Y-56920399D01*
X156160607Y-56920399D02*
X156217406Y-57181148D01*
X156217406Y-57181148D02*
X156302358Y-57434614D01*
X156302358Y-57434614D02*
X156414979Y-57678367D01*
X156414979Y-57678367D02*
X156554785Y-57909977D01*
X156554785Y-57909977D02*
X156721293Y-58127017D01*
X156721293Y-58127017D02*
X156846895Y-58262416D01*
X156846895Y-58262416D02*
X157052870Y-58446457D01*
X157052870Y-58446457D02*
X157275037Y-58604118D01*
X157275037Y-58604118D02*
X157510965Y-58734916D01*
X157510965Y-58734916D02*
X157758225Y-58838367D01*
X157758225Y-58838367D02*
X158014389Y-58913988D01*
X158014389Y-58913988D02*
X158277025Y-58961297D01*
X158277025Y-58961297D02*
X158543707Y-58979808D01*
X158543707Y-58979808D02*
X158812003Y-58969041D01*
X158812003Y-58969041D02*
X159079485Y-58928511D01*
X159079485Y-58928511D02*
X159343723Y-58857735D01*
X159343723Y-58857735D02*
X159516881Y-58793509D01*
X159516881Y-58793509D02*
X159765736Y-58673641D01*
X159765736Y-58673641D02*
X159996416Y-58528720D01*
X159996416Y-58528720D02*
X160207543Y-58360805D01*
X160207543Y-58360805D02*
X160397742Y-58171955D01*
X160397742Y-58171955D02*
X160565637Y-57964230D01*
X160565637Y-57964230D02*
X160709851Y-57739690D01*
X160709851Y-57739690D02*
X160829008Y-57500393D01*
X160829008Y-57500393D02*
X160921733Y-57248399D01*
X160921733Y-57248399D02*
X160986648Y-56985767D01*
X160986648Y-56985767D02*
X161022379Y-56714558D01*
X161022379Y-56714558D02*
X161029307Y-56530004D01*
X161029307Y-56530004D02*
X161016657Y-56279505D01*
X161016657Y-56279505D02*
X160979531Y-56036243D01*
X160979531Y-56036243D02*
X160919159Y-55801448D01*
X160919159Y-55801448D02*
X160836773Y-55576353D01*
X160836773Y-55576353D02*
X160733605Y-55362188D01*
X160733605Y-55362188D02*
X160610885Y-55160185D01*
X160610885Y-55160185D02*
X160469846Y-54971576D01*
X160469846Y-54971576D02*
X160311718Y-54797592D01*
X160311718Y-54797592D02*
X160137734Y-54639464D01*
X160137734Y-54639464D02*
X159949125Y-54498425D01*
X159949125Y-54498425D02*
X159747122Y-54375705D01*
X159747122Y-54375705D02*
X159532957Y-54272537D01*
X159532957Y-54272537D02*
X159307862Y-54190151D01*
X159307862Y-54190151D02*
X159073067Y-54129779D01*
X159073067Y-54129779D02*
X158829805Y-54092653D01*
X158829805Y-54092653D02*
X158579307Y-54080004D01*
X101529131Y-92220138D02*
X101529131Y-92220138D01*
X101839271Y-54100077D02*
X101563487Y-54115586D01*
X101563487Y-54115586D02*
X101294908Y-54161199D01*
X101294908Y-54161199D02*
X101035593Y-54235537D01*
X101035593Y-54235537D02*
X100787603Y-54337225D01*
X100787603Y-54337225D02*
X100552995Y-54464888D01*
X100552995Y-54464888D02*
X100333831Y-54617148D01*
X100333831Y-54617148D02*
X100132169Y-54792631D01*
X100132169Y-54792631D02*
X99950068Y-54989959D01*
X99950068Y-54989959D02*
X99789589Y-55207756D01*
X99789589Y-55207756D02*
X99652791Y-55444647D01*
X99652791Y-55444647D02*
X99575765Y-55612503D01*
X99575765Y-55612503D02*
X99484556Y-55873229D01*
X99484556Y-55873229D02*
X99423916Y-56138818D01*
X99423916Y-56138818D02*
X99393360Y-56406842D01*
X99393360Y-56406842D02*
X99392406Y-56674869D01*
X99392406Y-56674869D02*
X99420571Y-56940472D01*
X99420571Y-56940472D02*
X99477370Y-57201221D01*
X99477370Y-57201221D02*
X99562322Y-57454687D01*
X99562322Y-57454687D02*
X99674943Y-57698440D01*
X99674943Y-57698440D02*
X99814749Y-57930051D01*
X99814749Y-57930051D02*
X99981257Y-58147090D01*
X99981257Y-58147090D02*
X100106859Y-58282489D01*
X100106859Y-58282489D02*
X100312834Y-58466530D01*
X100312834Y-58466530D02*
X100535001Y-58624191D01*
X100535001Y-58624191D02*
X100770929Y-58754989D01*
X100770929Y-58754989D02*
X101018189Y-58858440D01*
X101018189Y-58858440D02*
X101274353Y-58934062D01*
X101274353Y-58934062D02*
X101536989Y-58981370D01*
X101536989Y-58981370D02*
X101803671Y-58999882D01*
X101803671Y-58999882D02*
X102071967Y-58989114D01*
X102071967Y-58989114D02*
X102339449Y-58948584D01*
X102339449Y-58948584D02*
X102603687Y-58877808D01*
X102603687Y-58877808D02*
X102776845Y-58813582D01*
X102776845Y-58813582D02*
X103025700Y-58693715D01*
X103025700Y-58693715D02*
X103256380Y-58548794D01*
X103256380Y-58548794D02*
X103467507Y-58380879D01*
X103467507Y-58380879D02*
X103657706Y-58192029D01*
X103657706Y-58192029D02*
X103825600Y-57984304D01*
X103825600Y-57984304D02*
X103969814Y-57759763D01*
X103969814Y-57759763D02*
X104088972Y-57520466D01*
X104088972Y-57520466D02*
X104181696Y-57268472D01*
X104181696Y-57268472D02*
X104246612Y-57005841D01*
X104246612Y-57005841D02*
X104282343Y-56734631D01*
X104282343Y-56734631D02*
X104289271Y-56550077D01*
X104289271Y-56550077D02*
X104277282Y-56307924D01*
X104277282Y-56307924D02*
X104241759Y-56069873D01*
X104241759Y-56069873D02*
X104183369Y-55837531D01*
X104183369Y-55837531D02*
X104102775Y-55612503D01*
X104102775Y-55612503D02*
X104000644Y-55396395D01*
X104000644Y-55396395D02*
X103877641Y-55190816D01*
X103877641Y-55190816D02*
X103734432Y-54997370D01*
X103734432Y-54997370D02*
X103571682Y-54817666D01*
X103571682Y-54817666D02*
X103391977Y-54654915D01*
X103391977Y-54654915D02*
X103198531Y-54511705D01*
X103198531Y-54511705D02*
X102992952Y-54388703D01*
X102992952Y-54388703D02*
X102776845Y-54286572D01*
X102776845Y-54286572D02*
X102551816Y-54205978D01*
X102551816Y-54205978D02*
X102319474Y-54147588D01*
X102319474Y-54147588D02*
X102081423Y-54112065D01*
X102081423Y-54112065D02*
X101839271Y-54100077D01*
D11*
X182736236Y-39662123D02*
X198464420Y-39708640D01*
X199674420Y-40908640D02*
X199674420Y-91798640D01*
X199674420Y-91798640D02*
X205854420Y-97978640D01*
X219114420Y-97978640D02*
X224854420Y-103718640D01*
X224854420Y-103718640D02*
X224857219Y-107078640D01*
X224857219Y-107078640D02*
X199403716Y-132532143D01*
X199403716Y-132532143D02*
X199403716Y-146819643D01*
X197023736Y-149197083D02*
X177973736Y-149197083D01*
D10*
X196191759Y-123697663D02*
X196012054Y-123534912D01*
X196012054Y-123534912D02*
X195818608Y-123391703D01*
X195818608Y-123391703D02*
X195613028Y-123268700D01*
X195613028Y-123268700D02*
X195396921Y-123166570D01*
X195396921Y-123166570D02*
X195171893Y-123085976D01*
X195171893Y-123085976D02*
X194939550Y-123027586D01*
X194939550Y-123027586D02*
X194701499Y-122992063D01*
X194701499Y-122992063D02*
X194459347Y-122980075D01*
X177309267Y-139880091D02*
X177309267Y-139880091D01*
X64449197Y-92380158D02*
X64198698Y-92392807D01*
X64198698Y-92392807D02*
X63955436Y-92429933D01*
X63955436Y-92429933D02*
X63720642Y-92490305D01*
X63720642Y-92490305D02*
X63495546Y-92572691D01*
X63495546Y-92572691D02*
X63281382Y-92675859D01*
X63281382Y-92675859D02*
X63079379Y-92798579D01*
X63079379Y-92798579D02*
X62890770Y-92939619D01*
X62890770Y-92939619D02*
X62716786Y-93097746D01*
X62716786Y-93097746D02*
X62558658Y-93271730D01*
X62558658Y-93271730D02*
X62417619Y-93460339D01*
X62417619Y-93460339D02*
X62294899Y-93662342D01*
X62294899Y-93662342D02*
X62191731Y-93876507D01*
X62191731Y-93876507D02*
X62109345Y-94101603D01*
X62109345Y-94101603D02*
X62048973Y-94336397D01*
X62048973Y-94336397D02*
X62011847Y-94579659D01*
X62011847Y-94579659D02*
X61999198Y-94830158D01*
X61999198Y-94830158D02*
X62011847Y-95080656D01*
X62011847Y-95080656D02*
X62048973Y-95323918D01*
X62048973Y-95323918D02*
X62109345Y-95558713D01*
X62109345Y-95558713D02*
X62191731Y-95783808D01*
X62191731Y-95783808D02*
X62294899Y-95997973D01*
X62294899Y-95997973D02*
X62417619Y-96199976D01*
X62417619Y-96199976D02*
X62558658Y-96388586D01*
X62558658Y-96388586D02*
X62716786Y-96562570D01*
X62716786Y-96562570D02*
X62890770Y-96720697D01*
X62890770Y-96720697D02*
X63079379Y-96861737D01*
X63079379Y-96861737D02*
X63281382Y-96984457D01*
X63281382Y-96984457D02*
X63495546Y-97087625D01*
X63495546Y-97087625D02*
X63720642Y-97170011D01*
X63720642Y-97170011D02*
X63955436Y-97230383D01*
X63955436Y-97230383D02*
X64198698Y-97267509D01*
X64198698Y-97267509D02*
X64449197Y-97280159D01*
X64449197Y-97280159D02*
X64699695Y-97267509D01*
X64699695Y-97267509D02*
X64942957Y-97230383D01*
X64942957Y-97230383D02*
X65177752Y-97170011D01*
X65177752Y-97170011D02*
X65402848Y-97087625D01*
X65402848Y-97087625D02*
X65617013Y-96984457D01*
X65617013Y-96984457D02*
X65819016Y-96861737D01*
X65819016Y-96861737D02*
X66007625Y-96720697D01*
X66007625Y-96720697D02*
X66181609Y-96562570D01*
X66181609Y-96562570D02*
X66339737Y-96388586D01*
X66339737Y-96388586D02*
X66480776Y-96199976D01*
X66480776Y-96199976D02*
X66603496Y-95997973D01*
X66603496Y-95997973D02*
X66706664Y-95783808D01*
X66706664Y-95783808D02*
X66789050Y-95558713D01*
X66789050Y-95558713D02*
X66849422Y-95323918D01*
X66849422Y-95323918D02*
X66886548Y-95080656D01*
X66886548Y-95080656D02*
X66899198Y-94830158D01*
X66899198Y-94830158D02*
X66887209Y-94588005D01*
X66887209Y-94588005D02*
X66851687Y-94349954D01*
X66851687Y-94349954D02*
X66793296Y-94117612D01*
X66793296Y-94117612D02*
X66712703Y-93892584D01*
X66712703Y-93892584D02*
X66610572Y-93676476D01*
X66610572Y-93676476D02*
X66487569Y-93470897D01*
X66487569Y-93470897D02*
X66344360Y-93277451D01*
X66344360Y-93277451D02*
X66181610Y-93097747D01*
X66181610Y-93097747D02*
X66001904Y-92934996D01*
X66001904Y-92934996D02*
X65808459Y-92791786D01*
X65808459Y-92791786D02*
X65602879Y-92668784D01*
X65602879Y-92668784D02*
X65386772Y-92566653D01*
X65386772Y-92566653D02*
X65161743Y-92486059D01*
X65161743Y-92486059D02*
X64929400Y-92427669D01*
X64929400Y-92427669D02*
X64691349Y-92392146D01*
X64691349Y-92392146D02*
X64449197Y-92380158D01*
X194459347Y-122980075D02*
X194459347Y-122980075D01*
X101529131Y-92220138D02*
X101253347Y-92235647D01*
X101253347Y-92235647D02*
X100984768Y-92281260D01*
X100984768Y-92281260D02*
X100725454Y-92355598D01*
X100725454Y-92355598D02*
X100477463Y-92457286D01*
X100477463Y-92457286D02*
X100242856Y-92584949D01*
X100242856Y-92584949D02*
X100023692Y-92737209D01*
X100023692Y-92737209D02*
X99822030Y-92912692D01*
X99822030Y-92912692D02*
X99639929Y-93110020D01*
X99639929Y-93110020D02*
X99479450Y-93327817D01*
X99479450Y-93327817D02*
X99342652Y-93564708D01*
X99342652Y-93564708D02*
X99265626Y-93732564D01*
D11*
X177973736Y-34899623D02*
X182736236Y-39662123D01*
D10*
X194406889Y-102232615D02*
X194612864Y-102416656D01*
X194612864Y-102416656D02*
X194835031Y-102574317D01*
X194835031Y-102574317D02*
X195070959Y-102705115D01*
X195070959Y-102705115D02*
X195318219Y-102808566D01*
X195318219Y-102808566D02*
X195574383Y-102884187D01*
X195574383Y-102884187D02*
X195837019Y-102931496D01*
X195837019Y-102931496D02*
X196103701Y-102950007D01*
X196103701Y-102950007D02*
X196371997Y-102939240D01*
X196371997Y-102939240D02*
X196639479Y-102898710D01*
X196639479Y-102898710D02*
X196903717Y-102827934D01*
X196903717Y-102827934D02*
X197076875Y-102763708D01*
X197076875Y-102763708D02*
X197325730Y-102643840D01*
X197325730Y-102643840D02*
X197556410Y-102498919D01*
X197556410Y-102498919D02*
X197767537Y-102331004D01*
X197767537Y-102331004D02*
X197957736Y-102142154D01*
X197957736Y-102142154D02*
X198125630Y-101934429D01*
X198125630Y-101934429D02*
X198269844Y-101709889D01*
X198269844Y-101709889D02*
X198389002Y-101470592D01*
X198389002Y-101470592D02*
X198481726Y-101218598D01*
X198481726Y-101218598D02*
X198546642Y-100955966D01*
X198546642Y-100955966D02*
X198582373Y-100684757D01*
X198582373Y-100684757D02*
X198589301Y-100500203D01*
X198589301Y-100500203D02*
X198577312Y-100258050D01*
X198577312Y-100258050D02*
X198541789Y-100019999D01*
X198541789Y-100019999D02*
X198483399Y-99787656D01*
X198483399Y-99787656D02*
X198402805Y-99562628D01*
X198402805Y-99562628D02*
X198300674Y-99346520D01*
X198300674Y-99346520D02*
X198177671Y-99140941D01*
X198177671Y-99140941D02*
X198034462Y-98947495D01*
X198034462Y-98947495D02*
X197871712Y-98767791D01*
X197871712Y-98767791D02*
X197692007Y-98605040D01*
X197692007Y-98605040D02*
X197498561Y-98461831D01*
X197498561Y-98461831D02*
X197292982Y-98338828D01*
X197292982Y-98338828D02*
X197076874Y-98236698D01*
X197076874Y-98236698D02*
X196851846Y-98156104D01*
X196851846Y-98156104D02*
X196619503Y-98097714D01*
X196619503Y-98097714D02*
X196381452Y-98062191D01*
X196381452Y-98062191D02*
X196139300Y-98050203D01*
X196029326Y-58649982D02*
X195753542Y-58665491D01*
X195753542Y-58665491D02*
X195484963Y-58711103D01*
X195484963Y-58711103D02*
X195225648Y-58785442D01*
X195225648Y-58785442D02*
X194977658Y-58887130D01*
X194977658Y-58887130D02*
X194743050Y-59014792D01*
X194743050Y-59014792D02*
X194523886Y-59167053D01*
X194523886Y-59167053D02*
X194322224Y-59342535D01*
X194322224Y-59342535D02*
X194140124Y-59539863D01*
X194140124Y-59539863D02*
X193979645Y-59757660D01*
X193979645Y-59757660D02*
X193842846Y-59994551D01*
X193842846Y-59994551D02*
X193765821Y-60162407D01*
X193765821Y-60162407D02*
X193674612Y-60423133D01*
X193674612Y-60423133D02*
X193613971Y-60688723D01*
X193613971Y-60688723D02*
X193583415Y-60956746D01*
X193583415Y-60956746D02*
X193582461Y-61224774D01*
X193582461Y-61224774D02*
X193610626Y-61490377D01*
X193610626Y-61490377D02*
X193667425Y-61751126D01*
X193667425Y-61751126D02*
X193752377Y-62004592D01*
X193752377Y-62004592D02*
X193864998Y-62248345D01*
X193864998Y-62248345D02*
X194004804Y-62479956D01*
X194004804Y-62479956D02*
X194171312Y-62696995D01*
X194171312Y-62696995D02*
X194296914Y-62832394D01*
X194296914Y-62832394D02*
X194502889Y-63016435D01*
X194502889Y-63016435D02*
X194725056Y-63174096D01*
X194725056Y-63174096D02*
X194960984Y-63304894D01*
X194960984Y-63304894D02*
X195208244Y-63408345D01*
X195208244Y-63408345D02*
X195464408Y-63483967D01*
X195464408Y-63483967D02*
X195727044Y-63531275D01*
X195727044Y-63531275D02*
X195993726Y-63549787D01*
X195993726Y-63549787D02*
X196262022Y-63539019D01*
X196262022Y-63539019D02*
X196529504Y-63498489D01*
X196529504Y-63498489D02*
X196793742Y-63427713D01*
X196793742Y-63427713D02*
X196966900Y-63363487D01*
X196966900Y-63363487D02*
X197215755Y-63243620D01*
X197215755Y-63243620D02*
X197446435Y-63098699D01*
X197446435Y-63098699D02*
X197657562Y-62930784D01*
X197657562Y-62930784D02*
X197847761Y-62741934D01*
X197847761Y-62741934D02*
X198015656Y-62534209D01*
X198015656Y-62534209D02*
X198159870Y-62309668D01*
X198159870Y-62309668D02*
X198279027Y-62070371D01*
X198279027Y-62070371D02*
X198371752Y-61818377D01*
X198371752Y-61818377D02*
X198436667Y-61555746D01*
X198436667Y-61555746D02*
X198472398Y-61284536D01*
X198472398Y-61284536D02*
X198479326Y-61099982D01*
X198479326Y-61099982D02*
X198467337Y-60857829D01*
X198467337Y-60857829D02*
X198431815Y-60619778D01*
X198431815Y-60619778D02*
X198373424Y-60387435D01*
X198373424Y-60387435D02*
X198292831Y-60162407D01*
X198292831Y-60162407D02*
X198190700Y-59946299D01*
X198190700Y-59946299D02*
X198067697Y-59740720D01*
X198067697Y-59740720D02*
X197924488Y-59547274D01*
X197924488Y-59547274D02*
X197761738Y-59367570D01*
X137247376Y-58955963D02*
X137247376Y-72755783D01*
X123447556Y-72755783D02*
X123447556Y-58955963D01*
X123447556Y-91805783D02*
X137247376Y-91805783D01*
X137247376Y-78005963D02*
X123447556Y-78005963D01*
X137247376Y-78005963D02*
X137247376Y-91805783D01*
X123447556Y-91805783D02*
X123447556Y-78005963D01*
X123447556Y-110855783D02*
X123447556Y-97055963D01*
X137247376Y-97055963D02*
X137247376Y-110855783D01*
X194397376Y-63718463D02*
X194397376Y-77518283D01*
X180597556Y-77518283D02*
X180597556Y-63718463D01*
X180597556Y-96568283D02*
X180597556Y-82768463D01*
X194397376Y-82768463D02*
X194397376Y-96568283D01*
X194397376Y-82768463D02*
X180597556Y-82768463D01*
X180597556Y-96568283D02*
X194397376Y-96568283D01*
X189924436Y-115298243D02*
X199683116Y-125056923D01*
X209441796Y-115298243D02*
X199683116Y-105542103D01*
X99147376Y-39905963D02*
X85347556Y-39905963D01*
X85347556Y-53705783D02*
X99147376Y-53705783D01*
X85347556Y-72755783D02*
X85347556Y-58955963D01*
X99147376Y-58955963D02*
X99147376Y-72755783D01*
X99147376Y-58955963D02*
X85347556Y-58955963D01*
X85347556Y-72755783D02*
X99147376Y-72755783D01*
X85347556Y-91805783D02*
X85347556Y-78005963D01*
X99147376Y-78005963D02*
X99147376Y-91805783D01*
X175347376Y-39905963D02*
X161547556Y-39905963D01*
X161547556Y-53705783D02*
X175347376Y-53705783D01*
X66297556Y-72755783D02*
X66297556Y-58955963D01*
X80097376Y-58955963D02*
X80097376Y-72755783D01*
X80097376Y-58955963D02*
X66297556Y-58955963D01*
X66297556Y-72755783D02*
X80097376Y-72755783D01*
X66297556Y-110855783D02*
X80097376Y-110855783D01*
X80097376Y-97055963D02*
X66297556Y-97055963D01*
X175347376Y-58955963D02*
X175347376Y-72755783D01*
X161547556Y-72755783D02*
X161547556Y-58955963D01*
X161547556Y-91805783D02*
X161547556Y-78005963D01*
X175347376Y-78005963D02*
X175347376Y-91805783D01*
X175347376Y-78005963D02*
X161547556Y-78005963D01*
X161547556Y-91805783D02*
X175347376Y-91805783D01*
X161547556Y-110855783D02*
X161547556Y-97055963D01*
X175347376Y-97055963D02*
X175347376Y-110855783D01*
X118197376Y-39905963D02*
X118197376Y-53705783D01*
X104397556Y-53705783D02*
X104397556Y-39905963D01*
X104397556Y-72755783D02*
X118197376Y-72755783D01*
X118197376Y-58955963D02*
X104397556Y-58955963D01*
X118197376Y-58955963D02*
X118197376Y-72755783D01*
X104397556Y-72755783D02*
X104397556Y-58955963D01*
X104397556Y-110855783D02*
X104397556Y-97055963D01*
X118197376Y-97055963D02*
X118197376Y-110855783D01*
X156297376Y-97055963D02*
X142497556Y-97055963D01*
X142497556Y-110855783D02*
X156297376Y-110855783D01*
X142497556Y-134668283D02*
X156297376Y-134668283D01*
X156297376Y-120868463D02*
X142497556Y-120868463D01*
X156297376Y-120868463D02*
X156297376Y-134668283D01*
X142497556Y-134668283D02*
X142497556Y-120868463D01*
X161547556Y-72755783D02*
X175347376Y-72755783D01*
X175347376Y-58955963D02*
X161547556Y-58955963D01*
X178246841Y-144593596D02*
X178495696Y-144473729D01*
X178495696Y-144473729D02*
X178726376Y-144328808D01*
X178726376Y-144328808D02*
X178937503Y-144160893D01*
X178937503Y-144160893D02*
X179127702Y-143972043D01*
X179127702Y-143972043D02*
X179295597Y-143764318D01*
X179295597Y-143764318D02*
X179439811Y-143539777D01*
X179439811Y-143539777D02*
X179558968Y-143300480D01*
X179558968Y-143300480D02*
X179651693Y-143048486D01*
X179651693Y-143048486D02*
X179716608Y-142785855D01*
X179716608Y-142785855D02*
X179752339Y-142514645D01*
X179752339Y-142514645D02*
X179759267Y-142330091D01*
X179759267Y-142330091D02*
X179747278Y-142087938D01*
X179747278Y-142087938D02*
X179711756Y-141849887D01*
X179711756Y-141849887D02*
X179653365Y-141617545D01*
X179653365Y-141617545D02*
X179572772Y-141392517D01*
X179572772Y-141392517D02*
X179470641Y-141176409D01*
X179470641Y-141176409D02*
X179347638Y-140970830D01*
X179347638Y-140970830D02*
X179204429Y-140777384D01*
X179204429Y-140777384D02*
X179041679Y-140597680D01*
X179041679Y-140597680D02*
X178861974Y-140434929D01*
X178861974Y-140434929D02*
X178668528Y-140291719D01*
X178668528Y-140291719D02*
X178462948Y-140168717D01*
X178462948Y-140168717D02*
X178246841Y-140066586D01*
X178246841Y-140066586D02*
X178021813Y-139985992D01*
X178021813Y-139985992D02*
X177789470Y-139927602D01*
X177789470Y-139927602D02*
X177551419Y-139892079D01*
X177551419Y-139892079D02*
X177309267Y-139880091D01*
X138959336Y-130060070D02*
X138959336Y-130060070D01*
X194459347Y-122980075D02*
X194183563Y-122995584D01*
X194183563Y-122995584D02*
X193914984Y-123041196D01*
X193914984Y-123041196D02*
X193655669Y-123115535D01*
X193655669Y-123115535D02*
X193407679Y-123217223D01*
X193407679Y-123217223D02*
X193173071Y-123344885D01*
X193173071Y-123344885D02*
X192953907Y-123497146D01*
X192953907Y-123497146D02*
X192752245Y-123672628D01*
X192752245Y-123672628D02*
X192570145Y-123869956D01*
X192570145Y-123869956D02*
X192409666Y-124087753D01*
X192409666Y-124087753D02*
X192272867Y-124324644D01*
X192272867Y-124324644D02*
X192195842Y-124492500D01*
X192195842Y-124492500D02*
X192104633Y-124753226D01*
X192104633Y-124753226D02*
X192043992Y-125018816D01*
X192043992Y-125018816D02*
X192013436Y-125286839D01*
X192013436Y-125286839D02*
X192012482Y-125554867D01*
X192012482Y-125554867D02*
X192040647Y-125820470D01*
X192040647Y-125820470D02*
X192097446Y-126081219D01*
X192097446Y-126081219D02*
X192182398Y-126334685D01*
X192182398Y-126334685D02*
X192295019Y-126578438D01*
X192295019Y-126578438D02*
X192434825Y-126810048D01*
X192434825Y-126810048D02*
X192601333Y-127027088D01*
X192601333Y-127027088D02*
X192726935Y-127162487D01*
X192726935Y-127162487D02*
X192932910Y-127346528D01*
X192932910Y-127346528D02*
X193155077Y-127504189D01*
X193155077Y-127504189D02*
X193391005Y-127634987D01*
X193391005Y-127634987D02*
X193638265Y-127738438D01*
X193638265Y-127738438D02*
X193894429Y-127814059D01*
X193894429Y-127814059D02*
X194157065Y-127861368D01*
X194157065Y-127861368D02*
X194423747Y-127879879D01*
X194423747Y-127879879D02*
X194692043Y-127869112D01*
X194692043Y-127869112D02*
X194959525Y-127828582D01*
X194959525Y-127828582D02*
X195223763Y-127757806D01*
X195223763Y-127757806D02*
X195396921Y-127693580D01*
X195396921Y-127693580D02*
X195645776Y-127573712D01*
X195645776Y-127573712D02*
X195876456Y-127428791D01*
X195876456Y-127428791D02*
X196087583Y-127260876D01*
X196087583Y-127260876D02*
X196277782Y-127072026D01*
X196277782Y-127072026D02*
X196445677Y-126864301D01*
X196445677Y-126864301D02*
X196589891Y-126639761D01*
X196589891Y-126639761D02*
X196709048Y-126400464D01*
X196709048Y-126400464D02*
X196801773Y-126148470D01*
X196801773Y-126148470D02*
X196866688Y-125885838D01*
X196866688Y-125885838D02*
X196902419Y-125614629D01*
X196902419Y-125614629D02*
X196909347Y-125430075D01*
X196909347Y-125430075D02*
X196897358Y-125187922D01*
X196897358Y-125187922D02*
X196861836Y-124949871D01*
X196861836Y-124949871D02*
X196803445Y-124717528D01*
X196803445Y-124717528D02*
X196722852Y-124492500D01*
X196722852Y-124492500D02*
X196620721Y-124276392D01*
X196620721Y-124276392D02*
X196497718Y-124070813D01*
X196497718Y-124070813D02*
X196354509Y-123877367D01*
X196354509Y-123877367D02*
X196191759Y-123697663D01*
X137247376Y-97055963D02*
X123447556Y-97055963D01*
X123447556Y-110855783D02*
X137247376Y-110855783D01*
X142497556Y-53705783D02*
X156297376Y-53705783D01*
X156297376Y-39905963D02*
X142497556Y-39905963D01*
X156297376Y-39905963D02*
X156297376Y-53705783D01*
X142497556Y-53705783D02*
X142497556Y-39905963D01*
X142497556Y-72755783D02*
X156297376Y-72755783D01*
X156297376Y-58955963D02*
X142497556Y-58955963D01*
X175347376Y-97055963D02*
X161547556Y-97055963D01*
X161547556Y-110855783D02*
X175347376Y-110855783D01*
X180597556Y-58468283D02*
X180597556Y-44668463D01*
X194397376Y-44668463D02*
X194397376Y-58468283D01*
X194397376Y-44668463D02*
X180597556Y-44668463D01*
X180597556Y-58468283D02*
X194397376Y-58468283D01*
X180597556Y-77518283D02*
X194397376Y-77518283D01*
X194397376Y-63718463D02*
X180597556Y-63718463D01*
D11*
X63673735Y-115865347D02*
G75*
G02*
X61291216Y-113482143I685J2383204D01*
G01*
D10*
X158579307Y-54080004D02*
X158579307Y-54080004D01*
X101839271Y-54100077D02*
X101839271Y-54100077D01*
X161547556Y-139430783D02*
X175347376Y-139430783D01*
X175347376Y-125630963D02*
X161547556Y-125630963D01*
X175347376Y-125630963D02*
X175347376Y-139430783D01*
X161547556Y-139430783D02*
X161547556Y-125630963D01*
X161547556Y-53705783D02*
X161547556Y-39905963D01*
X175347376Y-39905963D02*
X175347376Y-53705783D01*
X80097376Y-78005963D02*
X66297556Y-78005963D01*
X66297556Y-91805783D02*
X80097376Y-91805783D01*
X47247556Y-101330783D02*
X61047376Y-101330783D01*
X61047376Y-87530963D02*
X47247556Y-87530963D01*
X61047376Y-87530963D02*
X61047376Y-101330783D01*
X47247556Y-101330783D02*
X47247556Y-87530963D01*
X85347556Y-53705783D02*
X85347556Y-39905963D01*
X99147376Y-39905963D02*
X99147376Y-53705783D01*
X80097376Y-97055963D02*
X80097376Y-110855783D01*
X66297556Y-110855783D02*
X66297556Y-97055963D01*
X104397556Y-91805783D02*
X104397556Y-78005963D01*
X118197376Y-78005963D02*
X118197376Y-91805783D01*
X118197376Y-78005963D02*
X104397556Y-78005963D01*
X104397556Y-91805783D02*
X118197376Y-91805783D01*
X66297556Y-91805783D02*
X66297556Y-78005963D01*
X80097376Y-78005963D02*
X80097376Y-91805783D01*
D11*
X118441216Y-120624623D02*
X113678716Y-115862123D01*
X113678716Y-115862123D02*
X63674244Y-115861361D01*
X61291216Y-113482143D02*
X61291216Y-108719643D01*
X58911236Y-106337123D02*
X44624244Y-106336361D01*
X42241216Y-103957143D02*
X42239831Y-84938638D01*
X44624244Y-82523861D02*
X58911744Y-82523861D01*
X61292994Y-80142611D02*
X61285413Y-56332126D01*
X63673736Y-53949623D02*
X77961744Y-53948861D01*
X177973736Y-149197083D02*
X173211236Y-144437123D01*
X173211236Y-144437123D02*
X158923736Y-144437123D01*
X158923736Y-144437123D02*
X154161236Y-139674623D01*
X154161236Y-139674623D02*
X139873736Y-139674623D01*
X139873736Y-139674623D02*
X130348736Y-132532143D01*
X130348736Y-132532143D02*
X130348736Y-125387123D01*
X130348736Y-125387123D02*
X125586236Y-120624623D01*
X125586236Y-120624623D02*
X118441216Y-120624623D01*
D10*
X209441796Y-115298243D02*
X199683116Y-125056923D01*
X189924436Y-115298243D02*
X199683116Y-105542103D01*
X180597556Y-144193283D02*
X180597556Y-130393463D01*
X194397376Y-130393463D02*
X194397376Y-144193283D01*
X194397376Y-130393463D02*
X180597556Y-130393463D01*
X180597556Y-144193283D02*
X194397376Y-144193283D01*
D11*
X44624244Y-106340347D02*
G75*
G02*
X42241216Y-103957143I176J2383204D01*
G01*
D10*
X156297376Y-58955963D02*
X156297376Y-72755783D01*
X142497556Y-72755783D02*
X142497556Y-58955963D01*
X142497556Y-91805783D02*
X142497556Y-78005963D01*
X156297376Y-78005963D02*
X156297376Y-91805783D01*
X156297376Y-78005963D02*
X142497556Y-78005963D01*
X142497556Y-91805783D02*
X156297376Y-91805783D01*
X142497556Y-110855783D02*
X142497556Y-97055963D01*
X156297376Y-97055963D02*
X156297376Y-110855783D01*
D11*
X42239831Y-84938638D02*
G75*
G02*
X44624245Y-82523862I2384589J29998D01*
G01*
X61285412Y-56332126D02*
G75*
G02*
X63673736Y-53949623I2389008J-6514D01*
G01*
X61290396Y-80142617D02*
G75*
G02*
X58911237Y-82524622I-2375976J-6023D01*
G01*
D10*
X99147376Y-78005963D02*
X85347556Y-78005963D01*
X85347556Y-91805783D02*
X99147376Y-91805783D01*
X85347556Y-110855783D02*
X99147376Y-110855783D01*
X99147376Y-97055963D02*
X85347556Y-97055963D01*
X99147376Y-97055963D02*
X99147376Y-110855783D01*
X85347556Y-110855783D02*
X85347556Y-97055963D01*
X104397556Y-53705783D02*
X118197376Y-53705783D01*
X118197376Y-39905963D02*
X104397556Y-39905963D01*
X196139300Y-98050203D02*
X195863516Y-98065712D01*
X195863516Y-98065712D02*
X195594937Y-98111324D01*
X195594937Y-98111324D02*
X195335623Y-98185663D01*
X195335623Y-98185663D02*
X195087632Y-98287351D01*
X195087632Y-98287351D02*
X194853025Y-98415013D01*
X194853025Y-98415013D02*
X194633861Y-98567274D01*
X194633861Y-98567274D02*
X194432199Y-98742756D01*
X194432199Y-98742756D02*
X194250098Y-98940084D01*
X194250098Y-98940084D02*
X194089619Y-99157881D01*
X194089619Y-99157881D02*
X193952821Y-99394772D01*
X193952821Y-99394772D02*
X193875795Y-99562628D01*
X193875795Y-99562628D02*
X193784586Y-99823354D01*
X193784586Y-99823354D02*
X193723945Y-100088944D01*
X193723945Y-100088944D02*
X193693390Y-100356967D01*
X193693390Y-100356967D02*
X193692436Y-100624995D01*
X193692436Y-100624995D02*
X193720600Y-100890598D01*
X193720600Y-100890598D02*
X193777400Y-101151347D01*
X193777400Y-101151347D02*
X193862352Y-101404813D01*
X193862352Y-101404813D02*
X193974972Y-101648566D01*
X193974972Y-101648566D02*
X194114778Y-101880177D01*
X194114778Y-101880177D02*
X194281287Y-102097216D01*
X194281287Y-102097216D02*
X194406889Y-102232615D01*
X197761738Y-59367570D02*
X197582033Y-59204819D01*
X197582033Y-59204819D02*
X197388587Y-59061610D01*
X197388587Y-59061610D02*
X197183007Y-58938607D01*
X197183007Y-58938607D02*
X196966900Y-58836477D01*
X196966900Y-58836477D02*
X196741872Y-58755883D01*
X196741872Y-58755883D02*
X196509529Y-58697493D01*
X196509529Y-58697493D02*
X196271478Y-58661970D01*
X196271478Y-58661970D02*
X196029326Y-58649982D01*
X196139300Y-98050203D02*
X196139300Y-98050203D01*
X139479271Y-92099999D02*
X139228772Y-92112648D01*
X139228772Y-92112648D02*
X138985510Y-92149774D01*
X138985510Y-92149774D02*
X138750716Y-92210146D01*
X138750716Y-92210146D02*
X138525620Y-92292532D01*
X138525620Y-92292532D02*
X138311455Y-92395700D01*
X138311455Y-92395700D02*
X138109452Y-92518420D01*
X138109452Y-92518420D02*
X137920843Y-92659459D01*
X137920843Y-92659459D02*
X137746859Y-92817587D01*
X137746859Y-92817587D02*
X137588732Y-92991571D01*
X137588732Y-92991571D02*
X137447692Y-93180180D01*
X137447692Y-93180180D02*
X137324972Y-93382183D01*
X137324972Y-93382183D02*
X137221804Y-93596348D01*
X137221804Y-93596348D02*
X137139418Y-93821443D01*
X137139418Y-93821443D02*
X137079046Y-94056238D01*
X137079046Y-94056238D02*
X137041920Y-94299500D01*
X137041920Y-94299500D02*
X137029271Y-94549999D01*
X137029271Y-94549999D02*
X137041920Y-94800497D01*
X137041920Y-94800497D02*
X137079046Y-95043759D01*
X137079046Y-95043759D02*
X137139418Y-95278554D01*
X137139418Y-95278554D02*
X137221804Y-95503649D01*
X137221804Y-95503649D02*
X137324972Y-95717814D01*
X137324972Y-95717814D02*
X137447692Y-95919817D01*
X137447692Y-95919817D02*
X137588732Y-96108426D01*
X137588732Y-96108426D02*
X137746859Y-96282410D01*
X137746859Y-96282410D02*
X137920843Y-96440538D01*
X137920843Y-96440538D02*
X138109452Y-96581577D01*
X138109452Y-96581577D02*
X138311455Y-96704297D01*
X138311455Y-96704297D02*
X138525620Y-96807465D01*
X138525620Y-96807465D02*
X138750716Y-96889851D01*
X138750716Y-96889851D02*
X138985510Y-96950223D01*
X138985510Y-96950223D02*
X139228772Y-96987349D01*
X139228772Y-96987349D02*
X139479271Y-96999999D01*
X139479271Y-96999999D02*
X139729769Y-96987349D01*
X139729769Y-96987349D02*
X139973031Y-96950223D01*
X139973031Y-96950223D02*
X140207826Y-96889851D01*
X140207826Y-96889851D02*
X140432921Y-96807465D01*
X140432921Y-96807465D02*
X140647086Y-96704297D01*
X140647086Y-96704297D02*
X140849089Y-96581577D01*
X140849089Y-96581577D02*
X141037699Y-96440538D01*
X141037699Y-96440538D02*
X141211683Y-96282410D01*
X141211683Y-96282410D02*
X141369810Y-96108426D01*
X141369810Y-96108426D02*
X141510850Y-95919817D01*
X141510850Y-95919817D02*
X141633570Y-95717814D01*
X141633570Y-95717814D02*
X141736738Y-95503649D01*
X141736738Y-95503649D02*
X141819124Y-95278554D01*
X141819124Y-95278554D02*
X141879496Y-95043759D01*
X141879496Y-95043759D02*
X141916622Y-94800497D01*
X141916622Y-94800497D02*
X141929272Y-94549999D01*
X141929272Y-94549999D02*
X141917283Y-94307846D01*
X141917283Y-94307846D02*
X141881760Y-94069795D01*
X141881760Y-94069795D02*
X141823370Y-93837452D01*
X141823370Y-93837452D02*
X141742776Y-93612424D01*
X141742776Y-93612424D02*
X141640645Y-93396316D01*
X141640645Y-93396316D02*
X141517642Y-93190737D01*
X141517642Y-93190737D02*
X141374433Y-92997291D01*
X141374433Y-92997291D02*
X141211683Y-92817587D01*
X141211683Y-92817587D02*
X141031978Y-92654836D01*
X141031978Y-92654836D02*
X140838532Y-92511627D01*
X140838532Y-92511627D02*
X140632953Y-92388624D01*
X140632953Y-92388624D02*
X140416845Y-92286494D01*
X140416845Y-92286494D02*
X140191817Y-92205900D01*
X140191817Y-92205900D02*
X139959474Y-92147510D01*
X139959474Y-92147510D02*
X139721423Y-92111987D01*
X139721423Y-92111987D02*
X139479271Y-92099999D01*
X196029326Y-58649982D02*
X196029326Y-58649982D01*
X138959336Y-130060070D02*
X138683552Y-130075579D01*
X138683552Y-130075579D02*
X138414973Y-130121192D01*
X138414973Y-130121192D02*
X138155658Y-130195530D01*
X138155658Y-130195530D02*
X137907668Y-130297218D01*
X137907668Y-130297218D02*
X137673060Y-130424881D01*
X137673060Y-130424881D02*
X137453896Y-130577141D01*
X137453896Y-130577141D02*
X137252234Y-130752624D01*
X137252234Y-130752624D02*
X137070134Y-130949952D01*
X137070134Y-130949952D02*
X136909655Y-131167749D01*
X136909655Y-131167749D02*
X136772856Y-131404640D01*
X136772856Y-131404640D02*
X136695831Y-131572496D01*
X118197376Y-97055963D02*
X104397556Y-97055963D01*
X104397556Y-110855783D02*
X118197376Y-110855783D01*
X123447556Y-53705783D02*
X137247376Y-53705783D01*
X137247376Y-39905963D02*
X123447556Y-39905963D01*
X137247376Y-39905963D02*
X137247376Y-53705783D01*
X123447556Y-53705783D02*
X123447556Y-39905963D01*
X123447556Y-72755783D02*
X137247376Y-72755783D01*
X137247376Y-58955963D02*
X123447556Y-58955963D01*
D11*
X80342994Y-51567611D02*
X80341216Y-37282143D01*
X82723736Y-34899623D02*
X177973736Y-34899623D01*
X205854420Y-97978640D02*
X219114420Y-97978640D01*
X199402863Y-146819643D02*
G75*
G02*
X197024420Y-149197083I-2378443J1003D01*
G01*
X198464420Y-39708599D02*
G75*
G02*
X199674420Y-40908640I0J-1210041D01*
G01*
X80345407Y-37282136D02*
G75*
G02*
X82723737Y-34899624I2379013J3496D01*
G01*
X58911241Y-106341847D02*
G75*
G02*
X61291215Y-108719642I3179J-2376793D01*
G01*
X80345404Y-51567609D02*
G75*
G02*
X77961237Y-53949622I-2380984J-1031D01*
G01*
D12*
X63673735Y-115855347D02*
G75*
G02*
X61291216Y-113472143I685J2383204D01*
G01*
X58911241Y-106331847D02*
G75*
G02*
X61291215Y-108709642I3179J-2376793D01*
G01*
X44624244Y-106330347D02*
G75*
G02*
X42241216Y-103947143I176J2383204D01*
G01*
X42239831Y-84928638D02*
G75*
G02*
X44624245Y-82513862I2384589J29998D01*
G01*
X61290396Y-80132617D02*
G75*
G02*
X58911237Y-82514622I-2375976J-6023D01*
G01*
X61285412Y-56322126D02*
G75*
G02*
X63673736Y-53939623I2389008J-6514D01*
G01*
X80345404Y-51557609D02*
G75*
G02*
X77961237Y-53939622I-2380984J-1031D01*
G01*
X80345407Y-37272136D02*
G75*
G02*
X82723737Y-34889624I2379013J3496D01*
G01*
X198464420Y-39698599D02*
G75*
G02*
X199674420Y-40898640I0J-1210041D01*
G01*
X199402863Y-146809643D02*
G75*
G02*
X197024420Y-149187083I-2378443J1003D01*
G01*
X205854420Y-97968640D02*
X219114420Y-97968640D01*
X82723736Y-34889623D02*
X177973736Y-34889623D01*
X80342994Y-51557611D02*
X80341216Y-37272143D01*
X63673736Y-53939623D02*
X77961744Y-53938861D01*
X61292994Y-80132611D02*
X61285413Y-56322126D01*
X44624244Y-82513861D02*
X58911744Y-82513861D01*
X42241216Y-103947143D02*
X42239831Y-84928638D01*
X58911236Y-106327123D02*
X44624244Y-106326361D01*
X61291216Y-113472143D02*
X61291216Y-108709643D01*
X113678716Y-115852123D02*
X63674244Y-115851361D01*
X118441216Y-120614623D02*
X113678716Y-115852123D01*
X125586236Y-120614623D02*
X118441216Y-120614623D01*
X130348736Y-125377123D02*
X125586236Y-120614623D01*
X130348736Y-132522143D02*
X130348736Y-125377123D01*
X139873736Y-139664623D02*
X130348736Y-132522143D01*
X154161236Y-139664623D02*
X139873736Y-139664623D01*
X158923736Y-144427123D02*
X154161236Y-139664623D01*
X173211236Y-144427123D02*
X158923736Y-144427123D01*
X177973736Y-149187083D02*
X173211236Y-144427123D01*
X197023736Y-149187083D02*
X177973736Y-149187083D01*
X199403716Y-132522143D02*
X199403716Y-146809643D01*
X224857219Y-107068640D02*
X199403716Y-132522143D01*
X224854420Y-103708640D02*
X224857219Y-107068640D01*
X219114420Y-97968640D02*
X224854420Y-103708640D01*
X199674420Y-91788640D02*
X205854420Y-97968640D01*
X199674420Y-40898640D02*
X199674420Y-91788640D01*
X182736236Y-39652123D02*
X198464420Y-39698640D01*
X177973736Y-34889623D02*
X182736236Y-39652123D01*
D13*
X180597556Y-144183283D02*
X194397376Y-144183283D01*
X194397376Y-130383463D02*
X180597556Y-130383463D01*
X194397376Y-130383463D02*
X194397376Y-144183283D01*
X180597556Y-144183283D02*
X180597556Y-130383463D01*
X189924436Y-115288243D02*
X199683116Y-105532103D01*
X209441796Y-115288243D02*
X199683116Y-125046923D01*
X209441796Y-115288243D02*
X199683116Y-105532103D01*
X189924436Y-115288243D02*
X199683116Y-125046923D01*
X180597556Y-96558283D02*
X194397376Y-96558283D01*
X194397376Y-82758463D02*
X180597556Y-82758463D01*
X194397376Y-82758463D02*
X194397376Y-96558283D01*
X180597556Y-96558283D02*
X180597556Y-82758463D01*
X180597556Y-77508283D02*
X180597556Y-63708463D01*
X194397376Y-63708463D02*
X194397376Y-77508283D01*
X194397376Y-63708463D02*
X180597556Y-63708463D01*
X180597556Y-77508283D02*
X194397376Y-77508283D01*
X180597556Y-58458283D02*
X194397376Y-58458283D01*
X194397376Y-44658463D02*
X180597556Y-44658463D01*
X194397376Y-44658463D02*
X194397376Y-58458283D01*
X180597556Y-58458283D02*
X180597556Y-44658463D01*
X161547556Y-110845783D02*
X175347376Y-110845783D01*
X175347376Y-97045963D02*
X161547556Y-97045963D01*
X175347376Y-97045963D02*
X175347376Y-110845783D01*
X161547556Y-110845783D02*
X161547556Y-97045963D01*
X161547556Y-91795783D02*
X175347376Y-91795783D01*
X175347376Y-77995963D02*
X161547556Y-77995963D01*
X175347376Y-77995963D02*
X175347376Y-91795783D01*
X161547556Y-91795783D02*
X161547556Y-77995963D01*
X161547556Y-72745783D02*
X161547556Y-58945963D01*
X175347376Y-58945963D02*
X175347376Y-72745783D01*
X175347376Y-58945963D02*
X161547556Y-58945963D01*
X161547556Y-72745783D02*
X175347376Y-72745783D01*
X142497556Y-134658283D02*
X142497556Y-120858463D01*
X156297376Y-120858463D02*
X156297376Y-134658283D01*
X156297376Y-120858463D02*
X142497556Y-120858463D01*
X142497556Y-134658283D02*
X156297376Y-134658283D01*
X142497556Y-110845783D02*
X156297376Y-110845783D01*
X156297376Y-97045963D02*
X142497556Y-97045963D01*
X156297376Y-97045963D02*
X156297376Y-110845783D01*
X142497556Y-110845783D02*
X142497556Y-97045963D01*
X142497556Y-91795783D02*
X156297376Y-91795783D01*
X156297376Y-77995963D02*
X142497556Y-77995963D01*
X156297376Y-77995963D02*
X156297376Y-91795783D01*
X142497556Y-91795783D02*
X142497556Y-77995963D01*
X142497556Y-72745783D02*
X142497556Y-58945963D01*
X156297376Y-58945963D02*
X156297376Y-72745783D01*
X156297376Y-58945963D02*
X142497556Y-58945963D01*
X142497556Y-72745783D02*
X156297376Y-72745783D01*
X142497556Y-53695783D02*
X142497556Y-39895963D01*
X156297376Y-39895963D02*
X156297376Y-53695783D01*
X156297376Y-39895963D02*
X142497556Y-39895963D01*
X142497556Y-53695783D02*
X156297376Y-53695783D01*
X123447556Y-110845783D02*
X137247376Y-110845783D01*
X137247376Y-97045963D02*
X123447556Y-97045963D01*
X137247376Y-97045963D02*
X137247376Y-110845783D01*
X123447556Y-110845783D02*
X123447556Y-97045963D01*
X123447556Y-91795783D02*
X123447556Y-77995963D01*
X137247376Y-77995963D02*
X137247376Y-91795783D01*
X137247376Y-77995963D02*
X123447556Y-77995963D01*
X123447556Y-91795783D02*
X137247376Y-91795783D01*
X123447556Y-72745783D02*
X123447556Y-58945963D01*
X137247376Y-58945963D02*
X137247376Y-72745783D01*
X137247376Y-58945963D02*
X123447556Y-58945963D01*
X123447556Y-72745783D02*
X137247376Y-72745783D01*
X123447556Y-53695783D02*
X123447556Y-39895963D01*
X137247376Y-39895963D02*
X137247376Y-53695783D01*
X137247376Y-39895963D02*
X123447556Y-39895963D01*
X123447556Y-53695783D02*
X137247376Y-53695783D01*
X104397556Y-110845783D02*
X118197376Y-110845783D01*
X118197376Y-97045963D02*
X104397556Y-97045963D01*
X118197376Y-97045963D02*
X118197376Y-110845783D01*
X104397556Y-110845783D02*
X104397556Y-97045963D01*
X104397556Y-72745783D02*
X104397556Y-58945963D01*
X118197376Y-58945963D02*
X118197376Y-72745783D01*
X118197376Y-58945963D02*
X104397556Y-58945963D01*
X104397556Y-72745783D02*
X118197376Y-72745783D01*
X104397556Y-53695783D02*
X104397556Y-39895963D01*
X118197376Y-39895963D02*
X118197376Y-53695783D01*
X118197376Y-39895963D02*
X104397556Y-39895963D01*
X104397556Y-53695783D02*
X118197376Y-53695783D01*
X85347556Y-110845783D02*
X85347556Y-97045963D01*
X99147376Y-97045963D02*
X99147376Y-110845783D01*
X99147376Y-97045963D02*
X85347556Y-97045963D01*
X85347556Y-110845783D02*
X99147376Y-110845783D01*
X85347556Y-91795783D02*
X99147376Y-91795783D01*
X99147376Y-77995963D02*
X85347556Y-77995963D01*
X99147376Y-77995963D02*
X99147376Y-91795783D01*
X85347556Y-91795783D02*
X85347556Y-77995963D01*
X85347556Y-72745783D02*
X99147376Y-72745783D01*
X99147376Y-58945963D02*
X85347556Y-58945963D01*
X99147376Y-58945963D02*
X99147376Y-72745783D01*
X85347556Y-72745783D02*
X85347556Y-58945963D01*
X85347556Y-53695783D02*
X99147376Y-53695783D01*
X99147376Y-39895963D02*
X85347556Y-39895963D01*
X99147376Y-39895963D02*
X99147376Y-53695783D01*
X85347556Y-53695783D02*
X85347556Y-39895963D01*
X47247556Y-101320783D02*
X47247556Y-87520963D01*
X61047376Y-87520963D02*
X61047376Y-101320783D01*
X61047376Y-87520963D02*
X47247556Y-87520963D01*
X47247556Y-101320783D02*
X61047376Y-101320783D01*
X66297556Y-91795783D02*
X80097376Y-91795783D01*
X80097376Y-77995963D02*
X66297556Y-77995963D01*
X80097376Y-77995963D02*
X80097376Y-91795783D01*
X66297556Y-91795783D02*
X66297556Y-77995963D01*
X104397556Y-91795783D02*
X118197376Y-91795783D01*
X118197376Y-77995963D02*
X104397556Y-77995963D01*
X118197376Y-77995963D02*
X118197376Y-91795783D01*
X104397556Y-91795783D02*
X104397556Y-77995963D01*
X66297556Y-110845783D02*
X66297556Y-97045963D01*
X80097376Y-97045963D02*
X80097376Y-110845783D01*
X80097376Y-97045963D02*
X66297556Y-97045963D01*
X66297556Y-110845783D02*
X80097376Y-110845783D01*
X66297556Y-72745783D02*
X80097376Y-72745783D01*
X80097376Y-58945963D02*
X66297556Y-58945963D01*
X80097376Y-58945963D02*
X80097376Y-72745783D01*
X66297556Y-72745783D02*
X66297556Y-58945963D01*
X161547556Y-53695783D02*
X175347376Y-53695783D01*
X175347376Y-39895963D02*
X161547556Y-39895963D01*
X175347376Y-39895963D02*
X175347376Y-53695783D01*
X161547556Y-53695783D02*
X161547556Y-39895963D01*
X161547556Y-139420783D02*
X161547556Y-125620963D01*
X175347376Y-125620963D02*
X175347376Y-139420783D01*
X175347376Y-125620963D02*
X161547556Y-125620963D01*
X161547556Y-139420783D02*
X175347376Y-139420783D01*
X101839271Y-54090077D02*
X101839271Y-54090077D01*
X158579307Y-54070004D02*
X158579307Y-54070004D01*
X103571682Y-54807666D02*
X103391977Y-54644915D01*
X103391977Y-54644915D02*
X103198531Y-54501705D01*
X103198531Y-54501705D02*
X102992952Y-54378703D01*
X102992952Y-54378703D02*
X102776845Y-54276572D01*
X102776845Y-54276572D02*
X102551816Y-54195978D01*
X102551816Y-54195978D02*
X102319474Y-54137588D01*
X102319474Y-54137588D02*
X102081423Y-54102065D01*
X102081423Y-54102065D02*
X101839271Y-54090077D01*
X104289271Y-56540077D02*
X104277282Y-56297924D01*
X104277282Y-56297924D02*
X104241759Y-56059873D01*
X104241759Y-56059873D02*
X104183369Y-55827531D01*
X104183369Y-55827531D02*
X104102775Y-55602503D01*
X104102775Y-55602503D02*
X104000644Y-55386395D01*
X104000644Y-55386395D02*
X103877641Y-55180816D01*
X103877641Y-55180816D02*
X103734432Y-54987370D01*
X103734432Y-54987370D02*
X103571682Y-54807666D01*
X102776845Y-58803582D02*
X103025700Y-58683715D01*
X103025700Y-58683715D02*
X103256380Y-58538794D01*
X103256380Y-58538794D02*
X103467507Y-58370879D01*
X103467507Y-58370879D02*
X103657706Y-58182029D01*
X103657706Y-58182029D02*
X103825600Y-57974304D01*
X103825600Y-57974304D02*
X103969814Y-57749763D01*
X103969814Y-57749763D02*
X104088972Y-57510466D01*
X104088972Y-57510466D02*
X104181696Y-57258472D01*
X104181696Y-57258472D02*
X104246612Y-56995841D01*
X104246612Y-56995841D02*
X104282343Y-56724631D01*
X104282343Y-56724631D02*
X104289271Y-56540077D01*
X100106859Y-58272489D02*
X100312834Y-58456530D01*
X100312834Y-58456530D02*
X100535001Y-58614191D01*
X100535001Y-58614191D02*
X100770929Y-58744989D01*
X100770929Y-58744989D02*
X101018189Y-58848440D01*
X101018189Y-58848440D02*
X101274353Y-58924062D01*
X101274353Y-58924062D02*
X101536989Y-58971370D01*
X101536989Y-58971370D02*
X101803671Y-58989882D01*
X101803671Y-58989882D02*
X102071967Y-58979114D01*
X102071967Y-58979114D02*
X102339449Y-58938584D01*
X102339449Y-58938584D02*
X102603687Y-58867808D01*
X102603687Y-58867808D02*
X102776845Y-58803582D01*
X99575765Y-55602503D02*
X99484556Y-55863229D01*
X99484556Y-55863229D02*
X99423916Y-56128818D01*
X99423916Y-56128818D02*
X99393360Y-56396842D01*
X99393360Y-56396842D02*
X99392406Y-56664869D01*
X99392406Y-56664869D02*
X99420571Y-56930472D01*
X99420571Y-56930472D02*
X99477370Y-57191221D01*
X99477370Y-57191221D02*
X99562322Y-57444687D01*
X99562322Y-57444687D02*
X99674943Y-57688440D01*
X99674943Y-57688440D02*
X99814749Y-57920051D01*
X99814749Y-57920051D02*
X99981257Y-58137090D01*
X99981257Y-58137090D02*
X100106859Y-58272489D01*
X101839271Y-54090077D02*
X101563487Y-54105586D01*
X101563487Y-54105586D02*
X101294908Y-54151199D01*
X101294908Y-54151199D02*
X101035593Y-54225537D01*
X101035593Y-54225537D02*
X100787603Y-54327225D01*
X100787603Y-54327225D02*
X100552995Y-54454888D01*
X100552995Y-54454888D02*
X100333831Y-54607148D01*
X100333831Y-54607148D02*
X100132169Y-54782631D01*
X100132169Y-54782631D02*
X99950068Y-54979959D01*
X99950068Y-54979959D02*
X99789589Y-55197756D01*
X99789589Y-55197756D02*
X99652791Y-55434647D01*
X99652791Y-55434647D02*
X99575765Y-55602503D01*
X101529131Y-92210138D02*
X101529131Y-92210138D01*
X161029307Y-56520004D02*
X161016657Y-56269505D01*
X161016657Y-56269505D02*
X160979531Y-56026243D01*
X160979531Y-56026243D02*
X160919159Y-55791448D01*
X160919159Y-55791448D02*
X160836773Y-55566353D01*
X160836773Y-55566353D02*
X160733605Y-55352188D01*
X160733605Y-55352188D02*
X160610885Y-55150185D01*
X160610885Y-55150185D02*
X160469846Y-54961576D01*
X160469846Y-54961576D02*
X160311718Y-54787592D01*
X160311718Y-54787592D02*
X160137734Y-54629464D01*
X160137734Y-54629464D02*
X159949125Y-54488425D01*
X159949125Y-54488425D02*
X159747122Y-54365705D01*
X159747122Y-54365705D02*
X159532957Y-54262537D01*
X159532957Y-54262537D02*
X159307862Y-54180151D01*
X159307862Y-54180151D02*
X159073067Y-54119779D01*
X159073067Y-54119779D02*
X158829805Y-54082653D01*
X158829805Y-54082653D02*
X158579307Y-54070004D01*
X159516881Y-58783509D02*
X159765736Y-58663641D01*
X159765736Y-58663641D02*
X159996416Y-58518720D01*
X159996416Y-58518720D02*
X160207543Y-58350805D01*
X160207543Y-58350805D02*
X160397742Y-58161955D01*
X160397742Y-58161955D02*
X160565637Y-57954230D01*
X160565637Y-57954230D02*
X160709851Y-57729690D01*
X160709851Y-57729690D02*
X160829008Y-57490393D01*
X160829008Y-57490393D02*
X160921733Y-57238399D01*
X160921733Y-57238399D02*
X160986648Y-56975767D01*
X160986648Y-56975767D02*
X161022379Y-56704558D01*
X161022379Y-56704558D02*
X161029307Y-56520004D01*
X156846895Y-58252416D02*
X157052870Y-58436457D01*
X157052870Y-58436457D02*
X157275037Y-58594118D01*
X157275037Y-58594118D02*
X157510965Y-58724916D01*
X157510965Y-58724916D02*
X157758225Y-58828367D01*
X157758225Y-58828367D02*
X158014389Y-58903988D01*
X158014389Y-58903988D02*
X158277025Y-58951297D01*
X158277025Y-58951297D02*
X158543707Y-58969808D01*
X158543707Y-58969808D02*
X158812003Y-58959041D01*
X158812003Y-58959041D02*
X159079485Y-58918511D01*
X159079485Y-58918511D02*
X159343723Y-58847735D01*
X159343723Y-58847735D02*
X159516881Y-58783509D01*
X156315802Y-55582429D02*
X156224593Y-55843155D01*
X156224593Y-55843155D02*
X156163952Y-56108745D01*
X156163952Y-56108745D02*
X156133396Y-56376768D01*
X156133396Y-56376768D02*
X156132442Y-56644796D01*
X156132442Y-56644796D02*
X156160607Y-56910399D01*
X156160607Y-56910399D02*
X156217406Y-57171148D01*
X156217406Y-57171148D02*
X156302358Y-57424614D01*
X156302358Y-57424614D02*
X156414979Y-57668367D01*
X156414979Y-57668367D02*
X156554785Y-57899977D01*
X156554785Y-57899977D02*
X156721293Y-58117017D01*
X156721293Y-58117017D02*
X156846895Y-58252416D01*
X158579307Y-54070004D02*
X158303523Y-54085513D01*
X158303523Y-54085513D02*
X158034944Y-54131125D01*
X158034944Y-54131125D02*
X157775629Y-54205464D01*
X157775629Y-54205464D02*
X157527639Y-54307152D01*
X157527639Y-54307152D02*
X157293031Y-54434814D01*
X157293031Y-54434814D02*
X157073867Y-54587075D01*
X157073867Y-54587075D02*
X156872205Y-54762557D01*
X156872205Y-54762557D02*
X156690105Y-54959885D01*
X156690105Y-54959885D02*
X156529626Y-55177682D01*
X156529626Y-55177682D02*
X156392827Y-55414573D01*
X156392827Y-55414573D02*
X156315802Y-55582429D01*
X64449197Y-92370158D02*
X64449197Y-92370158D01*
X103979132Y-94660138D02*
X103966482Y-94409639D01*
X103966482Y-94409639D02*
X103929356Y-94166377D01*
X103929356Y-94166377D02*
X103868984Y-93931583D01*
X103868984Y-93931583D02*
X103786598Y-93706487D01*
X103786598Y-93706487D02*
X103683430Y-93492322D01*
X103683430Y-93492322D02*
X103560710Y-93290319D01*
X103560710Y-93290319D02*
X103419670Y-93101710D01*
X103419670Y-93101710D02*
X103261543Y-92927726D01*
X103261543Y-92927726D02*
X103087559Y-92769599D01*
X103087559Y-92769599D02*
X102898949Y-92628559D01*
X102898949Y-92628559D02*
X102696946Y-92505839D01*
X102696946Y-92505839D02*
X102482781Y-92402671D01*
X102482781Y-92402671D02*
X102257686Y-92320285D01*
X102257686Y-92320285D02*
X102022891Y-92259913D01*
X102022891Y-92259913D02*
X101779629Y-92222787D01*
X101779629Y-92222787D02*
X101529131Y-92210138D01*
X102466706Y-96923643D02*
X102715561Y-96803776D01*
X102715561Y-96803776D02*
X102946241Y-96658855D01*
X102946241Y-96658855D02*
X103157368Y-96490940D01*
X103157368Y-96490940D02*
X103347567Y-96302090D01*
X103347567Y-96302090D02*
X103515461Y-96094365D01*
X103515461Y-96094365D02*
X103659675Y-95869824D01*
X103659675Y-95869824D02*
X103778833Y-95630527D01*
X103778833Y-95630527D02*
X103871557Y-95378533D01*
X103871557Y-95378533D02*
X103936473Y-95115902D01*
X103936473Y-95115902D02*
X103972204Y-94844692D01*
X103972204Y-94844692D02*
X103979132Y-94660138D01*
X99796720Y-96392550D02*
X100002695Y-96576591D01*
X100002695Y-96576591D02*
X100224862Y-96734252D01*
X100224862Y-96734252D02*
X100460790Y-96865050D01*
X100460790Y-96865050D02*
X100708050Y-96968501D01*
X100708050Y-96968501D02*
X100964214Y-97044123D01*
X100964214Y-97044123D02*
X101226850Y-97091431D01*
X101226850Y-97091431D02*
X101493532Y-97109943D01*
X101493532Y-97109943D02*
X101761828Y-97099175D01*
X101761828Y-97099175D02*
X102029310Y-97058645D01*
X102029310Y-97058645D02*
X102293548Y-96987869D01*
X102293548Y-96987869D02*
X102466706Y-96923643D01*
X99265626Y-93722564D02*
X99174417Y-93983290D01*
X99174417Y-93983290D02*
X99113777Y-94248879D01*
X99113777Y-94248879D02*
X99083221Y-94516903D01*
X99083221Y-94516903D02*
X99082267Y-94784930D01*
X99082267Y-94784930D02*
X99110432Y-95050533D01*
X99110432Y-95050533D02*
X99167231Y-95311282D01*
X99167231Y-95311282D02*
X99252183Y-95564748D01*
X99252183Y-95564748D02*
X99364804Y-95808501D01*
X99364804Y-95808501D02*
X99504610Y-96040112D01*
X99504610Y-96040112D02*
X99671118Y-96257151D01*
X99671118Y-96257151D02*
X99796720Y-96392550D01*
X101529131Y-92210138D02*
X101253347Y-92225647D01*
X101253347Y-92225647D02*
X100984768Y-92271260D01*
X100984768Y-92271260D02*
X100725454Y-92345598D01*
X100725454Y-92345598D02*
X100477463Y-92447286D01*
X100477463Y-92447286D02*
X100242856Y-92574949D01*
X100242856Y-92574949D02*
X100023692Y-92727209D01*
X100023692Y-92727209D02*
X99822030Y-92902692D01*
X99822030Y-92902692D02*
X99639929Y-93100020D01*
X99639929Y-93100020D02*
X99479450Y-93317817D01*
X99479450Y-93317817D02*
X99342652Y-93554708D01*
X99342652Y-93554708D02*
X99265626Y-93722564D01*
X194459347Y-122970075D02*
X194459347Y-122970075D01*
X66181610Y-93087747D02*
X66001904Y-92924996D01*
X66001904Y-92924996D02*
X65808459Y-92781786D01*
X65808459Y-92781786D02*
X65602879Y-92658784D01*
X65602879Y-92658784D02*
X65386772Y-92556653D01*
X65386772Y-92556653D02*
X65161743Y-92476059D01*
X65161743Y-92476059D02*
X64929400Y-92417669D01*
X64929400Y-92417669D02*
X64691349Y-92382146D01*
X64691349Y-92382146D02*
X64449197Y-92370158D01*
X66899198Y-94820158D02*
X66887209Y-94578005D01*
X66887209Y-94578005D02*
X66851687Y-94339954D01*
X66851687Y-94339954D02*
X66793296Y-94107612D01*
X66793296Y-94107612D02*
X66712703Y-93882584D01*
X66712703Y-93882584D02*
X66610572Y-93666476D01*
X66610572Y-93666476D02*
X66487569Y-93460897D01*
X66487569Y-93460897D02*
X66344360Y-93267451D01*
X66344360Y-93267451D02*
X66181610Y-93087747D01*
X64449197Y-97270159D02*
X64699695Y-97257509D01*
X64699695Y-97257509D02*
X64942957Y-97220383D01*
X64942957Y-97220383D02*
X65177752Y-97160011D01*
X65177752Y-97160011D02*
X65402848Y-97077625D01*
X65402848Y-97077625D02*
X65617013Y-96974457D01*
X65617013Y-96974457D02*
X65819016Y-96851737D01*
X65819016Y-96851737D02*
X66007625Y-96710697D01*
X66007625Y-96710697D02*
X66181609Y-96552570D01*
X66181609Y-96552570D02*
X66339737Y-96378586D01*
X66339737Y-96378586D02*
X66480776Y-96189976D01*
X66480776Y-96189976D02*
X66603496Y-95987973D01*
X66603496Y-95987973D02*
X66706664Y-95773808D01*
X66706664Y-95773808D02*
X66789050Y-95548713D01*
X66789050Y-95548713D02*
X66849422Y-95313918D01*
X66849422Y-95313918D02*
X66886548Y-95070656D01*
X66886548Y-95070656D02*
X66899198Y-94820158D01*
X61999198Y-94820158D02*
X62011847Y-95070656D01*
X62011847Y-95070656D02*
X62048973Y-95313918D01*
X62048973Y-95313918D02*
X62109345Y-95548713D01*
X62109345Y-95548713D02*
X62191731Y-95773808D01*
X62191731Y-95773808D02*
X62294899Y-95987973D01*
X62294899Y-95987973D02*
X62417619Y-96189976D01*
X62417619Y-96189976D02*
X62558658Y-96378586D01*
X62558658Y-96378586D02*
X62716786Y-96552570D01*
X62716786Y-96552570D02*
X62890770Y-96710697D01*
X62890770Y-96710697D02*
X63079379Y-96851737D01*
X63079379Y-96851737D02*
X63281382Y-96974457D01*
X63281382Y-96974457D02*
X63495546Y-97077625D01*
X63495546Y-97077625D02*
X63720642Y-97160011D01*
X63720642Y-97160011D02*
X63955436Y-97220383D01*
X63955436Y-97220383D02*
X64198698Y-97257509D01*
X64198698Y-97257509D02*
X64449197Y-97270159D01*
X64449197Y-92370158D02*
X64198698Y-92382807D01*
X64198698Y-92382807D02*
X63955436Y-92419933D01*
X63955436Y-92419933D02*
X63720642Y-92480305D01*
X63720642Y-92480305D02*
X63495546Y-92562691D01*
X63495546Y-92562691D02*
X63281382Y-92665859D01*
X63281382Y-92665859D02*
X63079379Y-92788579D01*
X63079379Y-92788579D02*
X62890770Y-92929619D01*
X62890770Y-92929619D02*
X62716786Y-93087746D01*
X62716786Y-93087746D02*
X62558658Y-93261730D01*
X62558658Y-93261730D02*
X62417619Y-93450339D01*
X62417619Y-93450339D02*
X62294899Y-93652342D01*
X62294899Y-93652342D02*
X62191731Y-93866507D01*
X62191731Y-93866507D02*
X62109345Y-94091603D01*
X62109345Y-94091603D02*
X62048973Y-94326397D01*
X62048973Y-94326397D02*
X62011847Y-94569659D01*
X62011847Y-94569659D02*
X61999198Y-94820158D01*
X177309267Y-139870091D02*
X177309267Y-139870091D01*
X196191759Y-123687663D02*
X196012054Y-123524912D01*
X196012054Y-123524912D02*
X195818608Y-123381703D01*
X195818608Y-123381703D02*
X195613028Y-123258700D01*
X195613028Y-123258700D02*
X195396921Y-123156570D01*
X195396921Y-123156570D02*
X195171893Y-123075976D01*
X195171893Y-123075976D02*
X194939550Y-123017586D01*
X194939550Y-123017586D02*
X194701499Y-122982063D01*
X194701499Y-122982063D02*
X194459347Y-122970075D01*
X196909347Y-125420075D02*
X196897358Y-125177922D01*
X196897358Y-125177922D02*
X196861836Y-124939871D01*
X196861836Y-124939871D02*
X196803445Y-124707528D01*
X196803445Y-124707528D02*
X196722852Y-124482500D01*
X196722852Y-124482500D02*
X196620721Y-124266392D01*
X196620721Y-124266392D02*
X196497718Y-124060813D01*
X196497718Y-124060813D02*
X196354509Y-123867367D01*
X196354509Y-123867367D02*
X196191759Y-123687663D01*
X195396921Y-127683580D02*
X195645776Y-127563712D01*
X195645776Y-127563712D02*
X195876456Y-127418791D01*
X195876456Y-127418791D02*
X196087583Y-127250876D01*
X196087583Y-127250876D02*
X196277782Y-127062026D01*
X196277782Y-127062026D02*
X196445677Y-126854301D01*
X196445677Y-126854301D02*
X196589891Y-126629761D01*
X196589891Y-126629761D02*
X196709048Y-126390464D01*
X196709048Y-126390464D02*
X196801773Y-126138470D01*
X196801773Y-126138470D02*
X196866688Y-125875838D01*
X196866688Y-125875838D02*
X196902419Y-125604629D01*
X196902419Y-125604629D02*
X196909347Y-125420075D01*
X192726935Y-127152487D02*
X192932910Y-127336528D01*
X192932910Y-127336528D02*
X193155077Y-127494189D01*
X193155077Y-127494189D02*
X193391005Y-127624987D01*
X193391005Y-127624987D02*
X193638265Y-127728438D01*
X193638265Y-127728438D02*
X193894429Y-127804059D01*
X193894429Y-127804059D02*
X194157065Y-127851368D01*
X194157065Y-127851368D02*
X194423747Y-127869879D01*
X194423747Y-127869879D02*
X194692043Y-127859112D01*
X194692043Y-127859112D02*
X194959525Y-127818582D01*
X194959525Y-127818582D02*
X195223763Y-127747806D01*
X195223763Y-127747806D02*
X195396921Y-127683580D01*
X192195842Y-124482500D02*
X192104633Y-124743226D01*
X192104633Y-124743226D02*
X192043992Y-125008816D01*
X192043992Y-125008816D02*
X192013436Y-125276839D01*
X192013436Y-125276839D02*
X192012482Y-125544867D01*
X192012482Y-125544867D02*
X192040647Y-125810470D01*
X192040647Y-125810470D02*
X192097446Y-126071219D01*
X192097446Y-126071219D02*
X192182398Y-126324685D01*
X192182398Y-126324685D02*
X192295019Y-126568438D01*
X192295019Y-126568438D02*
X192434825Y-126800048D01*
X192434825Y-126800048D02*
X192601333Y-127017088D01*
X192601333Y-127017088D02*
X192726935Y-127152487D01*
X194459347Y-122970075D02*
X194183563Y-122985584D01*
X194183563Y-122985584D02*
X193914984Y-123031196D01*
X193914984Y-123031196D02*
X193655669Y-123105535D01*
X193655669Y-123105535D02*
X193407679Y-123207223D01*
X193407679Y-123207223D02*
X193173071Y-123334885D01*
X193173071Y-123334885D02*
X192953907Y-123487146D01*
X192953907Y-123487146D02*
X192752245Y-123662628D01*
X192752245Y-123662628D02*
X192570145Y-123859956D01*
X192570145Y-123859956D02*
X192409666Y-124077753D01*
X192409666Y-124077753D02*
X192272867Y-124314644D01*
X192272867Y-124314644D02*
X192195842Y-124482500D01*
X138959336Y-130050070D02*
X138959336Y-130050070D01*
X179041679Y-140587680D02*
X178861974Y-140424929D01*
X178861974Y-140424929D02*
X178668528Y-140281719D01*
X178668528Y-140281719D02*
X178462948Y-140158717D01*
X178462948Y-140158717D02*
X178246841Y-140056586D01*
X178246841Y-140056586D02*
X178021813Y-139975992D01*
X178021813Y-139975992D02*
X177789470Y-139917602D01*
X177789470Y-139917602D02*
X177551419Y-139882079D01*
X177551419Y-139882079D02*
X177309267Y-139870091D01*
X179759267Y-142320091D02*
X179747278Y-142077938D01*
X179747278Y-142077938D02*
X179711756Y-141839887D01*
X179711756Y-141839887D02*
X179653365Y-141607545D01*
X179653365Y-141607545D02*
X179572772Y-141382517D01*
X179572772Y-141382517D02*
X179470641Y-141166409D01*
X179470641Y-141166409D02*
X179347638Y-140960830D01*
X179347638Y-140960830D02*
X179204429Y-140767384D01*
X179204429Y-140767384D02*
X179041679Y-140587680D01*
X178246841Y-144583596D02*
X178495696Y-144463729D01*
X178495696Y-144463729D02*
X178726376Y-144318808D01*
X178726376Y-144318808D02*
X178937503Y-144150893D01*
X178937503Y-144150893D02*
X179127702Y-143962043D01*
X179127702Y-143962043D02*
X179295597Y-143754318D01*
X179295597Y-143754318D02*
X179439811Y-143529777D01*
X179439811Y-143529777D02*
X179558968Y-143290480D01*
X179558968Y-143290480D02*
X179651693Y-143038486D01*
X179651693Y-143038486D02*
X179716608Y-142775855D01*
X179716608Y-142775855D02*
X179752339Y-142504645D01*
X179752339Y-142504645D02*
X179759267Y-142320091D01*
X175576855Y-144052503D02*
X175782830Y-144236544D01*
X175782830Y-144236544D02*
X176004997Y-144394205D01*
X176004997Y-144394205D02*
X176240925Y-144525003D01*
X176240925Y-144525003D02*
X176488185Y-144628454D01*
X176488185Y-144628454D02*
X176744349Y-144704076D01*
X176744349Y-144704076D02*
X177006985Y-144751384D01*
X177006985Y-144751384D02*
X177273667Y-144769896D01*
X177273667Y-144769896D02*
X177541963Y-144759128D01*
X177541963Y-144759128D02*
X177809445Y-144718598D01*
X177809445Y-144718598D02*
X178073683Y-144647822D01*
X178073683Y-144647822D02*
X178246841Y-144583596D01*
X175045762Y-141382517D02*
X174954553Y-141643243D01*
X174954553Y-141643243D02*
X174893912Y-141908832D01*
X174893912Y-141908832D02*
X174863356Y-142176856D01*
X174863356Y-142176856D02*
X174862402Y-142444883D01*
X174862402Y-142444883D02*
X174890567Y-142710486D01*
X174890567Y-142710486D02*
X174947366Y-142971235D01*
X174947366Y-142971235D02*
X175032318Y-143224701D01*
X175032318Y-143224701D02*
X175144939Y-143468454D01*
X175144939Y-143468454D02*
X175284745Y-143700065D01*
X175284745Y-143700065D02*
X175451253Y-143917104D01*
X175451253Y-143917104D02*
X175576855Y-144052503D01*
X177309267Y-139870091D02*
X177033483Y-139885600D01*
X177033483Y-139885600D02*
X176764904Y-139931212D01*
X176764904Y-139931212D02*
X176505589Y-140005551D01*
X176505589Y-140005551D02*
X176257599Y-140107239D01*
X176257599Y-140107239D02*
X176022991Y-140234902D01*
X176022991Y-140234902D02*
X175803827Y-140387162D01*
X175803827Y-140387162D02*
X175602165Y-140562644D01*
X175602165Y-140562644D02*
X175420065Y-140759972D01*
X175420065Y-140759972D02*
X175259586Y-140977770D01*
X175259586Y-140977770D02*
X175122787Y-141214661D01*
X175122787Y-141214661D02*
X175045762Y-141382517D01*
X139479271Y-92089999D02*
X139479271Y-92089999D01*
X140691748Y-130767659D02*
X140512043Y-130604908D01*
X140512043Y-130604908D02*
X140318597Y-130461699D01*
X140318597Y-130461699D02*
X140113017Y-130338696D01*
X140113017Y-130338696D02*
X139896910Y-130236565D01*
X139896910Y-130236565D02*
X139671882Y-130155971D01*
X139671882Y-130155971D02*
X139439539Y-130097581D01*
X139439539Y-130097581D02*
X139201488Y-130062058D01*
X139201488Y-130062058D02*
X138959336Y-130050070D01*
X141409336Y-132500070D02*
X141397347Y-132257917D01*
X141397347Y-132257917D02*
X141361825Y-132019866D01*
X141361825Y-132019866D02*
X141303434Y-131787524D01*
X141303434Y-131787524D02*
X141222841Y-131562496D01*
X141222841Y-131562496D02*
X141120710Y-131346388D01*
X141120710Y-131346388D02*
X140997707Y-131140809D01*
X140997707Y-131140809D02*
X140854498Y-130947363D01*
X140854498Y-130947363D02*
X140691748Y-130767659D01*
X139896910Y-134763576D02*
X140145765Y-134643708D01*
X140145765Y-134643708D02*
X140376445Y-134498787D01*
X140376445Y-134498787D02*
X140587572Y-134330872D01*
X140587572Y-134330872D02*
X140777771Y-134142022D01*
X140777771Y-134142022D02*
X140945666Y-133934297D01*
X140945666Y-133934297D02*
X141089880Y-133709756D01*
X141089880Y-133709756D02*
X141209037Y-133470459D01*
X141209037Y-133470459D02*
X141301762Y-133218465D01*
X141301762Y-133218465D02*
X141366677Y-132955834D01*
X141366677Y-132955834D02*
X141402408Y-132684624D01*
X141402408Y-132684624D02*
X141409336Y-132500070D01*
X137226924Y-134232482D02*
X137432899Y-134416523D01*
X137432899Y-134416523D02*
X137655066Y-134574184D01*
X137655066Y-134574184D02*
X137890994Y-134704982D01*
X137890994Y-134704982D02*
X138138254Y-134808433D01*
X138138254Y-134808433D02*
X138394418Y-134884055D01*
X138394418Y-134884055D02*
X138657054Y-134931363D01*
X138657054Y-134931363D02*
X138923736Y-134949875D01*
X138923736Y-134949875D02*
X139192032Y-134939108D01*
X139192032Y-134939108D02*
X139459514Y-134898578D01*
X139459514Y-134898578D02*
X139723752Y-134827802D01*
X139723752Y-134827802D02*
X139896910Y-134763576D01*
X136695831Y-131562496D02*
X136604622Y-131823222D01*
X136604622Y-131823222D02*
X136543981Y-132088811D01*
X136543981Y-132088811D02*
X136513425Y-132356835D01*
X136513425Y-132356835D02*
X136512471Y-132624862D01*
X136512471Y-132624862D02*
X136540636Y-132890465D01*
X136540636Y-132890465D02*
X136597435Y-133151214D01*
X136597435Y-133151214D02*
X136682387Y-133404680D01*
X136682387Y-133404680D02*
X136795008Y-133648433D01*
X136795008Y-133648433D02*
X136934814Y-133880044D01*
X136934814Y-133880044D02*
X137101322Y-134097083D01*
X137101322Y-134097083D02*
X137226924Y-134232482D01*
X138959336Y-130050070D02*
X138683552Y-130065579D01*
X138683552Y-130065579D02*
X138414973Y-130111192D01*
X138414973Y-130111192D02*
X138155658Y-130185530D01*
X138155658Y-130185530D02*
X137907668Y-130287218D01*
X137907668Y-130287218D02*
X137673060Y-130414881D01*
X137673060Y-130414881D02*
X137453896Y-130567141D01*
X137453896Y-130567141D02*
X137252234Y-130742624D01*
X137252234Y-130742624D02*
X137070134Y-130939952D01*
X137070134Y-130939952D02*
X136909655Y-131157749D01*
X136909655Y-131157749D02*
X136772856Y-131394640D01*
X136772856Y-131394640D02*
X136695831Y-131562496D01*
X196029326Y-58639982D02*
X196029326Y-58639982D01*
X141211683Y-92807587D02*
X141031978Y-92644836D01*
X141031978Y-92644836D02*
X140838532Y-92501627D01*
X140838532Y-92501627D02*
X140632953Y-92378624D01*
X140632953Y-92378624D02*
X140416845Y-92276494D01*
X140416845Y-92276494D02*
X140191817Y-92195900D01*
X140191817Y-92195900D02*
X139959474Y-92137510D01*
X139959474Y-92137510D02*
X139721423Y-92101987D01*
X139721423Y-92101987D02*
X139479271Y-92089999D01*
X141929272Y-94539999D02*
X141917283Y-94297846D01*
X141917283Y-94297846D02*
X141881760Y-94059795D01*
X141881760Y-94059795D02*
X141823370Y-93827452D01*
X141823370Y-93827452D02*
X141742776Y-93602424D01*
X141742776Y-93602424D02*
X141640645Y-93386316D01*
X141640645Y-93386316D02*
X141517642Y-93180737D01*
X141517642Y-93180737D02*
X141374433Y-92987291D01*
X141374433Y-92987291D02*
X141211683Y-92807587D01*
X139479271Y-96989999D02*
X139729769Y-96977349D01*
X139729769Y-96977349D02*
X139973031Y-96940223D01*
X139973031Y-96940223D02*
X140207826Y-96879851D01*
X140207826Y-96879851D02*
X140432921Y-96797465D01*
X140432921Y-96797465D02*
X140647086Y-96694297D01*
X140647086Y-96694297D02*
X140849089Y-96571577D01*
X140849089Y-96571577D02*
X141037699Y-96430538D01*
X141037699Y-96430538D02*
X141211683Y-96272410D01*
X141211683Y-96272410D02*
X141369810Y-96098426D01*
X141369810Y-96098426D02*
X141510850Y-95909817D01*
X141510850Y-95909817D02*
X141633570Y-95707814D01*
X141633570Y-95707814D02*
X141736738Y-95493649D01*
X141736738Y-95493649D02*
X141819124Y-95268554D01*
X141819124Y-95268554D02*
X141879496Y-95033759D01*
X141879496Y-95033759D02*
X141916622Y-94790497D01*
X141916622Y-94790497D02*
X141929272Y-94539999D01*
X137029271Y-94539999D02*
X137041920Y-94790497D01*
X137041920Y-94790497D02*
X137079046Y-95033759D01*
X137079046Y-95033759D02*
X137139418Y-95268554D01*
X137139418Y-95268554D02*
X137221804Y-95493649D01*
X137221804Y-95493649D02*
X137324972Y-95707814D01*
X137324972Y-95707814D02*
X137447692Y-95909817D01*
X137447692Y-95909817D02*
X137588732Y-96098426D01*
X137588732Y-96098426D02*
X137746859Y-96272410D01*
X137746859Y-96272410D02*
X137920843Y-96430538D01*
X137920843Y-96430538D02*
X138109452Y-96571577D01*
X138109452Y-96571577D02*
X138311455Y-96694297D01*
X138311455Y-96694297D02*
X138525620Y-96797465D01*
X138525620Y-96797465D02*
X138750716Y-96879851D01*
X138750716Y-96879851D02*
X138985510Y-96940223D01*
X138985510Y-96940223D02*
X139228772Y-96977349D01*
X139228772Y-96977349D02*
X139479271Y-96989999D01*
X139479271Y-92089999D02*
X139228772Y-92102648D01*
X139228772Y-92102648D02*
X138985510Y-92139774D01*
X138985510Y-92139774D02*
X138750716Y-92200146D01*
X138750716Y-92200146D02*
X138525620Y-92282532D01*
X138525620Y-92282532D02*
X138311455Y-92385700D01*
X138311455Y-92385700D02*
X138109452Y-92508420D01*
X138109452Y-92508420D02*
X137920843Y-92649459D01*
X137920843Y-92649459D02*
X137746859Y-92807587D01*
X137746859Y-92807587D02*
X137588732Y-92981571D01*
X137588732Y-92981571D02*
X137447692Y-93170180D01*
X137447692Y-93170180D02*
X137324972Y-93372183D01*
X137324972Y-93372183D02*
X137221804Y-93586348D01*
X137221804Y-93586348D02*
X137139418Y-93811443D01*
X137139418Y-93811443D02*
X137079046Y-94046238D01*
X137079046Y-94046238D02*
X137041920Y-94289500D01*
X137041920Y-94289500D02*
X137029271Y-94539999D01*
X196139300Y-98040203D02*
X196139300Y-98040203D01*
X197761738Y-59357570D02*
X197582033Y-59194819D01*
X197582033Y-59194819D02*
X197388587Y-59051610D01*
X197388587Y-59051610D02*
X197183007Y-58928607D01*
X197183007Y-58928607D02*
X196966900Y-58826477D01*
X196966900Y-58826477D02*
X196741872Y-58745883D01*
X196741872Y-58745883D02*
X196509529Y-58687493D01*
X196509529Y-58687493D02*
X196271478Y-58651970D01*
X196271478Y-58651970D02*
X196029326Y-58639982D01*
X198479326Y-61089982D02*
X198467337Y-60847829D01*
X198467337Y-60847829D02*
X198431815Y-60609778D01*
X198431815Y-60609778D02*
X198373424Y-60377435D01*
X198373424Y-60377435D02*
X198292831Y-60152407D01*
X198292831Y-60152407D02*
X198190700Y-59936299D01*
X198190700Y-59936299D02*
X198067697Y-59730720D01*
X198067697Y-59730720D02*
X197924488Y-59537274D01*
X197924488Y-59537274D02*
X197761738Y-59357570D01*
X196966900Y-63353487D02*
X197215755Y-63233620D01*
X197215755Y-63233620D02*
X197446435Y-63088699D01*
X197446435Y-63088699D02*
X197657562Y-62920784D01*
X197657562Y-62920784D02*
X197847761Y-62731934D01*
X197847761Y-62731934D02*
X198015656Y-62524209D01*
X198015656Y-62524209D02*
X198159870Y-62299668D01*
X198159870Y-62299668D02*
X198279027Y-62060371D01*
X198279027Y-62060371D02*
X198371752Y-61808377D01*
X198371752Y-61808377D02*
X198436667Y-61545746D01*
X198436667Y-61545746D02*
X198472398Y-61274536D01*
X198472398Y-61274536D02*
X198479326Y-61089982D01*
X194296914Y-62822394D02*
X194502889Y-63006435D01*
X194502889Y-63006435D02*
X194725056Y-63164096D01*
X194725056Y-63164096D02*
X194960984Y-63294894D01*
X194960984Y-63294894D02*
X195208244Y-63398345D01*
X195208244Y-63398345D02*
X195464408Y-63473967D01*
X195464408Y-63473967D02*
X195727044Y-63521275D01*
X195727044Y-63521275D02*
X195993726Y-63539787D01*
X195993726Y-63539787D02*
X196262022Y-63529019D01*
X196262022Y-63529019D02*
X196529504Y-63488489D01*
X196529504Y-63488489D02*
X196793742Y-63417713D01*
X196793742Y-63417713D02*
X196966900Y-63353487D01*
X193765821Y-60152407D02*
X193674612Y-60413133D01*
X193674612Y-60413133D02*
X193613971Y-60678723D01*
X193613971Y-60678723D02*
X193583415Y-60946746D01*
X193583415Y-60946746D02*
X193582461Y-61214774D01*
X193582461Y-61214774D02*
X193610626Y-61480377D01*
X193610626Y-61480377D02*
X193667425Y-61741126D01*
X193667425Y-61741126D02*
X193752377Y-61994592D01*
X193752377Y-61994592D02*
X193864998Y-62238345D01*
X193864998Y-62238345D02*
X194004804Y-62469956D01*
X194004804Y-62469956D02*
X194171312Y-62686995D01*
X194171312Y-62686995D02*
X194296914Y-62822394D01*
X196029326Y-58639982D02*
X195753542Y-58655491D01*
X195753542Y-58655491D02*
X195484963Y-58701103D01*
X195484963Y-58701103D02*
X195225648Y-58775442D01*
X195225648Y-58775442D02*
X194977658Y-58877130D01*
X194977658Y-58877130D02*
X194743050Y-59004792D01*
X194743050Y-59004792D02*
X194523886Y-59157053D01*
X194523886Y-59157053D02*
X194322224Y-59332535D01*
X194322224Y-59332535D02*
X194140124Y-59529863D01*
X194140124Y-59529863D02*
X193979645Y-59747660D01*
X193979645Y-59747660D02*
X193842846Y-59984551D01*
X193842846Y-59984551D02*
X193765821Y-60152407D01*
X197871712Y-98757791D02*
X197692007Y-98595040D01*
X197692007Y-98595040D02*
X197498561Y-98451831D01*
X197498561Y-98451831D02*
X197292982Y-98328828D01*
X197292982Y-98328828D02*
X197076874Y-98226698D01*
X197076874Y-98226698D02*
X196851846Y-98146104D01*
X196851846Y-98146104D02*
X196619503Y-98087714D01*
X196619503Y-98087714D02*
X196381452Y-98052191D01*
X196381452Y-98052191D02*
X196139300Y-98040203D01*
X198589301Y-100490203D02*
X198577312Y-100248050D01*
X198577312Y-100248050D02*
X198541789Y-100009999D01*
X198541789Y-100009999D02*
X198483399Y-99777656D01*
X198483399Y-99777656D02*
X198402805Y-99552628D01*
X198402805Y-99552628D02*
X198300674Y-99336520D01*
X198300674Y-99336520D02*
X198177671Y-99130941D01*
X198177671Y-99130941D02*
X198034462Y-98937495D01*
X198034462Y-98937495D02*
X197871712Y-98757791D01*
X197076875Y-102753708D02*
X197325730Y-102633840D01*
X197325730Y-102633840D02*
X197556410Y-102488919D01*
X197556410Y-102488919D02*
X197767537Y-102321004D01*
X197767537Y-102321004D02*
X197957736Y-102132154D01*
X197957736Y-102132154D02*
X198125630Y-101924429D01*
X198125630Y-101924429D02*
X198269844Y-101699889D01*
X198269844Y-101699889D02*
X198389002Y-101460592D01*
X198389002Y-101460592D02*
X198481726Y-101208598D01*
X198481726Y-101208598D02*
X198546642Y-100945966D01*
X198546642Y-100945966D02*
X198582373Y-100674757D01*
X198582373Y-100674757D02*
X198589301Y-100490203D01*
X194406889Y-102222615D02*
X194612864Y-102406656D01*
X194612864Y-102406656D02*
X194835031Y-102564317D01*
X194835031Y-102564317D02*
X195070959Y-102695115D01*
X195070959Y-102695115D02*
X195318219Y-102798566D01*
X195318219Y-102798566D02*
X195574383Y-102874187D01*
X195574383Y-102874187D02*
X195837019Y-102921496D01*
X195837019Y-102921496D02*
X196103701Y-102940007D01*
X196103701Y-102940007D02*
X196371997Y-102929240D01*
X196371997Y-102929240D02*
X196639479Y-102888710D01*
X196639479Y-102888710D02*
X196903717Y-102817934D01*
X196903717Y-102817934D02*
X197076875Y-102753708D01*
X193875795Y-99552628D02*
X193784586Y-99813354D01*
X193784586Y-99813354D02*
X193723945Y-100078944D01*
X193723945Y-100078944D02*
X193693390Y-100346967D01*
X193693390Y-100346967D02*
X193692436Y-100614995D01*
X193692436Y-100614995D02*
X193720600Y-100880598D01*
X193720600Y-100880598D02*
X193777400Y-101141347D01*
X193777400Y-101141347D02*
X193862352Y-101394813D01*
X193862352Y-101394813D02*
X193974972Y-101638566D01*
X193974972Y-101638566D02*
X194114778Y-101870177D01*
X194114778Y-101870177D02*
X194281287Y-102087216D01*
X194281287Y-102087216D02*
X194406889Y-102222615D01*
X196139300Y-98040203D02*
X195863516Y-98055712D01*
X195863516Y-98055712D02*
X195594937Y-98101324D01*
X195594937Y-98101324D02*
X195335623Y-98175663D01*
X195335623Y-98175663D02*
X195087632Y-98277351D01*
X195087632Y-98277351D02*
X194853025Y-98405013D01*
X194853025Y-98405013D02*
X194633861Y-98557274D01*
X194633861Y-98557274D02*
X194432199Y-98732756D01*
X194432199Y-98732756D02*
X194250098Y-98930084D01*
X194250098Y-98930084D02*
X194089619Y-99147881D01*
X194089619Y-99147881D02*
X193952821Y-99384772D01*
X193952821Y-99384772D02*
X193875795Y-99552628D01*
M02*
