  0
SECTION
  2
HEADER
  9
$ACADVER
  1
AC1014
  9
$HANDSEED
  5
FFFF
  9
$MEASUREMENT
 70
     1
  0
ENDSEC
  0
SECTION
  2
TABLES
  0
TABLE
  2
VPORT
  5
8
330
0
100
AcDbSymbolTable
 70
     4
  0
VPORT
  5
2E
330
8
100
AcDbSymbolTableRecord
100
AcDbViewportTableRecord
  2
*ACTIVE
 70
     0
 10
0.0
 20
0.0
 11
1.0
 21
1.0
 12
210.0
 22
148.5
 13
0.0
 23
0.0
 14
10.0
 24
10.0
 15
10.0
 25
10.0
 16
0.0
 26
0.0
 36
1.0
 17
0.0
 27
0.0
 37
0.0
 40
341.0
 41
1.24
 42
50.0
 43
0.0
 44
0.0
 50
0.0
 51
0.0
 71
     0
 72
   100
 73
     1
 74
     3
 75
     0
 76
     0
 77
     0
 78
     0
  0
ENDTAB
  0
TABLE
  2
LTYPE
  5
5
330
0
100
AcDbSymbolTable
 70
     1
  0
LTYPE
  5
14
330
5
100
AcDbSymbolTableRecord
100
AcDbLinetypeTableRecord
  2
BYBLOCK
 70
     0
  3

 72
    65
 73
     0
 40
0.0
  0
LTYPE
  5
15
330
5
100
AcDbSymbolTableRecord
100
AcDbLinetypeTableRecord
  2
BYLAYER
 70
     0
  3

 72
    65
 73
     0
 40
0.0
  0
LTYPE
  5
16
330
5
100
AcDbSymbolTableRecord
100
AcDbLinetypeTableRecord
  2
CONTINUOUS
 70
     0
  3
Solid line
 72
    65
 73
     0
 40
0.0
  0
ENDTAB
  0
TABLE
  2
LAYER
  5
2
100
AcDbSymbolTable
 70
1
  0
LAYER
  5
50
100
AcDbSymbolTableRecord
100
AcDbLayerTableRecord
  2
0
 70
0
  6
CONTINUOUS
  0
ENDTAB
  0
TABLE
  2
STYLE
  5
3
330
0
100
AcDbSymbolTable
 70
     1
  0
STYLE
  5
11
330
3
100
AcDbSymbolTableRecord
100
AcDbTextStyleTableRecord
  2
STANDARD
 70
     0
 40
0.0
 41
1.0
 50
0.0
 71
     0
 42
2.5
  3
txt
  4

  0
ENDTAB
  0
TABLE
  2
VIEW
  5
6
330
0
100
AcDbSymbolTable
 70
     0
  0
ENDTAB
  0
TABLE
  2
UCS
  5
7
330
0
100
AcDbSymbolTable
 70
     0
  0
ENDTAB
  0
TABLE
  2
APPID
  5
9
330
0
100
AcDbSymbolTable
 70
     2
  0
APPID
  5
12
330
9
100
AcDbSymbolTableRecord
100
AcDbRegAppTableRecord
  2
ACAD
 70
     0
  0
ENDTAB
  0
TABLE
  2
DIMSTYLE
  5
A
330
0
100
AcDbSymbolTable
 70
     1
  0
DIMSTYLE
105
27
330
A
100
AcDbSymbolTableRecord
100
AcDbDimStyleTableRecord
  2
ISO-25
 70
     0
  3

  4

  5

  6

  7

 40
1.0
 41
2.5
 42
0.625
 43
3.75
 44
1.25
 45
0.0
 46
0.0
 47
0.0
 48
0.0
140
2.5
141
2.5
142
0.0
143
0.03937007874016
144
1.0
145
0.0
146
1.0
147
0.625
 71
     0
 72
     0
 73
     0
 74
     0
 75
     0
 76
     0
 77
     1
 78
     8
170
     0
171
     3
172
     1
173
     0
174
     0
175
     0
176
     0
177
     0
178
     0
270
     2
271
     2
272
     2
273
     2
274
     3
340
11
275
     0
280
     0
281
     0
282
     0
283
     0
284
     8
285
     0
286
     0
287
     3
288
     0
  0
ENDTAB
  0
TABLE
  2
BLOCK_RECORD
  5
1
330
0
100
AcDbSymbolTable
 70
     1
  0
BLOCK_RECORD
  5
1F
330
1
100
AcDbSymbolTableRecord
100
AcDbBlockTableRecord
  2
*MODEL_SPACE
  0
BLOCK_RECORD
  5
1B
330
1
100
AcDbSymbolTableRecord
100
AcDbBlockTableRecord
  2
*PAPER_SPACE
  0
ENDTAB
  0
ENDSEC
  0
SECTION
  2
BLOCKS
  0
BLOCK
  5
20
330
1F
100
AcDbEntity
  8
0
100
AcDbBlockBegin
  2
*MODEL_SPACE
 70
     0
 10
0.0
 20
0.0
 30
0.0
  3
*MODEL_SPACE
  1

  0
ENDBLK
  5
21
330
1F
100
AcDbEntity
  8
0
100
AcDbBlockEnd
  0
BLOCK
  5
1C
330
1B
100
AcDbEntity
 67
     1
  8
0
100
AcDbBlockBegin
  2
*PAPER_SPACE
  1

  0
ENDBLK
  5
1D
330
1B
100
AcDbEntity
 67
     1
  8
0
100
AcDbBlockEnd
  0
ENDSEC
  0
SECTION
  2
ENTITIES
  0
LWPOLYLINE
  5
100
100
AcDbEntity
  8
0
 62
7
100
AcDbPolyline
 90
4
 70
1
 10
177.002186
 20
-163.991219
 30
0.0
 10
285.002224
 20
-163.991219
 30
0.0
 10
285.002224
 20
-195.991155
 30
0.0
 10
177.002186
 20
-195.991155
 30
0.0
  0
LWPOLYLINE
  5
101
100
AcDbEntity
  8
0
 62
7
100
AcDbPolyline
 90
4
 70
1
 10
10.000005
 20
-7.983936
 30
0.0
 10
287.002245
 20
-7.983936
 30
0.0
 10
287.002245
 20
-197.991176
 30
0.0
 10
10.000005
 20
-197.991176
 30
0.0
  0
LWPOLYLINE
  5
102
100
AcDbEntity
  8
0
 62
7
100
AcDbPolyline
 90
4
 70
1
 10
12.000001
 20
-9.983932
 30
0.0
 10
285.001741
 20
-9.983932
 30
0.0
 10
285.001741
 20
-195.991180
 30
0.0
 10
12.000001
 20
-195.991180
 30
0.0
  0
LWPOLYLINE
  5
103
100
AcDbEntity
  8
0
 62
7
100
AcDbPolyline
 90
2
 70
0
 10
59.999880
 20
-9.982891
 30
0.0
 10
59.999880
 20
-7.983911
 30
0.0
  0
LWPOLYLINE
  5
104
100
AcDbEntity
  8
0
 62
7
100
AcDbPolyline
 90
2
 70
0
 10
109.999780
 20
-9.982891
 30
0.0
 10
109.999780
 20
-7.983911
 30
0.0
  0
LWPOLYLINE
  5
105
100
AcDbEntity
  8
0
 62
7
100
AcDbPolyline
 90
2
 70
0
 10
159.999680
 20
-9.982891
 30
0.0
 10
159.999680
 20
-7.983911
 30
0.0
  0
LWPOLYLINE
  5
106
100
AcDbEntity
  8
0
 62
7
100
AcDbPolyline
 90
2
 70
0
 10
209.999580
 20
-9.982891
 30
0.0
 10
209.999580
 20
-7.983911
 30
0.0
  0
LWPOLYLINE
  5
107
100
AcDbEntity
  8
0
 62
7
100
AcDbPolyline
 90
2
 70
0
 10
259.999480
 20
-9.982891
 30
0.0
 10
259.999480
 20
-7.983911
 30
0.0
  0
LWPOLYLINE
  5
108
100
AcDbEntity
  8
0
 62
7
100
AcDbPolyline
 90
2
 70
0
 10
36.065460
 20
-9.571411
 30
0.0
 10
35.321240
 20
-9.571411
 30
0.0
  0
LWPOLYLINE
  5
109
100
AcDbEntity
  8
0
 62
7
100
AcDbPolyline
 90
5
 70
0
 10
35.692080
 20
-9.571411
 30
0.0
 10
35.692080
 20
-8.270931
 30
0.0
 10
35.570160
 20
-8.456351
 30
0.0
 10
35.445700
 20
-8.580811
 30
0.0
 10
35.321240
 20
-8.641771
 30
0.0
  0
LWPOLYLINE
  5
10a
100
AcDbEntity
  8
0
 62
7
100
AcDbPolyline
 90
11
 70
0
 10
85.321140
 20
-8.395391
 30
0.0
 10
85.382100
 20
-8.331891
 30
0.0
 10
85.506560
 20
-8.270931
 30
0.0
 10
85.816440
 20
-8.270931
 30
0.0
 10
85.940900
 20
-8.331891
 30
0.0
 10
86.001860
 20
-8.395391
 30
0.0
 10
86.065360
 20
-8.517311
 30
0.0
 10
86.065360
 20
-8.641771
 30
0.0
 10
86.001860
 20
-8.827191
 30
0.0
 10
85.260180
 20
-9.571411
 30
0.0
 10
86.065360
 20
-9.571411
 30
0.0
  0
LWPOLYLINE
  5
10b
100
AcDbEntity
  8
0
 62
7
100
AcDbPolyline
 90
14
 70
0
 10
135.260080
 20
-8.270931
 30
0.0
 10
136.065260
 20
-8.270931
 30
0.0
 10
135.630920
 20
-8.766231
 30
0.0
 10
135.816340
 20
-8.766231
 30
0.0
 10
135.940800
 20
-8.827191
 30
0.0
 10
136.001760
 20
-8.890691
 30
0.0
 10
136.065260
 20
-9.012611
 30
0.0
 10
136.065260
 20
-9.322491
 30
0.0
 10
136.001760
 20
-9.446951
 30
0.0
 10
135.940800
 20
-9.507911
 30
0.0
 10
135.816340
 20
-9.571411
 30
0.0
 10
135.445500
 20
-9.571411
 30
0.0
 10
135.321040
 20
-9.507911
 30
0.0
 10
135.260080
 20
-9.446951
 30
0.0
  0
LWPOLYLINE
  5
10c
100
AcDbEntity
  8
0
 62
7
100
AcDbPolyline
 90
2
 70
0
 10
185.940700
 20
-8.705271
 30
0.0
 10
185.940700
 20
-9.571411
 30
0.0
  0
LWPOLYLINE
  5
10d
100
AcDbEntity
  8
0
 62
7
100
AcDbPolyline
 90
3
 70
0
 10
185.630820
 20
-8.209971
 30
0.0
 10
185.320940
 20
-9.137071
 30
0.0
 10
186.126120
 20
-9.137071
 30
0.0
  0
LWPOLYLINE
  5
10e
100
AcDbEntity
  8
0
 62
7
100
AcDbPolyline
 90
16
 70
0
 10
236.001560
 20
-8.270931
 30
0.0
 10
235.384340
 20
-8.270931
 30
0.0
 10
235.320840
 20
-8.890691
 30
0.0
 10
235.384340
 20
-8.827191
 30
0.0
 10
235.506260
 20
-8.766231
 30
0.0
 10
235.816140
 20
-8.766231
 30
0.0
 10
235.940600
 20
-8.827191
 30
0.0
 10
236.001560
 20
-8.890691
 30
0.0
 10
236.065060
 20
-9.012611
 30
0.0
 10
236.065060
 20
-9.322491
 30
0.0
 10
236.001560
 20
-9.446951
 30
0.0
 10
235.940600
 20
-9.507911
 30
0.0
 10
235.816140
 20
-9.571411
 30
0.0
 10
235.506260
 20
-9.571411
 30
0.0
 10
235.384340
 20
-9.507911
 30
0.0
 10
235.320840
 20
-9.446951
 30
0.0
  0
LWPOLYLINE
  5
10f
100
AcDbEntity
  8
0
 62
7
100
AcDbPolyline
 90
22
 70
0
 10
285.940500
 20
-8.270931
 30
0.0
 10
285.691580
 20
-8.270931
 30
0.0
 10
285.569660
 20
-8.331891
 30
0.0
 10
285.506160
 20
-8.395391
 30
0.0
 10
285.384240
 20
-8.580811
 30
0.0
 10
285.320740
 20
-8.827191
 30
0.0
 10
285.320740
 20
-9.322491
 30
0.0
 10
285.384240
 20
-9.446951
 30
0.0
 10
285.445200
 20
-9.507911
 30
0.0
 10
285.569660
 20
-9.571411
 30
0.0
 10
285.816040
 20
-9.571411
 30
0.0
 10
285.940500
 20
-9.507911
 30
0.0
 10
286.001460
 20
-9.446951
 30
0.0
 10
286.064960
 20
-9.322491
 30
0.0
 10
286.064960
 20
-9.012611
 30
0.0
 10
286.001460
 20
-8.890691
 30
0.0
 10
285.940500
 20
-8.827191
 30
0.0
 10
285.816040
 20
-8.766231
 30
0.0
 10
285.569660
 20
-8.766231
 30
0.0
 10
285.445200
 20
-8.827191
 30
0.0
 10
285.384240
 20
-8.890691
 30
0.0
 10
285.320740
 20
-9.012611
 30
0.0
  0
LWPOLYLINE
  5
110
100
AcDbEntity
  8
0
 62
7
100
AcDbPolyline
 90
2
 70
0
 10
59.999880
 20
-195.989631
 30
0.0
 10
59.999880
 20
-197.988611
 30
0.0
  0
LWPOLYLINE
  5
111
100
AcDbEntity
  8
0
 62
7
100
AcDbPolyline
 90
2
 70
0
 10
109.999780
 20
-195.989631
 30
0.0
 10
109.999780
 20
-197.988611
 30
0.0
  0
LWPOLYLINE
  5
112
100
AcDbEntity
  8
0
 62
7
100
AcDbPolyline
 90
2
 70
0
 10
159.999680
 20
-195.989631
 30
0.0
 10
159.999680
 20
-197.988611
 30
0.0
  0
LWPOLYLINE
  5
113
100
AcDbEntity
  8
0
 62
7
100
AcDbPolyline
 90
2
 70
0
 10
209.999580
 20
-195.989631
 30
0.0
 10
209.999580
 20
-197.988611
 30
0.0
  0
LWPOLYLINE
  5
114
100
AcDbEntity
  8
0
 62
7
100
AcDbPolyline
 90
2
 70
0
 10
259.999480
 20
-195.989631
 30
0.0
 10
259.999480
 20
-197.988611
 30
0.0
  0
LWPOLYLINE
  5
115
100
AcDbEntity
  8
0
 62
7
100
AcDbPolyline
 90
2
 70
0
 10
36.065460
 20
-197.577131
 30
0.0
 10
35.321240
 20
-197.577131
 30
0.0
  0
LWPOLYLINE
  5
116
100
AcDbEntity
  8
0
 62
7
100
AcDbPolyline
 90
5
 70
0
 10
35.692080
 20
-197.577131
 30
0.0
 10
35.692080
 20
-196.279191
 30
0.0
 10
35.570160
 20
-196.464611
 30
0.0
 10
35.445700
 20
-196.586531
 30
0.0
 10
35.321240
 20
-196.650031
 30
0.0
  0
LWPOLYLINE
  5
117
100
AcDbEntity
  8
0
 62
7
100
AcDbPolyline
 90
11
 70
0
 10
85.321140
 20
-196.401111
 30
0.0
 10
85.382100
 20
-196.340151
 30
0.0
 10
85.506560
 20
-196.279191
 30
0.0
 10
85.816440
 20
-196.279191
 30
0.0
 10
85.940900
 20
-196.340151
 30
0.0
 10
86.001860
 20
-196.401111
 30
0.0
 10
86.065360
 20
-196.525571
 30
0.0
 10
86.065360
 20
-196.650031
 30
0.0
 10
86.001860
 20
-196.835451
 30
0.0
 10
85.260180
 20
-197.577131
 30
0.0
 10
86.065360
 20
-197.577131
 30
0.0
  0
LWPOLYLINE
  5
118
100
AcDbEntity
  8
0
 62
7
100
AcDbPolyline
 90
14
 70
0
 10
135.260080
 20
-196.279191
 30
0.0
 10
136.065260
 20
-196.279191
 30
0.0
 10
135.630920
 20
-196.771951
 30
0.0
 10
135.816340
 20
-196.771951
 30
0.0
 10
135.940800
 20
-196.835451
 30
0.0
 10
136.001760
 20
-196.896411
 30
0.0
 10
136.065260
 20
-197.020871
 30
0.0
 10
136.065260
 20
-197.330751
 30
0.0
 10
136.001760
 20
-197.455211
 30
0.0
 10
135.940800
 20
-197.516171
 30
0.0
 10
135.816340
 20
-197.577131
 30
0.0
 10
135.445500
 20
-197.577131
 30
0.0
 10
135.321040
 20
-197.516171
 30
0.0
 10
135.260080
 20
-197.455211
 30
0.0
  0
LWPOLYLINE
  5
119
100
AcDbEntity
  8
0
 62
7
100
AcDbPolyline
 90
2
 70
0
 10
185.940700
 20
-196.710991
 30
0.0
 10
185.940700
 20
-197.577131
 30
0.0
  0
LWPOLYLINE
  5
11a
100
AcDbEntity
  8
0
 62
7
100
AcDbPolyline
 90
3
 70
0
 10
185.630820
 20
-196.215691
 30
0.0
 10
185.320940
 20
-197.145331
 30
0.0
 10
186.126120
 20
-197.145331
 30
0.0
  0
LWPOLYLINE
  5
11b
100
AcDbEntity
  8
0
 62
7
100
AcDbPolyline
 90
16
 70
0
 10
236.001560
 20
-196.279191
 30
0.0
 10
235.384340
 20
-196.279191
 30
0.0
 10
235.320840
 20
-196.896411
 30
0.0
 10
235.384340
 20
-196.835451
 30
0.0
 10
235.506260
 20
-196.771951
 30
0.0
 10
235.816140
 20
-196.771951
 30
0.0
 10
235.940600
 20
-196.835451
 30
0.0
 10
236.001560
 20
-196.896411
 30
0.0
 10
236.065060
 20
-197.020871
 30
0.0
 10
236.065060
 20
-197.330751
 30
0.0
 10
236.001560
 20
-197.455211
 30
0.0
 10
235.940600
 20
-197.516171
 30
0.0
 10
235.816140
 20
-197.577131
 30
0.0
 10
235.506260
 20
-197.577131
 30
0.0
 10
235.384340
 20
-197.516171
 30
0.0
 10
235.320840
 20
-197.455211
 30
0.0
  0
LWPOLYLINE
  5
11c
100
AcDbEntity
  8
0
 62
7
100
AcDbPolyline
 90
22
 70
0
 10
285.940500
 20
-196.279191
 30
0.0
 10
285.691580
 20
-196.279191
 30
0.0
 10
285.569660
 20
-196.340151
 30
0.0
 10
285.506160
 20
-196.401111
 30
0.0
 10
285.384240
 20
-196.586531
 30
0.0
 10
285.320740
 20
-196.835451
 30
0.0
 10
285.320740
 20
-197.330751
 30
0.0
 10
285.384240
 20
-197.455211
 30
0.0
 10
285.445200
 20
-197.516171
 30
0.0
 10
285.569660
 20
-197.577131
 30
0.0
 10
285.816040
 20
-197.577131
 30
0.0
 10
285.940500
 20
-197.516171
 30
0.0
 10
286.001460
 20
-197.455211
 30
0.0
 10
286.064960
 20
-197.330751
 30
0.0
 10
286.064960
 20
-197.020871
 30
0.0
 10
286.001460
 20
-196.896411
 30
0.0
 10
285.940500
 20
-196.835451
 30
0.0
 10
285.816040
 20
-196.771951
 30
0.0
 10
285.569660
 20
-196.771951
 30
0.0
 10
285.445200
 20
-196.835451
 30
0.0
 10
285.384240
 20
-196.896411
 30
0.0
 10
285.320740
 20
-197.020871
 30
0.0
  0
LWPOLYLINE
  5
11d
100
AcDbEntity
  8
0
 62
7
100
AcDbPolyline
 90
2
 70
0
 10
9.999980
 20
-57.983811
 30
0.0
 10
11.998960
 20
-57.983811
 30
0.0
  0
LWPOLYLINE
  5
11e
100
AcDbEntity
  8
0
 62
7
100
AcDbPolyline
 90
2
 70
0
 10
9.999980
 20
-107.983711
 30
0.0
 10
11.998960
 20
-107.983711
 30
0.0
  0
LWPOLYLINE
  5
11f
100
AcDbEntity
  8
0
 62
7
100
AcDbPolyline
 90
2
 70
0
 10
9.999980
 20
-157.983611
 30
0.0
 10
11.998960
 20
-157.983611
 30
0.0
  0
LWPOLYLINE
  5
120
100
AcDbEntity
  8
0
 62
7
100
AcDbPolyline
 90
2
 70
0
 10
10.688320
 20
-33.198491
 30
0.0
 10
11.308080
 20
-33.198491
 30
0.0
  0
LWPOLYLINE
  5
121
100
AcDbEntity
  8
0
 62
7
100
AcDbPolyline
 90
3
 70
0
 10
10.566400
 20
-33.571871
 30
0.0
 10
10.998200
 20
-32.271391
 30
0.0
 10
11.432540
 20
-33.571871
 30
0.0
  0
LWPOLYLINE
  5
122
100
AcDbEntity
  8
0
 62
7
100
AcDbPolyline
 90
19
 70
0
 10
11.092180
 20
-82.891051
 30
0.0
 10
11.277600
 20
-82.952011
 30
0.0
 10
11.338560
 20
-83.012971
 30
0.0
 10
11.402060
 20
-83.137431
 30
0.0
 10
11.402060
 20
-83.322851
 30
0.0
 10
11.338560
 20
-83.447311
 30
0.0
 10
11.277600
 20
-83.508271
 30
0.0
 10
11.153140
 20
-83.571771
 30
0.0
 10
10.657840
 20
-83.571771
 30
0.0
 10
10.657840
 20
-82.271291
 30
0.0
 10
11.092180
 20
-82.271291
 30
0.0
 10
11.216640
 20
-82.332251
 30
0.0
 10
11.277600
 20
-82.395751
 30
0.0
 10
11.338560
 20
-82.517671
 30
0.0
 10
11.338560
 20
-82.642131
 30
0.0
 10
11.277600
 20
-82.766591
 30
0.0
 10
11.216640
 20
-82.827551
 30
0.0
 10
11.092180
 20
-82.891051
 30
0.0
 10
10.657840
 20
-82.891051
 30
0.0
  0
LWPOLYLINE
  5
123
100
AcDbEntity
  8
0
 62
7
100
AcDbPolyline
 90
16
 70
0
 10
11.402060
 20
-133.447211
 30
0.0
 10
11.338560
 20
-133.508171
 30
0.0
 10
11.153140
 20
-133.571671
 30
0.0
 10
11.028680
 20
-133.571671
 30
0.0
 10
10.843260
 20
-133.508171
 30
0.0
 10
10.721340
 20
-133.386251
 30
0.0
 10
10.657840
 20
-133.261791
 30
0.0
 10
10.596880
 20
-133.012871
 30
0.0
 10
10.596880
 20
-132.827451
 30
0.0
 10
10.657840
 20
-132.581071
 30
0.0
 10
10.721340
 20
-132.456611
 30
0.0
 10
10.843260
 20
-132.332151
 30
0.0
 10
11.028680
 20
-132.271191
 30
0.0
 10
11.153140
 20
-132.271191
 30
0.0
 10
11.338560
 20
-132.332151
 30
0.0
 10
11.402060
 20
-132.395651
 30
0.0
  0
LWPOLYLINE
  5
124
100
AcDbEntity
  8
0
 62
7
100
AcDbPolyline
 90
12
 70
1
 10
10.657840
 20
-183.571571
 30
0.0
 10
10.657840
 20
-182.271091
 30
0.0
 10
10.967720
 20
-182.271091
 30
0.0
 10
11.153140
 20
-182.332051
 30
0.0
 10
11.277600
 20
-182.456511
 30
0.0
 10
11.338560
 20
-182.580971
 30
0.0
 10
11.402060
 20
-182.827351
 30
0.0
 10
11.402060
 20
-183.012771
 30
0.0
 10
11.338560
 20
-183.261691
 30
0.0
 10
11.277600
 20
-183.386151
 30
0.0
 10
11.153140
 20
-183.508071
 30
0.0
 10
10.967720
 20
-183.571571
 30
0.0
  0
LWPOLYLINE
  5
125
100
AcDbEntity
  8
0
 62
7
100
AcDbPolyline
 90
2
 70
0
 10
286.999680
 20
-57.983811
 30
0.0
 10
285.000700
 20
-57.983811
 30
0.0
  0
LWPOLYLINE
  5
126
100
AcDbEntity
  8
0
 62
7
100
AcDbPolyline
 90
2
 70
0
 10
286.999680
 20
-107.983711
 30
0.0
 10
285.000700
 20
-107.983711
 30
0.0
  0
LWPOLYLINE
  5
127
100
AcDbEntity
  8
0
 62
7
100
AcDbPolyline
 90
2
 70
0
 10
286.999680
 20
-157.983611
 30
0.0
 10
285.000700
 20
-157.983611
 30
0.0
  0
LWPOLYLINE
  5
128
100
AcDbEntity
  8
0
 62
7
100
AcDbPolyline
 90
2
 70
0
 10
285.691580
 20
-33.198491
 30
0.0
 10
286.311340
 20
-33.198491
 30
0.0
  0
LWPOLYLINE
  5
129
100
AcDbEntity
  8
0
 62
7
100
AcDbPolyline
 90
3
 70
0
 10
285.567120
 20
-33.571871
 30
0.0
 10
286.001460
 20
-32.271391
 30
0.0
 10
286.433260
 20
-33.571871
 30
0.0
  0
LWPOLYLINE
  5
12a
100
AcDbEntity
  8
0
 62
7
100
AcDbPolyline
 90
19
 70
0
 10
286.092900
 20
-82.891051
 30
0.0
 10
286.278320
 20
-82.952011
 30
0.0
 10
286.341820
 20
-83.012971
 30
0.0
 10
286.402780
 20
-83.137431
 30
0.0
 10
286.402780
 20
-83.322851
 30
0.0
 10
286.341820
 20
-83.447311
 30
0.0
 10
286.278320
 20
-83.508271
 30
0.0
 10
286.156400
 20
-83.571771
 30
0.0
 10
285.661100
 20
-83.571771
 30
0.0
 10
285.661100
 20
-82.271291
 30
0.0
 10
286.092900
 20
-82.271291
 30
0.0
 10
286.217360
 20
-82.332251
 30
0.0
 10
286.278320
 20
-82.395751
 30
0.0
 10
286.341820
 20
-82.517671
 30
0.0
 10
286.341820
 20
-82.642131
 30
0.0
 10
286.278320
 20
-82.766591
 30
0.0
 10
286.217360
 20
-82.827551
 30
0.0
 10
286.092900
 20
-82.891051
 30
0.0
 10
285.661100
 20
-82.891051
 30
0.0
  0
LWPOLYLINE
  5
12b
100
AcDbEntity
  8
0
 62
7
100
AcDbPolyline
 90
16
 70
0
 10
286.402780
 20
-133.447211
 30
0.0
 10
286.341820
 20
-133.508171
 30
0.0
 10
286.156400
 20
-133.571671
 30
0.0
 10
286.031940
 20
-133.571671
 30
0.0
 10
285.846520
 20
-133.508171
 30
0.0
 10
285.722060
 20
-133.386251
 30
0.0
 10
285.661100
 20
-133.261791
 30
0.0
 10
285.597600
 20
-133.012871
 30
0.0
 10
285.597600
 20
-132.827451
 30
0.0
 10
285.661100
 20
-132.581071
 30
0.0
 10
285.722060
 20
-132.456611
 30
0.0
 10
285.846520
 20
-132.332151
 30
0.0
 10
286.031940
 20
-132.271191
 30
0.0
 10
286.156400
 20
-132.271191
 30
0.0
 10
286.341820
 20
-132.332151
 30
0.0
 10
286.402780
 20
-132.395651
 30
0.0
  0
LWPOLYLINE
  5
12c
100
AcDbEntity
  8
0
 62
7
100
AcDbPolyline
 90
12
 70
1
 10
285.661100
 20
-183.571571
 30
0.0
 10
285.661100
 20
-182.271091
 30
0.0
 10
285.970980
 20
-182.271091
 30
0.0
 10
286.156400
 20
-182.332051
 30
0.0
 10
286.278320
 20
-182.456511
 30
0.0
 10
286.341820
 20
-182.580971
 30
0.0
 10
286.402780
 20
-182.827351
 30
0.0
 10
286.402780
 20
-183.012771
 30
0.0
 10
286.341820
 20
-183.261691
 30
0.0
 10
286.278320
 20
-183.386151
 30
0.0
 10
286.156400
 20
-183.508071
 30
0.0
 10
285.970980
 20
-183.571571
 30
0.0
  0
LWPOLYLINE
  5
12d
100
AcDbEntity
  8
0
 62
7
100
AcDbPolyline
 90
12
 70
1
 10
200.433940
 20
-191.768151
 30
0.0
 10
200.433940
 20
-190.269551
 30
0.0
 10
200.789540
 20
-190.269551
 30
0.0
 10
201.005440
 20
-190.340671
 30
0.0
 10
201.147680
 20
-190.482911
 30
0.0
 10
201.218800
 20
-190.625151
 30
0.0
 10
201.289920
 20
-190.912171
 30
0.0
 10
201.289920
 20
-191.125531
 30
0.0
 10
201.218800
 20
-191.412551
 30
0.0
 10
201.147680
 20
-191.554791
 30
0.0
 10
201.005440
 20
-191.697031
 30
0.0
 10
200.789540
 20
-191.768151
 30
0.0
  0
LWPOLYLINE
  5
12e
100
AcDbEntity
  8
0
 62
7
100
AcDbPolyline
 90
6
 70
0
 10
202.575160
 20
-191.768151
 30
0.0
 10
202.575160
 20
-190.983291
 30
0.0
 10
202.504040
 20
-190.841051
 30
0.0
 10
202.361800
 20
-190.767391
 30
0.0
 10
202.074780
 20
-190.767391
 30
0.0
 10
201.932540
 20
-190.841051
 30
0.0
  0
LWPOLYLINE
  5
12f
100
AcDbEntity
  8
0
 62
7
100
AcDbPolyline
 90
10
 70
0
 10
202.575160
 20
-191.697031
 30
0.0
 10
202.432920
 20
-191.768151
 30
0.0
 10
202.074780
 20
-191.768151
 30
0.0
 10
201.932540
 20
-191.697031
 30
0.0
 10
201.861420
 20
-191.554791
 30
0.0
 10
201.861420
 20
-191.412551
 30
0.0
 10
201.932540
 20
-191.267771
 30
0.0
 10
202.074780
 20
-191.196651
 30
0.0
 10
202.432920
 20
-191.196651
 30
0.0
 10
202.575160
 20
-191.125531
 30
0.0
  0
LWPOLYLINE
  5
130
100
AcDbEntity
  8
0
 62
7
100
AcDbPolyline
 90
2
 70
0
 10
203.075540
 20
-190.767391
 30
0.0
 10
203.647040
 20
-190.767391
 30
0.0
  0
LWPOLYLINE
  5
131
100
AcDbEntity
  8
0
 62
7
100
AcDbPolyline
 90
5
 70
0
 10
203.291440
 20
-190.269551
 30
0.0
 10
203.291440
 20
-191.554791
 30
0.0
 10
203.362560
 20
-191.697031
 30
0.0
 10
203.504800
 20
-191.768151
 30
0.0
 10
203.647040
 20
-191.768151
 30
0.0
  0
LWPOLYLINE
  5
132
100
AcDbEntity
  8
0
 62
7
100
AcDbPolyline
 90
13
 70
0
 10
204.718920
 20
-191.697031
 30
0.0
 10
204.576680
 20
-191.768151
 30
0.0
 10
204.289660
 20
-191.768151
 30
0.0
 10
204.147420
 20
-191.697031
 30
0.0
 10
204.076300
 20
-191.554791
 30
0.0
 10
204.076300
 20
-190.983291
 30
0.0
 10
204.147420
 20
-190.841051
 30
0.0
 10
204.289660
 20
-190.767391
 30
0.0
 10
204.576680
 20
-190.767391
 30
0.0
 10
204.718920
 20
-190.841051
 30
0.0
 10
204.790040
 20
-190.983291
 30
0.0
 10
204.790040
 20
-191.125531
 30
0.0
 10
204.076300
 20
-191.267771
 30
0.0
  0
LWPOLYLINE
  5
133
100
AcDbEntity
  8
0
 62
7
100
AcDbPolyline
 90
6
 70
0
 10
205.432660
 20
-191.625911
 30
0.0
 10
205.503780
 20
-191.697031
 30
0.0
 10
205.432660
 20
-191.768151
 30
0.0
 10
205.361540
 20
-191.697031
 30
0.0
 10
205.432660
 20
-191.625911
 30
0.0
 10
205.432660
 20
-191.768151
 30
0.0
  0
LWPOLYLINE
  5
134
100
AcDbEntity
  8
0
 62
7
100
AcDbPolyline
 90
6
 70
0
 10
205.432660
 20
-190.841051
 30
0.0
 10
205.503780
 20
-190.912171
 30
0.0
 10
205.432660
 20
-190.983291
 30
0.0
 10
205.361540
 20
-190.912171
 30
0.0
 10
205.432660
 20
-190.841051
 30
0.0
 10
205.432660
 20
-190.983291
 30
0.0
  0
LWPOLYLINE
  5
135
100
AcDbEntity
  8
0
 62
7
100
AcDbPolyline
 90
2
 70
0
 10
176.999900
 20
-192.489511
 30
0.0
 10
285.000700
 20
-192.489511
 30
0.0
  0
LWPOLYLINE
  5
136
100
AcDbEntity
  8
0
 62
7
100
AcDbPolyline
 90
2
 70
0
 10
178.432460
 20
-194.567231
 30
0.0
 10
178.432460
 20
-193.068631
 30
0.0
  0
LWPOLYLINE
  5
137
100
AcDbEntity
  8
0
 62
7
100
AcDbPolyline
 90
2
 70
0
 10
179.290980
 20
-194.567231
 30
0.0
 10
178.648360
 20
-193.711251
 30
0.0
  0
LWPOLYLINE
  5
138
100
AcDbEntity
  8
0
 62
7
100
AcDbPolyline
 90
2
 70
0
 10
179.290980
 20
-193.068631
 30
0.0
 10
178.432460
 20
-193.924611
 30
0.0
  0
LWPOLYLINE
  5
139
100
AcDbEntity
  8
0
 62
7
100
AcDbPolyline
 90
2
 70
0
 10
179.933600
 20
-194.567231
 30
0.0
 10
179.933600
 20
-193.569011
 30
0.0
  0
LWPOLYLINE
  5
13a
100
AcDbEntity
  8
0
 62
7
100
AcDbPolyline
 90
6
 70
0
 10
179.933600
 20
-193.068631
 30
0.0
 10
179.862480
 20
-193.139751
 30
0.0
 10
179.933600
 20
-193.210871
 30
0.0
 10
180.004720
 20
-193.139751
 30
0.0
 10
179.933600
 20
-193.068631
 30
0.0
 10
179.933600
 20
-193.210871
 30
0.0
  0
LWPOLYLINE
  5
13b
100
AcDbEntity
  8
0
 62
7
100
AcDbPolyline
 90
16
 70
0
 10
181.503320
 20
-194.424991
 30
0.0
 10
181.432200
 20
-194.496111
 30
0.0
 10
181.218840
 20
-194.567231
 30
0.0
 10
181.076600
 20
-194.567231
 30
0.0
 10
180.860700
 20
-194.496111
 30
0.0
 10
180.718460
 20
-194.353871
 30
0.0
 10
180.647340
 20
-194.211631
 30
0.0
 10
180.576220
 20
-193.924611
 30
0.0
 10
180.576220
 20
-193.711251
 30
0.0
 10
180.647340
 20
-193.426771
 30
0.0
 10
180.718460
 20
-193.281991
 30
0.0
 10
180.860700
 20
-193.139751
 30
0.0
 10
181.076600
 20
-193.068631
 30
0.0
 10
181.218840
 20
-193.068631
 30
0.0
 10
181.432200
 20
-193.139751
 30
0.0
 10
181.503320
 20
-193.210871
 30
0.0
  0
LWPOLYLINE
  5
13c
100
AcDbEntity
  8
0
 62
7
100
AcDbPolyline
 90
6
 70
0
 10
182.791100
 20
-194.567231
 30
0.0
 10
182.791100
 20
-193.782371
 30
0.0
 10
182.719980
 20
-193.640131
 30
0.0
 10
182.575200
 20
-193.569011
 30
0.0
 10
182.290720
 20
-193.569011
 30
0.0
 10
182.148480
 20
-193.640131
 30
0.0
  0
LWPOLYLINE
  5
13d
100
AcDbEntity
  8
0
 62
7
100
AcDbPolyline
 90
10
 70
0
 10
182.791100
 20
-194.496111
 30
0.0
 10
182.646320
 20
-194.567231
 30
0.0
 10
182.290720
 20
-194.567231
 30
0.0
 10
182.148480
 20
-194.496111
 30
0.0
 10
182.074820
 20
-194.353871
 30
0.0
 10
182.074820
 20
-194.211631
 30
0.0
 10
182.148480
 20
-194.069391
 30
0.0
 10
182.290720
 20
-193.998271
 30
0.0
 10
182.646320
 20
-193.998271
 30
0.0
 10
182.791100
 20
-193.924611
 30
0.0
  0
LWPOLYLINE
  5
13e
100
AcDbEntity
  8
0
 62
7
100
AcDbPolyline
 90
2
 70
0
 10
184.147460
 20
-194.567231
 30
0.0
 10
184.147460
 20
-193.068631
 30
0.0
  0
LWPOLYLINE
  5
13f
100
AcDbEntity
  8
0
 62
7
100
AcDbPolyline
 90
12
 70
0
 10
184.147460
 20
-194.496111
 30
0.0
 10
184.005220
 20
-194.567231
 30
0.0
 10
183.718200
 20
-194.567231
 30
0.0
 10
183.575960
 20
-194.496111
 30
0.0
 10
183.504840
 20
-194.424991
 30
0.0
 10
183.433720
 20
-194.282751
 30
0.0
 10
183.433720
 20
-193.853491
 30
0.0
 10
183.504840
 20
-193.711251
 30
0.0
 10
183.575960
 20
-193.640131
 30
0.0
 10
183.718200
 20
-193.569011
 30
0.0
 10
184.005220
 20
-193.569011
 30
0.0
 10
184.147460
 20
-193.640131
 30
0.0
  0
LWPOLYLINE
  5
140
100
AcDbEntity
  8
0
 62
7
100
AcDbPolyline
 90
2
 70
0
 10
186.004200
 20
-193.782371
 30
0.0
 10
186.504580
 20
-193.782371
 30
0.0
  0
LWPOLYLINE
  5
141
100
AcDbEntity
  8
0
 62
7
100
AcDbPolyline
 90
4
 70
0
 10
186.717940
 20
-194.567231
 30
0.0
 10
186.004200
 20
-194.567231
 30
0.0
 10
186.004200
 20
-193.068631
 30
0.0
 10
186.717940
 20
-193.068631
 30
0.0
  0
LWPOLYLINE
  5
142
100
AcDbEntity
  8
0
 62
7
100
AcDbPolyline
 90
6
 70
0
 10
187.360560
 20
-194.424991
 30
0.0
 10
187.434220
 20
-194.496111
 30
0.0
 10
187.360560
 20
-194.567231
 30
0.0
 10
187.289440
 20
-194.496111
 30
0.0
 10
187.360560
 20
-194.424991
 30
0.0
 10
187.360560
 20
-194.567231
 30
0.0
  0
LWPOLYLINE
  5
143
100
AcDbEntity
  8
0
 62
7
100
AcDbPolyline
 90
12
 70
1
 10
188.076840
 20
-194.567231
 30
0.0
 10
188.076840
 20
-193.068631
 30
0.0
 10
188.432440
 20
-193.068631
 30
0.0
 10
188.648340
 20
-193.139751
 30
0.0
 10
188.790580
 20
-193.281991
 30
0.0
 10
188.861700
 20
-193.426771
 30
0.0
 10
188.932820
 20
-193.711251
 30
0.0
 10
188.932820
 20
-193.924611
 30
0.0
 10
188.861700
 20
-194.211631
 30
0.0
 10
188.790580
 20
-194.353871
 30
0.0
 10
188.648340
 20
-194.496111
 30
0.0
 10
188.432440
 20
-194.567231
 30
0.0
  0
LWPOLYLINE
  5
144
100
AcDbEntity
  8
0
 62
7
100
AcDbPolyline
 90
6
 70
0
 10
189.575440
 20
-194.424991
 30
0.0
 10
189.646560
 20
-194.496111
 30
0.0
 10
189.575440
 20
-194.567231
 30
0.0
 10
189.504320
 20
-194.496111
 30
0.0
 10
189.575440
 20
-194.424991
 30
0.0
 10
189.575440
 20
-194.567231
 30
0.0
  0
LWPOLYLINE
  5
145
100
AcDbEntity
  8
0
 62
7
100
AcDbPolyline
 90
2
 70
0
 10
190.218060
 20
-194.140511
 30
0.0
 10
190.934340
 20
-194.140511
 30
0.0
  0
LWPOLYLINE
  5
146
100
AcDbEntity
  8
0
 62
7
100
AcDbPolyline
 90
3
 70
0
 10
190.075820
 20
-194.567231
 30
0.0
 10
190.576200
 20
-193.068631
 30
0.0
 10
191.076580
 20
-194.567231
 30
0.0
  0
LWPOLYLINE
  5
147
100
AcDbEntity
  8
0
 62
7
100
AcDbPolyline
 90
6
 70
0
 10
191.576960
 20
-194.424991
 30
0.0
 10
191.648080
 20
-194.496111
 30
0.0
 10
191.576960
 20
-194.567231
 30
0.0
 10
191.503300
 20
-194.496111
 30
0.0
 10
191.576960
 20
-194.424991
 30
0.0
 10
191.576960
 20
-194.567231
 30
0.0
  0
LWPOLYLINE
  5
148
100
AcDbEntity
  8
0
 62
7
100
AcDbPolyline
 90
2
 70
0
 10
194.576700
 20
-194.567231
 30
0.0
 10
194.576700
 20
-193.068631
 30
0.0
  0
LWPOLYLINE
  5
149
100
AcDbEntity
  8
0
 62
7
100
AcDbPolyline
 90
2
 70
0
 10
194.718940
 20
-193.998271
 30
0.0
 10
195.148200
 20
-194.567231
 30
0.0
  0
LWPOLYLINE
  5
14a
100
AcDbEntity
  8
0
 62
7
100
AcDbPolyline
 90
2
 70
0
 10
195.148200
 20
-193.569011
 30
0.0
 10
194.576700
 20
-194.140511
 30
0.0
  0
LWPOLYLINE
  5
14b
100
AcDbEntity
  8
0
 62
7
100
AcDbPolyline
 90
2
 70
0
 10
195.790820
 20
-194.567231
 30
0.0
 10
195.790820
 20
-193.569011
 30
0.0
  0
LWPOLYLINE
  5
14c
100
AcDbEntity
  8
0
 62
7
100
AcDbPolyline
 90
6
 70
0
 10
195.790820
 20
-193.068631
 30
0.0
 10
195.719700
 20
-193.139751
 30
0.0
 10
195.790820
 20
-193.210871
 30
0.0
 10
195.861940
 20
-193.139751
 30
0.0
 10
195.790820
 20
-193.068631
 30
0.0
 10
195.790820
 20
-193.210871
 30
0.0
  0
LWPOLYLINE
  5
14d
100
AcDbEntity
  8
0
 62
7
100
AcDbPolyline
 90
12
 70
0
 10
197.147180
 20
-194.496111
 30
0.0
 10
197.004940
 20
-194.567231
 30
0.0
 10
196.717920
 20
-194.567231
 30
0.0
 10
196.575680
 20
-194.496111
 30
0.0
 10
196.504560
 20
-194.424991
 30
0.0
 10
196.433440
 20
-194.282751
 30
0.0
 10
196.433440
 20
-193.853491
 30
0.0
 10
196.504560
 20
-193.711251
 30
0.0
 10
196.575680
 20
-193.640131
 30
0.0
 10
196.717920
 20
-193.569011
 30
0.0
 10
197.004940
 20
-193.569011
 30
0.0
 10
197.147180
 20
-193.640131
 30
0.0
  0
LWPOLYLINE
  5
14e
100
AcDbEntity
  8
0
 62
7
100
AcDbPolyline
 90
6
 70
0
 10
198.432420
 20
-194.567231
 30
0.0
 10
198.432420
 20
-193.782371
 30
0.0
 10
198.361300
 20
-193.640131
 30
0.0
 10
198.219060
 20
-193.569011
 30
0.0
 10
197.932040
 20
-193.569011
 30
0.0
 10
197.789800
 20
-193.640131
 30
0.0
  0
LWPOLYLINE
  5
14f
100
AcDbEntity
  8
0
 62
7
100
AcDbPolyline
 90
10
 70
0
 10
198.432420
 20
-194.496111
 30
0.0
 10
198.290180
 20
-194.567231
 30
0.0
 10
197.932040
 20
-194.567231
 30
0.0
 10
197.789800
 20
-194.496111
 30
0.0
 10
197.718680
 20
-194.353871
 30
0.0
 10
197.718680
 20
-194.211631
 30
0.0
 10
197.789800
 20
-194.069391
 30
0.0
 10
197.932040
 20
-193.998271
 30
0.0
 10
198.290180
 20
-193.998271
 30
0.0
 10
198.432420
 20
-193.924611
 30
0.0
  0
LWPOLYLINE
  5
150
100
AcDbEntity
  8
0
 62
7
100
AcDbPolyline
 90
2
 70
0
 10
199.791320
 20
-194.567231
 30
0.0
 10
199.791320
 20
-193.068631
 30
0.0
  0
LWPOLYLINE
  5
151
100
AcDbEntity
  8
0
 62
7
100
AcDbPolyline
 90
12
 70
0
 10
199.791320
 20
-194.496111
 30
0.0
 10
199.646540
 20
-194.567231
 30
0.0
 10
199.362060
 20
-194.567231
 30
0.0
 10
199.219820
 20
-194.496111
 30
0.0
 10
199.146160
 20
-194.424991
 30
0.0
 10
199.075040
 20
-194.282751
 30
0.0
 10
199.075040
 20
-193.853491
 30
0.0
 10
199.146160
 20
-193.711251
 30
0.0
 10
199.219820
 20
-193.640131
 30
0.0
 10
199.362060
 20
-193.569011
 30
0.0
 10
199.646540
 20
-193.569011
 30
0.0
 10
199.791320
 20
-193.640131
 30
0.0
  0
LWPOLYLINE
  5
152
100
AcDbEntity
  8
0
 62
7
100
AcDbPolyline
 90
16
 70
0
 10
202.361800
 20
-193.068631
 30
0.0
 10
201.648060
 20
-193.068631
 30
0.0
 10
201.576940
 20
-193.782371
 30
0.0
 10
201.648060
 20
-193.711251
 30
0.0
 10
201.790300
 20
-193.640131
 30
0.0
 10
202.148440
 20
-193.640131
 30
0.0
 10
202.290680
 20
-193.711251
 30
0.0
 10
202.361800
 20
-193.782371
 30
0.0
 10
202.432920
 20
-193.924611
 30
0.0
 10
202.432920
 20
-194.282751
 30
0.0
 10
202.361800
 20
-194.424991
 30
0.0
 10
202.290680
 20
-194.496111
 30
0.0
 10
202.148440
 20
-194.567231
 30
0.0
 10
201.790300
 20
-194.567231
 30
0.0
 10
201.648060
 20
-194.496111
 30
0.0
 10
201.576940
 20
-194.424991
 30
0.0
  0
LWPOLYLINE
  5
153
100
AcDbEntity
  8
0
 62
7
100
AcDbPolyline
 90
6
 70
0
 10
203.075540
 20
-194.424991
 30
0.0
 10
203.146660
 20
-194.496111
 30
0.0
 10
203.075540
 20
-194.567231
 30
0.0
 10
203.004420
 20
-194.496111
 30
0.0
 10
203.075540
 20
-194.424991
 30
0.0
 10
203.075540
 20
-194.567231
 30
0.0
  0
LWPOLYLINE
  5
154
100
AcDbEntity
  8
0
 62
7
100
AcDbPolyline
 90
2
 70
0
 10
204.576680
 20
-194.567231
 30
0.0
 10
203.718160
 20
-194.567231
 30
0.0
  0
LWPOLYLINE
  5
155
100
AcDbEntity
  8
0
 62
7
100
AcDbPolyline
 90
5
 70
0
 10
204.147420
 20
-194.567231
 30
0.0
 10
204.147420
 20
-193.068631
 30
0.0
 10
204.005180
 20
-193.281991
 30
0.0
 10
203.860400
 20
-193.426771
 30
0.0
 10
203.718160
 20
-193.497891
 30
0.0
  0
LWPOLYLINE
  5
156
100
AcDbEntity
  8
0
 62
7
100
AcDbPolyline
 90
6
 70
0
 10
205.219300
 20
-194.424991
 30
0.0
 10
205.290420
 20
-194.496111
 30
0.0
 10
205.219300
 20
-194.567231
 30
0.0
 10
205.148180
 20
-194.496111
 30
0.0
 10
205.219300
 20
-194.424991
 30
0.0
 10
205.219300
 20
-194.567231
 30
0.0
  0
LWPOLYLINE
  5
157
100
AcDbEntity
  8
0
 62
7
100
AcDbPolyline
 90
22
 70
0
 10
206.004160
 20
-194.567231
 30
0.0
 10
206.291180
 20
-194.567231
 30
0.0
 10
206.433420
 20
-194.496111
 30
0.0
 10
206.504540
 20
-194.424991
 30
0.0
 10
206.646780
 20
-194.211631
 30
0.0
 10
206.717900
 20
-193.924611
 30
0.0
 10
206.717900
 20
-193.353111
 30
0.0
 10
206.646780
 20
-193.210871
 30
0.0
 10
206.575660
 20
-193.139751
 30
0.0
 10
206.433420
 20
-193.068631
 30
0.0
 10
206.146400
 20
-193.068631
 30
0.0
 10
206.004160
 20
-193.139751
 30
0.0
 10
205.933040
 20
-193.210871
 30
0.0
 10
205.861920
 20
-193.353111
 30
0.0
 10
205.861920
 20
-193.711251
 30
0.0
 10
205.933040
 20
-193.853491
 30
0.0
 10
206.004160
 20
-193.924611
 30
0.0
 10
206.146400
 20
-193.998271
 30
0.0
 10
206.433420
 20
-193.998271
 30
0.0
 10
206.575660
 20
-193.924611
 30
0.0
 10
206.646780
 20
-193.853491
 30
0.0
 10
206.717900
 20
-193.711251
 30
0.0
  0
LWPOLYLINE
  5
158
100
AcDbEntity
  8
0
 62
7
100
AcDbPolyline
 90
2
 70
0
 10
176.999900
 20
-189.489771
 30
0.0
 10
285.000700
 20
-189.489771
 30
0.0
  0
LWPOLYLINE
  5
159
100
AcDbEntity
  8
0
 62
7
100
AcDbPolyline
 90
2
 70
0
 10
264.411460
 20
-191.768151
 30
0.0
 10
263.911080
 20
-191.054411
 30
0.0
  0
LWPOLYLINE
  5
15a
100
AcDbEntity
  8
0
 62
7
100
AcDbPolyline
 90
11
 70
0
 10
263.552940
 20
-191.768151
 30
0.0
 10
263.552940
 20
-190.269551
 30
0.0
 10
264.124440
 20
-190.269551
 30
0.0
 10
264.266680
 20
-190.340671
 30
0.0
 10
264.337800
 20
-190.411791
 30
0.0
 10
264.411460
 20
-190.554031
 30
0.0
 10
264.411460
 20
-190.767391
 30
0.0
 10
264.337800
 20
-190.912171
 30
0.0
 10
264.266680
 20
-190.983291
 30
0.0
 10
264.124440
 20
-191.054411
 30
0.0
 10
263.552940
 20
-191.054411
 30
0.0
  0
LWPOLYLINE
  5
15b
100
AcDbEntity
  8
0
 62
7
100
AcDbPolyline
 90
13
 70
0
 10
265.625580
 20
-191.697031
 30
0.0
 10
265.480800
 20
-191.768151
 30
0.0
 10
265.196320
 20
-191.768151
 30
0.0
 10
265.054080
 20
-191.697031
 30
0.0
 10
264.980420
 20
-191.554791
 30
0.0
 10
264.980420
 20
-190.983291
 30
0.0
 10
265.054080
 20
-190.841051
 30
0.0
 10
265.196320
 20
-190.767391
 30
0.0
 10
265.480800
 20
-190.767391
 30
0.0
 10
265.625580
 20
-190.841051
 30
0.0
 10
265.696700
 20
-190.983291
 30
0.0
 10
265.696700
 20
-191.125531
 30
0.0
 10
264.980420
 20
-191.267771
 30
0.0
  0
LWPOLYLINE
  5
15c
100
AcDbEntity
  8
0
 62
7
100
AcDbPolyline
 90
3
 70
0
 10
266.197080
 20
-190.767391
 30
0.0
 10
266.552680
 20
-191.768151
 30
0.0
 10
266.910820
 20
-190.767391
 30
0.0
  0
LWPOLYLINE
  5
15d
100
AcDbEntity
  8
0
 62
7
100
AcDbPolyline
 90
6
 70
0
 10
267.482320
 20
-191.625911
 30
0.0
 10
267.553440
 20
-191.697031
 30
0.0
 10
267.482320
 20
-191.768151
 30
0.0
 10
267.411200
 20
-191.697031
 30
0.0
 10
267.482320
 20
-191.625911
 30
0.0
 10
267.482320
 20
-191.768151
 30
0.0
  0
LWPOLYLINE
  5
15e
100
AcDbEntity
  8
0
 62
7
100
AcDbPolyline
 90
6
 70
0
 10
267.482320
 20
-190.841051
 30
0.0
 10
267.553440
 20
-190.912171
 30
0.0
 10
267.482320
 20
-190.983291
 30
0.0
 10
267.411200
 20
-190.912171
 30
0.0
 10
267.482320
 20
-190.841051
 30
0.0
 10
267.482320
 20
-190.983291
 30
0.0
  0
LWPOLYLINE
  5
15f
100
AcDbEntity
  8
0
 62
7
100
AcDbPolyline
 90
20
 70
0
 10
178.361340
 20
-191.697031
 30
0.0
 10
178.574700
 20
-191.768151
 30
0.0
 10
178.932840
 20
-191.768151
 30
0.0
 10
179.075080
 20
-191.697031
 30
0.0
 10
179.146200
 20
-191.625911
 30
0.0
 10
179.219860
 20
-191.483671
 30
0.0
 10
179.219860
 20
-191.338891
 30
0.0
 10
179.146200
 20
-191.196651
 30
0.0
 10
179.075080
 20
-191.125531
 30
0.0
 10
178.932840
 20
-191.054411
 30
0.0
 10
178.648360
 20
-190.983291
 30
0.0
 10
178.503580
 20
-190.912171
 30
0.0
 10
178.432460
 20
-190.841051
 30
0.0
 10
178.361340
 20
-190.696271
 30
0.0
 10
178.361340
 20
-190.554031
 30
0.0
 10
178.432460
 20
-190.411791
 30
0.0
 10
178.503580
 20
-190.340671
 30
0.0
 10
178.648360
 20
-190.269551
 30
0.0
 10
179.003960
 20
-190.269551
 30
0.0
 10
179.219860
 20
-190.340671
 30
0.0
  0
LWPOLYLINE
  5
160
100
AcDbEntity
  8
0
 62
7
100
AcDbPolyline
 90
2
 70
0
 10
179.862480
 20
-191.768151
 30
0.0
 10
179.862480
 20
-190.767391
 30
0.0
  0
LWPOLYLINE
  5
161
100
AcDbEntity
  8
0
 62
7
100
AcDbPolyline
 90
6
 70
0
 10
179.862480
 20
-190.269551
 30
0.0
 10
179.791360
 20
-190.340671
 30
0.0
 10
179.862480
 20
-190.411791
 30
0.0
 10
179.933600
 20
-190.340671
 30
0.0
 10
179.862480
 20
-190.269551
 30
0.0
 10
179.862480
 20
-190.411791
 30
0.0
  0
LWPOLYLINE
  5
162
100
AcDbEntity
  8
0
 62
7
100
AcDbPolyline
 90
4
 70
0
 10
180.433980
 20
-190.767391
 30
0.0
 10
181.218840
 20
-190.767391
 30
0.0
 10
180.433980
 20
-191.768151
 30
0.0
 10
181.218840
 20
-191.768151
 30
0.0
  0
LWPOLYLINE
  5
163
100
AcDbEntity
  8
0
 62
7
100
AcDbPolyline
 90
13
 70
0
 10
182.361840
 20
-191.697031
 30
0.0
 10
182.219600
 20
-191.768151
 30
0.0
 10
181.932580
 20
-191.768151
 30
0.0
 10
181.790340
 20
-191.697031
 30
0.0
 10
181.719220
 20
-191.554791
 30
0.0
 10
181.719220
 20
-190.983291
 30
0.0
 10
181.790340
 20
-190.841051
 30
0.0
 10
181.932580
 20
-190.767391
 30
0.0
 10
182.219600
 20
-190.767391
 30
0.0
 10
182.361840
 20
-190.841051
 30
0.0
 10
182.432960
 20
-190.983291
 30
0.0
 10
182.432960
 20
-191.125531
 30
0.0
 10
181.719220
 20
-191.267771
 30
0.0
  0
LWPOLYLINE
  5
164
100
AcDbEntity
  8
0
 62
7
100
AcDbPolyline
 90
6
 70
0
 10
183.075580
 20
-191.625911
 30
0.0
 10
183.146700
 20
-191.697031
 30
0.0
 10
183.075580
 20
-191.768151
 30
0.0
 10
183.004460
 20
-191.697031
 30
0.0
 10
183.075580
 20
-191.625911
 30
0.0
 10
183.075580
 20
-191.768151
 30
0.0
  0
LWPOLYLINE
  5
165
100
AcDbEntity
  8
0
 62
7
100
AcDbPolyline
 90
6
 70
0
 10
183.075580
 20
-190.841051
 30
0.0
 10
183.146700
 20
-190.912171
 30
0.0
 10
183.075580
 20
-190.983291
 30
0.0
 10
183.004460
 20
-190.912171
 30
0.0
 10
183.075580
 20
-190.841051
 30
0.0
 10
183.075580
 20
-190.983291
 30
0.0
  0
LWPOLYLINE
  5
166
100
AcDbEntity
  8
0
 62
7
100
AcDbPolyline
 90
2
 70
0
 10
184.861200
 20
-191.338891
 30
0.0
 10
185.574940
 20
-191.338891
 30
0.0
  0
LWPOLYLINE
  5
167
100
AcDbEntity
  8
0
 62
7
100
AcDbPolyline
 90
3
 70
0
 10
184.718960
 20
-191.768151
 30
0.0
 10
185.219340
 20
-190.269551
 30
0.0
 10
185.719720
 20
-191.768151
 30
0.0
  0
LWPOLYLINE
  5
168
100
AcDbEntity
  8
0
 62
7
100
AcDbPolyline
 90
2
 70
0
 10
186.862720
 20
-190.767391
 30
0.0
 10
186.862720
 20
-191.768151
 30
0.0
  0
LWPOLYLINE
  5
169
100
AcDbEntity
  8
0
 62
7
100
AcDbPolyline
 90
3
 70
0
 10
186.504580
 20
-190.195891
 30
0.0
 10
186.146440
 20
-191.267771
 30
0.0
 10
187.076080
 20
-191.267771
 30
0.0
  0
LWPOLYLINE
  5
16a
100
AcDbEntity
  8
0
 62
7
100
AcDbPolyline
 90
2
 70
0
 10
263.433560
 20
-194.567231
 30
0.0
 10
263.433560
 20
-193.068631
 30
0.0
  0
LWPOLYLINE
  5
16b
100
AcDbEntity
  8
0
 62
7
100
AcDbPolyline
 90
2
 70
0
 10
264.789920
 20
-194.567231
 30
0.0
 10
264.789920
 20
-193.068631
 30
0.0
  0
LWPOLYLINE
  5
16c
100
AcDbEntity
  8
0
 62
7
100
AcDbPolyline
 90
12
 70
0
 10
264.789920
 20
-194.496111
 30
0.0
 10
264.647680
 20
-194.567231
 30
0.0
 10
264.360660
 20
-194.567231
 30
0.0
 10
264.218420
 20
-194.496111
 30
0.0
 10
264.147300
 20
-194.424991
 30
0.0
 10
264.076180
 20
-194.282751
 30
0.0
 10
264.076180
 20
-193.853491
 30
0.0
 10
264.147300
 20
-193.711251
 30
0.0
 10
264.218420
 20
-193.640131
 30
0.0
 10
264.360660
 20
-193.569011
 30
0.0
 10
264.647680
 20
-193.569011
 30
0.0
 10
264.789920
 20
-193.640131
 30
0.0
  0
LWPOLYLINE
  5
16d
100
AcDbEntity
  8
0
 62
7
100
AcDbPolyline
 90
6
 70
0
 10
265.503660
 20
-194.424991
 30
0.0
 10
265.574780
 20
-194.496111
 30
0.0
 10
265.503660
 20
-194.567231
 30
0.0
 10
265.432540
 20
-194.496111
 30
0.0
 10
265.503660
 20
-194.424991
 30
0.0
 10
265.503660
 20
-194.567231
 30
0.0
  0
LWPOLYLINE
  5
16e
100
AcDbEntity
  8
0
 62
7
100
AcDbPolyline
 90
6
 70
0
 10
265.503660
 20
-193.640131
 30
0.0
 10
265.574780
 20
-193.711251
 30
0.0
 10
265.503660
 20
-193.782371
 30
0.0
 10
265.432540
 20
-193.711251
 30
0.0
 10
265.503660
 20
-193.640131
 30
0.0
 10
265.503660
 20
-193.782371
 30
0.0
  0
LWPOLYLINE
  5
16f
100
AcDbEntity
  8
0
 62
7
100
AcDbPolyline
 90
2
 70
0
 10
268.147800
 20
-194.567231
 30
0.0
 10
267.289280
 20
-194.567231
 30
0.0
  0
LWPOLYLINE
  5
170
100
AcDbEntity
  8
0
 62
7
100
AcDbPolyline
 90
5
 70
0
 10
267.718540
 20
-194.567231
 30
0.0
 10
267.718540
 20
-193.068631
 30
0.0
 10
267.576300
 20
-193.281991
 30
0.0
 10
267.434060
 20
-193.426771
 30
0.0
 10
267.289280
 20
-193.497891
 30
0.0
  0
LWPOLYLINE
  5
171
100
AcDbEntity
  8
0
 62
7
100
AcDbPolyline
 90
2
 70
0
 10
269.862300
 20
-192.997511
 30
0.0
 10
268.577060
 20
-194.925371
 30
0.0
  0
LWPOLYLINE
  5
172
100
AcDbEntity
  8
0
 62
7
100
AcDbPolyline
 90
2
 70
0
 10
271.147540
 20
-194.567231
 30
0.0
 10
270.289020
 20
-194.567231
 30
0.0
  0
LWPOLYLINE
  5
173
100
AcDbEntity
  8
0
 62
7
100
AcDbPolyline
 90
5
 70
0
 10
270.718280
 20
-194.567231
 30
0.0
 10
270.718280
 20
-193.068631
 30
0.0
 10
270.576040
 20
-193.281991
 30
0.0
 10
270.433800
 20
-193.426771
 30
0.0
 10
270.289020
 20
-193.497891
 30
0.0
  0
LWPOLYLINE
  5
174
100
AcDbEntity
  8
0
 62
7
100
AcDbPolyline
 90
2
 70
0
 10
176.999900
 20
-185.489271
 30
0.0
 10
285.000700
 20
-185.489271
 30
0.0
  0
LWPOLYLINE
  5
175
100
AcDbEntity
  8
0
 62
7
100
AcDbPolyline
 90
2
 70
0
 10
178.714400
 20
-186.195391
 30
0.0
 10
179.857400
 20
-186.195391
 30
0.0
  0
LWPOLYLINE
  5
176
100
AcDbEntity
  8
0
 62
7
100
AcDbPolyline
 90
2
 70
0
 10
179.034440
 20
-188.194371
 30
0.0
 10
179.285900
 20
-186.195391
 30
0.0
  0
LWPOLYLINE
  5
177
100
AcDbEntity
  8
0
 62
7
100
AcDbPolyline
 90
2
 70
0
 10
180.273960
 20
-188.194371
 30
0.0
 10
180.439060
 20
-186.860871
 30
0.0
  0
LWPOLYLINE
  5
178
100
AcDbEntity
  8
0
 62
7
100
AcDbPolyline
 90
6
 70
0
 10
180.522880
 20
-186.195391
 30
0.0
 10
180.416200
 20
-186.289371
 30
0.0
 10
180.500020
 20
-186.385891
 30
0.0
 10
180.606700
 20
-186.289371
 30
0.0
 10
180.522880
 20
-186.195391
 30
0.0
 10
180.500020
 20
-186.385891
 30
0.0
  0
LWPOLYLINE
  5
179
100
AcDbEntity
  8
0
 62
7
100
AcDbPolyline
 90
2
 70
0
 10
181.107080
 20
-186.860871
 30
0.0
 10
181.869080
 20
-186.860871
 30
0.0
  0
LWPOLYLINE
  5
17a
100
AcDbEntity
  8
0
 62
7
100
AcDbPolyline
 90
5
 70
0
 10
181.475380
 20
-186.195391
 30
0.0
 10
181.262020
 20
-187.909891
 30
0.0
 10
181.333140
 20
-188.100391
 30
0.0
 10
181.510940
 20
-188.194371
 30
0.0
 10
181.701440
 20
-188.194371
 30
0.0
  0
LWPOLYLINE
  5
17b
100
AcDbEntity
  8
0
 62
7
100
AcDbPolyline
 90
4
 70
0
 10
182.653940
 20
-188.194371
 30
0.0
 10
182.476140
 20
-188.100391
 30
0.0
 10
182.405020
 20
-187.909891
 30
0.0
 10
182.618380
 20
-186.195391
 30
0.0
  0
LWPOLYLINE
  5
17c
100
AcDbEntity
  8
0
 62
7
100
AcDbPolyline
 90
13
 70
0
 10
184.190640
 20
-188.100391
 30
0.0
 10
183.987440
 20
-188.194371
 30
0.0
 10
183.606440
 20
-188.194371
 30
0.0
 10
183.428640
 20
-188.100391
 30
0.0
 10
183.354980
 20
-187.909891
 30
0.0
 10
183.451500
 20
-187.147891
 30
0.0
 10
183.570880
 20
-186.957391
 30
0.0
 10
183.774080
 20
-186.860871
 30
0.0
 10
184.152540
 20
-186.860871
 30
0.0
 10
184.332880
 20
-186.957391
 30
0.0
 10
184.404000
 20
-187.147891
 30
0.0
 10
184.381140
 20
-187.338391
 30
0.0
 10
183.403240
 20
-187.528891
 30
0.0
  0
LWPOLYLINE
  5
17d
100
AcDbEntity
  8
0
 62
7
100
AcDbPolyline
 90
6
 70
0
 10
185.153300
 20
-188.003871
 30
0.0
 10
185.237120
 20
-188.100391
 30
0.0
 10
185.130440
 20
-188.194371
 30
0.0
 10
185.046620
 20
-188.100391
 30
0.0
 10
185.153300
 20
-188.003871
 30
0.0
 10
185.130440
 20
-188.194371
 30
0.0
  0
LWPOLYLINE
  5
17e
100
AcDbEntity
  8
0
 62
7
100
AcDbPolyline
 90
6
 70
0
 10
185.285380
 20
-186.957391
 30
0.0
 10
185.369200
 20
-187.051371
 30
0.0
 10
185.259980
 20
-187.147891
 30
0.0
 10
185.178700
 20
-187.051371
 30
0.0
 10
185.285380
 20
-186.957391
 30
0.0
 10
185.259980
 20
-187.147891
 30
0.0
  0
LWPOLYLINE
  5
17f
100
AcDbEntity
  8
0
 62
7
100
AcDbPolyline
 90
2
 70
0
 10
178.932840
 20
-183.581731
 30
0.0
 10
178.432460
 20
-183.581731
 30
0.0
  0
LWPOLYLINE
  5
180
100
AcDbEntity
  8
0
 62
7
100
AcDbPolyline
 90
3
 70
0
 10
178.432460
 20
-184.369131
 30
0.0
 10
178.432460
 20
-182.867991
 30
0.0
 10
179.146200
 20
-182.867991
 30
0.0
  0
LWPOLYLINE
  5
181
100
AcDbEntity
  8
0
 62
7
100
AcDbPolyline
 90
2
 70
0
 10
179.717700
 20
-184.369131
 30
0.0
 10
179.717700
 20
-183.368371
 30
0.0
  0
LWPOLYLINE
  5
182
100
AcDbEntity
  8
0
 62
7
100
AcDbPolyline
 90
6
 70
0
 10
179.717700
 20
-182.867991
 30
0.0
 10
179.646580
 20
-182.939111
 30
0.0
 10
179.717700
 20
-183.010231
 30
0.0
 10
179.791360
 20
-182.939111
 30
0.0
 10
179.717700
 20
-182.867991
 30
0.0
 10
179.717700
 20
-183.010231
 30
0.0
  0
LWPOLYLINE
  5
183
100
AcDbEntity
  8
0
 62
7
100
AcDbPolyline
 90
4
 70
0
 10
180.647340
 20
-184.369131
 30
0.0
 10
180.505100
 20
-184.298011
 30
0.0
 10
180.433980
 20
-184.153231
 30
0.0
 10
180.433980
 20
-182.867991
 30
0.0
  0
LWPOLYLINE
  5
184
100
AcDbEntity
  8
0
 62
7
100
AcDbPolyline
 90
13
 70
0
 10
181.790340
 20
-184.298011
 30
0.0
 10
181.648100
 20
-184.369131
 30
0.0
 10
181.361080
 20
-184.369131
 30
0.0
 10
181.218840
 20
-184.298011
 30
0.0
 10
181.147720
 20
-184.153231
 30
0.0
 10
181.147720
 20
-183.581731
 30
0.0
 10
181.218840
 20
-183.439491
 30
0.0
 10
181.361080
 20
-183.368371
 30
0.0
 10
181.648100
 20
-183.368371
 30
0.0
 10
181.790340
 20
-183.439491
 30
0.0
 10
181.861460
 20
-183.581731
 30
0.0
 10
181.861460
 20
-183.726511
 30
0.0
 10
181.147720
 20
-183.868751
 30
0.0
  0
LWPOLYLINE
  5
185
100
AcDbEntity
  8
0
 62
7
100
AcDbPolyline
 90
6
 70
0
 10
182.504080
 20
-184.224351
 30
0.0
 10
182.575200
 20
-184.298011
 30
0.0
 10
182.504080
 20
-184.369131
 30
0.0
 10
182.432960
 20
-184.298011
 30
0.0
 10
182.504080
 20
-184.224351
 30
0.0
 10
182.504080
 20
-184.369131
 30
0.0
  0
LWPOLYLINE
  5
186
100
AcDbEntity
  8
0
 62
7
100
AcDbPolyline
 90
6
 70
0
 10
182.504080
 20
-183.439491
 30
0.0
 10
182.575200
 20
-183.510611
 30
0.0
 10
182.504080
 20
-183.581731
 30
0.0
 10
182.432960
 20
-183.510611
 30
0.0
 10
182.504080
 20
-183.439491
 30
0.0
 10
182.504080
 20
-183.581731
 30
0.0
  0
LWPOLYLINE
  5
187
100
AcDbEntity
  8
0
 62
7
100
AcDbPolyline
 90
16
 70
0
 10
184.289700
 20
-184.298011
 30
0.0
 10
184.431940
 20
-184.369131
 30
0.0
 10
184.718960
 20
-184.369131
 30
0.0
 10
184.861200
 20
-184.298011
 30
0.0
 10
184.932320
 20
-184.153231
 30
0.0
 10
184.932320
 20
-184.082111
 30
0.0
 10
184.861200
 20
-183.939871
 30
0.0
 10
184.718960
 20
-183.868751
 30
0.0
 10
184.505600
 20
-183.868751
 30
0.0
 10
184.360820
 20
-183.797631
 30
0.0
 10
184.289700
 20
-183.655391
 30
0.0
 10
184.289700
 20
-183.581731
 30
0.0
 10
184.360820
 20
-183.439491
 30
0.0
 10
184.505600
 20
-183.368371
 30
0.0
 10
184.718960
 20
-183.368371
 30
0.0
 10
184.861200
 20
-183.439491
 30
0.0
  0
LWPOLYLINE
  5
188
100
AcDbEntity
  8
0
 62
7
100
AcDbPolyline
 90
2
 70
0
 10
185.574940
 20
-183.368371
 30
0.0
 10
185.574940
 20
-184.869511
 30
0.0
  0
LWPOLYLINE
  5
189
100
AcDbEntity
  8
0
 62
7
100
AcDbPolyline
 90
12
 70
0
 10
185.574940
 20
-183.439491
 30
0.0
 10
185.719720
 20
-183.368371
 30
0.0
 10
186.004200
 20
-183.368371
 30
0.0
 10
186.146440
 20
-183.439491
 30
0.0
 10
186.217560
 20
-183.510611
 30
0.0
 10
186.291220
 20
-183.655391
 30
0.0
 10
186.291220
 20
-184.082111
 30
0.0
 10
186.217560
 20
-184.224351
 30
0.0
 10
186.146440
 20
-184.298011
 30
0.0
 10
186.004200
 20
-184.369131
 30
0.0
 10
185.719720
 20
-184.369131
 30
0.0
 10
185.574940
 20
-184.298011
 30
0.0
  0
LWPOLYLINE
  5
18a
100
AcDbEntity
  8
0
 62
7
100
AcDbPolyline
 90
4
 70
0
 10
187.147200
 20
-184.369131
 30
0.0
 10
187.004960
 20
-184.298011
 30
0.0
 10
186.933840
 20
-184.153231
 30
0.0
 10
186.933840
 20
-182.867991
 30
0.0
  0
LWPOLYLINE
  5
18b
100
AcDbEntity
  8
0
 62
7
100
AcDbPolyline
 90
2
 70
0
 10
187.718700
 20
-184.369131
 30
0.0
 10
187.718700
 20
-183.368371
 30
0.0
  0
LWPOLYLINE
  5
18c
100
AcDbEntity
  8
0
 62
7
100
AcDbPolyline
 90
6
 70
0
 10
187.718700
 20
-182.867991
 30
0.0
 10
187.647580
 20
-182.939111
 30
0.0
 10
187.718700
 20
-183.010231
 30
0.0
 10
187.789820
 20
-182.939111
 30
0.0
 10
187.718700
 20
-182.867991
 30
0.0
 10
187.718700
 20
-183.010231
 30
0.0
  0
LWPOLYLINE
  5
18d
100
AcDbEntity
  8
0
 62
7
100
AcDbPolyline
 90
2
 70
0
 10
188.219080
 20
-183.368371
 30
0.0
 10
188.790580
 20
-183.368371
 30
0.0
  0
LWPOLYLINE
  5
18e
100
AcDbEntity
  8
0
 62
7
100
AcDbPolyline
 90
5
 70
0
 10
188.432440
 20
-182.867991
 30
0.0
 10
188.432440
 20
-184.153231
 30
0.0
 10
188.503560
 20
-184.298011
 30
0.0
 10
188.648340
 20
-184.369131
 30
0.0
 10
188.790580
 20
-184.369131
 30
0.0
  0
LWPOLYLINE
  5
18f
100
AcDbEntity
  8
0
 62
7
100
AcDbPolyline
 90
2
 70
0
 10
189.290960
 20
-184.369131
 30
0.0
 10
189.290960
 20
-182.867991
 30
0.0
  0
LWPOLYLINE
  5
190
100
AcDbEntity
  8
0
 62
7
100
AcDbPolyline
 90
2
 70
0
 10
189.433200
 20
-183.797631
 30
0.0
 10
189.862460
 20
-184.369131
 30
0.0
  0
LWPOLYLINE
  5
191
100
AcDbEntity
  8
0
 62
7
100
AcDbPolyline
 90
2
 70
0
 10
189.862460
 20
-183.368371
 30
0.0
 10
189.290960
 20
-183.939871
 30
0.0
  0
LWPOLYLINE
  5
192
100
AcDbEntity
  8
0
 62
7
100
AcDbPolyline
 90
13
 70
0
 10
191.076580
 20
-184.298011
 30
0.0
 10
190.934340
 20
-184.369131
 30
0.0
 10
190.647320
 20
-184.369131
 30
0.0
 10
190.505080
 20
-184.298011
 30
0.0
 10
190.433960
 20
-184.153231
 30
0.0
 10
190.433960
 20
-183.581731
 30
0.0
 10
190.505080
 20
-183.439491
 30
0.0
 10
190.647320
 20
-183.368371
 30
0.0
 10
190.934340
 20
-183.368371
 30
0.0
 10
191.076580
 20
-183.439491
 30
0.0
 10
191.147700
 20
-183.581731
 30
0.0
 10
191.147700
 20
-183.726511
 30
0.0
 10
190.433960
 20
-183.868751
 30
0.0
  0
LWPOLYLINE
  5
193
100
AcDbEntity
  8
0
 62
7
100
AcDbPolyline
 90
13
 70
0
 10
192.361820
 20
-184.298011
 30
0.0
 10
192.219580
 20
-184.369131
 30
0.0
 10
191.932560
 20
-184.369131
 30
0.0
 10
191.790320
 20
-184.298011
 30
0.0
 10
191.719200
 20
-184.153231
 30
0.0
 10
191.719200
 20
-183.581731
 30
0.0
 10
191.790320
 20
-183.439491
 30
0.0
 10
191.932560
 20
-183.368371
 30
0.0
 10
192.219580
 20
-183.368371
 30
0.0
 10
192.361820
 20
-183.439491
 30
0.0
 10
192.432940
 20
-183.581731
 30
0.0
 10
192.432940
 20
-183.726511
 30
0.0
 10
191.719200
 20
-183.868751
 30
0.0
  0
LWPOLYLINE
  5
194
100
AcDbEntity
  8
0
 62
7
100
AcDbPolyline
 90
2
 70
0
 10
193.075560
 20
-184.369131
 30
0.0
 10
193.075560
 20
-182.867991
 30
0.0
  0
LWPOLYLINE
  5
195
100
AcDbEntity
  8
0
 62
7
100
AcDbPolyline
 90
12
 70
0
 10
193.075560
 20
-183.439491
 30
0.0
 10
193.217800
 20
-183.368371
 30
0.0
 10
193.504820
 20
-183.368371
 30
0.0
 10
193.647060
 20
-183.439491
 30
0.0
 10
193.718180
 20
-183.510611
 30
0.0
 10
193.789300
 20
-183.655391
 30
0.0
 10
193.789300
 20
-184.082111
 30
0.0
 10
193.718180
 20
-184.224351
 30
0.0
 10
193.647060
 20
-184.298011
 30
0.0
 10
193.504820
 20
-184.369131
 30
0.0
 10
193.217800
 20
-184.369131
 30
0.0
 10
193.075560
 20
-184.298011
 30
0.0
  0
LWPOLYLINE
  5
196
100
AcDbEntity
  8
0
 62
7
100
AcDbPolyline
 90
2
 70
0
 10
195.574920
 20
-183.797631
 30
0.0
 10
196.717920
 20
-183.797631
 30
0.0
  0
LWPOLYLINE
  5
197
100
AcDbEntity
  8
0
 62
7
100
AcDbPolyline
 90
2
 70
0
 10
198.577200
 20
-183.368371
 30
0.0
 10
198.577200
 20
-184.869511
 30
0.0
  0
LWPOLYLINE
  5
198
100
AcDbEntity
  8
0
 62
7
100
AcDbPolyline
 90
12
 70
0
 10
198.577200
 20
-183.439491
 30
0.0
 10
198.719440
 20
-183.368371
 30
0.0
 10
199.003920
 20
-183.368371
 30
0.0
 10
199.146160
 20
-183.439491
 30
0.0
 10
199.219820
 20
-183.510611
 30
0.0
 10
199.290940
 20
-183.655391
 30
0.0
 10
199.290940
 20
-184.082111
 30
0.0
 10
199.219820
 20
-184.224351
 30
0.0
 10
199.146160
 20
-184.298011
 30
0.0
 10
199.003920
 20
-184.369131
 30
0.0
 10
198.719440
 20
-184.369131
 30
0.0
 10
198.577200
 20
-184.298011
 30
0.0
  0
LWPOLYLINE
  5
199
100
AcDbEntity
  8
0
 62
7
100
AcDbPolyline
 90
2
 70
0
 10
199.933560
 20
-184.369131
 30
0.0
 10
199.933560
 20
-183.368371
 30
0.0
  0
LWPOLYLINE
  5
19a
100
AcDbEntity
  8
0
 62
7
100
AcDbPolyline
 90
5
 70
0
 10
199.933560
 20
-183.655391
 30
0.0
 10
200.004680
 20
-183.510611
 30
0.0
 10
200.075800
 20
-183.439491
 30
0.0
 10
200.218040
 20
-183.368371
 30
0.0
 10
200.362820
 20
-183.368371
 30
0.0
  0
LWPOLYLINE
  5
19b
100
AcDbEntity
  8
0
 62
7
100
AcDbPolyline
 90
16
 70
1
 10
201.076560
 20
-184.369131
 30
0.0
 10
200.934320
 20
-184.298011
 30
0.0
 10
200.860660
 20
-184.224351
 30
0.0
 10
200.789540
 20
-184.082111
 30
0.0
 10
200.789540
 20
-183.655391
 30
0.0
 10
200.860660
 20
-183.510611
 30
0.0
 10
200.934320
 20
-183.439491
 30
0.0
 10
201.076560
 20
-183.368371
 30
0.0
 10
201.289920
 20
-183.368371
 30
0.0
 10
201.432160
 20
-183.439491
 30
0.0
 10
201.503280
 20
-183.510611
 30
0.0
 10
201.576940
 20
-183.655391
 30
0.0
 10
201.576940
 20
-184.082111
 30
0.0
 10
201.503280
 20
-184.224351
 30
0.0
 10
201.432160
 20
-184.298011
 30
0.0
 10
201.289920
 20
-184.369131
 30
0.0
  0
LWPOLYLINE
  5
19c
100
AcDbEntity
  8
0
 62
7
100
AcDbPolyline
 90
2
 70
0
 10
203.362560
 20
-184.369131
 30
0.0
 10
203.362560
 20
-183.368371
 30
0.0
  0
LWPOLYLINE
  5
19d
100
AcDbEntity
  8
0
 62
7
100
AcDbPolyline
 90
7
 70
0
 10
203.362560
 20
-183.510611
 30
0.0
 10
203.433680
 20
-183.439491
 30
0.0
 10
203.575920
 20
-183.368371
 30
0.0
 10
203.789280
 20
-183.368371
 30
0.0
 10
203.934060
 20
-183.439491
 30
0.0
 10
204.005180
 20
-183.581731
 30
0.0
 10
204.005180
 20
-184.369131
 30
0.0
  0
LWPOLYLINE
  5
19e
100
AcDbEntity
  8
0
 62
7
100
AcDbPolyline
 90
7
 70
0
 10
204.005180
 20
-183.581731
 30
0.0
 10
204.076300
 20
-183.439491
 30
0.0
 10
204.218540
 20
-183.368371
 30
0.0
 10
204.431900
 20
-183.368371
 30
0.0
 10
204.576680
 20
-183.439491
 30
0.0
 10
204.647800
 20
-183.581731
 30
0.0
 10
204.647800
 20
-184.369131
 30
0.0
  0
LWPOLYLINE
  5
19f
100
AcDbEntity
  8
0
 62
7
100
AcDbPolyline
 90
2
 70
0
 10
205.361540
 20
-184.369131
 30
0.0
 10
205.361540
 20
-183.368371
 30
0.0
  0
LWPOLYLINE
  5
1a0
100
AcDbEntity
  8
0
 62
7
100
AcDbPolyline
 90
6
 70
0
 10
205.361540
 20
-182.867991
 30
0.0
 10
205.290420
 20
-182.939111
 30
0.0
 10
205.361540
 20
-183.010231
 30
0.0
 10
205.432660
 20
-182.939111
 30
0.0
 10
205.361540
 20
-182.867991
 30
0.0
 10
205.361540
 20
-183.010231
 30
0.0
  0
LWPOLYLINE
  5
1a1
100
AcDbEntity
  8
0
 62
7
100
AcDbPolyline
 90
12
 70
0
 10
206.717900
 20
-184.298011
 30
0.0
 10
206.575660
 20
-184.369131
 30
0.0
 10
206.291180
 20
-184.369131
 30
0.0
 10
206.146400
 20
-184.298011
 30
0.0
 10
206.075280
 20
-184.224351
 30
0.0
 10
206.004160
 20
-184.082111
 30
0.0
 10
206.004160
 20
-183.655391
 30
0.0
 10
206.075280
 20
-183.510611
 30
0.0
 10
206.146400
 20
-183.439491
 30
0.0
 10
206.291180
 20
-183.368371
 30
0.0
 10
206.575660
 20
-183.368371
 30
0.0
 10
206.717900
 20
-183.439491
 30
0.0
  0
LWPOLYLINE
  5
1a2
100
AcDbEntity
  8
0
 62
7
100
AcDbPolyline
 90
2
 70
0
 10
207.360520
 20
-184.369131
 30
0.0
 10
207.360520
 20
-183.368371
 30
0.0
  0
LWPOLYLINE
  5
1a3
100
AcDbEntity
  8
0
 62
7
100
AcDbPolyline
 90
5
 70
0
 10
207.360520
 20
-183.655391
 30
0.0
 10
207.434180
 20
-183.510611
 30
0.0
 10
207.505300
 20
-183.439491
 30
0.0
 10
207.647540
 20
-183.368371
 30
0.0
 10
207.789780
 20
-183.368371
 30
0.0
  0
LWPOLYLINE
  5
1a4
100
AcDbEntity
  8
0
 62
7
100
AcDbPolyline
 90
16
 70
1
 10
208.503520
 20
-184.369131
 30
0.0
 10
208.361280
 20
-184.298011
 30
0.0
 10
208.290160
 20
-184.224351
 30
0.0
 10
208.219040
 20
-184.082111
 30
0.0
 10
208.219040
 20
-183.655391
 30
0.0
 10
208.290160
 20
-183.510611
 30
0.0
 10
208.361280
 20
-183.439491
 30
0.0
 10
208.503520
 20
-183.368371
 30
0.0
 10
208.719420
 20
-183.368371
 30
0.0
 10
208.861660
 20
-183.439491
 30
0.0
 10
208.932780
 20
-183.510611
 30
0.0
 10
209.003900
 20
-183.655391
 30
0.0
 10
209.003900
 20
-184.082111
 30
0.0
 10
208.932780
 20
-184.224351
 30
0.0
 10
208.861660
 20
-184.298011
 30
0.0
 10
208.719420
 20
-184.369131
 30
0.0
  0
LWPOLYLINE
  5
1a5
100
AcDbEntity
  8
0
 62
7
100
AcDbPolyline
 90
16
 70
0
 10
209.575400
 20
-184.298011
 30
0.0
 10
209.717640
 20
-184.369131
 30
0.0
 10
210.004660
 20
-184.369131
 30
0.0
 10
210.146900
 20
-184.298011
 30
0.0
 10
210.218020
 20
-184.153231
 30
0.0
 10
210.218020
 20
-184.082111
 30
0.0
 10
210.146900
 20
-183.939871
 30
0.0
 10
210.004660
 20
-183.868751
 30
0.0
 10
209.791300
 20
-183.868751
 30
0.0
 10
209.646520
 20
-183.797631
 30
0.0
 10
209.575400
 20
-183.655391
 30
0.0
 10
209.575400
 20
-183.581731
 30
0.0
 10
209.646520
 20
-183.439491
 30
0.0
 10
209.791300
 20
-183.368371
 30
0.0
 10
210.004660
 20
-183.368371
 30
0.0
 10
210.146900
 20
-183.439491
 30
0.0
  0
LWPOLYLINE
  5
1a6
100
AcDbEntity
  8
0
 62
7
100
AcDbPolyline
 90
6
 70
0
 10
210.860640
 20
-184.224351
 30
0.0
 10
210.934300
 20
-184.298011
 30
0.0
 10
210.860640
 20
-184.369131
 30
0.0
 10
210.789520
 20
-184.298011
 30
0.0
 10
210.860640
 20
-184.224351
 30
0.0
 10
210.860640
 20
-184.369131
 30
0.0
  0
LWPOLYLINE
  5
1a7
100
AcDbEntity
  8
0
 62
7
100
AcDbPolyline
 90
2
 70
0
 10
211.576920
 20
-184.369131
 30
0.0
 10
211.576920
 20
-182.867991
 30
0.0
  0
LWPOLYLINE
  5
1a8
100
AcDbEntity
  8
0
 62
7
100
AcDbPolyline
 90
2
 70
0
 10
211.719160
 20
-183.797631
 30
0.0
 10
212.148420
 20
-184.369131
 30
0.0
  0
LWPOLYLINE
  5
1a9
100
AcDbEntity
  8
0
 62
7
100
AcDbPolyline
 90
2
 70
0
 10
212.148420
 20
-183.368371
 30
0.0
 10
211.576920
 20
-183.939871
 30
0.0
  0
LWPOLYLINE
  5
1aa
100
AcDbEntity
  8
0
 62
7
100
AcDbPolyline
 90
2
 70
0
 10
212.791040
 20
-184.369131
 30
0.0
 10
212.791040
 20
-183.368371
 30
0.0
  0
LWPOLYLINE
  5
1ab
100
AcDbEntity
  8
0
 62
7
100
AcDbPolyline
 90
6
 70
0
 10
212.791040
 20
-182.867991
 30
0.0
 10
212.719920
 20
-182.939111
 30
0.0
 10
212.791040
 20
-183.010231
 30
0.0
 10
212.862160
 20
-182.939111
 30
0.0
 10
212.791040
 20
-182.867991
 30
0.0
 10
212.791040
 20
-183.010231
 30
0.0
  0
LWPOLYLINE
  5
1ac
100
AcDbEntity
  8
0
 62
7
100
AcDbPolyline
 90
12
 70
0
 10
214.147400
 20
-184.298011
 30
0.0
 10
214.005160
 20
-184.369131
 30
0.0
 10
213.718140
 20
-184.369131
 30
0.0
 10
213.575900
 20
-184.298011
 30
0.0
 10
213.504780
 20
-184.224351
 30
0.0
 10
213.433660
 20
-184.082111
 30
0.0
 10
213.433660
 20
-183.655391
 30
0.0
 10
213.504780
 20
-183.510611
 30
0.0
 10
213.575900
 20
-183.439491
 30
0.0
 10
213.718140
 20
-183.368371
 30
0.0
 10
214.005160
 20
-183.368371
 30
0.0
 10
214.147400
 20
-183.439491
 30
0.0
  0
LWPOLYLINE
  5
1ad
100
AcDbEntity
  8
0
 62
7
100
AcDbPolyline
 90
6
 70
0
 10
215.432640
 20
-184.369131
 30
0.0
 10
215.432640
 20
-183.581731
 30
0.0
 10
215.361520
 20
-183.439491
 30
0.0
 10
215.219280
 20
-183.368371
 30
0.0
 10
214.932260
 20
-183.368371
 30
0.0
 10
214.790020
 20
-183.439491
 30
0.0
  0
LWPOLYLINE
  5
1ae
100
AcDbEntity
  8
0
 62
7
100
AcDbPolyline
 90
10
 70
0
 10
215.432640
 20
-184.298011
 30
0.0
 10
215.290400
 20
-184.369131
 30
0.0
 10
214.932260
 20
-184.369131
 30
0.0
 10
214.790020
 20
-184.298011
 30
0.0
 10
214.718900
 20
-184.153231
 30
0.0
 10
214.718900
 20
-184.010991
 30
0.0
 10
214.790020
 20
-183.868751
 30
0.0
 10
214.932260
 20
-183.797631
 30
0.0
 10
215.290400
 20
-183.797631
 30
0.0
 10
215.432640
 20
-183.726511
 30
0.0
  0
LWPOLYLINE
  5
1af
100
AcDbEntity
  8
0
 62
7
100
AcDbPolyline
 90
2
 70
0
 10
216.789000
 20
-184.369131
 30
0.0
 10
216.789000
 20
-182.867991
 30
0.0
  0
LWPOLYLINE
  5
1b0
100
AcDbEntity
  8
0
 62
7
100
AcDbPolyline
 90
12
 70
0
 10
216.789000
 20
-184.298011
 30
0.0
 10
216.646760
 20
-184.369131
 30
0.0
 10
216.362280
 20
-184.369131
 30
0.0
 10
216.220040
 20
-184.298011
 30
0.0
 10
216.146380
 20
-184.224351
 30
0.0
 10
216.075260
 20
-184.082111
 30
0.0
 10
216.075260
 20
-183.655391
 30
0.0
 10
216.146380
 20
-183.510611
 30
0.0
 10
216.220040
 20
-183.439491
 30
0.0
 10
216.362280
 20
-183.368371
 30
0.0
 10
216.646760
 20
-183.368371
 30
0.0
 10
216.789000
 20
-183.439491
 30
0.0
  0
LWPOLYLINE
  5
1b1
100
AcDbEntity
  8
0
 62
7
100
AcDbPolyline
 90
2
 70
0
 10
217.147140
 20
-184.511371
 30
0.0
 10
218.290140
 20
-184.511371
 30
0.0
  0
LWPOLYLINE
  5
1b2
100
AcDbEntity
  8
0
 62
7
100
AcDbPolyline
 90
2
 70
0
 10
218.648280
 20
-183.368371
 30
0.0
 10
218.648280
 20
-184.869511
 30
0.0
  0
LWPOLYLINE
  5
1b3
100
AcDbEntity
  8
0
 62
7
100
AcDbPolyline
 90
12
 70
0
 10
218.648280
 20
-183.439491
 30
0.0
 10
218.790520
 20
-183.368371
 30
0.0
 10
219.075000
 20
-183.368371
 30
0.0
 10
219.219780
 20
-183.439491
 30
0.0
 10
219.290900
 20
-183.510611
 30
0.0
 10
219.362020
 20
-183.655391
 30
0.0
 10
219.362020
 20
-184.082111
 30
0.0
 10
219.290900
 20
-184.224351
 30
0.0
 10
219.219780
 20
-184.298011
 30
0.0
 10
219.075000
 20
-184.369131
 30
0.0
 10
218.790520
 20
-184.369131
 30
0.0
 10
218.648280
 20
-184.298011
 30
0.0
  0
LWPOLYLINE
  5
1b4
100
AcDbEntity
  8
0
 62
7
100
AcDbPolyline
 90
12
 70
0
 10
220.647260
 20
-184.298011
 30
0.0
 10
220.505020
 20
-184.369131
 30
0.0
 10
220.218000
 20
-184.369131
 30
0.0
 10
220.075760
 20
-184.298011
 30
0.0
 10
220.004640
 20
-184.224351
 30
0.0
 10
219.933520
 20
-184.082111
 30
0.0
 10
219.933520
 20
-183.655391
 30
0.0
 10
220.004640
 20
-183.510611
 30
0.0
 10
220.075760
 20
-183.439491
 30
0.0
 10
220.218000
 20
-183.368371
 30
0.0
 10
220.505020
 20
-183.368371
 30
0.0
 10
220.647260
 20
-183.439491
 30
0.0
  0
LWPOLYLINE
  5
1b5
100
AcDbEntity
  8
0
 62
7
100
AcDbPolyline
 90
2
 70
0
 10
221.289880
 20
-184.369131
 30
0.0
 10
221.289880
 20
-182.867991
 30
0.0
  0
LWPOLYLINE
  5
1b6
100
AcDbEntity
  8
0
 62
7
100
AcDbPolyline
 90
12
 70
0
 10
221.289880
 20
-183.439491
 30
0.0
 10
221.432120
 20
-183.368371
 30
0.0
 10
221.719140
 20
-183.368371
 30
0.0
 10
221.861380
 20
-183.439491
 30
0.0
 10
221.932500
 20
-183.510611
 30
0.0
 10
222.003620
 20
-183.655391
 30
0.0
 10
222.003620
 20
-184.082111
 30
0.0
 10
221.932500
 20
-184.224351
 30
0.0
 10
221.861380
 20
-184.298011
 30
0.0
 10
221.719140
 20
-184.369131
 30
0.0
 10
221.432120
 20
-184.369131
 30
0.0
 10
221.289880
 20
-184.298011
 30
0.0
  0
LWPOLYLINE
  5
1b7
100
AcDbEntity
  8
0
 62
7
100
AcDbPolyline
 90
2
 70
0
 10
176.999900
 20
-179.489791
 30
0.0
 10
285.000700
 20
-179.489791
 30
0.0
  0
LWPOLYLINE
  5
1b8
100
AcDbEntity
  8
0
 62
7
100
AcDbPolyline
 90
20
 70
0
 10
178.361340
 20
-181.597991
 30
0.0
 10
178.574700
 20
-181.669111
 30
0.0
 10
178.932840
 20
-181.669111
 30
0.0
 10
179.075080
 20
-181.597991
 30
0.0
 10
179.146200
 20
-181.524331
 30
0.0
 10
179.219860
 20
-181.382091
 30
0.0
 10
179.219860
 20
-181.239851
 30
0.0
 10
179.146200
 20
-181.097611
 30
0.0
 10
179.075080
 20
-181.026491
 30
0.0
 10
178.932840
 20
-180.955371
 30
0.0
 10
178.648360
 20
-180.881711
 30
0.0
 10
178.503580
 20
-180.810591
 30
0.0
 10
178.432460
 20
-180.739471
 30
0.0
 10
178.361340
 20
-180.597231
 30
0.0
 10
178.361340
 20
-180.454991
 30
0.0
 10
178.432460
 20
-180.310211
 30
0.0
 10
178.503580
 20
-180.239091
 30
0.0
 10
178.648360
 20
-180.167971
 30
0.0
 10
179.003960
 20
-180.167971
 30
0.0
 10
179.219860
 20
-180.239091
 30
0.0
  0
LWPOLYLINE
  5
1b9
100
AcDbEntity
  8
0
 62
7
100
AcDbPolyline
 90
2
 70
0
 10
179.862480
 20
-181.669111
 30
0.0
 10
179.862480
 20
-180.167971
 30
0.0
  0
LWPOLYLINE
  5
1ba
100
AcDbEntity
  8
0
 62
7
100
AcDbPolyline
 90
7
 70
0
 10
180.505100
 20
-181.669111
 30
0.0
 10
180.505100
 20
-180.881711
 30
0.0
 10
180.433980
 20
-180.739471
 30
0.0
 10
180.289200
 20
-180.668351
 30
0.0
 10
180.075840
 20
-180.668351
 30
0.0
 10
179.933600
 20
-180.739471
 30
0.0
 10
179.862480
 20
-180.810591
 30
0.0
  0
LWPOLYLINE
  5
1bb
100
AcDbEntity
  8
0
 62
7
100
AcDbPolyline
 90
13
 70
0
 10
181.790340
 20
-181.597991
 30
0.0
 10
181.648100
 20
-181.669111
 30
0.0
 10
181.361080
 20
-181.669111
 30
0.0
 10
181.218840
 20
-181.597991
 30
0.0
 10
181.147720
 20
-181.453211
 30
0.0
 10
181.147720
 20
-180.881711
 30
0.0
 10
181.218840
 20
-180.739471
 30
0.0
 10
181.361080
 20
-180.668351
 30
0.0
 10
181.648100
 20
-180.668351
 30
0.0
 10
181.790340
 20
-180.739471
 30
0.0
 10
181.861460
 20
-180.881711
 30
0.0
 10
181.861460
 20
-181.026491
 30
0.0
 10
181.147720
 20
-181.168731
 30
0.0
  0
LWPOLYLINE
  5
1bc
100
AcDbEntity
  8
0
 62
7
100
AcDbPolyline
 90
13
 70
0
 10
183.075580
 20
-181.597991
 30
0.0
 10
182.933340
 20
-181.669111
 30
0.0
 10
182.646320
 20
-181.669111
 30
0.0
 10
182.504080
 20
-181.597991
 30
0.0
 10
182.432960
 20
-181.453211
 30
0.0
 10
182.432960
 20
-180.881711
 30
0.0
 10
182.504080
 20
-180.739471
 30
0.0
 10
182.646320
 20
-180.668351
 30
0.0
 10
182.933340
 20
-180.668351
 30
0.0
 10
183.075580
 20
-180.739471
 30
0.0
 10
183.146700
 20
-180.881711
 30
0.0
 10
183.146700
 20
-181.026491
 30
0.0
 10
182.432960
 20
-181.168731
 30
0.0
  0
LWPOLYLINE
  5
1bd
100
AcDbEntity
  8
0
 62
7
100
AcDbPolyline
 90
2
 70
0
 10
183.575960
 20
-180.668351
 30
0.0
 10
184.147460
 20
-180.668351
 30
0.0
  0
LWPOLYLINE
  5
1be
100
AcDbEntity
  8
0
 62
7
100
AcDbPolyline
 90
5
 70
0
 10
183.789320
 20
-180.167971
 30
0.0
 10
183.789320
 20
-181.453211
 30
0.0
 10
183.860440
 20
-181.597991
 30
0.0
 10
184.005220
 20
-181.669111
 30
0.0
 10
184.147460
 20
-181.669111
 30
0.0
  0
LWPOLYLINE
  5
1bf
100
AcDbEntity
  8
0
 62
7
100
AcDbPolyline
 90
6
 70
0
 10
184.647840
 20
-181.524331
 30
0.0
 10
184.718960
 20
-181.597991
 30
0.0
 10
184.647840
 20
-181.669111
 30
0.0
 10
184.576720
 20
-181.597991
 30
0.0
 10
184.647840
 20
-181.524331
 30
0.0
 10
184.647840
 20
-181.669111
 30
0.0
  0
LWPOLYLINE
  5
1c0
100
AcDbEntity
  8
0
 62
7
100
AcDbPolyline
 90
6
 70
0
 10
184.647840
 20
-180.739471
 30
0.0
 10
184.718960
 20
-180.810591
 30
0.0
 10
184.647840
 20
-180.881711
 30
0.0
 10
184.576720
 20
-180.810591
 30
0.0
 10
184.647840
 20
-180.739471
 30
0.0
 10
184.647840
 20
-180.881711
 30
0.0
  0
LWPOLYLINE
  5
1c1
100
AcDbEntity
  8
0
 62
7
100
AcDbPolyline
 90
2
 70
0
 10
196.999860
 20
-189.489771
 30
0.0
 10
196.999860
 20
-192.489511
 30
0.0
  0
SPLINE
  5
1c2
100
AcDbEntity
  8
0
 62
7
100
AcDbSpline
 70
8
 71
3
 72
8
 73
4
 74
0
 40
0
 40
0
 40
0
 40
0
 40
1
 40
1
 40
1
 40
1
 10
101.779321
 20
-54.307623
 30
0.0
 10
100.965347
 20
-54.307623
 30
0.0
 10
100.231522
 20
-54.797949
 30
0.0
 10
99.920028
 20
-55.549964
 30
0.0
  0
SPLINE
  5
1c3
100
AcDbEntity
  8
0
 62
7
100
AcDbSpline
 70
8
 71
3
 72
8
 73
4
 74
0
 40
0
 40
0
 40
0
 40
0
 40
1
 40
1
 40
1
 40
1
 10
99.920028
 20
-55.549964
 30
0.0
 10
99.608533
 20
-56.301978
 30
0.0
 10
99.780713
 20
-57.167584
 30
0.0
 10
100.356280
 20
-57.743150
 30
0.0
  0
SPLINE
  5
1c4
100
AcDbEntity
  8
0
 62
7
100
AcDbSpline
 70
8
 71
3
 72
8
 73
4
 74
0
 40
0
 40
0
 40
0
 40
0
 40
1
 40
1
 40
1
 40
1
 10
100.356280
 20
-57.743150
 30
0.0
 10
100.931846
 20
-58.318717
 30
0.0
 10
101.797452
 20
-58.490897
 30
0.0
 10
102.549466
 20
-58.179402
 30
0.0
  0
SPLINE
  5
1c5
100
AcDbEntity
  8
0
 62
7
100
AcDbSpline
 70
8
 71
3
 72
8
 73
4
 74
0
 40
0
 40
0
 40
0
 40
0
 40
1
 40
1
 40
1
 40
1
 10
102.549466
 20
-58.179402
 30
0.0
 10
103.301480
 20
-57.867908
 30
0.0
 10
103.791807
 20
-57.134083
 30
0.0
 10
103.791807
 20
-56.320108
 30
0.0
  0
SPLINE
  5
1c6
100
AcDbEntity
  8
0
 62
7
100
AcDbSpline
 70
8
 71
3
 72
8
 73
4
 74
0
 40
0
 40
0
 40
0
 40
0
 40
1
 40
1
 40
1
 40
1
 10
103.791807
 20
-56.320108
 30
0.0
 10
103.791807
 20
-55.786364
 30
0.0
 10
103.579778
 20
-55.274481
 30
0.0
 10
103.202363
 20
-54.897066
 30
0.0
  0
SPLINE
  5
1c7
100
AcDbEntity
  8
0
 62
7
100
AcDbSpline
 70
8
 71
3
 72
8
 73
4
 74
0
 40
0
 40
0
 40
0
 40
0
 40
1
 40
1
 40
1
 40
1
 10
103.202363
 20
-54.897066
 30
0.0
 10
102.824949
 20
-54.519652
 30
0.0
 10
102.313066
 20
-54.307623
 30
0.0
 10
101.779321
 20
-54.307623
 30
0.0
  0
LWPOLYLINE
  5
1c8
100
AcDbEntity
  8
0
 62
7
100
AcDbPolyline
 90
2
 70
0
 10
261.000240
 20
-189.489771
 30
0.0
 10
261.000240
 20
-195.989631
 30
0.0
  0
SPLINE
  5
1c9
100
AcDbEntity
  8
0
 62
7
100
AcDbSpline
 70
8
 71
3
 72
8
 73
4
 74
0
 40
0
 40
0
 40
0
 40
0
 40
1
 40
1
 40
1
 40
1
 10
196.139300
 20
-98.040203
 30
0.0
 10
195.148368
 20
-98.040203
 30
0.0
 10
194.255009
 20
-98.637126
 30
0.0
 10
193.875795
 20
-99.552628
 30
0.0
  0
SPLINE
  5
1ca
100
AcDbEntity
  8
0
 62
7
100
AcDbSpline
 70
8
 71
3
 72
8
 73
4
 74
0
 40
0
 40
0
 40
0
 40
0
 40
1
 40
1
 40
1
 40
1
 10
193.875795
 20
-99.552628
 30
0.0
 10
193.496582
 20
-100.468131
 30
0.0
 10
193.706193
 20
-101.521920
 30
0.0
 10
194.406889
 20
-102.222615
 30
0.0
  0
SPLINE
  5
1cb
100
AcDbEntity
  8
0
 62
7
100
AcDbSpline
 70
8
 71
3
 72
8
 73
4
 74
0
 40
0
 40
0
 40
0
 40
0
 40
1
 40
1
 40
1
 40
1
 10
194.406889
 20
-102.222615
 30
0.0
 10
195.107584
 20
-102.923310
 30
0.0
 10
196.161373
 20
-103.132921
 30
0.0
 10
197.076875
 20
-102.753708
 30
0.0
  0
SPLINE
  5
1cc
100
AcDbEntity
  8
0
 62
7
100
AcDbSpline
 70
8
 71
3
 72
8
 73
4
 74
0
 40
0
 40
0
 40
0
 40
0
 40
1
 40
1
 40
1
 40
1
 10
197.076875
 20
-102.753708
 30
0.0
 10
197.992377
 20
-102.374494
 30
0.0
 10
198.589301
 20
-101.481135
 30
0.0
 10
198.589301
 20
-100.490203
 30
0.0
  0
SPLINE
  5
1cd
100
AcDbEntity
  8
0
 62
7
100
AcDbSpline
 70
8
 71
3
 72
8
 73
4
 74
0
 40
0
 40
0
 40
0
 40
0
 40
1
 40
1
 40
1
 40
1
 10
198.589301
 20
-100.490203
 30
0.0
 10
198.589301
 20
-99.840422
 30
0.0
 10
198.331176
 20
-99.217255
 30
0.0
 10
197.871712
 20
-98.757791
 30
0.0
  0
SPLINE
  5
1ce
100
AcDbEntity
  8
0
 62
7
100
AcDbSpline
 70
8
 71
3
 72
8
 73
4
 74
0
 40
0
 40
0
 40
0
 40
0
 40
1
 40
1
 40
1
 40
1
 10
197.871712
 20
-98.757791
 30
0.0
 10
197.412248
 20
-98.298327
 30
0.0
 10
196.789081
 20
-98.040203
 30
0.0
 10
196.139300
 20
-98.040203
 30
0.0
  0
LWPOLYLINE
  5
1cf
100
AcDbEntity
  8
0
 62
7
100
AcDbPolyline
 90
1
 70
1
 10
101.779321
 20
-54.307623
 30
0.0
  0
SPLINE
  5
1d0
100
AcDbEntity
  8
0
 62
7
100
AcDbSpline
 70
8
 71
3
 72
8
 73
4
 74
0
 40
0
 40
0
 40
0
 40
0
 40
1
 40
1
 40
1
 40
1
 10
196.029326
 20
-58.639982
 30
0.0
 10
195.038393
 20
-58.639982
 30
0.0
 10
194.145034
 20
-59.236905
 30
0.0
 10
193.765821
 20
-60.152407
 30
0.0
  0
SPLINE
  5
1d1
100
AcDbEntity
  8
0
 62
7
100
AcDbSpline
 70
8
 71
3
 72
8
 73
4
 74
0
 40
0
 40
0
 40
0
 40
0
 40
1
 40
1
 40
1
 40
1
 10
193.765821
 20
-60.152407
 30
0.0
 10
193.386607
 20
-61.067910
 30
0.0
 10
193.596219
 20
-62.121699
 30
0.0
 10
194.296914
 20
-62.822394
 30
0.0
  0
SPLINE
  5
1d2
100
AcDbEntity
  8
0
 62
7
100
AcDbSpline
 70
8
 71
3
 72
8
 73
4
 74
0
 40
0
 40
0
 40
0
 40
0
 40
1
 40
1
 40
1
 40
1
 10
194.296914
 20
-62.822394
 30
0.0
 10
194.997609
 20
-63.523089
 30
0.0
 10
196.051398
 20
-63.732701
 30
0.0
 10
196.966900
 20
-63.353487
 30
0.0
  0
SPLINE
  5
1d3
100
AcDbEntity
  8
0
 62
7
100
AcDbSpline
 70
8
 71
3
 72
8
 73
4
 74
0
 40
0
 40
0
 40
0
 40
0
 40
1
 40
1
 40
1
 40
1
 10
196.966900
 20
-63.353487
 30
0.0
 10
197.882403
 20
-62.974274
 30
0.0
 10
198.479326
 20
-62.080915
 30
0.0
 10
198.479326
 20
-61.089982
 30
0.0
  0
SPLINE
  5
1d4
100
AcDbEntity
  8
0
 62
7
100
AcDbSpline
 70
8
 71
3
 72
8
 73
4
 74
0
 40
0
 40
0
 40
0
 40
0
 40
1
 40
1
 40
1
 40
1
 10
198.479326
 20
-61.089982
 30
0.0
 10
198.479326
 20
-60.440201
 30
0.0
 10
198.221202
 20
-59.817034
 30
0.0
 10
197.761738
 20
-59.357570
 30
0.0
  0
SPLINE
  5
1d5
100
AcDbEntity
  8
0
 62
7
100
AcDbSpline
 70
8
 71
3
 72
8
 73
4
 74
0
 40
0
 40
0
 40
0
 40
0
 40
1
 40
1
 40
1
 40
1
 10
197.761738
 20
-59.357570
 30
0.0
 10
197.302274
 20
-58.898106
 30
0.0
 10
196.679106
 20
-58.639982
 30
0.0
 10
196.029326
 20
-58.639982
 30
0.0
  0
LWPOLYLINE
  5
1d6
100
AcDbEntity
  8
0
 62
7
100
AcDbPolyline
 90
1
 70
1
 10
196.139300
 20
-98.040203
 30
0.0
  0
SPLINE
  5
1d7
100
AcDbEntity
  8
0
 62
7
100
AcDbSpline
 70
8
 71
3
 72
8
 73
4
 74
0
 40
0
 40
0
 40
0
 40
0
 40
1
 40
1
 40
1
 40
1
 10
139.479271
 20
-92.089999
 30
0.0
 10
138.126174
 20
-92.089999
 30
0.0
 10
137.029271
 20
-93.186901
 30
0.0
 10
137.029271
 20
-94.539999
 30
0.0
  0
SPLINE
  5
1d8
100
AcDbEntity
  8
0
 62
7
100
AcDbSpline
 70
8
 71
3
 72
8
 73
4
 74
0
 40
0
 40
0
 40
0
 40
0
 40
1
 40
1
 40
1
 40
1
 10
137.029271
 20
-94.539999
 30
0.0
 10
137.029271
 20
-95.893097
 30
0.0
 10
138.126174
 20
-96.989999
 30
0.0
 10
139.479271
 20
-96.989999
 30
0.0
  0
SPLINE
  5
1d9
100
AcDbEntity
  8
0
 62
7
100
AcDbSpline
 70
8
 71
3
 72
8
 73
4
 74
0
 40
0
 40
0
 40
0
 40
0
 40
1
 40
1
 40
1
 40
1
 10
139.479271
 20
-96.989999
 30
0.0
 10
140.832369
 20
-96.989999
 30
0.0
 10
141.929272
 20
-95.893097
 30
0.0
 10
141.929272
 20
-94.539999
 30
0.0
  0
SPLINE
  5
1da
100
AcDbEntity
  8
0
 62
7
100
AcDbSpline
 70
8
 71
3
 72
8
 73
4
 74
0
 40
0
 40
0
 40
0
 40
0
 40
1
 40
1
 40
1
 40
1
 10
141.929272
 20
-94.539999
 30
0.0
 10
141.929272
 20
-93.890218
 30
0.0
 10
141.671147
 20
-93.267051
 30
0.0
 10
141.211683
 20
-92.807587
 30
0.0
  0
SPLINE
  5
1db
100
AcDbEntity
  8
0
 62
7
100
AcDbSpline
 70
8
 71
3
 72
8
 73
4
 74
0
 40
0
 40
0
 40
0
 40
0
 40
1
 40
1
 40
1
 40
1
 10
141.211683
 20
-92.807587
 30
0.0
 10
140.752219
 20
-92.348123
 30
0.0
 10
140.129052
 20
-92.089999
 30
0.0
 10
139.479271
 20
-92.089999
 30
0.0
  0
LWPOLYLINE
  5
1dc
100
AcDbEntity
  8
0
 62
7
100
AcDbPolyline
 90
1
 70
1
 10
196.029326
 20
-58.639982
 30
0.0
  0
SPLINE
  5
1dd
100
AcDbEntity
  8
0
 62
7
100
AcDbSpline
 70
8
 71
3
 72
8
 73
4
 74
0
 40
0
 40
0
 40
0
 40
0
 40
1
 40
1
 40
1
 40
1
 10
138.959336
 20
-130.050070
 30
0.0
 10
137.968403
 20
-130.050070
 30
0.0
 10
137.075044
 20
-130.646994
 30
0.0
 10
136.695831
 20
-131.562496
 30
0.0
  0
SPLINE
  5
1de
100
AcDbEntity
  8
0
 62
7
100
AcDbSpline
 70
8
 71
3
 72
8
 73
4
 74
0
 40
0
 40
0
 40
0
 40
0
 40
1
 40
1
 40
1
 40
1
 10
136.695831
 20
-131.562496
 30
0.0
 10
136.316617
 20
-132.477998
 30
0.0
 10
136.526229
 20
-133.531787
 30
0.0
 10
137.226924
 20
-134.232482
 30
0.0
  0
SPLINE
  5
1df
100
AcDbEntity
  8
0
 62
7
100
AcDbSpline
 70
8
 71
3
 72
8
 73
4
 74
0
 40
0
 40
0
 40
0
 40
0
 40
1
 40
1
 40
1
 40
1
 10
137.226924
 20
-134.232482
 30
0.0
 10
137.927619
 20
-134.933177
 30
0.0
 10
138.981408
 20
-135.142789
 30
0.0
 10
139.896910
 20
-134.763576
 30
0.0
  0
SPLINE
  5
1e0
100
AcDbEntity
  8
0
 62
7
100
AcDbSpline
 70
8
 71
3
 72
8
 73
4
 74
0
 40
0
 40
0
 40
0
 40
0
 40
1
 40
1
 40
1
 40
1
 10
139.896910
 20
-134.763576
 30
0.0
 10
140.812413
 20
-134.384362
 30
0.0
 10
141.409336
 20
-133.491003
 30
0.0
 10
141.409336
 20
-132.500071
 30
0.0
  0
SPLINE
  5
1e1
100
AcDbEntity
  8
0
 62
7
100
AcDbSpline
 70
8
 71
3
 72
8
 73
4
 74
0
 40
0
 40
0
 40
0
 40
0
 40
1
 40
1
 40
1
 40
1
 10
141.409336
 20
-132.500071
 30
0.0
 10
141.409336
 20
-131.850290
 30
0.0
 10
141.151212
 20
-131.227123
 30
0.0
 10
140.691748
 20
-130.767659
 30
0.0
  0
SPLINE
  5
1e2
100
AcDbEntity
  8
0
 62
7
100
AcDbSpline
 70
8
 71
3
 72
8
 73
4
 74
0
 40
0
 40
0
 40
0
 40
0
 40
1
 40
1
 40
1
 40
1
 10
140.691748
 20
-130.767659
 30
0.0
 10
140.232284
 20
-130.308195
 30
0.0
 10
139.609116
 20
-130.050070
 30
0.0
 10
138.959336
 20
-130.050070
 30
0.0
  0
LWPOLYLINE
  5
1e3
100
AcDbEntity
  8
0
 62
7
100
AcDbPolyline
 90
1
 70
1
 10
139.479271
 20
-92.089999
 30
0.0
  0
SPLINE
  5
1e4
100
AcDbEntity
  8
0
 62
7
100
AcDbSpline
 70
8
 71
3
 72
8
 73
4
 74
0
 40
0
 40
0
 40
0
 40
0
 40
1
 40
1
 40
1
 40
1
 10
177.309267
 20
-139.870091
 30
0.0
 10
176.318334
 20
-139.870091
 30
0.0
 10
175.424975
 20
-140.467014
 30
0.0
 10
175.045762
 20
-141.382517
 30
0.0
  0
SPLINE
  5
1e5
100
AcDbEntity
  8
0
 62
7
100
AcDbSpline
 70
8
 71
3
 72
8
 73
4
 74
0
 40
0
 40
0
 40
0
 40
0
 40
1
 40
1
 40
1
 40
1
 10
175.045762
 20
-141.382517
 30
0.0
 10
174.666548
 20
-142.298019
 30
0.0
 10
174.876160
 20
-143.351808
 30
0.0
 10
175.576855
 20
-144.052503
 30
0.0
  0
SPLINE
  5
1e6
100
AcDbEntity
  8
0
 62
7
100
AcDbSpline
 70
8
 71
3
 72
8
 73
4
 74
0
 40
0
 40
0
 40
0
 40
0
 40
1
 40
1
 40
1
 40
1
 10
175.576855
 20
-144.052503
 30
0.0
 10
176.277550
 20
-144.753198
 30
0.0
 10
177.331339
 20
-144.962810
 30
0.0
 10
178.246841
 20
-144.583596
 30
0.0
  0
SPLINE
  5
1e7
100
AcDbEntity
  8
0
 62
7
100
AcDbSpline
 70
8
 71
3
 72
8
 73
4
 74
0
 40
0
 40
0
 40
0
 40
0
 40
1
 40
1
 40
1
 40
1
 10
178.246841
 20
-144.583596
 30
0.0
 10
179.162344
 20
-144.204383
 30
0.0
 10
179.759267
 20
-143.311024
 30
0.0
 10
179.759267
 20
-142.320091
 30
0.0
  0
SPLINE
  5
1e8
100
AcDbEntity
  8
0
 62
7
100
AcDbSpline
 70
8
 71
3
 72
8
 73
4
 74
0
 40
0
 40
0
 40
0
 40
0
 40
1
 40
1
 40
1
 40
1
 10
179.759267
 20
-142.320091
 30
0.0
 10
179.759267
 20
-141.670311
 30
0.0
 10
179.501143
 20
-141.047144
 30
0.0
 10
179.041679
 20
-140.587680
 30
0.0
  0
SPLINE
  5
1e9
100
AcDbEntity
  8
0
 62
7
100
AcDbSpline
 70
8
 71
3
 72
8
 73
4
 74
0
 40
0
 40
0
 40
0
 40
0
 40
1
 40
1
 40
1
 40
1
 10
179.041679
 20
-140.587680
 30
0.0
 10
178.582215
 20
-140.128215
 30
0.0
 10
177.959047
 20
-139.870091
 30
0.0
 10
177.309267
 20
-139.870091
 30
0.0
  0
LWPOLYLINE
  5
1ea
100
AcDbEntity
  8
0
 62
7
100
AcDbPolyline
 90
1
 70
1
 10
138.959336
 20
-130.050070
 30
0.0
  0
SPLINE
  5
1eb
100
AcDbEntity
  8
0
 62
7
100
AcDbSpline
 70
8
 71
3
 72
8
 73
4
 74
0
 40
0
 40
0
 40
0
 40
0
 40
1
 40
1
 40
1
 40
1
 10
194.459347
 20
-122.970075
 30
0.0
 10
193.468414
 20
-122.970075
 30
0.0
 10
192.575055
 20
-123.566998
 30
0.0
 10
192.195842
 20
-124.482500
 30
0.0
  0
SPLINE
  5
1ec
100
AcDbEntity
  8
0
 62
7
100
AcDbSpline
 70
8
 71
3
 72
8
 73
4
 74
0
 40
0
 40
0
 40
0
 40
0
 40
1
 40
1
 40
1
 40
1
 10
192.195842
 20
-124.482500
 30
0.0
 10
191.816628
 20
-125.398003
 30
0.0
 10
192.026240
 20
-126.451791
 30
0.0
 10
192.726935
 20
-127.152487
 30
0.0
  0
SPLINE
  5
1ed
100
AcDbEntity
  8
0
 62
7
100
AcDbSpline
 70
8
 71
3
 72
8
 73
4
 74
0
 40
0
 40
0
 40
0
 40
0
 40
1
 40
1
 40
1
 40
1
 10
192.726935
 20
-127.152487
 30
0.0
 10
193.427630
 20
-127.853182
 30
0.0
 10
194.481419
 20
-128.062793
 30
0.0
 10
195.396921
 20
-127.683580
 30
0.0
  0
SPLINE
  5
1ee
100
AcDbEntity
  8
0
 62
7
100
AcDbSpline
 70
8
 71
3
 72
8
 73
4
 74
0
 40
0
 40
0
 40
0
 40
0
 40
1
 40
1
 40
1
 40
1
 10
195.396921
 20
-127.683580
 30
0.0
 10
196.312424
 20
-127.304366
 30
0.0
 10
196.909347
 20
-126.411007
 30
0.0
 10
196.909347
 20
-125.420075
 30
0.0
  0
SPLINE
  5
1ef
100
AcDbEntity
  8
0
 62
7
100
AcDbSpline
 70
8
 71
3
 72
8
 73
4
 74
0
 40
0
 40
0
 40
0
 40
0
 40
1
 40
1
 40
1
 40
1
 10
196.909347
 20
-125.420075
 30
0.0
 10
196.909347
 20
-124.770294
 30
0.0
 10
196.651223
 20
-124.147127
 30
0.0
 10
196.191759
 20
-123.687663
 30
0.0
  0
SPLINE
  5
1f0
100
AcDbEntity
  8
0
 62
7
100
AcDbSpline
 70
8
 71
3
 72
8
 73
4
 74
0
 40
0
 40
0
 40
0
 40
0
 40
1
 40
1
 40
1
 40
1
 10
196.191759
 20
-123.687663
 30
0.0
 10
195.732295
 20
-123.228199
 30
0.0
 10
195.109127
 20
-122.970075
 30
0.0
 10
194.459347
 20
-122.970075
 30
0.0
  0
LWPOLYLINE
  5
1f1
100
AcDbEntity
  8
0
 62
7
100
AcDbPolyline
 90
1
 70
1
 10
177.309267
 20
-139.870091
 30
0.0
  0
SPLINE
  5
1f2
100
AcDbEntity
  8
0
 62
7
100
AcDbSpline
 70
8
 71
3
 72
8
 73
4
 74
0
 40
0
 40
0
 40
0
 40
0
 40
1
 40
1
 40
1
 40
1
 10
64.449198
 20
-92.370158
 30
0.0
 10
63.096100
 20
-92.370158
 30
0.0
 10
61.999198
 20
-93.467061
 30
0.0
 10
61.999198
 20
-94.820158
 30
0.0
  0
SPLINE
  5
1f3
100
AcDbEntity
  8
0
 62
7
100
AcDbSpline
 70
8
 71
3
 72
8
 73
4
 74
0
 40
0
 40
0
 40
0
 40
0
 40
1
 40
1
 40
1
 40
1
 10
61.999198
 20
-94.820158
 30
0.0
 10
61.999198
 20
-96.173256
 30
0.0
 10
63.096100
 20
-97.270159
 30
0.0
 10
64.449198
 20
-97.270159
 30
0.0
  0
SPLINE
  5
1f4
100
AcDbEntity
  8
0
 62
7
100
AcDbSpline
 70
8
 71
3
 72
8
 73
4
 74
0
 40
0
 40
0
 40
0
 40
0
 40
1
 40
1
 40
1
 40
1
 10
64.449198
 20
-97.270159
 30
0.0
 10
65.802296
 20
-97.270159
 30
0.0
 10
66.899198
 20
-96.173256
 30
0.0
 10
66.899198
 20
-94.820158
 30
0.0
  0
SPLINE
  5
1f5
100
AcDbEntity
  8
0
 62
7
100
AcDbSpline
 70
8
 71
3
 72
8
 73
4
 74
0
 40
0
 40
0
 40
0
 40
0
 40
1
 40
1
 40
1
 40
1
 10
66.899198
 20
-94.820158
 30
0.0
 10
66.899198
 20
-94.170378
 30
0.0
 10
66.641074
 20
-93.547211
 30
0.0
 10
66.181610
 20
-93.087747
 30
0.0
  0
SPLINE
  5
1f6
100
AcDbEntity
  8
0
 62
7
100
AcDbSpline
 70
8
 71
3
 72
8
 73
4
 74
0
 40
0
 40
0
 40
0
 40
0
 40
1
 40
1
 40
1
 40
1
 10
66.181610
 20
-93.087747
 30
0.0
 10
65.722146
 20
-92.628282
 30
0.0
 10
65.098978
 20
-92.370158
 30
0.0
 10
64.449198
 20
-92.370158
 30
0.0
  0
LWPOLYLINE
  5
1f7
100
AcDbEntity
  8
0
 62
7
100
AcDbPolyline
 90
1
 70
1
 10
194.459347
 20
-122.970075
 30
0.0
  0
SPLINE
  5
1f8
100
AcDbEntity
  8
0
 62
7
100
AcDbSpline
 70
8
 71
3
 72
8
 73
4
 74
0
 40
0
 40
0
 40
0
 40
0
 40
1
 40
1
 40
1
 40
1
 10
101.529131
 20
-92.210138
 30
0.0
 10
100.538199
 20
-92.210138
 30
0.0
 10
99.644840
 20
-92.807062
 30
0.0
 10
99.265626
 20
-93.722564
 30
0.0
  0
SPLINE
  5
1f9
100
AcDbEntity
  8
0
 62
7
100
AcDbSpline
 70
8
 71
3
 72
8
 73
4
 74
0
 40
0
 40
0
 40
0
 40
0
 40
1
 40
1
 40
1
 40
1
 10
99.265626
 20
-93.722564
 30
0.0
 10
98.886413
 20
-94.638066
 30
0.0
 10
99.096025
 20
-95.691855
 30
0.0
 10
99.796720
 20
-96.392550
 30
0.0
  0
SPLINE
  5
1fa
100
AcDbEntity
  8
0
 62
7
100
AcDbSpline
 70
8
 71
3
 72
8
 73
4
 74
0
 40
0
 40
0
 40
0
 40
0
 40
1
 40
1
 40
1
 40
1
 10
99.796720
 20
-96.392550
 30
0.0
 10
100.497415
 20
-97.093245
 30
0.0
 10
101.551204
 20
-97.302857
 30
0.0
 10
102.466706
 20
-96.923643
 30
0.0
  0
SPLINE
  5
1fb
100
AcDbEntity
  8
0
 62
7
100
AcDbSpline
 70
8
 71
3
 72
8
 73
4
 74
0
 40
0
 40
0
 40
0
 40
0
 40
1
 40
1
 40
1
 40
1
 10
102.466706
 20
-96.923643
 30
0.0
 10
103.382208
 20
-96.544430
 30
0.0
 10
103.979132
 20
-95.651071
 30
0.0
 10
103.979132
 20
-94.660138
 30
0.0
  0
SPLINE
  5
1fc
100
AcDbEntity
  8
0
 62
7
100
AcDbSpline
 70
8
 71
3
 72
8
 73
4
 74
0
 40
0
 40
0
 40
0
 40
0
 40
1
 40
1
 40
1
 40
1
 10
103.979132
 20
-94.660138
 30
0.0
 10
103.979132
 20
-93.307041
 30
0.0
 10
102.882229
 20
-92.210138
 30
0.0
 10
101.529131
 20
-92.210138
 30
0.0
  0
LWPOLYLINE
  5
1fd
100
AcDbEntity
  8
0
 62
7
100
AcDbPolyline
 90
1
 70
1
 10
64.449198
 20
-92.370158
 30
0.0
  0
SPLINE
  5
1fe
100
AcDbEntity
  8
0
 62
7
100
AcDbSpline
 70
8
 71
3
 72
8
 73
4
 74
0
 40
0
 40
0
 40
0
 40
0
 40
1
 40
1
 40
1
 40
1
 10
158.579307
 20
-54.070004
 30
0.0
 10
157.588374
 20
-54.070004
 30
0.0
 10
156.695015
 20
-54.666927
 30
0.0
 10
156.315802
 20
-55.582429
 30
0.0
  0
SPLINE
  5
1ff
100
AcDbEntity
  8
0
 62
7
100
AcDbSpline
 70
8
 71
3
 72
8
 73
4
 74
0
 40
0
 40
0
 40
0
 40
0
 40
1
 40
1
 40
1
 40
1
 10
156.315802
 20
-55.582429
 30
0.0
 10
155.936588
 20
-56.497932
 30
0.0
 10
156.146200
 20
-57.551720
 30
0.0
 10
156.846895
 20
-58.252416
 30
0.0
  0
SPLINE
  5
200
100
AcDbEntity
  8
0
 62
7
100
AcDbSpline
 70
8
 71
3
 72
8
 73
4
 74
0
 40
0
 40
0
 40
0
 40
0
 40
1
 40
1
 40
1
 40
1
 10
156.846895
 20
-58.252416
 30
0.0
 10
157.547590
 20
-58.953111
 30
0.0
 10
158.601379
 20
-59.162722
 30
0.0
 10
159.516881
 20
-58.783509
 30
0.0
  0
SPLINE
  5
201
100
AcDbEntity
  8
0
 62
7
100
AcDbSpline
 70
8
 71
3
 72
8
 73
4
 74
0
 40
0
 40
0
 40
0
 40
0
 40
1
 40
1
 40
1
 40
1
 10
159.516881
 20
-58.783509
 30
0.0
 10
160.432384
 20
-58.404295
 30
0.0
 10
161.029307
 20
-57.510936
 30
0.0
 10
161.029307
 20
-56.520004
 30
0.0
  0
SPLINE
  5
202
100
AcDbEntity
  8
0
 62
7
100
AcDbSpline
 70
8
 71
3
 72
8
 73
4
 74
0
 40
0
 40
0
 40
0
 40
0
 40
1
 40
1
 40
1
 40
1
 10
161.029307
 20
-56.520004
 30
0.0
 10
161.029307
 20
-55.166906
 30
0.0
 10
159.932405
 20
-54.070004
 30
0.0
 10
158.579307
 20
-54.070004
 30
0.0
  0
LWPOLYLINE
  5
203
100
AcDbEntity
  8
0
 62
7
100
AcDbPolyline
 90
1
 70
1
 10
101.529131
 20
-92.210138
 30
0.0
  0
SPLINE
  5
204
100
AcDbEntity
  8
0
 62
7
100
AcDbSpline
 70
8
 71
3
 72
8
 73
4
 74
0
 40
0
 40
0
 40
0
 40
0
 40
1
 40
1
 40
1
 40
1
 10
101.839271
 20
-54.090077
 30
0.0
 10
100.848338
 20
-54.090077
 30
0.0
 10
99.954979
 20
-54.687001
 30
0.0
 10
99.575765
 20
-55.602503
 30
0.0
  0
SPLINE
  5
205
100
AcDbEntity
  8
0
 62
7
100
AcDbSpline
 70
8
 71
3
 72
8
 73
4
 74
0
 40
0
 40
0
 40
0
 40
0
 40
1
 40
1
 40
1
 40
1
 10
99.575765
 20
-55.602503
 30
0.0
 10
99.196552
 20
-56.518005
 30
0.0
 10
99.406164
 20
-57.571794
 30
0.0
 10
100.106859
 20
-58.272489
 30
0.0
  0
SPLINE
  5
206
100
AcDbEntity
  8
0
 62
7
100
AcDbSpline
 70
8
 71
3
 72
8
 73
4
 74
0
 40
0
 40
0
 40
0
 40
0
 40
1
 40
1
 40
1
 40
1
 10
100.106859
 20
-58.272489
 30
0.0
 10
100.807554
 20
-58.973184
 30
0.0
 10
101.861343
 20
-59.182796
 30
0.0
 10
102.776845
 20
-58.803582
 30
0.0
  0
SPLINE
  5
207
100
AcDbEntity
  8
0
 62
7
100
AcDbSpline
 70
8
 71
3
 72
8
 73
4
 74
0
 40
0
 40
0
 40
0
 40
0
 40
1
 40
1
 40
1
 40
1
 10
102.776845
 20
-58.803582
 30
0.0
 10
103.692347
 20
-58.424369
 30
0.0
 10
104.289271
 20
-57.531010
 30
0.0
 10
104.289271
 20
-56.540077
 30
0.0
  0
SPLINE
  5
208
100
AcDbEntity
  8
0
 62
7
100
AcDbSpline
 70
8
 71
3
 72
8
 73
4
 74
0
 40
0
 40
0
 40
0
 40
0
 40
1
 40
1
 40
1
 40
1
 10
104.289271
 20
-56.540077
 30
0.0
 10
104.289271
 20
-55.890297
 30
0.0
 10
104.031146
 20
-55.267130
 30
0.0
 10
103.571682
 20
-54.807666
 30
0.0
  0
SPLINE
  5
209
100
AcDbEntity
  8
0
 62
7
100
AcDbSpline
 70
8
 71
3
 72
8
 73
4
 74
0
 40
0
 40
0
 40
0
 40
0
 40
1
 40
1
 40
1
 40
1
 10
103.571682
 20
-54.807666
 30
0.0
 10
103.112218
 20
-54.348201
 30
0.0
 10
102.489051
 20
-54.090077
 30
0.0
 10
101.839271
 20
-54.090077
 30
0.0
  0
LWPOLYLINE
  5
20a
100
AcDbEntity
  8
0
 62
7
100
AcDbPolyline
 90
1
 70
1
 10
158.579307
 20
-54.070004
 30
0.0
  0
LWPOLYLINE
  5
20b
100
AcDbEntity
  8
0
 62
7
100
AcDbPolyline
 90
1
 70
1
 10
101.839271
 20
-54.090077
 30
0.0
  0
LWPOLYLINE
  5
20c
100
AcDbEntity
  8
0
 62
7
100
AcDbPolyline
 90
4
 70
1
 10
178.517296
 20
-122.372303
 30
0.0
 10
184.018936
 20
-122.372303
 30
0.0
 10
184.018936
 20
-115.471123
 30
0.0
 10
178.517296
 20
-115.471123
 30
0.0
  0
LWPOLYLINE
  5
20d
100
AcDbEntity
  8
0
 62
7
100
AcDbPolyline
 90
2
 70
0
 10
135.202676
 20
-118.097483
 30
0.0
 10
130.323336
 20
-113.218143
 30
0.0
  0
LWPOLYLINE
  5
20e
100
AcDbEntity
  8
0
 62
7
100
AcDbPolyline
 90
2
 70
0
 10
131.313936
 20
-121.986223
 30
0.0
 10
135.202676
 20
-118.097483
 30
0.0
  0
LWPOLYLINE
  5
20f
100
AcDbEntity
  8
0
 62
7
100
AcDbPolyline
 90
2
 70
0
 10
126.434596
 20
-117.106883
 30
0.0
 10
131.313936
 20
-121.986223
 30
0.0
  0
LWPOLYLINE
  5
210
100
AcDbEntity
  8
0
 62
7
100
AcDbPolyline
 90
2
 70
0
 10
130.323336
 20
-113.218143
 30
0.0
 10
126.434596
 20
-117.106883
 30
0.0
  0
LWPOLYLINE
  5
211
100
AcDbEntity
  8
0
 62
7
100
AcDbPolyline
 90
4
 70
1
 10
80.209136
 20
-110.132043
 30
0.0
 10
85.708236
 20
-110.132043
 30
0.0
 10
85.708236
 20
-103.230863
 30
0.0
 10
80.209136
 20
-103.230863
 30
0.0
  0
LWPOLYLINE
  5
212
100
AcDbEntity
  8
0
 62
7
100
AcDbPolyline
 90
2
 70
0
 10
65.439036
 20
-89.781563
 30
0.0
 10
65.439036
 20
-82.880383
 30
0.0
  0
LWPOLYLINE
  5
213
100
AcDbEntity
  8
0
 62
7
100
AcDbPolyline
 90
2
 70
0
 10
59.937396
 20
-89.781563
 30
0.0
 10
65.439036
 20
-89.781563
 30
0.0
  0
LWPOLYLINE
  5
214
100
AcDbEntity
  8
0
 62
7
100
AcDbPolyline
 90
2
 70
0
 10
59.937396
 20
-82.880383
 30
0.0
 10
59.937396
 20
-89.781563
 30
0.0
  0
LWPOLYLINE
  5
215
100
AcDbEntity
  8
0
 62
7
100
AcDbPolyline
 90
2
 70
0
 10
65.439036
 20
-82.880383
 30
0.0
 10
59.937396
 20
-82.880383
 30
0.0
  0
LWPOLYLINE
  5
216
100
AcDbEntity
  8
0
 62
7
100
AcDbPolyline
 90
4
 70
1
 10
85.268816
 20
-56.421203
 30
0.0
 10
79.767176
 20
-56.421203
 30
0.0
 10
79.767176
 20
-63.322383
 30
0.0
 10
85.268816
 20
-63.322383
 30
0.0
  0
LWPOLYLINE
  5
217
100
AcDbEntity
  8
0
 62
7
100
AcDbPolyline
 90
2
 70
0
 10
104.577896
 20
-51.252303
 30
0.0
 10
104.577896
 20
-44.351123
 30
0.0
  0
LWPOLYLINE
  5
218
100
AcDbEntity
  8
0
 62
7
100
AcDbPolyline
 90
2
 70
0
 10
99.078796
 20
-51.252303
 30
0.0
 10
104.577896
 20
-51.252303
 30
0.0
  0
LWPOLYLINE
  5
219
100
AcDbEntity
  8
0
 62
7
100
AcDbPolyline
 90
2
 70
0
 10
99.078796
 20
-44.351123
 30
0.0
 10
99.078796
 20
-51.252303
 30
0.0
  0
LWPOLYLINE
  5
21a
100
AcDbEntity
  8
0
 62
7
100
AcDbPolyline
 90
2
 70
0
 10
104.577896
 20
-44.351123
 30
0.0
 10
99.078796
 20
-44.351123
 30
0.0
  0
LWPOLYLINE
  5
21b
100
AcDbEntity
  8
0
 62
7
100
AcDbPolyline
 90
4
 70
1
 10
137.707116
 20
-53.312243
 30
0.0
 10
143.208756
 20
-53.312243
 30
0.0
 10
143.208756
 20
-46.411063
 30
0.0
 10
137.707116
 20
-46.411063
 30
0.0
  0
LWPOLYLINE
  5
21c
100
AcDbEntity
  8
0
 62
7
100
AcDbPolyline
 90
2
 70
0
 10
180.658516
 20
-53.990423
 30
0.0
 10
180.658516
 20
-47.091783
 30
0.0
  0
LWPOLYLINE
  5
21d
100
AcDbEntity
  8
0
 62
7
100
AcDbPolyline
 90
2
 70
0
 10
175.156876
 20
-53.990423
 30
0.0
 10
180.658516
 20
-53.990423
 30
0.0
  0
LWPOLYLINE
  5
21e
100
AcDbEntity
  8
0
 62
7
100
AcDbPolyline
 90
2
 70
0
 10
175.156876
 20
-47.091783
 30
0.0
 10
175.156876
 20
-53.990423
 30
0.0
  0
LWPOLYLINE
  5
21f
100
AcDbEntity
  8
0
 62
7
100
AcDbPolyline
 90
2
 70
0
 10
180.658516
 20
-47.091783
 30
0.0
 10
175.156876
 20
-47.091783
 30
0.0
  0
LWPOLYLINE
  5
220
100
AcDbEntity
  8
0
 62
7
100
AcDbPolyline
 90
4
 70
1
 10
206.538576
 20
-82.621303
 30
0.0
 10
206.538576
 20
-91.120143
 30
0.0
 10
200.539096
 20
-91.120143
 30
0.0
 10
200.539096
 20
-82.621303
 30
0.0
  0
LWPOLYLINE
  5
221
100
AcDbEntity
  8
0
 62
7
100
AcDbPolyline
 90
2
 70
0
 10
161.547556
 20
-139.420783
 30
0.0
 10
175.347376
 20
-139.420783
 30
0.0
  0
LWPOLYLINE
  5
222
100
AcDbEntity
  8
0
 62
7
100
AcDbPolyline
 90
2
 70
0
 10
175.347376
 20
-125.620963
 30
0.0
 10
161.547556
 20
-125.620963
 30
0.0
  0
LWPOLYLINE
  5
223
100
AcDbEntity
  8
0
 62
7
100
AcDbPolyline
 90
2
 70
0
 10
175.347376
 20
-125.620963
 30
0.0
 10
175.347376
 20
-139.420783
 30
0.0
  0
LWPOLYLINE
  5
224
100
AcDbEntity
  8
0
 62
7
100
AcDbPolyline
 90
2
 70
0
 10
161.547556
 20
-139.420783
 30
0.0
 10
161.547556
 20
-125.620963
 30
0.0
  0
LWPOLYLINE
  5
225
100
AcDbEntity
  8
0
 62
7
100
AcDbPolyline
 90
2
 70
0
 10
161.547556
 20
-53.695783
 30
0.0
 10
161.547556
 20
-39.895963
 30
0.0
  0
LWPOLYLINE
  5
226
100
AcDbEntity
  8
0
 62
7
100
AcDbPolyline
 90
2
 70
0
 10
175.347376
 20
-39.895963
 30
0.0
 10
175.347376
 20
-53.695783
 30
0.0
  0
LWPOLYLINE
  5
227
100
AcDbEntity
  8
0
 62
7
100
AcDbPolyline
 90
2
 70
0
 10
175.347376
 20
-39.895963
 30
0.0
 10
161.547556
 20
-39.895963
 30
0.0
  0
LWPOLYLINE
  5
228
100
AcDbEntity
  8
0
 62
7
100
AcDbPolyline
 90
2
 70
0
 10
161.547556
 20
-53.695783
 30
0.0
 10
175.347376
 20
-53.695783
 30
0.0
  0
LWPOLYLINE
  5
229
100
AcDbEntity
  8
0
 62
7
100
AcDbPolyline
 90
2
 70
0
 10
66.297556
 20
-72.745783
 30
0.0
 10
66.297556
 20
-58.945963
 30
0.0
  0
LWPOLYLINE
  5
22a
100
AcDbEntity
  8
0
 62
7
100
AcDbPolyline
 90
2
 70
0
 10
80.097376
 20
-58.945963
 30
0.0
 10
80.097376
 20
-72.745783
 30
0.0
  0
LWPOLYLINE
  5
22b
100
AcDbEntity
  8
0
 62
7
100
AcDbPolyline
 90
2
 70
0
 10
80.097376
 20
-58.945963
 30
0.0
 10
66.297556
 20
-58.945963
 30
0.0
  0
LWPOLYLINE
  5
22c
100
AcDbEntity
  8
0
 62
7
100
AcDbPolyline
 90
2
 70
0
 10
66.297556
 20
-72.745783
 30
0.0
 10
80.097376
 20
-72.745783
 30
0.0
  0
LWPOLYLINE
  5
22d
100
AcDbEntity
  8
0
 62
7
100
AcDbPolyline
 90
2
 70
0
 10
66.297556
 20
-110.845783
 30
0.0
 10
80.097376
 20
-110.845783
 30
0.0
  0
LWPOLYLINE
  5
22e
100
AcDbEntity
  8
0
 62
7
100
AcDbPolyline
 90
2
 70
0
 10
80.097376
 20
-97.045963
 30
0.0
 10
66.297556
 20
-97.045963
 30
0.0
  0
LWPOLYLINE
  5
22f
100
AcDbEntity
  8
0
 62
7
100
AcDbPolyline
 90
2
 70
0
 10
80.097376
 20
-97.045963
 30
0.0
 10
80.097376
 20
-110.845783
 30
0.0
  0
LWPOLYLINE
  5
230
100
AcDbEntity
  8
0
 62
7
100
AcDbPolyline
 90
2
 70
0
 10
66.297556
 20
-110.845783
 30
0.0
 10
66.297556
 20
-97.045963
 30
0.0
  0
LWPOLYLINE
  5
231
100
AcDbEntity
  8
0
 62
7
100
AcDbPolyline
 90
2
 70
0
 10
104.397556
 20
-91.795783
 30
0.0
 10
104.397556
 20
-77.995963
 30
0.0
  0
LWPOLYLINE
  5
232
100
AcDbEntity
  8
0
 62
7
100
AcDbPolyline
 90
2
 70
0
 10
118.197376
 20
-77.995963
 30
0.0
 10
118.197376
 20
-91.795783
 30
0.0
  0
LWPOLYLINE
  5
233
100
AcDbEntity
  8
0
 62
7
100
AcDbPolyline
 90
2
 70
0
 10
118.197376
 20
-77.995963
 30
0.0
 10
104.397556
 20
-77.995963
 30
0.0
  0
LWPOLYLINE
  5
234
100
AcDbEntity
  8
0
 62
7
100
AcDbPolyline
 90
2
 70
0
 10
104.397556
 20
-91.795783
 30
0.0
 10
118.197376
 20
-91.795783
 30
0.0
  0
LWPOLYLINE
  5
235
100
AcDbEntity
  8
0
 62
7
100
AcDbPolyline
 90
2
 70
0
 10
66.297556
 20
-91.795783
 30
0.0
 10
66.297556
 20
-77.995963
 30
0.0
  0
LWPOLYLINE
  5
236
100
AcDbEntity
  8
0
 62
7
100
AcDbPolyline
 90
2
 70
0
 10
80.097376
 20
-77.995963
 30
0.0
 10
80.097376
 20
-91.795783
 30
0.0
  0
LWPOLYLINE
  5
237
100
AcDbEntity
  8
0
 62
7
100
AcDbPolyline
 90
2
 70
0
 10
80.097376
 20
-77.995963
 30
0.0
 10
66.297556
 20
-77.995963
 30
0.0
  0
LWPOLYLINE
  5
238
100
AcDbEntity
  8
0
 62
7
100
AcDbPolyline
 90
2
 70
0
 10
66.297556
 20
-91.795783
 30
0.0
 10
80.097376
 20
-91.795783
 30
0.0
  0
LWPOLYLINE
  5
239
100
AcDbEntity
  8
0
 62
7
100
AcDbPolyline
 90
2
 70
0
 10
47.247556
 20
-101.320783
 30
0.0
 10
61.047376
 20
-101.320783
 30
0.0
  0
LWPOLYLINE
  5
23a
100
AcDbEntity
  8
0
 62
7
100
AcDbPolyline
 90
2
 70
0
 10
61.047376
 20
-87.520963
 30
0.0
 10
47.247556
 20
-87.520963
 30
0.0
  0
LWPOLYLINE
  5
23b
100
AcDbEntity
  8
0
 62
7
100
AcDbPolyline
 90
2
 70
0
 10
61.047376
 20
-87.520963
 30
0.0
 10
61.047376
 20
-101.320783
 30
0.0
  0
LWPOLYLINE
  5
23c
100
AcDbEntity
  8
0
 62
7
100
AcDbPolyline
 90
2
 70
0
 10
47.247556
 20
-101.320783
 30
0.0
 10
47.247556
 20
-87.520963
 30
0.0
  0
LWPOLYLINE
  5
23d
100
AcDbEntity
  8
0
 62
7
100
AcDbPolyline
 90
2
 70
0
 10
85.347556
 20
-53.695783
 30
0.0
 10
85.347556
 20
-39.895963
 30
0.0
  0
LWPOLYLINE
  5
23e
100
AcDbEntity
  8
0
 62
7
100
AcDbPolyline
 90
2
 70
0
 10
99.147376
 20
-39.895963
 30
0.0
 10
99.147376
 20
-53.695783
 30
0.0
  0
LWPOLYLINE
  5
23f
100
AcDbEntity
  8
0
 62
7
100
AcDbPolyline
 90
2
 70
0
 10
99.147376
 20
-39.895963
 30
0.0
 10
85.347556
 20
-39.895963
 30
0.0
  0
LWPOLYLINE
  5
240
100
AcDbEntity
  8
0
 62
7
100
AcDbPolyline
 90
2
 70
0
 10
85.347556
 20
-53.695783
 30
0.0
 10
99.147376
 20
-53.695783
 30
0.0
  0
LWPOLYLINE
  5
241
100
AcDbEntity
  8
0
 62
7
100
AcDbPolyline
 90
2
 70
0
 10
85.347556
 20
-72.745783
 30
0.0
 10
85.347556
 20
-58.945963
 30
0.0
  0
LWPOLYLINE
  5
242
100
AcDbEntity
  8
0
 62
7
100
AcDbPolyline
 90
2
 70
0
 10
99.147376
 20
-58.945963
 30
0.0
 10
99.147376
 20
-72.745783
 30
0.0
  0
LWPOLYLINE
  5
243
100
AcDbEntity
  8
0
 62
7
100
AcDbPolyline
 90
2
 70
0
 10
99.147376
 20
-58.945963
 30
0.0
 10
85.347556
 20
-58.945963
 30
0.0
  0
LWPOLYLINE
  5
244
100
AcDbEntity
  8
0
 62
7
100
AcDbPolyline
 90
2
 70
0
 10
85.347556
 20
-72.745783
 30
0.0
 10
99.147376
 20
-72.745783
 30
0.0
  0
LWPOLYLINE
  5
245
100
AcDbEntity
  8
0
 62
7
100
AcDbPolyline
 90
2
 70
0
 10
85.347556
 20
-91.795783
 30
0.0
 10
85.347556
 20
-77.995963
 30
0.0
  0
LWPOLYLINE
  5
246
100
AcDbEntity
  8
0
 62
7
100
AcDbPolyline
 90
2
 70
0
 10
99.147376
 20
-77.995963
 30
0.0
 10
99.147376
 20
-91.795783
 30
0.0
  0
LWPOLYLINE
  5
247
100
AcDbEntity
  8
0
 62
7
100
AcDbPolyline
 90
2
 70
0
 10
99.147376
 20
-77.995963
 30
0.0
 10
85.347556
 20
-77.995963
 30
0.0
  0
LWPOLYLINE
  5
248
100
AcDbEntity
  8
0
 62
7
100
AcDbPolyline
 90
2
 70
0
 10
85.347556
 20
-91.795783
 30
0.0
 10
99.147376
 20
-91.795783
 30
0.0
  0
LWPOLYLINE
  5
249
100
AcDbEntity
  8
0
 62
7
100
AcDbPolyline
 90
2
 70
0
 10
85.347556
 20
-110.845783
 30
0.0
 10
99.147376
 20
-110.845783
 30
0.0
  0
LWPOLYLINE
  5
24a
100
AcDbEntity
  8
0
 62
7
100
AcDbPolyline
 90
2
 70
0
 10
99.147376
 20
-97.045963
 30
0.0
 10
85.347556
 20
-97.045963
 30
0.0
  0
LWPOLYLINE
  5
24b
100
AcDbEntity
  8
0
 62
7
100
AcDbPolyline
 90
2
 70
0
 10
99.147376
 20
-97.045963
 30
0.0
 10
99.147376
 20
-110.845783
 30
0.0
  0
LWPOLYLINE
  5
24c
100
AcDbEntity
  8
0
 62
7
100
AcDbPolyline
 90
2
 70
0
 10
85.347556
 20
-110.845783
 30
0.0
 10
85.347556
 20
-97.045963
 30
0.0
  0
LWPOLYLINE
  5
24d
100
AcDbEntity
  8
0
 62
7
100
AcDbPolyline
 90
2
 70
0
 10
104.397556
 20
-53.695783
 30
0.0
 10
118.197376
 20
-53.695783
 30
0.0
  0
LWPOLYLINE
  5
24e
100
AcDbEntity
  8
0
 62
7
100
AcDbPolyline
 90
2
 70
0
 10
118.197376
 20
-39.895963
 30
0.0
 10
104.397556
 20
-39.895963
 30
0.0
  0
LWPOLYLINE
  5
24f
100
AcDbEntity
  8
0
 62
7
100
AcDbPolyline
 90
2
 70
0
 10
118.197376
 20
-39.895963
 30
0.0
 10
118.197376
 20
-53.695783
 30
0.0
  0
LWPOLYLINE
  5
250
100
AcDbEntity
  8
0
 62
7
100
AcDbPolyline
 90
2
 70
0
 10
104.397556
 20
-53.695783
 30
0.0
 10
104.397556
 20
-39.895963
 30
0.0
  0
LWPOLYLINE
  5
251
100
AcDbEntity
  8
0
 62
7
100
AcDbPolyline
 90
2
 70
0
 10
104.397556
 20
-72.745783
 30
0.0
 10
118.197376
 20
-72.745783
 30
0.0
  0
LWPOLYLINE
  5
252
100
AcDbEntity
  8
0
 62
7
100
AcDbPolyline
 90
2
 70
0
 10
118.197376
 20
-58.945963
 30
0.0
 10
104.397556
 20
-58.945963
 30
0.0
  0
LWPOLYLINE
  5
253
100
AcDbEntity
  8
0
 62
7
100
AcDbPolyline
 90
2
 70
0
 10
118.197376
 20
-58.945963
 30
0.0
 10
118.197376
 20
-72.745783
 30
0.0
  0
LWPOLYLINE
  5
254
100
AcDbEntity
  8
0
 62
7
100
AcDbPolyline
 90
2
 70
0
 10
104.397556
 20
-72.745783
 30
0.0
 10
104.397556
 20
-58.945963
 30
0.0
  0
LWPOLYLINE
  5
255
100
AcDbEntity
  8
0
 62
7
100
AcDbPolyline
 90
2
 70
0
 10
104.397556
 20
-110.845783
 30
0.0
 10
104.397556
 20
-97.045963
 30
0.0
  0
LWPOLYLINE
  5
256
100
AcDbEntity
  8
0
 62
7
100
AcDbPolyline
 90
2
 70
0
 10
118.197376
 20
-97.045963
 30
0.0
 10
118.197376
 20
-110.845783
 30
0.0
  0
LWPOLYLINE
  5
257
100
AcDbEntity
  8
0
 62
7
100
AcDbPolyline
 90
2
 70
0
 10
118.197376
 20
-97.045963
 30
0.0
 10
104.397556
 20
-97.045963
 30
0.0
  0
LWPOLYLINE
  5
258
100
AcDbEntity
  8
0
 62
7
100
AcDbPolyline
 90
2
 70
0
 10
104.397556
 20
-110.845783
 30
0.0
 10
118.197376
 20
-110.845783
 30
0.0
  0
LWPOLYLINE
  5
259
100
AcDbEntity
  8
0
 62
7
100
AcDbPolyline
 90
2
 70
0
 10
123.447556
 20
-53.695783
 30
0.0
 10
137.247376
 20
-53.695783
 30
0.0
  0
LWPOLYLINE
  5
25a
100
AcDbEntity
  8
0
 62
7
100
AcDbPolyline
 90
2
 70
0
 10
137.247376
 20
-39.895963
 30
0.0
 10
123.447556
 20
-39.895963
 30
0.0
  0
LWPOLYLINE
  5
25b
100
AcDbEntity
  8
0
 62
7
100
AcDbPolyline
 90
2
 70
0
 10
137.247376
 20
-39.895963
 30
0.0
 10
137.247376
 20
-53.695783
 30
0.0
  0
LWPOLYLINE
  5
25c
100
AcDbEntity
  8
0
 62
7
100
AcDbPolyline
 90
2
 70
0
 10
123.447556
 20
-53.695783
 30
0.0
 10
123.447556
 20
-39.895963
 30
0.0
  0
LWPOLYLINE
  5
25d
100
AcDbEntity
  8
0
 62
7
100
AcDbPolyline
 90
2
 70
0
 10
123.447556
 20
-72.745783
 30
0.0
 10
137.247376
 20
-72.745783
 30
0.0
  0
LWPOLYLINE
  5
25e
100
AcDbEntity
  8
0
 62
7
100
AcDbPolyline
 90
2
 70
0
 10
137.247376
 20
-58.945963
 30
0.0
 10
123.447556
 20
-58.945963
 30
0.0
  0
LWPOLYLINE
  5
25f
100
AcDbEntity
  8
0
 62
7
100
AcDbPolyline
 90
2
 70
0
 10
137.247376
 20
-58.945963
 30
0.0
 10
137.247376
 20
-72.745783
 30
0.0
  0
LWPOLYLINE
  5
260
100
AcDbEntity
  8
0
 62
7
100
AcDbPolyline
 90
2
 70
0
 10
123.447556
 20
-72.745783
 30
0.0
 10
123.447556
 20
-58.945963
 30
0.0
  0
LWPOLYLINE
  5
261
100
AcDbEntity
  8
0
 62
7
100
AcDbPolyline
 90
2
 70
0
 10
123.447556
 20
-91.795783
 30
0.0
 10
137.247376
 20
-91.795783
 30
0.0
  0
LWPOLYLINE
  5
262
100
AcDbEntity
  8
0
 62
7
100
AcDbPolyline
 90
2
 70
0
 10
137.247376
 20
-77.995963
 30
0.0
 10
123.447556
 20
-77.995963
 30
0.0
  0
LWPOLYLINE
  5
263
100
AcDbEntity
  8
0
 62
7
100
AcDbPolyline
 90
2
 70
0
 10
137.247376
 20
-77.995963
 30
0.0
 10
137.247376
 20
-91.795783
 30
0.0
  0
LWPOLYLINE
  5
264
100
AcDbEntity
  8
0
 62
7
100
AcDbPolyline
 90
2
 70
0
 10
123.447556
 20
-91.795783
 30
0.0
 10
123.447556
 20
-77.995963
 30
0.0
  0
LWPOLYLINE
  5
265
100
AcDbEntity
  8
0
 62
7
100
AcDbPolyline
 90
2
 70
0
 10
123.447556
 20
-110.845783
 30
0.0
 10
123.447556
 20
-97.045963
 30
0.0
  0
LWPOLYLINE
  5
266
100
AcDbEntity
  8
0
 62
7
100
AcDbPolyline
 90
2
 70
0
 10
137.247376
 20
-97.045963
 30
0.0
 10
137.247376
 20
-110.845783
 30
0.0
  0
LWPOLYLINE
  5
267
100
AcDbEntity
  8
0
 62
7
100
AcDbPolyline
 90
2
 70
0
 10
137.247376
 20
-97.045963
 30
0.0
 10
123.447556
 20
-97.045963
 30
0.0
  0
LWPOLYLINE
  5
268
100
AcDbEntity
  8
0
 62
7
100
AcDbPolyline
 90
2
 70
0
 10
123.447556
 20
-110.845783
 30
0.0
 10
137.247376
 20
-110.845783
 30
0.0
  0
LWPOLYLINE
  5
269
100
AcDbEntity
  8
0
 62
7
100
AcDbPolyline
 90
2
 70
0
 10
142.497556
 20
-53.695783
 30
0.0
 10
156.297376
 20
-53.695783
 30
0.0
  0
LWPOLYLINE
  5
26a
100
AcDbEntity
  8
0
 62
7
100
AcDbPolyline
 90
2
 70
0
 10
156.297376
 20
-39.895963
 30
0.0
 10
142.497556
 20
-39.895963
 30
0.0
  0
LWPOLYLINE
  5
26b
100
AcDbEntity
  8
0
 62
7
100
AcDbPolyline
 90
2
 70
0
 10
156.297376
 20
-39.895963
 30
0.0
 10
156.297376
 20
-53.695783
 30
0.0
  0
LWPOLYLINE
  5
26c
100
AcDbEntity
  8
0
 62
7
100
AcDbPolyline
 90
2
 70
0
 10
142.497556
 20
-53.695783
 30
0.0
 10
142.497556
 20
-39.895963
 30
0.0
  0
LWPOLYLINE
  5
26d
100
AcDbEntity
  8
0
 62
7
100
AcDbPolyline
 90
2
 70
0
 10
142.497556
 20
-72.745783
 30
0.0
 10
156.297376
 20
-72.745783
 30
0.0
  0
LWPOLYLINE
  5
26e
100
AcDbEntity
  8
0
 62
7
100
AcDbPolyline
 90
2
 70
0
 10
156.297376
 20
-58.945963
 30
0.0
 10
142.497556
 20
-58.945963
 30
0.0
  0
LWPOLYLINE
  5
26f
100
AcDbEntity
  8
0
 62
7
100
AcDbPolyline
 90
2
 70
0
 10
156.297376
 20
-58.945963
 30
0.0
 10
156.297376
 20
-72.745783
 30
0.0
  0
LWPOLYLINE
  5
270
100
AcDbEntity
  8
0
 62
7
100
AcDbPolyline
 90
2
 70
0
 10
142.497556
 20
-72.745783
 30
0.0
 10
142.497556
 20
-58.945963
 30
0.0
  0
LWPOLYLINE
  5
271
100
AcDbEntity
  8
0
 62
7
100
AcDbPolyline
 90
2
 70
0
 10
142.497556
 20
-91.795783
 30
0.0
 10
142.497556
 20
-77.995963
 30
0.0
  0
LWPOLYLINE
  5
272
100
AcDbEntity
  8
0
 62
7
100
AcDbPolyline
 90
2
 70
0
 10
156.297376
 20
-77.995963
 30
0.0
 10
156.297376
 20
-91.795783
 30
0.0
  0
LWPOLYLINE
  5
273
100
AcDbEntity
  8
0
 62
7
100
AcDbPolyline
 90
2
 70
0
 10
156.297376
 20
-77.995963
 30
0.0
 10
142.497556
 20
-77.995963
 30
0.0
  0
LWPOLYLINE
  5
274
100
AcDbEntity
  8
0
 62
7
100
AcDbPolyline
 90
2
 70
0
 10
142.497556
 20
-91.795783
 30
0.0
 10
156.297376
 20
-91.795783
 30
0.0
  0
LWPOLYLINE
  5
275
100
AcDbEntity
  8
0
 62
7
100
AcDbPolyline
 90
2
 70
0
 10
142.497556
 20
-110.845783
 30
0.0
 10
142.497556
 20
-97.045963
 30
0.0
  0
LWPOLYLINE
  5
276
100
AcDbEntity
  8
0
 62
7
100
AcDbPolyline
 90
2
 70
0
 10
156.297376
 20
-97.045963
 30
0.0
 10
156.297376
 20
-110.845783
 30
0.0
  0
LWPOLYLINE
  5
277
100
AcDbEntity
  8
0
 62
7
100
AcDbPolyline
 90
2
 70
0
 10
156.297376
 20
-97.045963
 30
0.0
 10
142.497556
 20
-97.045963
 30
0.0
  0
LWPOLYLINE
  5
278
100
AcDbEntity
  8
0
 62
7
100
AcDbPolyline
 90
2
 70
0
 10
142.497556
 20
-110.845783
 30
0.0
 10
156.297376
 20
-110.845783
 30
0.0
  0
LWPOLYLINE
  5
279
100
AcDbEntity
  8
0
 62
7
100
AcDbPolyline
 90
2
 70
0
 10
142.497556
 20
-134.658283
 30
0.0
 10
156.297376
 20
-134.658283
 30
0.0
  0
LWPOLYLINE
  5
27a
100
AcDbEntity
  8
0
 62
7
100
AcDbPolyline
 90
2
 70
0
 10
156.297376
 20
-120.858463
 30
0.0
 10
142.497556
 20
-120.858463
 30
0.0
  0
LWPOLYLINE
  5
27b
100
AcDbEntity
  8
0
 62
7
100
AcDbPolyline
 90
2
 70
0
 10
156.297376
 20
-120.858463
 30
0.0
 10
156.297376
 20
-134.658283
 30
0.0
  0
LWPOLYLINE
  5
27c
100
AcDbEntity
  8
0
 62
7
100
AcDbPolyline
 90
2
 70
0
 10
142.497556
 20
-134.658283
 30
0.0
 10
142.497556
 20
-120.858463
 30
0.0
  0
LWPOLYLINE
  5
27d
100
AcDbEntity
  8
0
 62
7
100
AcDbPolyline
 90
2
 70
0
 10
161.547556
 20
-72.745783
 30
0.0
 10
175.347376
 20
-72.745783
 30
0.0
  0
LWPOLYLINE
  5
27e
100
AcDbEntity
  8
0
 62
7
100
AcDbPolyline
 90
2
 70
0
 10
175.347376
 20
-58.945963
 30
0.0
 10
161.547556
 20
-58.945963
 30
0.0
  0
LWPOLYLINE
  5
27f
100
AcDbEntity
  8
0
 62
7
100
AcDbPolyline
 90
2
 70
0
 10
175.347376
 20
-58.945963
 30
0.0
 10
175.347376
 20
-72.745783
 30
0.0
  0
LWPOLYLINE
  5
280
100
AcDbEntity
  8
0
 62
7
100
AcDbPolyline
 90
2
 70
0
 10
161.547556
 20
-72.745783
 30
0.0
 10
161.547556
 20
-58.945963
 30
0.0
  0
LWPOLYLINE
  5
281
100
AcDbEntity
  8
0
 62
7
100
AcDbPolyline
 90
2
 70
0
 10
161.547556
 20
-91.795783
 30
0.0
 10
161.547556
 20
-77.995963
 30
0.0
  0
LWPOLYLINE
  5
282
100
AcDbEntity
  8
0
 62
7
100
AcDbPolyline
 90
2
 70
0
 10
175.347376
 20
-77.995963
 30
0.0
 10
175.347376
 20
-91.795783
 30
0.0
  0
LWPOLYLINE
  5
283
100
AcDbEntity
  8
0
 62
7
100
AcDbPolyline
 90
2
 70
0
 10
175.347376
 20
-77.995963
 30
0.0
 10
161.547556
 20
-77.995963
 30
0.0
  0
LWPOLYLINE
  5
284
100
AcDbEntity
  8
0
 62
7
100
AcDbPolyline
 90
2
 70
0
 10
161.547556
 20
-91.795783
 30
0.0
 10
175.347376
 20
-91.795783
 30
0.0
  0
LWPOLYLINE
  5
285
100
AcDbEntity
  8
0
 62
7
100
AcDbPolyline
 90
2
 70
0
 10
161.547556
 20
-110.845783
 30
0.0
 10
161.547556
 20
-97.045963
 30
0.0
  0
LWPOLYLINE
  5
286
100
AcDbEntity
  8
0
 62
7
100
AcDbPolyline
 90
2
 70
0
 10
175.347376
 20
-97.045963
 30
0.0
 10
175.347376
 20
-110.845783
 30
0.0
  0
LWPOLYLINE
  5
287
100
AcDbEntity
  8
0
 62
7
100
AcDbPolyline
 90
2
 70
0
 10
175.347376
 20
-97.045963
 30
0.0
 10
161.547556
 20
-97.045963
 30
0.0
  0
LWPOLYLINE
  5
288
100
AcDbEntity
  8
0
 62
7
100
AcDbPolyline
 90
2
 70
0
 10
161.547556
 20
-110.845783
 30
0.0
 10
175.347376
 20
-110.845783
 30
0.0
  0
LWPOLYLINE
  5
289
100
AcDbEntity
  8
0
 62
7
100
AcDbPolyline
 90
2
 70
0
 10
180.597556
 20
-58.458283
 30
0.0
 10
180.597556
 20
-44.658463
 30
0.0
  0
LWPOLYLINE
  5
28a
100
AcDbEntity
  8
0
 62
7
100
AcDbPolyline
 90
2
 70
0
 10
194.397376
 20
-44.658463
 30
0.0
 10
194.397376
 20
-58.458283
 30
0.0
  0
LWPOLYLINE
  5
28b
100
AcDbEntity
  8
0
 62
7
100
AcDbPolyline
 90
2
 70
0
 10
194.397376
 20
-44.658463
 30
0.0
 10
180.597556
 20
-44.658463
 30
0.0
  0
LWPOLYLINE
  5
28c
100
AcDbEntity
  8
0
 62
7
100
AcDbPolyline
 90
2
 70
0
 10
180.597556
 20
-58.458283
 30
0.0
 10
194.397376
 20
-58.458283
 30
0.0
  0
LWPOLYLINE
  5
28d
100
AcDbEntity
  8
0
 62
7
100
AcDbPolyline
 90
2
 70
0
 10
180.597556
 20
-77.508283
 30
0.0
 10
194.397376
 20
-77.508283
 30
0.0
  0
LWPOLYLINE
  5
28e
100
AcDbEntity
  8
0
 62
7
100
AcDbPolyline
 90
2
 70
0
 10
194.397376
 20
-63.708463
 30
0.0
 10
180.597556
 20
-63.708463
 30
0.0
  0
LWPOLYLINE
  5
28f
100
AcDbEntity
  8
0
 62
7
100
AcDbPolyline
 90
2
 70
0
 10
194.397376
 20
-63.708463
 30
0.0
 10
194.397376
 20
-77.508283
 30
0.0
  0
LWPOLYLINE
  5
290
100
AcDbEntity
  8
0
 62
7
100
AcDbPolyline
 90
2
 70
0
 10
180.597556
 20
-77.508283
 30
0.0
 10
180.597556
 20
-63.708463
 30
0.0
  0
LWPOLYLINE
  5
291
100
AcDbEntity
  8
0
 62
7
100
AcDbPolyline
 90
2
 70
0
 10
180.597556
 20
-96.558283
 30
0.0
 10
180.597556
 20
-82.758463
 30
0.0
  0
LWPOLYLINE
  5
292
100
AcDbEntity
  8
0
 62
7
100
AcDbPolyline
 90
2
 70
0
 10
194.397376
 20
-82.758463
 30
0.0
 10
194.397376
 20
-96.558283
 30
0.0
  0
LWPOLYLINE
  5
293
100
AcDbEntity
  8
0
 62
7
100
AcDbPolyline
 90
2
 70
0
 10
194.397376
 20
-82.758463
 30
0.0
 10
180.597556
 20
-82.758463
 30
0.0
  0
LWPOLYLINE
  5
294
100
AcDbEntity
  8
0
 62
7
100
AcDbPolyline
 90
2
 70
0
 10
180.597556
 20
-96.558283
 30
0.0
 10
194.397376
 20
-96.558283
 30
0.0
  0
LWPOLYLINE
  5
295
100
AcDbEntity
  8
0
 62
7
100
AcDbPolyline
 90
2
 70
0
 10
189.924436
 20
-115.288243
 30
0.0
 10
199.683116
 20
-125.046923
 30
0.0
  0
LWPOLYLINE
  5
296
100
AcDbEntity
  8
0
 62
7
100
AcDbPolyline
 90
2
 70
0
 10
209.441796
 20
-115.288243
 30
0.0
 10
199.683116
 20
-105.532103
 30
0.0
  0
LWPOLYLINE
  5
297
100
AcDbEntity
  8
0
 62
7
100
AcDbPolyline
 90
2
 70
0
 10
209.441796
 20
-115.288243
 30
0.0
 10
199.683116
 20
-125.046923
 30
0.0
  0
LWPOLYLINE
  5
298
100
AcDbEntity
  8
0
 62
7
100
AcDbPolyline
 90
2
 70
0
 10
189.924436
 20
-115.288243
 30
0.0
 10
199.683116
 20
-105.532103
 30
0.0
  0
LWPOLYLINE
  5
299
100
AcDbEntity
  8
0
 62
7
100
AcDbPolyline
 90
2
 70
0
 10
180.597556
 20
-144.183283
 30
0.0
 10
180.597556
 20
-130.383463
 30
0.0
  0
LWPOLYLINE
  5
29a
100
AcDbEntity
  8
0
 62
7
100
AcDbPolyline
 90
2
 70
0
 10
194.397376
 20
-130.383463
 30
0.0
 10
194.397376
 20
-144.183283
 30
0.0
  0
LWPOLYLINE
  5
29b
100
AcDbEntity
  8
0
 62
7
100
AcDbPolyline
 90
2
 70
0
 10
194.397376
 20
-130.383463
 30
0.0
 10
180.597556
 20
-130.383463
 30
0.0
  0
LWPOLYLINE
  5
29c
100
AcDbEntity
  8
0
 62
7
100
AcDbPolyline
 90
2
 70
0
 10
180.597556
 20
-144.183283
 30
0.0
 10
194.397376
 20
-144.183283
 30
0.0
  0
LWPOLYLINE
  5
29d
100
AcDbEntity
  8
0
 62
7
100
AcDbPolyline
 90
2
 70
0
 10
218.453716
 20
-39.652123
 30
0.0
 10
224.468436
 20
-39.652123
 30
0.0
  0
SPLINE
  5
29e
100
AcDbEntity
  8
0
 62
7
100
AcDbSpline
 70
8
 71
3
 72
8
 73
4
 74
0
 40
0
 40
0
 40
0
 40
0
 40
1
 40
1
 40
1
 40
1
 10
225.789236
 20
-40.959969
 30
0.0
 10
225.789175
 20
-40.609277
 30
0.0
 10
225.648371
 20
-40.273280
 30
0.0
 10
225.398397
 20
-40.027317
 30
0.0
  0
SPLINE
  5
29f
100
AcDbEntity
  8
0
 62
7
100
AcDbSpline
 70
8
 71
3
 72
8
 73
4
 74
0
 40
0
 40
0
 40
0
 40
0
 40
1
 40
1
 40
1
 40
1
 10
225.398397
 20
-40.027317
 30
0.0
 10
225.148423
 20
-39.781354
 30
0.0
 10
224.810193
 20
-39.646004
 30
0.0
 10
224.459546
 20
-39.651615
 30
0.0
  0
LWPOLYLINE
  5
2a0
100
AcDbEntity
  8
0
 62
7
100
AcDbPolyline
 90
2
 70
0
 10
225.784156
 20
-106.141703
 30
0.0
 10
225.784156
 20
-40.942443
 30
0.0
  0
LWPOLYLINE
  5
2a1
100
AcDbEntity
  8
0
 62
7
100
AcDbPolyline
 90
2
 70
0
 10
220.836236
 20
-111.089623
 30
0.0
 10
225.784156
 20
-106.141703
 30
0.0
  0
LWPOLYLINE
  5
2a2
100
AcDbEntity
  8
0
 62
7
100
AcDbPolyline
 90
2
 70
0
 10
218.453716
 20
-39.652123
 30
0.0
 10
182.736236
 20
-39.652123
 30
0.0
  0
SPLINE
  5
2a3
100
AcDbEntity
  8
0
 62
7
100
AcDbSpline
 70
8
 71
3
 72
8
 73
4
 74
0
 40
0
 40
0
 40
0
 40
0
 40
1
 40
1
 40
1
 40
1
 10
61.292994
 20
-113.470111
 30
0.0
 10
61.292994
 20
-114.101658
 30
0.0
 10
61.543875
 20
-114.707338
 30
0.0
 10
61.990446
 20
-115.153909
 30
0.0
  0
SPLINE
  5
2a4
100
AcDbEntity
  8
0
 62
7
100
AcDbSpline
 70
8
 71
3
 72
8
 73
4
 74
0
 40
0
 40
0
 40
0
 40
0
 40
1
 40
1
 40
1
 40
1
 10
61.990446
 20
-115.153909
 30
0.0
 10
62.437017
 20
-115.600480
 30
0.0
 10
63.042697
 20
-115.851361
 30
0.0
 10
63.674244
 20
-115.851361
 30
0.0
  0
SPLINE
  5
2a5
100
AcDbEntity
  8
0
 62
7
100
AcDbSpline
 70
8
 71
3
 72
8
 73
4
 74
0
 40
0
 40
0
 40
0
 40
0
 40
1
 40
1
 40
1
 40
1
 10
61.292994
 20
-108.707611
 30
0.0
 10
61.292994
 20
-108.076064
 30
0.0
 10
61.042113
 20
-107.470384
 30
0.0
 10
60.595542
 20
-107.023813
 30
0.0
  0
SPLINE
  5
2a6
100
AcDbEntity
  8
0
 62
7
100
AcDbSpline
 70
8
 71
3
 72
8
 73
4
 74
0
 40
0
 40
0
 40
0
 40
0
 40
1
 40
1
 40
1
 40
1
 10
60.595542
 20
-107.023813
 30
0.0
 10
60.148971
 20
-106.577242
 30
0.0
 10
59.543291
 20
-106.326361
 30
0.0
 10
58.911744
 20
-106.326361
 30
0.0
  0
SPLINE
  5
2a7
100
AcDbEntity
  8
0
 62
7
100
AcDbSpline
 70
8
 71
3
 72
8
 73
4
 74
0
 40
0
 40
0
 40
0
 40
0
 40
1
 40
1
 40
1
 40
1
 10
42.242994
 20
-103.945111
 30
0.0
 10
42.242994
 20
-104.576658
 30
0.0
 10
42.493875
 20
-105.182338
 30
0.0
 10
42.940446
 20
-105.628909
 30
0.0
  0
SPLINE
  5
2a8
100
AcDbEntity
  8
0
 62
7
100
AcDbSpline
 70
8
 71
3
 72
8
 73
4
 74
0
 40
0
 40
0
 40
0
 40
0
 40
1
 40
1
 40
1
 40
1
 10
42.940446
 20
-105.628909
 30
0.0
 10
43.387017
 20
-106.075480
 30
0.0
 10
43.992697
 20
-106.326361
 30
0.0
 10
44.624244
 20
-106.326361
 30
0.0
  0
SPLINE
  5
2a9
100
AcDbEntity
  8
0
 62
7
100
AcDbSpline
 70
8
 71
3
 72
8
 73
4
 74
0
 40
0
 40
0
 40
0
 40
0
 40
1
 40
1
 40
1
 40
1
 10
44.624244
 20
-82.513861
 30
0.0
 10
43.992697
 20
-82.513861
 30
0.0
 10
43.387017
 20
-82.764742
 30
0.0
 10
42.940446
 20
-83.211313
 30
0.0
  0
SPLINE
  5
2aa
100
AcDbEntity
  8
0
 62
7
100
AcDbSpline
 70
8
 71
3
 72
8
 73
4
 74
0
 40
0
 40
0
 40
0
 40
0
 40
1
 40
1
 40
1
 40
1
 10
42.940446
 20
-83.211313
 30
0.0
 10
42.493875
 20
-83.657884
 30
0.0
 10
42.242994
 20
-84.263564
 30
0.0
 10
42.242994
 20
-84.895111
 30
0.0
  0
SPLINE
  5
2ab
100
AcDbEntity
  8
0
 62
7
100
AcDbSpline
 70
8
 71
3
 72
8
 73
4
 74
0
 40
0
 40
0
 40
0
 40
0
 40
1
 40
1
 40
1
 40
1
 10
58.911744
 20
-82.513861
 30
0.0
 10
59.543291
 20
-82.513861
 30
0.0
 10
60.148971
 20
-82.262980
 30
0.0
 10
60.595542
 20
-81.816409
 30
0.0
  0
SPLINE
  5
2ac
100
AcDbEntity
  8
0
 62
7
100
AcDbSpline
 70
8
 71
3
 72
8
 73
4
 74
0
 40
0
 40
0
 40
0
 40
0
 40
1
 40
1
 40
1
 40
1
 10
60.595542
 20
-81.816409
 30
0.0
 10
61.042113
 20
-81.369838
 30
0.0
 10
61.292994
 20
-80.764158
 30
0.0
 10
61.292994
 20
-80.132611
 30
0.0
  0
SPLINE
  5
2ad
100
AcDbEntity
  8
0
 62
7
100
AcDbSpline
 70
8
 71
3
 72
8
 73
4
 74
0
 40
0
 40
0
 40
0
 40
0
 40
1
 40
1
 40
1
 40
1
 10
77.961744
 20
-53.938861
 30
0.0
 10
78.593291
 20
-53.938861
 30
0.0
 10
79.198971
 20
-53.687980
 30
0.0
 10
79.645542
 20
-53.241409
 30
0.0
  0
SPLINE
  5
2ae
100
AcDbEntity
  8
0
 62
7
100
AcDbSpline
 70
8
 71
3
 72
8
 73
4
 74
0
 40
0
 40
0
 40
0
 40
0
 40
1
 40
1
 40
1
 40
1
 10
79.645542
 20
-53.241409
 30
0.0
 10
80.092113
 20
-52.794838
 30
0.0
 10
80.342994
 20
-52.189158
 30
0.0
 10
80.342994
 20
-51.557611
 30
0.0
  0
SPLINE
  5
2af
100
AcDbEntity
  8
0
 62
7
100
AcDbSpline
 70
8
 71
3
 72
8
 73
4
 74
0
 40
0
 40
0
 40
0
 40
0
 40
1
 40
1
 40
1
 40
1
 10
63.674244
 20
-53.938861
 30
0.0
 10
63.042697
 20
-53.938861
 30
0.0
 10
62.437017
 20
-54.189742
 30
0.0
 10
61.990446
 20
-54.636313
 30
0.0
  0
SPLINE
  5
2b0
100
AcDbEntity
  8
0
 62
7
100
AcDbSpline
 70
8
 71
3
 72
8
 73
4
 74
0
 40
0
 40
0
 40
0
 40
0
 40
1
 40
1
 40
1
 40
1
 10
61.990446
 20
-54.636313
 30
0.0
 10
61.543875
 20
-55.082884
 30
0.0
 10
61.292994
 20
-55.688564
 30
0.0
 10
61.292994
 20
-56.320111
 30
0.0
  0
SPLINE
  5
2b1
100
AcDbEntity
  8
0
 62
7
100
AcDbSpline
 70
8
 71
3
 72
8
 73
4
 74
0
 40
0
 40
0
 40
0
 40
0
 40
1
 40
1
 40
1
 40
1
 10
82.724244
 20
-34.888861
 30
0.0
 10
82.092697
 20
-34.888861
 30
0.0
 10
81.487017
 20
-35.139742
 30
0.0
 10
81.040446
 20
-35.586313
 30
0.0
  0
SPLINE
  5
2b2
100
AcDbEntity
  8
0
 62
7
100
AcDbSpline
 70
8
 71
3
 72
8
 73
4
 74
0
 40
0
 40
0
 40
0
 40
0
 40
1
 40
1
 40
1
 40
1
 10
81.040446
 20
-35.586313
 30
0.0
 10
80.593875
 20
-36.032884
 30
0.0
 10
80.342994
 20
-36.638564
 30
0.0
 10
80.342994
 20
-37.270111
 30
0.0
  0
SPLINE
  5
2b3
100
AcDbEntity
  8
0
 62
7
100
AcDbSpline
 70
8
 71
3
 72
8
 73
4
 74
0
 40
0
 40
0
 40
0
 40
0
 40
1
 40
1
 40
1
 40
1
 10
197.024244
 20
-149.188833
 30
0.0
 10
197.655791
 20
-149.188833
 30
0.0
 10
198.261471
 20
-148.937952
 30
0.0
 10
198.708042
 20
-148.491381
 30
0.0
  0
SPLINE
  5
2b4
100
AcDbEntity
  8
0
 62
7
100
AcDbSpline
 70
8
 71
3
 72
8
 73
4
 74
0
 40
0
 40
0
 40
0
 40
0
 40
1
 40
1
 40
1
 40
1
 10
198.708042
 20
-148.491381
 30
0.0
 10
199.154613
 20
-148.044810
 30
0.0
 10
199.405494
 20
-147.439130
 30
0.0
 10
199.405494
 20
-146.807583
 30
0.0
  0
LWPOLYLINE
  5
2b5
100
AcDbEntity
  8
0
 62
7
100
AcDbPolyline
 90
2
 70
0
 10
61.291216
 20
-113.472143
 30
0.0
 10
63.673736
 20
-115.852123
 30
0.0
  0
LWPOLYLINE
  5
2b6
100
AcDbEntity
  8
0
 62
7
100
AcDbPolyline
 90
2
 70
0
 10
113.678716
 20
-115.852123
 30
0.0
 10
99.391216
 20
-115.852123
 30
0.0
  0
LWPOLYLINE
  5
2b7
100
AcDbEntity
  8
0
 62
7
100
AcDbPolyline
 90
2
 70
0
 10
118.441216
 20
-120.614623
 30
0.0
 10
113.678716
 20
-115.852123
 30
0.0
  0
LWPOLYLINE
  5
2b8
100
AcDbEntity
  8
0
 62
7
100
AcDbPolyline
 90
2
 70
0
 10
125.586236
 20
-120.614623
 30
0.0
 10
118.441216
 20
-120.614623
 30
0.0
  0
LWPOLYLINE
  5
2b9
100
AcDbEntity
  8
0
 62
7
100
AcDbPolyline
 90
2
 70
0
 10
130.348736
 20
-125.377123
 30
0.0
 10
125.586236
 20
-120.614623
 30
0.0
  0
LWPOLYLINE
  5
2ba
100
AcDbEntity
  8
0
 62
7
100
AcDbPolyline
 90
2
 70
0
 10
130.348736
 20
-132.522143
 30
0.0
 10
130.348736
 20
-125.377123
 30
0.0
  0
LWPOLYLINE
  5
2bb
100
AcDbEntity
  8
0
 62
7
100
AcDbPolyline
 90
2
 70
0
 10
139.873736
 20
-139.664623
 30
0.0
 10
130.348736
 20
-132.522143
 30
0.0
  0
LWPOLYLINE
  5
2bc
100
AcDbEntity
  8
0
 62
7
100
AcDbPolyline
 90
2
 70
0
 10
63.673736
 20
-115.852123
 30
0.0
 10
101.773736
 20
-115.852123
 30
0.0
  0
LWPOLYLINE
  5
2bd
100
AcDbEntity
  8
0
 62
7
100
AcDbPolyline
 90
2
 70
0
 10
218.453716
 20
-113.472143
 30
0.0
 10
220.836236
 20
-111.089623
 30
0.0
  0
LWPOLYLINE
  5
2be
100
AcDbEntity
  8
0
 62
7
100
AcDbPolyline
 90
2
 70
0
 10
199.403716
 20
-132.522143
 30
0.0
 10
218.453716
 20
-113.472143
 30
0.0
  0
LWPOLYLINE
  5
2bf
100
AcDbEntity
  8
0
 62
7
100
AcDbPolyline
 90
2
 70
0
 10
199.403716
 20
-146.809643
 30
0.0
 10
199.403716
 20
-132.522143
 30
0.0
  0
LWPOLYLINE
  5
2c0
100
AcDbEntity
  8
0
 62
7
100
AcDbPolyline
 90
2
 70
0
 10
177.973736
 20
-149.187083
 30
0.0
 10
197.023736
 20
-149.187083
 30
0.0
  0
LWPOLYLINE
  5
2c1
100
AcDbEntity
  8
0
 62
7
100
AcDbPolyline
 90
2
 70
0
 10
173.211236
 20
-144.427123
 30
0.0
 10
177.973736
 20
-149.187083
 30
0.0
  0
LWPOLYLINE
  5
2c2
100
AcDbEntity
  8
0
 62
7
100
AcDbPolyline
 90
2
 70
0
 10
158.923736
 20
-144.427123
 30
0.0
 10
173.211236
 20
-144.427123
 30
0.0
  0
LWPOLYLINE
  5
2c3
100
AcDbEntity
  8
0
 62
7
100
AcDbPolyline
 90
2
 70
0
 10
154.161236
 20
-139.664623
 30
0.0
 10
158.923736
 20
-144.427123
 30
0.0
  0
LWPOLYLINE
  5
2c4
100
AcDbEntity
  8
0
 62
7
100
AcDbPolyline
 90
2
 70
0
 10
139.873736
 20
-139.664623
 30
0.0
 10
154.161236
 20
-139.664623
 30
0.0
  0
LWPOLYLINE
  5
2c5
100
AcDbEntity
  8
0
 62
7
100
AcDbPolyline
 90
2
 70
0
 10
61.291216
 20
-108.709643
 30
0.0
 10
61.291216
 20
-113.472143
 30
0.0
  0
LWPOLYLINE
  5
2c6
100
AcDbEntity
  8
0
 62
7
100
AcDbPolyline
 90
2
 70
0
 10
44.623736
 20
-106.327123
 30
0.0
 10
58.911236
 20
-106.327123
 30
0.0
  0
LWPOLYLINE
  5
2c7
100
AcDbEntity
  8
0
 62
7
100
AcDbPolyline
 90
2
 70
0
 10
42.241216
 20
-84.897143
 30
0.0
 10
42.241216
 20
-103.947143
 30
0.0
  0
LWPOLYLINE
  5
2c8
100
AcDbEntity
  8
0
 62
7
100
AcDbPolyline
 90
2
 70
0
 10
58.911236
 20
-82.514623
 30
0.0
 10
44.623736
 20
-82.514623
 30
0.0
  0
LWPOLYLINE
  5
2c9
100
AcDbEntity
  8
0
 62
7
100
AcDbPolyline
 90
2
 70
0
 10
61.291216
 20
-56.322143
 30
0.0
 10
61.291216
 20
-80.134643
 30
0.0
  0
LWPOLYLINE
  5
2ca
100
AcDbEntity
  8
0
 62
7
100
AcDbPolyline
 90
2
 70
0
 10
77.961236
 20
-53.939623
 30
0.0
 10
63.673736
 20
-53.939623
 30
0.0
  0
LWPOLYLINE
  5
2cb
100
AcDbEntity
  8
0
 62
7
100
AcDbPolyline
 90
2
 70
0
 10
80.341216
 20
-37.272143
 30
0.0
 10
80.341216
 20
-51.559643
 30
0.0
  0
LWPOLYLINE
  5
2cc
100
AcDbEntity
  8
0
 62
7
100
AcDbPolyline
 90
2
 70
0
 10
85.103716
 20
-34.889623
 30
0.0
 10
82.723736
 20
-34.889623
 30
0.0
  0
LWPOLYLINE
  5
2cd
100
AcDbEntity
  8
0
 62
7
100
AcDbPolyline
 90
2
 70
0
 10
177.973736
 20
-34.889623
 30
0.0
 10
182.736236
 20
-39.652123
 30
0.0
  0
LWPOLYLINE
  5
2ce
100
AcDbEntity
  8
0
 62
7
100
AcDbPolyline
 90
2
 70
0
 10
85.103716
 20
-34.889623
 30
0.0
 10
177.973736
 20
-34.889623
 30
0.0
  0
ENDSEC
  0
SECTION
  2
OBJECTS
  0
DICTIONARY
  5
C
330
0
100
AcDbDictionary
  3
ACAD_GROUP
350
D
  3
ACAD_MLINESTYLE
350
17
  0
DICTIONARY
  5
D
330
C
100
AcDbDictionary
  0
DICTIONARY
  5
1A
330
C
100
AcDbDictionary
  0
DICTIONARY
  5
17
330
C
100
AcDbDictionary
  3
STANDARD
350
18
  0
DICTIONARY
  5
19
330
C
100
AcDbDictionary
  0
ENDSEC
  0
EOF
