  0
SECTION
  2
HEADER
  9
$ACADVER
  1
AC1014
  9
$HANDSEED
  5
FFFF
  9
$MEASUREMENT
 70
     1
  0
ENDSEC
  0
SECTION
  2
TABLES
  0
TABLE
  2
VPORT
  5
8
330
0
100
AcDbSymbolTable
 70
     4
  0
VPORT
  5
2E
330
8
100
AcDbSymbolTableRecord
100
AcDbViewportTableRecord
  2
*ACTIVE
 70
     0
 10
0.0
 20
0.0
 11
1.0
 21
1.0
 12
210.0
 22
148.5
 13
0.0
 23
0.0
 14
10.0
 24
10.0
 15
10.0
 25
10.0
 16
0.0
 26
0.0
 36
1.0
 17
0.0
 27
0.0
 37
0.0
 40
341.0
 41
1.24
 42
50.0
 43
0.0
 44
0.0
 50
0.0
 51
0.0
 71
     0
 72
   100
 73
     1
 74
     3
 75
     0
 76
     0
 77
     0
 78
     0
  0
ENDTAB
  0
TABLE
  2
LTYPE
  5
5
330
0
100
AcDbSymbolTable
 70
     1
  0
LTYPE
  5
14
330
5
100
AcDbSymbolTableRecord
100
AcDbLinetypeTableRecord
  2
BYBLOCK
 70
     0
  3

 72
    65
 73
     0
 40
0.0
  0
LTYPE
  5
15
330
5
100
AcDbSymbolTableRecord
100
AcDbLinetypeTableRecord
  2
BYLAYER
 70
     0
  3

 72
    65
 73
     0
 40
0.0
  0
LTYPE
  5
16
330
5
100
AcDbSymbolTableRecord
100
AcDbLinetypeTableRecord
  2
CONTINUOUS
 70
     0
  3
Solid line
 72
    65
 73
     0
 40
0.0
  0
ENDTAB
  0
TABLE
  2
LAYER
  5
2
100
AcDbSymbolTable
 70
2
  0
LAYER
  5
50
100
AcDbSymbolTableRecord
100
AcDbLayerTableRecord
  2
0
 70
0
  6
CONTINUOUS
  0
LAYER
  5
51
100
AcDbSymbolTableRecord
100
AcDbLayerTableRecord
  2
Layer_1
 70
0
  6
CONTINUOUS
  0
ENDTAB
  0
TABLE
  2
STYLE
  5
3
330
0
100
AcDbSymbolTable
 70
     1
  0
STYLE
  5
11
330
3
100
AcDbSymbolTableRecord
100
AcDbTextStyleTableRecord
  2
STANDARD
 70
     0
 40
0.0
 41
1.0
 50
0.0
 71
     0
 42
2.5
  3
txt
  4

  0
ENDTAB
  0
TABLE
  2
VIEW
  5
6
330
0
100
AcDbSymbolTable
 70
     0
  0
ENDTAB
  0
TABLE
  2
UCS
  5
7
330
0
100
AcDbSymbolTable
 70
     0
  0
ENDTAB
  0
TABLE
  2
APPID
  5
9
330
0
100
AcDbSymbolTable
 70
     2
  0
APPID
  5
12
330
9
100
AcDbSymbolTableRecord
100
AcDbRegAppTableRecord
  2
ACAD
 70
     0
  0
ENDTAB
  0
TABLE
  2
DIMSTYLE
  5
A
330
0
100
AcDbSymbolTable
 70
     1
  0
DIMSTYLE
105
27
330
A
100
AcDbSymbolTableRecord
100
AcDbDimStyleTableRecord
  2
ISO-25
 70
     0
  3

  4

  5

  6

  7

 40
1.0
 41
2.5
 42
0.625
 43
3.75
 44
1.25
 45
0.0
 46
0.0
 47
0.0
 48
0.0
140
2.5
141
2.5
142
0.0
143
0.03937007874016
144
1.0
145
0.0
146
1.0
147
0.625
 71
     0
 72
     0
 73
     0
 74
     0
 75
     0
 76
     0
 77
     1
 78
     8
170
     0
171
     3
172
     1
173
     0
174
     0
175
     0
176
     0
177
     0
178
     0
270
     2
271
     2
272
     2
273
     2
274
     3
340
11
275
     0
280
     0
281
     0
282
     0
283
     0
284
     8
285
     0
286
     0
287
     3
288
     0
  0
ENDTAB
  0
TABLE
  2
BLOCK_RECORD
  5
1
330
0
100
AcDbSymbolTable
 70
     1
  0
BLOCK_RECORD
  5
1F
330
1
100
AcDbSymbolTableRecord
100
AcDbBlockTableRecord
  2
*MODEL_SPACE
  0
BLOCK_RECORD
  5
1B
330
1
100
AcDbSymbolTableRecord
100
AcDbBlockTableRecord
  2
*PAPER_SPACE
  0
ENDTAB
  0
ENDSEC
  0
SECTION
  2
BLOCKS
  0
BLOCK
  5
20
330
1F
100
AcDbEntity
  8
0
100
AcDbBlockBegin
  2
*MODEL_SPACE
 70
     0
 10
0.0
 20
0.0
 30
0.0
  3
*MODEL_SPACE
  1

  0
ENDBLK
  5
21
330
1F
100
AcDbEntity
  8
0
100
AcDbBlockEnd
  0
BLOCK
  5
1C
330
1B
100
AcDbEntity
 67
     1
  8
0
100
AcDbBlockBegin
  2
*PAPER_SPACE
  1

  0
ENDBLK
  5
1D
330
1B
100
AcDbEntity
 67
     1
  8
0
100
AcDbBlockEnd
  0
ENDSEC
  0
SECTION
  2
ENTITIES
  0
LWPOLYLINE
  5
100
100
AcDbEntity
  8
Layer_1
 62
7
100
AcDbPolyline
 90
2
 70
0
 10
36.790667
 20
260.722841
 30
0.0
 10
36.458583
 20
260.722841
 30
0.0
  0
LWPOLYLINE
  5
101
100
AcDbEntity
  8
Layer_1
 62
7
100
AcDbPolyline
 90
2
 70
0
 10
30.976489
 20
266.384432
 30
0.0
 10
36.466422
 20
260.719610
 30
0.0
  0
LWPOLYLINE
  5
102
100
AcDbEntity
  8
Layer_1
 62
7
100
AcDbPolyline
 90
2
 70
0
 10
36.790667
 20
272.032271
 30
0.0
 10
37.122247
 20
272.032271
 30
0.0
  0
SPLINE
  5
103
100
AcDbEntity
  8
Layer_1
 62
7
100
AcDbSpline
 70
8
 71
3
 72
8
 73
4
 74
0
 40
0
 40
0
 40
0
 40
0
 40
1
 40
1
 40
1
 40
1
 10
40.643482
 20
266.372476
 30
0.0
 10
40.643482
 20
266.372476
 30
0.0
 10
40.440392
 20
266.162691
 30
0.0
 10
40.078891
 20
265.789271
 30
0.0
  0
SPLINE
  5
104
100
AcDbEntity
  8
Layer_1
 62
7
100
AcDbSpline
 70
8
 71
3
 72
8
 73
4
 74
0
 40
0
 40
0
 40
0
 40
0
 40
1
 40
1
 40
1
 40
1
 10
40.078891
 20
265.789271
 30
0.0
 10
39.717389
 20
265.415851
 30
0.0
 10
39.227088
 20
264.909385
 30
0.0
 10
38.715848
 20
264.381290
 30
0.0
  0
LWPOLYLINE
  5
105
100
AcDbEntity
  8
Layer_1
 62
7
100
AcDbPolyline
 90
2
 70
0
 10
36.789094
 20
270.353939
 30
0.0
 10
40.643482
 20
266.372476
 30
0.0
  0
SPLINE
  5
106
100
AcDbEntity
  8
Layer_1
 62
7
100
AcDbSpline
 70
8
 71
3
 72
8
 73
4
 74
0
 40
0
 40
0
 40
0
 40
0
 40
1
 40
1
 40
1
 40
1
 10
38.716727
 20
264.382198
 30
0.0
 10
38.205487
 20
263.854103
 30
0.0
 10
37.715186
 20
263.347637
 30
0.0
 10
37.353685
 20
262.974217
 30
0.0
  0
SPLINE
  5
107
100
AcDbEntity
  8
Layer_1
 62
7
100
AcDbSpline
 70
8
 71
3
 72
8
 73
4
 74
0
 40
0
 40
0
 40
0
 40
0
 40
1
 40
1
 40
1
 40
1
 10
37.353685
 20
262.974217
 30
0.0
 10
36.992183
 20
262.600797
 30
0.0
 10
36.789094
 20
262.391012
 30
0.0
 10
36.789094
 20
262.391012
 30
0.0
  0
LWPOLYLINE
  5
108
100
AcDbEntity
  8
Layer_1
 62
7
100
AcDbPolyline
 90
2
 70
0
 10
38.715848
 20
264.381290
 30
0.0
 10
38.716727
 20
264.382198
 30
0.0
  0
SPLINE
  5
109
100
AcDbEntity
  8
Layer_1
 62
7
100
AcDbSpline
 70
8
 71
3
 72
8
 73
4
 74
0
 40
0
 40
0
 40
0
 40
0
 40
1
 40
1
 40
1
 40
1
 10
32.934706
 20
266.372476
 30
0.0
 10
32.934706
 20
266.372476
 30
0.0
 10
33.137796
 20
266.582261
 30
0.0
 10
33.499297
 20
266.955681
 30
0.0
  0
SPLINE
  5
10a
100
AcDbEntity
  8
Layer_1
 62
7
100
AcDbSpline
 70
8
 71
3
 72
8
 73
4
 74
0
 40
0
 40
0
 40
0
 40
0
 40
1
 40
1
 40
1
 40
1
 10
33.499297
 20
266.955681
 30
0.0
 10
33.860798
 20
267.329100
 30
0.0
 10
34.351100
 20
267.835566
 30
0.0
 10
34.862340
 20
268.363662
 30
0.0
  0
LWPOLYLINE
  5
10b
100
AcDbEntity
  8
Layer_1
 62
7
100
AcDbPolyline
 90
2
 70
0
 10
36.789094
 20
262.391012
 30
0.0
 10
32.934706
 20
266.372476
 30
0.0
  0
SPLINE
  5
10c
100
AcDbEntity
  8
Layer_1
 62
7
100
AcDbSpline
 70
8
 71
3
 72
8
 73
4
 74
0
 40
0
 40
0
 40
0
 40
0
 40
1
 40
1
 40
1
 40
1
 10
34.861460
 20
268.362753
 30
0.0
 10
35.372700
 20
268.890848
 30
0.0
 10
35.863002
 20
269.397314
 30
0.0
 10
36.224503
 20
269.770734
 30
0.0
  0
SPLINE
  5
10d
100
AcDbEntity
  8
Layer_1
 62
7
100
AcDbSpline
 70
8
 71
3
 72
8
 73
4
 74
0
 40
0
 40
0
 40
0
 40
0
 40
1
 40
1
 40
1
 40
1
 10
36.224503
 20
269.770734
 30
0.0
 10
36.586004
 20
270.144154
 30
0.0
 10
36.789094
 20
270.353939
 30
0.0
 10
36.789094
 20
270.353939
 30
0.0
  0
LWPOLYLINE
  5
10e
100
AcDbEntity
  8
Layer_1
 62
7
100
AcDbPolyline
 90
2
 70
0
 10
34.862340
 20
268.363662
 30
0.0
 10
34.861460
 20
268.362753
 30
0.0
  0
LWPOLYLINE
  5
10f
100
AcDbEntity
  8
Layer_1
 62
7
100
AcDbPolyline
 90
1
 70
1
 10
36.789094
 20
270.353939
 30
0.0
  0
SPLINE
  5
110
100
AcDbEntity
  8
Layer_1
 62
7
100
AcDbSpline
 70
8
 71
3
 72
8
 73
4
 74
0
 40
0
 40
0
 40
0
 40
0
 40
1
 40
1
 40
1
 40
1
 10
39.518101
 20
266.376042
 30
0.0
 10
39.518101
 20
266.376042
 30
0.0
 10
39.315012
 20
266.166257
 30
0.0
 10
38.953510
 20
265.792838
 30
0.0
  0
SPLINE
  5
111
100
AcDbEntity
  8
Layer_1
 62
7
100
AcDbSpline
 70
8
 71
3
 72
8
 73
4
 74
0
 40
0
 40
0
 40
0
 40
0
 40
1
 40
1
 40
1
 40
1
 10
38.953510
 20
265.792838
 30
0.0
 10
38.592009
 20
265.419418
 30
0.0
 10
38.101708
 20
264.912952
 30
0.0
 10
37.590467
 20
264.384856
 30
0.0
  0
LWPOLYLINE
  5
112
100
AcDbEntity
  8
Layer_1
 62
7
100
AcDbPolyline
 90
2
 70
0
 10
36.821080
 20
269.161982
 30
0.0
 10
39.518101
 20
266.376042
 30
0.0
  0
SPLINE
  5
113
100
AcDbEntity
  8
Layer_1
 62
7
100
AcDbSpline
 70
8
 71
3
 72
8
 73
4
 74
0
 40
0
 40
0
 40
0
 40
0
 40
1
 40
1
 40
1
 40
1
 10
38.748714
 20
265.581289
 30
0.0
 10
38.237473
 20
265.053193
 30
0.0
 10
37.747172
 20
264.546728
 30
0.0
 10
37.385671
 20
264.173308
 30
0.0
  0
SPLINE
  5
114
100
AcDbEntity
  8
Layer_1
 62
7
100
AcDbSpline
 70
8
 71
3
 72
8
 73
4
 74
0
 40
0
 40
0
 40
0
 40
0
 40
1
 40
1
 40
1
 40
1
 10
37.385671
 20
264.173308
 30
0.0
 10
37.024169
 20
263.799888
 30
0.0
 10
36.821080
 20
263.590103
 30
0.0
 10
36.821080
 20
263.590103
 30
0.0
  0
LWPOLYLINE
  5
115
100
AcDbEntity
  8
Layer_1
 62
7
100
AcDbPolyline
 90
2
 70
0
 10
37.590467
 20
264.384856
 30
0.0
 10
38.748714
 20
265.581289
 30
0.0
  0
SPLINE
  5
116
100
AcDbEntity
  8
Layer_1
 62
7
100
AcDbSpline
 70
8
 71
3
 72
8
 73
4
 74
0
 40
0
 40
0
 40
0
 40
0
 40
1
 40
1
 40
1
 40
1
 10
34.124059
 20
266.376042
 30
0.0
 10
34.124059
 20
266.376042
 30
0.0
 10
34.327148
 20
266.585827
 30
0.0
 10
34.688650
 20
266.959247
 30
0.0
  0
SPLINE
  5
117
100
AcDbEntity
  8
Layer_1
 62
7
100
AcDbSpline
 70
8
 71
3
 72
8
 73
4
 74
0
 40
0
 40
0
 40
0
 40
0
 40
1
 40
1
 40
1
 40
1
 10
34.688650
 20
266.959247
 30
0.0
 10
35.050151
 20
267.332667
 30
0.0
 10
35.540452
 20
267.839133
 30
0.0
 10
36.051692
 20
268.367228
 30
0.0
  0
LWPOLYLINE
  5
118
100
AcDbEntity
  8
Layer_1
 62
7
100
AcDbPolyline
 90
2
 70
0
 10
36.821080
 20
263.590103
 30
0.0
 10
34.124059
 20
266.376042
 30
0.0
  0
SPLINE
  5
119
100
AcDbEntity
  8
Layer_1
 62
7
100
AcDbSpline
 70
8
 71
3
 72
8
 73
4
 74
0
 40
0
 40
0
 40
0
 40
0
 40
1
 40
1
 40
1
 40
1
 10
34.893446
 20
267.170796
 30
0.0
 10
35.404687
 20
267.698891
 30
0.0
 10
35.894988
 20
268.205357
 30
0.0
 10
36.256489
 20
268.578777
 30
0.0
  0
SPLINE
  5
11a
100
AcDbEntity
  8
Layer_1
 62
7
100
AcDbSpline
 70
8
 71
3
 72
8
 73
4
 74
0
 40
0
 40
0
 40
0
 40
0
 40
1
 40
1
 40
1
 40
1
 10
36.256489
 20
268.578777
 30
0.0
 10
36.617991
 20
268.952197
 30
0.0
 10
36.821080
 20
269.161982
 30
0.0
 10
36.821080
 20
269.161982
 30
0.0
  0
LWPOLYLINE
  5
11b
100
AcDbEntity
  8
Layer_1
 62
7
100
AcDbPolyline
 90
2
 70
0
 10
36.051692
 20
268.367228
 30
0.0
 10
34.893446
 20
267.170796
 30
0.0
  0
LWPOLYLINE
  5
11c
100
AcDbEntity
  8
Layer_1
 62
7
100
AcDbPolyline
 90
1
 70
1
 10
36.821080
 20
269.161982
 30
0.0
  0
LWPOLYLINE
  5
11d
100
AcDbEntity
  8
Layer_1
 62
7
100
AcDbPolyline
 90
3
 70
0
 10
36.195493
 20
268.344480
 30
0.0
 10
36.821078
 20
268.990689
 30
0.0
 10
37.446018
 20
268.345145
 30
0.0
  0
LWPOLYLINE
  5
11e
100
AcDbEntity
  8
Layer_1
 62
7
100
AcDbPolyline
 90
2
 70
0
 10
36.195493
 20
268.344480
 30
0.0
 10
35.570496
 20
267.698877
 30
0.0
  0
LWPOLYLINE
  5
11f
100
AcDbEntity
  8
Layer_1
 62
7
100
AcDbPolyline
 90
2
 70
0
 10
37.446018
 20
268.345145
 30
0.0
 10
38.071184
 20
267.699364
 30
0.0
  0
SPLINE
  5
120
100
AcDbEntity
  8
Layer_1
 62
7
100
AcDbSpline
 70
8
 71
3
 72
8
 73
4
 74
0
 40
0
 40
0
 40
0
 40
0
 40
1
 40
1
 40
1
 40
1
 10
36.821075
 20
267.820388
 30
0.0
 10
36.742796
 20
267.820388
 30
0.0
 10
36.672226
 20
267.771680
 30
0.0
 10
36.642270
 20
267.696975
 30
0.0
  0
SPLINE
  5
121
100
AcDbEntity
  8
Layer_1
 62
7
100
AcDbSpline
 70
8
 71
3
 72
8
 73
4
 74
0
 40
0
 40
0
 40
0
 40
0
 40
1
 40
1
 40
1
 40
1
 10
36.642270
 20
267.696975
 30
0.0
 10
36.612314
 20
267.622271
 30
0.0
 10
36.628872
 20
267.536283
 30
0.0
 10
36.684223
 20
267.479106
 30
0.0
  0
SPLINE
  5
122
100
AcDbEntity
  8
Layer_1
 62
7
100
AcDbSpline
 70
8
 71
3
 72
8
 73
4
 74
0
 40
0
 40
0
 40
0
 40
0
 40
1
 40
1
 40
1
 40
1
 10
36.684223
 20
267.479106
 30
0.0
 10
36.739575
 20
267.421930
 30
0.0
 10
36.822819
 20
267.404826
 30
0.0
 10
36.895139
 20
267.435770
 30
0.0
  0
SPLINE
  5
123
100
AcDbEntity
  8
Layer_1
 62
7
100
AcDbSpline
 70
8
 71
3
 72
8
 73
4
 74
0
 40
0
 40
0
 40
0
 40
0
 40
1
 40
1
 40
1
 40
1
 10
36.895139
 20
267.435770
 30
0.0
 10
36.967459
 20
267.466713
 30
0.0
 10
37.014612
 20
267.539611
 30
0.0
 10
37.014612
 20
267.620470
 30
0.0
  0
SPLINE
  5
124
100
AcDbEntity
  8
Layer_1
 62
7
100
AcDbSpline
 70
8
 71
3
 72
8
 73
4
 74
0
 40
0
 40
0
 40
0
 40
0
 40
1
 40
1
 40
1
 40
1
 10
37.014612
 20
267.620470
 30
0.0
 10
37.014612
 20
267.673492
 30
0.0
 10
36.994222
 20
267.724342
 30
0.0
 10
36.957927
 20
267.761834
 30
0.0
  0
SPLINE
  5
125
100
AcDbEntity
  8
Layer_1
 62
7
100
AcDbSpline
 70
8
 71
3
 72
8
 73
4
 74
0
 40
0
 40
0
 40
0
 40
0
 40
1
 40
1
 40
1
 40
1
 10
36.957927
 20
267.761834
 30
0.0
 10
36.921631
 20
267.799325
 30
0.0
 10
36.872404
 20
267.820388
 30
0.0
 10
36.821075
 20
267.820388
 30
0.0
  0
LWPOLYLINE
  5
126
100
AcDbEntity
  8
Layer_1
 62
7
100
AcDbPolyline
 90
3
 70
0
 10
36.352043
 20
267.821137
 30
0.0
 10
36.821078
 20
268.305635
 30
0.0
 10
37.290191
 20
267.821054
 30
0.0
  0
SPLINE
  5
127
100
AcDbEntity
  8
Layer_1
 62
1
100
AcDbSpline
 70
8
 71
3
 72
8
 73
4
 74
0
 40
0
 40
0
 40
0
 40
0
 40
1
 40
1
 40
1
 40
1
 10
36.821075
 20
267.249438
 30
0.0
 10
36.753970
 20
267.249438
 30
0.0
 10
36.693472
 20
267.207682
 30
0.0
 10
36.667792
 20
267.143641
 30
0.0
  0
SPLINE
  5
128
100
AcDbEntity
  8
Layer_1
 62
1
100
AcDbSpline
 70
8
 71
3
 72
8
 73
4
 74
0
 40
0
 40
0
 40
0
 40
0
 40
1
 40
1
 40
1
 40
1
 10
36.667792
 20
267.143641
 30
0.0
 10
36.642112
 20
267.079600
 30
0.0
 10
36.656307
 20
267.005885
 30
0.0
 10
36.703757
 20
266.956870
 30
0.0
  0
SPLINE
  5
129
100
AcDbEntity
  8
Layer_1
 62
1
100
AcDbSpline
 70
8
 71
3
 72
8
 73
4
 74
0
 40
0
 40
0
 40
0
 40
0
 40
1
 40
1
 40
1
 40
1
 10
36.703757
 20
266.956870
 30
0.0
 10
36.751208
 20
266.907856
 30
0.0
 10
36.822570
 20
266.893193
 30
0.0
 10
36.884567
 20
266.919720
 30
0.0
  0
SPLINE
  5
12a
100
AcDbEntity
  8
Layer_1
 62
1
100
AcDbSpline
 70
8
 71
3
 72
8
 73
4
 74
0
 40
0
 40
0
 40
0
 40
0
 40
1
 40
1
 40
1
 40
1
 10
36.884567
 20
266.919720
 30
0.0
 10
36.946564
 20
266.946246
 30
0.0
 10
36.986987
 20
267.008738
 30
0.0
 10
36.986987
 20
267.078056
 30
0.0
  0
SPLINE
  5
12b
100
AcDbEntity
  8
Layer_1
 62
1
100
AcDbSpline
 70
8
 71
3
 72
8
 73
4
 74
0
 40
0
 40
0
 40
0
 40
0
 40
1
 40
1
 40
1
 40
1
 10
36.986987
 20
267.078056
 30
0.0
 10
36.986987
 20
267.123509
 30
0.0
 10
36.969507
 20
267.167101
 30
0.0
 10
36.938393
 20
267.199242
 30
0.0
  0
SPLINE
  5
12c
100
AcDbEntity
  8
Layer_1
 62
1
100
AcDbSpline
 70
8
 71
3
 72
8
 73
4
 74
0
 40
0
 40
0
 40
0
 40
0
 40
1
 40
1
 40
1
 40
1
 10
36.938393
 20
267.199242
 30
0.0
 10
36.907278
 20
267.231382
 30
0.0
 10
36.865078
 20
267.249438
 30
0.0
 10
36.821075
 20
267.249438
 30
0.0
  0
LWPOLYLINE
  5
12d
100
AcDbEntity
  8
Layer_1
 62
7
100
AcDbPolyline
 90
1
 70
1
 10
36.821075
 20
267.820388
 30
0.0
  0
SPLINE
  5
12e
100
AcDbEntity
  8
Layer_1
 62
7
100
AcDbSpline
 70
8
 71
3
 72
8
 73
4
 74
0
 40
0
 40
0
 40
0
 40
0
 40
1
 40
1
 40
1
 40
1
 10
36.821075
 20
266.678408
 30
0.0
 10
36.776483
 20
266.678408
 30
0.0
 10
36.736282
 20
266.650661
 30
0.0
 10
36.719218
 20
266.608106
 30
0.0
  0
SPLINE
  5
12f
100
AcDbEntity
  8
Layer_1
 62
7
100
AcDbSpline
 70
8
 71
3
 72
8
 73
4
 74
0
 40
0
 40
0
 40
0
 40
0
 40
1
 40
1
 40
1
 40
1
 10
36.719218
 20
266.608106
 30
0.0
 10
36.702153
 20
266.565550
 30
0.0
 10
36.711586
 20
266.516566
 30
0.0
 10
36.743117
 20
266.483996
 30
0.0
  0
SPLINE
  5
130
100
AcDbEntity
  8
Layer_1
 62
7
100
AcDbSpline
 70
8
 71
3
 72
8
 73
4
 74
0
 40
0
 40
0
 40
0
 40
0
 40
1
 40
1
 40
1
 40
1
 10
36.743117
 20
266.483996
 30
0.0
 10
36.774648
 20
266.451425
 30
0.0
 10
36.822068
 20
266.441681
 30
0.0
 10
36.863266
 20
266.459308
 30
0.0
  0
SPLINE
  5
131
100
AcDbEntity
  8
Layer_1
 62
7
100
AcDbSpline
 70
8
 71
3
 72
8
 73
4
 74
0
 40
0
 40
0
 40
0
 40
0
 40
1
 40
1
 40
1
 40
1
 10
36.863266
 20
266.459308
 30
0.0
 10
36.904463
 20
266.476936
 30
0.0
 10
36.931325
 20
266.518462
 30
0.0
 10
36.931325
 20
266.564524
 30
0.0
  0
SPLINE
  5
132
100
AcDbEntity
  8
Layer_1
 62
7
100
AcDbSpline
 70
8
 71
3
 72
8
 73
4
 74
0
 40
0
 40
0
 40
0
 40
0
 40
1
 40
1
 40
1
 40
1
 10
36.931325
 20
266.564524
 30
0.0
 10
36.931325
 20
266.594728
 30
0.0
 10
36.919709
 20
266.623695
 30
0.0
 10
36.899033
 20
266.645052
 30
0.0
  0
SPLINE
  5
133
100
AcDbEntity
  8
Layer_1
 62
7
100
AcDbSpline
 70
8
 71
3
 72
8
 73
4
 74
0
 40
0
 40
0
 40
0
 40
0
 40
1
 40
1
 40
1
 40
1
 10
36.899033
 20
266.645052
 30
0.0
 10
36.878357
 20
266.666410
 30
0.0
 10
36.850315
 20
266.678408
 30
0.0
 10
36.821075
 20
266.678408
 30
0.0
  0
LWPOLYLINE
  5
134
100
AcDbEntity
  8
Layer_1
 62
1
100
AcDbPolyline
 90
1
 70
1
 10
36.821075
 20
267.249438
 30
0.0
  0
SPLINE
  5
135
100
AcDbEntity
  8
Layer_1
 62
7
100
AcDbSpline
 70
8
 71
3
 72
8
 73
4
 74
0
 40
0
 40
0
 40
0
 40
0
 40
1
 40
1
 40
1
 40
1
 10
36.821075
 20
265.736104
 30
0.0
 10
36.787524
 20
265.736104
 30
0.0
 10
36.757276
 20
265.715227
 30
0.0
 10
36.744437
 20
265.683208
 30
0.0
  0
SPLINE
  5
136
100
AcDbEntity
  8
Layer_1
 62
7
100
AcDbSpline
 70
8
 71
3
 72
8
 73
4
 74
0
 40
0
 40
0
 40
0
 40
0
 40
1
 40
1
 40
1
 40
1
 10
36.744437
 20
265.683208
 30
0.0
 10
36.731598
 20
265.651189
 30
0.0
 10
36.738695
 20
265.614333
 30
0.0
 10
36.762419
 20
265.589827
 30
0.0
  0
SPLINE
  5
137
100
AcDbEntity
  8
Layer_1
 62
7
100
AcDbSpline
 70
8
 71
3
 72
8
 73
4
 74
0
 40
0
 40
0
 40
0
 40
0
 40
1
 40
1
 40
1
 40
1
 10
36.762419
 20
265.589827
 30
0.0
 10
36.786143
 20
265.565321
 30
0.0
 10
36.821822
 20
265.557990
 30
0.0
 10
36.852819
 20
265.571252
 30
0.0
  0
SPLINE
  5
138
100
AcDbEntity
  8
Layer_1
 62
7
100
AcDbSpline
 70
8
 71
3
 72
8
 73
4
 74
0
 40
0
 40
0
 40
0
 40
0
 40
1
 40
1
 40
1
 40
1
 10
36.852819
 20
265.571252
 30
0.0
 10
36.883817
 20
265.584515
 30
0.0
 10
36.904027
 20
265.615760
 30
0.0
 10
36.904027
 20
265.650417
 30
0.0
  0
SPLINE
  5
139
100
AcDbEntity
  8
Layer_1
 62
7
100
AcDbSpline
 70
8
 71
3
 72
8
 73
4
 74
0
 40
0
 40
0
 40
0
 40
0
 40
1
 40
1
 40
1
 40
1
 10
36.904027
 20
265.650417
 30
0.0
 10
36.904027
 20
265.673143
 30
0.0
 10
36.895288
 20
265.694938
 30
0.0
 10
36.879731
 20
265.711007
 30
0.0
  0
SPLINE
  5
13a
100
AcDbEntity
  8
Layer_1
 62
7
100
AcDbSpline
 70
8
 71
3
 72
8
 73
4
 74
0
 40
0
 40
0
 40
0
 40
0
 40
1
 40
1
 40
1
 40
1
 10
36.879731
 20
265.711007
 30
0.0
 10
36.864175
 20
265.727076
 30
0.0
 10
36.843075
 20
265.736104
 30
0.0
 10
36.821075
 20
265.736104
 30
0.0
  0
LWPOLYLINE
  5
13b
100
AcDbEntity
  8
Layer_1
 62
7
100
AcDbPolyline
 90
1
 70
1
 10
36.821075
 20
266.678408
 30
0.0
  0
LWPOLYLINE
  5
13c
100
AcDbEntity
  8
Layer_1
 62
7
100
AcDbPolyline
 90
1
 70
1
 10
36.821075
 20
265.736104
 30
0.0
  0
LWPOLYLINE
  5
13d
100
AcDbEntity
  8
Layer_1
 62
7
100
AcDbPolyline
 90
2
 70
0
 10
36.821078
 20
263.761591
 30
0.0
 10
38.650662
 20
265.651494
 30
0.0
  0
LWPOLYLINE
  5
13e
100
AcDbEntity
  8
Layer_1
 62
7
100
AcDbPolyline
 90
2
 70
0
 10
36.821078
 20
263.761591
 30
0.0
 10
34.990388
 20
265.652634
 30
0.0
  0
LWPOLYLINE
  5
13f
100
AcDbEntity
  8
Layer_1
 62
7
100
AcDbPolyline
 90
2
 70
0
 10
36.826016
 20
263.766802
 30
0.0
 10
36.810676
 20
263.750962
 30
0.0
  0
LWPOLYLINE
  5
140
100
AcDbEntity
  8
Layer_1
 62
7
100
AcDbPolyline
 90
4
 70
0
 10
31.087374
 20
266.269886
 30
0.0
 10
30.976486
 20
266.384431
 30
0.0
 10
31.316432
 20
266.377531
 30
0.0
 10
31.377412
 20
266.314541
 30
0.0
  0
LWPOLYLINE
  5
141
100
AcDbEntity
  8
Layer_1
 62
7
100
AcDbPolyline
 90
4
 70
0
 10
42.548178
 20
266.427228
 30
0.0
 10
42.596278
 20
266.377558
 30
0.0
 10
42.264913
 20
266.377558
 30
0.0
 10
42.211973
 20
266.432248
 30
0.0
  0
LWPOLYLINE
  5
142
100
AcDbEntity
  8
Layer_1
 62
7
100
AcDbPolyline
 90
2
 70
0
 10
32.356861
 20
267.452841
 30
0.0
 10
35.742289
 20
270.950372
 30
0.0
  0
LWPOLYLINE
  5
143
100
AcDbEntity
  8
Layer_1
 62
7
100
AcDbPolyline
 90
2
 70
0
 10
32.356861
 20
269.279413
 30
0.0
 10
33.973810
 20
270.950372
 30
0.0
  0
LWPOLYLINE
  5
144
100
AcDbEntity
  8
Layer_1
 62
7
100
AcDbPolyline
 90
2
 70
0
 10
41.217039
 20
265.295659
 30
0.0
 10
37.831611
 20
261.798128
 30
0.0
  0
LWPOLYLINE
  5
145
100
AcDbEntity
  8
Layer_1
 62
7
100
AcDbPolyline
 90
2
 70
0
 10
41.217039
 20
263.469087
 30
0.0
 10
39.600090
 20
261.798128
 30
0.0
  0
LWPOLYLINE
  5
146
100
AcDbEntity
  8
Layer_1
 62
7
100
AcDbPolyline
 90
3
 70
0
 10
27.569516
 20
267.452859
 30
0.0
 10
32.356873
 20
267.452859
 30
0.0
 10
32.532289
 20
267.634059
 30
0.0
  0
LWPOLYLINE
  5
147
100
AcDbEntity
  8
Layer_1
 62
7
100
AcDbPolyline
 90
4
 70
0
 10
41.217042
 20
265.295631
 30
0.0
 10
45.784262
 20
265.295631
 30
0.0
 10
41.217042
 20
265.295631
 30
0.0
 10
41.003102
 20
265.074638
 30
0.0
  0
SPLINE
  5
148
100
AcDbEntity
  8
Layer_1
 62
7
100
AcDbSpline
 70
8
 71
3
 72
8
 73
4
 74
0
 40
0
 40
0
 40
0
 40
0
 40
1
 40
1
 40
1
 40
1
 10
35.408703
 20
260.837217
 30
0.0
 10
35.363901
 20
260.837217
 30
0.0
 10
35.323511
 20
260.809339
 30
0.0
 10
35.306366
 20
260.766583
 30
0.0
  0
SPLINE
  5
149
100
AcDbEntity
  8
Layer_1
 62
7
100
AcDbSpline
 70
8
 71
3
 72
8
 73
4
 74
0
 40
0
 40
0
 40
0
 40
0
 40
1
 40
1
 40
1
 40
1
 10
35.306366
 20
260.766583
 30
0.0
 10
35.289221
 20
260.723826
 30
0.0
 10
35.298698
 20
260.674612
 30
0.0
 10
35.330378
 20
260.641888
 30
0.0
  0
SPLINE
  5
14a
100
AcDbEntity
  8
Layer_1
 62
7
100
AcDbSpline
 70
8
 71
3
 72
8
 73
4
 74
0
 40
0
 40
0
 40
0
 40
0
 40
1
 40
1
 40
1
 40
1
 10
35.330378
 20
260.641888
 30
0.0
 10
35.362057
 20
260.609163
 30
0.0
 10
35.409701
 20
260.599374
 30
0.0
 10
35.451093
 20
260.617084
 30
0.0
  0
SPLINE
  5
14b
100
AcDbEntity
  8
Layer_1
 62
7
100
AcDbSpline
 70
8
 71
3
 72
8
 73
4
 74
0
 40
0
 40
0
 40
0
 40
0
 40
1
 40
1
 40
1
 40
1
 10
35.451093
 20
260.617084
 30
0.0
 10
35.492484
 20
260.634794
 30
0.0
 10
35.519472
 20
260.676517
 30
0.0
 10
35.519472
 20
260.722796
 30
0.0
  0
SPLINE
  5
14c
100
AcDbEntity
  8
Layer_1
 62
7
100
AcDbSpline
 70
8
 71
3
 72
8
 73
4
 74
0
 40
0
 40
0
 40
0
 40
0
 40
1
 40
1
 40
1
 40
1
 10
35.519472
 20
260.722796
 30
0.0
 10
35.519472
 20
260.753142
 30
0.0
 10
35.507802
 20
260.782246
 30
0.0
 10
35.487029
 20
260.803704
 30
0.0
  0
SPLINE
  5
14d
100
AcDbEntity
  8
Layer_1
 62
7
100
AcDbSpline
 70
8
 71
3
 72
8
 73
4
 74
0
 40
0
 40
0
 40
0
 40
0
 40
1
 40
1
 40
1
 40
1
 10
35.487029
 20
260.803704
 30
0.0
 10
35.466255
 20
260.825162
 30
0.0
 10
35.438081
 20
260.837217
 30
0.0
 10
35.408703
 20
260.837217
 30
0.0
  0
LWPOLYLINE
  5
14e
100
AcDbEntity
  8
Layer_1
 62
7
100
AcDbPolyline
 90
3
 70
0
 10
33.225926
 20
263.548430
 30
0.0
 10
35.961369
 20
260.722796
 30
0.0
 10
33.226189
 20
257.897433
 30
0.0
  0
SPLINE
  5
14f
100
AcDbEntity
  8
Layer_1
 62
7
100
AcDbSpline
 70
8
 71
3
 72
8
 73
4
 74
0
 40
0
 40
0
 40
0
 40
0
 40
1
 40
1
 40
1
 40
1
 10
34.745831
 20
260.779905
 30
0.0
 10
34.723470
 20
260.779905
 30
0.0
 10
34.703310
 20
260.765991
 30
0.0
 10
34.694753
 20
260.744651
 30
0.0
  0
SPLINE
  5
150
100
AcDbEntity
  8
Layer_1
 62
7
100
AcDbSpline
 70
8
 71
3
 72
8
 73
4
 74
0
 40
0
 40
0
 40
0
 40
0
 40
1
 40
1
 40
1
 40
1
 10
34.694753
 20
260.744651
 30
0.0
 10
34.686195
 20
260.723310
 30
0.0
 10
34.690926
 20
260.698746
 30
0.0
 10
34.706737
 20
260.682413
 30
0.0
  0
SPLINE
  5
151
100
AcDbEntity
  8
Layer_1
 62
7
100
AcDbSpline
 70
8
 71
3
 72
8
 73
4
 74
0
 40
0
 40
0
 40
0
 40
0
 40
1
 40
1
 40
1
 40
1
 10
34.706737
 20
260.682413
 30
0.0
 10
34.722549
 20
260.666080
 30
0.0
 10
34.746329
 20
260.661194
 30
0.0
 10
34.766988
 20
260.670033
 30
0.0
  0
SPLINE
  5
152
100
AcDbEntity
  8
Layer_1
 62
7
100
AcDbSpline
 70
8
 71
3
 72
8
 73
4
 74
0
 40
0
 40
0
 40
0
 40
0
 40
1
 40
1
 40
1
 40
1
 10
34.766988
 20
260.670033
 30
0.0
 10
34.787648
 20
260.678873
 30
0.0
 10
34.801118
 20
260.699697
 30
0.0
 10
34.801118
 20
260.722796
 30
0.0
  0
SPLINE
  5
153
100
AcDbEntity
  8
Layer_1
 62
7
100
AcDbSpline
 70
8
 71
3
 72
8
 73
4
 74
0
 40
0
 40
0
 40
0
 40
0
 40
1
 40
1
 40
1
 40
1
 10
34.801118
 20
260.722796
 30
0.0
 10
34.801118
 20
260.737942
 30
0.0
 10
34.795293
 20
260.752468
 30
0.0
 10
34.784925
 20
260.763178
 30
0.0
  0
SPLINE
  5
154
100
AcDbEntity
  8
Layer_1
 62
7
100
AcDbSpline
 70
8
 71
3
 72
8
 73
4
 74
0
 40
0
 40
0
 40
0
 40
0
 40
1
 40
1
 40
1
 40
1
 10
34.784925
 20
260.763178
 30
0.0
 10
34.774556
 20
260.773888
 30
0.0
 10
34.760494
 20
260.779905
 30
0.0
 10
34.745831
 20
260.779905
 30
0.0
  0
LWPOLYLINE
  5
155
100
AcDbEntity
  8
Layer_1
 62
7
100
AcDbPolyline
 90
1
 70
1
 10
35.408703
 20
260.837217
 30
0.0
  0
SPLINE
  5
156
100
AcDbEntity
  8
Layer_1
 62
7
100
AcDbSpline
 70
8
 71
3
 72
8
 73
4
 74
0
 40
0
 40
0
 40
0
 40
0
 40
1
 40
1
 40
1
 40
1
 10
33.972743
 20
260.780105
 30
0.0
 10
33.950304
 20
260.780105
 30
0.0
 10
33.930074
 20
260.766142
 30
0.0
 10
33.921487
 20
260.744727
 30
0.0
  0
SPLINE
  5
157
100
AcDbEntity
  8
Layer_1
 62
7
100
AcDbSpline
 70
8
 71
3
 72
8
 73
4
 74
0
 40
0
 40
0
 40
0
 40
0
 40
1
 40
1
 40
1
 40
1
 10
33.921487
 20
260.744727
 30
0.0
 10
33.912899
 20
260.723312
 30
0.0
 10
33.917646
 20
260.698662
 30
0.0
 10
33.933513
 20
260.682272
 30
0.0
  0
SPLINE
  5
158
100
AcDbEntity
  8
Layer_1
 62
7
100
AcDbSpline
 70
8
 71
3
 72
8
 73
4
 74
0
 40
0
 40
0
 40
0
 40
0
 40
1
 40
1
 40
1
 40
1
 10
33.933513
 20
260.682272
 30
0.0
 10
33.949380
 20
260.665882
 30
0.0
 10
33.973243
 20
260.660979
 30
0.0
 10
33.993974
 20
260.669849
 30
0.0
  0
SPLINE
  5
159
100
AcDbEntity
  8
Layer_1
 62
7
100
AcDbSpline
 70
8
 71
3
 72
8
 73
4
 74
0
 40
0
 40
0
 40
0
 40
0
 40
1
 40
1
 40
1
 40
1
 10
33.993974
 20
260.669849
 30
0.0
 10
34.014706
 20
260.678719
 30
0.0
 10
34.028223
 20
260.699616
 30
0.0
 10
34.028223
 20
260.722796
 30
0.0
  0
SPLINE
  5
15a
100
AcDbEntity
  8
Layer_1
 62
7
100
AcDbSpline
 70
8
 71
3
 72
8
 73
4
 74
0
 40
0
 40
0
 40
0
 40
0
 40
1
 40
1
 40
1
 40
1
 10
34.028223
 20
260.722796
 30
0.0
 10
34.028223
 20
260.737995
 30
0.0
 10
34.022378
 20
260.752572
 30
0.0
 10
34.011973
 20
260.763319
 30
0.0
  0
SPLINE
  5
15b
100
AcDbEntity
  8
Layer_1
 62
7
100
AcDbSpline
 70
8
 71
3
 72
8
 73
4
 74
0
 40
0
 40
0
 40
0
 40
0
 40
1
 40
1
 40
1
 40
1
 10
34.011973
 20
260.763319
 30
0.0
 10
34.001569
 20
260.774067
 30
0.0
 10
33.987457
 20
260.780105
 30
0.0
 10
33.972743
 20
260.780105
 30
0.0
  0
LWPOLYLINE
  5
15c
100
AcDbEntity
  8
Layer_1
 62
7
100
AcDbPolyline
 90
1
 70
1
 10
34.745831
 20
260.779905
 30
0.0
  0
LWPOLYLINE
  5
15d
100
AcDbEntity
  8
Layer_1
 62
7
100
AcDbPolyline
 90
1
 70
1
 10
33.972743
 20
260.780105
 30
0.0
  0
SPLINE
  5
15e
100
AcDbEntity
  8
Layer_1
 62
7
100
AcDbSpline
 70
8
 71
3
 72
8
 73
4
 74
0
 40
0
 40
0
 40
0
 40
0
 40
1
 40
1
 40
1
 40
1
 10
38.171697
 20
272.146607
 30
0.0
 10
38.216499
 20
272.146607
 30
0.0
 10
38.256889
 20
272.118729
 30
0.0
 10
38.274034
 20
272.075973
 30
0.0
  0
SPLINE
  5
15f
100
AcDbEntity
  8
Layer_1
 62
7
100
AcDbSpline
 70
8
 71
3
 72
8
 73
4
 74
0
 40
0
 40
0
 40
0
 40
0
 40
1
 40
1
 40
1
 40
1
 10
38.274034
 20
272.075973
 30
0.0
 10
38.291179
 20
272.033216
 30
0.0
 10
38.281702
 20
271.984002
 30
0.0
 10
38.250022
 20
271.951278
 30
0.0
  0
SPLINE
  5
160
100
AcDbEntity
  8
Layer_1
 62
7
100
AcDbSpline
 70
8
 71
3
 72
8
 73
4
 74
0
 40
0
 40
0
 40
0
 40
0
 40
1
 40
1
 40
1
 40
1
 10
38.250022
 20
271.951278
 30
0.0
 10
38.218343
 20
271.918553
 30
0.0
 10
38.170699
 20
271.908764
 30
0.0
 10
38.129307
 20
271.926474
 30
0.0
  0
SPLINE
  5
161
100
AcDbEntity
  8
Layer_1
 62
7
100
AcDbSpline
 70
8
 71
3
 72
8
 73
4
 74
0
 40
0
 40
0
 40
0
 40
0
 40
1
 40
1
 40
1
 40
1
 10
38.129307
 20
271.926474
 30
0.0
 10
38.087916
 20
271.944184
 30
0.0
 10
38.060928
 20
271.985907
 30
0.0
 10
38.060928
 20
272.032186
 30
0.0
  0
SPLINE
  5
162
100
AcDbEntity
  8
Layer_1
 62
7
100
AcDbSpline
 70
8
 71
3
 72
8
 73
4
 74
0
 40
0
 40
0
 40
0
 40
0
 40
1
 40
1
 40
1
 40
1
 10
38.060928
 20
272.032186
 30
0.0
 10
38.060928
 20
272.062532
 30
0.0
 10
38.072598
 20
272.091636
 30
0.0
 10
38.093371
 20
272.113094
 30
0.0
  0
SPLINE
  5
163
100
AcDbEntity
  8
Layer_1
 62
7
100
AcDbSpline
 70
8
 71
3
 72
8
 73
4
 74
0
 40
0
 40
0
 40
0
 40
0
 40
1
 40
1
 40
1
 40
1
 10
38.093371
 20
272.113094
 30
0.0
 10
38.114145
 20
272.134552
 30
0.0
 10
38.142319
 20
272.146607
 30
0.0
 10
38.171697
 20
272.146607
 30
0.0
  0
LWPOLYLINE
  5
164
100
AcDbEntity
  8
Layer_1
 62
7
100
AcDbPolyline
 90
3
 70
0
 10
40.354474
 20
274.857820
 30
0.0
 10
37.619031
 20
272.032186
 30
0.0
 10
40.354211
 20
269.206823
 30
0.0
  0
SPLINE
  5
165
100
AcDbEntity
  8
Layer_1
 62
7
100
AcDbSpline
 70
8
 71
3
 72
8
 73
4
 74
0
 40
0
 40
0
 40
0
 40
0
 40
1
 40
1
 40
1
 40
1
 10
38.834569
 20
272.089295
 30
0.0
 10
38.856930
 20
272.089295
 30
0.0
 10
38.877090
 20
272.075381
 30
0.0
 10
38.885647
 20
272.054041
 30
0.0
  0
SPLINE
  5
166
100
AcDbEntity
  8
Layer_1
 62
7
100
AcDbSpline
 70
8
 71
3
 72
8
 73
4
 74
0
 40
0
 40
0
 40
0
 40
0
 40
1
 40
1
 40
1
 40
1
 10
38.885647
 20
272.054041
 30
0.0
 10
38.894205
 20
272.032700
 30
0.0
 10
38.889474
 20
272.008136
 30
0.0
 10
38.873663
 20
271.991803
 30
0.0
  0
SPLINE
  5
167
100
AcDbEntity
  8
Layer_1
 62
7
100
AcDbSpline
 70
8
 71
3
 72
8
 73
4
 74
0
 40
0
 40
0
 40
0
 40
0
 40
1
 40
1
 40
1
 40
1
 10
38.873663
 20
271.991803
 30
0.0
 10
38.857851
 20
271.975470
 30
0.0
 10
38.834071
 20
271.970584
 30
0.0
 10
38.813412
 20
271.979423
 30
0.0
  0
SPLINE
  5
168
100
AcDbEntity
  8
Layer_1
 62
7
100
AcDbSpline
 70
8
 71
3
 72
8
 73
4
 74
0
 40
0
 40
0
 40
0
 40
0
 40
1
 40
1
 40
1
 40
1
 10
38.813412
 20
271.979423
 30
0.0
 10
38.792752
 20
271.988263
 30
0.0
 10
38.779282
 20
272.009087
 30
0.0
 10
38.779282
 20
272.032186
 30
0.0
  0
SPLINE
  5
169
100
AcDbEntity
  8
Layer_1
 62
7
100
AcDbSpline
 70
8
 71
3
 72
8
 73
4
 74
0
 40
0
 40
0
 40
0
 40
0
 40
1
 40
1
 40
1
 40
1
 10
38.779282
 20
272.032186
 30
0.0
 10
38.779282
 20
272.047332
 30
0.0
 10
38.785107
 20
272.061858
 30
0.0
 10
38.795475
 20
272.072568
 30
0.0
  0
SPLINE
  5
16a
100
AcDbEntity
  8
Layer_1
 62
7
100
AcDbSpline
 70
8
 71
3
 72
8
 73
4
 74
0
 40
0
 40
0
 40
0
 40
0
 40
1
 40
1
 40
1
 40
1
 10
38.795475
 20
272.072568
 30
0.0
 10
38.805844
 20
272.083278
 30
0.0
 10
38.819906
 20
272.089295
 30
0.0
 10
38.834569
 20
272.089295
 30
0.0
  0
LWPOLYLINE
  5
16b
100
AcDbEntity
  8
Layer_1
 62
7
100
AcDbPolyline
 90
1
 70
1
 10
38.171697
 20
272.146607
 30
0.0
  0
SPLINE
  5
16c
100
AcDbEntity
  8
Layer_1
 62
7
100
AcDbSpline
 70
8
 71
3
 72
8
 73
4
 74
0
 40
0
 40
0
 40
0
 40
0
 40
1
 40
1
 40
1
 40
1
 10
39.607657
 20
272.089495
 30
0.0
 10
39.630096
 20
272.089495
 30
0.0
 10
39.650326
 20
272.075532
 30
0.0
 10
39.658913
 20
272.054117
 30
0.0
  0
SPLINE
  5
16d
100
AcDbEntity
  8
Layer_1
 62
7
100
AcDbSpline
 70
8
 71
3
 72
8
 73
4
 74
0
 40
0
 40
0
 40
0
 40
0
 40
1
 40
1
 40
1
 40
1
 10
39.658913
 20
272.054117
 30
0.0
 10
39.667501
 20
272.032702
 30
0.0
 10
39.662754
 20
272.008052
 30
0.0
 10
39.646887
 20
271.991662
 30
0.0
  0
SPLINE
  5
16e
100
AcDbEntity
  8
Layer_1
 62
7
100
AcDbSpline
 70
8
 71
3
 72
8
 73
4
 74
0
 40
0
 40
0
 40
0
 40
0
 40
1
 40
1
 40
1
 40
1
 10
39.646887
 20
271.991662
 30
0.0
 10
39.631020
 20
271.975272
 30
0.0
 10
39.607157
 20
271.970369
 30
0.0
 10
39.586426
 20
271.979239
 30
0.0
  0
SPLINE
  5
16f
100
AcDbEntity
  8
Layer_1
 62
7
100
AcDbSpline
 70
8
 71
3
 72
8
 73
4
 74
0
 40
0
 40
0
 40
0
 40
0
 40
1
 40
1
 40
1
 40
1
 10
39.586426
 20
271.979239
 30
0.0
 10
39.565694
 20
271.988109
 30
0.0
 10
39.552177
 20
272.009006
 30
0.0
 10
39.552177
 20
272.032186
 30
0.0
  0
SPLINE
  5
170
100
AcDbEntity
  8
Layer_1
 62
7
100
AcDbSpline
 70
8
 71
3
 72
8
 73
4
 74
0
 40
0
 40
0
 40
0
 40
0
 40
1
 40
1
 40
1
 40
1
 10
39.552177
 20
272.032186
 30
0.0
 10
39.552177
 20
272.047385
 30
0.0
 10
39.558022
 20
272.061962
 30
0.0
 10
39.568427
 20
272.072709
 30
0.0
  0
SPLINE
  5
171
100
AcDbEntity
  8
Layer_1
 62
7
100
AcDbSpline
 70
8
 71
3
 72
8
 73
4
 74
0
 40
0
 40
0
 40
0
 40
0
 40
1
 40
1
 40
1
 40
1
 10
39.568427
 20
272.072709
 30
0.0
 10
39.578831
 20
272.083457
 30
0.0
 10
39.592943
 20
272.089495
 30
0.0
 10
39.607657
 20
272.089495
 30
0.0
  0
LWPOLYLINE
  5
172
100
AcDbEntity
  8
Layer_1
 62
7
100
AcDbPolyline
 90
1
 70
1
 10
38.834569
 20
272.089295
 30
0.0
  0
LWPOLYLINE
  5
173
100
AcDbEntity
  8
Layer_1
 62
7
100
AcDbPolyline
 90
1
 70
1
 10
39.607657
 20
272.089495
 30
0.0
  0
LWPOLYLINE
  5
174
100
AcDbEntity
  8
Layer_1
 62
7
100
AcDbPolyline
 90
3
 70
0
 10
32.101955
 20
255.879547
 30
0.0
 10
36.790667
 20
260.722841
 30
0.0
 10
31.377411
 20
266.314572
 30
0.0
  0
LWPOLYLINE
  5
175
100
AcDbEntity
  8
Layer_1
 62
7
100
AcDbPolyline
 90
2
 70
0
 10
36.458583
 20
260.722841
 30
0.0
 10
31.769432
 20
255.879098
 30
0.0
  0
LWPOLYLINE
  5
176
100
AcDbEntity
  8
Layer_1
 62
7
100
AcDbPolyline
 90
4
 70
0
 10
31.941731
 20
256.057069
 30
0.0
 10
31.769432
 20
255.879091
 30
0.0
 10
32.101955
 20
255.879442
 30
0.0
 10
32.216917
 20
255.998202
 30
0.0
  0
LWPOLYLINE
  5
177
100
AcDbEntity
  8
Layer_1
 62
7
100
AcDbPolyline
 90
3
 70
0
 10
41.810850
 20
276.875451
 30
0.0
 10
37.122247
 20
272.032271
 30
0.0
 10
42.548178
 20
266.427228
 30
0.0
  0
LWPOLYLINE
  5
178
100
AcDbEntity
  8
Layer_1
 62
7
100
AcDbPolyline
 90
5
 70
0
 10
41.697722
 20
276.758603
 30
0.0
 10
41.810849
 20
276.875458
 30
0.0
 10
41.479544
 20
276.875686
 30
0.0
 10
36.790666
 20
272.032221
 30
0.0
 10
42.211957
 20
266.432197
 30
0.0
  0
ENDSEC
  0
SECTION
  2
OBJECTS
  0
DICTIONARY
  5
C
330
0
100
AcDbDictionary
  3
ACAD_GROUP
350
D
  3
ACAD_MLINESTYLE
350
17
  0
DICTIONARY
  5
D
330
C
100
AcDbDictionary
  0
DICTIONARY
  5
1A
330
C
100
AcDbDictionary
  0
DICTIONARY
  5
17
330
C
100
AcDbDictionary
  3
STANDARD
350
18
  0
DICTIONARY
  5
19
330
C
100
AcDbDictionary
  0
ENDSEC
  0
EOF
