%TF.GenerationSoftware,KiCad,Pcbnew,5.1.9*%
%TF.CreationDate,2021-04-18T16:48:49+02:00*%
%TF.ProjectId,Crystal-Zeliska,43727973-7461-46c2-9d5a-656c69736b61,rev?*%
%TF.SameCoordinates,Original*%
%TF.FileFunction,Legend,Top*%
%TF.FilePolarity,Positive*%
%FSLAX46Y46*%
G04 Gerber Fmt 4.6, Leading zero omitted, Abs format (unit mm)*
G04 Created by KiCad (PCBNEW 5.1.9) date 2021-04-18 16:48:49*
%MOMM*%
%LPD*%
G01*
G04 APERTURE LIST*
%ADD10C,0.200000*%
%ADD11C,0.150000*%
%ADD12C,0.120000*%
G04 APERTURE END LIST*
D10*
X219464418Y-100098270D02*
X219503512Y-100081543D01*
X219448225Y-100138652D02*
X219464418Y-100098270D01*
X212438375Y-116291747D02*
X212770897Y-116291396D01*
X212610674Y-116113769D02*
X212438375Y-116291747D01*
X217494959Y-108404037D02*
X217479619Y-108419876D01*
X217490021Y-108409247D02*
X215659331Y-106518205D01*
X217459610Y-100138567D02*
X217791190Y-100138567D01*
X214590430Y-111426111D02*
X214602456Y-111488566D01*
X214641686Y-111390733D02*
X214590430Y-111426111D01*
X215999321Y-111528950D02*
X216120036Y-111553755D01*
X215975309Y-111404255D02*
X215999321Y-111528950D01*
X223217121Y-105743610D02*
X223265221Y-105793280D01*
X211985375Y-105793308D02*
X212046355Y-105856297D01*
X217490018Y-105492430D02*
X217490018Y-105492430D01*
X217548674Y-106459831D02*
X217490018Y-106434734D01*
X215470061Y-111448042D02*
X215453868Y-111407661D01*
X215435931Y-111500805D02*
X215470061Y-111448042D01*
X216077646Y-111333621D02*
X215975309Y-111404255D01*
X221885985Y-106875207D02*
X221672045Y-107096200D01*
X222366665Y-95412235D02*
X222479792Y-95295380D01*
X217791190Y-100138567D02*
X223217121Y-105743610D01*
X218942977Y-100094865D02*
X218918965Y-100219560D01*
X218840640Y-100024231D02*
X218942977Y-100094865D01*
X214662917Y-111500989D02*
X214697166Y-111448042D01*
X214602456Y-111488566D02*
X214662917Y-111500989D01*
X215414774Y-111390933D02*
X215363696Y-111426188D01*
X216630312Y-111448042D02*
X213895131Y-114273406D01*
X217372700Y-105213969D02*
X217553510Y-105251119D01*
X217336735Y-105027197D02*
X217372700Y-105213969D01*
X217490018Y-104921400D02*
X217336735Y-105027197D01*
X217490021Y-103865203D02*
X217959134Y-104349784D01*
X217458037Y-101816899D02*
X221312425Y-105798362D01*
X219482355Y-100191415D02*
X219448225Y-100138652D01*
X219542606Y-100179035D02*
X219482355Y-100191415D01*
X217683555Y-104550368D02*
X217626870Y-104409004D01*
X217564082Y-104735068D02*
X217682329Y-104572871D01*
X217682329Y-104572871D02*
X217683555Y-104550368D01*
X219417657Y-106589549D02*
X219274511Y-106737413D01*
X219274511Y-106737413D02*
X219133003Y-106883587D01*
X219133003Y-106883587D02*
X218993666Y-107027518D01*
X218993666Y-107027518D02*
X218812181Y-107214986D01*
X218812181Y-107214986D02*
X218636767Y-107396183D01*
X218636767Y-107396183D02*
X218468689Y-107569803D01*
X218468689Y-107569803D02*
X218309209Y-107734540D01*
X218309209Y-107734540D02*
X218159593Y-107889089D01*
X218159593Y-107889089D02*
X218054614Y-107997530D01*
X217490023Y-103008856D02*
X220187044Y-105794797D01*
X215562389Y-105000042D02*
X215705534Y-104852177D01*
X215705534Y-104852177D02*
X215847042Y-104706004D01*
X215847042Y-104706004D02*
X215986379Y-104562073D01*
X215986379Y-104562073D02*
X216167864Y-104374605D01*
X216167864Y-104374605D02*
X216343278Y-104193408D01*
X216343278Y-104193408D02*
X216511356Y-104019788D01*
X216511356Y-104019788D02*
X216670836Y-103855050D01*
X216670836Y-103855050D02*
X216820452Y-103700501D01*
X216820452Y-103700501D02*
X216925432Y-103592061D01*
X217490023Y-108580735D02*
X214793002Y-105794797D01*
X217459609Y-100138617D02*
X222880900Y-105738642D01*
X217490018Y-106434734D02*
X217413380Y-106487631D01*
X217490018Y-104921400D02*
X217490018Y-104921400D01*
X217490018Y-104350451D02*
X217490018Y-104350451D01*
X217607336Y-104971596D02*
X217490018Y-104921400D01*
X218287974Y-100138652D02*
X221023154Y-102964015D01*
X221023417Y-97313018D02*
X218287974Y-100138652D01*
X217458037Y-101816899D02*
X217458037Y-101816899D01*
X215531283Y-103807177D02*
X215530403Y-103808085D01*
X216720635Y-103803610D02*
X215562389Y-105000042D01*
X216925432Y-103592061D02*
X217083113Y-103429181D01*
X217083113Y-103429181D02*
X217240260Y-103266853D01*
X217240260Y-103266853D02*
X217392465Y-103109629D01*
X217392465Y-103109629D02*
X217490023Y-103008856D01*
X217388161Y-105562732D02*
X217412060Y-105686842D01*
X217490018Y-105492430D02*
X217388161Y-105562732D01*
X213025816Y-104717979D02*
X213201232Y-104536780D01*
X208238459Y-104717979D02*
X213025816Y-104717979D01*
X218022628Y-109196621D02*
X217864946Y-109359500D01*
X217864946Y-109359500D02*
X217707799Y-109521828D01*
X217707799Y-109521828D02*
X217555594Y-109679052D01*
X217555594Y-109679052D02*
X217458037Y-109779826D01*
X218798250Y-100244364D02*
X218729871Y-100138652D01*
X218918965Y-100219560D02*
X218798250Y-100244364D01*
X219503512Y-100081543D02*
X219503512Y-100081543D01*
X220237370Y-100098129D02*
X220276600Y-100081343D01*
X222479793Y-95295387D02*
X217791190Y-100138567D01*
X212770897Y-116291396D02*
X212885860Y-116172636D01*
X217490018Y-104350451D02*
X217317297Y-104460166D01*
X217317297Y-104460166D02*
X217311213Y-104473863D01*
X218114961Y-103825693D02*
X218740127Y-104471474D01*
X212770897Y-116291291D02*
X217459610Y-111447997D01*
X220276600Y-100081343D02*
X220276600Y-100081343D01*
X222933856Y-105793280D02*
X222880916Y-105738590D01*
X223265221Y-105793280D02*
X222933856Y-105793280D01*
X211645429Y-105786407D02*
X211985375Y-105793308D01*
X211756317Y-105900952D02*
X211645429Y-105786407D01*
X226453205Y-106875207D02*
X221885985Y-106875207D01*
X221885985Y-106875207D02*
X226453205Y-106875207D01*
X214680916Y-111407519D02*
X214641686Y-111390733D01*
X214697166Y-111448042D02*
X214680916Y-111407519D01*
X213894869Y-108622408D02*
X216630312Y-111448042D01*
X216155972Y-111367135D02*
X216077646Y-111333621D01*
X217490021Y-108409247D02*
X219319605Y-106519344D01*
X217490018Y-106434734D02*
X217490018Y-106434734D01*
X217431362Y-106581011D02*
X217521762Y-106599586D01*
X217413380Y-106487631D02*
X217431362Y-106581011D01*
X216077646Y-111333621D02*
X216077646Y-111333621D01*
X215453868Y-111407661D02*
X215414774Y-111390933D01*
X221885982Y-108701751D02*
X220269033Y-110372710D01*
X221885982Y-106875179D02*
X218500554Y-110372710D01*
X221312425Y-105798362D02*
X221165692Y-105949932D01*
X221165692Y-105949932D02*
X221014264Y-106106351D01*
X221014264Y-106106351D02*
X220845292Y-106280895D01*
X220845292Y-106280895D02*
X220747834Y-106381567D01*
X219622453Y-106378000D02*
X219481063Y-106524051D01*
X219481063Y-106524051D02*
X219328862Y-106681270D01*
X219328862Y-106681270D02*
X219167114Y-106848350D01*
X219167114Y-106848350D02*
X218997084Y-107023987D01*
X218997084Y-107023987D02*
X218820034Y-107206874D01*
X218820034Y-107206874D02*
X218637229Y-107395706D01*
X218637229Y-107395706D02*
X218497109Y-107540446D01*
X218497109Y-107540446D02*
X218354995Y-107687244D01*
X218354995Y-107687244D02*
X218259410Y-107785982D01*
X220187044Y-105794797D02*
X220040311Y-105946366D01*
X220040311Y-105946366D02*
X219888884Y-106102786D01*
X219888884Y-106102786D02*
X219719911Y-106277328D01*
X219719911Y-106277328D02*
X219622453Y-106378000D01*
X220315830Y-100179176D02*
X220255369Y-100191599D01*
X220327856Y-100116721D02*
X220315830Y-100179176D01*
X220747834Y-106381567D02*
X220606443Y-106527618D01*
X220606443Y-106527618D02*
X220454243Y-106684837D01*
X220454243Y-106684837D02*
X220292495Y-106851918D01*
X220292495Y-106851918D02*
X220122464Y-107027554D01*
X220122464Y-107027554D02*
X219945414Y-107210441D01*
X219945414Y-107210441D02*
X219762609Y-107399273D01*
X219762609Y-107399273D02*
X219622489Y-107544013D01*
X219622489Y-107544013D02*
X219480376Y-107690811D01*
X219480376Y-107690811D02*
X219384791Y-107789549D01*
X217458037Y-109779826D02*
X213603649Y-105798362D01*
X214168240Y-105215157D02*
X214309629Y-105069106D01*
X214309629Y-105069106D02*
X214461830Y-104911887D01*
X214461830Y-104911887D02*
X214623578Y-104744807D01*
X214623578Y-104744807D02*
X214793609Y-104569171D01*
X214793609Y-104569171D02*
X214970659Y-104386284D01*
X214970659Y-104386284D02*
X215153464Y-104197452D01*
X215153464Y-104197452D02*
X215293584Y-104052712D01*
X215293584Y-104052712D02*
X215435697Y-103905914D01*
X215435697Y-103905914D02*
X215531283Y-103807177D01*
X222148487Y-95295152D02*
X217459609Y-100138617D01*
X222479792Y-95295380D02*
X222148487Y-95295152D01*
X215375680Y-111488425D02*
X215435931Y-111500805D01*
X215363696Y-111426188D02*
X215375680Y-111488425D01*
X215357593Y-105211591D02*
X215498982Y-105065539D01*
X215498982Y-105065539D02*
X215651183Y-104908320D01*
X215651183Y-104908320D02*
X215812931Y-104741240D01*
X215812931Y-104741240D02*
X215982961Y-104565603D01*
X215982961Y-104565603D02*
X216160011Y-104382716D01*
X216160011Y-104382716D02*
X216342816Y-104193884D01*
X216342816Y-104193884D02*
X216482936Y-104049145D01*
X216482936Y-104049145D02*
X216625049Y-103902347D01*
X216625049Y-103902347D02*
X216720635Y-103803610D01*
X214793002Y-105794797D02*
X214939734Y-105643226D01*
X214939734Y-105643226D02*
X215091161Y-105486806D01*
X215091161Y-105486806D02*
X215260134Y-105312262D01*
X215260134Y-105312262D02*
X215357593Y-105211591D01*
X218259410Y-107785982D02*
X219417657Y-106589549D01*
X218054614Y-107997530D02*
X217896932Y-108160409D01*
X217896932Y-108160409D02*
X217739785Y-108322737D01*
X217739785Y-108322737D02*
X217587580Y-108479961D01*
X217587580Y-108479961D02*
X217490023Y-108580735D01*
X217567976Y-105525786D02*
X217490018Y-105492430D01*
X217600268Y-105606314D02*
X217567976Y-105525786D01*
X217020986Y-104349701D02*
X217490021Y-103865203D01*
X217626870Y-104409004D02*
X217490018Y-104350451D01*
X217655930Y-105092782D02*
X217607336Y-104971596D01*
X217553510Y-105251119D02*
X217655930Y-105092782D01*
X219554590Y-100116797D02*
X219542606Y-100179035D01*
X219503512Y-100081543D02*
X219554590Y-100116797D01*
X217572970Y-106520421D02*
X217548674Y-106459831D01*
X217521762Y-106599586D02*
X217572970Y-106520421D01*
X216893446Y-102400104D02*
X217051126Y-102237224D01*
X217051126Y-102237224D02*
X217208273Y-102074896D01*
X217208273Y-102074896D02*
X217360479Y-101917672D01*
X217360479Y-101917672D02*
X217458037Y-101816899D01*
X215530403Y-103808085D02*
X215673548Y-103660220D01*
X215673548Y-103660220D02*
X215815056Y-103514047D01*
X215815056Y-103514047D02*
X215954393Y-103370116D01*
X215954393Y-103370116D02*
X216135878Y-103182648D01*
X216135878Y-103182648D02*
X216311291Y-103001451D01*
X216311291Y-103001451D02*
X216479370Y-102827831D01*
X216479370Y-102827831D02*
X216638850Y-102663093D01*
X216638850Y-102663093D02*
X216788466Y-102508544D01*
X216788466Y-102508544D02*
X216893446Y-102400104D01*
X220276600Y-100081343D02*
X220327856Y-100116721D01*
X218840640Y-100024231D02*
X218840640Y-100024231D01*
X217532209Y-105711530D02*
X217600268Y-105606314D01*
X217412060Y-105686842D02*
X217532209Y-105711530D01*
X213603649Y-105798362D02*
X213750381Y-105646792D01*
X213750381Y-105646792D02*
X213901809Y-105490372D01*
X213901809Y-105490372D02*
X214070781Y-105315828D01*
X214070781Y-105315828D02*
X214168240Y-105215157D01*
X219384791Y-107789549D02*
X219385670Y-107788640D01*
X216864436Y-103826359D02*
X216239439Y-104471962D01*
X217490021Y-103180149D02*
X218114961Y-103825693D01*
X216864436Y-103826359D02*
X217490021Y-103180149D01*
X217490023Y-103008856D02*
X217490023Y-103008856D01*
X218762314Y-100057744D02*
X218840640Y-100024231D01*
X218729871Y-100138652D02*
X218762314Y-100057744D01*
X211645432Y-105786406D02*
X217135365Y-111451228D01*
X214641686Y-111390733D02*
X214641686Y-111390733D01*
X215414774Y-111390933D02*
X215414774Y-111390933D01*
X217353166Y-104691732D02*
X217550403Y-104740308D01*
X217550403Y-104740308D02*
X217564082Y-104735068D01*
X217311213Y-104473863D02*
X217338627Y-104674924D01*
X217338627Y-104674924D02*
X217353166Y-104691732D01*
X213025804Y-102891425D02*
X214642753Y-101220466D01*
X213025804Y-104717998D02*
X216411232Y-101220466D01*
X216188415Y-111448042D02*
X216155972Y-111367135D01*
X216120036Y-111553755D02*
X216188415Y-111448042D01*
X217459610Y-111447997D02*
X217127526Y-111447997D01*
X220221120Y-100138652D02*
X220237370Y-100098129D01*
X220255369Y-100191599D02*
X220221120Y-100138652D01*
X217127526Y-111447997D02*
X212438375Y-116291740D01*
X217459610Y-111447997D02*
X212046354Y-105856266D01*
X219385670Y-107788640D02*
X219242524Y-107936504D01*
X219242524Y-107936504D02*
X219101016Y-108082677D01*
X219101016Y-108082677D02*
X218961679Y-108226608D01*
X218961679Y-108226608D02*
X218780195Y-108414076D01*
X218780195Y-108414076D02*
X218604781Y-108595273D01*
X218604781Y-108595273D02*
X218436703Y-108768893D01*
X218436703Y-108768893D02*
X218277223Y-108933631D01*
X218277223Y-108933631D02*
X218127607Y-109088180D01*
X218127607Y-109088180D02*
X218022628Y-109196621D01*
D11*
X188939360Y-108844354D02*
X188939360Y-107415782D01*
X190367931Y-108463401D02*
X190510789Y-108511020D01*
X190748884Y-108511020D01*
X190844122Y-108463401D01*
X190891741Y-108415782D01*
X190939360Y-108320544D01*
X190939360Y-108225306D01*
X190891741Y-108130068D01*
X190844122Y-108082449D01*
X190748884Y-108034830D01*
X190558408Y-107987211D01*
X190463170Y-107939592D01*
X190415550Y-107891973D01*
X190367931Y-107796735D01*
X190367931Y-107701497D01*
X190415550Y-107606259D01*
X190463170Y-107558640D01*
X190558408Y-107511020D01*
X190796503Y-107511020D01*
X190939360Y-107558640D01*
X191796503Y-108463401D02*
X191701265Y-108511020D01*
X191510789Y-108511020D01*
X191415550Y-108463401D01*
X191367931Y-108415782D01*
X191320312Y-108320544D01*
X191320312Y-108034830D01*
X191367931Y-107939592D01*
X191415550Y-107891973D01*
X191510789Y-107844354D01*
X191701265Y-107844354D01*
X191796503Y-107891973D01*
X192653646Y-108511020D02*
X192653646Y-107987211D01*
X192606027Y-107891973D01*
X192510789Y-107844354D01*
X192320312Y-107844354D01*
X192225074Y-107891973D01*
X192653646Y-108463401D02*
X192558408Y-108511020D01*
X192320312Y-108511020D01*
X192225074Y-108463401D01*
X192177455Y-108368163D01*
X192177455Y-108272925D01*
X192225074Y-108177687D01*
X192320312Y-108130068D01*
X192558408Y-108130068D01*
X192653646Y-108082449D01*
X192986979Y-107844354D02*
X193367931Y-107844354D01*
X193129836Y-107511020D02*
X193129836Y-108368163D01*
X193177455Y-108463401D01*
X193272693Y-108511020D01*
X193367931Y-108511020D01*
X193558408Y-107844354D02*
X193939360Y-107844354D01*
X193701265Y-107511020D02*
X193701265Y-108368163D01*
X193748884Y-108463401D01*
X193844122Y-108511020D01*
X193939360Y-108511020D01*
X194653646Y-108463401D02*
X194558408Y-108511020D01*
X194367931Y-108511020D01*
X194272693Y-108463401D01*
X194225074Y-108368163D01*
X194225074Y-107987211D01*
X194272693Y-107891973D01*
X194367931Y-107844354D01*
X194558408Y-107844354D01*
X194653646Y-107891973D01*
X194701265Y-107987211D01*
X194701265Y-108082449D01*
X194225074Y-108177687D01*
X195129836Y-108511020D02*
X195129836Y-107844354D01*
X195129836Y-108034830D02*
X195177455Y-107939592D01*
X195225074Y-107891973D01*
X195320312Y-107844354D01*
X195415550Y-107844354D01*
X196129836Y-108463401D02*
X196034598Y-108511020D01*
X195844122Y-108511020D01*
X195748884Y-108463401D01*
X195701265Y-108368163D01*
X195701265Y-107987211D01*
X195748884Y-107891973D01*
X195844122Y-107844354D01*
X196034598Y-107844354D01*
X196129836Y-107891973D01*
X196177455Y-107987211D01*
X196177455Y-108082449D01*
X195701265Y-108177687D01*
X197034598Y-108511020D02*
X197034598Y-107511020D01*
X197034598Y-108463401D02*
X196939360Y-108511020D01*
X196748884Y-108511020D01*
X196653646Y-108463401D01*
X196606027Y-108415782D01*
X196558408Y-108320544D01*
X196558408Y-108034830D01*
X196606027Y-107939592D01*
X196653646Y-107891973D01*
X196748884Y-107844354D01*
X196939360Y-107844354D01*
X197034598Y-107891973D01*
X197510789Y-108511020D02*
X197510789Y-107511020D01*
X197748884Y-107511020D01*
X197891741Y-107558640D01*
X197986979Y-107653878D01*
X198034598Y-107749116D01*
X198082217Y-107939592D01*
X198082217Y-108082449D01*
X198034598Y-108272925D01*
X197986979Y-108368163D01*
X197891741Y-108463401D01*
X197748884Y-108511020D01*
X197510789Y-108511020D01*
X198510789Y-108511020D02*
X198510789Y-107844354D01*
X198510789Y-108034830D02*
X198558408Y-107939592D01*
X198606027Y-107891973D01*
X198701265Y-107844354D01*
X198796503Y-107844354D01*
X199129836Y-108511020D02*
X199129836Y-107844354D01*
X199129836Y-107511020D02*
X199082217Y-107558640D01*
X199129836Y-107606259D01*
X199177455Y-107558640D01*
X199129836Y-107511020D01*
X199129836Y-107606259D01*
X199463170Y-107844354D02*
X199844122Y-107844354D01*
X199606027Y-108511020D02*
X199606027Y-107653878D01*
X199653646Y-107558640D01*
X199748884Y-107511020D01*
X199844122Y-107511020D01*
X200034598Y-107844354D02*
X200415550Y-107844354D01*
X200177455Y-107511020D02*
X200177455Y-108368163D01*
X200225074Y-108463401D01*
X200320312Y-108511020D01*
X200415550Y-108511020D01*
X201129836Y-108463401D02*
X201034598Y-108511020D01*
X200844122Y-108511020D01*
X200748884Y-108463401D01*
X200701265Y-108368163D01*
X200701265Y-107987211D01*
X200748884Y-107891973D01*
X200844122Y-107844354D01*
X201034598Y-107844354D01*
X201129836Y-107891973D01*
X201177455Y-107987211D01*
X201177455Y-108082449D01*
X200701265Y-108177687D01*
X201606027Y-108511020D02*
X201606027Y-107844354D01*
X201606027Y-108034830D02*
X201653646Y-107939592D01*
X201701265Y-107891973D01*
X201796503Y-107844354D01*
X201891741Y-107844354D01*
X188939360Y-110494354D02*
X188939360Y-109065782D01*
X190748884Y-109637211D02*
X190415550Y-109637211D01*
X190415550Y-110161020D02*
X190415550Y-109161020D01*
X190891741Y-109161020D01*
X191701265Y-110161020D02*
X191701265Y-109637211D01*
X191653646Y-109541973D01*
X191558408Y-109494354D01*
X191367931Y-109494354D01*
X191272693Y-109541973D01*
X191701265Y-110113401D02*
X191606027Y-110161020D01*
X191367931Y-110161020D01*
X191272693Y-110113401D01*
X191225074Y-110018163D01*
X191225074Y-109922925D01*
X191272693Y-109827687D01*
X191367931Y-109780068D01*
X191606027Y-109780068D01*
X191701265Y-109732449D01*
X192177455Y-110161020D02*
X192177455Y-109161020D01*
X192177455Y-109541973D02*
X192272693Y-109494354D01*
X192463170Y-109494354D01*
X192558408Y-109541973D01*
X192606027Y-109589592D01*
X192653646Y-109684830D01*
X192653646Y-109970544D01*
X192606027Y-110065782D01*
X192558408Y-110113401D01*
X192463170Y-110161020D01*
X192272693Y-110161020D01*
X192177455Y-110113401D01*
X193082217Y-110161020D02*
X193082217Y-109494354D01*
X193082217Y-109161020D02*
X193034598Y-109208640D01*
X193082217Y-109256259D01*
X193129836Y-109208640D01*
X193082217Y-109161020D01*
X193082217Y-109256259D01*
X193986979Y-110161020D02*
X193986979Y-109637211D01*
X193939360Y-109541973D01*
X193844122Y-109494354D01*
X193653646Y-109494354D01*
X193558408Y-109541973D01*
X193986979Y-110113401D02*
X193891741Y-110161020D01*
X193653646Y-110161020D01*
X193558408Y-110113401D01*
X193510789Y-110018163D01*
X193510789Y-109922925D01*
X193558408Y-109827687D01*
X193653646Y-109780068D01*
X193891741Y-109780068D01*
X193986979Y-109732449D01*
X194463170Y-109494354D02*
X194463170Y-110161020D01*
X194463170Y-109589592D02*
X194510789Y-109541973D01*
X194606027Y-109494354D01*
X194748884Y-109494354D01*
X194844122Y-109541973D01*
X194891741Y-109637211D01*
X194891741Y-110161020D01*
X196082217Y-110113401D02*
X196225074Y-110161020D01*
X196463170Y-110161020D01*
X196558408Y-110113401D01*
X196606027Y-110065782D01*
X196653646Y-109970544D01*
X196653646Y-109875306D01*
X196606027Y-109780068D01*
X196558408Y-109732449D01*
X196463170Y-109684830D01*
X196272693Y-109637211D01*
X196177455Y-109589592D01*
X196129836Y-109541973D01*
X196082217Y-109446735D01*
X196082217Y-109351497D01*
X196129836Y-109256259D01*
X196177455Y-109208640D01*
X196272693Y-109161020D01*
X196510789Y-109161020D01*
X196653646Y-109208640D01*
X197082217Y-110065782D02*
X197129836Y-110113401D01*
X197082217Y-110161020D01*
X197034598Y-110113401D01*
X197082217Y-110065782D01*
X197082217Y-110161020D01*
X188939360Y-112144354D02*
X188939360Y-110715782D01*
X190367931Y-110906259D02*
X190415550Y-110858640D01*
X190510789Y-110811020D01*
X190748884Y-110811020D01*
X190844122Y-110858640D01*
X190891741Y-110906259D01*
X190939360Y-111001497D01*
X190939360Y-111096735D01*
X190891741Y-111239592D01*
X190320312Y-111811020D01*
X190939360Y-111811020D01*
X191558408Y-110811020D02*
X191653646Y-110811020D01*
X191748884Y-110858640D01*
X191796503Y-110906259D01*
X191844122Y-111001497D01*
X191891741Y-111191973D01*
X191891741Y-111430068D01*
X191844122Y-111620544D01*
X191796503Y-111715782D01*
X191748884Y-111763401D01*
X191653646Y-111811020D01*
X191558408Y-111811020D01*
X191463170Y-111763401D01*
X191415550Y-111715782D01*
X191367931Y-111620544D01*
X191320312Y-111430068D01*
X191320312Y-111191973D01*
X191367931Y-111001497D01*
X191415550Y-110906259D01*
X191463170Y-110858640D01*
X191558408Y-110811020D01*
X192272693Y-110906259D02*
X192320312Y-110858640D01*
X192415550Y-110811020D01*
X192653646Y-110811020D01*
X192748884Y-110858640D01*
X192796503Y-110906259D01*
X192844122Y-111001497D01*
X192844122Y-111096735D01*
X192796503Y-111239592D01*
X192225074Y-111811020D01*
X192844122Y-111811020D01*
X193796503Y-111811020D02*
X193225074Y-111811020D01*
X193510789Y-111811020D02*
X193510789Y-110811020D01*
X193415550Y-110953878D01*
X193320312Y-111049116D01*
X193225074Y-111096735D01*
D12*
%TO.C,D37*%
X140594420Y-56578640D02*
X140594420Y-49278640D01*
X146094420Y-56578640D02*
X146094420Y-49278640D01*
X146094420Y-49278640D02*
X144944420Y-49278640D01*
D10*
%TO.C,D19*%
X155084420Y-93926140D02*
X149284420Y-93926140D01*
X155084420Y-91526140D02*
X155084420Y-93926140D01*
X149284420Y-91526140D02*
X155084420Y-91526140D01*
X149359420Y-91526140D02*
X149359420Y-93926140D01*
X149484420Y-91526140D02*
X149484420Y-93926140D01*
X149259420Y-93926140D02*
X149259420Y-91526140D01*
X149659420Y-91526140D02*
X149659420Y-93926140D01*
X149834420Y-91526140D02*
X149834420Y-93926140D01*
X150009420Y-91526140D02*
X150009420Y-93926140D01*
D12*
%TO.C,D40*%
X134340816Y-125194123D02*
X135153989Y-124380951D01*
X129178937Y-120032244D02*
X134340816Y-125194123D01*
X133068024Y-116143157D02*
X138229903Y-121305036D01*
%TO.C,D35*%
X178044420Y-57258640D02*
X179194420Y-57258640D01*
X178044420Y-49958640D02*
X178044420Y-57258640D01*
X183544420Y-49958640D02*
X183544420Y-57258640D01*
D11*
%TO.C,K26*%
X164334420Y-129588640D02*
X164334420Y-128588640D01*
X164334420Y-142588640D02*
X164334420Y-141588640D01*
X178334420Y-128588640D02*
X178334420Y-129588640D01*
X177334420Y-128588640D02*
X178334420Y-128588640D01*
X178334420Y-142588640D02*
X177334420Y-142588640D01*
X178334420Y-141588640D02*
X178334420Y-142588640D01*
X165334420Y-142588640D02*
X164334420Y-142588640D01*
X164334420Y-128588640D02*
X165334420Y-128588640D01*
%TO.C,K1*%
X69084420Y-61913640D02*
X70084420Y-61913640D01*
X70084420Y-75913640D02*
X69084420Y-75913640D01*
X83084420Y-74913640D02*
X83084420Y-75913640D01*
X83084420Y-75913640D02*
X82084420Y-75913640D01*
X82084420Y-61913640D02*
X83084420Y-61913640D01*
X83084420Y-61913640D02*
X83084420Y-62913640D01*
X69084420Y-75913640D02*
X69084420Y-74913640D01*
X69084420Y-62913640D02*
X69084420Y-61913640D01*
D12*
%TO.C,SW1*%
X213034420Y-96278640D02*
X213034420Y-98778640D01*
X211284420Y-94778640D02*
X209284420Y-94778640D01*
X207534420Y-96278640D02*
X207534420Y-98778640D01*
X211284420Y-100278640D02*
X209284420Y-100278640D01*
X212584420Y-95828640D02*
X213034420Y-96278640D01*
X212584420Y-99228640D02*
X213034420Y-98778640D01*
X207984420Y-99228640D02*
X207534420Y-98778640D01*
X207984420Y-95828640D02*
X207534420Y-96278640D01*
%TO.C,D41*%
X88154420Y-59288640D02*
X88154420Y-66588640D01*
X82654420Y-59288640D02*
X82654420Y-66588640D01*
X82654420Y-66588640D02*
X83804420Y-66588640D01*
D11*
%TO.C,K2*%
X69084420Y-80963640D02*
X70084420Y-80963640D01*
X70084420Y-94963640D02*
X69084420Y-94963640D01*
X83084420Y-93963640D02*
X83084420Y-94963640D01*
X83084420Y-94963640D02*
X82084420Y-94963640D01*
X82084420Y-80963640D02*
X83084420Y-80963640D01*
X83084420Y-80963640D02*
X83084420Y-81963640D01*
X69084420Y-94963640D02*
X69084420Y-93963640D01*
X69084420Y-81963640D02*
X69084420Y-80963640D01*
%TO.C,K3*%
X69084420Y-101013640D02*
X69084420Y-100013640D01*
X69084420Y-114013640D02*
X69084420Y-113013640D01*
X83084420Y-100013640D02*
X83084420Y-101013640D01*
X82084420Y-100013640D02*
X83084420Y-100013640D01*
X83084420Y-114013640D02*
X82084420Y-114013640D01*
X83084420Y-113013640D02*
X83084420Y-114013640D01*
X70084420Y-114013640D02*
X69084420Y-114013640D01*
X69084420Y-100013640D02*
X70084420Y-100013640D01*
%TO.C,K11*%
X107184420Y-80963640D02*
X108184420Y-80963640D01*
X108184420Y-94963640D02*
X107184420Y-94963640D01*
X121184420Y-93963640D02*
X121184420Y-94963640D01*
X121184420Y-94963640D02*
X120184420Y-94963640D01*
X120184420Y-80963640D02*
X121184420Y-80963640D01*
X121184420Y-80963640D02*
X121184420Y-81963640D01*
X107184420Y-94963640D02*
X107184420Y-93963640D01*
X107184420Y-81963640D02*
X107184420Y-80963640D01*
%TO.C,U1*%
X223444420Y-76978640D02*
X205664420Y-76978640D01*
X223444420Y-46498640D02*
X223444420Y-76978640D01*
X218364420Y-46498640D02*
X223444420Y-46498640D01*
X218364420Y-43958640D02*
X218364420Y-46498640D01*
X210744420Y-43958640D02*
X218364420Y-43958640D01*
X210744420Y-46498640D02*
X210744420Y-43958640D01*
X205664420Y-46498640D02*
X210744420Y-46498640D01*
X205664420Y-46498640D02*
X205664420Y-76978640D01*
D12*
%TO.C,D39*%
X101964420Y-54518640D02*
X103114420Y-54518640D01*
X101964420Y-47218640D02*
X101964420Y-54518640D01*
X107464420Y-47218640D02*
X107464420Y-54518640D01*
%TO.C,D38*%
X181404420Y-125638640D02*
X181404420Y-118338640D01*
X186904420Y-125638640D02*
X186904420Y-118338640D01*
X186904420Y-118338640D02*
X185754420Y-118338640D01*
D11*
%TO.C,U1*%
X208224420Y-47958640D02*
X208224420Y-78438640D01*
X213304420Y-47958640D02*
X208224420Y-47958640D01*
X213304420Y-45418640D02*
X213304420Y-47958640D01*
X220924420Y-45418640D02*
X213304420Y-45418640D01*
X220924420Y-47958640D02*
X220924420Y-45418640D01*
X226004420Y-47958640D02*
X220924420Y-47958640D01*
X226004420Y-78438640D02*
X226004420Y-47958640D01*
X208224420Y-78438640D02*
X226004420Y-78438640D01*
D10*
%TO.C,D3*%
X73809420Y-110576140D02*
X73809420Y-112976140D01*
X73634420Y-110576140D02*
X73634420Y-112976140D01*
X73459420Y-110576140D02*
X73459420Y-112976140D01*
X73059420Y-112976140D02*
X73059420Y-110576140D01*
X73284420Y-110576140D02*
X73284420Y-112976140D01*
X73159420Y-110576140D02*
X73159420Y-112976140D01*
X73084420Y-110576140D02*
X78884420Y-110576140D01*
X78884420Y-110576140D02*
X78884420Y-112976140D01*
X78884420Y-112976140D02*
X73084420Y-112976140D01*
%TO.C,D9*%
X116984420Y-55826140D02*
X111184420Y-55826140D01*
X116984420Y-53426140D02*
X116984420Y-55826140D01*
X111184420Y-53426140D02*
X116984420Y-53426140D01*
X111259420Y-53426140D02*
X111259420Y-55826140D01*
X111384420Y-53426140D02*
X111384420Y-55826140D01*
X111159420Y-55826140D02*
X111159420Y-53426140D01*
X111559420Y-53426140D02*
X111559420Y-55826140D01*
X111734420Y-53426140D02*
X111734420Y-55826140D01*
X111909420Y-53426140D02*
X111909420Y-55826140D01*
%TO.C,D20*%
X155084420Y-112976140D02*
X149284420Y-112976140D01*
X155084420Y-110576140D02*
X155084420Y-112976140D01*
X149284420Y-110576140D02*
X155084420Y-110576140D01*
X149359420Y-110576140D02*
X149359420Y-112976140D01*
X149484420Y-110576140D02*
X149484420Y-112976140D01*
X149259420Y-112976140D02*
X149259420Y-110576140D01*
X149659420Y-110576140D02*
X149659420Y-112976140D01*
X149834420Y-110576140D02*
X149834420Y-112976140D01*
X150009420Y-110576140D02*
X150009420Y-112976140D01*
%TO.C,D21*%
X150009420Y-134388640D02*
X150009420Y-136788640D01*
X149834420Y-134388640D02*
X149834420Y-136788640D01*
X149659420Y-134388640D02*
X149659420Y-136788640D01*
X149259420Y-136788640D02*
X149259420Y-134388640D01*
X149484420Y-134388640D02*
X149484420Y-136788640D01*
X149359420Y-134388640D02*
X149359420Y-136788640D01*
X149284420Y-134388640D02*
X155084420Y-134388640D01*
X155084420Y-134388640D02*
X155084420Y-136788640D01*
X155084420Y-136788640D02*
X149284420Y-136788640D01*
%TO.C,D22*%
X174134420Y-55826140D02*
X168334420Y-55826140D01*
X174134420Y-53426140D02*
X174134420Y-55826140D01*
X168334420Y-53426140D02*
X174134420Y-53426140D01*
X168409420Y-53426140D02*
X168409420Y-55826140D01*
X168534420Y-53426140D02*
X168534420Y-55826140D01*
X168309420Y-55826140D02*
X168309420Y-53426140D01*
X168709420Y-53426140D02*
X168709420Y-55826140D01*
X168884420Y-53426140D02*
X168884420Y-55826140D01*
X169059420Y-53426140D02*
X169059420Y-55826140D01*
%TO.C,D23*%
X169059420Y-72476140D02*
X169059420Y-74876140D01*
X168884420Y-72476140D02*
X168884420Y-74876140D01*
X168709420Y-72476140D02*
X168709420Y-74876140D01*
X168309420Y-74876140D02*
X168309420Y-72476140D01*
X168534420Y-72476140D02*
X168534420Y-74876140D01*
X168409420Y-72476140D02*
X168409420Y-74876140D01*
X168334420Y-72476140D02*
X174134420Y-72476140D01*
X174134420Y-72476140D02*
X174134420Y-74876140D01*
X174134420Y-74876140D02*
X168334420Y-74876140D01*
%TO.C,D24*%
X174134420Y-93926140D02*
X168334420Y-93926140D01*
X174134420Y-91526140D02*
X174134420Y-93926140D01*
X168334420Y-91526140D02*
X174134420Y-91526140D01*
X168409420Y-91526140D02*
X168409420Y-93926140D01*
X168534420Y-91526140D02*
X168534420Y-93926140D01*
X168309420Y-93926140D02*
X168309420Y-91526140D01*
X168709420Y-91526140D02*
X168709420Y-93926140D01*
X168884420Y-91526140D02*
X168884420Y-93926140D01*
X169059420Y-91526140D02*
X169059420Y-93926140D01*
%TO.C,D25*%
X169059420Y-110576140D02*
X169059420Y-112976140D01*
X168884420Y-110576140D02*
X168884420Y-112976140D01*
X168709420Y-110576140D02*
X168709420Y-112976140D01*
X168309420Y-112976140D02*
X168309420Y-110576140D01*
X168534420Y-110576140D02*
X168534420Y-112976140D01*
X168409420Y-110576140D02*
X168409420Y-112976140D01*
X168334420Y-110576140D02*
X174134420Y-110576140D01*
X174134420Y-110576140D02*
X174134420Y-112976140D01*
X174134420Y-112976140D02*
X168334420Y-112976140D01*
%TO.C,D26*%
X174134420Y-141551140D02*
X168334420Y-141551140D01*
X174134420Y-139151140D02*
X174134420Y-141551140D01*
X168334420Y-139151140D02*
X174134420Y-139151140D01*
X168409420Y-139151140D02*
X168409420Y-141551140D01*
X168534420Y-139151140D02*
X168534420Y-141551140D01*
X168309420Y-141551140D02*
X168309420Y-139151140D01*
X168709420Y-139151140D02*
X168709420Y-141551140D01*
X168884420Y-139151140D02*
X168884420Y-141551140D01*
X169059420Y-139151140D02*
X169059420Y-141551140D01*
%TO.C,D27*%
X188109420Y-58188640D02*
X188109420Y-60588640D01*
X187934420Y-58188640D02*
X187934420Y-60588640D01*
X187759420Y-58188640D02*
X187759420Y-60588640D01*
X187359420Y-60588640D02*
X187359420Y-58188640D01*
X187584420Y-58188640D02*
X187584420Y-60588640D01*
X187459420Y-58188640D02*
X187459420Y-60588640D01*
X187384420Y-58188640D02*
X193184420Y-58188640D01*
X193184420Y-58188640D02*
X193184420Y-60588640D01*
X193184420Y-60588640D02*
X187384420Y-60588640D01*
%TO.C,D28*%
X193184420Y-79638640D02*
X187384420Y-79638640D01*
X193184420Y-77238640D02*
X193184420Y-79638640D01*
X187384420Y-77238640D02*
X193184420Y-77238640D01*
X187459420Y-77238640D02*
X187459420Y-79638640D01*
X187584420Y-77238640D02*
X187584420Y-79638640D01*
X187359420Y-79638640D02*
X187359420Y-77238640D01*
X187759420Y-77238640D02*
X187759420Y-79638640D01*
X187934420Y-77238640D02*
X187934420Y-79638640D01*
X188109420Y-77238640D02*
X188109420Y-79638640D01*
%TO.C,D29*%
X188109420Y-96288640D02*
X188109420Y-98688640D01*
X187934420Y-96288640D02*
X187934420Y-98688640D01*
X187759420Y-96288640D02*
X187759420Y-98688640D01*
X187359420Y-98688640D02*
X187359420Y-96288640D01*
X187584420Y-96288640D02*
X187584420Y-98688640D01*
X187459420Y-96288640D02*
X187459420Y-98688640D01*
X187384420Y-96288640D02*
X193184420Y-96288640D01*
X193184420Y-96288640D02*
X193184420Y-98688640D01*
X193184420Y-98688640D02*
X187384420Y-98688640D01*
%TO.C,D31*%
X193184420Y-146313640D02*
X187384420Y-146313640D01*
X193184420Y-143913640D02*
X193184420Y-146313640D01*
X187384420Y-143913640D02*
X193184420Y-143913640D01*
X187459420Y-143913640D02*
X187459420Y-146313640D01*
X187584420Y-143913640D02*
X187584420Y-146313640D01*
X187359420Y-146313640D02*
X187359420Y-143913640D01*
X187759420Y-143913640D02*
X187759420Y-146313640D01*
X187934420Y-143913640D02*
X187934420Y-146313640D01*
X188109420Y-143913640D02*
X188109420Y-146313640D01*
%TO.C,D5*%
X92859420Y-53426140D02*
X92859420Y-55826140D01*
X92684420Y-53426140D02*
X92684420Y-55826140D01*
X92509420Y-53426140D02*
X92509420Y-55826140D01*
X92109420Y-55826140D02*
X92109420Y-53426140D01*
X92334420Y-53426140D02*
X92334420Y-55826140D01*
X92209420Y-53426140D02*
X92209420Y-55826140D01*
X92134420Y-53426140D02*
X97934420Y-53426140D01*
X97934420Y-53426140D02*
X97934420Y-55826140D01*
X97934420Y-55826140D02*
X92134420Y-55826140D01*
%TO.C,D30*%
X200405791Y-124129567D02*
X196304572Y-120028348D01*
X202102847Y-122432511D02*
X200405791Y-124129567D01*
X198001628Y-118331292D02*
X202102847Y-122432511D01*
X198054661Y-118384325D02*
X196357605Y-120081381D01*
X198143049Y-118472713D02*
X196445993Y-120169769D01*
X196286894Y-120010670D02*
X197983950Y-118313614D01*
X198266793Y-118596457D02*
X196569737Y-120293513D01*
X198390537Y-118720200D02*
X196693480Y-120417257D01*
X198514280Y-118843944D02*
X196817224Y-120541000D01*
D11*
%TO.C,K4*%
X50034420Y-91488640D02*
X50034420Y-90488640D01*
X50034420Y-104488640D02*
X50034420Y-103488640D01*
X64034420Y-90488640D02*
X64034420Y-91488640D01*
X63034420Y-90488640D02*
X64034420Y-90488640D01*
X64034420Y-104488640D02*
X63034420Y-104488640D01*
X64034420Y-103488640D02*
X64034420Y-104488640D01*
X51034420Y-104488640D02*
X50034420Y-104488640D01*
X50034420Y-90488640D02*
X51034420Y-90488640D01*
%TO.C,K5*%
X88134420Y-42863640D02*
X89134420Y-42863640D01*
X89134420Y-56863640D02*
X88134420Y-56863640D01*
X102134420Y-55863640D02*
X102134420Y-56863640D01*
X102134420Y-56863640D02*
X101134420Y-56863640D01*
X101134420Y-42863640D02*
X102134420Y-42863640D01*
X102134420Y-42863640D02*
X102134420Y-43863640D01*
X88134420Y-56863640D02*
X88134420Y-55863640D01*
X88134420Y-43863640D02*
X88134420Y-42863640D01*
%TO.C,K6*%
X88134420Y-61913640D02*
X89134420Y-61913640D01*
X89134420Y-75913640D02*
X88134420Y-75913640D01*
X102134420Y-74913640D02*
X102134420Y-75913640D01*
X102134420Y-75913640D02*
X101134420Y-75913640D01*
X101134420Y-61913640D02*
X102134420Y-61913640D01*
X102134420Y-61913640D02*
X102134420Y-62913640D01*
X88134420Y-75913640D02*
X88134420Y-74913640D01*
X88134420Y-62913640D02*
X88134420Y-61913640D01*
%TO.C,K7*%
X88134420Y-80963640D02*
X89134420Y-80963640D01*
X89134420Y-94963640D02*
X88134420Y-94963640D01*
X102134420Y-93963640D02*
X102134420Y-94963640D01*
X102134420Y-94963640D02*
X101134420Y-94963640D01*
X101134420Y-80963640D02*
X102134420Y-80963640D01*
X102134420Y-80963640D02*
X102134420Y-81963640D01*
X88134420Y-94963640D02*
X88134420Y-93963640D01*
X88134420Y-81963640D02*
X88134420Y-80963640D01*
%TO.C,K8*%
X88134420Y-101013640D02*
X88134420Y-100013640D01*
X88134420Y-114013640D02*
X88134420Y-113013640D01*
X102134420Y-100013640D02*
X102134420Y-101013640D01*
X101134420Y-100013640D02*
X102134420Y-100013640D01*
X102134420Y-114013640D02*
X101134420Y-114013640D01*
X102134420Y-113013640D02*
X102134420Y-114013640D01*
X89134420Y-114013640D02*
X88134420Y-114013640D01*
X88134420Y-100013640D02*
X89134420Y-100013640D01*
%TO.C,K9*%
X107184420Y-43863640D02*
X107184420Y-42863640D01*
X107184420Y-56863640D02*
X107184420Y-55863640D01*
X121184420Y-42863640D02*
X121184420Y-43863640D01*
X120184420Y-42863640D02*
X121184420Y-42863640D01*
X121184420Y-56863640D02*
X120184420Y-56863640D01*
X121184420Y-55863640D02*
X121184420Y-56863640D01*
X108184420Y-56863640D02*
X107184420Y-56863640D01*
X107184420Y-42863640D02*
X108184420Y-42863640D01*
%TO.C,K10*%
X107184420Y-62913640D02*
X107184420Y-61913640D01*
X107184420Y-75913640D02*
X107184420Y-74913640D01*
X121184420Y-61913640D02*
X121184420Y-62913640D01*
X120184420Y-61913640D02*
X121184420Y-61913640D01*
X121184420Y-75913640D02*
X120184420Y-75913640D01*
X121184420Y-74913640D02*
X121184420Y-75913640D01*
X108184420Y-75913640D02*
X107184420Y-75913640D01*
X107184420Y-61913640D02*
X108184420Y-61913640D01*
D12*
%TO.C,D42*%
X83094420Y-113398640D02*
X83094420Y-106098640D01*
X88594420Y-113398640D02*
X88594420Y-106098640D01*
X88594420Y-106098640D02*
X87444420Y-106098640D01*
D11*
%TO.C,K22*%
X164334420Y-42863640D02*
X165334420Y-42863640D01*
X165334420Y-56863640D02*
X164334420Y-56863640D01*
X178334420Y-55863640D02*
X178334420Y-56863640D01*
X178334420Y-56863640D02*
X177334420Y-56863640D01*
X177334420Y-42863640D02*
X178334420Y-42863640D01*
X178334420Y-42863640D02*
X178334420Y-43863640D01*
X164334420Y-56863640D02*
X164334420Y-55863640D01*
X164334420Y-43863640D02*
X164334420Y-42863640D01*
%TO.C,Brd1*%
X222194420Y-80188640D02*
X222194420Y-82728640D01*
X212034420Y-82728640D02*
X212034420Y-80188640D01*
X222194420Y-82728640D02*
X212034420Y-82728640D01*
X222194420Y-80188640D02*
X212034420Y-80188640D01*
D12*
%TO.C,D43*%
X62824420Y-93048640D02*
X63974420Y-93048640D01*
X62824420Y-85748640D02*
X62824420Y-93048640D01*
X68324420Y-85748640D02*
X68324420Y-93048640D01*
D10*
%TO.C,D1*%
X78884420Y-74876140D02*
X73084420Y-74876140D01*
X78884420Y-72476140D02*
X78884420Y-74876140D01*
X73084420Y-72476140D02*
X78884420Y-72476140D01*
X73159420Y-72476140D02*
X73159420Y-74876140D01*
X73284420Y-72476140D02*
X73284420Y-74876140D01*
X73059420Y-74876140D02*
X73059420Y-72476140D01*
X73459420Y-72476140D02*
X73459420Y-74876140D01*
X73634420Y-72476140D02*
X73634420Y-74876140D01*
X73809420Y-72476140D02*
X73809420Y-74876140D01*
%TO.C,D2*%
X73809420Y-91526140D02*
X73809420Y-93926140D01*
X73634420Y-91526140D02*
X73634420Y-93926140D01*
X73459420Y-91526140D02*
X73459420Y-93926140D01*
X73059420Y-93926140D02*
X73059420Y-91526140D01*
X73284420Y-91526140D02*
X73284420Y-93926140D01*
X73159420Y-91526140D02*
X73159420Y-93926140D01*
X73084420Y-91526140D02*
X78884420Y-91526140D01*
X78884420Y-91526140D02*
X78884420Y-93926140D01*
X78884420Y-93926140D02*
X73084420Y-93926140D01*
%TO.C,D4*%
X54759420Y-101051140D02*
X54759420Y-103451140D01*
X54584420Y-101051140D02*
X54584420Y-103451140D01*
X54409420Y-101051140D02*
X54409420Y-103451140D01*
X54009420Y-103451140D02*
X54009420Y-101051140D01*
X54234420Y-101051140D02*
X54234420Y-103451140D01*
X54109420Y-101051140D02*
X54109420Y-103451140D01*
X54034420Y-101051140D02*
X59834420Y-101051140D01*
X59834420Y-101051140D02*
X59834420Y-103451140D01*
X59834420Y-103451140D02*
X54034420Y-103451140D01*
%TO.C,D6*%
X92859420Y-72476140D02*
X92859420Y-74876140D01*
X92684420Y-72476140D02*
X92684420Y-74876140D01*
X92509420Y-72476140D02*
X92509420Y-74876140D01*
X92109420Y-74876140D02*
X92109420Y-72476140D01*
X92334420Y-72476140D02*
X92334420Y-74876140D01*
X92209420Y-72476140D02*
X92209420Y-74876140D01*
X92134420Y-72476140D02*
X97934420Y-72476140D01*
X97934420Y-72476140D02*
X97934420Y-74876140D01*
X97934420Y-74876140D02*
X92134420Y-74876140D01*
%TO.C,D7*%
X97934420Y-93926140D02*
X92134420Y-93926140D01*
X97934420Y-91526140D02*
X97934420Y-93926140D01*
X92134420Y-91526140D02*
X97934420Y-91526140D01*
X92209420Y-91526140D02*
X92209420Y-93926140D01*
X92334420Y-91526140D02*
X92334420Y-93926140D01*
X92109420Y-93926140D02*
X92109420Y-91526140D01*
X92509420Y-91526140D02*
X92509420Y-93926140D01*
X92684420Y-91526140D02*
X92684420Y-93926140D01*
X92859420Y-91526140D02*
X92859420Y-93926140D01*
%TO.C,D8*%
X97934420Y-112976140D02*
X92134420Y-112976140D01*
X97934420Y-110576140D02*
X97934420Y-112976140D01*
X92134420Y-110576140D02*
X97934420Y-110576140D01*
X92209420Y-110576140D02*
X92209420Y-112976140D01*
X92334420Y-110576140D02*
X92334420Y-112976140D01*
X92109420Y-112976140D02*
X92109420Y-110576140D01*
X92509420Y-110576140D02*
X92509420Y-112976140D01*
X92684420Y-110576140D02*
X92684420Y-112976140D01*
X92859420Y-110576140D02*
X92859420Y-112976140D01*
%TO.C,D10*%
X111909420Y-72476140D02*
X111909420Y-74876140D01*
X111734420Y-72476140D02*
X111734420Y-74876140D01*
X111559420Y-72476140D02*
X111559420Y-74876140D01*
X111159420Y-74876140D02*
X111159420Y-72476140D01*
X111384420Y-72476140D02*
X111384420Y-74876140D01*
X111259420Y-72476140D02*
X111259420Y-74876140D01*
X111184420Y-72476140D02*
X116984420Y-72476140D01*
X116984420Y-72476140D02*
X116984420Y-74876140D01*
X116984420Y-74876140D02*
X111184420Y-74876140D01*
%TO.C,D11*%
X111909420Y-91526140D02*
X111909420Y-93926140D01*
X111734420Y-91526140D02*
X111734420Y-93926140D01*
X111559420Y-91526140D02*
X111559420Y-93926140D01*
X111159420Y-93926140D02*
X111159420Y-91526140D01*
X111384420Y-91526140D02*
X111384420Y-93926140D01*
X111259420Y-91526140D02*
X111259420Y-93926140D01*
X111184420Y-91526140D02*
X116984420Y-91526140D01*
X116984420Y-91526140D02*
X116984420Y-93926140D01*
X116984420Y-93926140D02*
X111184420Y-93926140D01*
%TO.C,D12*%
X116984420Y-112976140D02*
X111184420Y-112976140D01*
X116984420Y-110576140D02*
X116984420Y-112976140D01*
X111184420Y-110576140D02*
X116984420Y-110576140D01*
X111259420Y-110576140D02*
X111259420Y-112976140D01*
X111384420Y-110576140D02*
X111384420Y-112976140D01*
X111159420Y-112976140D02*
X111159420Y-110576140D01*
X111559420Y-110576140D02*
X111559420Y-112976140D01*
X111734420Y-110576140D02*
X111734420Y-112976140D01*
X111909420Y-110576140D02*
X111909420Y-112976140D01*
%TO.C,D13*%
X136034420Y-55826140D02*
X130234420Y-55826140D01*
X136034420Y-53426140D02*
X136034420Y-55826140D01*
X130234420Y-53426140D02*
X136034420Y-53426140D01*
X130309420Y-53426140D02*
X130309420Y-55826140D01*
X130434420Y-53426140D02*
X130434420Y-55826140D01*
X130209420Y-55826140D02*
X130209420Y-53426140D01*
X130609420Y-53426140D02*
X130609420Y-55826140D01*
X130784420Y-53426140D02*
X130784420Y-55826140D01*
X130959420Y-53426140D02*
X130959420Y-55826140D01*
%TO.C,D14*%
X130959420Y-72476140D02*
X130959420Y-74876140D01*
X130784420Y-72476140D02*
X130784420Y-74876140D01*
X130609420Y-72476140D02*
X130609420Y-74876140D01*
X130209420Y-74876140D02*
X130209420Y-72476140D01*
X130434420Y-72476140D02*
X130434420Y-74876140D01*
X130309420Y-72476140D02*
X130309420Y-74876140D01*
X130234420Y-72476140D02*
X136034420Y-72476140D01*
X136034420Y-72476140D02*
X136034420Y-74876140D01*
X136034420Y-74876140D02*
X130234420Y-74876140D01*
%TO.C,D15*%
X130959420Y-91526140D02*
X130959420Y-93926140D01*
X130784420Y-91526140D02*
X130784420Y-93926140D01*
X130609420Y-91526140D02*
X130609420Y-93926140D01*
X130209420Y-93926140D02*
X130209420Y-91526140D01*
X130434420Y-91526140D02*
X130434420Y-93926140D01*
X130309420Y-91526140D02*
X130309420Y-93926140D01*
X130234420Y-91526140D02*
X136034420Y-91526140D01*
X136034420Y-91526140D02*
X136034420Y-93926140D01*
X136034420Y-93926140D02*
X130234420Y-93926140D01*
%TO.C,D16*%
X136034420Y-112976140D02*
X130234420Y-112976140D01*
X136034420Y-110576140D02*
X136034420Y-112976140D01*
X130234420Y-110576140D02*
X136034420Y-110576140D01*
X130309420Y-110576140D02*
X130309420Y-112976140D01*
X130434420Y-110576140D02*
X130434420Y-112976140D01*
X130209420Y-112976140D02*
X130209420Y-110576140D01*
X130609420Y-110576140D02*
X130609420Y-112976140D01*
X130784420Y-110576140D02*
X130784420Y-112976140D01*
X130959420Y-110576140D02*
X130959420Y-112976140D01*
%TO.C,D17*%
X155084420Y-55826140D02*
X149284420Y-55826140D01*
X155084420Y-53426140D02*
X155084420Y-55826140D01*
X149284420Y-53426140D02*
X155084420Y-53426140D01*
X149359420Y-53426140D02*
X149359420Y-55826140D01*
X149484420Y-53426140D02*
X149484420Y-55826140D01*
X149259420Y-55826140D02*
X149259420Y-53426140D01*
X149659420Y-53426140D02*
X149659420Y-55826140D01*
X149834420Y-53426140D02*
X149834420Y-55826140D01*
X150009420Y-53426140D02*
X150009420Y-55826140D01*
%TO.C,D18*%
X150009420Y-72476140D02*
X150009420Y-74876140D01*
X149834420Y-72476140D02*
X149834420Y-74876140D01*
X149659420Y-72476140D02*
X149659420Y-74876140D01*
X149259420Y-74876140D02*
X149259420Y-72476140D01*
X149484420Y-72476140D02*
X149484420Y-74876140D01*
X149359420Y-72476140D02*
X149359420Y-74876140D01*
X149284420Y-72476140D02*
X155084420Y-72476140D01*
X155084420Y-72476140D02*
X155084420Y-74876140D01*
X155084420Y-74876140D02*
X149284420Y-74876140D01*
D11*
%TO.C,K12*%
X107184420Y-100013640D02*
X108184420Y-100013640D01*
X108184420Y-114013640D02*
X107184420Y-114013640D01*
X121184420Y-113013640D02*
X121184420Y-114013640D01*
X121184420Y-114013640D02*
X120184420Y-114013640D01*
X120184420Y-100013640D02*
X121184420Y-100013640D01*
X121184420Y-100013640D02*
X121184420Y-101013640D01*
X107184420Y-114013640D02*
X107184420Y-113013640D01*
X107184420Y-101013640D02*
X107184420Y-100013640D01*
%TO.C,K13*%
X126234420Y-43863640D02*
X126234420Y-42863640D01*
X126234420Y-56863640D02*
X126234420Y-55863640D01*
X140234420Y-42863640D02*
X140234420Y-43863640D01*
X139234420Y-42863640D02*
X140234420Y-42863640D01*
X140234420Y-56863640D02*
X139234420Y-56863640D01*
X140234420Y-55863640D02*
X140234420Y-56863640D01*
X127234420Y-56863640D02*
X126234420Y-56863640D01*
X126234420Y-42863640D02*
X127234420Y-42863640D01*
%TO.C,K14*%
X126234420Y-62913640D02*
X126234420Y-61913640D01*
X126234420Y-75913640D02*
X126234420Y-74913640D01*
X140234420Y-61913640D02*
X140234420Y-62913640D01*
X139234420Y-61913640D02*
X140234420Y-61913640D01*
X140234420Y-75913640D02*
X139234420Y-75913640D01*
X140234420Y-74913640D02*
X140234420Y-75913640D01*
X127234420Y-75913640D02*
X126234420Y-75913640D01*
X126234420Y-61913640D02*
X127234420Y-61913640D01*
%TO.C,K15*%
X126234420Y-81963640D02*
X126234420Y-80963640D01*
X126234420Y-94963640D02*
X126234420Y-93963640D01*
X140234420Y-80963640D02*
X140234420Y-81963640D01*
X139234420Y-80963640D02*
X140234420Y-80963640D01*
X140234420Y-94963640D02*
X139234420Y-94963640D01*
X140234420Y-93963640D02*
X140234420Y-94963640D01*
X127234420Y-94963640D02*
X126234420Y-94963640D01*
X126234420Y-80963640D02*
X127234420Y-80963640D01*
%TO.C,K16*%
X126234420Y-100013640D02*
X127234420Y-100013640D01*
X127234420Y-114013640D02*
X126234420Y-114013640D01*
X140234420Y-113013640D02*
X140234420Y-114013640D01*
X140234420Y-114013640D02*
X139234420Y-114013640D01*
X139234420Y-100013640D02*
X140234420Y-100013640D01*
X140234420Y-100013640D02*
X140234420Y-101013640D01*
X126234420Y-114013640D02*
X126234420Y-113013640D01*
X126234420Y-101013640D02*
X126234420Y-100013640D01*
%TO.C,K17*%
X145284420Y-43863640D02*
X145284420Y-42863640D01*
X145284420Y-56863640D02*
X145284420Y-55863640D01*
X159284420Y-42863640D02*
X159284420Y-43863640D01*
X158284420Y-42863640D02*
X159284420Y-42863640D01*
X159284420Y-56863640D02*
X158284420Y-56863640D01*
X159284420Y-55863640D02*
X159284420Y-56863640D01*
X146284420Y-56863640D02*
X145284420Y-56863640D01*
X145284420Y-42863640D02*
X146284420Y-42863640D01*
%TO.C,K18*%
X145284420Y-62913640D02*
X145284420Y-61913640D01*
X145284420Y-75913640D02*
X145284420Y-74913640D01*
X159284420Y-61913640D02*
X159284420Y-62913640D01*
X158284420Y-61913640D02*
X159284420Y-61913640D01*
X159284420Y-75913640D02*
X158284420Y-75913640D01*
X159284420Y-74913640D02*
X159284420Y-75913640D01*
X146284420Y-75913640D02*
X145284420Y-75913640D01*
X145284420Y-61913640D02*
X146284420Y-61913640D01*
%TO.C,K19*%
X145284420Y-80963640D02*
X146284420Y-80963640D01*
X146284420Y-94963640D02*
X145284420Y-94963640D01*
X159284420Y-93963640D02*
X159284420Y-94963640D01*
X159284420Y-94963640D02*
X158284420Y-94963640D01*
X158284420Y-80963640D02*
X159284420Y-80963640D01*
X159284420Y-80963640D02*
X159284420Y-81963640D01*
X145284420Y-94963640D02*
X145284420Y-93963640D01*
X145284420Y-81963640D02*
X145284420Y-80963640D01*
%TO.C,K20*%
X145284420Y-100013640D02*
X146284420Y-100013640D01*
X146284420Y-114013640D02*
X145284420Y-114013640D01*
X159284420Y-113013640D02*
X159284420Y-114013640D01*
X159284420Y-114013640D02*
X158284420Y-114013640D01*
X158284420Y-100013640D02*
X159284420Y-100013640D01*
X159284420Y-100013640D02*
X159284420Y-101013640D01*
X145284420Y-114013640D02*
X145284420Y-113013640D01*
X145284420Y-101013640D02*
X145284420Y-100013640D01*
%TO.C,K21*%
X145284420Y-124826140D02*
X145284420Y-123826140D01*
X145284420Y-137826140D02*
X145284420Y-136826140D01*
X159284420Y-123826140D02*
X159284420Y-124826140D01*
X158284420Y-123826140D02*
X159284420Y-123826140D01*
X159284420Y-137826140D02*
X158284420Y-137826140D01*
X159284420Y-136826140D02*
X159284420Y-137826140D01*
X146284420Y-137826140D02*
X145284420Y-137826140D01*
X145284420Y-123826140D02*
X146284420Y-123826140D01*
%TO.C,K23*%
X164334420Y-62913640D02*
X164334420Y-61913640D01*
X164334420Y-75913640D02*
X164334420Y-74913640D01*
X178334420Y-61913640D02*
X178334420Y-62913640D01*
X177334420Y-61913640D02*
X178334420Y-61913640D01*
X178334420Y-75913640D02*
X177334420Y-75913640D01*
X178334420Y-74913640D02*
X178334420Y-75913640D01*
X165334420Y-75913640D02*
X164334420Y-75913640D01*
X164334420Y-61913640D02*
X165334420Y-61913640D01*
%TO.C,K24*%
X164334420Y-80963640D02*
X165334420Y-80963640D01*
X165334420Y-94963640D02*
X164334420Y-94963640D01*
X178334420Y-93963640D02*
X178334420Y-94963640D01*
X178334420Y-94963640D02*
X177334420Y-94963640D01*
X177334420Y-80963640D02*
X178334420Y-80963640D01*
X178334420Y-80963640D02*
X178334420Y-81963640D01*
X164334420Y-94963640D02*
X164334420Y-93963640D01*
X164334420Y-81963640D02*
X164334420Y-80963640D01*
%TO.C,K25*%
X164334420Y-100013640D02*
X165334420Y-100013640D01*
X165334420Y-114013640D02*
X164334420Y-114013640D01*
X178334420Y-113013640D02*
X178334420Y-114013640D01*
X178334420Y-114013640D02*
X177334420Y-114013640D01*
X177334420Y-100013640D02*
X178334420Y-100013640D01*
X178334420Y-100013640D02*
X178334420Y-101013640D01*
X164334420Y-114013640D02*
X164334420Y-113013640D01*
X164334420Y-101013640D02*
X164334420Y-100013640D01*
%TO.C,K27*%
X183384420Y-47626140D02*
X184384420Y-47626140D01*
X184384420Y-61626140D02*
X183384420Y-61626140D01*
X197384420Y-60626140D02*
X197384420Y-61626140D01*
X197384420Y-61626140D02*
X196384420Y-61626140D01*
X196384420Y-47626140D02*
X197384420Y-47626140D01*
X197384420Y-47626140D02*
X197384420Y-48626140D01*
X183384420Y-61626140D02*
X183384420Y-60626140D01*
X183384420Y-48626140D02*
X183384420Y-47626140D01*
%TO.C,K28*%
X183384420Y-67676140D02*
X183384420Y-66676140D01*
X183384420Y-80676140D02*
X183384420Y-79676140D01*
X197384420Y-66676140D02*
X197384420Y-67676140D01*
X196384420Y-66676140D02*
X197384420Y-66676140D01*
X197384420Y-80676140D02*
X196384420Y-80676140D01*
X197384420Y-79676140D02*
X197384420Y-80676140D01*
X184384420Y-80676140D02*
X183384420Y-80676140D01*
X183384420Y-66676140D02*
X184384420Y-66676140D01*
%TO.C,K29*%
X183384420Y-85726140D02*
X184384420Y-85726140D01*
X184384420Y-99726140D02*
X183384420Y-99726140D01*
X197384420Y-98726140D02*
X197384420Y-99726140D01*
X197384420Y-99726140D02*
X196384420Y-99726140D01*
X196384420Y-85726140D02*
X197384420Y-85726140D01*
X197384420Y-85726140D02*
X197384420Y-86726140D01*
X183384420Y-99726140D02*
X183384420Y-98726140D01*
X183384420Y-86726140D02*
X183384420Y-85726140D01*
%TO.C,K30*%
X201862878Y-109164056D02*
X202569985Y-108456949D01*
X192670490Y-118356444D02*
X193377597Y-117649337D01*
X212469480Y-118356444D02*
X211762373Y-119063551D01*
X211762373Y-117649337D02*
X212469480Y-118356444D01*
X202569985Y-128255939D02*
X201862878Y-127548832D01*
X203277092Y-127548832D02*
X202569985Y-128255939D01*
X193377597Y-119063551D02*
X192670490Y-118356444D01*
X202569985Y-108456949D02*
X203277092Y-109164056D01*
%TO.C,K31*%
X183384420Y-133351140D02*
X184384420Y-133351140D01*
X184384420Y-147351140D02*
X183384420Y-147351140D01*
X197384420Y-146351140D02*
X197384420Y-147351140D01*
X197384420Y-147351140D02*
X196384420Y-147351140D01*
X196384420Y-133351140D02*
X197384420Y-133351140D01*
X197384420Y-133351140D02*
X197384420Y-134351140D01*
X183384420Y-147351140D02*
X183384420Y-146351140D01*
X183384420Y-134351140D02*
X183384420Y-133351140D01*
%TO.C,Brd1*%
X209484420Y-85428640D02*
X209484420Y-82888640D01*
X219644420Y-82888640D02*
X219644420Y-85428640D01*
X209484420Y-82888640D02*
X219644420Y-82888640D01*
X209484420Y-85428640D02*
X219644420Y-85428640D01*
%TO.C,U2*%
X225994420Y-94898640D02*
X225994420Y-88798640D01*
X213894420Y-94898640D02*
X213894420Y-88798640D01*
X225994420Y-94898640D02*
X213894420Y-94898640D01*
X225994420Y-88798640D02*
X213894420Y-88798640D01*
X225994420Y-94648640D02*
X227994420Y-94648640D01*
X225994420Y-89048640D02*
X227994420Y-89048640D01*
X227994420Y-94648640D02*
X227994420Y-89048640D01*
%TO.C,R1*%
X203833670Y-100212640D02*
X203579670Y-99958640D01*
X203579670Y-99958640D02*
X203579670Y-99704640D01*
X203579670Y-99704640D02*
X203833670Y-99450640D01*
X203833670Y-99450640D02*
X203833670Y-95386640D01*
X203833670Y-95386640D02*
X203579670Y-95132640D01*
X203579670Y-95132640D02*
X203579670Y-94878640D01*
X203579670Y-94878640D02*
X203833670Y-94624640D01*
X203833670Y-94624640D02*
X205357670Y-94624640D01*
X205357670Y-94624640D02*
X205611670Y-94878640D01*
X205611670Y-94878640D02*
X205611670Y-95132640D01*
X205611670Y-95132640D02*
X205357670Y-95386640D01*
X205357670Y-95386640D02*
X205357670Y-99450640D01*
X205357670Y-99450640D02*
X205611670Y-99704640D01*
X205611670Y-99704640D02*
X205611670Y-99958640D01*
X205611670Y-99958640D02*
X205357670Y-100212640D01*
X205357670Y-100212640D02*
X203833670Y-100212640D01*
X204595670Y-100720640D02*
X204595670Y-100212640D01*
X204595670Y-94624640D02*
X204595670Y-94116640D01*
%TO.C,REF\u002A\u002A*%
X103392336Y-56861020D02*
X103059003Y-56384830D01*
X102820908Y-56861020D02*
X102820908Y-55861020D01*
X103201860Y-55861020D01*
X103297098Y-55908640D01*
X103344717Y-55956259D01*
X103392336Y-56051497D01*
X103392336Y-56194354D01*
X103344717Y-56289592D01*
X103297098Y-56337211D01*
X103201860Y-56384830D01*
X102820908Y-56384830D01*
X103820908Y-56337211D02*
X104154241Y-56337211D01*
X104297098Y-56861020D02*
X103820908Y-56861020D01*
X103820908Y-55861020D01*
X104297098Y-55861020D01*
X105059003Y-56337211D02*
X104725670Y-56337211D01*
X104725670Y-56861020D02*
X104725670Y-55861020D01*
X105201860Y-55861020D01*
X105725670Y-55861020D02*
X105725670Y-56099116D01*
X105487574Y-56003878D02*
X105725670Y-56099116D01*
X105963765Y-56003878D01*
X105582812Y-56289592D02*
X105725670Y-56099116D01*
X105868527Y-56289592D01*
X106487574Y-55861020D02*
X106487574Y-56099116D01*
X106249479Y-56003878D02*
X106487574Y-56099116D01*
X106725670Y-56003878D01*
X106344717Y-56289592D02*
X106487574Y-56099116D01*
X106630431Y-56289592D01*
X103082336Y-94981020D02*
X102749003Y-94504830D01*
X102510908Y-94981020D02*
X102510908Y-93981020D01*
X102891860Y-93981020D01*
X102987098Y-94028640D01*
X103034717Y-94076259D01*
X103082336Y-94171497D01*
X103082336Y-94314354D01*
X103034717Y-94409592D01*
X102987098Y-94457211D01*
X102891860Y-94504830D01*
X102510908Y-94504830D01*
X103510908Y-94457211D02*
X103844241Y-94457211D01*
X103987098Y-94981020D02*
X103510908Y-94981020D01*
X103510908Y-93981020D01*
X103987098Y-93981020D01*
X104749003Y-94457211D02*
X104415670Y-94457211D01*
X104415670Y-94981020D02*
X104415670Y-93981020D01*
X104891860Y-93981020D01*
X105415670Y-93981020D02*
X105415670Y-94219116D01*
X105177574Y-94123878D02*
X105415670Y-94219116D01*
X105653765Y-94123878D01*
X105272812Y-94409592D02*
X105415670Y-94219116D01*
X105558527Y-94409592D01*
X106177574Y-93981020D02*
X106177574Y-94219116D01*
X105939479Y-94123878D02*
X106177574Y-94219116D01*
X106415670Y-94123878D01*
X106034717Y-94409592D02*
X106177574Y-94219116D01*
X106320431Y-94409592D01*
X66002336Y-95141020D02*
X65669003Y-94664830D01*
X65430908Y-95141020D02*
X65430908Y-94141020D01*
X65811860Y-94141020D01*
X65907098Y-94188640D01*
X65954717Y-94236259D01*
X66002336Y-94331497D01*
X66002336Y-94474354D01*
X65954717Y-94569592D01*
X65907098Y-94617211D01*
X65811860Y-94664830D01*
X65430908Y-94664830D01*
X66430908Y-94617211D02*
X66764241Y-94617211D01*
X66907098Y-95141020D02*
X66430908Y-95141020D01*
X66430908Y-94141020D01*
X66907098Y-94141020D01*
X67669003Y-94617211D02*
X67335670Y-94617211D01*
X67335670Y-95141020D02*
X67335670Y-94141020D01*
X67811860Y-94141020D01*
X68335670Y-94141020D02*
X68335670Y-94379116D01*
X68097574Y-94283878D02*
X68335670Y-94379116D01*
X68573765Y-94283878D01*
X68192812Y-94569592D02*
X68335670Y-94379116D01*
X68478527Y-94569592D01*
X69097574Y-94141020D02*
X69097574Y-94379116D01*
X68859479Y-94283878D02*
X69097574Y-94379116D01*
X69335670Y-94283878D01*
X68954717Y-94569592D02*
X69097574Y-94379116D01*
X69240431Y-94569592D01*
X141032336Y-94861020D02*
X140699003Y-94384830D01*
X140460908Y-94861020D02*
X140460908Y-93861020D01*
X140841860Y-93861020D01*
X140937098Y-93908640D01*
X140984717Y-93956259D01*
X141032336Y-94051497D01*
X141032336Y-94194354D01*
X140984717Y-94289592D01*
X140937098Y-94337211D01*
X140841860Y-94384830D01*
X140460908Y-94384830D01*
X141460908Y-94337211D02*
X141794241Y-94337211D01*
X141937098Y-94861020D02*
X141460908Y-94861020D01*
X141460908Y-93861020D01*
X141937098Y-93861020D01*
X142699003Y-94337211D02*
X142365670Y-94337211D01*
X142365670Y-94861020D02*
X142365670Y-93861020D01*
X142841860Y-93861020D01*
X143365670Y-93861020D02*
X143365670Y-94099116D01*
X143127574Y-94003878D02*
X143365670Y-94099116D01*
X143603765Y-94003878D01*
X143222812Y-94289592D02*
X143365670Y-94099116D01*
X143508527Y-94289592D01*
X144127574Y-93861020D02*
X144127574Y-94099116D01*
X143889479Y-94003878D02*
X144127574Y-94099116D01*
X144365670Y-94003878D01*
X143984717Y-94289592D02*
X144127574Y-94099116D01*
X144270431Y-94289592D01*
X140512336Y-132821020D02*
X140179003Y-132344830D01*
X139940908Y-132821020D02*
X139940908Y-131821020D01*
X140321860Y-131821020D01*
X140417098Y-131868640D01*
X140464717Y-131916259D01*
X140512336Y-132011497D01*
X140512336Y-132154354D01*
X140464717Y-132249592D01*
X140417098Y-132297211D01*
X140321860Y-132344830D01*
X139940908Y-132344830D01*
X140940908Y-132297211D02*
X141274241Y-132297211D01*
X141417098Y-132821020D02*
X140940908Y-132821020D01*
X140940908Y-131821020D01*
X141417098Y-131821020D01*
X142179003Y-132297211D02*
X141845670Y-132297211D01*
X141845670Y-132821020D02*
X141845670Y-131821020D01*
X142321860Y-131821020D01*
X142845670Y-131821020D02*
X142845670Y-132059116D01*
X142607574Y-131963878D02*
X142845670Y-132059116D01*
X143083765Y-131963878D01*
X142702812Y-132249592D02*
X142845670Y-132059116D01*
X142988527Y-132249592D01*
X143607574Y-131821020D02*
X143607574Y-132059116D01*
X143369479Y-131963878D02*
X143607574Y-132059116D01*
X143845670Y-131963878D01*
X143464717Y-132249592D02*
X143607574Y-132059116D01*
X143750431Y-132249592D01*
X178862336Y-142641020D02*
X178529003Y-142164830D01*
X178290908Y-142641020D02*
X178290908Y-141641020D01*
X178671860Y-141641020D01*
X178767098Y-141688640D01*
X178814717Y-141736259D01*
X178862336Y-141831497D01*
X178862336Y-141974354D01*
X178814717Y-142069592D01*
X178767098Y-142117211D01*
X178671860Y-142164830D01*
X178290908Y-142164830D01*
X179290908Y-142117211D02*
X179624241Y-142117211D01*
X179767098Y-142641020D02*
X179290908Y-142641020D01*
X179290908Y-141641020D01*
X179767098Y-141641020D01*
X180529003Y-142117211D02*
X180195670Y-142117211D01*
X180195670Y-142641020D02*
X180195670Y-141641020D01*
X180671860Y-141641020D01*
X181195670Y-141641020D02*
X181195670Y-141879116D01*
X180957574Y-141783878D02*
X181195670Y-141879116D01*
X181433765Y-141783878D01*
X181052812Y-142069592D02*
X181195670Y-141879116D01*
X181338527Y-142069592D01*
X181957574Y-141641020D02*
X181957574Y-141879116D01*
X181719479Y-141783878D02*
X181957574Y-141879116D01*
X182195670Y-141783878D01*
X181814717Y-142069592D02*
X181957574Y-141879116D01*
X182100431Y-142069592D01*
X196012336Y-125741020D02*
X195679003Y-125264830D01*
X195440908Y-125741020D02*
X195440908Y-124741020D01*
X195821860Y-124741020D01*
X195917098Y-124788640D01*
X195964717Y-124836259D01*
X196012336Y-124931497D01*
X196012336Y-125074354D01*
X195964717Y-125169592D01*
X195917098Y-125217211D01*
X195821860Y-125264830D01*
X195440908Y-125264830D01*
X196440908Y-125217211D02*
X196774241Y-125217211D01*
X196917098Y-125741020D02*
X196440908Y-125741020D01*
X196440908Y-124741020D01*
X196917098Y-124741020D01*
X197679003Y-125217211D02*
X197345670Y-125217211D01*
X197345670Y-125741020D02*
X197345670Y-124741020D01*
X197821860Y-124741020D01*
X198345670Y-124741020D02*
X198345670Y-124979116D01*
X198107574Y-124883878D02*
X198345670Y-124979116D01*
X198583765Y-124883878D01*
X198202812Y-125169592D02*
X198345670Y-124979116D01*
X198488527Y-125169592D01*
X199107574Y-124741020D02*
X199107574Y-124979116D01*
X198869479Y-124883878D02*
X199107574Y-124979116D01*
X199345670Y-124883878D01*
X198964717Y-125169592D02*
X199107574Y-124979116D01*
X199250431Y-125169592D01*
X197692336Y-100811020D02*
X197359003Y-100334830D01*
X197120908Y-100811020D02*
X197120908Y-99811020D01*
X197501860Y-99811020D01*
X197597098Y-99858640D01*
X197644717Y-99906259D01*
X197692336Y-100001497D01*
X197692336Y-100144354D01*
X197644717Y-100239592D01*
X197597098Y-100287211D01*
X197501860Y-100334830D01*
X197120908Y-100334830D01*
X198120908Y-100287211D02*
X198454241Y-100287211D01*
X198597098Y-100811020D02*
X198120908Y-100811020D01*
X198120908Y-99811020D01*
X198597098Y-99811020D01*
X199359003Y-100287211D02*
X199025670Y-100287211D01*
X199025670Y-100811020D02*
X199025670Y-99811020D01*
X199501860Y-99811020D01*
X200025670Y-99811020D02*
X200025670Y-100049116D01*
X199787574Y-99953878D02*
X200025670Y-100049116D01*
X200263765Y-99953878D01*
X199882812Y-100239592D02*
X200025670Y-100049116D01*
X200168527Y-100239592D01*
X200787574Y-99811020D02*
X200787574Y-100049116D01*
X200549479Y-99953878D02*
X200787574Y-100049116D01*
X201025670Y-99953878D01*
X200644717Y-100239592D02*
X200787574Y-100049116D01*
X200930431Y-100239592D01*
X197582336Y-61411020D02*
X197249003Y-60934830D01*
X197010908Y-61411020D02*
X197010908Y-60411020D01*
X197391860Y-60411020D01*
X197487098Y-60458640D01*
X197534717Y-60506259D01*
X197582336Y-60601497D01*
X197582336Y-60744354D01*
X197534717Y-60839592D01*
X197487098Y-60887211D01*
X197391860Y-60934830D01*
X197010908Y-60934830D01*
X198010908Y-60887211D02*
X198344241Y-60887211D01*
X198487098Y-61411020D02*
X198010908Y-61411020D01*
X198010908Y-60411020D01*
X198487098Y-60411020D01*
X199249003Y-60887211D02*
X198915670Y-60887211D01*
X198915670Y-61411020D02*
X198915670Y-60411020D01*
X199391860Y-60411020D01*
X199915670Y-60411020D02*
X199915670Y-60649116D01*
X199677574Y-60553878D02*
X199915670Y-60649116D01*
X200153765Y-60553878D01*
X199772812Y-60839592D02*
X199915670Y-60649116D01*
X200058527Y-60839592D01*
X200677574Y-60411020D02*
X200677574Y-60649116D01*
X200439479Y-60553878D02*
X200677574Y-60649116D01*
X200915670Y-60553878D01*
X200534717Y-60839592D02*
X200677574Y-60649116D01*
X200820431Y-60839592D01*
X160132336Y-56851020D02*
X159799003Y-56374830D01*
X159560908Y-56851020D02*
X159560908Y-55851020D01*
X159941860Y-55851020D01*
X160037098Y-55898640D01*
X160084717Y-55946259D01*
X160132336Y-56041497D01*
X160132336Y-56184354D01*
X160084717Y-56279592D01*
X160037098Y-56327211D01*
X159941860Y-56374830D01*
X159560908Y-56374830D01*
X160560908Y-56327211D02*
X160894241Y-56327211D01*
X161037098Y-56851020D02*
X160560908Y-56851020D01*
X160560908Y-55851020D01*
X161037098Y-55851020D01*
X161799003Y-56327211D02*
X161465670Y-56327211D01*
X161465670Y-56851020D02*
X161465670Y-55851020D01*
X161941860Y-55851020D01*
X162465670Y-55851020D02*
X162465670Y-56089116D01*
X162227574Y-55993878D02*
X162465670Y-56089116D01*
X162703765Y-55993878D01*
X162322812Y-56279592D02*
X162465670Y-56089116D01*
X162608527Y-56279592D01*
X163227574Y-55851020D02*
X163227574Y-56089116D01*
X162989479Y-55993878D02*
X163227574Y-56089116D01*
X163465670Y-55993878D01*
X163084717Y-56279592D02*
X163227574Y-56089116D01*
X163370431Y-56279592D01*
%TO.C,D37*%
X140296800Y-54142925D02*
X139296800Y-54142925D01*
X139296800Y-53904830D01*
X139344420Y-53761973D01*
X139439658Y-53666735D01*
X139534896Y-53619116D01*
X139725372Y-53571497D01*
X139868229Y-53571497D01*
X140058705Y-53619116D01*
X140153943Y-53666735D01*
X140249181Y-53761973D01*
X140296800Y-53904830D01*
X140296800Y-54142925D01*
X139296800Y-53238163D02*
X139296800Y-52619116D01*
X139677753Y-52952449D01*
X139677753Y-52809592D01*
X139725372Y-52714354D01*
X139772991Y-52666735D01*
X139868229Y-52619116D01*
X140106324Y-52619116D01*
X140201562Y-52666735D01*
X140249181Y-52714354D01*
X140296800Y-52809592D01*
X140296800Y-53095306D01*
X140249181Y-53190544D01*
X140201562Y-53238163D01*
X139296800Y-52285782D02*
X139296800Y-51619116D01*
X140296800Y-52047687D01*
X145546800Y-52892925D02*
X145546800Y-53464354D01*
X145546800Y-53178640D02*
X144546800Y-53178640D01*
X144689658Y-53273878D01*
X144784896Y-53369116D01*
X144832515Y-53464354D01*
%TO.C,REF\u002A\u002A*%
X60082336Y-124071020D02*
X59749003Y-123594830D01*
X59510908Y-124071020D02*
X59510908Y-123071020D01*
X59891860Y-123071020D01*
X59987098Y-123118640D01*
X60034717Y-123166259D01*
X60082336Y-123261497D01*
X60082336Y-123404354D01*
X60034717Y-123499592D01*
X59987098Y-123547211D01*
X59891860Y-123594830D01*
X59510908Y-123594830D01*
X60510908Y-123547211D02*
X60844241Y-123547211D01*
X60987098Y-124071020D02*
X60510908Y-124071020D01*
X60510908Y-123071020D01*
X60987098Y-123071020D01*
X61749003Y-123547211D02*
X61415670Y-123547211D01*
X61415670Y-124071020D02*
X61415670Y-123071020D01*
X61891860Y-123071020D01*
X62415670Y-123071020D02*
X62415670Y-123309116D01*
X62177574Y-123213878D02*
X62415670Y-123309116D01*
X62653765Y-123213878D01*
X62272812Y-123499592D02*
X62415670Y-123309116D01*
X62558527Y-123499592D01*
X63177574Y-123071020D02*
X63177574Y-123309116D01*
X62939479Y-123213878D02*
X63177574Y-123309116D01*
X63415670Y-123213878D01*
X63034717Y-123499592D02*
X63177574Y-123309116D01*
X63320431Y-123499592D01*
%TO.C,D19*%
X151312991Y-95013044D02*
X151312991Y-94213044D01*
X151503467Y-94213044D01*
X151617753Y-94251140D01*
X151693943Y-94327330D01*
X151732039Y-94403520D01*
X151770134Y-94555901D01*
X151770134Y-94670187D01*
X151732039Y-94822568D01*
X151693943Y-94898759D01*
X151617753Y-94974949D01*
X151503467Y-95013044D01*
X151312991Y-95013044D01*
X152532039Y-95013044D02*
X152074896Y-95013044D01*
X152303467Y-95013044D02*
X152303467Y-94213044D01*
X152227277Y-94327330D01*
X152151086Y-94403520D01*
X152074896Y-94441616D01*
X152912991Y-95013044D02*
X153065372Y-95013044D01*
X153141562Y-94974949D01*
X153179658Y-94936854D01*
X153255848Y-94822568D01*
X153293943Y-94670187D01*
X153293943Y-94365425D01*
X153255848Y-94289235D01*
X153217753Y-94251140D01*
X153141562Y-94213044D01*
X152989181Y-94213044D01*
X152912991Y-94251140D01*
X152874896Y-94289235D01*
X152836800Y-94365425D01*
X152836800Y-94555901D01*
X152874896Y-94632092D01*
X152912991Y-94670187D01*
X152989181Y-94708282D01*
X153141562Y-94708282D01*
X153217753Y-94670187D01*
X153255848Y-94632092D01*
X153293943Y-94555901D01*
%TO.C,REF\u002A\u002A*%
X123972336Y-129581020D02*
X123639003Y-129104830D01*
X123400908Y-129581020D02*
X123400908Y-128581020D01*
X123781860Y-128581020D01*
X123877098Y-128628640D01*
X123924717Y-128676259D01*
X123972336Y-128771497D01*
X123972336Y-128914354D01*
X123924717Y-129009592D01*
X123877098Y-129057211D01*
X123781860Y-129104830D01*
X123400908Y-129104830D01*
X124400908Y-129057211D02*
X124734241Y-129057211D01*
X124877098Y-129581020D02*
X124400908Y-129581020D01*
X124400908Y-128581020D01*
X124877098Y-128581020D01*
X125639003Y-129057211D02*
X125305670Y-129057211D01*
X125305670Y-129581020D02*
X125305670Y-128581020D01*
X125781860Y-128581020D01*
X126305670Y-128581020D02*
X126305670Y-128819116D01*
X126067574Y-128723878D02*
X126305670Y-128819116D01*
X126543765Y-128723878D01*
X126162812Y-129009592D02*
X126305670Y-128819116D01*
X126448527Y-129009592D01*
X127067574Y-128581020D02*
X127067574Y-128819116D01*
X126829479Y-128723878D02*
X127067574Y-128819116D01*
X127305670Y-128723878D01*
X126924717Y-129009592D02*
X127067574Y-128819116D01*
X127210431Y-129009592D01*
X178861086Y-142641020D02*
X178527753Y-142164830D01*
X178289658Y-142641020D02*
X178289658Y-141641020D01*
X178670610Y-141641020D01*
X178765848Y-141688640D01*
X178813467Y-141736259D01*
X178861086Y-141831497D01*
X178861086Y-141974354D01*
X178813467Y-142069592D01*
X178765848Y-142117211D01*
X178670610Y-142164830D01*
X178289658Y-142164830D01*
X179289658Y-142117211D02*
X179622991Y-142117211D01*
X179765848Y-142641020D02*
X179289658Y-142641020D01*
X179289658Y-141641020D01*
X179765848Y-141641020D01*
X180527753Y-142117211D02*
X180194420Y-142117211D01*
X180194420Y-142641020D02*
X180194420Y-141641020D01*
X180670610Y-141641020D01*
X181194420Y-141641020D02*
X181194420Y-141879116D01*
X180956324Y-141783878D02*
X181194420Y-141879116D01*
X181432515Y-141783878D01*
X181051562Y-142069592D02*
X181194420Y-141879116D01*
X181337277Y-142069592D01*
X181956324Y-141641020D02*
X181956324Y-141879116D01*
X181718229Y-141783878D02*
X181956324Y-141879116D01*
X182194420Y-141783878D01*
X181813467Y-142069592D02*
X181956324Y-141879116D01*
X182099181Y-142069592D01*
X123442336Y-131541020D02*
X123109003Y-131064830D01*
X122870908Y-131541020D02*
X122870908Y-130541020D01*
X123251860Y-130541020D01*
X123347098Y-130588640D01*
X123394717Y-130636259D01*
X123442336Y-130731497D01*
X123442336Y-130874354D01*
X123394717Y-130969592D01*
X123347098Y-131017211D01*
X123251860Y-131064830D01*
X122870908Y-131064830D01*
X123870908Y-131017211D02*
X124204241Y-131017211D01*
X124347098Y-131541020D02*
X123870908Y-131541020D01*
X123870908Y-130541020D01*
X124347098Y-130541020D01*
X125109003Y-131017211D02*
X124775670Y-131017211D01*
X124775670Y-131541020D02*
X124775670Y-130541020D01*
X125251860Y-130541020D01*
X125775670Y-130541020D02*
X125775670Y-130779116D01*
X125537574Y-130683878D02*
X125775670Y-130779116D01*
X126013765Y-130683878D01*
X125632812Y-130969592D02*
X125775670Y-130779116D01*
X125918527Y-130969592D01*
X126537574Y-130541020D02*
X126537574Y-130779116D01*
X126299479Y-130683878D02*
X126537574Y-130779116D01*
X126775670Y-130683878D01*
X126394717Y-130969592D02*
X126537574Y-130779116D01*
X126680431Y-130969592D01*
X123752336Y-127831020D02*
X123419003Y-127354830D01*
X123180908Y-127831020D02*
X123180908Y-126831020D01*
X123561860Y-126831020D01*
X123657098Y-126878640D01*
X123704717Y-126926259D01*
X123752336Y-127021497D01*
X123752336Y-127164354D01*
X123704717Y-127259592D01*
X123657098Y-127307211D01*
X123561860Y-127354830D01*
X123180908Y-127354830D01*
X124180908Y-127307211D02*
X124514241Y-127307211D01*
X124657098Y-127831020D02*
X124180908Y-127831020D01*
X124180908Y-126831020D01*
X124657098Y-126831020D01*
X125419003Y-127307211D02*
X125085670Y-127307211D01*
X125085670Y-127831020D02*
X125085670Y-126831020D01*
X125561860Y-126831020D01*
X126085670Y-126831020D02*
X126085670Y-127069116D01*
X125847574Y-126973878D02*
X126085670Y-127069116D01*
X126323765Y-126973878D01*
X125942812Y-127259592D02*
X126085670Y-127069116D01*
X126228527Y-127259592D01*
X126847574Y-126831020D02*
X126847574Y-127069116D01*
X126609479Y-126973878D02*
X126847574Y-127069116D01*
X127085670Y-126973878D01*
X126704717Y-127259592D02*
X126847574Y-127069116D01*
X126990431Y-127259592D01*
%TO.C,D40*%
X135000782Y-117655017D02*
X135707889Y-116947911D01*
X135876248Y-117116269D01*
X135943591Y-117250956D01*
X135943591Y-117385643D01*
X135909919Y-117486659D01*
X135808904Y-117655017D01*
X135707889Y-117756033D01*
X135539530Y-117857048D01*
X135438515Y-117890720D01*
X135303828Y-117890720D01*
X135169141Y-117823376D01*
X135000782Y-117655017D01*
X136482339Y-118193765D02*
X136010935Y-118665170D01*
X136583355Y-117756033D02*
X135909919Y-118092750D01*
X136347652Y-118530483D01*
X137223118Y-118463140D02*
X137290461Y-118530483D01*
X137324133Y-118631498D01*
X137324133Y-118698842D01*
X137290461Y-118799857D01*
X137189446Y-118968216D01*
X137021087Y-119136575D01*
X136852729Y-119237590D01*
X136751713Y-119271262D01*
X136684370Y-119271262D01*
X136583355Y-119237590D01*
X136516011Y-119170246D01*
X136482339Y-119069231D01*
X136482339Y-119001888D01*
X136516011Y-118900872D01*
X136617026Y-118732514D01*
X136785385Y-118564155D01*
X136953744Y-118463140D01*
X137054759Y-118429468D01*
X137122103Y-118429468D01*
X137223118Y-118463140D01*
X131783446Y-117124688D02*
X131379385Y-116720627D01*
X131581416Y-116922657D02*
X132288523Y-116215550D01*
X132120164Y-116249222D01*
X131985477Y-116249222D01*
X131884462Y-116215550D01*
%TO.C,D35*%
X184746800Y-54822925D02*
X183746800Y-54822925D01*
X183746800Y-54584830D01*
X183794420Y-54441973D01*
X183889658Y-54346735D01*
X183984896Y-54299116D01*
X184175372Y-54251497D01*
X184318229Y-54251497D01*
X184508705Y-54299116D01*
X184603943Y-54346735D01*
X184699181Y-54441973D01*
X184746800Y-54584830D01*
X184746800Y-54822925D01*
X183746800Y-53918163D02*
X183746800Y-53299116D01*
X184127753Y-53632449D01*
X184127753Y-53489592D01*
X184175372Y-53394354D01*
X184222991Y-53346735D01*
X184318229Y-53299116D01*
X184556324Y-53299116D01*
X184651562Y-53346735D01*
X184699181Y-53394354D01*
X184746800Y-53489592D01*
X184746800Y-53775306D01*
X184699181Y-53870544D01*
X184651562Y-53918163D01*
X183746800Y-52394354D02*
X183746800Y-52870544D01*
X184222991Y-52918163D01*
X184175372Y-52870544D01*
X184127753Y-52775306D01*
X184127753Y-52537211D01*
X184175372Y-52441973D01*
X184222991Y-52394354D01*
X184318229Y-52346735D01*
X184556324Y-52346735D01*
X184651562Y-52394354D01*
X184699181Y-52441973D01*
X184746800Y-52537211D01*
X184746800Y-52775306D01*
X184699181Y-52870544D01*
X184651562Y-52918163D01*
X182846800Y-49172925D02*
X182846800Y-49744354D01*
X182846800Y-49458640D02*
X181846800Y-49458640D01*
X181989658Y-49553878D01*
X182084896Y-49649116D01*
X182132515Y-49744354D01*
%TO.C,K26*%
X170120134Y-127786020D02*
X170120134Y-126786020D01*
X170691562Y-127786020D02*
X170262991Y-127214592D01*
X170691562Y-126786020D02*
X170120134Y-127357449D01*
X171072515Y-126881259D02*
X171120134Y-126833640D01*
X171215372Y-126786020D01*
X171453467Y-126786020D01*
X171548705Y-126833640D01*
X171596324Y-126881259D01*
X171643943Y-126976497D01*
X171643943Y-127071735D01*
X171596324Y-127214592D01*
X171024896Y-127786020D01*
X171643943Y-127786020D01*
X172501086Y-126786020D02*
X172310610Y-126786020D01*
X172215372Y-126833640D01*
X172167753Y-126881259D01*
X172072515Y-127024116D01*
X172024896Y-127214592D01*
X172024896Y-127595544D01*
X172072515Y-127690782D01*
X172120134Y-127738401D01*
X172215372Y-127786020D01*
X172405848Y-127786020D01*
X172501086Y-127738401D01*
X172548705Y-127690782D01*
X172596324Y-127595544D01*
X172596324Y-127357449D01*
X172548705Y-127262211D01*
X172501086Y-127214592D01*
X172405848Y-127166973D01*
X172215372Y-127166973D01*
X172120134Y-127214592D01*
X172072515Y-127262211D01*
X172024896Y-127357449D01*
%TO.C,K1*%
X75346324Y-61111020D02*
X75346324Y-60111020D01*
X75917753Y-61111020D02*
X75489181Y-60539592D01*
X75917753Y-60111020D02*
X75346324Y-60682449D01*
X76870134Y-61111020D02*
X76298705Y-61111020D01*
X76584420Y-61111020D02*
X76584420Y-60111020D01*
X76489181Y-60253878D01*
X76393943Y-60349116D01*
X76298705Y-60396735D01*
%TO.C,SW1*%
X214439181Y-98861973D02*
X214486800Y-98719116D01*
X214486800Y-98481020D01*
X214439181Y-98385782D01*
X214391562Y-98338163D01*
X214296324Y-98290544D01*
X214201086Y-98290544D01*
X214105848Y-98338163D01*
X214058229Y-98385782D01*
X214010610Y-98481020D01*
X213962991Y-98671497D01*
X213915372Y-98766735D01*
X213867753Y-98814354D01*
X213772515Y-98861973D01*
X213677277Y-98861973D01*
X213582039Y-98814354D01*
X213534420Y-98766735D01*
X213486800Y-98671497D01*
X213486800Y-98433401D01*
X213534420Y-98290544D01*
X213486800Y-97957211D02*
X214486800Y-97719116D01*
X213772515Y-97528640D01*
X214486800Y-97338163D01*
X213486800Y-97100068D01*
X214486800Y-96195306D02*
X214486800Y-96766735D01*
X214486800Y-96481020D02*
X213486800Y-96481020D01*
X213629658Y-96576259D01*
X213724896Y-96671497D01*
X213772515Y-96766735D01*
%TO.C,D41*%
X89356800Y-64152925D02*
X88356800Y-64152925D01*
X88356800Y-63914830D01*
X88404420Y-63771973D01*
X88499658Y-63676735D01*
X88594896Y-63629116D01*
X88785372Y-63581497D01*
X88928229Y-63581497D01*
X89118705Y-63629116D01*
X89213943Y-63676735D01*
X89309181Y-63771973D01*
X89356800Y-63914830D01*
X89356800Y-64152925D01*
X88690134Y-62724354D02*
X89356800Y-62724354D01*
X88309181Y-62962449D02*
X89023467Y-63200544D01*
X89023467Y-62581497D01*
X89356800Y-61676735D02*
X89356800Y-62248163D01*
X89356800Y-61962449D02*
X88356800Y-61962449D01*
X88499658Y-62057687D01*
X88594896Y-62152925D01*
X88642515Y-62248163D01*
X87456800Y-58502925D02*
X87456800Y-59074354D01*
X87456800Y-58788640D02*
X86456800Y-58788640D01*
X86599658Y-58883878D01*
X86694896Y-58979116D01*
X86742515Y-59074354D01*
%TO.C,K2*%
X75346324Y-80161020D02*
X75346324Y-79161020D01*
X75917753Y-80161020D02*
X75489181Y-79589592D01*
X75917753Y-79161020D02*
X75346324Y-79732449D01*
X76298705Y-79256259D02*
X76346324Y-79208640D01*
X76441562Y-79161020D01*
X76679658Y-79161020D01*
X76774896Y-79208640D01*
X76822515Y-79256259D01*
X76870134Y-79351497D01*
X76870134Y-79446735D01*
X76822515Y-79589592D01*
X76251086Y-80161020D01*
X76870134Y-80161020D01*
%TO.C,K3*%
X75346324Y-99211020D02*
X75346324Y-98211020D01*
X75917753Y-99211020D02*
X75489181Y-98639592D01*
X75917753Y-98211020D02*
X75346324Y-98782449D01*
X76251086Y-98211020D02*
X76870134Y-98211020D01*
X76536800Y-98591973D01*
X76679658Y-98591973D01*
X76774896Y-98639592D01*
X76822515Y-98687211D01*
X76870134Y-98782449D01*
X76870134Y-99020544D01*
X76822515Y-99115782D01*
X76774896Y-99163401D01*
X76679658Y-99211020D01*
X76393943Y-99211020D01*
X76298705Y-99163401D01*
X76251086Y-99115782D01*
%TO.C,K11*%
X112970134Y-80161020D02*
X112970134Y-79161020D01*
X113541562Y-80161020D02*
X113112991Y-79589592D01*
X113541562Y-79161020D02*
X112970134Y-79732449D01*
X114493943Y-80161020D02*
X113922515Y-80161020D01*
X114208229Y-80161020D02*
X114208229Y-79161020D01*
X114112991Y-79303878D01*
X114017753Y-79399116D01*
X113922515Y-79446735D01*
X115446324Y-80161020D02*
X114874896Y-80161020D01*
X115160610Y-80161020D02*
X115160610Y-79161020D01*
X115065372Y-79303878D01*
X114970134Y-79399116D01*
X114874896Y-79446735D01*
%TO.C,D39*%
X108666800Y-52082925D02*
X107666800Y-52082925D01*
X107666800Y-51844830D01*
X107714420Y-51701973D01*
X107809658Y-51606735D01*
X107904896Y-51559116D01*
X108095372Y-51511497D01*
X108238229Y-51511497D01*
X108428705Y-51559116D01*
X108523943Y-51606735D01*
X108619181Y-51701973D01*
X108666800Y-51844830D01*
X108666800Y-52082925D01*
X107666800Y-51178163D02*
X107666800Y-50559116D01*
X108047753Y-50892449D01*
X108047753Y-50749592D01*
X108095372Y-50654354D01*
X108142991Y-50606735D01*
X108238229Y-50559116D01*
X108476324Y-50559116D01*
X108571562Y-50606735D01*
X108619181Y-50654354D01*
X108666800Y-50749592D01*
X108666800Y-51035306D01*
X108619181Y-51130544D01*
X108571562Y-51178163D01*
X108666800Y-50082925D02*
X108666800Y-49892449D01*
X108619181Y-49797211D01*
X108571562Y-49749592D01*
X108428705Y-49654354D01*
X108238229Y-49606735D01*
X107857277Y-49606735D01*
X107762039Y-49654354D01*
X107714420Y-49701973D01*
X107666800Y-49797211D01*
X107666800Y-49987687D01*
X107714420Y-50082925D01*
X107762039Y-50130544D01*
X107857277Y-50178163D01*
X108095372Y-50178163D01*
X108190610Y-50130544D01*
X108238229Y-50082925D01*
X108285848Y-49987687D01*
X108285848Y-49797211D01*
X108238229Y-49701973D01*
X108190610Y-49654354D01*
X108095372Y-49606735D01*
X104666800Y-50582925D02*
X104666800Y-51154354D01*
X104666800Y-50868640D02*
X103666800Y-50868640D01*
X103809658Y-50963878D01*
X103904896Y-51059116D01*
X103952515Y-51154354D01*
%TO.C,D38*%
X181106800Y-123202925D02*
X180106800Y-123202925D01*
X180106800Y-122964830D01*
X180154420Y-122821973D01*
X180249658Y-122726735D01*
X180344896Y-122679116D01*
X180535372Y-122631497D01*
X180678229Y-122631497D01*
X180868705Y-122679116D01*
X180963943Y-122726735D01*
X181059181Y-122821973D01*
X181106800Y-122964830D01*
X181106800Y-123202925D01*
X180106800Y-122298163D02*
X180106800Y-121679116D01*
X180487753Y-122012449D01*
X180487753Y-121869592D01*
X180535372Y-121774354D01*
X180582991Y-121726735D01*
X180678229Y-121679116D01*
X180916324Y-121679116D01*
X181011562Y-121726735D01*
X181059181Y-121774354D01*
X181106800Y-121869592D01*
X181106800Y-122155306D01*
X181059181Y-122250544D01*
X181011562Y-122298163D01*
X180535372Y-121107687D02*
X180487753Y-121202925D01*
X180440134Y-121250544D01*
X180344896Y-121298163D01*
X180297277Y-121298163D01*
X180202039Y-121250544D01*
X180154420Y-121202925D01*
X180106800Y-121107687D01*
X180106800Y-120917211D01*
X180154420Y-120821973D01*
X180202039Y-120774354D01*
X180297277Y-120726735D01*
X180344896Y-120726735D01*
X180440134Y-120774354D01*
X180487753Y-120821973D01*
X180535372Y-120917211D01*
X180535372Y-121107687D01*
X180582991Y-121202925D01*
X180630610Y-121250544D01*
X180725848Y-121298163D01*
X180916324Y-121298163D01*
X181011562Y-121250544D01*
X181059181Y-121202925D01*
X181106800Y-121107687D01*
X181106800Y-120917211D01*
X181059181Y-120821973D01*
X181011562Y-120774354D01*
X180916324Y-120726735D01*
X180725848Y-120726735D01*
X180630610Y-120774354D01*
X180582991Y-120821973D01*
X180535372Y-120917211D01*
X183006800Y-125852925D02*
X183006800Y-126424354D01*
X183006800Y-126138640D02*
X182006800Y-126138640D01*
X182149658Y-126233878D01*
X182244896Y-126329116D01*
X182292515Y-126424354D01*
%TO.C,REF\u002A\u002A*%
X198032336Y-34571020D02*
X197699003Y-34094830D01*
X197460908Y-34571020D02*
X197460908Y-33571020D01*
X197841860Y-33571020D01*
X197937098Y-33618640D01*
X197984717Y-33666259D01*
X198032336Y-33761497D01*
X198032336Y-33904354D01*
X197984717Y-33999592D01*
X197937098Y-34047211D01*
X197841860Y-34094830D01*
X197460908Y-34094830D01*
X198460908Y-34047211D02*
X198794241Y-34047211D01*
X198937098Y-34571020D02*
X198460908Y-34571020D01*
X198460908Y-33571020D01*
X198937098Y-33571020D01*
X199699003Y-34047211D02*
X199365670Y-34047211D01*
X199365670Y-34571020D02*
X199365670Y-33571020D01*
X199841860Y-33571020D01*
X200365670Y-33571020D02*
X200365670Y-33809116D01*
X200127574Y-33713878D02*
X200365670Y-33809116D01*
X200603765Y-33713878D01*
X200222812Y-33999592D02*
X200365670Y-33809116D01*
X200508527Y-33999592D01*
X201127574Y-33571020D02*
X201127574Y-33809116D01*
X200889479Y-33713878D02*
X201127574Y-33809116D01*
X201365670Y-33713878D01*
X200984717Y-33999592D02*
X201127574Y-33809116D01*
X201270431Y-33999592D01*
%TO.C,D3*%
X75493943Y-114063044D02*
X75493943Y-113263044D01*
X75684420Y-113263044D01*
X75798705Y-113301140D01*
X75874896Y-113377330D01*
X75912991Y-113453520D01*
X75951086Y-113605901D01*
X75951086Y-113720187D01*
X75912991Y-113872568D01*
X75874896Y-113948759D01*
X75798705Y-114024949D01*
X75684420Y-114063044D01*
X75493943Y-114063044D01*
X76217753Y-113263044D02*
X76712991Y-113263044D01*
X76446324Y-113567806D01*
X76560610Y-113567806D01*
X76636800Y-113605901D01*
X76674896Y-113643997D01*
X76712991Y-113720187D01*
X76712991Y-113910663D01*
X76674896Y-113986854D01*
X76636800Y-114024949D01*
X76560610Y-114063044D01*
X76332039Y-114063044D01*
X76255848Y-114024949D01*
X76217753Y-113986854D01*
%TO.C,D9*%
X113593943Y-56913044D02*
X113593943Y-56113044D01*
X113784420Y-56113044D01*
X113898705Y-56151140D01*
X113974896Y-56227330D01*
X114012991Y-56303520D01*
X114051086Y-56455901D01*
X114051086Y-56570187D01*
X114012991Y-56722568D01*
X113974896Y-56798759D01*
X113898705Y-56874949D01*
X113784420Y-56913044D01*
X113593943Y-56913044D01*
X114432039Y-56913044D02*
X114584420Y-56913044D01*
X114660610Y-56874949D01*
X114698705Y-56836854D01*
X114774896Y-56722568D01*
X114812991Y-56570187D01*
X114812991Y-56265425D01*
X114774896Y-56189235D01*
X114736800Y-56151140D01*
X114660610Y-56113044D01*
X114508229Y-56113044D01*
X114432039Y-56151140D01*
X114393943Y-56189235D01*
X114355848Y-56265425D01*
X114355848Y-56455901D01*
X114393943Y-56532092D01*
X114432039Y-56570187D01*
X114508229Y-56608282D01*
X114660610Y-56608282D01*
X114736800Y-56570187D01*
X114774896Y-56532092D01*
X114812991Y-56455901D01*
%TO.C,D20*%
X151312991Y-114063044D02*
X151312991Y-113263044D01*
X151503467Y-113263044D01*
X151617753Y-113301140D01*
X151693943Y-113377330D01*
X151732039Y-113453520D01*
X151770134Y-113605901D01*
X151770134Y-113720187D01*
X151732039Y-113872568D01*
X151693943Y-113948759D01*
X151617753Y-114024949D01*
X151503467Y-114063044D01*
X151312991Y-114063044D01*
X152074896Y-113339235D02*
X152112991Y-113301140D01*
X152189181Y-113263044D01*
X152379658Y-113263044D01*
X152455848Y-113301140D01*
X152493943Y-113339235D01*
X152532039Y-113415425D01*
X152532039Y-113491616D01*
X152493943Y-113605901D01*
X152036800Y-114063044D01*
X152532039Y-114063044D01*
X153027277Y-113263044D02*
X153103467Y-113263044D01*
X153179658Y-113301140D01*
X153217753Y-113339235D01*
X153255848Y-113415425D01*
X153293943Y-113567806D01*
X153293943Y-113758282D01*
X153255848Y-113910663D01*
X153217753Y-113986854D01*
X153179658Y-114024949D01*
X153103467Y-114063044D01*
X153027277Y-114063044D01*
X152951086Y-114024949D01*
X152912991Y-113986854D01*
X152874896Y-113910663D01*
X152836800Y-113758282D01*
X152836800Y-113567806D01*
X152874896Y-113415425D01*
X152912991Y-113339235D01*
X152951086Y-113301140D01*
X153027277Y-113263044D01*
%TO.C,D21*%
X151312991Y-137875544D02*
X151312991Y-137075544D01*
X151503467Y-137075544D01*
X151617753Y-137113640D01*
X151693943Y-137189830D01*
X151732039Y-137266020D01*
X151770134Y-137418401D01*
X151770134Y-137532687D01*
X151732039Y-137685068D01*
X151693943Y-137761259D01*
X151617753Y-137837449D01*
X151503467Y-137875544D01*
X151312991Y-137875544D01*
X152074896Y-137151735D02*
X152112991Y-137113640D01*
X152189181Y-137075544D01*
X152379658Y-137075544D01*
X152455848Y-137113640D01*
X152493943Y-137151735D01*
X152532039Y-137227925D01*
X152532039Y-137304116D01*
X152493943Y-137418401D01*
X152036800Y-137875544D01*
X152532039Y-137875544D01*
X153293943Y-137875544D02*
X152836800Y-137875544D01*
X153065372Y-137875544D02*
X153065372Y-137075544D01*
X152989181Y-137189830D01*
X152912991Y-137266020D01*
X152836800Y-137304116D01*
%TO.C,D22*%
X170362991Y-56913044D02*
X170362991Y-56113044D01*
X170553467Y-56113044D01*
X170667753Y-56151140D01*
X170743943Y-56227330D01*
X170782039Y-56303520D01*
X170820134Y-56455901D01*
X170820134Y-56570187D01*
X170782039Y-56722568D01*
X170743943Y-56798759D01*
X170667753Y-56874949D01*
X170553467Y-56913044D01*
X170362991Y-56913044D01*
X171124896Y-56189235D02*
X171162991Y-56151140D01*
X171239181Y-56113044D01*
X171429658Y-56113044D01*
X171505848Y-56151140D01*
X171543943Y-56189235D01*
X171582039Y-56265425D01*
X171582039Y-56341616D01*
X171543943Y-56455901D01*
X171086800Y-56913044D01*
X171582039Y-56913044D01*
X171886800Y-56189235D02*
X171924896Y-56151140D01*
X172001086Y-56113044D01*
X172191562Y-56113044D01*
X172267753Y-56151140D01*
X172305848Y-56189235D01*
X172343943Y-56265425D01*
X172343943Y-56341616D01*
X172305848Y-56455901D01*
X171848705Y-56913044D01*
X172343943Y-56913044D01*
%TO.C,D23*%
X170362991Y-75963044D02*
X170362991Y-75163044D01*
X170553467Y-75163044D01*
X170667753Y-75201140D01*
X170743943Y-75277330D01*
X170782039Y-75353520D01*
X170820134Y-75505901D01*
X170820134Y-75620187D01*
X170782039Y-75772568D01*
X170743943Y-75848759D01*
X170667753Y-75924949D01*
X170553467Y-75963044D01*
X170362991Y-75963044D01*
X171124896Y-75239235D02*
X171162991Y-75201140D01*
X171239181Y-75163044D01*
X171429658Y-75163044D01*
X171505848Y-75201140D01*
X171543943Y-75239235D01*
X171582039Y-75315425D01*
X171582039Y-75391616D01*
X171543943Y-75505901D01*
X171086800Y-75963044D01*
X171582039Y-75963044D01*
X171848705Y-75163044D02*
X172343943Y-75163044D01*
X172077277Y-75467806D01*
X172191562Y-75467806D01*
X172267753Y-75505901D01*
X172305848Y-75543997D01*
X172343943Y-75620187D01*
X172343943Y-75810663D01*
X172305848Y-75886854D01*
X172267753Y-75924949D01*
X172191562Y-75963044D01*
X171962991Y-75963044D01*
X171886800Y-75924949D01*
X171848705Y-75886854D01*
%TO.C,D24*%
X170362991Y-95013044D02*
X170362991Y-94213044D01*
X170553467Y-94213044D01*
X170667753Y-94251140D01*
X170743943Y-94327330D01*
X170782039Y-94403520D01*
X170820134Y-94555901D01*
X170820134Y-94670187D01*
X170782039Y-94822568D01*
X170743943Y-94898759D01*
X170667753Y-94974949D01*
X170553467Y-95013044D01*
X170362991Y-95013044D01*
X171124896Y-94289235D02*
X171162991Y-94251140D01*
X171239181Y-94213044D01*
X171429658Y-94213044D01*
X171505848Y-94251140D01*
X171543943Y-94289235D01*
X171582039Y-94365425D01*
X171582039Y-94441616D01*
X171543943Y-94555901D01*
X171086800Y-95013044D01*
X171582039Y-95013044D01*
X172267753Y-94479711D02*
X172267753Y-95013044D01*
X172077277Y-94174949D02*
X171886800Y-94746378D01*
X172382039Y-94746378D01*
%TO.C,D25*%
X170362991Y-114063044D02*
X170362991Y-113263044D01*
X170553467Y-113263044D01*
X170667753Y-113301140D01*
X170743943Y-113377330D01*
X170782039Y-113453520D01*
X170820134Y-113605901D01*
X170820134Y-113720187D01*
X170782039Y-113872568D01*
X170743943Y-113948759D01*
X170667753Y-114024949D01*
X170553467Y-114063044D01*
X170362991Y-114063044D01*
X171124896Y-113339235D02*
X171162991Y-113301140D01*
X171239181Y-113263044D01*
X171429658Y-113263044D01*
X171505848Y-113301140D01*
X171543943Y-113339235D01*
X171582039Y-113415425D01*
X171582039Y-113491616D01*
X171543943Y-113605901D01*
X171086800Y-114063044D01*
X171582039Y-114063044D01*
X172305848Y-113263044D02*
X171924896Y-113263044D01*
X171886800Y-113643997D01*
X171924896Y-113605901D01*
X172001086Y-113567806D01*
X172191562Y-113567806D01*
X172267753Y-113605901D01*
X172305848Y-113643997D01*
X172343943Y-113720187D01*
X172343943Y-113910663D01*
X172305848Y-113986854D01*
X172267753Y-114024949D01*
X172191562Y-114063044D01*
X172001086Y-114063044D01*
X171924896Y-114024949D01*
X171886800Y-113986854D01*
%TO.C,D26*%
X170362991Y-142638044D02*
X170362991Y-141838044D01*
X170553467Y-141838044D01*
X170667753Y-141876140D01*
X170743943Y-141952330D01*
X170782039Y-142028520D01*
X170820134Y-142180901D01*
X170820134Y-142295187D01*
X170782039Y-142447568D01*
X170743943Y-142523759D01*
X170667753Y-142599949D01*
X170553467Y-142638044D01*
X170362991Y-142638044D01*
X171124896Y-141914235D02*
X171162991Y-141876140D01*
X171239181Y-141838044D01*
X171429658Y-141838044D01*
X171505848Y-141876140D01*
X171543943Y-141914235D01*
X171582039Y-141990425D01*
X171582039Y-142066616D01*
X171543943Y-142180901D01*
X171086800Y-142638044D01*
X171582039Y-142638044D01*
X172267753Y-141838044D02*
X172115372Y-141838044D01*
X172039181Y-141876140D01*
X172001086Y-141914235D01*
X171924896Y-142028520D01*
X171886800Y-142180901D01*
X171886800Y-142485663D01*
X171924896Y-142561854D01*
X171962991Y-142599949D01*
X172039181Y-142638044D01*
X172191562Y-142638044D01*
X172267753Y-142599949D01*
X172305848Y-142561854D01*
X172343943Y-142485663D01*
X172343943Y-142295187D01*
X172305848Y-142218997D01*
X172267753Y-142180901D01*
X172191562Y-142142806D01*
X172039181Y-142142806D01*
X171962991Y-142180901D01*
X171924896Y-142218997D01*
X171886800Y-142295187D01*
%TO.C,D27*%
X189412991Y-61675544D02*
X189412991Y-60875544D01*
X189603467Y-60875544D01*
X189717753Y-60913640D01*
X189793943Y-60989830D01*
X189832039Y-61066020D01*
X189870134Y-61218401D01*
X189870134Y-61332687D01*
X189832039Y-61485068D01*
X189793943Y-61561259D01*
X189717753Y-61637449D01*
X189603467Y-61675544D01*
X189412991Y-61675544D01*
X190174896Y-60951735D02*
X190212991Y-60913640D01*
X190289181Y-60875544D01*
X190479658Y-60875544D01*
X190555848Y-60913640D01*
X190593943Y-60951735D01*
X190632039Y-61027925D01*
X190632039Y-61104116D01*
X190593943Y-61218401D01*
X190136800Y-61675544D01*
X190632039Y-61675544D01*
X190898705Y-60875544D02*
X191432039Y-60875544D01*
X191089181Y-61675544D01*
%TO.C,D28*%
X189412991Y-80725544D02*
X189412991Y-79925544D01*
X189603467Y-79925544D01*
X189717753Y-79963640D01*
X189793943Y-80039830D01*
X189832039Y-80116020D01*
X189870134Y-80268401D01*
X189870134Y-80382687D01*
X189832039Y-80535068D01*
X189793943Y-80611259D01*
X189717753Y-80687449D01*
X189603467Y-80725544D01*
X189412991Y-80725544D01*
X190174896Y-80001735D02*
X190212991Y-79963640D01*
X190289181Y-79925544D01*
X190479658Y-79925544D01*
X190555848Y-79963640D01*
X190593943Y-80001735D01*
X190632039Y-80077925D01*
X190632039Y-80154116D01*
X190593943Y-80268401D01*
X190136800Y-80725544D01*
X190632039Y-80725544D01*
X191089181Y-80268401D02*
X191012991Y-80230306D01*
X190974896Y-80192211D01*
X190936800Y-80116020D01*
X190936800Y-80077925D01*
X190974896Y-80001735D01*
X191012991Y-79963640D01*
X191089181Y-79925544D01*
X191241562Y-79925544D01*
X191317753Y-79963640D01*
X191355848Y-80001735D01*
X191393943Y-80077925D01*
X191393943Y-80116020D01*
X191355848Y-80192211D01*
X191317753Y-80230306D01*
X191241562Y-80268401D01*
X191089181Y-80268401D01*
X191012991Y-80306497D01*
X190974896Y-80344592D01*
X190936800Y-80420782D01*
X190936800Y-80573163D01*
X190974896Y-80649354D01*
X191012991Y-80687449D01*
X191089181Y-80725544D01*
X191241562Y-80725544D01*
X191317753Y-80687449D01*
X191355848Y-80649354D01*
X191393943Y-80573163D01*
X191393943Y-80420782D01*
X191355848Y-80344592D01*
X191317753Y-80306497D01*
X191241562Y-80268401D01*
%TO.C,D29*%
X189412991Y-99775544D02*
X189412991Y-98975544D01*
X189603467Y-98975544D01*
X189717753Y-99013640D01*
X189793943Y-99089830D01*
X189832039Y-99166020D01*
X189870134Y-99318401D01*
X189870134Y-99432687D01*
X189832039Y-99585068D01*
X189793943Y-99661259D01*
X189717753Y-99737449D01*
X189603467Y-99775544D01*
X189412991Y-99775544D01*
X190174896Y-99051735D02*
X190212991Y-99013640D01*
X190289181Y-98975544D01*
X190479658Y-98975544D01*
X190555848Y-99013640D01*
X190593943Y-99051735D01*
X190632039Y-99127925D01*
X190632039Y-99204116D01*
X190593943Y-99318401D01*
X190136800Y-99775544D01*
X190632039Y-99775544D01*
X191012991Y-99775544D02*
X191165372Y-99775544D01*
X191241562Y-99737449D01*
X191279658Y-99699354D01*
X191355848Y-99585068D01*
X191393943Y-99432687D01*
X191393943Y-99127925D01*
X191355848Y-99051735D01*
X191317753Y-99013640D01*
X191241562Y-98975544D01*
X191089181Y-98975544D01*
X191012991Y-99013640D01*
X190974896Y-99051735D01*
X190936800Y-99127925D01*
X190936800Y-99318401D01*
X190974896Y-99394592D01*
X191012991Y-99432687D01*
X191089181Y-99470782D01*
X191241562Y-99470782D01*
X191317753Y-99432687D01*
X191355848Y-99394592D01*
X191393943Y-99318401D01*
%TO.C,D31*%
X189412991Y-147400544D02*
X189412991Y-146600544D01*
X189603467Y-146600544D01*
X189717753Y-146638640D01*
X189793943Y-146714830D01*
X189832039Y-146791020D01*
X189870134Y-146943401D01*
X189870134Y-147057687D01*
X189832039Y-147210068D01*
X189793943Y-147286259D01*
X189717753Y-147362449D01*
X189603467Y-147400544D01*
X189412991Y-147400544D01*
X190136800Y-146600544D02*
X190632039Y-146600544D01*
X190365372Y-146905306D01*
X190479658Y-146905306D01*
X190555848Y-146943401D01*
X190593943Y-146981497D01*
X190632039Y-147057687D01*
X190632039Y-147248163D01*
X190593943Y-147324354D01*
X190555848Y-147362449D01*
X190479658Y-147400544D01*
X190251086Y-147400544D01*
X190174896Y-147362449D01*
X190136800Y-147324354D01*
X191393943Y-147400544D02*
X190936800Y-147400544D01*
X191165372Y-147400544D02*
X191165372Y-146600544D01*
X191089181Y-146714830D01*
X191012991Y-146791020D01*
X190936800Y-146829116D01*
%TO.C,D5*%
X94543943Y-56913044D02*
X94543943Y-56113044D01*
X94734420Y-56113044D01*
X94848705Y-56151140D01*
X94924896Y-56227330D01*
X94962991Y-56303520D01*
X95001086Y-56455901D01*
X95001086Y-56570187D01*
X94962991Y-56722568D01*
X94924896Y-56798759D01*
X94848705Y-56874949D01*
X94734420Y-56913044D01*
X94543943Y-56913044D01*
X95724896Y-56113044D02*
X95343943Y-56113044D01*
X95305848Y-56493997D01*
X95343943Y-56455901D01*
X95420134Y-56417806D01*
X95610610Y-56417806D01*
X95686800Y-56455901D01*
X95724896Y-56493997D01*
X95762991Y-56570187D01*
X95762991Y-56760663D01*
X95724896Y-56836854D01*
X95686800Y-56874949D01*
X95610610Y-56913044D01*
X95420134Y-56913044D01*
X95343943Y-56874949D01*
X95305848Y-56836854D01*
%TO.C,D30*%
X196970429Y-122231322D02*
X197536115Y-121665637D01*
X197670802Y-121800324D01*
X197724677Y-121908073D01*
X197724677Y-122015823D01*
X197697739Y-122096635D01*
X197616927Y-122231322D01*
X197536115Y-122312134D01*
X197401428Y-122392946D01*
X197320616Y-122419884D01*
X197212866Y-122419884D01*
X197105116Y-122366009D01*
X196970429Y-122231322D01*
X198047926Y-122177447D02*
X198398112Y-122527633D01*
X197994051Y-122554571D01*
X198074863Y-122635383D01*
X198101800Y-122716195D01*
X198101800Y-122770070D01*
X198074863Y-122850882D01*
X197940176Y-122985569D01*
X197859364Y-123012507D01*
X197805489Y-123012507D01*
X197724677Y-122985569D01*
X197563052Y-122823945D01*
X197536115Y-122743133D01*
X197536115Y-122689258D01*
X198748298Y-122877820D02*
X198802173Y-122931695D01*
X198829110Y-123012507D01*
X198829110Y-123066382D01*
X198802173Y-123147194D01*
X198721361Y-123281881D01*
X198586674Y-123416568D01*
X198451987Y-123497380D01*
X198371174Y-123524317D01*
X198317300Y-123524317D01*
X198236487Y-123497380D01*
X198182613Y-123443505D01*
X198155675Y-123362693D01*
X198155675Y-123308818D01*
X198182613Y-123228006D01*
X198263425Y-123093319D01*
X198398112Y-122958632D01*
X198532799Y-122877820D01*
X198613611Y-122850882D01*
X198667486Y-122850882D01*
X198748298Y-122877820D01*
%TO.C,K4*%
X56296324Y-89686020D02*
X56296324Y-88686020D01*
X56867753Y-89686020D02*
X56439181Y-89114592D01*
X56867753Y-88686020D02*
X56296324Y-89257449D01*
X57724896Y-89019354D02*
X57724896Y-89686020D01*
X57486800Y-88638401D02*
X57248705Y-89352687D01*
X57867753Y-89352687D01*
%TO.C,K5*%
X94396324Y-42061020D02*
X94396324Y-41061020D01*
X94967753Y-42061020D02*
X94539181Y-41489592D01*
X94967753Y-41061020D02*
X94396324Y-41632449D01*
X95872515Y-41061020D02*
X95396324Y-41061020D01*
X95348705Y-41537211D01*
X95396324Y-41489592D01*
X95491562Y-41441973D01*
X95729658Y-41441973D01*
X95824896Y-41489592D01*
X95872515Y-41537211D01*
X95920134Y-41632449D01*
X95920134Y-41870544D01*
X95872515Y-41965782D01*
X95824896Y-42013401D01*
X95729658Y-42061020D01*
X95491562Y-42061020D01*
X95396324Y-42013401D01*
X95348705Y-41965782D01*
%TO.C,K6*%
X94396324Y-61111020D02*
X94396324Y-60111020D01*
X94967753Y-61111020D02*
X94539181Y-60539592D01*
X94967753Y-60111020D02*
X94396324Y-60682449D01*
X95824896Y-60111020D02*
X95634420Y-60111020D01*
X95539181Y-60158640D01*
X95491562Y-60206259D01*
X95396324Y-60349116D01*
X95348705Y-60539592D01*
X95348705Y-60920544D01*
X95396324Y-61015782D01*
X95443943Y-61063401D01*
X95539181Y-61111020D01*
X95729658Y-61111020D01*
X95824896Y-61063401D01*
X95872515Y-61015782D01*
X95920134Y-60920544D01*
X95920134Y-60682449D01*
X95872515Y-60587211D01*
X95824896Y-60539592D01*
X95729658Y-60491973D01*
X95539181Y-60491973D01*
X95443943Y-60539592D01*
X95396324Y-60587211D01*
X95348705Y-60682449D01*
%TO.C,K7*%
X94396324Y-80161020D02*
X94396324Y-79161020D01*
X94967753Y-80161020D02*
X94539181Y-79589592D01*
X94967753Y-79161020D02*
X94396324Y-79732449D01*
X95301086Y-79161020D02*
X95967753Y-79161020D01*
X95539181Y-80161020D01*
%TO.C,K8*%
X94396324Y-99211020D02*
X94396324Y-98211020D01*
X94967753Y-99211020D02*
X94539181Y-98639592D01*
X94967753Y-98211020D02*
X94396324Y-98782449D01*
X95539181Y-98639592D02*
X95443943Y-98591973D01*
X95396324Y-98544354D01*
X95348705Y-98449116D01*
X95348705Y-98401497D01*
X95396324Y-98306259D01*
X95443943Y-98258640D01*
X95539181Y-98211020D01*
X95729658Y-98211020D01*
X95824896Y-98258640D01*
X95872515Y-98306259D01*
X95920134Y-98401497D01*
X95920134Y-98449116D01*
X95872515Y-98544354D01*
X95824896Y-98591973D01*
X95729658Y-98639592D01*
X95539181Y-98639592D01*
X95443943Y-98687211D01*
X95396324Y-98734830D01*
X95348705Y-98830068D01*
X95348705Y-99020544D01*
X95396324Y-99115782D01*
X95443943Y-99163401D01*
X95539181Y-99211020D01*
X95729658Y-99211020D01*
X95824896Y-99163401D01*
X95872515Y-99115782D01*
X95920134Y-99020544D01*
X95920134Y-98830068D01*
X95872515Y-98734830D01*
X95824896Y-98687211D01*
X95729658Y-98639592D01*
%TO.C,K9*%
X113446324Y-42061020D02*
X113446324Y-41061020D01*
X114017753Y-42061020D02*
X113589181Y-41489592D01*
X114017753Y-41061020D02*
X113446324Y-41632449D01*
X114493943Y-42061020D02*
X114684420Y-42061020D01*
X114779658Y-42013401D01*
X114827277Y-41965782D01*
X114922515Y-41822925D01*
X114970134Y-41632449D01*
X114970134Y-41251497D01*
X114922515Y-41156259D01*
X114874896Y-41108640D01*
X114779658Y-41061020D01*
X114589181Y-41061020D01*
X114493943Y-41108640D01*
X114446324Y-41156259D01*
X114398705Y-41251497D01*
X114398705Y-41489592D01*
X114446324Y-41584830D01*
X114493943Y-41632449D01*
X114589181Y-41680068D01*
X114779658Y-41680068D01*
X114874896Y-41632449D01*
X114922515Y-41584830D01*
X114970134Y-41489592D01*
%TO.C,K10*%
X112970134Y-61111020D02*
X112970134Y-60111020D01*
X113541562Y-61111020D02*
X113112991Y-60539592D01*
X113541562Y-60111020D02*
X112970134Y-60682449D01*
X114493943Y-61111020D02*
X113922515Y-61111020D01*
X114208229Y-61111020D02*
X114208229Y-60111020D01*
X114112991Y-60253878D01*
X114017753Y-60349116D01*
X113922515Y-60396735D01*
X115112991Y-60111020D02*
X115208229Y-60111020D01*
X115303467Y-60158640D01*
X115351086Y-60206259D01*
X115398705Y-60301497D01*
X115446324Y-60491973D01*
X115446324Y-60730068D01*
X115398705Y-60920544D01*
X115351086Y-61015782D01*
X115303467Y-61063401D01*
X115208229Y-61111020D01*
X115112991Y-61111020D01*
X115017753Y-61063401D01*
X114970134Y-61015782D01*
X114922515Y-60920544D01*
X114874896Y-60730068D01*
X114874896Y-60491973D01*
X114922515Y-60301497D01*
X114970134Y-60206259D01*
X115017753Y-60158640D01*
X115112991Y-60111020D01*
%TO.C,D42*%
X82796800Y-110962925D02*
X81796800Y-110962925D01*
X81796800Y-110724830D01*
X81844420Y-110581973D01*
X81939658Y-110486735D01*
X82034896Y-110439116D01*
X82225372Y-110391497D01*
X82368229Y-110391497D01*
X82558705Y-110439116D01*
X82653943Y-110486735D01*
X82749181Y-110581973D01*
X82796800Y-110724830D01*
X82796800Y-110962925D01*
X82130134Y-109534354D02*
X82796800Y-109534354D01*
X81749181Y-109772449D02*
X82463467Y-110010544D01*
X82463467Y-109391497D01*
X81892039Y-109058163D02*
X81844420Y-109010544D01*
X81796800Y-108915306D01*
X81796800Y-108677211D01*
X81844420Y-108581973D01*
X81892039Y-108534354D01*
X81987277Y-108486735D01*
X82082515Y-108486735D01*
X82225372Y-108534354D01*
X82796800Y-109105782D01*
X82796800Y-108486735D01*
X84696800Y-113612925D02*
X84696800Y-114184354D01*
X84696800Y-113898640D02*
X83696800Y-113898640D01*
X83839658Y-113993878D01*
X83934896Y-114089116D01*
X83982515Y-114184354D01*
%TO.C,K22*%
X170120134Y-42061020D02*
X170120134Y-41061020D01*
X170691562Y-42061020D02*
X170262991Y-41489592D01*
X170691562Y-41061020D02*
X170120134Y-41632449D01*
X171072515Y-41156259D02*
X171120134Y-41108640D01*
X171215372Y-41061020D01*
X171453467Y-41061020D01*
X171548705Y-41108640D01*
X171596324Y-41156259D01*
X171643943Y-41251497D01*
X171643943Y-41346735D01*
X171596324Y-41489592D01*
X171024896Y-42061020D01*
X171643943Y-42061020D01*
X172024896Y-41156259D02*
X172072515Y-41108640D01*
X172167753Y-41061020D01*
X172405848Y-41061020D01*
X172501086Y-41108640D01*
X172548705Y-41156259D01*
X172596324Y-41251497D01*
X172596324Y-41346735D01*
X172548705Y-41489592D01*
X171977277Y-42061020D01*
X172596324Y-42061020D01*
%TO.C,Brd1*%
X215672039Y-83011020D02*
X215862515Y-83011020D01*
X215957753Y-83058640D01*
X216052991Y-83153878D01*
X216100610Y-83344354D01*
X216100610Y-83677687D01*
X216052991Y-83868163D01*
X215957753Y-83963401D01*
X215862515Y-84011020D01*
X215672039Y-84011020D01*
X215576800Y-83963401D01*
X215481562Y-83868163D01*
X215433943Y-83677687D01*
X215433943Y-83344354D01*
X215481562Y-83153878D01*
X215576800Y-83058640D01*
X215672039Y-83011020D01*
X217005372Y-84011020D02*
X216529181Y-84011020D01*
X216529181Y-83011020D01*
X217338705Y-83487211D02*
X217672039Y-83487211D01*
X217814896Y-84011020D02*
X217338705Y-84011020D01*
X217338705Y-83011020D01*
X217814896Y-83011020D01*
X218243467Y-84011020D02*
X218243467Y-83011020D01*
X218481562Y-83011020D01*
X218624420Y-83058640D01*
X218719658Y-83153878D01*
X218767277Y-83249116D01*
X218814896Y-83439592D01*
X218814896Y-83582449D01*
X218767277Y-83772925D01*
X218719658Y-83868163D01*
X218624420Y-83963401D01*
X218481562Y-84011020D01*
X218243467Y-84011020D01*
%TO.C,REF\u002A\u002A*%
X197691086Y-100811020D02*
X197357753Y-100334830D01*
X197119658Y-100811020D02*
X197119658Y-99811020D01*
X197500610Y-99811020D01*
X197595848Y-99858640D01*
X197643467Y-99906259D01*
X197691086Y-100001497D01*
X197691086Y-100144354D01*
X197643467Y-100239592D01*
X197595848Y-100287211D01*
X197500610Y-100334830D01*
X197119658Y-100334830D01*
X198119658Y-100287211D02*
X198452991Y-100287211D01*
X198595848Y-100811020D02*
X198119658Y-100811020D01*
X198119658Y-99811020D01*
X198595848Y-99811020D01*
X199357753Y-100287211D02*
X199024420Y-100287211D01*
X199024420Y-100811020D02*
X199024420Y-99811020D01*
X199500610Y-99811020D01*
X200024420Y-99811020D02*
X200024420Y-100049116D01*
X199786324Y-99953878D02*
X200024420Y-100049116D01*
X200262515Y-99953878D01*
X199881562Y-100239592D02*
X200024420Y-100049116D01*
X200167277Y-100239592D01*
X200786324Y-99811020D02*
X200786324Y-100049116D01*
X200548229Y-99953878D02*
X200786324Y-100049116D01*
X201024420Y-99953878D01*
X200643467Y-100239592D02*
X200786324Y-100049116D01*
X200929181Y-100239592D01*
X74812336Y-49911020D02*
X74479003Y-49434830D01*
X74240908Y-49911020D02*
X74240908Y-48911020D01*
X74621860Y-48911020D01*
X74717098Y-48958640D01*
X74764717Y-49006259D01*
X74812336Y-49101497D01*
X74812336Y-49244354D01*
X74764717Y-49339592D01*
X74717098Y-49387211D01*
X74621860Y-49434830D01*
X74240908Y-49434830D01*
X75240908Y-49387211D02*
X75574241Y-49387211D01*
X75717098Y-49911020D02*
X75240908Y-49911020D01*
X75240908Y-48911020D01*
X75717098Y-48911020D01*
X76479003Y-49387211D02*
X76145670Y-49387211D01*
X76145670Y-49911020D02*
X76145670Y-48911020D01*
X76621860Y-48911020D01*
X77145670Y-48911020D02*
X77145670Y-49149116D01*
X76907574Y-49053878D02*
X77145670Y-49149116D01*
X77383765Y-49053878D01*
X77002812Y-49339592D02*
X77145670Y-49149116D01*
X77288527Y-49339592D01*
X77907574Y-48911020D02*
X77907574Y-49149116D01*
X77669479Y-49053878D02*
X77907574Y-49149116D01*
X78145670Y-49053878D01*
X77764717Y-49339592D02*
X77907574Y-49149116D01*
X78050431Y-49339592D01*
X161242336Y-34081020D02*
X160909003Y-33604830D01*
X160670908Y-34081020D02*
X160670908Y-33081020D01*
X161051860Y-33081020D01*
X161147098Y-33128640D01*
X161194717Y-33176259D01*
X161242336Y-33271497D01*
X161242336Y-33414354D01*
X161194717Y-33509592D01*
X161147098Y-33557211D01*
X161051860Y-33604830D01*
X160670908Y-33604830D01*
X161670908Y-33557211D02*
X162004241Y-33557211D01*
X162147098Y-34081020D02*
X161670908Y-34081020D01*
X161670908Y-33081020D01*
X162147098Y-33081020D01*
X162909003Y-33557211D02*
X162575670Y-33557211D01*
X162575670Y-34081020D02*
X162575670Y-33081020D01*
X163051860Y-33081020D01*
X163575670Y-33081020D02*
X163575670Y-33319116D01*
X163337574Y-33223878D02*
X163575670Y-33319116D01*
X163813765Y-33223878D01*
X163432812Y-33509592D02*
X163575670Y-33319116D01*
X163718527Y-33509592D01*
X164337574Y-33081020D02*
X164337574Y-33319116D01*
X164099479Y-33223878D02*
X164337574Y-33319116D01*
X164575670Y-33223878D01*
X164194717Y-33509592D02*
X164337574Y-33319116D01*
X164480431Y-33509592D01*
%TO.C,D43*%
X69526800Y-90612925D02*
X68526800Y-90612925D01*
X68526800Y-90374830D01*
X68574420Y-90231973D01*
X68669658Y-90136735D01*
X68764896Y-90089116D01*
X68955372Y-90041497D01*
X69098229Y-90041497D01*
X69288705Y-90089116D01*
X69383943Y-90136735D01*
X69479181Y-90231973D01*
X69526800Y-90374830D01*
X69526800Y-90612925D01*
X68860134Y-89184354D02*
X69526800Y-89184354D01*
X68479181Y-89422449D02*
X69193467Y-89660544D01*
X69193467Y-89041497D01*
X68526800Y-88755782D02*
X68526800Y-88136735D01*
X68907753Y-88470068D01*
X68907753Y-88327211D01*
X68955372Y-88231973D01*
X69002991Y-88184354D01*
X69098229Y-88136735D01*
X69336324Y-88136735D01*
X69431562Y-88184354D01*
X69479181Y-88231973D01*
X69526800Y-88327211D01*
X69526800Y-88612925D01*
X69479181Y-88708163D01*
X69431562Y-88755782D01*
X67626800Y-84962925D02*
X67626800Y-85534354D01*
X67626800Y-85248640D02*
X66626800Y-85248640D01*
X66769658Y-85343878D01*
X66864896Y-85439116D01*
X66912515Y-85534354D01*
%TO.C,D1*%
X75493943Y-75963044D02*
X75493943Y-75163044D01*
X75684420Y-75163044D01*
X75798705Y-75201140D01*
X75874896Y-75277330D01*
X75912991Y-75353520D01*
X75951086Y-75505901D01*
X75951086Y-75620187D01*
X75912991Y-75772568D01*
X75874896Y-75848759D01*
X75798705Y-75924949D01*
X75684420Y-75963044D01*
X75493943Y-75963044D01*
X76712991Y-75963044D02*
X76255848Y-75963044D01*
X76484420Y-75963044D02*
X76484420Y-75163044D01*
X76408229Y-75277330D01*
X76332039Y-75353520D01*
X76255848Y-75391616D01*
%TO.C,D2*%
X75493943Y-95013044D02*
X75493943Y-94213044D01*
X75684420Y-94213044D01*
X75798705Y-94251140D01*
X75874896Y-94327330D01*
X75912991Y-94403520D01*
X75951086Y-94555901D01*
X75951086Y-94670187D01*
X75912991Y-94822568D01*
X75874896Y-94898759D01*
X75798705Y-94974949D01*
X75684420Y-95013044D01*
X75493943Y-95013044D01*
X76255848Y-94289235D02*
X76293943Y-94251140D01*
X76370134Y-94213044D01*
X76560610Y-94213044D01*
X76636800Y-94251140D01*
X76674896Y-94289235D01*
X76712991Y-94365425D01*
X76712991Y-94441616D01*
X76674896Y-94555901D01*
X76217753Y-95013044D01*
X76712991Y-95013044D01*
%TO.C,D4*%
X56443943Y-104538044D02*
X56443943Y-103738044D01*
X56634420Y-103738044D01*
X56748705Y-103776140D01*
X56824896Y-103852330D01*
X56862991Y-103928520D01*
X56901086Y-104080901D01*
X56901086Y-104195187D01*
X56862991Y-104347568D01*
X56824896Y-104423759D01*
X56748705Y-104499949D01*
X56634420Y-104538044D01*
X56443943Y-104538044D01*
X57586800Y-104004711D02*
X57586800Y-104538044D01*
X57396324Y-103699949D02*
X57205848Y-104271378D01*
X57701086Y-104271378D01*
%TO.C,D6*%
X94543943Y-75963044D02*
X94543943Y-75163044D01*
X94734420Y-75163044D01*
X94848705Y-75201140D01*
X94924896Y-75277330D01*
X94962991Y-75353520D01*
X95001086Y-75505901D01*
X95001086Y-75620187D01*
X94962991Y-75772568D01*
X94924896Y-75848759D01*
X94848705Y-75924949D01*
X94734420Y-75963044D01*
X94543943Y-75963044D01*
X95686800Y-75163044D02*
X95534420Y-75163044D01*
X95458229Y-75201140D01*
X95420134Y-75239235D01*
X95343943Y-75353520D01*
X95305848Y-75505901D01*
X95305848Y-75810663D01*
X95343943Y-75886854D01*
X95382039Y-75924949D01*
X95458229Y-75963044D01*
X95610610Y-75963044D01*
X95686800Y-75924949D01*
X95724896Y-75886854D01*
X95762991Y-75810663D01*
X95762991Y-75620187D01*
X95724896Y-75543997D01*
X95686800Y-75505901D01*
X95610610Y-75467806D01*
X95458229Y-75467806D01*
X95382039Y-75505901D01*
X95343943Y-75543997D01*
X95305848Y-75620187D01*
%TO.C,D7*%
X94543943Y-95013044D02*
X94543943Y-94213044D01*
X94734420Y-94213044D01*
X94848705Y-94251140D01*
X94924896Y-94327330D01*
X94962991Y-94403520D01*
X95001086Y-94555901D01*
X95001086Y-94670187D01*
X94962991Y-94822568D01*
X94924896Y-94898759D01*
X94848705Y-94974949D01*
X94734420Y-95013044D01*
X94543943Y-95013044D01*
X95267753Y-94213044D02*
X95801086Y-94213044D01*
X95458229Y-95013044D01*
%TO.C,D8*%
X94543943Y-114063044D02*
X94543943Y-113263044D01*
X94734420Y-113263044D01*
X94848705Y-113301140D01*
X94924896Y-113377330D01*
X94962991Y-113453520D01*
X95001086Y-113605901D01*
X95001086Y-113720187D01*
X94962991Y-113872568D01*
X94924896Y-113948759D01*
X94848705Y-114024949D01*
X94734420Y-114063044D01*
X94543943Y-114063044D01*
X95458229Y-113605901D02*
X95382039Y-113567806D01*
X95343943Y-113529711D01*
X95305848Y-113453520D01*
X95305848Y-113415425D01*
X95343943Y-113339235D01*
X95382039Y-113301140D01*
X95458229Y-113263044D01*
X95610610Y-113263044D01*
X95686800Y-113301140D01*
X95724896Y-113339235D01*
X95762991Y-113415425D01*
X95762991Y-113453520D01*
X95724896Y-113529711D01*
X95686800Y-113567806D01*
X95610610Y-113605901D01*
X95458229Y-113605901D01*
X95382039Y-113643997D01*
X95343943Y-113682092D01*
X95305848Y-113758282D01*
X95305848Y-113910663D01*
X95343943Y-113986854D01*
X95382039Y-114024949D01*
X95458229Y-114063044D01*
X95610610Y-114063044D01*
X95686800Y-114024949D01*
X95724896Y-113986854D01*
X95762991Y-113910663D01*
X95762991Y-113758282D01*
X95724896Y-113682092D01*
X95686800Y-113643997D01*
X95610610Y-113605901D01*
%TO.C,D10*%
X113212991Y-75963044D02*
X113212991Y-75163044D01*
X113403467Y-75163044D01*
X113517753Y-75201140D01*
X113593943Y-75277330D01*
X113632039Y-75353520D01*
X113670134Y-75505901D01*
X113670134Y-75620187D01*
X113632039Y-75772568D01*
X113593943Y-75848759D01*
X113517753Y-75924949D01*
X113403467Y-75963044D01*
X113212991Y-75963044D01*
X114432039Y-75963044D02*
X113974896Y-75963044D01*
X114203467Y-75963044D02*
X114203467Y-75163044D01*
X114127277Y-75277330D01*
X114051086Y-75353520D01*
X113974896Y-75391616D01*
X114927277Y-75163044D02*
X115003467Y-75163044D01*
X115079658Y-75201140D01*
X115117753Y-75239235D01*
X115155848Y-75315425D01*
X115193943Y-75467806D01*
X115193943Y-75658282D01*
X115155848Y-75810663D01*
X115117753Y-75886854D01*
X115079658Y-75924949D01*
X115003467Y-75963044D01*
X114927277Y-75963044D01*
X114851086Y-75924949D01*
X114812991Y-75886854D01*
X114774896Y-75810663D01*
X114736800Y-75658282D01*
X114736800Y-75467806D01*
X114774896Y-75315425D01*
X114812991Y-75239235D01*
X114851086Y-75201140D01*
X114927277Y-75163044D01*
%TO.C,D11*%
X113212991Y-95013044D02*
X113212991Y-94213044D01*
X113403467Y-94213044D01*
X113517753Y-94251140D01*
X113593943Y-94327330D01*
X113632039Y-94403520D01*
X113670134Y-94555901D01*
X113670134Y-94670187D01*
X113632039Y-94822568D01*
X113593943Y-94898759D01*
X113517753Y-94974949D01*
X113403467Y-95013044D01*
X113212991Y-95013044D01*
X114432039Y-95013044D02*
X113974896Y-95013044D01*
X114203467Y-95013044D02*
X114203467Y-94213044D01*
X114127277Y-94327330D01*
X114051086Y-94403520D01*
X113974896Y-94441616D01*
X115193943Y-95013044D02*
X114736800Y-95013044D01*
X114965372Y-95013044D02*
X114965372Y-94213044D01*
X114889181Y-94327330D01*
X114812991Y-94403520D01*
X114736800Y-94441616D01*
%TO.C,D12*%
X113212991Y-114063044D02*
X113212991Y-113263044D01*
X113403467Y-113263044D01*
X113517753Y-113301140D01*
X113593943Y-113377330D01*
X113632039Y-113453520D01*
X113670134Y-113605901D01*
X113670134Y-113720187D01*
X113632039Y-113872568D01*
X113593943Y-113948759D01*
X113517753Y-114024949D01*
X113403467Y-114063044D01*
X113212991Y-114063044D01*
X114432039Y-114063044D02*
X113974896Y-114063044D01*
X114203467Y-114063044D02*
X114203467Y-113263044D01*
X114127277Y-113377330D01*
X114051086Y-113453520D01*
X113974896Y-113491616D01*
X114736800Y-113339235D02*
X114774896Y-113301140D01*
X114851086Y-113263044D01*
X115041562Y-113263044D01*
X115117753Y-113301140D01*
X115155848Y-113339235D01*
X115193943Y-113415425D01*
X115193943Y-113491616D01*
X115155848Y-113605901D01*
X114698705Y-114063044D01*
X115193943Y-114063044D01*
%TO.C,D13*%
X132262991Y-56913044D02*
X132262991Y-56113044D01*
X132453467Y-56113044D01*
X132567753Y-56151140D01*
X132643943Y-56227330D01*
X132682039Y-56303520D01*
X132720134Y-56455901D01*
X132720134Y-56570187D01*
X132682039Y-56722568D01*
X132643943Y-56798759D01*
X132567753Y-56874949D01*
X132453467Y-56913044D01*
X132262991Y-56913044D01*
X133482039Y-56913044D02*
X133024896Y-56913044D01*
X133253467Y-56913044D02*
X133253467Y-56113044D01*
X133177277Y-56227330D01*
X133101086Y-56303520D01*
X133024896Y-56341616D01*
X133748705Y-56113044D02*
X134243943Y-56113044D01*
X133977277Y-56417806D01*
X134091562Y-56417806D01*
X134167753Y-56455901D01*
X134205848Y-56493997D01*
X134243943Y-56570187D01*
X134243943Y-56760663D01*
X134205848Y-56836854D01*
X134167753Y-56874949D01*
X134091562Y-56913044D01*
X133862991Y-56913044D01*
X133786800Y-56874949D01*
X133748705Y-56836854D01*
%TO.C,D14*%
X132262991Y-75963044D02*
X132262991Y-75163044D01*
X132453467Y-75163044D01*
X132567753Y-75201140D01*
X132643943Y-75277330D01*
X132682039Y-75353520D01*
X132720134Y-75505901D01*
X132720134Y-75620187D01*
X132682039Y-75772568D01*
X132643943Y-75848759D01*
X132567753Y-75924949D01*
X132453467Y-75963044D01*
X132262991Y-75963044D01*
X133482039Y-75963044D02*
X133024896Y-75963044D01*
X133253467Y-75963044D02*
X133253467Y-75163044D01*
X133177277Y-75277330D01*
X133101086Y-75353520D01*
X133024896Y-75391616D01*
X134167753Y-75429711D02*
X134167753Y-75963044D01*
X133977277Y-75124949D02*
X133786800Y-75696378D01*
X134282039Y-75696378D01*
%TO.C,D15*%
X132262991Y-95013044D02*
X132262991Y-94213044D01*
X132453467Y-94213044D01*
X132567753Y-94251140D01*
X132643943Y-94327330D01*
X132682039Y-94403520D01*
X132720134Y-94555901D01*
X132720134Y-94670187D01*
X132682039Y-94822568D01*
X132643943Y-94898759D01*
X132567753Y-94974949D01*
X132453467Y-95013044D01*
X132262991Y-95013044D01*
X133482039Y-95013044D02*
X133024896Y-95013044D01*
X133253467Y-95013044D02*
X133253467Y-94213044D01*
X133177277Y-94327330D01*
X133101086Y-94403520D01*
X133024896Y-94441616D01*
X134205848Y-94213044D02*
X133824896Y-94213044D01*
X133786800Y-94593997D01*
X133824896Y-94555901D01*
X133901086Y-94517806D01*
X134091562Y-94517806D01*
X134167753Y-94555901D01*
X134205848Y-94593997D01*
X134243943Y-94670187D01*
X134243943Y-94860663D01*
X134205848Y-94936854D01*
X134167753Y-94974949D01*
X134091562Y-95013044D01*
X133901086Y-95013044D01*
X133824896Y-94974949D01*
X133786800Y-94936854D01*
%TO.C,D16*%
X132262991Y-114063044D02*
X132262991Y-113263044D01*
X132453467Y-113263044D01*
X132567753Y-113301140D01*
X132643943Y-113377330D01*
X132682039Y-113453520D01*
X132720134Y-113605901D01*
X132720134Y-113720187D01*
X132682039Y-113872568D01*
X132643943Y-113948759D01*
X132567753Y-114024949D01*
X132453467Y-114063044D01*
X132262991Y-114063044D01*
X133482039Y-114063044D02*
X133024896Y-114063044D01*
X133253467Y-114063044D02*
X133253467Y-113263044D01*
X133177277Y-113377330D01*
X133101086Y-113453520D01*
X133024896Y-113491616D01*
X134167753Y-113263044D02*
X134015372Y-113263044D01*
X133939181Y-113301140D01*
X133901086Y-113339235D01*
X133824896Y-113453520D01*
X133786800Y-113605901D01*
X133786800Y-113910663D01*
X133824896Y-113986854D01*
X133862991Y-114024949D01*
X133939181Y-114063044D01*
X134091562Y-114063044D01*
X134167753Y-114024949D01*
X134205848Y-113986854D01*
X134243943Y-113910663D01*
X134243943Y-113720187D01*
X134205848Y-113643997D01*
X134167753Y-113605901D01*
X134091562Y-113567806D01*
X133939181Y-113567806D01*
X133862991Y-113605901D01*
X133824896Y-113643997D01*
X133786800Y-113720187D01*
%TO.C,D17*%
X151312991Y-56913044D02*
X151312991Y-56113044D01*
X151503467Y-56113044D01*
X151617753Y-56151140D01*
X151693943Y-56227330D01*
X151732039Y-56303520D01*
X151770134Y-56455901D01*
X151770134Y-56570187D01*
X151732039Y-56722568D01*
X151693943Y-56798759D01*
X151617753Y-56874949D01*
X151503467Y-56913044D01*
X151312991Y-56913044D01*
X152532039Y-56913044D02*
X152074896Y-56913044D01*
X152303467Y-56913044D02*
X152303467Y-56113044D01*
X152227277Y-56227330D01*
X152151086Y-56303520D01*
X152074896Y-56341616D01*
X152798705Y-56113044D02*
X153332039Y-56113044D01*
X152989181Y-56913044D01*
%TO.C,D18*%
X151312991Y-75963044D02*
X151312991Y-75163044D01*
X151503467Y-75163044D01*
X151617753Y-75201140D01*
X151693943Y-75277330D01*
X151732039Y-75353520D01*
X151770134Y-75505901D01*
X151770134Y-75620187D01*
X151732039Y-75772568D01*
X151693943Y-75848759D01*
X151617753Y-75924949D01*
X151503467Y-75963044D01*
X151312991Y-75963044D01*
X152532039Y-75963044D02*
X152074896Y-75963044D01*
X152303467Y-75963044D02*
X152303467Y-75163044D01*
X152227277Y-75277330D01*
X152151086Y-75353520D01*
X152074896Y-75391616D01*
X152989181Y-75505901D02*
X152912991Y-75467806D01*
X152874896Y-75429711D01*
X152836800Y-75353520D01*
X152836800Y-75315425D01*
X152874896Y-75239235D01*
X152912991Y-75201140D01*
X152989181Y-75163044D01*
X153141562Y-75163044D01*
X153217753Y-75201140D01*
X153255848Y-75239235D01*
X153293943Y-75315425D01*
X153293943Y-75353520D01*
X153255848Y-75429711D01*
X153217753Y-75467806D01*
X153141562Y-75505901D01*
X152989181Y-75505901D01*
X152912991Y-75543997D01*
X152874896Y-75582092D01*
X152836800Y-75658282D01*
X152836800Y-75810663D01*
X152874896Y-75886854D01*
X152912991Y-75924949D01*
X152989181Y-75963044D01*
X153141562Y-75963044D01*
X153217753Y-75924949D01*
X153255848Y-75886854D01*
X153293943Y-75810663D01*
X153293943Y-75658282D01*
X153255848Y-75582092D01*
X153217753Y-75543997D01*
X153141562Y-75505901D01*
%TO.C,K12*%
X112970134Y-99211020D02*
X112970134Y-98211020D01*
X113541562Y-99211020D02*
X113112991Y-98639592D01*
X113541562Y-98211020D02*
X112970134Y-98782449D01*
X114493943Y-99211020D02*
X113922515Y-99211020D01*
X114208229Y-99211020D02*
X114208229Y-98211020D01*
X114112991Y-98353878D01*
X114017753Y-98449116D01*
X113922515Y-98496735D01*
X114874896Y-98306259D02*
X114922515Y-98258640D01*
X115017753Y-98211020D01*
X115255848Y-98211020D01*
X115351086Y-98258640D01*
X115398705Y-98306259D01*
X115446324Y-98401497D01*
X115446324Y-98496735D01*
X115398705Y-98639592D01*
X114827277Y-99211020D01*
X115446324Y-99211020D01*
%TO.C,K13*%
X132020134Y-42061020D02*
X132020134Y-41061020D01*
X132591562Y-42061020D02*
X132162991Y-41489592D01*
X132591562Y-41061020D02*
X132020134Y-41632449D01*
X133543943Y-42061020D02*
X132972515Y-42061020D01*
X133258229Y-42061020D02*
X133258229Y-41061020D01*
X133162991Y-41203878D01*
X133067753Y-41299116D01*
X132972515Y-41346735D01*
X133877277Y-41061020D02*
X134496324Y-41061020D01*
X134162991Y-41441973D01*
X134305848Y-41441973D01*
X134401086Y-41489592D01*
X134448705Y-41537211D01*
X134496324Y-41632449D01*
X134496324Y-41870544D01*
X134448705Y-41965782D01*
X134401086Y-42013401D01*
X134305848Y-42061020D01*
X134020134Y-42061020D01*
X133924896Y-42013401D01*
X133877277Y-41965782D01*
%TO.C,K14*%
X132020134Y-61111020D02*
X132020134Y-60111020D01*
X132591562Y-61111020D02*
X132162991Y-60539592D01*
X132591562Y-60111020D02*
X132020134Y-60682449D01*
X133543943Y-61111020D02*
X132972515Y-61111020D01*
X133258229Y-61111020D02*
X133258229Y-60111020D01*
X133162991Y-60253878D01*
X133067753Y-60349116D01*
X132972515Y-60396735D01*
X134401086Y-60444354D02*
X134401086Y-61111020D01*
X134162991Y-60063401D02*
X133924896Y-60777687D01*
X134543943Y-60777687D01*
%TO.C,K15*%
X132020134Y-80161020D02*
X132020134Y-79161020D01*
X132591562Y-80161020D02*
X132162991Y-79589592D01*
X132591562Y-79161020D02*
X132020134Y-79732449D01*
X133543943Y-80161020D02*
X132972515Y-80161020D01*
X133258229Y-80161020D02*
X133258229Y-79161020D01*
X133162991Y-79303878D01*
X133067753Y-79399116D01*
X132972515Y-79446735D01*
X134448705Y-79161020D02*
X133972515Y-79161020D01*
X133924896Y-79637211D01*
X133972515Y-79589592D01*
X134067753Y-79541973D01*
X134305848Y-79541973D01*
X134401086Y-79589592D01*
X134448705Y-79637211D01*
X134496324Y-79732449D01*
X134496324Y-79970544D01*
X134448705Y-80065782D01*
X134401086Y-80113401D01*
X134305848Y-80161020D01*
X134067753Y-80161020D01*
X133972515Y-80113401D01*
X133924896Y-80065782D01*
%TO.C,K16*%
X132020134Y-99211020D02*
X132020134Y-98211020D01*
X132591562Y-99211020D02*
X132162991Y-98639592D01*
X132591562Y-98211020D02*
X132020134Y-98782449D01*
X133543943Y-99211020D02*
X132972515Y-99211020D01*
X133258229Y-99211020D02*
X133258229Y-98211020D01*
X133162991Y-98353878D01*
X133067753Y-98449116D01*
X132972515Y-98496735D01*
X134401086Y-98211020D02*
X134210610Y-98211020D01*
X134115372Y-98258640D01*
X134067753Y-98306259D01*
X133972515Y-98449116D01*
X133924896Y-98639592D01*
X133924896Y-99020544D01*
X133972515Y-99115782D01*
X134020134Y-99163401D01*
X134115372Y-99211020D01*
X134305848Y-99211020D01*
X134401086Y-99163401D01*
X134448705Y-99115782D01*
X134496324Y-99020544D01*
X134496324Y-98782449D01*
X134448705Y-98687211D01*
X134401086Y-98639592D01*
X134305848Y-98591973D01*
X134115372Y-98591973D01*
X134020134Y-98639592D01*
X133972515Y-98687211D01*
X133924896Y-98782449D01*
%TO.C,K17*%
X151070134Y-42061020D02*
X151070134Y-41061020D01*
X151641562Y-42061020D02*
X151212991Y-41489592D01*
X151641562Y-41061020D02*
X151070134Y-41632449D01*
X152593943Y-42061020D02*
X152022515Y-42061020D01*
X152308229Y-42061020D02*
X152308229Y-41061020D01*
X152212991Y-41203878D01*
X152117753Y-41299116D01*
X152022515Y-41346735D01*
X152927277Y-41061020D02*
X153593943Y-41061020D01*
X153165372Y-42061020D01*
%TO.C,K18*%
X151070134Y-61111020D02*
X151070134Y-60111020D01*
X151641562Y-61111020D02*
X151212991Y-60539592D01*
X151641562Y-60111020D02*
X151070134Y-60682449D01*
X152593943Y-61111020D02*
X152022515Y-61111020D01*
X152308229Y-61111020D02*
X152308229Y-60111020D01*
X152212991Y-60253878D01*
X152117753Y-60349116D01*
X152022515Y-60396735D01*
X153165372Y-60539592D02*
X153070134Y-60491973D01*
X153022515Y-60444354D01*
X152974896Y-60349116D01*
X152974896Y-60301497D01*
X153022515Y-60206259D01*
X153070134Y-60158640D01*
X153165372Y-60111020D01*
X153355848Y-60111020D01*
X153451086Y-60158640D01*
X153498705Y-60206259D01*
X153546324Y-60301497D01*
X153546324Y-60349116D01*
X153498705Y-60444354D01*
X153451086Y-60491973D01*
X153355848Y-60539592D01*
X153165372Y-60539592D01*
X153070134Y-60587211D01*
X153022515Y-60634830D01*
X152974896Y-60730068D01*
X152974896Y-60920544D01*
X153022515Y-61015782D01*
X153070134Y-61063401D01*
X153165372Y-61111020D01*
X153355848Y-61111020D01*
X153451086Y-61063401D01*
X153498705Y-61015782D01*
X153546324Y-60920544D01*
X153546324Y-60730068D01*
X153498705Y-60634830D01*
X153451086Y-60587211D01*
X153355848Y-60539592D01*
%TO.C,K19*%
X151070134Y-80161020D02*
X151070134Y-79161020D01*
X151641562Y-80161020D02*
X151212991Y-79589592D01*
X151641562Y-79161020D02*
X151070134Y-79732449D01*
X152593943Y-80161020D02*
X152022515Y-80161020D01*
X152308229Y-80161020D02*
X152308229Y-79161020D01*
X152212991Y-79303878D01*
X152117753Y-79399116D01*
X152022515Y-79446735D01*
X153070134Y-80161020D02*
X153260610Y-80161020D01*
X153355848Y-80113401D01*
X153403467Y-80065782D01*
X153498705Y-79922925D01*
X153546324Y-79732449D01*
X153546324Y-79351497D01*
X153498705Y-79256259D01*
X153451086Y-79208640D01*
X153355848Y-79161020D01*
X153165372Y-79161020D01*
X153070134Y-79208640D01*
X153022515Y-79256259D01*
X152974896Y-79351497D01*
X152974896Y-79589592D01*
X153022515Y-79684830D01*
X153070134Y-79732449D01*
X153165372Y-79780068D01*
X153355848Y-79780068D01*
X153451086Y-79732449D01*
X153498705Y-79684830D01*
X153546324Y-79589592D01*
%TO.C,K20*%
X151070134Y-99211020D02*
X151070134Y-98211020D01*
X151641562Y-99211020D02*
X151212991Y-98639592D01*
X151641562Y-98211020D02*
X151070134Y-98782449D01*
X152022515Y-98306259D02*
X152070134Y-98258640D01*
X152165372Y-98211020D01*
X152403467Y-98211020D01*
X152498705Y-98258640D01*
X152546324Y-98306259D01*
X152593943Y-98401497D01*
X152593943Y-98496735D01*
X152546324Y-98639592D01*
X151974896Y-99211020D01*
X152593943Y-99211020D01*
X153212991Y-98211020D02*
X153308229Y-98211020D01*
X153403467Y-98258640D01*
X153451086Y-98306259D01*
X153498705Y-98401497D01*
X153546324Y-98591973D01*
X153546324Y-98830068D01*
X153498705Y-99020544D01*
X153451086Y-99115782D01*
X153403467Y-99163401D01*
X153308229Y-99211020D01*
X153212991Y-99211020D01*
X153117753Y-99163401D01*
X153070134Y-99115782D01*
X153022515Y-99020544D01*
X152974896Y-98830068D01*
X152974896Y-98591973D01*
X153022515Y-98401497D01*
X153070134Y-98306259D01*
X153117753Y-98258640D01*
X153212991Y-98211020D01*
%TO.C,K21*%
X151070134Y-123023520D02*
X151070134Y-122023520D01*
X151641562Y-123023520D02*
X151212991Y-122452092D01*
X151641562Y-122023520D02*
X151070134Y-122594949D01*
X152022515Y-122118759D02*
X152070134Y-122071140D01*
X152165372Y-122023520D01*
X152403467Y-122023520D01*
X152498705Y-122071140D01*
X152546324Y-122118759D01*
X152593943Y-122213997D01*
X152593943Y-122309235D01*
X152546324Y-122452092D01*
X151974896Y-123023520D01*
X152593943Y-123023520D01*
X153546324Y-123023520D02*
X152974896Y-123023520D01*
X153260610Y-123023520D02*
X153260610Y-122023520D01*
X153165372Y-122166378D01*
X153070134Y-122261616D01*
X152974896Y-122309235D01*
%TO.C,K23*%
X170120134Y-61111020D02*
X170120134Y-60111020D01*
X170691562Y-61111020D02*
X170262991Y-60539592D01*
X170691562Y-60111020D02*
X170120134Y-60682449D01*
X171072515Y-60206259D02*
X171120134Y-60158640D01*
X171215372Y-60111020D01*
X171453467Y-60111020D01*
X171548705Y-60158640D01*
X171596324Y-60206259D01*
X171643943Y-60301497D01*
X171643943Y-60396735D01*
X171596324Y-60539592D01*
X171024896Y-61111020D01*
X171643943Y-61111020D01*
X171977277Y-60111020D02*
X172596324Y-60111020D01*
X172262991Y-60491973D01*
X172405848Y-60491973D01*
X172501086Y-60539592D01*
X172548705Y-60587211D01*
X172596324Y-60682449D01*
X172596324Y-60920544D01*
X172548705Y-61015782D01*
X172501086Y-61063401D01*
X172405848Y-61111020D01*
X172120134Y-61111020D01*
X172024896Y-61063401D01*
X171977277Y-61015782D01*
%TO.C,K24*%
X170120134Y-80161020D02*
X170120134Y-79161020D01*
X170691562Y-80161020D02*
X170262991Y-79589592D01*
X170691562Y-79161020D02*
X170120134Y-79732449D01*
X171072515Y-79256259D02*
X171120134Y-79208640D01*
X171215372Y-79161020D01*
X171453467Y-79161020D01*
X171548705Y-79208640D01*
X171596324Y-79256259D01*
X171643943Y-79351497D01*
X171643943Y-79446735D01*
X171596324Y-79589592D01*
X171024896Y-80161020D01*
X171643943Y-80161020D01*
X172501086Y-79494354D02*
X172501086Y-80161020D01*
X172262991Y-79113401D02*
X172024896Y-79827687D01*
X172643943Y-79827687D01*
%TO.C,K25*%
X170120134Y-99211020D02*
X170120134Y-98211020D01*
X170691562Y-99211020D02*
X170262991Y-98639592D01*
X170691562Y-98211020D02*
X170120134Y-98782449D01*
X171072515Y-98306259D02*
X171120134Y-98258640D01*
X171215372Y-98211020D01*
X171453467Y-98211020D01*
X171548705Y-98258640D01*
X171596324Y-98306259D01*
X171643943Y-98401497D01*
X171643943Y-98496735D01*
X171596324Y-98639592D01*
X171024896Y-99211020D01*
X171643943Y-99211020D01*
X172548705Y-98211020D02*
X172072515Y-98211020D01*
X172024896Y-98687211D01*
X172072515Y-98639592D01*
X172167753Y-98591973D01*
X172405848Y-98591973D01*
X172501086Y-98639592D01*
X172548705Y-98687211D01*
X172596324Y-98782449D01*
X172596324Y-99020544D01*
X172548705Y-99115782D01*
X172501086Y-99163401D01*
X172405848Y-99211020D01*
X172167753Y-99211020D01*
X172072515Y-99163401D01*
X172024896Y-99115782D01*
%TO.C,K27*%
X189170134Y-46823520D02*
X189170134Y-45823520D01*
X189741562Y-46823520D02*
X189312991Y-46252092D01*
X189741562Y-45823520D02*
X189170134Y-46394949D01*
X190122515Y-45918759D02*
X190170134Y-45871140D01*
X190265372Y-45823520D01*
X190503467Y-45823520D01*
X190598705Y-45871140D01*
X190646324Y-45918759D01*
X190693943Y-46013997D01*
X190693943Y-46109235D01*
X190646324Y-46252092D01*
X190074896Y-46823520D01*
X190693943Y-46823520D01*
X191027277Y-45823520D02*
X191693943Y-45823520D01*
X191265372Y-46823520D01*
%TO.C,K28*%
X189170134Y-65873520D02*
X189170134Y-64873520D01*
X189741562Y-65873520D02*
X189312991Y-65302092D01*
X189741562Y-64873520D02*
X189170134Y-65444949D01*
X190122515Y-64968759D02*
X190170134Y-64921140D01*
X190265372Y-64873520D01*
X190503467Y-64873520D01*
X190598705Y-64921140D01*
X190646324Y-64968759D01*
X190693943Y-65063997D01*
X190693943Y-65159235D01*
X190646324Y-65302092D01*
X190074896Y-65873520D01*
X190693943Y-65873520D01*
X191265372Y-65302092D02*
X191170134Y-65254473D01*
X191122515Y-65206854D01*
X191074896Y-65111616D01*
X191074896Y-65063997D01*
X191122515Y-64968759D01*
X191170134Y-64921140D01*
X191265372Y-64873520D01*
X191455848Y-64873520D01*
X191551086Y-64921140D01*
X191598705Y-64968759D01*
X191646324Y-65063997D01*
X191646324Y-65111616D01*
X191598705Y-65206854D01*
X191551086Y-65254473D01*
X191455848Y-65302092D01*
X191265372Y-65302092D01*
X191170134Y-65349711D01*
X191122515Y-65397330D01*
X191074896Y-65492568D01*
X191074896Y-65683044D01*
X191122515Y-65778282D01*
X191170134Y-65825901D01*
X191265372Y-65873520D01*
X191455848Y-65873520D01*
X191551086Y-65825901D01*
X191598705Y-65778282D01*
X191646324Y-65683044D01*
X191646324Y-65492568D01*
X191598705Y-65397330D01*
X191551086Y-65349711D01*
X191455848Y-65302092D01*
%TO.C,K29*%
X189170134Y-84923520D02*
X189170134Y-83923520D01*
X189741562Y-84923520D02*
X189312991Y-84352092D01*
X189741562Y-83923520D02*
X189170134Y-84494949D01*
X190122515Y-84018759D02*
X190170134Y-83971140D01*
X190265372Y-83923520D01*
X190503467Y-83923520D01*
X190598705Y-83971140D01*
X190646324Y-84018759D01*
X190693943Y-84113997D01*
X190693943Y-84209235D01*
X190646324Y-84352092D01*
X190074896Y-84923520D01*
X190693943Y-84923520D01*
X191170134Y-84923520D02*
X191360610Y-84923520D01*
X191455848Y-84875901D01*
X191503467Y-84828282D01*
X191598705Y-84685425D01*
X191646324Y-84494949D01*
X191646324Y-84113997D01*
X191598705Y-84018759D01*
X191551086Y-83971140D01*
X191455848Y-83923520D01*
X191265372Y-83923520D01*
X191170134Y-83971140D01*
X191122515Y-84018759D01*
X191074896Y-84113997D01*
X191074896Y-84352092D01*
X191122515Y-84447330D01*
X191170134Y-84494949D01*
X191265372Y-84542568D01*
X191455848Y-84542568D01*
X191551086Y-84494949D01*
X191598705Y-84447330D01*
X191646324Y-84352092D01*
%TO.C,K30*%
X207228639Y-111980529D02*
X207935746Y-111273423D01*
X207632700Y-112384590D02*
X207733715Y-111677484D01*
X208339807Y-111677484D02*
X207531685Y-111677484D01*
X208575509Y-111913186D02*
X209013242Y-112350919D01*
X208508166Y-112384590D01*
X208609181Y-112485606D01*
X208642853Y-112586621D01*
X208642853Y-112653965D01*
X208609181Y-112754980D01*
X208440822Y-112923339D01*
X208339807Y-112957010D01*
X208272463Y-112957010D01*
X208171448Y-112923339D01*
X207969418Y-112721308D01*
X207935746Y-112620293D01*
X207935746Y-112552949D01*
X209450975Y-112788652D02*
X209518318Y-112855995D01*
X209551990Y-112957010D01*
X209551990Y-113024354D01*
X209518318Y-113125369D01*
X209417303Y-113293728D01*
X209248944Y-113462087D01*
X209080586Y-113563102D01*
X208979570Y-113596774D01*
X208912227Y-113596774D01*
X208811212Y-113563102D01*
X208743868Y-113495758D01*
X208710196Y-113394743D01*
X208710196Y-113327400D01*
X208743868Y-113226384D01*
X208844883Y-113058026D01*
X209013242Y-112889667D01*
X209181601Y-112788652D01*
X209282616Y-112754980D01*
X209349960Y-112754980D01*
X209450975Y-112788652D01*
%TO.C,K31*%
X189170134Y-132548520D02*
X189170134Y-131548520D01*
X189741562Y-132548520D02*
X189312991Y-131977092D01*
X189741562Y-131548520D02*
X189170134Y-132119949D01*
X190074896Y-131548520D02*
X190693943Y-131548520D01*
X190360610Y-131929473D01*
X190503467Y-131929473D01*
X190598705Y-131977092D01*
X190646324Y-132024711D01*
X190693943Y-132119949D01*
X190693943Y-132358044D01*
X190646324Y-132453282D01*
X190598705Y-132500901D01*
X190503467Y-132548520D01*
X190217753Y-132548520D01*
X190122515Y-132500901D01*
X190074896Y-132453282D01*
X191646324Y-132548520D02*
X191074896Y-132548520D01*
X191360610Y-132548520D02*
X191360610Y-131548520D01*
X191265372Y-131691378D01*
X191170134Y-131786616D01*
X191074896Y-131834235D01*
%TO.C,Brd1*%
X213102039Y-81511020D02*
X213292515Y-81511020D01*
X213387753Y-81558640D01*
X213482991Y-81653878D01*
X213530610Y-81844354D01*
X213530610Y-82177687D01*
X213482991Y-82368163D01*
X213387753Y-82463401D01*
X213292515Y-82511020D01*
X213102039Y-82511020D01*
X213006800Y-82463401D01*
X212911562Y-82368163D01*
X212863943Y-82177687D01*
X212863943Y-81844354D01*
X212911562Y-81653878D01*
X213006800Y-81558640D01*
X213102039Y-81511020D01*
X214435372Y-82511020D02*
X213959181Y-82511020D01*
X213959181Y-81511020D01*
X214768705Y-81987211D02*
X215102039Y-81987211D01*
X215244896Y-82511020D02*
X214768705Y-82511020D01*
X214768705Y-81511020D01*
X215244896Y-81511020D01*
X215673467Y-82511020D02*
X215673467Y-81511020D01*
X215911562Y-81511020D01*
X216054420Y-81558640D01*
X216149658Y-81653878D01*
X216197277Y-81749116D01*
X216244896Y-81939592D01*
X216244896Y-82082449D01*
X216197277Y-82272925D01*
X216149658Y-82368163D01*
X216054420Y-82463401D01*
X215911562Y-82511020D01*
X215673467Y-82511020D01*
%TO.C,R1*%
X206457574Y-97577373D02*
X206076622Y-97844040D01*
X206457574Y-98034516D02*
X205657574Y-98034516D01*
X205657574Y-97729754D01*
X205695670Y-97653563D01*
X205733765Y-97615468D01*
X205809955Y-97577373D01*
X205924241Y-97577373D01*
X206000431Y-97615468D01*
X206038527Y-97653563D01*
X206076622Y-97729754D01*
X206076622Y-98034516D01*
X206457574Y-96815468D02*
X206457574Y-97272611D01*
X206457574Y-97044040D02*
X205657574Y-97044040D01*
X205771860Y-97120230D01*
X205848050Y-97196420D01*
X205886146Y-97272611D01*
%TD*%
M02*
