%TF.GenerationSoftware,KiCad,Pcbnew,5.1.9*%
%TF.CreationDate,2021-04-17T11:05:04+02:00*%
%TF.ProjectId,Crystal-Zeliska,43727973-7461-46c2-9d5a-656c69736b61,rev?*%
%TF.SameCoordinates,Original*%
%TF.FileFunction,Soldermask,Top*%
%TF.FilePolarity,Negative*%
%FSLAX46Y46*%
G04 Gerber Fmt 4.6, Leading zero omitted, Abs format (unit mm)*
G04 Created by KiCad (PCBNEW 5.1.9) date 2021-04-17 11:05:04*
%MOMM*%
%LPD*%
G01*
G04 APERTURE LIST*
%ADD10R,1.600000X1.600000*%
%ADD11C,1.600000*%
%ADD12R,1.000000X1.500000*%
%ADD13C,4.400000*%
%ADD14R,1.200000X1.200000*%
%ADD15C,0.100000*%
%ADD16C,1.701800*%
%ADD17C,2.286000*%
%ADD18C,3.987800*%
%ADD19R,1.000000X1.700000*%
%ADD20O,2.000000X1.600000*%
%ADD21C,0.800000*%
%ADD22C,1.397000*%
%ADD23R,1.200000X1.500000*%
G04 APERTURE END LIST*
D10*
%TO.C,D6*%
X91244420Y-73681140D03*
D11*
X99044420Y-73681140D03*
%TD*%
D12*
%TO.C,D37*%
X144944420Y-50478640D03*
X141744420Y-50478640D03*
X144944420Y-55378640D03*
X141744420Y-55378640D03*
%TD*%
D11*
%TO.C,D28*%
X194294420Y-78438640D03*
D10*
X186494420Y-78438640D03*
%TD*%
D13*
%TO.C,REF\u002A\u002A*%
X67334420Y-97888640D03*
%TD*%
D14*
%TO.C,D19*%
X153859420Y-92726140D03*
X150709420Y-92726140D03*
D10*
X148384420Y-92726140D03*
D11*
X156184420Y-92726140D03*
%TD*%
D13*
%TO.C,REF\u002A\u002A*%
X197344420Y-128488640D03*
%TD*%
%TO.C,REF\u002A\u002A*%
X180194420Y-145388640D03*
%TD*%
%TO.C,REF\u002A\u002A*%
X141844420Y-135568640D03*
%TD*%
%TO.C,REF\u002A\u002A*%
X142364420Y-97608640D03*
%TD*%
D10*
%TO.C,D29*%
X186474420Y-97488640D03*
D11*
X194274420Y-97488640D03*
%TD*%
D15*
%TO.C,D40*%
G36*
X132219496Y-117628081D02*
G01*
X132926602Y-116920975D01*
X133987262Y-117981635D01*
X133280156Y-118688741D01*
X132219496Y-117628081D01*
G37*
G36*
X129956755Y-119890822D02*
G01*
X130663861Y-119183716D01*
X131724521Y-120244376D01*
X131017415Y-120951482D01*
X129956755Y-119890822D01*
G37*
G36*
X135684319Y-121092904D02*
G01*
X136391425Y-120385798D01*
X137452085Y-121446458D01*
X136744979Y-122153564D01*
X135684319Y-121092904D01*
G37*
G36*
X133421578Y-123355645D02*
G01*
X134128684Y-122648539D01*
X135189344Y-123709199D01*
X134482238Y-124416305D01*
X133421578Y-123355645D01*
G37*
%TD*%
D12*
%TO.C,D35*%
X182394420Y-51158640D03*
X179194420Y-51158640D03*
X182394420Y-56058640D03*
X179194420Y-56058640D03*
%TD*%
D16*
%TO.C,K26*%
X166254420Y-135588640D03*
X176414420Y-135588640D03*
D17*
X167524420Y-133048640D03*
D18*
X171334420Y-135588640D03*
D17*
X173874420Y-130508640D03*
X168794420Y-130508640D03*
X175144420Y-133048640D03*
%TD*%
D11*
%TO.C,D1*%
X79984420Y-73681140D03*
D10*
X72184420Y-73681140D03*
%TD*%
D11*
%TO.C,D9*%
X118084420Y-54621140D03*
D10*
X110284420Y-54621140D03*
%TD*%
D11*
%TO.C,D24*%
X175234420Y-92731140D03*
D10*
X167434420Y-92731140D03*
%TD*%
%TO.C,D15*%
X129334420Y-92718640D03*
D11*
X137134420Y-92718640D03*
%TD*%
D17*
%TO.C,K1*%
X79894420Y-66373640D03*
X73544420Y-63833640D03*
X78624420Y-63833640D03*
D18*
X76084420Y-68913640D03*
D17*
X72274420Y-66373640D03*
D16*
X81164420Y-68913640D03*
X71004420Y-68913640D03*
%TD*%
D11*
%TO.C,D13*%
X137134420Y-54621140D03*
D10*
X129334420Y-54621140D03*
%TD*%
D19*
%TO.C,SW1*%
X212184420Y-94378640D03*
X212184420Y-100678640D03*
X208384420Y-94378640D03*
X208384420Y-100678640D03*
%TD*%
D11*
%TO.C,D19*%
X156184420Y-92711140D03*
D10*
X148384420Y-92711140D03*
%TD*%
D11*
%TO.C,D7*%
X99044420Y-92711140D03*
D10*
X91244420Y-92711140D03*
%TD*%
%TO.C,D2*%
X72184420Y-92721140D03*
D11*
X79984420Y-92721140D03*
%TD*%
D12*
%TO.C,D41*%
X83804420Y-65388640D03*
X87004420Y-65388640D03*
X83804420Y-60488640D03*
X87004420Y-60488640D03*
%TD*%
D17*
%TO.C,K2*%
X79894420Y-85423640D03*
X73544420Y-82883640D03*
X78624420Y-82883640D03*
D18*
X76084420Y-87963640D03*
D17*
X72274420Y-85423640D03*
D16*
X81164420Y-87963640D03*
X71004420Y-87963640D03*
%TD*%
D10*
%TO.C,D10*%
X110284420Y-73691140D03*
D11*
X118084420Y-73691140D03*
%TD*%
D10*
%TO.C,D14*%
X129334420Y-73681140D03*
D11*
X137134420Y-73681140D03*
%TD*%
D10*
%TO.C,D18*%
X148359420Y-73648640D03*
D11*
X156159420Y-73648640D03*
%TD*%
D16*
%TO.C,K3*%
X71004420Y-107013640D03*
X81164420Y-107013640D03*
D17*
X72274420Y-104473640D03*
D18*
X76084420Y-107013640D03*
D17*
X78624420Y-101933640D03*
X73544420Y-101933640D03*
X79894420Y-104473640D03*
%TD*%
%TO.C,K11*%
X117994420Y-85423640D03*
X111644420Y-82883640D03*
X116724420Y-82883640D03*
D18*
X114184420Y-87963640D03*
D17*
X110374420Y-85423640D03*
D16*
X119264420Y-87963640D03*
X109104420Y-87963640D03*
%TD*%
D10*
%TO.C,U1*%
X206934420Y-47768640D03*
D11*
X206934420Y-50308640D03*
X206934420Y-52848640D03*
X206934420Y-55388640D03*
X206934420Y-57928640D03*
X206934420Y-60468640D03*
X206934420Y-63008640D03*
X206934420Y-65548640D03*
X206934420Y-68088640D03*
X206934420Y-70628640D03*
X206934420Y-73168640D03*
X206934420Y-75708640D03*
X222174420Y-75708640D03*
X222174420Y-73168640D03*
X222174420Y-70628640D03*
X222174420Y-68088640D03*
X222174420Y-65548640D03*
X222174420Y-63008640D03*
X222174420Y-60468640D03*
X222174420Y-57928640D03*
X222174420Y-55388640D03*
X222174420Y-52848640D03*
X222174420Y-50308640D03*
X222174420Y-47768640D03*
%TD*%
%TO.C,D22*%
X175234420Y-54621140D03*
D10*
X167434420Y-54621140D03*
%TD*%
%TO.C,D15*%
X110284420Y-92728640D03*
D11*
X118084420Y-92728640D03*
%TD*%
D10*
%TO.C,D23*%
X167434420Y-73681140D03*
D11*
X175234420Y-73681140D03*
%TD*%
D10*
%TO.C,D21*%
X148384420Y-135588640D03*
D11*
X156184420Y-135588640D03*
%TD*%
D10*
%TO.C,D3*%
X72184420Y-111778640D03*
D11*
X79984420Y-111778640D03*
%TD*%
D12*
%TO.C,D39*%
X106314420Y-48418640D03*
X103114420Y-48418640D03*
X106314420Y-53318640D03*
X103114420Y-53318640D03*
%TD*%
%TO.C,D38*%
X185754420Y-119538640D03*
X182554420Y-119538640D03*
X185754420Y-124438640D03*
X182554420Y-124438640D03*
%TD*%
D11*
%TO.C,D8*%
X99044420Y-111778640D03*
D10*
X91244420Y-111778640D03*
%TD*%
%TO.C,D5*%
X91234420Y-54631140D03*
D11*
X99034420Y-54631140D03*
%TD*%
D13*
%TO.C,REF\u002A\u002A*%
X198914420Y-64158640D03*
%TD*%
D20*
%TO.C,U2*%
X219804420Y-87298640D03*
D21*
X224404420Y-89598640D03*
X217404420Y-89598640D03*
D20*
X222804420Y-87298640D03*
X215804420Y-87298640D03*
X214704420Y-91898640D03*
%TD*%
D11*
%TO.C,U1*%
X209494420Y-49228640D03*
X209494420Y-51768640D03*
X209494420Y-54308640D03*
X209494420Y-56848640D03*
X209494420Y-59388640D03*
X209494420Y-61928640D03*
X209494420Y-64468640D03*
X209494420Y-67008640D03*
X209494420Y-69548640D03*
X209494420Y-72088640D03*
X209494420Y-74628640D03*
X209494420Y-77168640D03*
X224734420Y-77168640D03*
X224734420Y-74628640D03*
X224734420Y-72088640D03*
X224734420Y-69548640D03*
X224734420Y-67008640D03*
X224734420Y-64468640D03*
X224734420Y-61928640D03*
X224734420Y-59388640D03*
X224734420Y-56848640D03*
X224734420Y-54308640D03*
X224734420Y-51768640D03*
D10*
X224734420Y-49228640D03*
%TD*%
D11*
%TO.C,D3*%
X79984420Y-111776140D03*
D10*
X72184420Y-111776140D03*
D14*
X74509420Y-111776140D03*
X77659420Y-111776140D03*
%TD*%
%TO.C,D9*%
X115759420Y-54626140D03*
X112609420Y-54626140D03*
D10*
X110284420Y-54626140D03*
D11*
X118084420Y-54626140D03*
%TD*%
D14*
%TO.C,D20*%
X153859420Y-111776140D03*
X150709420Y-111776140D03*
D10*
X148384420Y-111776140D03*
D11*
X156184420Y-111776140D03*
%TD*%
%TO.C,D21*%
X156184420Y-135588640D03*
D10*
X148384420Y-135588640D03*
D14*
X150709420Y-135588640D03*
X153859420Y-135588640D03*
%TD*%
%TO.C,D22*%
X172909420Y-54626140D03*
X169759420Y-54626140D03*
D10*
X167434420Y-54626140D03*
D11*
X175234420Y-54626140D03*
%TD*%
%TO.C,D23*%
X175234420Y-73676140D03*
D10*
X167434420Y-73676140D03*
D14*
X169759420Y-73676140D03*
X172909420Y-73676140D03*
%TD*%
%TO.C,D24*%
X172909420Y-92726140D03*
X169759420Y-92726140D03*
D10*
X167434420Y-92726140D03*
D11*
X175234420Y-92726140D03*
%TD*%
%TO.C,D25*%
X175234420Y-111776140D03*
D10*
X167434420Y-111776140D03*
D14*
X169759420Y-111776140D03*
X172909420Y-111776140D03*
%TD*%
%TO.C,D26*%
X172909420Y-140351140D03*
X169759420Y-140351140D03*
D10*
X167434420Y-140351140D03*
D11*
X175234420Y-140351140D03*
%TD*%
%TO.C,D27*%
X194284420Y-59388640D03*
D10*
X186484420Y-59388640D03*
D14*
X188809420Y-59388640D03*
X191959420Y-59388640D03*
%TD*%
%TO.C,D28*%
X191959420Y-78438640D03*
X188809420Y-78438640D03*
D10*
X186484420Y-78438640D03*
D11*
X194284420Y-78438640D03*
%TD*%
%TO.C,D29*%
X194284420Y-97488640D03*
D10*
X186484420Y-97488640D03*
D14*
X188809420Y-97488640D03*
X191959420Y-97488640D03*
%TD*%
%TO.C,D31*%
X191959420Y-145113640D03*
X188809420Y-145113640D03*
D10*
X186484420Y-145113640D03*
D11*
X194284420Y-145113640D03*
%TD*%
%TO.C,D5*%
X99034420Y-54626140D03*
D10*
X91234420Y-54626140D03*
D14*
X93559420Y-54626140D03*
X96709420Y-54626140D03*
%TD*%
D15*
%TO.C,D30*%
G36*
X199539585Y-122414833D02*
G01*
X200388113Y-121566305D01*
X201236641Y-122414833D01*
X200388113Y-123263361D01*
X199539585Y-122414833D01*
G37*
G36*
X197312199Y-120187447D02*
G01*
X198160727Y-119338919D01*
X199009255Y-120187447D01*
X198160727Y-121035975D01*
X197312199Y-120187447D01*
G37*
G36*
X195385333Y-118543424D02*
G01*
X196516704Y-117412053D01*
X197648075Y-118543424D01*
X196516704Y-119674795D01*
X195385333Y-118543424D01*
G37*
D11*
X202032136Y-124058856D03*
%TD*%
D16*
%TO.C,K4*%
X51954420Y-97488640D03*
X62114420Y-97488640D03*
D17*
X53224420Y-94948640D03*
D18*
X57034420Y-97488640D03*
D17*
X59574420Y-92408640D03*
X54494420Y-92408640D03*
X60844420Y-94948640D03*
%TD*%
%TO.C,K5*%
X98944420Y-47323640D03*
X92594420Y-44783640D03*
X97674420Y-44783640D03*
D18*
X95134420Y-49863640D03*
D17*
X91324420Y-47323640D03*
D16*
X100214420Y-49863640D03*
X90054420Y-49863640D03*
%TD*%
D17*
%TO.C,K6*%
X98944420Y-66373640D03*
X92594420Y-63833640D03*
X97674420Y-63833640D03*
D18*
X95134420Y-68913640D03*
D17*
X91324420Y-66373640D03*
D16*
X100214420Y-68913640D03*
X90054420Y-68913640D03*
%TD*%
D17*
%TO.C,K7*%
X98944420Y-85423640D03*
X92594420Y-82883640D03*
X97674420Y-82883640D03*
D18*
X95134420Y-87963640D03*
D17*
X91324420Y-85423640D03*
D16*
X100214420Y-87963640D03*
X90054420Y-87963640D03*
%TD*%
%TO.C,K8*%
X90054420Y-107013640D03*
X100214420Y-107013640D03*
D17*
X91324420Y-104473640D03*
D18*
X95134420Y-107013640D03*
D17*
X97674420Y-101933640D03*
X92594420Y-101933640D03*
X98944420Y-104473640D03*
%TD*%
D16*
%TO.C,K9*%
X109104420Y-49863640D03*
X119264420Y-49863640D03*
D17*
X110374420Y-47323640D03*
D18*
X114184420Y-49863640D03*
D17*
X116724420Y-44783640D03*
X111644420Y-44783640D03*
X117994420Y-47323640D03*
%TD*%
D16*
%TO.C,K10*%
X109104420Y-68913640D03*
X119264420Y-68913640D03*
D17*
X110374420Y-66373640D03*
D18*
X114184420Y-68913640D03*
D17*
X116724420Y-63833640D03*
X111644420Y-63833640D03*
X117994420Y-66373640D03*
%TD*%
D11*
%TO.C,D17*%
X156184420Y-54621140D03*
D10*
X148384420Y-54621140D03*
%TD*%
D12*
%TO.C,D42*%
X87444420Y-107298640D03*
X84244420Y-107298640D03*
X87444420Y-112198640D03*
X84244420Y-112198640D03*
%TD*%
D17*
%TO.C,K22*%
X175144420Y-47323640D03*
X168794420Y-44783640D03*
X173874420Y-44783640D03*
D18*
X171334420Y-49863640D03*
D17*
X167524420Y-47323640D03*
D16*
X176414420Y-49863640D03*
X166254420Y-49863640D03*
%TD*%
D22*
%TO.C,Brd1*%
X213304420Y-81458640D03*
X215844420Y-81458640D03*
X218384420Y-81458640D03*
X220924420Y-81458640D03*
%TD*%
D10*
%TO.C,D27*%
X186494420Y-59378640D03*
D11*
X194294420Y-59378640D03*
%TD*%
%TO.C,D20*%
X156184420Y-111781140D03*
D10*
X148384420Y-111781140D03*
%TD*%
%TO.C,D25*%
X167434420Y-111778640D03*
D11*
X175234420Y-111778640D03*
%TD*%
D13*
%TO.C,REF\u002A\u002A*%
X199024420Y-103558640D03*
%TD*%
D11*
%TO.C,D16*%
X137134420Y-111781140D03*
D10*
X129334420Y-111781140D03*
%TD*%
%TO.C,D4*%
X53134420Y-102248640D03*
D11*
X60934420Y-102248640D03*
%TD*%
%TO.C,D12*%
X118084420Y-111778640D03*
D10*
X110284420Y-111778640D03*
%TD*%
D11*
%TO.C,D31*%
X194284420Y-145113640D03*
D10*
X186484420Y-145113640D03*
%TD*%
D13*
%TO.C,REF\u002A\u002A*%
X104724420Y-59608640D03*
%TD*%
D11*
%TO.C,D30*%
X202024636Y-124056356D03*
D15*
G36*
X195377833Y-118540924D02*
G01*
X196509204Y-117409553D01*
X197640575Y-118540924D01*
X196509204Y-119672295D01*
X195377833Y-118540924D01*
G37*
%TD*%
D13*
%TO.C,REF\u002A\u002A*%
X161464420Y-59588640D03*
%TD*%
D11*
%TO.C,D26*%
X175234420Y-140346140D03*
D10*
X167434420Y-140346140D03*
%TD*%
D12*
%TO.C,D43*%
X67174420Y-86948640D03*
X63974420Y-86948640D03*
X67174420Y-91848640D03*
X63974420Y-91848640D03*
%TD*%
D13*
%TO.C,REF\u002A\u002A*%
X104414420Y-97728640D03*
%TD*%
D14*
%TO.C,D1*%
X77659420Y-73676140D03*
X74509420Y-73676140D03*
D10*
X72184420Y-73676140D03*
D11*
X79984420Y-73676140D03*
%TD*%
%TO.C,D2*%
X79984420Y-92726140D03*
D10*
X72184420Y-92726140D03*
D14*
X74509420Y-92726140D03*
X77659420Y-92726140D03*
%TD*%
D11*
%TO.C,D4*%
X60934420Y-102251140D03*
D10*
X53134420Y-102251140D03*
D14*
X55459420Y-102251140D03*
X58609420Y-102251140D03*
%TD*%
D11*
%TO.C,D6*%
X99034420Y-73676140D03*
D10*
X91234420Y-73676140D03*
D14*
X93559420Y-73676140D03*
X96709420Y-73676140D03*
%TD*%
%TO.C,D7*%
X96709420Y-92726140D03*
X93559420Y-92726140D03*
D10*
X91234420Y-92726140D03*
D11*
X99034420Y-92726140D03*
%TD*%
D14*
%TO.C,D8*%
X96709420Y-111776140D03*
X93559420Y-111776140D03*
D10*
X91234420Y-111776140D03*
D11*
X99034420Y-111776140D03*
%TD*%
%TO.C,D10*%
X118084420Y-73676140D03*
D10*
X110284420Y-73676140D03*
D14*
X112609420Y-73676140D03*
X115759420Y-73676140D03*
%TD*%
D11*
%TO.C,D11*%
X118084420Y-92726140D03*
D10*
X110284420Y-92726140D03*
D14*
X112609420Y-92726140D03*
X115759420Y-92726140D03*
%TD*%
%TO.C,D12*%
X115759420Y-111776140D03*
X112609420Y-111776140D03*
D10*
X110284420Y-111776140D03*
D11*
X118084420Y-111776140D03*
%TD*%
D14*
%TO.C,D13*%
X134809420Y-54626140D03*
X131659420Y-54626140D03*
D10*
X129334420Y-54626140D03*
D11*
X137134420Y-54626140D03*
%TD*%
%TO.C,D14*%
X137134420Y-73676140D03*
D10*
X129334420Y-73676140D03*
D14*
X131659420Y-73676140D03*
X134809420Y-73676140D03*
%TD*%
D11*
%TO.C,D15*%
X137134420Y-92726140D03*
D10*
X129334420Y-92726140D03*
D14*
X131659420Y-92726140D03*
X134809420Y-92726140D03*
%TD*%
%TO.C,D16*%
X134809420Y-111776140D03*
X131659420Y-111776140D03*
D10*
X129334420Y-111776140D03*
D11*
X137134420Y-111776140D03*
%TD*%
D14*
%TO.C,D17*%
X153859420Y-54626140D03*
X150709420Y-54626140D03*
D10*
X148384420Y-54626140D03*
D11*
X156184420Y-54626140D03*
%TD*%
%TO.C,D18*%
X156184420Y-73676140D03*
D10*
X148384420Y-73676140D03*
D14*
X150709420Y-73676140D03*
X153859420Y-73676140D03*
%TD*%
D17*
%TO.C,K12*%
X117994420Y-104473640D03*
X111644420Y-101933640D03*
X116724420Y-101933640D03*
D18*
X114184420Y-107013640D03*
D17*
X110374420Y-104473640D03*
D16*
X119264420Y-107013640D03*
X109104420Y-107013640D03*
%TD*%
%TO.C,K13*%
X128154420Y-49863640D03*
X138314420Y-49863640D03*
D17*
X129424420Y-47323640D03*
D18*
X133234420Y-49863640D03*
D17*
X135774420Y-44783640D03*
X130694420Y-44783640D03*
X137044420Y-47323640D03*
%TD*%
D16*
%TO.C,K14*%
X128154420Y-68913640D03*
X138314420Y-68913640D03*
D17*
X129424420Y-66373640D03*
D18*
X133234420Y-68913640D03*
D17*
X135774420Y-63833640D03*
X130694420Y-63833640D03*
X137044420Y-66373640D03*
%TD*%
D16*
%TO.C,K15*%
X128154420Y-87963640D03*
X138314420Y-87963640D03*
D17*
X129424420Y-85423640D03*
D18*
X133234420Y-87963640D03*
D17*
X135774420Y-82883640D03*
X130694420Y-82883640D03*
X137044420Y-85423640D03*
%TD*%
%TO.C,K16*%
X137044420Y-104473640D03*
X130694420Y-101933640D03*
X135774420Y-101933640D03*
D18*
X133234420Y-107013640D03*
D17*
X129424420Y-104473640D03*
D16*
X138314420Y-107013640D03*
X128154420Y-107013640D03*
%TD*%
%TO.C,K17*%
X147204420Y-49863640D03*
X157364420Y-49863640D03*
D17*
X148474420Y-47323640D03*
D18*
X152284420Y-49863640D03*
D17*
X154824420Y-44783640D03*
X149744420Y-44783640D03*
X156094420Y-47323640D03*
%TD*%
D16*
%TO.C,K18*%
X147204420Y-68913640D03*
X157364420Y-68913640D03*
D17*
X148474420Y-66373640D03*
D18*
X152284420Y-68913640D03*
D17*
X154824420Y-63833640D03*
X149744420Y-63833640D03*
X156094420Y-66373640D03*
%TD*%
%TO.C,K19*%
X156094420Y-85423640D03*
X149744420Y-82883640D03*
X154824420Y-82883640D03*
D18*
X152284420Y-87963640D03*
D17*
X148474420Y-85423640D03*
D16*
X157364420Y-87963640D03*
X147204420Y-87963640D03*
%TD*%
D17*
%TO.C,K20*%
X156094420Y-104473640D03*
X149744420Y-101933640D03*
X154824420Y-101933640D03*
D18*
X152284420Y-107013640D03*
D17*
X148474420Y-104473640D03*
D16*
X157364420Y-107013640D03*
X147204420Y-107013640D03*
%TD*%
%TO.C,K21*%
X147204420Y-130826140D03*
X157364420Y-130826140D03*
D17*
X148474420Y-128286140D03*
D18*
X152284420Y-130826140D03*
D17*
X154824420Y-125746140D03*
X149744420Y-125746140D03*
X156094420Y-128286140D03*
%TD*%
D16*
%TO.C,K23*%
X166254420Y-68913640D03*
X176414420Y-68913640D03*
D17*
X167524420Y-66373640D03*
D18*
X171334420Y-68913640D03*
D17*
X173874420Y-63833640D03*
X168794420Y-63833640D03*
X175144420Y-66373640D03*
%TD*%
%TO.C,K24*%
X175144420Y-85423640D03*
X168794420Y-82883640D03*
X173874420Y-82883640D03*
D18*
X171334420Y-87963640D03*
D17*
X167524420Y-85423640D03*
D16*
X176414420Y-87963640D03*
X166254420Y-87963640D03*
%TD*%
D17*
%TO.C,K25*%
X175144420Y-104473640D03*
X168794420Y-101933640D03*
X173874420Y-101933640D03*
D18*
X171334420Y-107013640D03*
D17*
X167524420Y-104473640D03*
D16*
X176414420Y-107013640D03*
X166254420Y-107013640D03*
%TD*%
D17*
%TO.C,K27*%
X194194420Y-52086140D03*
X187844420Y-49546140D03*
X192924420Y-49546140D03*
D18*
X190384420Y-54626140D03*
D17*
X186574420Y-52086140D03*
D16*
X195464420Y-54626140D03*
X185304420Y-54626140D03*
%TD*%
%TO.C,K28*%
X185304420Y-73676140D03*
X195464420Y-73676140D03*
D17*
X186574420Y-71136140D03*
D18*
X190384420Y-73676140D03*
D17*
X192924420Y-68596140D03*
X187844420Y-68596140D03*
X194194420Y-71136140D03*
%TD*%
%TO.C,K29*%
X194194420Y-90186140D03*
X187844420Y-87646140D03*
X192924420Y-87646140D03*
D18*
X190384420Y-92726140D03*
D17*
X186574420Y-90186140D03*
D16*
X195464420Y-92726140D03*
X185304420Y-92726140D03*
%TD*%
%TO.C,K30*%
X198977883Y-114764342D03*
X206162087Y-121948546D03*
D17*
X201671959Y-113866316D03*
D18*
X202569985Y-118356444D03*
D17*
X207958139Y-116560393D03*
X204366036Y-112968290D03*
X207060113Y-119254470D03*
%TD*%
%TO.C,K31*%
X194194420Y-137811140D03*
X187844420Y-135271140D03*
X192924420Y-135271140D03*
D18*
X190384420Y-140351140D03*
D17*
X186574420Y-137811140D03*
D16*
X195464420Y-140351140D03*
X185304420Y-140351140D03*
%TD*%
D22*
%TO.C,Brd1*%
X210754420Y-84158640D03*
X213294420Y-84158640D03*
X215834420Y-84158640D03*
X218374420Y-84158640D03*
%TD*%
D20*
%TO.C,U2*%
X214694420Y-89548640D03*
X215794420Y-94148640D03*
X222794420Y-94148640D03*
D21*
X217394420Y-91848640D03*
X224394420Y-91848640D03*
D20*
X219794420Y-94148640D03*
%TD*%
D23*
%TO.C,R1*%
X204595670Y-96068640D03*
X204595670Y-98768640D03*
D11*
X204595670Y-101318640D03*
X204595670Y-93518640D03*
%TD*%
M02*
