%TF.GenerationSoftware,KiCad,Pcbnew,5.1.9*%
%TF.CreationDate,2021-04-17T11:05:04+02:00*%
%TF.ProjectId,Crystal-Zeliska,43727973-7461-46c2-9d5a-656c69736b61,rev?*%
%TF.SameCoordinates,Original*%
%TF.FileFunction,Paste,Top*%
%TF.FilePolarity,Positive*%
%FSLAX46Y46*%
G04 Gerber Fmt 4.6, Leading zero omitted, Abs format (unit mm)*
G04 Created by KiCad (PCBNEW 5.1.9) date 2021-04-17 11:05:04*
%MOMM*%
%LPD*%
G01*
G04 APERTURE LIST*
%ADD10R,1.000000X1.500000*%
%ADD11R,1.200000X1.200000*%
%ADD12C,0.100000*%
%ADD13R,1.000000X1.700000*%
%ADD14R,1.200000X1.500000*%
G04 APERTURE END LIST*
D10*
%TO.C,D37*%
X144944420Y-50478640D03*
X141744420Y-50478640D03*
X144944420Y-55378640D03*
X141744420Y-55378640D03*
%TD*%
D11*
%TO.C,D19*%
X153859420Y-92726140D03*
X150709420Y-92726140D03*
%TD*%
D12*
%TO.C,D40*%
G36*
X132219496Y-117628081D02*
G01*
X132926602Y-116920975D01*
X133987262Y-117981635D01*
X133280156Y-118688741D01*
X132219496Y-117628081D01*
G37*
G36*
X129956755Y-119890822D02*
G01*
X130663861Y-119183716D01*
X131724521Y-120244376D01*
X131017415Y-120951482D01*
X129956755Y-119890822D01*
G37*
G36*
X135684319Y-121092904D02*
G01*
X136391425Y-120385798D01*
X137452085Y-121446458D01*
X136744979Y-122153564D01*
X135684319Y-121092904D01*
G37*
G36*
X133421578Y-123355645D02*
G01*
X134128684Y-122648539D01*
X135189344Y-123709199D01*
X134482238Y-124416305D01*
X133421578Y-123355645D01*
G37*
%TD*%
D10*
%TO.C,D35*%
X182394420Y-51158640D03*
X179194420Y-51158640D03*
X182394420Y-56058640D03*
X179194420Y-56058640D03*
%TD*%
D13*
%TO.C,SW1*%
X212184420Y-94378640D03*
X212184420Y-100678640D03*
X208384420Y-94378640D03*
X208384420Y-100678640D03*
%TD*%
D10*
%TO.C,D41*%
X83804420Y-65388640D03*
X87004420Y-65388640D03*
X83804420Y-60488640D03*
X87004420Y-60488640D03*
%TD*%
%TO.C,D39*%
X106314420Y-48418640D03*
X103114420Y-48418640D03*
X106314420Y-53318640D03*
X103114420Y-53318640D03*
%TD*%
%TO.C,D38*%
X185754420Y-119538640D03*
X182554420Y-119538640D03*
X185754420Y-124438640D03*
X182554420Y-124438640D03*
%TD*%
D11*
%TO.C,D3*%
X74509420Y-111776140D03*
X77659420Y-111776140D03*
%TD*%
%TO.C,D9*%
X115759420Y-54626140D03*
X112609420Y-54626140D03*
%TD*%
%TO.C,D20*%
X153859420Y-111776140D03*
X150709420Y-111776140D03*
%TD*%
%TO.C,D21*%
X150709420Y-135588640D03*
X153859420Y-135588640D03*
%TD*%
%TO.C,D22*%
X172909420Y-54626140D03*
X169759420Y-54626140D03*
%TD*%
%TO.C,D23*%
X169759420Y-73676140D03*
X172909420Y-73676140D03*
%TD*%
%TO.C,D24*%
X172909420Y-92726140D03*
X169759420Y-92726140D03*
%TD*%
%TO.C,D25*%
X169759420Y-111776140D03*
X172909420Y-111776140D03*
%TD*%
%TO.C,D26*%
X172909420Y-140351140D03*
X169759420Y-140351140D03*
%TD*%
%TO.C,D27*%
X188809420Y-59388640D03*
X191959420Y-59388640D03*
%TD*%
%TO.C,D28*%
X191959420Y-78438640D03*
X188809420Y-78438640D03*
%TD*%
%TO.C,D29*%
X188809420Y-97488640D03*
X191959420Y-97488640D03*
%TD*%
%TO.C,D31*%
X191959420Y-145113640D03*
X188809420Y-145113640D03*
%TD*%
%TO.C,D5*%
X93559420Y-54626140D03*
X96709420Y-54626140D03*
%TD*%
D12*
%TO.C,D30*%
G36*
X199539585Y-122414833D02*
G01*
X200388113Y-121566305D01*
X201236641Y-122414833D01*
X200388113Y-123263361D01*
X199539585Y-122414833D01*
G37*
G36*
X197312199Y-120187447D02*
G01*
X198160727Y-119338919D01*
X199009255Y-120187447D01*
X198160727Y-121035975D01*
X197312199Y-120187447D01*
G37*
%TD*%
D10*
%TO.C,D42*%
X87444420Y-107298640D03*
X84244420Y-107298640D03*
X87444420Y-112198640D03*
X84244420Y-112198640D03*
%TD*%
%TO.C,D43*%
X67174420Y-86948640D03*
X63974420Y-86948640D03*
X67174420Y-91848640D03*
X63974420Y-91848640D03*
%TD*%
D11*
%TO.C,D1*%
X77659420Y-73676140D03*
X74509420Y-73676140D03*
%TD*%
%TO.C,D2*%
X74509420Y-92726140D03*
X77659420Y-92726140D03*
%TD*%
%TO.C,D4*%
X55459420Y-102251140D03*
X58609420Y-102251140D03*
%TD*%
%TO.C,D6*%
X93559420Y-73676140D03*
X96709420Y-73676140D03*
%TD*%
%TO.C,D7*%
X96709420Y-92726140D03*
X93559420Y-92726140D03*
%TD*%
%TO.C,D8*%
X96709420Y-111776140D03*
X93559420Y-111776140D03*
%TD*%
%TO.C,D10*%
X112609420Y-73676140D03*
X115759420Y-73676140D03*
%TD*%
%TO.C,D11*%
X112609420Y-92726140D03*
X115759420Y-92726140D03*
%TD*%
%TO.C,D12*%
X115759420Y-111776140D03*
X112609420Y-111776140D03*
%TD*%
%TO.C,D13*%
X134809420Y-54626140D03*
X131659420Y-54626140D03*
%TD*%
%TO.C,D14*%
X131659420Y-73676140D03*
X134809420Y-73676140D03*
%TD*%
%TO.C,D15*%
X131659420Y-92726140D03*
X134809420Y-92726140D03*
%TD*%
%TO.C,D16*%
X134809420Y-111776140D03*
X131659420Y-111776140D03*
%TD*%
%TO.C,D17*%
X153859420Y-54626140D03*
X150709420Y-54626140D03*
%TD*%
%TO.C,D18*%
X150709420Y-73676140D03*
X153859420Y-73676140D03*
%TD*%
D14*
%TO.C,R1*%
X204595670Y-96068640D03*
X204595670Y-98768640D03*
%TD*%
M02*
