%TF.GenerationSoftware,KiCad,Pcbnew,5.1.9*%
%TF.CreationDate,2021-04-17T11:05:04+02:00*%
%TF.ProjectId,Crystal-Zeliska,43727973-7461-46c2-9d5a-656c69736b61,rev?*%
%TF.SameCoordinates,Original*%
%TF.FileFunction,Legend,Bot*%
%TF.FilePolarity,Positive*%
%FSLAX46Y46*%
G04 Gerber Fmt 4.6, Leading zero omitted, Abs format (unit mm)*
G04 Created by KiCad (PCBNEW 5.1.9) date 2021-04-17 11:05:04*
%MOMM*%
%LPD*%
G01*
G04 APERTURE LIST*
%ADD10C,0.200000*%
%ADD11C,0.150000*%
%ADD12C,0.120000*%
G04 APERTURE END LIST*
D10*
X217240536Y-105351042D02*
X217421346Y-105388192D01*
X217421346Y-105388192D02*
X217523766Y-105229855D01*
X217400045Y-105848603D02*
X217468104Y-105743387D01*
X217523766Y-105229855D02*
X217475172Y-105108669D01*
X217475172Y-105108669D02*
X217357854Y-105058473D01*
X216888822Y-104486774D02*
X217357857Y-104002276D01*
X217279896Y-105823915D02*
X217400045Y-105848603D01*
X217255997Y-105699805D02*
X217279896Y-105823915D01*
X217357854Y-105629503D02*
X217255997Y-105699805D01*
X217357854Y-106571807D02*
X217281216Y-106624704D01*
X219253506Y-107925713D02*
X219110360Y-108073577D01*
X219110360Y-108073577D02*
X218968852Y-108219750D01*
X218968852Y-108219750D02*
X218829515Y-108363681D01*
X218829515Y-108363681D02*
X218648031Y-108551149D01*
X218648031Y-108551149D02*
X218472617Y-108732346D01*
X218472617Y-108732346D02*
X218304539Y-108905966D01*
X218304539Y-108905966D02*
X218145059Y-109070704D01*
X218145059Y-109070704D02*
X217995443Y-109225253D01*
X217995443Y-109225253D02*
X217890464Y-109333694D01*
X217357854Y-106571807D02*
X217357854Y-106571807D01*
X217982797Y-103962766D02*
X218607963Y-104608547D01*
X217357854Y-105629503D02*
X217357854Y-105629503D01*
X217416510Y-106596904D02*
X217357854Y-106571807D01*
X217440806Y-106657494D02*
X217416510Y-106596904D01*
X217389598Y-106736659D02*
X217440806Y-106657494D01*
X217357854Y-104487524D02*
X217185133Y-104597239D01*
X217185133Y-104597239D02*
X217179049Y-104610936D01*
X217299198Y-106718084D02*
X217389598Y-106736659D01*
X217281216Y-106624704D02*
X217299198Y-106718084D01*
X217357857Y-108546320D02*
X219187441Y-106656417D01*
X223133057Y-105930353D02*
X222801692Y-105930353D01*
X223084957Y-105880683D02*
X223133057Y-105930353D01*
X217179049Y-104610936D02*
X217206463Y-104811997D01*
X217206463Y-104811997D02*
X217221002Y-104828805D01*
X217221002Y-104828805D02*
X217418239Y-104877381D01*
X217418239Y-104877381D02*
X217431918Y-104872141D01*
X217431918Y-104872141D02*
X217550165Y-104709944D01*
X217550165Y-104709944D02*
X217551391Y-104687441D01*
X211853211Y-105930381D02*
X211914191Y-105993370D01*
X217325873Y-101953972D02*
X221180261Y-105935435D01*
X211513265Y-105923480D02*
X211853211Y-105930381D01*
X211624153Y-106038025D02*
X211513265Y-105923480D01*
X217362795Y-108541110D02*
X217347455Y-108556949D01*
X217357857Y-108546320D02*
X215527167Y-106655278D01*
X222801692Y-105930353D02*
X222748752Y-105875663D01*
X217551391Y-104687441D02*
X217494706Y-104546077D01*
X217494706Y-104546077D02*
X217357854Y-104487524D01*
X216732272Y-103963432D02*
X216107275Y-104609035D01*
X221753821Y-107012280D02*
X226321041Y-107012280D01*
X217357859Y-108717808D02*
X214660838Y-105931870D01*
X212893652Y-104855052D02*
X213069068Y-104673853D01*
X208106295Y-104855052D02*
X212893652Y-104855052D01*
X215430225Y-105137115D02*
X215573370Y-104989250D01*
X215573370Y-104989250D02*
X215714878Y-104843077D01*
X215714878Y-104843077D02*
X215854215Y-104699146D01*
X215854215Y-104699146D02*
X216035700Y-104511678D01*
X216035700Y-104511678D02*
X216211114Y-104330481D01*
X216211114Y-104330481D02*
X216379192Y-104156861D01*
X216379192Y-104156861D02*
X216538672Y-103992123D01*
X216538672Y-103992123D02*
X216688288Y-103837574D01*
X216688288Y-103837574D02*
X216793268Y-103729134D01*
X216793268Y-103729134D02*
X216950949Y-103566254D01*
X216950949Y-103566254D02*
X217108096Y-103403926D01*
X217108096Y-103403926D02*
X217260301Y-103246702D01*
X217260301Y-103246702D02*
X217357859Y-103145929D01*
X216588471Y-103940683D02*
X215430225Y-105137115D01*
X217357859Y-103145929D02*
X217357859Y-103145929D01*
X221753818Y-108838824D02*
X220136869Y-110509783D01*
X216732272Y-103963432D02*
X217357857Y-103317222D01*
X217357857Y-103317222D02*
X217982797Y-103962766D01*
X215225429Y-105348664D02*
X215366818Y-105202612D01*
X215366818Y-105202612D02*
X215519019Y-105045393D01*
X215519019Y-105045393D02*
X215680767Y-104878313D01*
X215680767Y-104878313D02*
X215850797Y-104702676D01*
X215850797Y-104702676D02*
X216027847Y-104519789D01*
X216027847Y-104519789D02*
X216210652Y-104330957D01*
X216210652Y-104330957D02*
X216350772Y-104186218D01*
X216350772Y-104186218D02*
X216492885Y-104039420D01*
X216492885Y-104039420D02*
X216588471Y-103940683D01*
X220054880Y-105931870D02*
X219908147Y-106083439D01*
X219908147Y-106083439D02*
X219756720Y-106239859D01*
X219756720Y-106239859D02*
X219587747Y-106414401D01*
X219587747Y-106414401D02*
X219490289Y-106515073D01*
X221753818Y-107012252D02*
X218368390Y-110509783D01*
X212893640Y-103028498D02*
X214510589Y-101357539D01*
X219490289Y-106515073D02*
X219348899Y-106661124D01*
X219348899Y-106661124D02*
X219196698Y-106818343D01*
X219196698Y-106818343D02*
X219034950Y-106985423D01*
X219034950Y-106985423D02*
X218864920Y-107161060D01*
X218864920Y-107161060D02*
X218687870Y-107343947D01*
X218687870Y-107343947D02*
X218505065Y-107532779D01*
X218505065Y-107532779D02*
X218364945Y-107677519D01*
X218364945Y-107677519D02*
X218222831Y-107824317D01*
X218222831Y-107824317D02*
X218127246Y-107923055D01*
X212893640Y-104855071D02*
X216279068Y-101357539D01*
X226321041Y-107012280D02*
X221753821Y-107012280D01*
X217357859Y-103145929D02*
X220054880Y-105931870D01*
X219285493Y-106726622D02*
X219142347Y-106874486D01*
X219142347Y-106874486D02*
X219000839Y-107020660D01*
X219000839Y-107020660D02*
X218861502Y-107164591D01*
X218861502Y-107164591D02*
X218680017Y-107352059D01*
X218680017Y-107352059D02*
X218504603Y-107533256D01*
X218504603Y-107533256D02*
X218336525Y-107706876D01*
X218336525Y-107706876D02*
X218177045Y-107871613D01*
X218177045Y-107871613D02*
X218027429Y-108026162D01*
X218027429Y-108026162D02*
X217922450Y-108134603D01*
X216023808Y-111504208D02*
X215945482Y-111470694D01*
X217922450Y-108134603D02*
X217764768Y-108297482D01*
X217764768Y-108297482D02*
X217607621Y-108459810D01*
X217607621Y-108459810D02*
X217455416Y-108617034D01*
X217455416Y-108617034D02*
X217357859Y-108717808D01*
X218127246Y-107923055D02*
X219285493Y-106726622D01*
X214660838Y-105931870D02*
X214807570Y-105780299D01*
X214807570Y-105780299D02*
X214958997Y-105623879D01*
X214958997Y-105623879D02*
X215127970Y-105449335D01*
X215127970Y-105449335D02*
X215225429Y-105348664D01*
X217325873Y-101953972D02*
X217325873Y-101953972D01*
X216056251Y-111585115D02*
X216023808Y-111504208D01*
X219252627Y-107926622D02*
X219253506Y-107925713D01*
X213471485Y-105935435D02*
X213618217Y-105783865D01*
X213618217Y-105783865D02*
X213769645Y-105627445D01*
X213769645Y-105627445D02*
X213938617Y-105452901D01*
X213938617Y-105452901D02*
X214036076Y-105352230D01*
X217357857Y-104002276D02*
X217826970Y-104486857D01*
X215987872Y-111690828D02*
X216056251Y-111585115D01*
X215867157Y-111666023D02*
X215987872Y-111690828D01*
X215843145Y-111541328D02*
X215867157Y-111666023D01*
X215945482Y-111470694D02*
X215843145Y-111541328D01*
X221753821Y-107012280D02*
X221539881Y-107233273D01*
X213762705Y-108759481D02*
X216498148Y-111585115D01*
X214036076Y-105352230D02*
X214177465Y-105206179D01*
X214177465Y-105206179D02*
X214329666Y-105048960D01*
X214329666Y-105048960D02*
X214491414Y-104881880D01*
X214491414Y-104881880D02*
X214661445Y-104706244D01*
X214661445Y-104706244D02*
X214838495Y-104523357D01*
X214838495Y-104523357D02*
X215021300Y-104334525D01*
X215021300Y-104334525D02*
X215161420Y-104189785D01*
X215161420Y-104189785D02*
X215303533Y-104042987D01*
X215303533Y-104042987D02*
X215399119Y-103944250D01*
X215321704Y-111544734D02*
X215282610Y-111528006D01*
X215337897Y-111585115D02*
X215321704Y-111544734D01*
X217325873Y-109916899D02*
X213471485Y-105935435D01*
X215398239Y-103945158D02*
X215541384Y-103797293D01*
X215541384Y-103797293D02*
X215682892Y-103651120D01*
X215682892Y-103651120D02*
X215822229Y-103507189D01*
X215822229Y-103507189D02*
X216003714Y-103319721D01*
X216003714Y-103319721D02*
X216179127Y-103138524D01*
X216179127Y-103138524D02*
X216347206Y-102964904D01*
X216347206Y-102964904D02*
X216506686Y-102800166D01*
X216506686Y-102800166D02*
X216656302Y-102645617D01*
X216656302Y-102645617D02*
X216761282Y-102537177D01*
X215303767Y-111637878D02*
X215337897Y-111585115D01*
X215243516Y-111625498D02*
X215303767Y-111637878D01*
X215231532Y-111563261D02*
X215243516Y-111625498D01*
X215282610Y-111528006D02*
X215231532Y-111563261D01*
X216498148Y-111585115D02*
X213762967Y-114410479D01*
X215945482Y-111470694D02*
X215945482Y-111470694D01*
X215282610Y-111528006D02*
X215282610Y-111528006D01*
X214548752Y-111544592D02*
X214509522Y-111527806D01*
X214565002Y-111585115D02*
X214548752Y-111544592D01*
X214530753Y-111638062D02*
X214565002Y-111585115D01*
X214470292Y-111625639D02*
X214530753Y-111638062D01*
X214458266Y-111563184D02*
X214470292Y-111625639D01*
X214509522Y-111527806D02*
X214458266Y-111563184D01*
X217204571Y-105164270D02*
X217240536Y-105351042D01*
X217357854Y-104487524D02*
X217357854Y-104487524D01*
X217357854Y-105058473D02*
X217204571Y-105164270D01*
X216761282Y-102537177D02*
X216918962Y-102374297D01*
X216918962Y-102374297D02*
X217076109Y-102211969D01*
X217076109Y-102211969D02*
X217228315Y-102054745D01*
X217228315Y-102054745D02*
X217325873Y-101953972D01*
X214509522Y-111527806D02*
X214509522Y-111527806D01*
X220891253Y-97450091D02*
X218155810Y-100275725D01*
X218630150Y-100194817D02*
X218708476Y-100161304D01*
X218597707Y-100275725D02*
X218630150Y-100194817D01*
X215399119Y-103944250D02*
X215398239Y-103945158D01*
X217890464Y-109333694D02*
X217732782Y-109496573D01*
X217732782Y-109496573D02*
X217575635Y-109658901D01*
X217575635Y-109658901D02*
X217423430Y-109816125D01*
X217423430Y-109816125D02*
X217325873Y-109916899D01*
X218666086Y-100381437D02*
X218597707Y-100275725D01*
X218786801Y-100356633D02*
X218666086Y-100381437D01*
X218810813Y-100231938D02*
X218786801Y-100356633D01*
X218708476Y-100161304D02*
X218810813Y-100231938D01*
X218155810Y-100275725D02*
X220890990Y-103101088D01*
X218708476Y-100161304D02*
X218708476Y-100161304D01*
X219332254Y-100235343D02*
X219371348Y-100218616D01*
X219316061Y-100275725D02*
X219332254Y-100235343D01*
X219350191Y-100328488D02*
X219316061Y-100275725D01*
X219410442Y-100316108D02*
X219350191Y-100328488D01*
X219422426Y-100253870D02*
X219410442Y-100316108D01*
X219371348Y-100218616D02*
X219422426Y-100253870D01*
X220144436Y-100218416D02*
X220195692Y-100253794D01*
X220144436Y-100218416D02*
X220144436Y-100218416D01*
X219371348Y-100218616D02*
X219371348Y-100218616D01*
X220105206Y-100235202D02*
X220144436Y-100218416D01*
X220088956Y-100275725D02*
X220105206Y-100235202D01*
X220123205Y-100328672D02*
X220088956Y-100275725D01*
X220183666Y-100316249D02*
X220123205Y-100328672D01*
X220195692Y-100253794D02*
X220183666Y-100316249D01*
X212638733Y-116428364D02*
X217327446Y-111585070D01*
X217659026Y-100275640D02*
X223084957Y-105880683D01*
X222347629Y-95432460D02*
X217659026Y-100275640D01*
X212638733Y-116428469D02*
X212753696Y-116309709D01*
X212306211Y-116428820D02*
X212638733Y-116428469D01*
X217468104Y-105743387D02*
X217435812Y-105662859D01*
X217435812Y-105662859D02*
X217357854Y-105629503D01*
X212478510Y-116250842D02*
X212306211Y-116428820D01*
X216995362Y-111585070D02*
X212306211Y-116428813D01*
X217327446Y-111585070D02*
X211914190Y-105993339D01*
X217357854Y-105058473D02*
X217357854Y-105058473D01*
X222234501Y-95549308D02*
X222347628Y-95432453D01*
X217327445Y-100275690D02*
X222748736Y-105875715D01*
X222016323Y-95432225D02*
X217327445Y-100275690D01*
X222347628Y-95432453D02*
X222016323Y-95432225D01*
X211513268Y-105923479D02*
X217003201Y-111588301D01*
X217327446Y-111585070D02*
X216995362Y-111585070D01*
X221180261Y-105935435D02*
X221033528Y-106087005D01*
X221033528Y-106087005D02*
X220882100Y-106243424D01*
X220882100Y-106243424D02*
X220713128Y-106417968D01*
X220713128Y-106417968D02*
X220615670Y-106518640D01*
X217327446Y-100275640D02*
X217659026Y-100275640D01*
X220615670Y-106518640D02*
X220474279Y-106664691D01*
X220474279Y-106664691D02*
X220322079Y-106821910D01*
X220322079Y-106821910D02*
X220160331Y-106988991D01*
X220160331Y-106988991D02*
X219990300Y-107164627D01*
X219990300Y-107164627D02*
X219813250Y-107347514D01*
X219813250Y-107347514D02*
X219630445Y-107536346D01*
X219630445Y-107536346D02*
X219490325Y-107681086D01*
X219490325Y-107681086D02*
X219348212Y-107827884D01*
X219348212Y-107827884D02*
X219252627Y-107926622D01*
D11*
X198300551Y-108774354D02*
X198300551Y-107345782D01*
X196871980Y-108393401D02*
X196729122Y-108441020D01*
X196491027Y-108441020D01*
X196395789Y-108393401D01*
X196348170Y-108345782D01*
X196300551Y-108250544D01*
X196300551Y-108155306D01*
X196348170Y-108060068D01*
X196395789Y-108012449D01*
X196491027Y-107964830D01*
X196681503Y-107917211D01*
X196776742Y-107869592D01*
X196824361Y-107821973D01*
X196871980Y-107726735D01*
X196871980Y-107631497D01*
X196824361Y-107536259D01*
X196776742Y-107488640D01*
X196681503Y-107441020D01*
X196443408Y-107441020D01*
X196300551Y-107488640D01*
X195443408Y-108393401D02*
X195538646Y-108441020D01*
X195729122Y-108441020D01*
X195824361Y-108393401D01*
X195871980Y-108345782D01*
X195919599Y-108250544D01*
X195919599Y-107964830D01*
X195871980Y-107869592D01*
X195824361Y-107821973D01*
X195729122Y-107774354D01*
X195538646Y-107774354D01*
X195443408Y-107821973D01*
X194586265Y-108441020D02*
X194586265Y-107917211D01*
X194633884Y-107821973D01*
X194729122Y-107774354D01*
X194919599Y-107774354D01*
X195014837Y-107821973D01*
X194586265Y-108393401D02*
X194681503Y-108441020D01*
X194919599Y-108441020D01*
X195014837Y-108393401D01*
X195062456Y-108298163D01*
X195062456Y-108202925D01*
X195014837Y-108107687D01*
X194919599Y-108060068D01*
X194681503Y-108060068D01*
X194586265Y-108012449D01*
X194252932Y-107774354D02*
X193871980Y-107774354D01*
X194110075Y-107441020D02*
X194110075Y-108298163D01*
X194062456Y-108393401D01*
X193967218Y-108441020D01*
X193871980Y-108441020D01*
X193681503Y-107774354D02*
X193300551Y-107774354D01*
X193538646Y-107441020D02*
X193538646Y-108298163D01*
X193491027Y-108393401D01*
X193395789Y-108441020D01*
X193300551Y-108441020D01*
X192586265Y-108393401D02*
X192681503Y-108441020D01*
X192871980Y-108441020D01*
X192967218Y-108393401D01*
X193014837Y-108298163D01*
X193014837Y-107917211D01*
X192967218Y-107821973D01*
X192871980Y-107774354D01*
X192681503Y-107774354D01*
X192586265Y-107821973D01*
X192538646Y-107917211D01*
X192538646Y-108012449D01*
X193014837Y-108107687D01*
X192110075Y-108441020D02*
X192110075Y-107774354D01*
X192110075Y-107964830D02*
X192062456Y-107869592D01*
X192014837Y-107821973D01*
X191919599Y-107774354D01*
X191824361Y-107774354D01*
X191110075Y-108393401D02*
X191205313Y-108441020D01*
X191395789Y-108441020D01*
X191491027Y-108393401D01*
X191538646Y-108298163D01*
X191538646Y-107917211D01*
X191491027Y-107821973D01*
X191395789Y-107774354D01*
X191205313Y-107774354D01*
X191110075Y-107821973D01*
X191062456Y-107917211D01*
X191062456Y-108012449D01*
X191538646Y-108107687D01*
X190205313Y-108441020D02*
X190205313Y-107441020D01*
X190205313Y-108393401D02*
X190300551Y-108441020D01*
X190491027Y-108441020D01*
X190586265Y-108393401D01*
X190633884Y-108345782D01*
X190681503Y-108250544D01*
X190681503Y-107964830D01*
X190633884Y-107869592D01*
X190586265Y-107821973D01*
X190491027Y-107774354D01*
X190300551Y-107774354D01*
X190205313Y-107821973D01*
X189729122Y-108441020D02*
X189729122Y-107441020D01*
X189491027Y-107441020D01*
X189348170Y-107488640D01*
X189252932Y-107583878D01*
X189205313Y-107679116D01*
X189157694Y-107869592D01*
X189157694Y-108012449D01*
X189205313Y-108202925D01*
X189252932Y-108298163D01*
X189348170Y-108393401D01*
X189491027Y-108441020D01*
X189729122Y-108441020D01*
X188729122Y-108441020D02*
X188729122Y-107774354D01*
X188729122Y-107964830D02*
X188681503Y-107869592D01*
X188633884Y-107821973D01*
X188538646Y-107774354D01*
X188443408Y-107774354D01*
X188110075Y-108441020D02*
X188110075Y-107774354D01*
X188110075Y-107441020D02*
X188157694Y-107488640D01*
X188110075Y-107536259D01*
X188062456Y-107488640D01*
X188110075Y-107441020D01*
X188110075Y-107536259D01*
X187776742Y-107774354D02*
X187395789Y-107774354D01*
X187633884Y-108441020D02*
X187633884Y-107583878D01*
X187586265Y-107488640D01*
X187491027Y-107441020D01*
X187395789Y-107441020D01*
X187205313Y-107774354D02*
X186824361Y-107774354D01*
X187062456Y-107441020D02*
X187062456Y-108298163D01*
X187014837Y-108393401D01*
X186919599Y-108441020D01*
X186824361Y-108441020D01*
X186110075Y-108393401D02*
X186205313Y-108441020D01*
X186395789Y-108441020D01*
X186491027Y-108393401D01*
X186538646Y-108298163D01*
X186538646Y-107917211D01*
X186491027Y-107821973D01*
X186395789Y-107774354D01*
X186205313Y-107774354D01*
X186110075Y-107821973D01*
X186062456Y-107917211D01*
X186062456Y-108012449D01*
X186538646Y-108107687D01*
X185633884Y-108441020D02*
X185633884Y-107774354D01*
X185633884Y-107964830D02*
X185586265Y-107869592D01*
X185538646Y-107821973D01*
X185443408Y-107774354D01*
X185348170Y-107774354D01*
X198300551Y-110424354D02*
X198300551Y-108995782D01*
X196491027Y-109567211D02*
X196824361Y-109567211D01*
X196824361Y-110091020D02*
X196824361Y-109091020D01*
X196348170Y-109091020D01*
X195538646Y-110091020D02*
X195538646Y-109567211D01*
X195586265Y-109471973D01*
X195681503Y-109424354D01*
X195871980Y-109424354D01*
X195967218Y-109471973D01*
X195538646Y-110043401D02*
X195633884Y-110091020D01*
X195871980Y-110091020D01*
X195967218Y-110043401D01*
X196014837Y-109948163D01*
X196014837Y-109852925D01*
X195967218Y-109757687D01*
X195871980Y-109710068D01*
X195633884Y-109710068D01*
X195538646Y-109662449D01*
X195062456Y-110091020D02*
X195062456Y-109091020D01*
X195062456Y-109471973D02*
X194967218Y-109424354D01*
X194776742Y-109424354D01*
X194681503Y-109471973D01*
X194633884Y-109519592D01*
X194586265Y-109614830D01*
X194586265Y-109900544D01*
X194633884Y-109995782D01*
X194681503Y-110043401D01*
X194776742Y-110091020D01*
X194967218Y-110091020D01*
X195062456Y-110043401D01*
X194157694Y-110091020D02*
X194157694Y-109424354D01*
X194157694Y-109091020D02*
X194205313Y-109138640D01*
X194157694Y-109186259D01*
X194110075Y-109138640D01*
X194157694Y-109091020D01*
X194157694Y-109186259D01*
X193252932Y-110091020D02*
X193252932Y-109567211D01*
X193300551Y-109471973D01*
X193395789Y-109424354D01*
X193586265Y-109424354D01*
X193681503Y-109471973D01*
X193252932Y-110043401D02*
X193348170Y-110091020D01*
X193586265Y-110091020D01*
X193681503Y-110043401D01*
X193729122Y-109948163D01*
X193729122Y-109852925D01*
X193681503Y-109757687D01*
X193586265Y-109710068D01*
X193348170Y-109710068D01*
X193252932Y-109662449D01*
X192776742Y-109424354D02*
X192776742Y-110091020D01*
X192776742Y-109519592D02*
X192729122Y-109471973D01*
X192633884Y-109424354D01*
X192491027Y-109424354D01*
X192395789Y-109471973D01*
X192348170Y-109567211D01*
X192348170Y-110091020D01*
X191157694Y-110043401D02*
X191014837Y-110091020D01*
X190776742Y-110091020D01*
X190681503Y-110043401D01*
X190633884Y-109995782D01*
X190586265Y-109900544D01*
X190586265Y-109805306D01*
X190633884Y-109710068D01*
X190681503Y-109662449D01*
X190776742Y-109614830D01*
X190967218Y-109567211D01*
X191062456Y-109519592D01*
X191110075Y-109471973D01*
X191157694Y-109376735D01*
X191157694Y-109281497D01*
X191110075Y-109186259D01*
X191062456Y-109138640D01*
X190967218Y-109091020D01*
X190729122Y-109091020D01*
X190586265Y-109138640D01*
X190157694Y-109995782D02*
X190110075Y-110043401D01*
X190157694Y-110091020D01*
X190205313Y-110043401D01*
X190157694Y-109995782D01*
X190157694Y-110091020D01*
X198300551Y-112074354D02*
X198300551Y-110645782D01*
X196871980Y-110836259D02*
X196824361Y-110788640D01*
X196729122Y-110741020D01*
X196491027Y-110741020D01*
X196395789Y-110788640D01*
X196348170Y-110836259D01*
X196300551Y-110931497D01*
X196300551Y-111026735D01*
X196348170Y-111169592D01*
X196919599Y-111741020D01*
X196300551Y-111741020D01*
X195681503Y-110741020D02*
X195586265Y-110741020D01*
X195491027Y-110788640D01*
X195443408Y-110836259D01*
X195395789Y-110931497D01*
X195348170Y-111121973D01*
X195348170Y-111360068D01*
X195395789Y-111550544D01*
X195443408Y-111645782D01*
X195491027Y-111693401D01*
X195586265Y-111741020D01*
X195681503Y-111741020D01*
X195776742Y-111693401D01*
X195824361Y-111645782D01*
X195871980Y-111550544D01*
X195919599Y-111360068D01*
X195919599Y-111121973D01*
X195871980Y-110931497D01*
X195824361Y-110836259D01*
X195776742Y-110788640D01*
X195681503Y-110741020D01*
X194967218Y-110836259D02*
X194919599Y-110788640D01*
X194824361Y-110741020D01*
X194586265Y-110741020D01*
X194491027Y-110788640D01*
X194443408Y-110836259D01*
X194395789Y-110931497D01*
X194395789Y-111026735D01*
X194443408Y-111169592D01*
X195014837Y-111741020D01*
X194395789Y-111741020D01*
X193443408Y-111741020D02*
X194014837Y-111741020D01*
X193729122Y-111741020D02*
X193729122Y-110741020D01*
X193824361Y-110883878D01*
X193919599Y-110979116D01*
X194014837Y-111026735D01*
D10*
%TO.C,D6*%
X92869420Y-74881140D02*
X92869420Y-72481140D01*
X92694420Y-74881140D02*
X92694420Y-72481140D01*
X92519420Y-74881140D02*
X92519420Y-72481140D01*
X92119420Y-72481140D02*
X92119420Y-74881140D01*
X92344420Y-74881140D02*
X92344420Y-72481140D01*
X92219420Y-74881140D02*
X92219420Y-72481140D01*
X92144420Y-74881140D02*
X97944420Y-74881140D01*
X97944420Y-74881140D02*
X97944420Y-72481140D01*
X97944420Y-72481140D02*
X92144420Y-72481140D01*
%TO.C,D28*%
X193194420Y-77238640D02*
X187394420Y-77238640D01*
X193194420Y-79638640D02*
X193194420Y-77238640D01*
X187394420Y-79638640D02*
X193194420Y-79638640D01*
X187469420Y-79638640D02*
X187469420Y-77238640D01*
X187594420Y-79638640D02*
X187594420Y-77238640D01*
X187369420Y-77238640D02*
X187369420Y-79638640D01*
X187769420Y-79638640D02*
X187769420Y-77238640D01*
X187944420Y-79638640D02*
X187944420Y-77238640D01*
X188119420Y-79638640D02*
X188119420Y-77238640D01*
%TO.C,D29*%
X188099420Y-98688640D02*
X188099420Y-96288640D01*
X187924420Y-98688640D02*
X187924420Y-96288640D01*
X187749420Y-98688640D02*
X187749420Y-96288640D01*
X187349420Y-96288640D02*
X187349420Y-98688640D01*
X187574420Y-98688640D02*
X187574420Y-96288640D01*
X187449420Y-98688640D02*
X187449420Y-96288640D01*
X187374420Y-98688640D02*
X193174420Y-98688640D01*
X193174420Y-98688640D02*
X193174420Y-96288640D01*
X193174420Y-96288640D02*
X187374420Y-96288640D01*
D11*
%TO.C,K26*%
X164334420Y-128588640D02*
X165334420Y-128588640D01*
X177334420Y-128588640D02*
X178334420Y-128588640D01*
X178334420Y-128588640D02*
X178334420Y-129588640D01*
X178334420Y-142588640D02*
X177334420Y-142588640D01*
X178334420Y-141588640D02*
X178334420Y-142588640D01*
X165334420Y-142588640D02*
X164334420Y-142588640D01*
X164334420Y-142588640D02*
X164334420Y-141588640D01*
X164334420Y-129588640D02*
X164334420Y-128588640D01*
D10*
%TO.C,D1*%
X78884420Y-72481140D02*
X73084420Y-72481140D01*
X78884420Y-74881140D02*
X78884420Y-72481140D01*
X73084420Y-74881140D02*
X78884420Y-74881140D01*
X73159420Y-74881140D02*
X73159420Y-72481140D01*
X73284420Y-74881140D02*
X73284420Y-72481140D01*
X73059420Y-72481140D02*
X73059420Y-74881140D01*
X73459420Y-74881140D02*
X73459420Y-72481140D01*
X73634420Y-74881140D02*
X73634420Y-72481140D01*
X73809420Y-74881140D02*
X73809420Y-72481140D01*
%TO.C,D9*%
X116984420Y-53421140D02*
X111184420Y-53421140D01*
X116984420Y-55821140D02*
X116984420Y-53421140D01*
X111184420Y-55821140D02*
X116984420Y-55821140D01*
X111259420Y-55821140D02*
X111259420Y-53421140D01*
X111384420Y-55821140D02*
X111384420Y-53421140D01*
X111159420Y-53421140D02*
X111159420Y-55821140D01*
X111559420Y-55821140D02*
X111559420Y-53421140D01*
X111734420Y-55821140D02*
X111734420Y-53421140D01*
X111909420Y-55821140D02*
X111909420Y-53421140D01*
%TO.C,D24*%
X174134420Y-91531140D02*
X168334420Y-91531140D01*
X174134420Y-93931140D02*
X174134420Y-91531140D01*
X168334420Y-93931140D02*
X174134420Y-93931140D01*
X168409420Y-93931140D02*
X168409420Y-91531140D01*
X168534420Y-93931140D02*
X168534420Y-91531140D01*
X168309420Y-91531140D02*
X168309420Y-93931140D01*
X168709420Y-93931140D02*
X168709420Y-91531140D01*
X168884420Y-93931140D02*
X168884420Y-91531140D01*
X169059420Y-93931140D02*
X169059420Y-91531140D01*
%TO.C,D15*%
X130959420Y-93918640D02*
X130959420Y-91518640D01*
X130784420Y-93918640D02*
X130784420Y-91518640D01*
X130609420Y-93918640D02*
X130609420Y-91518640D01*
X130209420Y-91518640D02*
X130209420Y-93918640D01*
X130434420Y-93918640D02*
X130434420Y-91518640D01*
X130309420Y-93918640D02*
X130309420Y-91518640D01*
X130234420Y-93918640D02*
X136034420Y-93918640D01*
X136034420Y-93918640D02*
X136034420Y-91518640D01*
X136034420Y-91518640D02*
X130234420Y-91518640D01*
D11*
%TO.C,K1*%
X69084420Y-62913640D02*
X69084420Y-61913640D01*
X69084420Y-75913640D02*
X69084420Y-74913640D01*
X70084420Y-75913640D02*
X69084420Y-75913640D01*
X83084420Y-74913640D02*
X83084420Y-75913640D01*
X83084420Y-75913640D02*
X82084420Y-75913640D01*
X83084420Y-61913640D02*
X83084420Y-62913640D01*
X82084420Y-61913640D02*
X83084420Y-61913640D01*
X69084420Y-61913640D02*
X70084420Y-61913640D01*
D10*
%TO.C,D13*%
X136034420Y-53421140D02*
X130234420Y-53421140D01*
X136034420Y-55821140D02*
X136034420Y-53421140D01*
X130234420Y-55821140D02*
X136034420Y-55821140D01*
X130309420Y-55821140D02*
X130309420Y-53421140D01*
X130434420Y-55821140D02*
X130434420Y-53421140D01*
X130209420Y-53421140D02*
X130209420Y-55821140D01*
X130609420Y-55821140D02*
X130609420Y-53421140D01*
X130784420Y-55821140D02*
X130784420Y-53421140D01*
X130959420Y-55821140D02*
X130959420Y-53421140D01*
%TO.C,D19*%
X155084420Y-91511140D02*
X149284420Y-91511140D01*
X155084420Y-93911140D02*
X155084420Y-91511140D01*
X149284420Y-93911140D02*
X155084420Y-93911140D01*
X149359420Y-93911140D02*
X149359420Y-91511140D01*
X149484420Y-93911140D02*
X149484420Y-91511140D01*
X149259420Y-91511140D02*
X149259420Y-93911140D01*
X149659420Y-93911140D02*
X149659420Y-91511140D01*
X149834420Y-93911140D02*
X149834420Y-91511140D01*
X150009420Y-93911140D02*
X150009420Y-91511140D01*
%TO.C,D7*%
X97944420Y-91511140D02*
X92144420Y-91511140D01*
X97944420Y-93911140D02*
X97944420Y-91511140D01*
X92144420Y-93911140D02*
X97944420Y-93911140D01*
X92219420Y-93911140D02*
X92219420Y-91511140D01*
X92344420Y-93911140D02*
X92344420Y-91511140D01*
X92119420Y-91511140D02*
X92119420Y-93911140D01*
X92519420Y-93911140D02*
X92519420Y-91511140D01*
X92694420Y-93911140D02*
X92694420Y-91511140D01*
X92869420Y-93911140D02*
X92869420Y-91511140D01*
%TO.C,D2*%
X73809420Y-93921140D02*
X73809420Y-91521140D01*
X73634420Y-93921140D02*
X73634420Y-91521140D01*
X73459420Y-93921140D02*
X73459420Y-91521140D01*
X73059420Y-91521140D02*
X73059420Y-93921140D01*
X73284420Y-93921140D02*
X73284420Y-91521140D01*
X73159420Y-93921140D02*
X73159420Y-91521140D01*
X73084420Y-93921140D02*
X78884420Y-93921140D01*
X78884420Y-93921140D02*
X78884420Y-91521140D01*
X78884420Y-91521140D02*
X73084420Y-91521140D01*
D12*
%TO.C,D39*%
X101674420Y-50108640D02*
X102824420Y-50108640D01*
X101674420Y-57408640D02*
X101674420Y-50108640D01*
X107174420Y-57408640D02*
X107174420Y-50108640D01*
D11*
%TO.C,K2*%
X69084420Y-81963640D02*
X69084420Y-80963640D01*
X69084420Y-94963640D02*
X69084420Y-93963640D01*
X70084420Y-94963640D02*
X69084420Y-94963640D01*
X83084420Y-93963640D02*
X83084420Y-94963640D01*
X83084420Y-94963640D02*
X82084420Y-94963640D01*
X83084420Y-80963640D02*
X83084420Y-81963640D01*
X82084420Y-80963640D02*
X83084420Y-80963640D01*
X69084420Y-80963640D02*
X70084420Y-80963640D01*
D10*
%TO.C,D10*%
X111909420Y-74891140D02*
X111909420Y-72491140D01*
X111734420Y-74891140D02*
X111734420Y-72491140D01*
X111559420Y-74891140D02*
X111559420Y-72491140D01*
X111159420Y-72491140D02*
X111159420Y-74891140D01*
X111384420Y-74891140D02*
X111384420Y-72491140D01*
X111259420Y-74891140D02*
X111259420Y-72491140D01*
X111184420Y-74891140D02*
X116984420Y-74891140D01*
X116984420Y-74891140D02*
X116984420Y-72491140D01*
X116984420Y-72491140D02*
X111184420Y-72491140D01*
%TO.C,D14*%
X130959420Y-74881140D02*
X130959420Y-72481140D01*
X130784420Y-74881140D02*
X130784420Y-72481140D01*
X130609420Y-74881140D02*
X130609420Y-72481140D01*
X130209420Y-72481140D02*
X130209420Y-74881140D01*
X130434420Y-74881140D02*
X130434420Y-72481140D01*
X130309420Y-74881140D02*
X130309420Y-72481140D01*
X130234420Y-74881140D02*
X136034420Y-74881140D01*
X136034420Y-74881140D02*
X136034420Y-72481140D01*
X136034420Y-72481140D02*
X130234420Y-72481140D01*
%TO.C,D18*%
X149984420Y-74848640D02*
X149984420Y-72448640D01*
X149809420Y-74848640D02*
X149809420Y-72448640D01*
X149634420Y-74848640D02*
X149634420Y-72448640D01*
X149234420Y-72448640D02*
X149234420Y-74848640D01*
X149459420Y-74848640D02*
X149459420Y-72448640D01*
X149334420Y-74848640D02*
X149334420Y-72448640D01*
X149259420Y-74848640D02*
X155059420Y-74848640D01*
X155059420Y-74848640D02*
X155059420Y-72448640D01*
X155059420Y-72448640D02*
X149259420Y-72448640D01*
D11*
%TO.C,K3*%
X69084420Y-100013640D02*
X70084420Y-100013640D01*
X82084420Y-100013640D02*
X83084420Y-100013640D01*
X83084420Y-100013640D02*
X83084420Y-101013640D01*
X83084420Y-114013640D02*
X82084420Y-114013640D01*
X83084420Y-113013640D02*
X83084420Y-114013640D01*
X70084420Y-114013640D02*
X69084420Y-114013640D01*
X69084420Y-114013640D02*
X69084420Y-113013640D01*
X69084420Y-101013640D02*
X69084420Y-100013640D01*
%TO.C,K11*%
X107184420Y-81963640D02*
X107184420Y-80963640D01*
X107184420Y-94963640D02*
X107184420Y-93963640D01*
X108184420Y-94963640D02*
X107184420Y-94963640D01*
X121184420Y-93963640D02*
X121184420Y-94963640D01*
X121184420Y-94963640D02*
X120184420Y-94963640D01*
X121184420Y-80963640D02*
X121184420Y-81963640D01*
X120184420Y-80963640D02*
X121184420Y-80963640D01*
X107184420Y-80963640D02*
X108184420Y-80963640D01*
%TO.C,U1*%
X223444420Y-46498640D02*
X223444420Y-76978640D01*
X218364420Y-46498640D02*
X223444420Y-46498640D01*
X218364420Y-43958640D02*
X218364420Y-46498640D01*
X210744420Y-43958640D02*
X218364420Y-43958640D01*
X210744420Y-46498640D02*
X210744420Y-43958640D01*
X205664420Y-46498640D02*
X210744420Y-46498640D01*
X205664420Y-76978640D02*
X205664420Y-46498640D01*
X223444420Y-76978640D02*
X205664420Y-76978640D01*
D10*
%TO.C,D22*%
X174134420Y-53421140D02*
X168334420Y-53421140D01*
X174134420Y-55821140D02*
X174134420Y-53421140D01*
X168334420Y-55821140D02*
X174134420Y-55821140D01*
X168409420Y-55821140D02*
X168409420Y-53421140D01*
X168534420Y-55821140D02*
X168534420Y-53421140D01*
X168309420Y-53421140D02*
X168309420Y-55821140D01*
X168709420Y-55821140D02*
X168709420Y-53421140D01*
X168884420Y-55821140D02*
X168884420Y-53421140D01*
X169059420Y-55821140D02*
X169059420Y-53421140D01*
%TO.C,D15*%
X111909420Y-93928640D02*
X111909420Y-91528640D01*
X111734420Y-93928640D02*
X111734420Y-91528640D01*
X111559420Y-93928640D02*
X111559420Y-91528640D01*
X111159420Y-91528640D02*
X111159420Y-93928640D01*
X111384420Y-93928640D02*
X111384420Y-91528640D01*
X111259420Y-93928640D02*
X111259420Y-91528640D01*
X111184420Y-93928640D02*
X116984420Y-93928640D01*
X116984420Y-93928640D02*
X116984420Y-91528640D01*
X116984420Y-91528640D02*
X111184420Y-91528640D01*
%TO.C,D23*%
X169059420Y-74881140D02*
X169059420Y-72481140D01*
X168884420Y-74881140D02*
X168884420Y-72481140D01*
X168709420Y-74881140D02*
X168709420Y-72481140D01*
X168309420Y-72481140D02*
X168309420Y-74881140D01*
X168534420Y-74881140D02*
X168534420Y-72481140D01*
X168409420Y-74881140D02*
X168409420Y-72481140D01*
X168334420Y-74881140D02*
X174134420Y-74881140D01*
X174134420Y-74881140D02*
X174134420Y-72481140D01*
X174134420Y-72481140D02*
X168334420Y-72481140D01*
%TO.C,D21*%
X150009420Y-136788640D02*
X150009420Y-134388640D01*
X149834420Y-136788640D02*
X149834420Y-134388640D01*
X149659420Y-136788640D02*
X149659420Y-134388640D01*
X149259420Y-134388640D02*
X149259420Y-136788640D01*
X149484420Y-136788640D02*
X149484420Y-134388640D01*
X149359420Y-136788640D02*
X149359420Y-134388640D01*
X149284420Y-136788640D02*
X155084420Y-136788640D01*
X155084420Y-136788640D02*
X155084420Y-134388640D01*
X155084420Y-134388640D02*
X149284420Y-134388640D01*
%TO.C,D3*%
X73809420Y-112978640D02*
X73809420Y-110578640D01*
X73634420Y-112978640D02*
X73634420Y-110578640D01*
X73459420Y-112978640D02*
X73459420Y-110578640D01*
X73059420Y-110578640D02*
X73059420Y-112978640D01*
X73284420Y-112978640D02*
X73284420Y-110578640D01*
X73159420Y-112978640D02*
X73159420Y-110578640D01*
X73084420Y-112978640D02*
X78884420Y-112978640D01*
X78884420Y-112978640D02*
X78884420Y-110578640D01*
X78884420Y-110578640D02*
X73084420Y-110578640D01*
%TO.C,D8*%
X97944420Y-110578640D02*
X92144420Y-110578640D01*
X97944420Y-112978640D02*
X97944420Y-110578640D01*
X92144420Y-112978640D02*
X97944420Y-112978640D01*
X92219420Y-112978640D02*
X92219420Y-110578640D01*
X92344420Y-112978640D02*
X92344420Y-110578640D01*
X92119420Y-110578640D02*
X92119420Y-112978640D01*
X92519420Y-112978640D02*
X92519420Y-110578640D01*
X92694420Y-112978640D02*
X92694420Y-110578640D01*
X92869420Y-112978640D02*
X92869420Y-110578640D01*
%TO.C,D5*%
X92859420Y-55831140D02*
X92859420Y-53431140D01*
X92684420Y-55831140D02*
X92684420Y-53431140D01*
X92509420Y-55831140D02*
X92509420Y-53431140D01*
X92109420Y-53431140D02*
X92109420Y-55831140D01*
X92334420Y-55831140D02*
X92334420Y-53431140D01*
X92209420Y-55831140D02*
X92209420Y-53431140D01*
X92134420Y-55831140D02*
X97934420Y-55831140D01*
X97934420Y-55831140D02*
X97934420Y-53431140D01*
X97934420Y-53431140D02*
X92134420Y-53431140D01*
D11*
%TO.C,U2*%
X226004420Y-86548640D02*
X226004420Y-92648640D01*
X213904420Y-86548640D02*
X213904420Y-92648640D01*
X226004420Y-86548640D02*
X213904420Y-86548640D01*
X226004420Y-92648640D02*
X213904420Y-92648640D01*
X226004420Y-86798640D02*
X228004420Y-86798640D01*
X226004420Y-92398640D02*
X228004420Y-92398640D01*
X228004420Y-86798640D02*
X228004420Y-92398640D01*
D12*
%TO.C,SW1*%
X211624420Y-98758640D02*
X211624420Y-96258640D01*
X209874420Y-100258640D02*
X207874420Y-100258640D01*
X206124420Y-98758640D02*
X206124420Y-96258640D01*
X209874420Y-94758640D02*
X207874420Y-94758640D01*
X211174420Y-99208640D02*
X211624420Y-98758640D01*
X211174420Y-95808640D02*
X211624420Y-96258640D01*
X206574420Y-95808640D02*
X206124420Y-96258640D01*
X206574420Y-99208640D02*
X206124420Y-98758640D01*
D11*
%TO.C,U1*%
X208224420Y-78438640D02*
X226004420Y-78438640D01*
X208224420Y-47958640D02*
X208224420Y-78438640D01*
X213304420Y-47958640D02*
X208224420Y-47958640D01*
X213304420Y-45418640D02*
X213304420Y-47958640D01*
X220924420Y-45418640D02*
X213304420Y-45418640D01*
X220924420Y-47958640D02*
X220924420Y-45418640D01*
X226004420Y-47958640D02*
X220924420Y-47958640D01*
X226004420Y-47958640D02*
X226004420Y-78438640D01*
D12*
%TO.C,D35*%
X177564420Y-46838640D02*
X178714420Y-46838640D01*
X177564420Y-54138640D02*
X177564420Y-46838640D01*
X183064420Y-54138640D02*
X183064420Y-46838640D01*
%TO.C,D37*%
X139654420Y-47368640D02*
X139654420Y-54668640D01*
X145154420Y-47368640D02*
X145154420Y-54668640D01*
X145154420Y-54668640D02*
X144004420Y-54668640D01*
%TO.C,D38*%
X181404420Y-123238640D02*
X181404420Y-130538640D01*
X186904420Y-123238640D02*
X186904420Y-130538640D01*
X186904420Y-130538640D02*
X185754420Y-130538640D01*
%TO.C,D40*%
X132598937Y-123502244D02*
X133412109Y-122689071D01*
X137760816Y-128664123D02*
X132598937Y-123502244D01*
X141649903Y-124775036D02*
X136488024Y-119613157D01*
%TO.C,D41*%
X88154420Y-69588640D02*
X88154420Y-62288640D01*
X82654420Y-69588640D02*
X82654420Y-62288640D01*
X82654420Y-62288640D02*
X83804420Y-62288640D01*
%TO.C,D42*%
X83074420Y-103128640D02*
X83074420Y-110428640D01*
X88574420Y-103128640D02*
X88574420Y-110428640D01*
X88574420Y-110428640D02*
X87424420Y-110428640D01*
%TO.C,D43*%
X62944420Y-88178640D02*
X64094420Y-88178640D01*
X62944420Y-95478640D02*
X62944420Y-88178640D01*
X68444420Y-95478640D02*
X68444420Y-88178640D01*
D11*
%TO.C,K4*%
X50034420Y-90488640D02*
X51034420Y-90488640D01*
X63034420Y-90488640D02*
X64034420Y-90488640D01*
X64034420Y-90488640D02*
X64034420Y-91488640D01*
X64034420Y-104488640D02*
X63034420Y-104488640D01*
X64034420Y-103488640D02*
X64034420Y-104488640D01*
X51034420Y-104488640D02*
X50034420Y-104488640D01*
X50034420Y-104488640D02*
X50034420Y-103488640D01*
X50034420Y-91488640D02*
X50034420Y-90488640D01*
%TO.C,K5*%
X88134420Y-43863640D02*
X88134420Y-42863640D01*
X88134420Y-56863640D02*
X88134420Y-55863640D01*
X89134420Y-56863640D02*
X88134420Y-56863640D01*
X102134420Y-55863640D02*
X102134420Y-56863640D01*
X102134420Y-56863640D02*
X101134420Y-56863640D01*
X102134420Y-42863640D02*
X102134420Y-43863640D01*
X101134420Y-42863640D02*
X102134420Y-42863640D01*
X88134420Y-42863640D02*
X89134420Y-42863640D01*
%TO.C,K6*%
X88134420Y-62913640D02*
X88134420Y-61913640D01*
X88134420Y-75913640D02*
X88134420Y-74913640D01*
X89134420Y-75913640D02*
X88134420Y-75913640D01*
X102134420Y-74913640D02*
X102134420Y-75913640D01*
X102134420Y-75913640D02*
X101134420Y-75913640D01*
X102134420Y-61913640D02*
X102134420Y-62913640D01*
X101134420Y-61913640D02*
X102134420Y-61913640D01*
X88134420Y-61913640D02*
X89134420Y-61913640D01*
%TO.C,K7*%
X88134420Y-81963640D02*
X88134420Y-80963640D01*
X88134420Y-94963640D02*
X88134420Y-93963640D01*
X89134420Y-94963640D02*
X88134420Y-94963640D01*
X102134420Y-93963640D02*
X102134420Y-94963640D01*
X102134420Y-94963640D02*
X101134420Y-94963640D01*
X102134420Y-80963640D02*
X102134420Y-81963640D01*
X101134420Y-80963640D02*
X102134420Y-80963640D01*
X88134420Y-80963640D02*
X89134420Y-80963640D01*
%TO.C,K8*%
X88134420Y-100013640D02*
X89134420Y-100013640D01*
X101134420Y-100013640D02*
X102134420Y-100013640D01*
X102134420Y-100013640D02*
X102134420Y-101013640D01*
X102134420Y-114013640D02*
X101134420Y-114013640D01*
X102134420Y-113013640D02*
X102134420Y-114013640D01*
X89134420Y-114013640D02*
X88134420Y-114013640D01*
X88134420Y-114013640D02*
X88134420Y-113013640D01*
X88134420Y-101013640D02*
X88134420Y-100013640D01*
%TO.C,K9*%
X107184420Y-42863640D02*
X108184420Y-42863640D01*
X120184420Y-42863640D02*
X121184420Y-42863640D01*
X121184420Y-42863640D02*
X121184420Y-43863640D01*
X121184420Y-56863640D02*
X120184420Y-56863640D01*
X121184420Y-55863640D02*
X121184420Y-56863640D01*
X108184420Y-56863640D02*
X107184420Y-56863640D01*
X107184420Y-56863640D02*
X107184420Y-55863640D01*
X107184420Y-43863640D02*
X107184420Y-42863640D01*
%TO.C,K10*%
X107184420Y-61913640D02*
X108184420Y-61913640D01*
X120184420Y-61913640D02*
X121184420Y-61913640D01*
X121184420Y-61913640D02*
X121184420Y-62913640D01*
X121184420Y-75913640D02*
X120184420Y-75913640D01*
X121184420Y-74913640D02*
X121184420Y-75913640D01*
X108184420Y-75913640D02*
X107184420Y-75913640D01*
X107184420Y-75913640D02*
X107184420Y-74913640D01*
X107184420Y-62913640D02*
X107184420Y-61913640D01*
D10*
%TO.C,D17*%
X155084420Y-53421140D02*
X149284420Y-53421140D01*
X155084420Y-55821140D02*
X155084420Y-53421140D01*
X149284420Y-55821140D02*
X155084420Y-55821140D01*
X149359420Y-55821140D02*
X149359420Y-53421140D01*
X149484420Y-55821140D02*
X149484420Y-53421140D01*
X149259420Y-53421140D02*
X149259420Y-55821140D01*
X149659420Y-55821140D02*
X149659420Y-53421140D01*
X149834420Y-55821140D02*
X149834420Y-53421140D01*
X150009420Y-55821140D02*
X150009420Y-53421140D01*
D11*
%TO.C,K22*%
X164334420Y-43863640D02*
X164334420Y-42863640D01*
X164334420Y-56863640D02*
X164334420Y-55863640D01*
X165334420Y-56863640D02*
X164334420Y-56863640D01*
X178334420Y-55863640D02*
X178334420Y-56863640D01*
X178334420Y-56863640D02*
X177334420Y-56863640D01*
X178334420Y-42863640D02*
X178334420Y-43863640D01*
X177334420Y-42863640D02*
X178334420Y-42863640D01*
X164334420Y-42863640D02*
X165334420Y-42863640D01*
%TO.C,Brd1*%
X222194420Y-80188640D02*
X222194420Y-82728640D01*
X212034420Y-80188640D02*
X222194420Y-80188640D01*
X212034420Y-82728640D02*
X212034420Y-80188640D01*
X222194420Y-82728640D02*
X212034420Y-82728640D01*
D10*
%TO.C,D27*%
X188119420Y-60578640D02*
X188119420Y-58178640D01*
X187944420Y-60578640D02*
X187944420Y-58178640D01*
X187769420Y-60578640D02*
X187769420Y-58178640D01*
X187369420Y-58178640D02*
X187369420Y-60578640D01*
X187594420Y-60578640D02*
X187594420Y-58178640D01*
X187469420Y-60578640D02*
X187469420Y-58178640D01*
X187394420Y-60578640D02*
X193194420Y-60578640D01*
X193194420Y-60578640D02*
X193194420Y-58178640D01*
X193194420Y-58178640D02*
X187394420Y-58178640D01*
%TO.C,D20*%
X155084420Y-110581140D02*
X149284420Y-110581140D01*
X155084420Y-112981140D02*
X155084420Y-110581140D01*
X149284420Y-112981140D02*
X155084420Y-112981140D01*
X149359420Y-112981140D02*
X149359420Y-110581140D01*
X149484420Y-112981140D02*
X149484420Y-110581140D01*
X149259420Y-110581140D02*
X149259420Y-112981140D01*
X149659420Y-112981140D02*
X149659420Y-110581140D01*
X149834420Y-112981140D02*
X149834420Y-110581140D01*
X150009420Y-112981140D02*
X150009420Y-110581140D01*
%TO.C,D25*%
X169059420Y-112978640D02*
X169059420Y-110578640D01*
X168884420Y-112978640D02*
X168884420Y-110578640D01*
X168709420Y-112978640D02*
X168709420Y-110578640D01*
X168309420Y-110578640D02*
X168309420Y-112978640D01*
X168534420Y-112978640D02*
X168534420Y-110578640D01*
X168409420Y-112978640D02*
X168409420Y-110578640D01*
X168334420Y-112978640D02*
X174134420Y-112978640D01*
X174134420Y-112978640D02*
X174134420Y-110578640D01*
X174134420Y-110578640D02*
X168334420Y-110578640D01*
%TO.C,D16*%
X136034420Y-110581140D02*
X130234420Y-110581140D01*
X136034420Y-112981140D02*
X136034420Y-110581140D01*
X130234420Y-112981140D02*
X136034420Y-112981140D01*
X130309420Y-112981140D02*
X130309420Y-110581140D01*
X130434420Y-112981140D02*
X130434420Y-110581140D01*
X130209420Y-110581140D02*
X130209420Y-112981140D01*
X130609420Y-112981140D02*
X130609420Y-110581140D01*
X130784420Y-112981140D02*
X130784420Y-110581140D01*
X130959420Y-112981140D02*
X130959420Y-110581140D01*
%TO.C,D4*%
X54759420Y-103448640D02*
X54759420Y-101048640D01*
X54584420Y-103448640D02*
X54584420Y-101048640D01*
X54409420Y-103448640D02*
X54409420Y-101048640D01*
X54009420Y-101048640D02*
X54009420Y-103448640D01*
X54234420Y-103448640D02*
X54234420Y-101048640D01*
X54109420Y-103448640D02*
X54109420Y-101048640D01*
X54034420Y-103448640D02*
X59834420Y-103448640D01*
X59834420Y-103448640D02*
X59834420Y-101048640D01*
X59834420Y-101048640D02*
X54034420Y-101048640D01*
%TO.C,D12*%
X116984420Y-110578640D02*
X111184420Y-110578640D01*
X116984420Y-112978640D02*
X116984420Y-110578640D01*
X111184420Y-112978640D02*
X116984420Y-112978640D01*
X111259420Y-112978640D02*
X111259420Y-110578640D01*
X111384420Y-112978640D02*
X111384420Y-110578640D01*
X111159420Y-110578640D02*
X111159420Y-112978640D01*
X111559420Y-112978640D02*
X111559420Y-110578640D01*
X111734420Y-112978640D02*
X111734420Y-110578640D01*
X111909420Y-112978640D02*
X111909420Y-110578640D01*
%TO.C,D31*%
X193184420Y-143913640D02*
X187384420Y-143913640D01*
X193184420Y-146313640D02*
X193184420Y-143913640D01*
X187384420Y-146313640D02*
X193184420Y-146313640D01*
X187459420Y-146313640D02*
X187459420Y-143913640D01*
X187584420Y-146313640D02*
X187584420Y-143913640D01*
X187359420Y-143913640D02*
X187359420Y-146313640D01*
X187759420Y-146313640D02*
X187759420Y-143913640D01*
X187934420Y-146313640D02*
X187934420Y-143913640D01*
X188109420Y-146313640D02*
X188109420Y-143913640D01*
%TO.C,D30*%
X202095347Y-122430011D02*
X197994128Y-118328792D01*
X200398291Y-124127067D02*
X202095347Y-122430011D01*
X196297072Y-120025848D02*
X200398291Y-124127067D01*
X196350105Y-120078881D02*
X198047161Y-118381825D01*
X196438493Y-120167269D02*
X198135549Y-118470213D01*
X197976450Y-118311114D02*
X196279394Y-120008170D01*
X196562237Y-120291013D02*
X198259293Y-118593957D01*
X196685980Y-120414757D02*
X198383037Y-118717700D01*
X196809724Y-120538500D02*
X198506780Y-118841444D01*
%TO.C,D26*%
X174134420Y-139146140D02*
X168334420Y-139146140D01*
X174134420Y-141546140D02*
X174134420Y-139146140D01*
X168334420Y-141546140D02*
X174134420Y-141546140D01*
X168409420Y-141546140D02*
X168409420Y-139146140D01*
X168534420Y-141546140D02*
X168534420Y-139146140D01*
X168309420Y-139146140D02*
X168309420Y-141546140D01*
X168709420Y-141546140D02*
X168709420Y-139146140D01*
X168884420Y-141546140D02*
X168884420Y-139146140D01*
X169059420Y-141546140D02*
X169059420Y-139146140D01*
D11*
%TO.C,K12*%
X107184420Y-101013640D02*
X107184420Y-100013640D01*
X107184420Y-114013640D02*
X107184420Y-113013640D01*
X108184420Y-114013640D02*
X107184420Y-114013640D01*
X121184420Y-113013640D02*
X121184420Y-114013640D01*
X121184420Y-114013640D02*
X120184420Y-114013640D01*
X121184420Y-100013640D02*
X121184420Y-101013640D01*
X120184420Y-100013640D02*
X121184420Y-100013640D01*
X107184420Y-100013640D02*
X108184420Y-100013640D01*
%TO.C,K13*%
X126234420Y-42863640D02*
X127234420Y-42863640D01*
X139234420Y-42863640D02*
X140234420Y-42863640D01*
X140234420Y-42863640D02*
X140234420Y-43863640D01*
X140234420Y-56863640D02*
X139234420Y-56863640D01*
X140234420Y-55863640D02*
X140234420Y-56863640D01*
X127234420Y-56863640D02*
X126234420Y-56863640D01*
X126234420Y-56863640D02*
X126234420Y-55863640D01*
X126234420Y-43863640D02*
X126234420Y-42863640D01*
%TO.C,K14*%
X126234420Y-61913640D02*
X127234420Y-61913640D01*
X139234420Y-61913640D02*
X140234420Y-61913640D01*
X140234420Y-61913640D02*
X140234420Y-62913640D01*
X140234420Y-75913640D02*
X139234420Y-75913640D01*
X140234420Y-74913640D02*
X140234420Y-75913640D01*
X127234420Y-75913640D02*
X126234420Y-75913640D01*
X126234420Y-75913640D02*
X126234420Y-74913640D01*
X126234420Y-62913640D02*
X126234420Y-61913640D01*
%TO.C,K15*%
X126234420Y-80963640D02*
X127234420Y-80963640D01*
X139234420Y-80963640D02*
X140234420Y-80963640D01*
X140234420Y-80963640D02*
X140234420Y-81963640D01*
X140234420Y-94963640D02*
X139234420Y-94963640D01*
X140234420Y-93963640D02*
X140234420Y-94963640D01*
X127234420Y-94963640D02*
X126234420Y-94963640D01*
X126234420Y-94963640D02*
X126234420Y-93963640D01*
X126234420Y-81963640D02*
X126234420Y-80963640D01*
%TO.C,K16*%
X126234420Y-101013640D02*
X126234420Y-100013640D01*
X126234420Y-114013640D02*
X126234420Y-113013640D01*
X127234420Y-114013640D02*
X126234420Y-114013640D01*
X140234420Y-113013640D02*
X140234420Y-114013640D01*
X140234420Y-114013640D02*
X139234420Y-114013640D01*
X140234420Y-100013640D02*
X140234420Y-101013640D01*
X139234420Y-100013640D02*
X140234420Y-100013640D01*
X126234420Y-100013640D02*
X127234420Y-100013640D01*
%TO.C,K17*%
X145284420Y-42863640D02*
X146284420Y-42863640D01*
X158284420Y-42863640D02*
X159284420Y-42863640D01*
X159284420Y-42863640D02*
X159284420Y-43863640D01*
X159284420Y-56863640D02*
X158284420Y-56863640D01*
X159284420Y-55863640D02*
X159284420Y-56863640D01*
X146284420Y-56863640D02*
X145284420Y-56863640D01*
X145284420Y-56863640D02*
X145284420Y-55863640D01*
X145284420Y-43863640D02*
X145284420Y-42863640D01*
%TO.C,K18*%
X145284420Y-61913640D02*
X146284420Y-61913640D01*
X158284420Y-61913640D02*
X159284420Y-61913640D01*
X159284420Y-61913640D02*
X159284420Y-62913640D01*
X159284420Y-75913640D02*
X158284420Y-75913640D01*
X159284420Y-74913640D02*
X159284420Y-75913640D01*
X146284420Y-75913640D02*
X145284420Y-75913640D01*
X145284420Y-75913640D02*
X145284420Y-74913640D01*
X145284420Y-62913640D02*
X145284420Y-61913640D01*
%TO.C,K19*%
X145284420Y-81963640D02*
X145284420Y-80963640D01*
X145284420Y-94963640D02*
X145284420Y-93963640D01*
X146284420Y-94963640D02*
X145284420Y-94963640D01*
X159284420Y-93963640D02*
X159284420Y-94963640D01*
X159284420Y-94963640D02*
X158284420Y-94963640D01*
X159284420Y-80963640D02*
X159284420Y-81963640D01*
X158284420Y-80963640D02*
X159284420Y-80963640D01*
X145284420Y-80963640D02*
X146284420Y-80963640D01*
%TO.C,K20*%
X145284420Y-101013640D02*
X145284420Y-100013640D01*
X145284420Y-114013640D02*
X145284420Y-113013640D01*
X146284420Y-114013640D02*
X145284420Y-114013640D01*
X159284420Y-113013640D02*
X159284420Y-114013640D01*
X159284420Y-114013640D02*
X158284420Y-114013640D01*
X159284420Y-100013640D02*
X159284420Y-101013640D01*
X158284420Y-100013640D02*
X159284420Y-100013640D01*
X145284420Y-100013640D02*
X146284420Y-100013640D01*
%TO.C,K21*%
X145284420Y-123826140D02*
X146284420Y-123826140D01*
X158284420Y-123826140D02*
X159284420Y-123826140D01*
X159284420Y-123826140D02*
X159284420Y-124826140D01*
X159284420Y-137826140D02*
X158284420Y-137826140D01*
X159284420Y-136826140D02*
X159284420Y-137826140D01*
X146284420Y-137826140D02*
X145284420Y-137826140D01*
X145284420Y-137826140D02*
X145284420Y-136826140D01*
X145284420Y-124826140D02*
X145284420Y-123826140D01*
%TO.C,K23*%
X164334420Y-61913640D02*
X165334420Y-61913640D01*
X177334420Y-61913640D02*
X178334420Y-61913640D01*
X178334420Y-61913640D02*
X178334420Y-62913640D01*
X178334420Y-75913640D02*
X177334420Y-75913640D01*
X178334420Y-74913640D02*
X178334420Y-75913640D01*
X165334420Y-75913640D02*
X164334420Y-75913640D01*
X164334420Y-75913640D02*
X164334420Y-74913640D01*
X164334420Y-62913640D02*
X164334420Y-61913640D01*
%TO.C,K24*%
X164334420Y-81963640D02*
X164334420Y-80963640D01*
X164334420Y-94963640D02*
X164334420Y-93963640D01*
X165334420Y-94963640D02*
X164334420Y-94963640D01*
X178334420Y-93963640D02*
X178334420Y-94963640D01*
X178334420Y-94963640D02*
X177334420Y-94963640D01*
X178334420Y-80963640D02*
X178334420Y-81963640D01*
X177334420Y-80963640D02*
X178334420Y-80963640D01*
X164334420Y-80963640D02*
X165334420Y-80963640D01*
%TO.C,K25*%
X164334420Y-101013640D02*
X164334420Y-100013640D01*
X164334420Y-114013640D02*
X164334420Y-113013640D01*
X165334420Y-114013640D02*
X164334420Y-114013640D01*
X178334420Y-113013640D02*
X178334420Y-114013640D01*
X178334420Y-114013640D02*
X177334420Y-114013640D01*
X178334420Y-100013640D02*
X178334420Y-101013640D01*
X177334420Y-100013640D02*
X178334420Y-100013640D01*
X164334420Y-100013640D02*
X165334420Y-100013640D01*
%TO.C,K27*%
X183384420Y-48626140D02*
X183384420Y-47626140D01*
X183384420Y-61626140D02*
X183384420Y-60626140D01*
X184384420Y-61626140D02*
X183384420Y-61626140D01*
X197384420Y-60626140D02*
X197384420Y-61626140D01*
X197384420Y-61626140D02*
X196384420Y-61626140D01*
X197384420Y-47626140D02*
X197384420Y-48626140D01*
X196384420Y-47626140D02*
X197384420Y-47626140D01*
X183384420Y-47626140D02*
X184384420Y-47626140D01*
%TO.C,K28*%
X183384420Y-66676140D02*
X184384420Y-66676140D01*
X196384420Y-66676140D02*
X197384420Y-66676140D01*
X197384420Y-66676140D02*
X197384420Y-67676140D01*
X197384420Y-80676140D02*
X196384420Y-80676140D01*
X197384420Y-79676140D02*
X197384420Y-80676140D01*
X184384420Y-80676140D02*
X183384420Y-80676140D01*
X183384420Y-80676140D02*
X183384420Y-79676140D01*
X183384420Y-67676140D02*
X183384420Y-66676140D01*
%TO.C,K29*%
X183384420Y-86726140D02*
X183384420Y-85726140D01*
X183384420Y-99726140D02*
X183384420Y-98726140D01*
X184384420Y-99726140D02*
X183384420Y-99726140D01*
X197384420Y-98726140D02*
X197384420Y-99726140D01*
X197384420Y-99726140D02*
X196384420Y-99726140D01*
X197384420Y-85726140D02*
X197384420Y-86726140D01*
X196384420Y-85726140D02*
X197384420Y-85726140D01*
X183384420Y-85726140D02*
X184384420Y-85726140D01*
%TO.C,K30*%
X202569985Y-108456949D02*
X203277092Y-109164056D01*
X211762373Y-117649337D02*
X212469480Y-118356444D01*
X212469480Y-118356444D02*
X211762373Y-119063551D01*
X202569985Y-128255939D02*
X201862878Y-127548832D01*
X203277092Y-127548832D02*
X202569985Y-128255939D01*
X193377597Y-119063551D02*
X192670490Y-118356444D01*
X192670490Y-118356444D02*
X193377597Y-117649337D01*
X201862878Y-109164056D02*
X202569985Y-108456949D01*
%TO.C,K31*%
X183384420Y-134351140D02*
X183384420Y-133351140D01*
X183384420Y-147351140D02*
X183384420Y-146351140D01*
X184384420Y-147351140D02*
X183384420Y-147351140D01*
X197384420Y-146351140D02*
X197384420Y-147351140D01*
X197384420Y-147351140D02*
X196384420Y-147351140D01*
X197384420Y-133351140D02*
X197384420Y-134351140D01*
X196384420Y-133351140D02*
X197384420Y-133351140D01*
X183384420Y-133351140D02*
X184384420Y-133351140D01*
%TO.C,Brd1*%
X209484420Y-85428640D02*
X209484420Y-82888640D01*
X219644420Y-85428640D02*
X209484420Y-85428640D01*
X219644420Y-82888640D02*
X219644420Y-85428640D01*
X209484420Y-82888640D02*
X219644420Y-82888640D01*
%TO.C,D6*%
X95734896Y-72118044D02*
X95734896Y-71318044D01*
X95544420Y-71318044D01*
X95430134Y-71356140D01*
X95353943Y-71432330D01*
X95315848Y-71508520D01*
X95277753Y-71660901D01*
X95277753Y-71775187D01*
X95315848Y-71927568D01*
X95353943Y-72003759D01*
X95430134Y-72079949D01*
X95544420Y-72118044D01*
X95734896Y-72118044D01*
X94592039Y-71318044D02*
X94744420Y-71318044D01*
X94820610Y-71356140D01*
X94858705Y-71394235D01*
X94934896Y-71508520D01*
X94972991Y-71660901D01*
X94972991Y-71965663D01*
X94934896Y-72041854D01*
X94896800Y-72079949D01*
X94820610Y-72118044D01*
X94668229Y-72118044D01*
X94592039Y-72079949D01*
X94553943Y-72041854D01*
X94515848Y-71965663D01*
X94515848Y-71775187D01*
X94553943Y-71698997D01*
X94592039Y-71660901D01*
X94668229Y-71622806D01*
X94820610Y-71622806D01*
X94896800Y-71660901D01*
X94934896Y-71698997D01*
X94972991Y-71775187D01*
%TO.C,D28*%
X191365848Y-76875544D02*
X191365848Y-76075544D01*
X191175372Y-76075544D01*
X191061086Y-76113640D01*
X190984896Y-76189830D01*
X190946800Y-76266020D01*
X190908705Y-76418401D01*
X190908705Y-76532687D01*
X190946800Y-76685068D01*
X190984896Y-76761259D01*
X191061086Y-76837449D01*
X191175372Y-76875544D01*
X191365848Y-76875544D01*
X190603943Y-76151735D02*
X190565848Y-76113640D01*
X190489658Y-76075544D01*
X190299181Y-76075544D01*
X190222991Y-76113640D01*
X190184896Y-76151735D01*
X190146800Y-76227925D01*
X190146800Y-76304116D01*
X190184896Y-76418401D01*
X190642039Y-76875544D01*
X190146800Y-76875544D01*
X189689658Y-76418401D02*
X189765848Y-76380306D01*
X189803943Y-76342211D01*
X189842039Y-76266020D01*
X189842039Y-76227925D01*
X189803943Y-76151735D01*
X189765848Y-76113640D01*
X189689658Y-76075544D01*
X189537277Y-76075544D01*
X189461086Y-76113640D01*
X189422991Y-76151735D01*
X189384896Y-76227925D01*
X189384896Y-76266020D01*
X189422991Y-76342211D01*
X189461086Y-76380306D01*
X189537277Y-76418401D01*
X189689658Y-76418401D01*
X189765848Y-76456497D01*
X189803943Y-76494592D01*
X189842039Y-76570782D01*
X189842039Y-76723163D01*
X189803943Y-76799354D01*
X189765848Y-76837449D01*
X189689658Y-76875544D01*
X189537277Y-76875544D01*
X189461086Y-76837449D01*
X189422991Y-76799354D01*
X189384896Y-76723163D01*
X189384896Y-76570782D01*
X189422991Y-76494592D01*
X189461086Y-76456497D01*
X189537277Y-76418401D01*
%TO.C,D29*%
X191345848Y-95925544D02*
X191345848Y-95125544D01*
X191155372Y-95125544D01*
X191041086Y-95163640D01*
X190964896Y-95239830D01*
X190926800Y-95316020D01*
X190888705Y-95468401D01*
X190888705Y-95582687D01*
X190926800Y-95735068D01*
X190964896Y-95811259D01*
X191041086Y-95887449D01*
X191155372Y-95925544D01*
X191345848Y-95925544D01*
X190583943Y-95201735D02*
X190545848Y-95163640D01*
X190469658Y-95125544D01*
X190279181Y-95125544D01*
X190202991Y-95163640D01*
X190164896Y-95201735D01*
X190126800Y-95277925D01*
X190126800Y-95354116D01*
X190164896Y-95468401D01*
X190622039Y-95925544D01*
X190126800Y-95925544D01*
X189745848Y-95925544D02*
X189593467Y-95925544D01*
X189517277Y-95887449D01*
X189479181Y-95849354D01*
X189402991Y-95735068D01*
X189364896Y-95582687D01*
X189364896Y-95277925D01*
X189402991Y-95201735D01*
X189441086Y-95163640D01*
X189517277Y-95125544D01*
X189669658Y-95125544D01*
X189745848Y-95163640D01*
X189783943Y-95201735D01*
X189822039Y-95277925D01*
X189822039Y-95468401D01*
X189783943Y-95544592D01*
X189745848Y-95582687D01*
X189669658Y-95620782D01*
X189517277Y-95620782D01*
X189441086Y-95582687D01*
X189402991Y-95544592D01*
X189364896Y-95468401D01*
%TO.C,K26*%
X172548705Y-127786020D02*
X172548705Y-126786020D01*
X171977277Y-127786020D02*
X172405848Y-127214592D01*
X171977277Y-126786020D02*
X172548705Y-127357449D01*
X171596324Y-126881259D02*
X171548705Y-126833640D01*
X171453467Y-126786020D01*
X171215372Y-126786020D01*
X171120134Y-126833640D01*
X171072515Y-126881259D01*
X171024896Y-126976497D01*
X171024896Y-127071735D01*
X171072515Y-127214592D01*
X171643943Y-127786020D01*
X171024896Y-127786020D01*
X170167753Y-126786020D02*
X170358229Y-126786020D01*
X170453467Y-126833640D01*
X170501086Y-126881259D01*
X170596324Y-127024116D01*
X170643943Y-127214592D01*
X170643943Y-127595544D01*
X170596324Y-127690782D01*
X170548705Y-127738401D01*
X170453467Y-127786020D01*
X170262991Y-127786020D01*
X170167753Y-127738401D01*
X170120134Y-127690782D01*
X170072515Y-127595544D01*
X170072515Y-127357449D01*
X170120134Y-127262211D01*
X170167753Y-127214592D01*
X170262991Y-127166973D01*
X170453467Y-127166973D01*
X170548705Y-127214592D01*
X170596324Y-127262211D01*
X170643943Y-127357449D01*
%TO.C,D1*%
X76674896Y-72118044D02*
X76674896Y-71318044D01*
X76484420Y-71318044D01*
X76370134Y-71356140D01*
X76293943Y-71432330D01*
X76255848Y-71508520D01*
X76217753Y-71660901D01*
X76217753Y-71775187D01*
X76255848Y-71927568D01*
X76293943Y-72003759D01*
X76370134Y-72079949D01*
X76484420Y-72118044D01*
X76674896Y-72118044D01*
X75455848Y-72118044D02*
X75912991Y-72118044D01*
X75684420Y-72118044D02*
X75684420Y-71318044D01*
X75760610Y-71432330D01*
X75836800Y-71508520D01*
X75912991Y-71546616D01*
%TO.C,D9*%
X114774896Y-53058044D02*
X114774896Y-52258044D01*
X114584420Y-52258044D01*
X114470134Y-52296140D01*
X114393943Y-52372330D01*
X114355848Y-52448520D01*
X114317753Y-52600901D01*
X114317753Y-52715187D01*
X114355848Y-52867568D01*
X114393943Y-52943759D01*
X114470134Y-53019949D01*
X114584420Y-53058044D01*
X114774896Y-53058044D01*
X113936800Y-53058044D02*
X113784420Y-53058044D01*
X113708229Y-53019949D01*
X113670134Y-52981854D01*
X113593943Y-52867568D01*
X113555848Y-52715187D01*
X113555848Y-52410425D01*
X113593943Y-52334235D01*
X113632039Y-52296140D01*
X113708229Y-52258044D01*
X113860610Y-52258044D01*
X113936800Y-52296140D01*
X113974896Y-52334235D01*
X114012991Y-52410425D01*
X114012991Y-52600901D01*
X113974896Y-52677092D01*
X113936800Y-52715187D01*
X113860610Y-52753282D01*
X113708229Y-52753282D01*
X113632039Y-52715187D01*
X113593943Y-52677092D01*
X113555848Y-52600901D01*
%TO.C,D24*%
X172305848Y-91168044D02*
X172305848Y-90368044D01*
X172115372Y-90368044D01*
X172001086Y-90406140D01*
X171924896Y-90482330D01*
X171886800Y-90558520D01*
X171848705Y-90710901D01*
X171848705Y-90825187D01*
X171886800Y-90977568D01*
X171924896Y-91053759D01*
X172001086Y-91129949D01*
X172115372Y-91168044D01*
X172305848Y-91168044D01*
X171543943Y-90444235D02*
X171505848Y-90406140D01*
X171429658Y-90368044D01*
X171239181Y-90368044D01*
X171162991Y-90406140D01*
X171124896Y-90444235D01*
X171086800Y-90520425D01*
X171086800Y-90596616D01*
X171124896Y-90710901D01*
X171582039Y-91168044D01*
X171086800Y-91168044D01*
X170401086Y-90634711D02*
X170401086Y-91168044D01*
X170591562Y-90329949D02*
X170782039Y-90901378D01*
X170286800Y-90901378D01*
%TO.C,D15*%
X134205848Y-91155544D02*
X134205848Y-90355544D01*
X134015372Y-90355544D01*
X133901086Y-90393640D01*
X133824896Y-90469830D01*
X133786800Y-90546020D01*
X133748705Y-90698401D01*
X133748705Y-90812687D01*
X133786800Y-90965068D01*
X133824896Y-91041259D01*
X133901086Y-91117449D01*
X134015372Y-91155544D01*
X134205848Y-91155544D01*
X132986800Y-91155544D02*
X133443943Y-91155544D01*
X133215372Y-91155544D02*
X133215372Y-90355544D01*
X133291562Y-90469830D01*
X133367753Y-90546020D01*
X133443943Y-90584116D01*
X132262991Y-90355544D02*
X132643943Y-90355544D01*
X132682039Y-90736497D01*
X132643943Y-90698401D01*
X132567753Y-90660306D01*
X132377277Y-90660306D01*
X132301086Y-90698401D01*
X132262991Y-90736497D01*
X132224896Y-90812687D01*
X132224896Y-91003163D01*
X132262991Y-91079354D01*
X132301086Y-91117449D01*
X132377277Y-91155544D01*
X132567753Y-91155544D01*
X132643943Y-91117449D01*
X132682039Y-91079354D01*
%TO.C,K1*%
X76822515Y-61111020D02*
X76822515Y-60111020D01*
X76251086Y-61111020D02*
X76679658Y-60539592D01*
X76251086Y-60111020D02*
X76822515Y-60682449D01*
X75298705Y-61111020D02*
X75870134Y-61111020D01*
X75584420Y-61111020D02*
X75584420Y-60111020D01*
X75679658Y-60253878D01*
X75774896Y-60349116D01*
X75870134Y-60396735D01*
%TO.C,D13*%
X134205848Y-53058044D02*
X134205848Y-52258044D01*
X134015372Y-52258044D01*
X133901086Y-52296140D01*
X133824896Y-52372330D01*
X133786800Y-52448520D01*
X133748705Y-52600901D01*
X133748705Y-52715187D01*
X133786800Y-52867568D01*
X133824896Y-52943759D01*
X133901086Y-53019949D01*
X134015372Y-53058044D01*
X134205848Y-53058044D01*
X132986800Y-53058044D02*
X133443943Y-53058044D01*
X133215372Y-53058044D02*
X133215372Y-52258044D01*
X133291562Y-52372330D01*
X133367753Y-52448520D01*
X133443943Y-52486616D01*
X132720134Y-52258044D02*
X132224896Y-52258044D01*
X132491562Y-52562806D01*
X132377277Y-52562806D01*
X132301086Y-52600901D01*
X132262991Y-52638997D01*
X132224896Y-52715187D01*
X132224896Y-52905663D01*
X132262991Y-52981854D01*
X132301086Y-53019949D01*
X132377277Y-53058044D01*
X132605848Y-53058044D01*
X132682039Y-53019949D01*
X132720134Y-52981854D01*
%TO.C,D19*%
X153255848Y-91148044D02*
X153255848Y-90348044D01*
X153065372Y-90348044D01*
X152951086Y-90386140D01*
X152874896Y-90462330D01*
X152836800Y-90538520D01*
X152798705Y-90690901D01*
X152798705Y-90805187D01*
X152836800Y-90957568D01*
X152874896Y-91033759D01*
X152951086Y-91109949D01*
X153065372Y-91148044D01*
X153255848Y-91148044D01*
X152036800Y-91148044D02*
X152493943Y-91148044D01*
X152265372Y-91148044D02*
X152265372Y-90348044D01*
X152341562Y-90462330D01*
X152417753Y-90538520D01*
X152493943Y-90576616D01*
X151655848Y-91148044D02*
X151503467Y-91148044D01*
X151427277Y-91109949D01*
X151389181Y-91071854D01*
X151312991Y-90957568D01*
X151274896Y-90805187D01*
X151274896Y-90500425D01*
X151312991Y-90424235D01*
X151351086Y-90386140D01*
X151427277Y-90348044D01*
X151579658Y-90348044D01*
X151655848Y-90386140D01*
X151693943Y-90424235D01*
X151732039Y-90500425D01*
X151732039Y-90690901D01*
X151693943Y-90767092D01*
X151655848Y-90805187D01*
X151579658Y-90843282D01*
X151427277Y-90843282D01*
X151351086Y-90805187D01*
X151312991Y-90767092D01*
X151274896Y-90690901D01*
%TO.C,D7*%
X95734896Y-91148044D02*
X95734896Y-90348044D01*
X95544420Y-90348044D01*
X95430134Y-90386140D01*
X95353943Y-90462330D01*
X95315848Y-90538520D01*
X95277753Y-90690901D01*
X95277753Y-90805187D01*
X95315848Y-90957568D01*
X95353943Y-91033759D01*
X95430134Y-91109949D01*
X95544420Y-91148044D01*
X95734896Y-91148044D01*
X95011086Y-90348044D02*
X94477753Y-90348044D01*
X94820610Y-91148044D01*
%TO.C,D2*%
X76674896Y-91158044D02*
X76674896Y-90358044D01*
X76484420Y-90358044D01*
X76370134Y-90396140D01*
X76293943Y-90472330D01*
X76255848Y-90548520D01*
X76217753Y-90700901D01*
X76217753Y-90815187D01*
X76255848Y-90967568D01*
X76293943Y-91043759D01*
X76370134Y-91119949D01*
X76484420Y-91158044D01*
X76674896Y-91158044D01*
X75912991Y-90434235D02*
X75874896Y-90396140D01*
X75798705Y-90358044D01*
X75608229Y-90358044D01*
X75532039Y-90396140D01*
X75493943Y-90434235D01*
X75455848Y-90510425D01*
X75455848Y-90586616D01*
X75493943Y-90700901D01*
X75951086Y-91158044D01*
X75455848Y-91158044D01*
%TO.C,D39*%
X108376800Y-52544354D02*
X107376800Y-52544354D01*
X107376800Y-52782449D01*
X107424420Y-52925306D01*
X107519658Y-53020544D01*
X107614896Y-53068163D01*
X107805372Y-53115782D01*
X107948229Y-53115782D01*
X108138705Y-53068163D01*
X108233943Y-53020544D01*
X108329181Y-52925306D01*
X108376800Y-52782449D01*
X108376800Y-52544354D01*
X107376800Y-53449116D02*
X107376800Y-54068163D01*
X107757753Y-53734830D01*
X107757753Y-53877687D01*
X107805372Y-53972925D01*
X107852991Y-54020544D01*
X107948229Y-54068163D01*
X108186324Y-54068163D01*
X108281562Y-54020544D01*
X108329181Y-53972925D01*
X108376800Y-53877687D01*
X108376800Y-53591973D01*
X108329181Y-53496735D01*
X108281562Y-53449116D01*
X108376800Y-54544354D02*
X108376800Y-54734830D01*
X108329181Y-54830068D01*
X108281562Y-54877687D01*
X108138705Y-54972925D01*
X107948229Y-55020544D01*
X107567277Y-55020544D01*
X107472039Y-54972925D01*
X107424420Y-54925306D01*
X107376800Y-54830068D01*
X107376800Y-54639592D01*
X107424420Y-54544354D01*
X107472039Y-54496735D01*
X107567277Y-54449116D01*
X107805372Y-54449116D01*
X107900610Y-54496735D01*
X107948229Y-54544354D01*
X107995848Y-54639592D01*
X107995848Y-54830068D01*
X107948229Y-54925306D01*
X107900610Y-54972925D01*
X107805372Y-55020544D01*
X104376800Y-54044354D02*
X104376800Y-53472925D01*
X104376800Y-53758640D02*
X103376800Y-53758640D01*
X103519658Y-53663401D01*
X103614896Y-53568163D01*
X103662515Y-53472925D01*
%TO.C,K2*%
X76822515Y-80161020D02*
X76822515Y-79161020D01*
X76251086Y-80161020D02*
X76679658Y-79589592D01*
X76251086Y-79161020D02*
X76822515Y-79732449D01*
X75870134Y-79256259D02*
X75822515Y-79208640D01*
X75727277Y-79161020D01*
X75489181Y-79161020D01*
X75393943Y-79208640D01*
X75346324Y-79256259D01*
X75298705Y-79351497D01*
X75298705Y-79446735D01*
X75346324Y-79589592D01*
X75917753Y-80161020D01*
X75298705Y-80161020D01*
%TO.C,D10*%
X115155848Y-72128044D02*
X115155848Y-71328044D01*
X114965372Y-71328044D01*
X114851086Y-71366140D01*
X114774896Y-71442330D01*
X114736800Y-71518520D01*
X114698705Y-71670901D01*
X114698705Y-71785187D01*
X114736800Y-71937568D01*
X114774896Y-72013759D01*
X114851086Y-72089949D01*
X114965372Y-72128044D01*
X115155848Y-72128044D01*
X113936800Y-72128044D02*
X114393943Y-72128044D01*
X114165372Y-72128044D02*
X114165372Y-71328044D01*
X114241562Y-71442330D01*
X114317753Y-71518520D01*
X114393943Y-71556616D01*
X113441562Y-71328044D02*
X113365372Y-71328044D01*
X113289181Y-71366140D01*
X113251086Y-71404235D01*
X113212991Y-71480425D01*
X113174896Y-71632806D01*
X113174896Y-71823282D01*
X113212991Y-71975663D01*
X113251086Y-72051854D01*
X113289181Y-72089949D01*
X113365372Y-72128044D01*
X113441562Y-72128044D01*
X113517753Y-72089949D01*
X113555848Y-72051854D01*
X113593943Y-71975663D01*
X113632039Y-71823282D01*
X113632039Y-71632806D01*
X113593943Y-71480425D01*
X113555848Y-71404235D01*
X113517753Y-71366140D01*
X113441562Y-71328044D01*
%TO.C,D14*%
X134205848Y-72118044D02*
X134205848Y-71318044D01*
X134015372Y-71318044D01*
X133901086Y-71356140D01*
X133824896Y-71432330D01*
X133786800Y-71508520D01*
X133748705Y-71660901D01*
X133748705Y-71775187D01*
X133786800Y-71927568D01*
X133824896Y-72003759D01*
X133901086Y-72079949D01*
X134015372Y-72118044D01*
X134205848Y-72118044D01*
X132986800Y-72118044D02*
X133443943Y-72118044D01*
X133215372Y-72118044D02*
X133215372Y-71318044D01*
X133291562Y-71432330D01*
X133367753Y-71508520D01*
X133443943Y-71546616D01*
X132301086Y-71584711D02*
X132301086Y-72118044D01*
X132491562Y-71279949D02*
X132682039Y-71851378D01*
X132186800Y-71851378D01*
%TO.C,D18*%
X153230848Y-72085544D02*
X153230848Y-71285544D01*
X153040372Y-71285544D01*
X152926086Y-71323640D01*
X152849896Y-71399830D01*
X152811800Y-71476020D01*
X152773705Y-71628401D01*
X152773705Y-71742687D01*
X152811800Y-71895068D01*
X152849896Y-71971259D01*
X152926086Y-72047449D01*
X153040372Y-72085544D01*
X153230848Y-72085544D01*
X152011800Y-72085544D02*
X152468943Y-72085544D01*
X152240372Y-72085544D02*
X152240372Y-71285544D01*
X152316562Y-71399830D01*
X152392753Y-71476020D01*
X152468943Y-71514116D01*
X151554658Y-71628401D02*
X151630848Y-71590306D01*
X151668943Y-71552211D01*
X151707039Y-71476020D01*
X151707039Y-71437925D01*
X151668943Y-71361735D01*
X151630848Y-71323640D01*
X151554658Y-71285544D01*
X151402277Y-71285544D01*
X151326086Y-71323640D01*
X151287991Y-71361735D01*
X151249896Y-71437925D01*
X151249896Y-71476020D01*
X151287991Y-71552211D01*
X151326086Y-71590306D01*
X151402277Y-71628401D01*
X151554658Y-71628401D01*
X151630848Y-71666497D01*
X151668943Y-71704592D01*
X151707039Y-71780782D01*
X151707039Y-71933163D01*
X151668943Y-72009354D01*
X151630848Y-72047449D01*
X151554658Y-72085544D01*
X151402277Y-72085544D01*
X151326086Y-72047449D01*
X151287991Y-72009354D01*
X151249896Y-71933163D01*
X151249896Y-71780782D01*
X151287991Y-71704592D01*
X151326086Y-71666497D01*
X151402277Y-71628401D01*
%TO.C,K3*%
X76822515Y-99211020D02*
X76822515Y-98211020D01*
X76251086Y-99211020D02*
X76679658Y-98639592D01*
X76251086Y-98211020D02*
X76822515Y-98782449D01*
X75917753Y-98211020D02*
X75298705Y-98211020D01*
X75632039Y-98591973D01*
X75489181Y-98591973D01*
X75393943Y-98639592D01*
X75346324Y-98687211D01*
X75298705Y-98782449D01*
X75298705Y-99020544D01*
X75346324Y-99115782D01*
X75393943Y-99163401D01*
X75489181Y-99211020D01*
X75774896Y-99211020D01*
X75870134Y-99163401D01*
X75917753Y-99115782D01*
%TO.C,K11*%
X115398705Y-80161020D02*
X115398705Y-79161020D01*
X114827277Y-80161020D02*
X115255848Y-79589592D01*
X114827277Y-79161020D02*
X115398705Y-79732449D01*
X113874896Y-80161020D02*
X114446324Y-80161020D01*
X114160610Y-80161020D02*
X114160610Y-79161020D01*
X114255848Y-79303878D01*
X114351086Y-79399116D01*
X114446324Y-79446735D01*
X112922515Y-80161020D02*
X113493943Y-80161020D01*
X113208229Y-80161020D02*
X113208229Y-79161020D01*
X113303467Y-79303878D01*
X113398705Y-79399116D01*
X113493943Y-79446735D01*
%TO.C,D22*%
X172305848Y-53058044D02*
X172305848Y-52258044D01*
X172115372Y-52258044D01*
X172001086Y-52296140D01*
X171924896Y-52372330D01*
X171886800Y-52448520D01*
X171848705Y-52600901D01*
X171848705Y-52715187D01*
X171886800Y-52867568D01*
X171924896Y-52943759D01*
X172001086Y-53019949D01*
X172115372Y-53058044D01*
X172305848Y-53058044D01*
X171543943Y-52334235D02*
X171505848Y-52296140D01*
X171429658Y-52258044D01*
X171239181Y-52258044D01*
X171162991Y-52296140D01*
X171124896Y-52334235D01*
X171086800Y-52410425D01*
X171086800Y-52486616D01*
X171124896Y-52600901D01*
X171582039Y-53058044D01*
X171086800Y-53058044D01*
X170782039Y-52334235D02*
X170743943Y-52296140D01*
X170667753Y-52258044D01*
X170477277Y-52258044D01*
X170401086Y-52296140D01*
X170362991Y-52334235D01*
X170324896Y-52410425D01*
X170324896Y-52486616D01*
X170362991Y-52600901D01*
X170820134Y-53058044D01*
X170324896Y-53058044D01*
%TO.C,D15*%
X115155848Y-91165544D02*
X115155848Y-90365544D01*
X114965372Y-90365544D01*
X114851086Y-90403640D01*
X114774896Y-90479830D01*
X114736800Y-90556020D01*
X114698705Y-90708401D01*
X114698705Y-90822687D01*
X114736800Y-90975068D01*
X114774896Y-91051259D01*
X114851086Y-91127449D01*
X114965372Y-91165544D01*
X115155848Y-91165544D01*
X113936800Y-91165544D02*
X114393943Y-91165544D01*
X114165372Y-91165544D02*
X114165372Y-90365544D01*
X114241562Y-90479830D01*
X114317753Y-90556020D01*
X114393943Y-90594116D01*
X113212991Y-90365544D02*
X113593943Y-90365544D01*
X113632039Y-90746497D01*
X113593943Y-90708401D01*
X113517753Y-90670306D01*
X113327277Y-90670306D01*
X113251086Y-90708401D01*
X113212991Y-90746497D01*
X113174896Y-90822687D01*
X113174896Y-91013163D01*
X113212991Y-91089354D01*
X113251086Y-91127449D01*
X113327277Y-91165544D01*
X113517753Y-91165544D01*
X113593943Y-91127449D01*
X113632039Y-91089354D01*
%TO.C,D23*%
X172305848Y-72118044D02*
X172305848Y-71318044D01*
X172115372Y-71318044D01*
X172001086Y-71356140D01*
X171924896Y-71432330D01*
X171886800Y-71508520D01*
X171848705Y-71660901D01*
X171848705Y-71775187D01*
X171886800Y-71927568D01*
X171924896Y-72003759D01*
X172001086Y-72079949D01*
X172115372Y-72118044D01*
X172305848Y-72118044D01*
X171543943Y-71394235D02*
X171505848Y-71356140D01*
X171429658Y-71318044D01*
X171239181Y-71318044D01*
X171162991Y-71356140D01*
X171124896Y-71394235D01*
X171086800Y-71470425D01*
X171086800Y-71546616D01*
X171124896Y-71660901D01*
X171582039Y-72118044D01*
X171086800Y-72118044D01*
X170820134Y-71318044D02*
X170324896Y-71318044D01*
X170591562Y-71622806D01*
X170477277Y-71622806D01*
X170401086Y-71660901D01*
X170362991Y-71698997D01*
X170324896Y-71775187D01*
X170324896Y-71965663D01*
X170362991Y-72041854D01*
X170401086Y-72079949D01*
X170477277Y-72118044D01*
X170705848Y-72118044D01*
X170782039Y-72079949D01*
X170820134Y-72041854D01*
%TO.C,D21*%
X153255848Y-134025544D02*
X153255848Y-133225544D01*
X153065372Y-133225544D01*
X152951086Y-133263640D01*
X152874896Y-133339830D01*
X152836800Y-133416020D01*
X152798705Y-133568401D01*
X152798705Y-133682687D01*
X152836800Y-133835068D01*
X152874896Y-133911259D01*
X152951086Y-133987449D01*
X153065372Y-134025544D01*
X153255848Y-134025544D01*
X152493943Y-133301735D02*
X152455848Y-133263640D01*
X152379658Y-133225544D01*
X152189181Y-133225544D01*
X152112991Y-133263640D01*
X152074896Y-133301735D01*
X152036800Y-133377925D01*
X152036800Y-133454116D01*
X152074896Y-133568401D01*
X152532039Y-134025544D01*
X152036800Y-134025544D01*
X151274896Y-134025544D02*
X151732039Y-134025544D01*
X151503467Y-134025544D02*
X151503467Y-133225544D01*
X151579658Y-133339830D01*
X151655848Y-133416020D01*
X151732039Y-133454116D01*
%TO.C,D3*%
X76674896Y-110215544D02*
X76674896Y-109415544D01*
X76484420Y-109415544D01*
X76370134Y-109453640D01*
X76293943Y-109529830D01*
X76255848Y-109606020D01*
X76217753Y-109758401D01*
X76217753Y-109872687D01*
X76255848Y-110025068D01*
X76293943Y-110101259D01*
X76370134Y-110177449D01*
X76484420Y-110215544D01*
X76674896Y-110215544D01*
X75951086Y-109415544D02*
X75455848Y-109415544D01*
X75722515Y-109720306D01*
X75608229Y-109720306D01*
X75532039Y-109758401D01*
X75493943Y-109796497D01*
X75455848Y-109872687D01*
X75455848Y-110063163D01*
X75493943Y-110139354D01*
X75532039Y-110177449D01*
X75608229Y-110215544D01*
X75836800Y-110215544D01*
X75912991Y-110177449D01*
X75951086Y-110139354D01*
%TO.C,D8*%
X95734896Y-110215544D02*
X95734896Y-109415544D01*
X95544420Y-109415544D01*
X95430134Y-109453640D01*
X95353943Y-109529830D01*
X95315848Y-109606020D01*
X95277753Y-109758401D01*
X95277753Y-109872687D01*
X95315848Y-110025068D01*
X95353943Y-110101259D01*
X95430134Y-110177449D01*
X95544420Y-110215544D01*
X95734896Y-110215544D01*
X94820610Y-109758401D02*
X94896800Y-109720306D01*
X94934896Y-109682211D01*
X94972991Y-109606020D01*
X94972991Y-109567925D01*
X94934896Y-109491735D01*
X94896800Y-109453640D01*
X94820610Y-109415544D01*
X94668229Y-109415544D01*
X94592039Y-109453640D01*
X94553943Y-109491735D01*
X94515848Y-109567925D01*
X94515848Y-109606020D01*
X94553943Y-109682211D01*
X94592039Y-109720306D01*
X94668229Y-109758401D01*
X94820610Y-109758401D01*
X94896800Y-109796497D01*
X94934896Y-109834592D01*
X94972991Y-109910782D01*
X94972991Y-110063163D01*
X94934896Y-110139354D01*
X94896800Y-110177449D01*
X94820610Y-110215544D01*
X94668229Y-110215544D01*
X94592039Y-110177449D01*
X94553943Y-110139354D01*
X94515848Y-110063163D01*
X94515848Y-109910782D01*
X94553943Y-109834592D01*
X94592039Y-109796497D01*
X94668229Y-109758401D01*
%TO.C,D5*%
X95724896Y-53068044D02*
X95724896Y-52268044D01*
X95534420Y-52268044D01*
X95420134Y-52306140D01*
X95343943Y-52382330D01*
X95305848Y-52458520D01*
X95267753Y-52610901D01*
X95267753Y-52725187D01*
X95305848Y-52877568D01*
X95343943Y-52953759D01*
X95420134Y-53029949D01*
X95534420Y-53068044D01*
X95724896Y-53068044D01*
X94543943Y-52268044D02*
X94924896Y-52268044D01*
X94962991Y-52648997D01*
X94924896Y-52610901D01*
X94848705Y-52572806D01*
X94658229Y-52572806D01*
X94582039Y-52610901D01*
X94543943Y-52648997D01*
X94505848Y-52725187D01*
X94505848Y-52915663D01*
X94543943Y-52991854D01*
X94582039Y-53029949D01*
X94658229Y-53068044D01*
X94848705Y-53068044D01*
X94924896Y-53029949D01*
X94962991Y-52991854D01*
%TO.C,SW1*%
X213029181Y-96175306D02*
X213076800Y-96318163D01*
X213076800Y-96556259D01*
X213029181Y-96651497D01*
X212981562Y-96699116D01*
X212886324Y-96746735D01*
X212791086Y-96746735D01*
X212695848Y-96699116D01*
X212648229Y-96651497D01*
X212600610Y-96556259D01*
X212552991Y-96365782D01*
X212505372Y-96270544D01*
X212457753Y-96222925D01*
X212362515Y-96175306D01*
X212267277Y-96175306D01*
X212172039Y-96222925D01*
X212124420Y-96270544D01*
X212076800Y-96365782D01*
X212076800Y-96603878D01*
X212124420Y-96746735D01*
X212076800Y-97080068D02*
X213076800Y-97318163D01*
X212362515Y-97508640D01*
X213076800Y-97699116D01*
X212076800Y-97937211D01*
X213076800Y-98841973D02*
X213076800Y-98270544D01*
X213076800Y-98556259D02*
X212076800Y-98556259D01*
X212219658Y-98461020D01*
X212314896Y-98365782D01*
X212362515Y-98270544D01*
%TO.C,D35*%
X184266800Y-49274354D02*
X183266800Y-49274354D01*
X183266800Y-49512449D01*
X183314420Y-49655306D01*
X183409658Y-49750544D01*
X183504896Y-49798163D01*
X183695372Y-49845782D01*
X183838229Y-49845782D01*
X184028705Y-49798163D01*
X184123943Y-49750544D01*
X184219181Y-49655306D01*
X184266800Y-49512449D01*
X184266800Y-49274354D01*
X183266800Y-50179116D02*
X183266800Y-50798163D01*
X183647753Y-50464830D01*
X183647753Y-50607687D01*
X183695372Y-50702925D01*
X183742991Y-50750544D01*
X183838229Y-50798163D01*
X184076324Y-50798163D01*
X184171562Y-50750544D01*
X184219181Y-50702925D01*
X184266800Y-50607687D01*
X184266800Y-50321973D01*
X184219181Y-50226735D01*
X184171562Y-50179116D01*
X183266800Y-51702925D02*
X183266800Y-51226735D01*
X183742991Y-51179116D01*
X183695372Y-51226735D01*
X183647753Y-51321973D01*
X183647753Y-51560068D01*
X183695372Y-51655306D01*
X183742991Y-51702925D01*
X183838229Y-51750544D01*
X184076324Y-51750544D01*
X184171562Y-51702925D01*
X184219181Y-51655306D01*
X184266800Y-51560068D01*
X184266800Y-51321973D01*
X184219181Y-51226735D01*
X184171562Y-51179116D01*
X182366800Y-54924354D02*
X182366800Y-54352925D01*
X182366800Y-54638640D02*
X181366800Y-54638640D01*
X181509658Y-54543401D01*
X181604896Y-54448163D01*
X181652515Y-54352925D01*
%TO.C,D37*%
X139356800Y-49804354D02*
X138356800Y-49804354D01*
X138356800Y-50042449D01*
X138404420Y-50185306D01*
X138499658Y-50280544D01*
X138594896Y-50328163D01*
X138785372Y-50375782D01*
X138928229Y-50375782D01*
X139118705Y-50328163D01*
X139213943Y-50280544D01*
X139309181Y-50185306D01*
X139356800Y-50042449D01*
X139356800Y-49804354D01*
X138356800Y-50709116D02*
X138356800Y-51328163D01*
X138737753Y-50994830D01*
X138737753Y-51137687D01*
X138785372Y-51232925D01*
X138832991Y-51280544D01*
X138928229Y-51328163D01*
X139166324Y-51328163D01*
X139261562Y-51280544D01*
X139309181Y-51232925D01*
X139356800Y-51137687D01*
X139356800Y-50851973D01*
X139309181Y-50756735D01*
X139261562Y-50709116D01*
X138356800Y-51661497D02*
X138356800Y-52328163D01*
X139356800Y-51899592D01*
X144606800Y-51054354D02*
X144606800Y-50482925D01*
X144606800Y-50768640D02*
X143606800Y-50768640D01*
X143749658Y-50673401D01*
X143844896Y-50578163D01*
X143892515Y-50482925D01*
%TO.C,D38*%
X181106800Y-125674354D02*
X180106800Y-125674354D01*
X180106800Y-125912449D01*
X180154420Y-126055306D01*
X180249658Y-126150544D01*
X180344896Y-126198163D01*
X180535372Y-126245782D01*
X180678229Y-126245782D01*
X180868705Y-126198163D01*
X180963943Y-126150544D01*
X181059181Y-126055306D01*
X181106800Y-125912449D01*
X181106800Y-125674354D01*
X180106800Y-126579116D02*
X180106800Y-127198163D01*
X180487753Y-126864830D01*
X180487753Y-127007687D01*
X180535372Y-127102925D01*
X180582991Y-127150544D01*
X180678229Y-127198163D01*
X180916324Y-127198163D01*
X181011562Y-127150544D01*
X181059181Y-127102925D01*
X181106800Y-127007687D01*
X181106800Y-126721973D01*
X181059181Y-126626735D01*
X181011562Y-126579116D01*
X180535372Y-127769592D02*
X180487753Y-127674354D01*
X180440134Y-127626735D01*
X180344896Y-127579116D01*
X180297277Y-127579116D01*
X180202039Y-127626735D01*
X180154420Y-127674354D01*
X180106800Y-127769592D01*
X180106800Y-127960068D01*
X180154420Y-128055306D01*
X180202039Y-128102925D01*
X180297277Y-128150544D01*
X180344896Y-128150544D01*
X180440134Y-128102925D01*
X180487753Y-128055306D01*
X180535372Y-127960068D01*
X180535372Y-127769592D01*
X180582991Y-127674354D01*
X180630610Y-127626735D01*
X180725848Y-127579116D01*
X180916324Y-127579116D01*
X181011562Y-127626735D01*
X181059181Y-127674354D01*
X181106800Y-127769592D01*
X181106800Y-127960068D01*
X181059181Y-128055306D01*
X181011562Y-128102925D01*
X180916324Y-128150544D01*
X180725848Y-128150544D01*
X180630610Y-128102925D01*
X180582991Y-128055306D01*
X180535372Y-127960068D01*
X183006800Y-123024354D02*
X183006800Y-122452925D01*
X183006800Y-122738640D02*
X182006800Y-122738640D01*
X182149658Y-122643401D01*
X182244896Y-122548163D01*
X182292515Y-122452925D01*
%TO.C,D40*%
X140138042Y-122842277D02*
X140845148Y-122135170D01*
X140676790Y-121966811D01*
X140542103Y-121899468D01*
X140407416Y-121899468D01*
X140306400Y-121933140D01*
X140138042Y-122034155D01*
X140037026Y-122135170D01*
X139936011Y-122303529D01*
X139902339Y-122404544D01*
X139902339Y-122539231D01*
X139969683Y-122673918D01*
X140138042Y-122842277D01*
X139599294Y-121360720D02*
X139127889Y-121832124D01*
X140037026Y-121259704D02*
X139700309Y-121933140D01*
X139262576Y-121495407D01*
X139329919Y-120619941D02*
X139262576Y-120552598D01*
X139161561Y-120518926D01*
X139094217Y-120518926D01*
X138993202Y-120552598D01*
X138824843Y-120653613D01*
X138656484Y-120821972D01*
X138555469Y-120990330D01*
X138521797Y-121091346D01*
X138521797Y-121158689D01*
X138555469Y-121259704D01*
X138622813Y-121327048D01*
X138723828Y-121360720D01*
X138791171Y-121360720D01*
X138892187Y-121327048D01*
X139060545Y-121226033D01*
X139228904Y-121057674D01*
X139329919Y-120889315D01*
X139363591Y-120788300D01*
X139363591Y-120720956D01*
X139329919Y-120619941D01*
X140668371Y-126059613D02*
X141072432Y-126463674D01*
X140870402Y-126261643D02*
X141577509Y-125554536D01*
X141543837Y-125722895D01*
X141543837Y-125857582D01*
X141577509Y-125958597D01*
%TO.C,D41*%
X89356800Y-64724354D02*
X88356800Y-64724354D01*
X88356800Y-64962449D01*
X88404420Y-65105306D01*
X88499658Y-65200544D01*
X88594896Y-65248163D01*
X88785372Y-65295782D01*
X88928229Y-65295782D01*
X89118705Y-65248163D01*
X89213943Y-65200544D01*
X89309181Y-65105306D01*
X89356800Y-64962449D01*
X89356800Y-64724354D01*
X88690134Y-66152925D02*
X89356800Y-66152925D01*
X88309181Y-65914830D02*
X89023467Y-65676735D01*
X89023467Y-66295782D01*
X89356800Y-67200544D02*
X89356800Y-66629116D01*
X89356800Y-66914830D02*
X88356800Y-66914830D01*
X88499658Y-66819592D01*
X88594896Y-66724354D01*
X88642515Y-66629116D01*
X87456800Y-70374354D02*
X87456800Y-69802925D01*
X87456800Y-70088640D02*
X86456800Y-70088640D01*
X86599658Y-69993401D01*
X86694896Y-69898163D01*
X86742515Y-69802925D01*
%TO.C,D42*%
X82776800Y-105564354D02*
X81776800Y-105564354D01*
X81776800Y-105802449D01*
X81824420Y-105945306D01*
X81919658Y-106040544D01*
X82014896Y-106088163D01*
X82205372Y-106135782D01*
X82348229Y-106135782D01*
X82538705Y-106088163D01*
X82633943Y-106040544D01*
X82729181Y-105945306D01*
X82776800Y-105802449D01*
X82776800Y-105564354D01*
X82110134Y-106992925D02*
X82776800Y-106992925D01*
X81729181Y-106754830D02*
X82443467Y-106516735D01*
X82443467Y-107135782D01*
X81872039Y-107469116D02*
X81824420Y-107516735D01*
X81776800Y-107611973D01*
X81776800Y-107850068D01*
X81824420Y-107945306D01*
X81872039Y-107992925D01*
X81967277Y-108040544D01*
X82062515Y-108040544D01*
X82205372Y-107992925D01*
X82776800Y-107421497D01*
X82776800Y-108040544D01*
X84676800Y-102914354D02*
X84676800Y-102342925D01*
X84676800Y-102628640D02*
X83676800Y-102628640D01*
X83819658Y-102533401D01*
X83914896Y-102438163D01*
X83962515Y-102342925D01*
%TO.C,D43*%
X69646800Y-90614354D02*
X68646800Y-90614354D01*
X68646800Y-90852449D01*
X68694420Y-90995306D01*
X68789658Y-91090544D01*
X68884896Y-91138163D01*
X69075372Y-91185782D01*
X69218229Y-91185782D01*
X69408705Y-91138163D01*
X69503943Y-91090544D01*
X69599181Y-90995306D01*
X69646800Y-90852449D01*
X69646800Y-90614354D01*
X68980134Y-92042925D02*
X69646800Y-92042925D01*
X68599181Y-91804830D02*
X69313467Y-91566735D01*
X69313467Y-92185782D01*
X68646800Y-92471497D02*
X68646800Y-93090544D01*
X69027753Y-92757211D01*
X69027753Y-92900068D01*
X69075372Y-92995306D01*
X69122991Y-93042925D01*
X69218229Y-93090544D01*
X69456324Y-93090544D01*
X69551562Y-93042925D01*
X69599181Y-92995306D01*
X69646800Y-92900068D01*
X69646800Y-92614354D01*
X69599181Y-92519116D01*
X69551562Y-92471497D01*
X67746800Y-96264354D02*
X67746800Y-95692925D01*
X67746800Y-95978640D02*
X66746800Y-95978640D01*
X66889658Y-95883401D01*
X66984896Y-95788163D01*
X67032515Y-95692925D01*
%TO.C,K4*%
X57772515Y-89686020D02*
X57772515Y-88686020D01*
X57201086Y-89686020D02*
X57629658Y-89114592D01*
X57201086Y-88686020D02*
X57772515Y-89257449D01*
X56343943Y-89019354D02*
X56343943Y-89686020D01*
X56582039Y-88638401D02*
X56820134Y-89352687D01*
X56201086Y-89352687D01*
%TO.C,K5*%
X95872515Y-42061020D02*
X95872515Y-41061020D01*
X95301086Y-42061020D02*
X95729658Y-41489592D01*
X95301086Y-41061020D02*
X95872515Y-41632449D01*
X94396324Y-41061020D02*
X94872515Y-41061020D01*
X94920134Y-41537211D01*
X94872515Y-41489592D01*
X94777277Y-41441973D01*
X94539181Y-41441973D01*
X94443943Y-41489592D01*
X94396324Y-41537211D01*
X94348705Y-41632449D01*
X94348705Y-41870544D01*
X94396324Y-41965782D01*
X94443943Y-42013401D01*
X94539181Y-42061020D01*
X94777277Y-42061020D01*
X94872515Y-42013401D01*
X94920134Y-41965782D01*
%TO.C,K6*%
X95872515Y-61111020D02*
X95872515Y-60111020D01*
X95301086Y-61111020D02*
X95729658Y-60539592D01*
X95301086Y-60111020D02*
X95872515Y-60682449D01*
X94443943Y-60111020D02*
X94634420Y-60111020D01*
X94729658Y-60158640D01*
X94777277Y-60206259D01*
X94872515Y-60349116D01*
X94920134Y-60539592D01*
X94920134Y-60920544D01*
X94872515Y-61015782D01*
X94824896Y-61063401D01*
X94729658Y-61111020D01*
X94539181Y-61111020D01*
X94443943Y-61063401D01*
X94396324Y-61015782D01*
X94348705Y-60920544D01*
X94348705Y-60682449D01*
X94396324Y-60587211D01*
X94443943Y-60539592D01*
X94539181Y-60491973D01*
X94729658Y-60491973D01*
X94824896Y-60539592D01*
X94872515Y-60587211D01*
X94920134Y-60682449D01*
%TO.C,K7*%
X95872515Y-80161020D02*
X95872515Y-79161020D01*
X95301086Y-80161020D02*
X95729658Y-79589592D01*
X95301086Y-79161020D02*
X95872515Y-79732449D01*
X94967753Y-79161020D02*
X94301086Y-79161020D01*
X94729658Y-80161020D01*
%TO.C,K8*%
X95872515Y-99211020D02*
X95872515Y-98211020D01*
X95301086Y-99211020D02*
X95729658Y-98639592D01*
X95301086Y-98211020D02*
X95872515Y-98782449D01*
X94729658Y-98639592D02*
X94824896Y-98591973D01*
X94872515Y-98544354D01*
X94920134Y-98449116D01*
X94920134Y-98401497D01*
X94872515Y-98306259D01*
X94824896Y-98258640D01*
X94729658Y-98211020D01*
X94539181Y-98211020D01*
X94443943Y-98258640D01*
X94396324Y-98306259D01*
X94348705Y-98401497D01*
X94348705Y-98449116D01*
X94396324Y-98544354D01*
X94443943Y-98591973D01*
X94539181Y-98639592D01*
X94729658Y-98639592D01*
X94824896Y-98687211D01*
X94872515Y-98734830D01*
X94920134Y-98830068D01*
X94920134Y-99020544D01*
X94872515Y-99115782D01*
X94824896Y-99163401D01*
X94729658Y-99211020D01*
X94539181Y-99211020D01*
X94443943Y-99163401D01*
X94396324Y-99115782D01*
X94348705Y-99020544D01*
X94348705Y-98830068D01*
X94396324Y-98734830D01*
X94443943Y-98687211D01*
X94539181Y-98639592D01*
%TO.C,K9*%
X114922515Y-42061020D02*
X114922515Y-41061020D01*
X114351086Y-42061020D02*
X114779658Y-41489592D01*
X114351086Y-41061020D02*
X114922515Y-41632449D01*
X113874896Y-42061020D02*
X113684420Y-42061020D01*
X113589181Y-42013401D01*
X113541562Y-41965782D01*
X113446324Y-41822925D01*
X113398705Y-41632449D01*
X113398705Y-41251497D01*
X113446324Y-41156259D01*
X113493943Y-41108640D01*
X113589181Y-41061020D01*
X113779658Y-41061020D01*
X113874896Y-41108640D01*
X113922515Y-41156259D01*
X113970134Y-41251497D01*
X113970134Y-41489592D01*
X113922515Y-41584830D01*
X113874896Y-41632449D01*
X113779658Y-41680068D01*
X113589181Y-41680068D01*
X113493943Y-41632449D01*
X113446324Y-41584830D01*
X113398705Y-41489592D01*
%TO.C,K10*%
X115398705Y-61111020D02*
X115398705Y-60111020D01*
X114827277Y-61111020D02*
X115255848Y-60539592D01*
X114827277Y-60111020D02*
X115398705Y-60682449D01*
X113874896Y-61111020D02*
X114446324Y-61111020D01*
X114160610Y-61111020D02*
X114160610Y-60111020D01*
X114255848Y-60253878D01*
X114351086Y-60349116D01*
X114446324Y-60396735D01*
X113255848Y-60111020D02*
X113160610Y-60111020D01*
X113065372Y-60158640D01*
X113017753Y-60206259D01*
X112970134Y-60301497D01*
X112922515Y-60491973D01*
X112922515Y-60730068D01*
X112970134Y-60920544D01*
X113017753Y-61015782D01*
X113065372Y-61063401D01*
X113160610Y-61111020D01*
X113255848Y-61111020D01*
X113351086Y-61063401D01*
X113398705Y-61015782D01*
X113446324Y-60920544D01*
X113493943Y-60730068D01*
X113493943Y-60491973D01*
X113446324Y-60301497D01*
X113398705Y-60206259D01*
X113351086Y-60158640D01*
X113255848Y-60111020D01*
%TO.C,D17*%
X153255848Y-53058044D02*
X153255848Y-52258044D01*
X153065372Y-52258044D01*
X152951086Y-52296140D01*
X152874896Y-52372330D01*
X152836800Y-52448520D01*
X152798705Y-52600901D01*
X152798705Y-52715187D01*
X152836800Y-52867568D01*
X152874896Y-52943759D01*
X152951086Y-53019949D01*
X153065372Y-53058044D01*
X153255848Y-53058044D01*
X152036800Y-53058044D02*
X152493943Y-53058044D01*
X152265372Y-53058044D02*
X152265372Y-52258044D01*
X152341562Y-52372330D01*
X152417753Y-52448520D01*
X152493943Y-52486616D01*
X151770134Y-52258044D02*
X151236800Y-52258044D01*
X151579658Y-53058044D01*
%TO.C,K22*%
X172548705Y-42061020D02*
X172548705Y-41061020D01*
X171977277Y-42061020D02*
X172405848Y-41489592D01*
X171977277Y-41061020D02*
X172548705Y-41632449D01*
X171596324Y-41156259D02*
X171548705Y-41108640D01*
X171453467Y-41061020D01*
X171215372Y-41061020D01*
X171120134Y-41108640D01*
X171072515Y-41156259D01*
X171024896Y-41251497D01*
X171024896Y-41346735D01*
X171072515Y-41489592D01*
X171643943Y-42061020D01*
X171024896Y-42061020D01*
X170643943Y-41156259D02*
X170596324Y-41108640D01*
X170501086Y-41061020D01*
X170262991Y-41061020D01*
X170167753Y-41108640D01*
X170120134Y-41156259D01*
X170072515Y-41251497D01*
X170072515Y-41346735D01*
X170120134Y-41489592D01*
X170691562Y-42061020D01*
X170072515Y-42061020D01*
%TO.C,Brd1*%
X218626800Y-83011020D02*
X218436324Y-83011020D01*
X218341086Y-83058640D01*
X218245848Y-83153878D01*
X218198229Y-83344354D01*
X218198229Y-83677687D01*
X218245848Y-83868163D01*
X218341086Y-83963401D01*
X218436324Y-84011020D01*
X218626800Y-84011020D01*
X218722039Y-83963401D01*
X218817277Y-83868163D01*
X218864896Y-83677687D01*
X218864896Y-83344354D01*
X218817277Y-83153878D01*
X218722039Y-83058640D01*
X218626800Y-83011020D01*
X217293467Y-84011020D02*
X217769658Y-84011020D01*
X217769658Y-83011020D01*
X216960134Y-83487211D02*
X216626800Y-83487211D01*
X216483943Y-84011020D02*
X216960134Y-84011020D01*
X216960134Y-83011020D01*
X216483943Y-83011020D01*
X216055372Y-84011020D02*
X216055372Y-83011020D01*
X215817277Y-83011020D01*
X215674420Y-83058640D01*
X215579181Y-83153878D01*
X215531562Y-83249116D01*
X215483943Y-83439592D01*
X215483943Y-83582449D01*
X215531562Y-83772925D01*
X215579181Y-83868163D01*
X215674420Y-83963401D01*
X215817277Y-84011020D01*
X216055372Y-84011020D01*
%TO.C,D27*%
X191365848Y-57815544D02*
X191365848Y-57015544D01*
X191175372Y-57015544D01*
X191061086Y-57053640D01*
X190984896Y-57129830D01*
X190946800Y-57206020D01*
X190908705Y-57358401D01*
X190908705Y-57472687D01*
X190946800Y-57625068D01*
X190984896Y-57701259D01*
X191061086Y-57777449D01*
X191175372Y-57815544D01*
X191365848Y-57815544D01*
X190603943Y-57091735D02*
X190565848Y-57053640D01*
X190489658Y-57015544D01*
X190299181Y-57015544D01*
X190222991Y-57053640D01*
X190184896Y-57091735D01*
X190146800Y-57167925D01*
X190146800Y-57244116D01*
X190184896Y-57358401D01*
X190642039Y-57815544D01*
X190146800Y-57815544D01*
X189880134Y-57015544D02*
X189346800Y-57015544D01*
X189689658Y-57815544D01*
%TO.C,D20*%
X153255848Y-110218044D02*
X153255848Y-109418044D01*
X153065372Y-109418044D01*
X152951086Y-109456140D01*
X152874896Y-109532330D01*
X152836800Y-109608520D01*
X152798705Y-109760901D01*
X152798705Y-109875187D01*
X152836800Y-110027568D01*
X152874896Y-110103759D01*
X152951086Y-110179949D01*
X153065372Y-110218044D01*
X153255848Y-110218044D01*
X152493943Y-109494235D02*
X152455848Y-109456140D01*
X152379658Y-109418044D01*
X152189181Y-109418044D01*
X152112991Y-109456140D01*
X152074896Y-109494235D01*
X152036800Y-109570425D01*
X152036800Y-109646616D01*
X152074896Y-109760901D01*
X152532039Y-110218044D01*
X152036800Y-110218044D01*
X151541562Y-109418044D02*
X151465372Y-109418044D01*
X151389181Y-109456140D01*
X151351086Y-109494235D01*
X151312991Y-109570425D01*
X151274896Y-109722806D01*
X151274896Y-109913282D01*
X151312991Y-110065663D01*
X151351086Y-110141854D01*
X151389181Y-110179949D01*
X151465372Y-110218044D01*
X151541562Y-110218044D01*
X151617753Y-110179949D01*
X151655848Y-110141854D01*
X151693943Y-110065663D01*
X151732039Y-109913282D01*
X151732039Y-109722806D01*
X151693943Y-109570425D01*
X151655848Y-109494235D01*
X151617753Y-109456140D01*
X151541562Y-109418044D01*
%TO.C,D25*%
X172305848Y-110215544D02*
X172305848Y-109415544D01*
X172115372Y-109415544D01*
X172001086Y-109453640D01*
X171924896Y-109529830D01*
X171886800Y-109606020D01*
X171848705Y-109758401D01*
X171848705Y-109872687D01*
X171886800Y-110025068D01*
X171924896Y-110101259D01*
X172001086Y-110177449D01*
X172115372Y-110215544D01*
X172305848Y-110215544D01*
X171543943Y-109491735D02*
X171505848Y-109453640D01*
X171429658Y-109415544D01*
X171239181Y-109415544D01*
X171162991Y-109453640D01*
X171124896Y-109491735D01*
X171086800Y-109567925D01*
X171086800Y-109644116D01*
X171124896Y-109758401D01*
X171582039Y-110215544D01*
X171086800Y-110215544D01*
X170362991Y-109415544D02*
X170743943Y-109415544D01*
X170782039Y-109796497D01*
X170743943Y-109758401D01*
X170667753Y-109720306D01*
X170477277Y-109720306D01*
X170401086Y-109758401D01*
X170362991Y-109796497D01*
X170324896Y-109872687D01*
X170324896Y-110063163D01*
X170362991Y-110139354D01*
X170401086Y-110177449D01*
X170477277Y-110215544D01*
X170667753Y-110215544D01*
X170743943Y-110177449D01*
X170782039Y-110139354D01*
%TO.C,D16*%
X134205848Y-110218044D02*
X134205848Y-109418044D01*
X134015372Y-109418044D01*
X133901086Y-109456140D01*
X133824896Y-109532330D01*
X133786800Y-109608520D01*
X133748705Y-109760901D01*
X133748705Y-109875187D01*
X133786800Y-110027568D01*
X133824896Y-110103759D01*
X133901086Y-110179949D01*
X134015372Y-110218044D01*
X134205848Y-110218044D01*
X132986800Y-110218044D02*
X133443943Y-110218044D01*
X133215372Y-110218044D02*
X133215372Y-109418044D01*
X133291562Y-109532330D01*
X133367753Y-109608520D01*
X133443943Y-109646616D01*
X132301086Y-109418044D02*
X132453467Y-109418044D01*
X132529658Y-109456140D01*
X132567753Y-109494235D01*
X132643943Y-109608520D01*
X132682039Y-109760901D01*
X132682039Y-110065663D01*
X132643943Y-110141854D01*
X132605848Y-110179949D01*
X132529658Y-110218044D01*
X132377277Y-110218044D01*
X132301086Y-110179949D01*
X132262991Y-110141854D01*
X132224896Y-110065663D01*
X132224896Y-109875187D01*
X132262991Y-109798997D01*
X132301086Y-109760901D01*
X132377277Y-109722806D01*
X132529658Y-109722806D01*
X132605848Y-109760901D01*
X132643943Y-109798997D01*
X132682039Y-109875187D01*
%TO.C,D4*%
X57624896Y-100685544D02*
X57624896Y-99885544D01*
X57434420Y-99885544D01*
X57320134Y-99923640D01*
X57243943Y-99999830D01*
X57205848Y-100076020D01*
X57167753Y-100228401D01*
X57167753Y-100342687D01*
X57205848Y-100495068D01*
X57243943Y-100571259D01*
X57320134Y-100647449D01*
X57434420Y-100685544D01*
X57624896Y-100685544D01*
X56482039Y-100152211D02*
X56482039Y-100685544D01*
X56672515Y-99847449D02*
X56862991Y-100418878D01*
X56367753Y-100418878D01*
%TO.C,D12*%
X115155848Y-110215544D02*
X115155848Y-109415544D01*
X114965372Y-109415544D01*
X114851086Y-109453640D01*
X114774896Y-109529830D01*
X114736800Y-109606020D01*
X114698705Y-109758401D01*
X114698705Y-109872687D01*
X114736800Y-110025068D01*
X114774896Y-110101259D01*
X114851086Y-110177449D01*
X114965372Y-110215544D01*
X115155848Y-110215544D01*
X113936800Y-110215544D02*
X114393943Y-110215544D01*
X114165372Y-110215544D02*
X114165372Y-109415544D01*
X114241562Y-109529830D01*
X114317753Y-109606020D01*
X114393943Y-109644116D01*
X113632039Y-109491735D02*
X113593943Y-109453640D01*
X113517753Y-109415544D01*
X113327277Y-109415544D01*
X113251086Y-109453640D01*
X113212991Y-109491735D01*
X113174896Y-109567925D01*
X113174896Y-109644116D01*
X113212991Y-109758401D01*
X113670134Y-110215544D01*
X113174896Y-110215544D01*
%TO.C,D31*%
X191355848Y-143550544D02*
X191355848Y-142750544D01*
X191165372Y-142750544D01*
X191051086Y-142788640D01*
X190974896Y-142864830D01*
X190936800Y-142941020D01*
X190898705Y-143093401D01*
X190898705Y-143207687D01*
X190936800Y-143360068D01*
X190974896Y-143436259D01*
X191051086Y-143512449D01*
X191165372Y-143550544D01*
X191355848Y-143550544D01*
X190632039Y-142750544D02*
X190136800Y-142750544D01*
X190403467Y-143055306D01*
X190289181Y-143055306D01*
X190212991Y-143093401D01*
X190174896Y-143131497D01*
X190136800Y-143207687D01*
X190136800Y-143398163D01*
X190174896Y-143474354D01*
X190212991Y-143512449D01*
X190289181Y-143550544D01*
X190517753Y-143550544D01*
X190593943Y-143512449D01*
X190632039Y-143474354D01*
X189374896Y-143550544D02*
X189832039Y-143550544D01*
X189603467Y-143550544D02*
X189603467Y-142750544D01*
X189679658Y-142864830D01*
X189755848Y-142941020D01*
X189832039Y-142979116D01*
%TO.C,D30*%
X201059099Y-120880268D02*
X201624784Y-120314582D01*
X201490097Y-120179895D01*
X201382348Y-120126020D01*
X201274598Y-120126020D01*
X201193786Y-120152958D01*
X201059099Y-120233770D01*
X200978287Y-120314582D01*
X200897475Y-120449269D01*
X200870537Y-120530081D01*
X200870537Y-120637831D01*
X200924412Y-120745581D01*
X201059099Y-120880268D01*
X201112974Y-119802771D02*
X200762788Y-119452585D01*
X200735850Y-119856646D01*
X200655038Y-119775834D01*
X200574226Y-119748897D01*
X200520351Y-119748897D01*
X200439539Y-119775834D01*
X200304852Y-119910521D01*
X200277914Y-119991333D01*
X200277914Y-120045208D01*
X200304852Y-120126020D01*
X200466476Y-120287645D01*
X200547288Y-120314582D01*
X200601163Y-120314582D01*
X200412601Y-119102399D02*
X200358726Y-119048524D01*
X200277914Y-119021587D01*
X200224039Y-119021587D01*
X200143227Y-119048524D01*
X200008540Y-119129336D01*
X199873853Y-119264023D01*
X199793041Y-119398710D01*
X199766104Y-119479523D01*
X199766104Y-119533397D01*
X199793041Y-119614210D01*
X199846916Y-119668084D01*
X199927728Y-119695022D01*
X199981603Y-119695022D01*
X200062415Y-119668084D01*
X200197102Y-119587272D01*
X200331789Y-119452585D01*
X200412601Y-119317898D01*
X200439539Y-119237086D01*
X200439539Y-119183211D01*
X200412601Y-119102399D01*
%TO.C,D26*%
X172305848Y-138783044D02*
X172305848Y-137983044D01*
X172115372Y-137983044D01*
X172001086Y-138021140D01*
X171924896Y-138097330D01*
X171886800Y-138173520D01*
X171848705Y-138325901D01*
X171848705Y-138440187D01*
X171886800Y-138592568D01*
X171924896Y-138668759D01*
X172001086Y-138744949D01*
X172115372Y-138783044D01*
X172305848Y-138783044D01*
X171543943Y-138059235D02*
X171505848Y-138021140D01*
X171429658Y-137983044D01*
X171239181Y-137983044D01*
X171162991Y-138021140D01*
X171124896Y-138059235D01*
X171086800Y-138135425D01*
X171086800Y-138211616D01*
X171124896Y-138325901D01*
X171582039Y-138783044D01*
X171086800Y-138783044D01*
X170401086Y-137983044D02*
X170553467Y-137983044D01*
X170629658Y-138021140D01*
X170667753Y-138059235D01*
X170743943Y-138173520D01*
X170782039Y-138325901D01*
X170782039Y-138630663D01*
X170743943Y-138706854D01*
X170705848Y-138744949D01*
X170629658Y-138783044D01*
X170477277Y-138783044D01*
X170401086Y-138744949D01*
X170362991Y-138706854D01*
X170324896Y-138630663D01*
X170324896Y-138440187D01*
X170362991Y-138363997D01*
X170401086Y-138325901D01*
X170477277Y-138287806D01*
X170629658Y-138287806D01*
X170705848Y-138325901D01*
X170743943Y-138363997D01*
X170782039Y-138440187D01*
%TO.C,K12*%
X115398705Y-99211020D02*
X115398705Y-98211020D01*
X114827277Y-99211020D02*
X115255848Y-98639592D01*
X114827277Y-98211020D02*
X115398705Y-98782449D01*
X113874896Y-99211020D02*
X114446324Y-99211020D01*
X114160610Y-99211020D02*
X114160610Y-98211020D01*
X114255848Y-98353878D01*
X114351086Y-98449116D01*
X114446324Y-98496735D01*
X113493943Y-98306259D02*
X113446324Y-98258640D01*
X113351086Y-98211020D01*
X113112991Y-98211020D01*
X113017753Y-98258640D01*
X112970134Y-98306259D01*
X112922515Y-98401497D01*
X112922515Y-98496735D01*
X112970134Y-98639592D01*
X113541562Y-99211020D01*
X112922515Y-99211020D01*
%TO.C,K13*%
X134448705Y-42061020D02*
X134448705Y-41061020D01*
X133877277Y-42061020D02*
X134305848Y-41489592D01*
X133877277Y-41061020D02*
X134448705Y-41632449D01*
X132924896Y-42061020D02*
X133496324Y-42061020D01*
X133210610Y-42061020D02*
X133210610Y-41061020D01*
X133305848Y-41203878D01*
X133401086Y-41299116D01*
X133496324Y-41346735D01*
X132591562Y-41061020D02*
X131972515Y-41061020D01*
X132305848Y-41441973D01*
X132162991Y-41441973D01*
X132067753Y-41489592D01*
X132020134Y-41537211D01*
X131972515Y-41632449D01*
X131972515Y-41870544D01*
X132020134Y-41965782D01*
X132067753Y-42013401D01*
X132162991Y-42061020D01*
X132448705Y-42061020D01*
X132543943Y-42013401D01*
X132591562Y-41965782D01*
%TO.C,K14*%
X134448705Y-61111020D02*
X134448705Y-60111020D01*
X133877277Y-61111020D02*
X134305848Y-60539592D01*
X133877277Y-60111020D02*
X134448705Y-60682449D01*
X132924896Y-61111020D02*
X133496324Y-61111020D01*
X133210610Y-61111020D02*
X133210610Y-60111020D01*
X133305848Y-60253878D01*
X133401086Y-60349116D01*
X133496324Y-60396735D01*
X132067753Y-60444354D02*
X132067753Y-61111020D01*
X132305848Y-60063401D02*
X132543943Y-60777687D01*
X131924896Y-60777687D01*
%TO.C,K15*%
X134448705Y-80161020D02*
X134448705Y-79161020D01*
X133877277Y-80161020D02*
X134305848Y-79589592D01*
X133877277Y-79161020D02*
X134448705Y-79732449D01*
X132924896Y-80161020D02*
X133496324Y-80161020D01*
X133210610Y-80161020D02*
X133210610Y-79161020D01*
X133305848Y-79303878D01*
X133401086Y-79399116D01*
X133496324Y-79446735D01*
X132020134Y-79161020D02*
X132496324Y-79161020D01*
X132543943Y-79637211D01*
X132496324Y-79589592D01*
X132401086Y-79541973D01*
X132162991Y-79541973D01*
X132067753Y-79589592D01*
X132020134Y-79637211D01*
X131972515Y-79732449D01*
X131972515Y-79970544D01*
X132020134Y-80065782D01*
X132067753Y-80113401D01*
X132162991Y-80161020D01*
X132401086Y-80161020D01*
X132496324Y-80113401D01*
X132543943Y-80065782D01*
%TO.C,K16*%
X134448705Y-99211020D02*
X134448705Y-98211020D01*
X133877277Y-99211020D02*
X134305848Y-98639592D01*
X133877277Y-98211020D02*
X134448705Y-98782449D01*
X132924896Y-99211020D02*
X133496324Y-99211020D01*
X133210610Y-99211020D02*
X133210610Y-98211020D01*
X133305848Y-98353878D01*
X133401086Y-98449116D01*
X133496324Y-98496735D01*
X132067753Y-98211020D02*
X132258229Y-98211020D01*
X132353467Y-98258640D01*
X132401086Y-98306259D01*
X132496324Y-98449116D01*
X132543943Y-98639592D01*
X132543943Y-99020544D01*
X132496324Y-99115782D01*
X132448705Y-99163401D01*
X132353467Y-99211020D01*
X132162991Y-99211020D01*
X132067753Y-99163401D01*
X132020134Y-99115782D01*
X131972515Y-99020544D01*
X131972515Y-98782449D01*
X132020134Y-98687211D01*
X132067753Y-98639592D01*
X132162991Y-98591973D01*
X132353467Y-98591973D01*
X132448705Y-98639592D01*
X132496324Y-98687211D01*
X132543943Y-98782449D01*
%TO.C,K17*%
X153498705Y-42061020D02*
X153498705Y-41061020D01*
X152927277Y-42061020D02*
X153355848Y-41489592D01*
X152927277Y-41061020D02*
X153498705Y-41632449D01*
X151974896Y-42061020D02*
X152546324Y-42061020D01*
X152260610Y-42061020D02*
X152260610Y-41061020D01*
X152355848Y-41203878D01*
X152451086Y-41299116D01*
X152546324Y-41346735D01*
X151641562Y-41061020D02*
X150974896Y-41061020D01*
X151403467Y-42061020D01*
%TO.C,K18*%
X153498705Y-61111020D02*
X153498705Y-60111020D01*
X152927277Y-61111020D02*
X153355848Y-60539592D01*
X152927277Y-60111020D02*
X153498705Y-60682449D01*
X151974896Y-61111020D02*
X152546324Y-61111020D01*
X152260610Y-61111020D02*
X152260610Y-60111020D01*
X152355848Y-60253878D01*
X152451086Y-60349116D01*
X152546324Y-60396735D01*
X151403467Y-60539592D02*
X151498705Y-60491973D01*
X151546324Y-60444354D01*
X151593943Y-60349116D01*
X151593943Y-60301497D01*
X151546324Y-60206259D01*
X151498705Y-60158640D01*
X151403467Y-60111020D01*
X151212991Y-60111020D01*
X151117753Y-60158640D01*
X151070134Y-60206259D01*
X151022515Y-60301497D01*
X151022515Y-60349116D01*
X151070134Y-60444354D01*
X151117753Y-60491973D01*
X151212991Y-60539592D01*
X151403467Y-60539592D01*
X151498705Y-60587211D01*
X151546324Y-60634830D01*
X151593943Y-60730068D01*
X151593943Y-60920544D01*
X151546324Y-61015782D01*
X151498705Y-61063401D01*
X151403467Y-61111020D01*
X151212991Y-61111020D01*
X151117753Y-61063401D01*
X151070134Y-61015782D01*
X151022515Y-60920544D01*
X151022515Y-60730068D01*
X151070134Y-60634830D01*
X151117753Y-60587211D01*
X151212991Y-60539592D01*
%TO.C,K19*%
X153498705Y-80161020D02*
X153498705Y-79161020D01*
X152927277Y-80161020D02*
X153355848Y-79589592D01*
X152927277Y-79161020D02*
X153498705Y-79732449D01*
X151974896Y-80161020D02*
X152546324Y-80161020D01*
X152260610Y-80161020D02*
X152260610Y-79161020D01*
X152355848Y-79303878D01*
X152451086Y-79399116D01*
X152546324Y-79446735D01*
X151498705Y-80161020D02*
X151308229Y-80161020D01*
X151212991Y-80113401D01*
X151165372Y-80065782D01*
X151070134Y-79922925D01*
X151022515Y-79732449D01*
X151022515Y-79351497D01*
X151070134Y-79256259D01*
X151117753Y-79208640D01*
X151212991Y-79161020D01*
X151403467Y-79161020D01*
X151498705Y-79208640D01*
X151546324Y-79256259D01*
X151593943Y-79351497D01*
X151593943Y-79589592D01*
X151546324Y-79684830D01*
X151498705Y-79732449D01*
X151403467Y-79780068D01*
X151212991Y-79780068D01*
X151117753Y-79732449D01*
X151070134Y-79684830D01*
X151022515Y-79589592D01*
%TO.C,K20*%
X153498705Y-99211020D02*
X153498705Y-98211020D01*
X152927277Y-99211020D02*
X153355848Y-98639592D01*
X152927277Y-98211020D02*
X153498705Y-98782449D01*
X152546324Y-98306259D02*
X152498705Y-98258640D01*
X152403467Y-98211020D01*
X152165372Y-98211020D01*
X152070134Y-98258640D01*
X152022515Y-98306259D01*
X151974896Y-98401497D01*
X151974896Y-98496735D01*
X152022515Y-98639592D01*
X152593943Y-99211020D01*
X151974896Y-99211020D01*
X151355848Y-98211020D02*
X151260610Y-98211020D01*
X151165372Y-98258640D01*
X151117753Y-98306259D01*
X151070134Y-98401497D01*
X151022515Y-98591973D01*
X151022515Y-98830068D01*
X151070134Y-99020544D01*
X151117753Y-99115782D01*
X151165372Y-99163401D01*
X151260610Y-99211020D01*
X151355848Y-99211020D01*
X151451086Y-99163401D01*
X151498705Y-99115782D01*
X151546324Y-99020544D01*
X151593943Y-98830068D01*
X151593943Y-98591973D01*
X151546324Y-98401497D01*
X151498705Y-98306259D01*
X151451086Y-98258640D01*
X151355848Y-98211020D01*
%TO.C,K21*%
X153498705Y-123023520D02*
X153498705Y-122023520D01*
X152927277Y-123023520D02*
X153355848Y-122452092D01*
X152927277Y-122023520D02*
X153498705Y-122594949D01*
X152546324Y-122118759D02*
X152498705Y-122071140D01*
X152403467Y-122023520D01*
X152165372Y-122023520D01*
X152070134Y-122071140D01*
X152022515Y-122118759D01*
X151974896Y-122213997D01*
X151974896Y-122309235D01*
X152022515Y-122452092D01*
X152593943Y-123023520D01*
X151974896Y-123023520D01*
X151022515Y-123023520D02*
X151593943Y-123023520D01*
X151308229Y-123023520D02*
X151308229Y-122023520D01*
X151403467Y-122166378D01*
X151498705Y-122261616D01*
X151593943Y-122309235D01*
%TO.C,K23*%
X172548705Y-61111020D02*
X172548705Y-60111020D01*
X171977277Y-61111020D02*
X172405848Y-60539592D01*
X171977277Y-60111020D02*
X172548705Y-60682449D01*
X171596324Y-60206259D02*
X171548705Y-60158640D01*
X171453467Y-60111020D01*
X171215372Y-60111020D01*
X171120134Y-60158640D01*
X171072515Y-60206259D01*
X171024896Y-60301497D01*
X171024896Y-60396735D01*
X171072515Y-60539592D01*
X171643943Y-61111020D01*
X171024896Y-61111020D01*
X170691562Y-60111020D02*
X170072515Y-60111020D01*
X170405848Y-60491973D01*
X170262991Y-60491973D01*
X170167753Y-60539592D01*
X170120134Y-60587211D01*
X170072515Y-60682449D01*
X170072515Y-60920544D01*
X170120134Y-61015782D01*
X170167753Y-61063401D01*
X170262991Y-61111020D01*
X170548705Y-61111020D01*
X170643943Y-61063401D01*
X170691562Y-61015782D01*
%TO.C,K24*%
X172548705Y-80161020D02*
X172548705Y-79161020D01*
X171977277Y-80161020D02*
X172405848Y-79589592D01*
X171977277Y-79161020D02*
X172548705Y-79732449D01*
X171596324Y-79256259D02*
X171548705Y-79208640D01*
X171453467Y-79161020D01*
X171215372Y-79161020D01*
X171120134Y-79208640D01*
X171072515Y-79256259D01*
X171024896Y-79351497D01*
X171024896Y-79446735D01*
X171072515Y-79589592D01*
X171643943Y-80161020D01*
X171024896Y-80161020D01*
X170167753Y-79494354D02*
X170167753Y-80161020D01*
X170405848Y-79113401D02*
X170643943Y-79827687D01*
X170024896Y-79827687D01*
%TO.C,K25*%
X172548705Y-99211020D02*
X172548705Y-98211020D01*
X171977277Y-99211020D02*
X172405848Y-98639592D01*
X171977277Y-98211020D02*
X172548705Y-98782449D01*
X171596324Y-98306259D02*
X171548705Y-98258640D01*
X171453467Y-98211020D01*
X171215372Y-98211020D01*
X171120134Y-98258640D01*
X171072515Y-98306259D01*
X171024896Y-98401497D01*
X171024896Y-98496735D01*
X171072515Y-98639592D01*
X171643943Y-99211020D01*
X171024896Y-99211020D01*
X170120134Y-98211020D02*
X170596324Y-98211020D01*
X170643943Y-98687211D01*
X170596324Y-98639592D01*
X170501086Y-98591973D01*
X170262991Y-98591973D01*
X170167753Y-98639592D01*
X170120134Y-98687211D01*
X170072515Y-98782449D01*
X170072515Y-99020544D01*
X170120134Y-99115782D01*
X170167753Y-99163401D01*
X170262991Y-99211020D01*
X170501086Y-99211020D01*
X170596324Y-99163401D01*
X170643943Y-99115782D01*
%TO.C,K27*%
X191598705Y-46823520D02*
X191598705Y-45823520D01*
X191027277Y-46823520D02*
X191455848Y-46252092D01*
X191027277Y-45823520D02*
X191598705Y-46394949D01*
X190646324Y-45918759D02*
X190598705Y-45871140D01*
X190503467Y-45823520D01*
X190265372Y-45823520D01*
X190170134Y-45871140D01*
X190122515Y-45918759D01*
X190074896Y-46013997D01*
X190074896Y-46109235D01*
X190122515Y-46252092D01*
X190693943Y-46823520D01*
X190074896Y-46823520D01*
X189741562Y-45823520D02*
X189074896Y-45823520D01*
X189503467Y-46823520D01*
%TO.C,K28*%
X191598705Y-65873520D02*
X191598705Y-64873520D01*
X191027277Y-65873520D02*
X191455848Y-65302092D01*
X191027277Y-64873520D02*
X191598705Y-65444949D01*
X190646324Y-64968759D02*
X190598705Y-64921140D01*
X190503467Y-64873520D01*
X190265372Y-64873520D01*
X190170134Y-64921140D01*
X190122515Y-64968759D01*
X190074896Y-65063997D01*
X190074896Y-65159235D01*
X190122515Y-65302092D01*
X190693943Y-65873520D01*
X190074896Y-65873520D01*
X189503467Y-65302092D02*
X189598705Y-65254473D01*
X189646324Y-65206854D01*
X189693943Y-65111616D01*
X189693943Y-65063997D01*
X189646324Y-64968759D01*
X189598705Y-64921140D01*
X189503467Y-64873520D01*
X189312991Y-64873520D01*
X189217753Y-64921140D01*
X189170134Y-64968759D01*
X189122515Y-65063997D01*
X189122515Y-65111616D01*
X189170134Y-65206854D01*
X189217753Y-65254473D01*
X189312991Y-65302092D01*
X189503467Y-65302092D01*
X189598705Y-65349711D01*
X189646324Y-65397330D01*
X189693943Y-65492568D01*
X189693943Y-65683044D01*
X189646324Y-65778282D01*
X189598705Y-65825901D01*
X189503467Y-65873520D01*
X189312991Y-65873520D01*
X189217753Y-65825901D01*
X189170134Y-65778282D01*
X189122515Y-65683044D01*
X189122515Y-65492568D01*
X189170134Y-65397330D01*
X189217753Y-65349711D01*
X189312991Y-65302092D01*
%TO.C,K29*%
X191598705Y-84923520D02*
X191598705Y-83923520D01*
X191027277Y-84923520D02*
X191455848Y-84352092D01*
X191027277Y-83923520D02*
X191598705Y-84494949D01*
X190646324Y-84018759D02*
X190598705Y-83971140D01*
X190503467Y-83923520D01*
X190265372Y-83923520D01*
X190170134Y-83971140D01*
X190122515Y-84018759D01*
X190074896Y-84113997D01*
X190074896Y-84209235D01*
X190122515Y-84352092D01*
X190693943Y-84923520D01*
X190074896Y-84923520D01*
X189598705Y-84923520D02*
X189408229Y-84923520D01*
X189312991Y-84875901D01*
X189265372Y-84828282D01*
X189170134Y-84685425D01*
X189122515Y-84494949D01*
X189122515Y-84113997D01*
X189170134Y-84018759D01*
X189217753Y-83971140D01*
X189312991Y-83923520D01*
X189503467Y-83923520D01*
X189598705Y-83971140D01*
X189646324Y-84018759D01*
X189693943Y-84113997D01*
X189693943Y-84352092D01*
X189646324Y-84447330D01*
X189598705Y-84494949D01*
X189503467Y-84542568D01*
X189312991Y-84542568D01*
X189217753Y-84494949D01*
X189170134Y-84447330D01*
X189122515Y-84352092D01*
%TO.C,K30*%
X208945899Y-113697789D02*
X209653005Y-112990682D01*
X208541838Y-113293728D02*
X209248944Y-113192713D01*
X209248944Y-112586621D02*
X209248944Y-113394743D01*
X209013242Y-112350919D02*
X208575509Y-111913186D01*
X208541838Y-112418262D01*
X208440822Y-112317247D01*
X208339807Y-112283575D01*
X208272463Y-112283575D01*
X208171448Y-112317247D01*
X208003089Y-112485606D01*
X207969418Y-112586621D01*
X207969418Y-112653965D01*
X208003089Y-112754980D01*
X208205120Y-112957010D01*
X208306135Y-112990682D01*
X208373479Y-112990682D01*
X208137776Y-111475453D02*
X208070433Y-111408110D01*
X207969418Y-111374438D01*
X207902074Y-111374438D01*
X207801059Y-111408110D01*
X207632700Y-111509125D01*
X207464341Y-111677484D01*
X207363326Y-111845842D01*
X207329654Y-111946858D01*
X207329654Y-112014201D01*
X207363326Y-112115216D01*
X207430670Y-112182560D01*
X207531685Y-112216232D01*
X207599028Y-112216232D01*
X207700044Y-112182560D01*
X207868402Y-112081545D01*
X208036761Y-111913186D01*
X208137776Y-111744827D01*
X208171448Y-111643812D01*
X208171448Y-111576468D01*
X208137776Y-111475453D01*
%TO.C,K31*%
X191598705Y-132548520D02*
X191598705Y-131548520D01*
X191027277Y-132548520D02*
X191455848Y-131977092D01*
X191027277Y-131548520D02*
X191598705Y-132119949D01*
X190693943Y-131548520D02*
X190074896Y-131548520D01*
X190408229Y-131929473D01*
X190265372Y-131929473D01*
X190170134Y-131977092D01*
X190122515Y-132024711D01*
X190074896Y-132119949D01*
X190074896Y-132358044D01*
X190122515Y-132453282D01*
X190170134Y-132500901D01*
X190265372Y-132548520D01*
X190551086Y-132548520D01*
X190646324Y-132500901D01*
X190693943Y-132453282D01*
X189122515Y-132548520D02*
X189693943Y-132548520D01*
X189408229Y-132548520D02*
X189408229Y-131548520D01*
X189503467Y-131691378D01*
X189598705Y-131786616D01*
X189693943Y-131834235D01*
%TO.C,Brd1*%
X215956800Y-81511020D02*
X215766324Y-81511020D01*
X215671086Y-81558640D01*
X215575848Y-81653878D01*
X215528229Y-81844354D01*
X215528229Y-82177687D01*
X215575848Y-82368163D01*
X215671086Y-82463401D01*
X215766324Y-82511020D01*
X215956800Y-82511020D01*
X216052039Y-82463401D01*
X216147277Y-82368163D01*
X216194896Y-82177687D01*
X216194896Y-81844354D01*
X216147277Y-81653878D01*
X216052039Y-81558640D01*
X215956800Y-81511020D01*
X214623467Y-82511020D02*
X215099658Y-82511020D01*
X215099658Y-81511020D01*
X214290134Y-81987211D02*
X213956800Y-81987211D01*
X213813943Y-82511020D02*
X214290134Y-82511020D01*
X214290134Y-81511020D01*
X213813943Y-81511020D01*
X213385372Y-82511020D02*
X213385372Y-81511020D01*
X213147277Y-81511020D01*
X213004420Y-81558640D01*
X212909181Y-81653878D01*
X212861562Y-81749116D01*
X212813943Y-81939592D01*
X212813943Y-82082449D01*
X212861562Y-82272925D01*
X212909181Y-82368163D01*
X213004420Y-82463401D01*
X213147277Y-82511020D01*
X213385372Y-82511020D01*
%TD*%
M02*
