%TF.GenerationSoftware,KiCad,Pcbnew,5.1.9*%
%TF.CreationDate,2021-04-18T16:48:49+02:00*%
%TF.ProjectId,Crystal-Zeliska,43727973-7461-46c2-9d5a-656c69736b61,rev?*%
%TF.SameCoordinates,Original*%
%TF.FileFunction,Profile,NP*%
%FSLAX46Y46*%
G04 Gerber Fmt 4.6, Leading zero omitted, Abs format (unit mm)*
G04 Created by KiCad (PCBNEW 5.1.9) date 2021-04-18 16:48:49*
%MOMM*%
%LPD*%
G01*
G04 APERTURE LIST*
%TA.AperFunction,Profile*%
%ADD10C,0.100000*%
%TD*%
G04 APERTURE END LIST*
D10*
X228675669Y-44018641D02*
X228675669Y-109198640D01*
X227356574Y-42718634D02*
X185621920Y-42718634D01*
X228670670Y-109208640D02*
X228675669Y-109198640D01*
X223721920Y-114157390D02*
X228670670Y-109208640D01*
X227356574Y-42718635D02*
G75*
G02*
X228675669Y-44018641I9096J-1310005D01*
G01*
X116565670Y-118919890D02*
X66559420Y-118919890D01*
X66559420Y-118919890D02*
G75*
G02*
X64178170Y-116538640I0J2381250D01*
G01*
X61796920Y-109394890D02*
G75*
G02*
X64178170Y-111776140I0J-2381250D01*
G01*
X47509420Y-109394890D02*
G75*
G02*
X45128170Y-107013640I0J2381250D01*
G01*
X45128170Y-87963640D02*
G75*
G02*
X47509420Y-85582390I2381250J0D01*
G01*
X64178170Y-83201140D02*
G75*
G02*
X61796920Y-85582390I-2381250J0D01*
G01*
X83228170Y-54626140D02*
G75*
G02*
X80846920Y-57007390I-2381250J0D01*
G01*
X64178170Y-59388640D02*
G75*
G02*
X66559420Y-57007390I2381250J0D01*
G01*
X83228170Y-40338640D02*
G75*
G02*
X85609420Y-37957390I2381250J0D01*
G01*
X202290670Y-149876140D02*
G75*
G02*
X199909420Y-152257390I-2381250J0D01*
G01*
X121328170Y-123682390D02*
X116565670Y-118919890D01*
X128471920Y-123682390D02*
X121328170Y-123682390D01*
X133234420Y-128444890D02*
X128471920Y-123682390D01*
X133234420Y-135588640D02*
X133234420Y-128444890D01*
X142759420Y-142732390D02*
X133234420Y-135588640D01*
X221340670Y-116538640D02*
X223721920Y-114157390D01*
X202290670Y-135588640D02*
X221340670Y-116538640D01*
X202290670Y-149876140D02*
X202290670Y-135588640D01*
X180859420Y-152257390D02*
X199909420Y-152257390D01*
X176096920Y-147494890D02*
X180859420Y-152257390D01*
X161809420Y-147494890D02*
X176096920Y-147494890D01*
X157046920Y-142732390D02*
X161809420Y-147494890D01*
X142759420Y-142732390D02*
X157046920Y-142732390D01*
X64178170Y-111776140D02*
X64178170Y-116538640D01*
X47509420Y-109394890D02*
X61796920Y-109394890D01*
X45128170Y-87963640D02*
X45128170Y-107013640D01*
X61796920Y-85582390D02*
X47509420Y-85582390D01*
X64178170Y-59388640D02*
X64178170Y-83201140D01*
X80846920Y-57007390D02*
X66559420Y-57007390D01*
X83228170Y-40338640D02*
X83228170Y-54626140D01*
X87990670Y-37957390D02*
X85609420Y-37957390D01*
X180859420Y-37957390D02*
X185621920Y-42719890D01*
X87990670Y-37957390D02*
X180859420Y-37957390D01*
M02*
