M48
; DRILL file {KiCad 5.1.9} date Sun Apr 18 16:49:52 2021
; FORMAT={-:-/ absolute / inch / decimal}
; #@! TF.CreationDate,2021-04-18T16:49:52+02:00
; #@! TF.GenerationSoftware,Kicad,Pcbnew,5.1.9
; #@! TF.FileFunction,Plated,1,2,PTH
FMAT,2
INCH
T1C0.0157
T2C0.0276
T3C0.0320
T4C0.0354
T5C0.0394
T6C0.0433
T7C0.0590
T8C0.0866
%
G90
G05
T1
X2.4789Y-3.5251
X2.5789Y-3.4421
X2.586Y-3.8539
X2.5951Y-3.6496
X2.5994Y-3.7118
X2.6051Y-3.8079
X2.6051Y-3.8998
X2.612Y-3.5704
X2.651Y-3.7889
X2.651Y-3.9188
X2.6969Y-3.8079
X2.6969Y-3.8998
X2.716Y-3.8539
X2.7478Y-3.1744
X2.7982Y-3.1692
X3.2342Y-4.5935
X3.3006Y-2.7724
X3.3149Y-4.3553
X3.3336Y-2.8106
X3.3395Y-4.1633
X3.3419Y-2.448
X3.3608Y-4.4681
X3.3825Y-2.6507
X3.3829Y-2.5499
X3.3984Y-4.3438
X3.4907Y-4.4381
X3.5147Y-2.2968
X3.5537Y-2.2468
X3.9947Y-2.1129
X4.0459Y-3.8476
X4.0581Y-2.3468
X4.0632Y-1.8519
X4.0649Y-3.8017
X4.0649Y-3.8935
X4.0771Y-2.3009
X4.0771Y-2.3927
X4.1109Y-3.7826
X4.1109Y-3.9125
X4.1231Y-2.2818
X4.1231Y-2.4118
X4.1364Y-2.0877
X4.1423Y-1.9342
X4.1568Y-3.8017
X4.1568Y-3.8935
X4.169Y-2.3009
X4.169Y-2.3927
X4.1758Y-3.8476
X4.188Y-2.3468
X5.0069Y-2.1988
X5.0104Y-2.2503
X5.1915Y-4.8066
X5.1919Y-4.8637
X5.3171Y-4.7889
X5.3289Y-5.044
X5.471Y-2.2334
X5.5195Y-5.3373
X5.5385Y-5.2914
X5.5385Y-5.3833
X5.54Y-3.8429
X5.559Y-3.7969
X5.559Y-3.8888
X5.5845Y-5.2724
X5.5845Y-5.4023
X5.5945Y-1.8832
X5.6049Y-3.7779
X5.6049Y-3.9078
X5.6295Y-2.0364
X5.6304Y-5.2914
X5.6304Y-5.3833
X5.6478Y-1.9873
X5.6494Y-5.3373
X5.6509Y-3.7969
X5.6509Y-3.8888
X5.6565Y-4.9496
X5.6699Y-3.8429
X5.8419Y-2.9661
X6.1995Y-2.8501
X6.292Y-2.3464
X6.311Y-2.3005
X6.311Y-2.3923
X6.3569Y-2.2814
X6.3569Y-2.4114
X6.36Y-4.7185
X6.361Y-4.8072
X6.362Y-4.7622
X6.4029Y-2.3005
X6.4029Y-2.3923
X6.4219Y-2.3464
X6.5088Y-2.2511
X6.5354Y-4.8072
X6.5364Y-4.7185
X6.538Y-4.7622
X6.9643Y-2.1318
X7.0294Y-5.724
X7.0484Y-5.678
X7.0484Y-5.7699
X7.0919Y-1.8488
X7.0943Y-5.659
X7.0943Y-5.7889
X7.0954Y-2.2476
X7.1258Y-4.9692
X7.1262Y-4.9279
X7.1403Y-5.678
X7.1403Y-5.7699
X7.1593Y-5.724
X7.1608Y-4.8452
X7.2077Y-1.8425
X7.2417Y-1.8706
X7.571Y-4.0066
X7.6293Y-4.0492
X7.7046Y-5.0586
X7.7236Y-5.0127
X7.7236Y-5.1045
X7.7664Y-2.5259
X7.7695Y-4.9936
X7.7695Y-5.1236
X7.7707Y-4.0771
X7.7854Y-2.48
X7.7854Y-2.5719
X7.7897Y-4.0312
X7.7897Y-4.123
X7.8136Y-3.1649
X7.8154Y-5.0127
X7.8154Y-5.1045
X7.8313Y-2.461
X7.8313Y-2.5909
X7.8345Y-5.0586
X7.8357Y-4.0122
X7.8357Y-4.1421
X7.8427Y-3.1354
X7.8773Y-2.48
X7.8773Y-2.5719
X7.8797Y-3.1098
X7.8816Y-4.0312
X7.8816Y-4.123
X7.8963Y-2.5259
X7.9006Y-4.0771
X7.9088Y-3.0799
X7.9703Y-3.135
X7.9781Y-3.2106
X8.0073Y-3.1389
X8.0104Y-3.2476
X8.049Y-3.348
X8.1031Y-3.3466
X8.21Y-2.4106
X8.284Y-3.3897
X8.3033Y-2.5381
X8.3041Y-2.5807
X8.3055Y-2.9805
X8.3057Y-2.6803
X8.3057Y-2.7807
X8.3059Y-3.1958
X8.3065Y-2.8795
X8.3411Y-3.4685
X8.4577Y-2.2799
X8.4799Y-2.3336
X8.5116Y-2.4314
X8.512Y-2.5244
X8.5632Y-2.3023
X8.5706Y-2.2275
X8.6498Y-3.3133
T2
X2.0919Y-4.0255
X2.0919Y-4.0256
X2.399Y-4.0255
X2.399Y-4.0256
X2.8419Y-2.9006
X2.8419Y-2.9008
X2.8419Y-3.6504
X2.8419Y-3.6506
X2.8419Y-4.4006
X2.8419Y-4.4007
X3.149Y-2.9006
X3.149Y-2.9008
X3.149Y-3.6504
X3.149Y-3.6506
X3.149Y-4.4006
X3.149Y-4.4007
X3.5919Y-2.1506
X3.5919Y-2.1508
X3.5919Y-2.9006
X3.5919Y-3.6506
X3.5919Y-4.4006
X3.5923Y-2.9008
X3.5923Y-3.65
X3.5923Y-4.4007
X3.899Y-2.1506
X3.899Y-2.1508
X3.899Y-2.9006
X3.899Y-3.6506
X3.899Y-4.4006
X3.8994Y-2.9008
X3.8994Y-3.65
X3.8994Y-4.4007
X4.3419Y-2.1504
X4.3419Y-2.1506
X4.3419Y-2.9006
X4.3419Y-2.9012
X4.3419Y-3.6506
X4.3419Y-3.6507
X4.3419Y-4.4006
X4.3419Y-4.4007
X4.649Y-2.1504
X4.649Y-2.1506
X4.649Y-2.9006
X4.649Y-2.9012
X4.649Y-3.6506
X4.649Y-3.6507
X4.649Y-4.4006
X4.649Y-4.4007
X5.0919Y-2.1504
X5.0919Y-2.1506
X5.0919Y-2.9006
X5.0919Y-2.9008
X5.0919Y-3.6503
X5.0919Y-3.6506
X5.0919Y-4.4006
X5.0919Y-4.4008
X5.399Y-2.1504
X5.399Y-2.1506
X5.399Y-2.9006
X5.399Y-2.9008
X5.399Y-3.6503
X5.399Y-3.6506
X5.399Y-4.4006
X5.399Y-4.4008
X5.8409Y-2.8996
X5.8419Y-2.1504
X5.8419Y-2.1506
X5.8419Y-2.9006
X5.8419Y-3.65
X5.8419Y-3.6506
X5.8419Y-4.4006
X5.8419Y-4.4008
X5.8419Y-5.3381
X5.8419Y-5.3381
X6.148Y-2.8996
X6.149Y-2.1504
X6.149Y-2.1506
X6.149Y-2.9006
X6.149Y-3.65
X6.149Y-3.6506
X6.149Y-4.4006
X6.149Y-4.4008
X6.149Y-5.3381
X6.149Y-5.3381
X6.5919Y-2.1504
X6.5919Y-2.1506
X6.5919Y-2.9006
X6.5919Y-2.9008
X6.5919Y-3.6506
X6.5919Y-3.6508
X6.5919Y-4.4006
X6.5919Y-4.4007
X6.5919Y-5.5254
X6.5919Y-5.5256
X6.899Y-2.1504
X6.899Y-2.1506
X6.899Y-2.9006
X6.899Y-2.9008
X6.899Y-3.6506
X6.899Y-3.6508
X6.899Y-4.4006
X6.899Y-4.4007
X6.899Y-5.5254
X6.899Y-5.5256
X7.3415Y-3.8381
X7.3419Y-2.3381
X7.3419Y-3.0881
X7.3419Y-3.8381
X7.3419Y-5.7131
X7.3419Y-5.7131
X7.3423Y-2.3377
X7.3423Y-3.0881
X7.6486Y-3.8381
X7.649Y-2.3381
X7.649Y-3.0881
X7.649Y-3.8381
X7.649Y-5.7131
X7.649Y-5.7131
X7.6494Y-2.3377
X7.6494Y-3.0881
X7.7366Y-4.667
X7.7369Y-4.6671
X7.9537Y-4.8841
X7.954Y-4.8842
T3
X8.2974Y-3.3133
X8.3974Y-3.3133
X8.3978Y-3.207
X8.4974Y-3.3133
X8.4978Y-3.207
X8.5974Y-3.3133
X8.5978Y-3.207
X8.6978Y-3.207
T5
X8.0549Y-3.6818
X8.0549Y-3.9889
T6
X8.147Y-1.8807
X8.147Y-1.9807
X8.147Y-2.0807
X8.147Y-2.1807
X8.147Y-2.2807
X8.147Y-2.3807
X8.147Y-2.4807
X8.147Y-2.5807
X8.147Y-2.6807
X8.147Y-2.7807
X8.147Y-2.8807
X8.147Y-2.9807
X8.2478Y-1.9381
X8.2478Y-2.0381
X8.2478Y-2.1381
X8.2478Y-2.2381
X8.2478Y-2.3381
X8.2478Y-2.4381
X8.2478Y-2.5381
X8.2478Y-2.6381
X8.2478Y-2.7381
X8.2478Y-2.8381
X8.2478Y-2.9381
X8.2478Y-3.0381
X8.747Y-1.8807
X8.747Y-1.9807
X8.747Y-2.0807
X8.747Y-2.1807
X8.747Y-2.2807
X8.747Y-2.3807
X8.747Y-2.4807
X8.747Y-2.5807
X8.747Y-2.6807
X8.747Y-2.7807
X8.747Y-2.8807
X8.747Y-2.9807
X8.8478Y-1.9381
X8.8478Y-2.0381
X8.8478Y-2.1381
X8.8478Y-2.2381
X8.8478Y-2.3381
X8.8478Y-2.4381
X8.8478Y-2.5381
X8.8478Y-2.6381
X8.8478Y-2.7381
X8.8478Y-2.8381
X8.8478Y-2.9381
X8.8478Y-3.0381
T7
X2.0954Y-3.7381
X2.1454Y-3.6381
X2.3454Y-3.6381
X2.3954Y-3.7381
X2.8454Y-2.6131
X2.8454Y-3.3631
X2.8454Y-4.1131
X2.8954Y-2.5131
X2.8954Y-3.2631
X2.8954Y-4.0131
X3.0954Y-2.5131
X3.0954Y-3.2631
X3.0954Y-4.0131
X3.1454Y-2.6131
X3.1454Y-3.3631
X3.1454Y-4.1131
X3.5954Y-1.8631
X3.5954Y-2.6131
X3.5954Y-3.3631
X3.5954Y-4.1131
X3.6454Y-1.7631
X3.6454Y-2.5131
X3.6454Y-3.2631
X3.6454Y-4.0131
X3.8454Y-1.7631
X3.8454Y-2.5131
X3.8454Y-3.2631
X3.8454Y-4.0131
X3.8954Y-1.8631
X3.8954Y-2.6131
X3.8954Y-3.3631
X3.8954Y-4.1131
X4.3454Y-1.8631
X4.3454Y-2.6131
X4.3454Y-3.3631
X4.3454Y-4.1131
X4.3954Y-1.7631
X4.3954Y-2.5131
X4.3954Y-3.2631
X4.3954Y-4.0131
X4.5954Y-1.7631
X4.5954Y-2.5131
X4.5954Y-3.2631
X4.5954Y-4.0131
X4.6454Y-1.8631
X4.6454Y-2.6131
X4.6454Y-3.3631
X4.6454Y-4.1131
X5.0954Y-1.8631
X5.0954Y-2.6131
X5.0954Y-3.3631
X5.0954Y-4.1131
X5.1454Y-1.7631
X5.1454Y-2.5131
X5.1454Y-3.2631
X5.1454Y-4.0131
X5.3454Y-1.7631
X5.3454Y-2.5131
X5.3454Y-3.2631
X5.3454Y-4.0131
X5.3954Y-1.8631
X5.3954Y-2.6131
X5.3954Y-3.3631
X5.3954Y-4.1131
X5.8454Y-1.8631
X5.8454Y-2.6131
X5.8454Y-3.3631
X5.8454Y-4.1131
X5.8454Y-5.0506
X5.8954Y-1.7631
X5.8954Y-2.5131
X5.8954Y-3.2631
X5.8954Y-4.0131
X5.8954Y-4.9506
X6.0954Y-1.7631
X6.0954Y-2.5131
X6.0954Y-3.2631
X6.0954Y-4.0131
X6.0954Y-4.9506
X6.1454Y-1.8631
X6.1454Y-2.6131
X6.1454Y-3.3631
X6.1454Y-4.1131
X6.1454Y-5.0506
X6.5954Y-1.8631
X6.5954Y-2.6131
X6.5954Y-3.3631
X6.5954Y-4.1131
X6.5954Y-5.2381
X6.6454Y-1.7631
X6.6454Y-2.5131
X6.6454Y-3.2631
X6.6454Y-4.0131
X6.6454Y-5.1381
X6.8454Y-1.7631
X6.8454Y-2.5131
X6.8454Y-3.2631
X6.8454Y-4.0131
X6.8454Y-5.1381
X6.8954Y-1.8631
X6.8954Y-2.6131
X6.8954Y-3.3631
X6.8954Y-4.1131
X6.8954Y-5.2381
X7.3454Y-2.0506
X7.3454Y-2.8006
X7.3454Y-3.5506
X7.3454Y-5.4256
X7.3954Y-1.9506
X7.3954Y-2.7006
X7.3954Y-3.4506
X7.3954Y-5.3256
X7.5954Y-1.9506
X7.5954Y-2.7006
X7.5954Y-3.4506
X7.5954Y-5.3256
X7.6454Y-2.0506
X7.6454Y-2.8006
X7.6454Y-3.5506
X7.6454Y-5.4256
X7.9398Y-4.4829
X8.0459Y-4.4476
X8.152Y-4.6951
X8.1873Y-4.589
T8
X2.651Y-3.8539
X2.651Y-3.8539
X4.1108Y-3.8476
X4.1109Y-3.8476
X4.123Y-2.3468
X4.1231Y-2.3468
X5.5844Y-5.3373
X5.5845Y-5.3373
X5.6049Y-3.8429
X5.6049Y-3.8429
X6.3569Y-2.346
X6.3569Y-2.3464
X7.0943Y-5.724
X7.0943Y-5.724
X7.7695Y-5.0586
X7.7695Y-5.0586
X7.8313Y-2.5259
X7.8313Y-2.5259
X7.8356Y-4.0771
X7.8357Y-4.0771
T4
G00X8.4604Y-3.5255
M15
G01X8.4447Y-3.5255
M16
G05
G00X8.4451Y-3.6181
M15
G01X8.4608Y-3.6181
M16
G05
G00X8.5037Y-3.7066
M15
G01X8.488Y-3.7066
M16
G05
G00X8.4884Y-3.437
M15
G01X8.5041Y-3.437
M16
G05
G00X8.6612Y-3.7066
M15
G01X8.6454Y-3.7066
M16
G05
G00X8.6458Y-3.437
M15
G01X8.6616Y-3.437
M16
G05
G00X8.7793Y-3.7066
M15
G01X8.7636Y-3.7066
M16
G05
G00X8.764Y-3.437
M15
G01X8.7797Y-3.437
M16
G05
T0
M30
